<?xml version="1.0" standalone="no"?><!DOCTYPE svg PUBLIC "-//W3C//DTD SVG 1.1//EN" "http://www.w3.org/Graphics/SVG/1.1/DTD/svg11.dtd"><svg xmlns:xlink="http://www.w3.org/1999/xlink" xmlns="http://www.w3.org/2000/svg" font-family="Myriad Pro, Helvetica, Arial" font-size="12" data-jsgraph-version="v2.0.100" tabindex="0" width="640" height="434"><defs><clipPath id="_clipplot67ef7746-79fa-4bfe-87b5-85d19d22eaf2" clipPathUnits="userSpaceOnUse"><rect y="0" x="33.35546875" width="566.64453125" height="379"/></clipPath><marker xmlns="" viewBox="0 0 10 10" id="arrow67ef7746-79fa-4bfe-87b5-85d19d22eaf2" refX="6" refY="5" markerUnits="strokeWidth" markerWidth="8" markerHeight="6" orient="auto"><path xmlns="http://www.w3.org/2000/svg" d="M 0 0 L 10 5 L 0 10 z"/></marker><marker viewBox="0 0 6 8" id="horionzalsplit_67ef7746-79fa-4bfe-87b5-85d19d22eaf2" refX="3" refY="4" markerUnits="strokeWidth" markerWidth="6" markerHeight="8"><line x1="0" y1="8" x2="6" y2="0" stroke="black"/></marker><marker viewBox="0 0 8 6" id="verticalsplit_67ef7746-79fa-4bfe-87b5-85d19d22eaf2" refX="4" refY="3" markerUnits="strokeWidth" markerWidth="8" markerHeight="6"><line x1="0" y1="0" x2="8" y2="6" stroke="black"/></marker><marker viewBox="0 0 10 10" id="verticalline67ef7746-79fa-4bfe-87b5-85d19d22eaf2" refX="0" refY="5" markerUnits="strokeWidth" markerWidth="20" markerHeight="10" orient="auto" stroke-width="1px"><path d="M 0 -10 L 0 10" stroke="black"/></marker></defs><g><rect pointer-events="fill" fill="transparent" y="30" x="53.35546875" width="566.64453125" height="379"/><text text-anchor="middle" y="20" x="320"/><g transform="translate(20, 30)"><g><g><g><path shape-rendering="crispEdges" stroke="#F0F0F0" stroke-width="1" stroke-opacity="undefined" clip-path="url(#_clipplot67ef7746-79fa-4bfe-87b5-85d19d22eaf2)" d="M 42.79954427083334 0 L 42.79954427083334 399M 52.24361979166667 0 L 52.24361979166667 399M 61.6876953125 0 L 61.6876953125 399M 71.13177083333333 0 L 71.13177083333333 399M 80.57584635416667 0 L 80.57584635416667 399M 90.019921875 0 L 90.019921875 399M 99.46399739583335 0 L 99.46399739583335 399M 108.90807291666667 0 L 108.90807291666667 399M 118.35214843749999 0 L 118.35214843749999 399M 127.79622395833333 0 L 127.79622395833333 399M 137.24029947916668 0 L 137.24029947916668 399M 146.684375 0 L 146.684375 399M 156.12845052083333 0 L 156.12845052083333 399M 165.5725260416667 0 L 165.5725260416667 399M 175.01660156250003 0 L 175.01660156250003 399M 184.46067708333337 0 L 184.46067708333337 399M 193.90475260416673 0 L 193.90475260416673 399M 203.34882812500007 0 L 203.34882812500007 399M 212.79290364583338 0 L 212.79290364583338 399M 231.68105468750002 0 L 231.68105468750002 399M 241.1251302083334 0 L 241.1251302083334 399M 250.56920572916673 0 L 250.56920572916673 399M 260.01328125000003 0 L 260.01328125000003 399M 269.45735677083337 0 L 269.45735677083337 399M 278.90143229166677 0 L 278.90143229166677 399M 288.34550781250005 0 L 288.34550781250005 399M 297.78958333333344 0 L 297.78958333333344 399M 307.2336588541668 0 L 307.2336588541668 399M 326.12180989583345 0 L 326.12180989583345 399M 335.56588541666673 0 L 335.56588541666673 399M 345.00996093750007 0 L 345.00996093750007 399M 354.45403645833346 0 L 354.45403645833346 399M 363.89811197916674 0 L 363.89811197916674 399M 373.34218750000014 0 L 373.34218750000014 399M 382.7862630208335 0 L 382.7862630208335 399M 392.23033854166675 0 L 392.23033854166675 399M 401.67441406250015 0 L 401.67441406250015 399M 420.56256510416677 0 L 420.56256510416677 399M 430.00664062500005 0 L 430.00664062500005 399M 439.4507161458334 0 L 439.4507161458334 399M 448.8947916666668 0 L 448.8947916666668 399M 458.33886718750006 0 L 458.33886718750006 399M 467.78294270833345 0 L 467.78294270833345 399M 477.2270182291668 0 L 477.2270182291668 399M 486.67109375000007 0 L 486.67109375000007 399M 496.11516927083346 0 L 496.11516927083346 399M 515.0033203125 0 L 515.0033203125 399M 524.4473958333333 0 L 524.4473958333333 399M 533.8914713541667 0 L 533.8914713541667 399M 543.3355468750001 0 L 543.3355468750001 399M 552.7796223958334 0 L 552.7796223958334 399M 562.2236979166668 0 L 562.2236979166668 399M 571.6677734375 0 L 571.6677734375 399M 581.1118489583334 0 L 581.1118489583334 399M 590.5559244791667 0 L 590.5559244791667 399"/><path shape-rendering="crispEdges" stroke="#F0F0F0" stroke-width="1" stroke-opacity="undefined" clip-path="url(#_clipplot67ef7746-79fa-4bfe-87b5-85d19d22eaf2)" d="M 0 365.83113273106324 L 600 365.83113273106324M 0 352.66226546212647 L 600 352.66226546212647M 0 339.4933981931897 L 600 339.4933981931897M 0 326.32453092425294 L 600 326.32453092425294M 0 313.1556636553162 L 600 313.1556636553162M 0 299.9867963863794 L 600 299.9867963863794M 0 286.81792911744265 L 600 286.81792911744265M 0 273.6490618485059 L 600 273.6490618485059M 0 260.4801945795692 L 600 260.4801945795692M 0 247.31132731063238 L 600 247.31132731063238M 0 234.1424600416956 L 600 234.1424600416956M 0 220.97359277275888 L 600 220.97359277275888M 0 207.80472550382208 L 600 207.80472550382208M 0 194.63585823488532 L 600 194.63585823488532M 0 181.46699096594855 L 600 181.46699096594855M 0 168.29812369701176 L 600 168.29812369701176M 0 155.12925642807502 L 600 155.12925642807502M 0 141.96038915913823 L 600 141.96038915913823M 0 128.79152189020144 L 600 128.79152189020144M 0 102.45378735232799 L 600 102.45378735232799M 0 89.28492008339117 L 600 89.28492008339117M 0 76.11605281445446 L 600 76.11605281445446M 0 62.94718554551764 L 600 62.94718554551764M 0 49.778318276580876 L 600 49.778318276580876M 0 36.60945100764411 L 600 36.60945100764411M 0 23.440583738707346 L 600 23.440583738707346M 0 10.271716469770524 L 600 10.271716469770524"/></g><g><path shape-rendering="crispEdges" stroke="#DADADA" stroke-width="1" stroke-opacity="undefined" clip-path="url(#_clipplot67ef7746-79fa-4bfe-87b5-85d19d22eaf2)" d="M 33.35546875 0 L 33.35546875 399M 127.79622395833334 0 L 127.79622395833334 399M 222.23697916666669 0 L 222.23697916666669 399M 316.67773437500006 0 L 316.67773437500006 399M 411.11848958333337 0 L 411.11848958333337 399M 505.5592447916667 0 L 505.5592447916667 399M 600 0 L 600 399"/><path shape-rendering="crispEdges" stroke="#DADADA" stroke-width="1" stroke-opacity="undefined" clip-path="url(#_clipplot67ef7746-79fa-4bfe-87b5-85d19d22eaf2)" d="M 0 379 L 600 379M 0 247.31132731063238 L 600 247.31132731063238M 0 115.62265462126476 L 600 115.62265462126476"/></g></g><g transform="translate(0 379)"><rect pointer-events="fill" fill="transparent"/><g><line y1="0" y2="-2" stroke="black" display="visible" x1="42.79954427083334" x2="42.79954427083334"/><line y1="0" y2="-2" stroke="black" display="visible" x1="52.24361979166667" x2="52.24361979166667"/><line y1="0" y2="-2" stroke="black" display="visible" x1="61.6876953125" x2="61.6876953125"/><line y1="0" y2="-2" stroke="black" display="visible" x1="71.13177083333333" x2="71.13177083333333"/><line y1="0" y2="-4" stroke="black" display="visible" x1="80.57584635416667" x2="80.57584635416667"/><line y1="0" y2="-2" stroke="black" display="visible" x1="90.019921875" x2="90.019921875"/><line y1="0" y2="-2" stroke="black" display="visible" x1="99.46399739583335" x2="99.46399739583335"/><line y1="0" y2="-2" stroke="black" display="visible" x1="108.90807291666667" x2="108.90807291666667"/><line y1="0" y2="-2" stroke="black" display="visible" x1="118.35214843749999" x2="118.35214843749999"/><line y1="0" y2="-2" stroke="black" display="visible" x1="127.79622395833333" x2="127.79622395833333"/><line y1="0" y2="-6" stroke="black" display="visible" x1="33.35546875" x2="33.35546875"/><line y1="0" y2="-2" stroke="black" display="visible" x1="137.24029947916668" x2="137.24029947916668"/><line y1="0" y2="-2" stroke="black" display="visible" x1="146.684375" x2="146.684375"/><line y1="0" y2="-2" stroke="black" display="visible" x1="156.12845052083333" x2="156.12845052083333"/><line y1="0" y2="-2" stroke="black" display="visible" x1="165.5725260416667" x2="165.5725260416667"/><line y1="0" y2="-4" stroke="black" display="visible" x1="175.01660156250003" x2="175.01660156250003"/><line y1="0" y2="-2" stroke="black" display="visible" x1="184.46067708333337" x2="184.46067708333337"/><line y1="0" y2="-2" stroke="black" display="visible" x1="193.90475260416673" x2="193.90475260416673"/><line y1="0" y2="-2" stroke="black" display="visible" x1="203.34882812500007" x2="203.34882812500007"/><line y1="0" y2="-2" stroke="black" display="visible" x1="212.79290364583338" x2="212.79290364583338"/><line y1="0" y2="-6" stroke="black" display="visible" x1="127.79622395833334" x2="127.79622395833334"/><line y1="0" y2="-2" stroke="black" display="visible" x1="231.68105468750002" x2="231.68105468750002"/><line y1="0" y2="-2" stroke="black" display="visible" x1="241.1251302083334" x2="241.1251302083334"/><line y1="0" y2="-2" stroke="black" display="visible" x1="250.56920572916673" x2="250.56920572916673"/><line y1="0" y2="-2" stroke="black" display="visible" x1="260.01328125000003" x2="260.01328125000003"/><line y1="0" y2="-4" stroke="black" display="visible" x1="269.45735677083337" x2="269.45735677083337"/><line y1="0" y2="-2" stroke="black" display="visible" x1="278.90143229166677" x2="278.90143229166677"/><line y1="0" y2="-2" stroke="black" display="visible" x1="288.34550781250005" x2="288.34550781250005"/><line y1="0" y2="-2" stroke="black" display="visible" x1="297.78958333333344" x2="297.78958333333344"/><line y1="0" y2="-2" stroke="black" display="visible" x1="307.2336588541668" x2="307.2336588541668"/><line y1="0" y2="-6" stroke="black" display="visible" x1="222.23697916666669" x2="222.23697916666669"/><line y1="0" y2="-2" stroke="black" display="visible" x1="326.12180989583345" x2="326.12180989583345"/><line y1="0" y2="-2" stroke="black" display="visible" x1="335.56588541666673" x2="335.56588541666673"/><line y1="0" y2="-2" stroke="black" display="visible" x1="345.00996093750007" x2="345.00996093750007"/><line y1="0" y2="-2" stroke="black" display="visible" x1="354.45403645833346" x2="354.45403645833346"/><line y1="0" y2="-4" stroke="black" display="visible" x1="363.89811197916674" x2="363.89811197916674"/><line y1="0" y2="-2" stroke="black" display="visible" x1="373.34218750000014" x2="373.34218750000014"/><line y1="0" y2="-2" stroke="black" display="visible" x1="382.7862630208335" x2="382.7862630208335"/><line y1="0" y2="-2" stroke="black" display="visible" x1="392.23033854166675" x2="392.23033854166675"/><line y1="0" y2="-2" stroke="black" display="visible" x1="401.67441406250015" x2="401.67441406250015"/><line y1="0" y2="-6" stroke="black" display="visible" x1="316.67773437500006" x2="316.67773437500006"/><line y1="0" y2="-2" stroke="black" display="visible" x1="420.56256510416677" x2="420.56256510416677"/><line y1="0" y2="-2" stroke="black" display="visible" x1="430.00664062500005" x2="430.00664062500005"/><line y1="0" y2="-2" stroke="black" display="visible" x1="439.4507161458334" x2="439.4507161458334"/><line y1="0" y2="-2" stroke="black" display="visible" x1="448.8947916666668" x2="448.8947916666668"/><line y1="0" y2="-4" stroke="black" display="visible" x1="458.33886718750006" x2="458.33886718750006"/><line y1="0" y2="-2" stroke="black" display="visible" x1="467.78294270833345" x2="467.78294270833345"/><line y1="0" y2="-2" stroke="black" display="visible" x1="477.2270182291668" x2="477.2270182291668"/><line y1="0" y2="-2" stroke="black" display="visible" x1="486.67109375000007" x2="486.67109375000007"/><line y1="0" y2="-2" stroke="black" display="visible" x1="496.11516927083346" x2="496.11516927083346"/><line y1="0" y2="-6" stroke="black" display="visible" x1="411.11848958333337" x2="411.11848958333337"/><line y1="0" y2="-2" stroke="black" display="visible" x1="515.0033203125" x2="515.0033203125"/><line y1="0" y2="-2" stroke="black" display="visible" x1="524.4473958333333" x2="524.4473958333333"/><line y1="0" y2="-2" stroke="black" display="visible" x1="533.8914713541667" x2="533.8914713541667"/><line y1="0" y2="-2" stroke="black" display="visible" x1="543.3355468750001" x2="543.3355468750001"/><line y1="0" y2="-4" stroke="black" display="visible" x1="552.7796223958334" x2="552.7796223958334"/><line y1="0" y2="-2" stroke="black" display="visible" x1="562.2236979166668" x2="562.2236979166668"/><line y1="0" y2="-2" stroke="black" display="visible" x1="571.6677734375" x2="571.6677734375"/><line y1="0" y2="-2" stroke="black" display="visible" x1="581.1118489583334" x2="581.1118489583334"/><line y1="0" y2="-2" stroke="black" display="visible" x1="590.5559244791667" x2="590.5559244791667"/><line y1="0" y2="-6" stroke="black" display="visible" x1="505.5592447916667" x2="505.5592447916667"/><line y1="0" y2="-6" stroke="black" display="visible" x1="600" x2="600"/></g><g><text y="8" text-anchor="middle" display="visible" x="33.35546875" style="dominant-baseline: hanging;">0.00</text><text y="8" text-anchor="middle" display="visible" x="127.79622395833334" style="dominant-baseline: hanging;">0.05</text><text y="8" text-anchor="middle" display="visible" x="222.23697916666669" style="dominant-baseline: hanging;">0.10</text><text y="8" text-anchor="middle" display="visible" x="316.67773437500006" style="dominant-baseline: hanging;">0.15</text><text y="8" text-anchor="middle" display="visible" x="411.11848958333337" style="dominant-baseline: hanging;">0.20</text><text y="8" text-anchor="middle" display="visible" x="505.5592447916667" style="dominant-baseline: hanging;">0.25</text><text y="8" text-anchor="middle" display="visible" x="600" style="dominant-baseline: hanging;">0.30</text></g><line stroke="black" shape-rendering="crispEdges" stroke-linecap="square" display="block" x1="33.35546875" x2="600" y1="0" y2="0" marker-start="" marker-end=""/><text text-anchor="middle" fill="undefined" style="display: initial;" x="316.677734375" y="22"><tspan style="dominant-baseline: hanging;"/><tspan display="none" style="dominant-baseline: hanging;"/><tspan dx="6" display="none" style="dominant-baseline: hanging;"/><tspan dy="-5" font-size="0.8em" display="none" style="dominant-baseline: hanging;"/></text><g/></g><g transform="translate( 33.35546875 0 )"><rect pointer-events="fill" fill="transparent"/><g><line x1="0" x2="2" stroke="black" display="visible" y1="365.83113273106324" y2="365.83113273106324"/><line x1="0" x2="2" stroke="black" display="visible" y1="352.66226546212647" y2="352.66226546212647"/><line x1="0" x2="2" stroke="black" display="visible" y1="339.4933981931897" y2="339.4933981931897"/><line x1="0" x2="2" stroke="black" display="visible" y1="326.32453092425294" y2="326.32453092425294"/><line x1="0" x2="4" stroke="black" display="visible" y1="313.1556636553162" y2="313.1556636553162"/><line x1="0" x2="2" stroke="black" display="visible" y1="299.9867963863794" y2="299.9867963863794"/><line x1="0" x2="2" stroke="black" display="visible" y1="286.81792911744265" y2="286.81792911744265"/><line x1="0" x2="2" stroke="black" display="visible" y1="273.6490618485059" y2="273.6490618485059"/><line x1="0" x2="2" stroke="black" display="visible" y1="260.4801945795692" y2="260.4801945795692"/><line x1="0" x2="2" stroke="black" display="visible" y1="247.31132731063238" y2="247.31132731063238"/><line x1="0" x2="6" stroke="black" display="visible" y1="379" y2="379"/><line x1="0" x2="2" stroke="black" display="visible" y1="234.1424600416956" y2="234.1424600416956"/><line x1="0" x2="2" stroke="black" display="visible" y1="220.97359277275888" y2="220.97359277275888"/><line x1="0" x2="2" stroke="black" display="visible" y1="207.80472550382208" y2="207.80472550382208"/><line x1="0" x2="2" stroke="black" display="visible" y1="194.63585823488532" y2="194.63585823488532"/><line x1="0" x2="4" stroke="black" display="visible" y1="181.46699096594855" y2="181.46699096594855"/><line x1="0" x2="2" stroke="black" display="visible" y1="168.29812369701176" y2="168.29812369701176"/><line x1="0" x2="2" stroke="black" display="visible" y1="155.12925642807502" y2="155.12925642807502"/><line x1="0" x2="2" stroke="black" display="visible" y1="141.96038915913823" y2="141.96038915913823"/><line x1="0" x2="2" stroke="black" display="visible" y1="128.79152189020144" y2="128.79152189020144"/><line x1="0" x2="6" stroke="black" display="visible" y1="247.31132731063238" y2="247.31132731063238"/><line x1="0" x2="2" stroke="black" display="visible" y1="102.45378735232799" y2="102.45378735232799"/><line x1="0" x2="2" stroke="black" display="visible" y1="89.28492008339117" y2="89.28492008339117"/><line x1="0" x2="2" stroke="black" display="visible" y1="76.11605281445446" y2="76.11605281445446"/><line x1="0" x2="2" stroke="black" display="visible" y1="62.94718554551764" y2="62.94718554551764"/><line x1="0" x2="4" stroke="black" display="visible" y1="49.778318276580876" y2="49.778318276580876"/><line x1="0" x2="2" stroke="black" display="visible" y1="36.60945100764411" y2="36.60945100764411"/><line x1="0" x2="2" stroke="black" display="visible" y1="23.440583738707346" y2="23.440583738707346"/><line x1="0" x2="2" stroke="black" display="visible" y1="10.271716469770524" y2="10.271716469770524"/><line x1="0" x2="6" stroke="black" display="visible" y1="115.62265462126476" y2="115.62265462126476"/><line x1="0" x2="2" stroke="black" display="none" y1="2.5894346474096324" y2="2.5894346474096324"/><line x1="0" x2="2" stroke="black" display="none" y1="21.19764683901991" y2="21.19764683901991"/><line x1="0" x2="2" stroke="black" display="none" y1="9.655635446730173" y2="9.655635446730173"/><line x1="0" x2="6" stroke="black" display="none" y1="32.73965823130959" y2="32.73965823130959"/></g><g><text x="-5" text-anchor="end" display="visible" y="379" style="dominant-baseline: central;">0.00</text><text x="-5" text-anchor="end" display="visible" y="247.31132731063238" style="dominant-baseline: central;">0.10</text><text x="-5" text-anchor="end" display="visible" y="115.62265462126476" style="dominant-baseline: central;">0.20</text><text x="-5" text-anchor="end" display="none" y="32.73965823130959" style="dominant-baseline: central;">0.3</text></g><line stroke="black" shape-rendering="crispEdges" stroke-linecap="square" display="block" y1="379" y2="0" x1="0" x2="0" marker-start="" marker-end=""/><text text-anchor="middle" transform="translate(-33.35546875, 189.5) rotate(-90)" fill="undefined" dominant-baseline="auto"><tspan/><tspan display="none"/><tspan dx="6" display="none"/><tspan dy="-5" font-size="0.8em" display="none"/></text><g/></g></g><g><g data-layer="1"><g><g><g><path stroke="rgba(1,1,255,1)" stroke-width="0.0001" fill="none" d="M 599.8000000000001 0 L 458.20000000000005 117.60000000000001 L 316.6 218.60000000000002 L 175 318.40000000000003 "/></g><circle fill="black" r="3" display="block" cx="599.8000000000001" cy="0"/><g/><rect fill="white" display="block" x="604.8000000000001" y="-17" width="2" height="14"/><text display="block" x="604.8000000000001" y="-5"/><g><path fill="rgba(1,1,255,1)" stroke="rgba(1,1,255,1)" stroke-width="1" d="M 599.8000000000001 0 m -2 -2 l 4 0 l 0 4 l -4 0 z M 458.20000000000005 117.60000000000001 m -2 -2 l 4 0 l 0 4 l -4 0 z M 316.6 218.60000000000002 m -2 -2 l 4 0 l 0 4 l -4 0 z M 175 318.40000000000003 m -2 -2 l 4 0 l 0 4 l -4 0 z "/></g></g><g><g><path stroke="rgba(245,255,0,0.53)" stroke-width="3" fill="none" d="M 175 322 L 175.4 321.8 L 175.8 321.40000000000003 L 176.20000000000002 321.20000000000005 L 176.60000000000002 320.8 L 177 320.40000000000003 L 177.4 320.20000000000005 L 177.8 319.8 L 178.4 319.6 L 178.8 319.20000000000005 L 179.20000000000002 318.8 L 179.60000000000002 318.6 L 180 318.20000000000005 L 180.4 318 L 180.8 317.6 L 181.20000000000002 317.40000000000003 L 181.8 317 L 182.20000000000002 316.6 L 182.60000000000002 316.40000000000003 L 183 316 L 183.4 315.8 L 183.8 315.40000000000003 L 184.20000000000002 315 L 184.60000000000002 314.8 L 185.20000000000002 314.40000000000003 L 185.60000000000002 314.20000000000005 L 186 313.8 L 186.4 313.6 L 186.8 313.20000000000005 L 187.20000000000002 312.8 L 187.60000000000002 312.6 L 188 312.20000000000005 L 188.60000000000002 312 L 189 311.6 L 189.4 311.20000000000005 L 189.8 311 L 190.20000000000002 310.6 L 190.60000000000002 310.40000000000003 L 191 310 L 191.4 309.8 L 192 309.40000000000003 L 192.4 309 L 192.8 308.8 L 193.20000000000002 308.40000000000003 L 193.60000000000002 308.20000000000005 L 194 307.8 L 194.4 307.40000000000003 L 194.8 307.20000000000005 L 195.4 306.8 L 195.8 306.6 L 196.20000000000002 306.2 L 196.60000000000002 306 L 197 305.6 L 197.4 305.2 L 197.8 305 L 198.20000000000002 304.6 L 198.8 304.40000000000003 L 199.20000000000002 304 L 199.60000000000002 303.6 L 200 303.40000000000003 L 200.4 303 L 200.8 302.8 L 201.20000000000002 302.40000000000003 L 201.60000000000002 302 L 202.20000000000002 301.8 L 202.60000000000002 301.40000000000003 L 203 301.2 L 203.4 300.8 L 203.8 300.6 L 204.20000000000002 300.2 L 204.60000000000002 299.8 L 205 299.6 L 205.60000000000002 299.2 L 206 299 L 206.4 298.6 L 206.8 298.2 L 207.20000000000002 298 L 207.60000000000002 297.6 L 208 297.40000000000003 L 208.4 297 L 209 296.8 L 209.4 296.40000000000003 L 209.8 296 L 210.20000000000002 295.8 L 210.60000000000002 295.40000000000003 L 211 295.2 L 211.4 294.8 L 211.8 294.40000000000003 L 212.4 294.2 L 212.8 293.8 L 213.20000000000002 293.6 L 213.60000000000002 293.2 L 214 293 L 214.4 292.6 L 214.8 292.2 L 215.20000000000002 292 L 215.8 291.6 L 216.20000000000002 291.40000000000003 L 216.60000000000002 291 L 217 290.6 L 217.4 290.40000000000003 L 217.8 290 L 218.20000000000002 289.8 L 218.60000000000002 289.40000000000003 L 219.20000000000002 289.2 L 219.60000000000002 288.8 L 220 288.40000000000003 L 220.4 288.2 L 220.8 287.8 L 221.20000000000002 287.6 L 221.60000000000002 287.2 L 222 286.8 L 222.60000000000002 286.6 L 223 286.2 L 223.4 286 L 223.8 285.6 L 224.20000000000002 285.40000000000003 L 224.60000000000002 285 L 225 284.6 L 225.4 284.40000000000003 L 226 284 L 226.4 283.8 L 226.8 283.40000000000003 L 227.20000000000002 283 L 227.60000000000002 282.8 L 228 282.40000000000003 L 228.4 282.2 L 228.8 281.8 L 229.4 281.6 L 229.8 281.2 L 230.20000000000002 280.8 L 230.60000000000002 280.6 L 231 280.2 L 231.4 280 L 231.8 279.6 L 232.20000000000002 279.2 L 232.8 279 L 233.20000000000002 278.6 L 233.60000000000002 278.40000000000003 L 234 278 L 234.4 277.6 L 234.8 277.40000000000003 L 235.20000000000002 277 L 235.60000000000002 276.8 L 236.20000000000002 276.40000000000003 L 236.60000000000002 276.2 L 237 275.8 L 237.4 275.40000000000003 L 237.8 275.2 L 238.20000000000002 274.8 L 238.60000000000002 274.6 L 239 274.2 L 239.60000000000002 273.8 L 240 273.6 L 240.4 273.2 L 240.8 273 L 241.20000000000002 272.6 L 241.60000000000002 272.40000000000003 L 242 272 L 242.4 271.6 L 243 271.40000000000003 L 243.4 271 L 243.8 270.8 L 244.20000000000002 270.40000000000003 L 244.60000000000002 270 L 245 269.8 L 245.4 269.40000000000003 L 245.8 269.2 L 246.4 268.8 L 246.8 268.6 L 247.20000000000002 268.2 L 247.60000000000002 267.8 L 248 267.6 L 248.4 267.2 L 248.8 267 L 249.20000000000002 266.6 L 249.8 266.2 L 250.20000000000002 266 L 250.60000000000002 265.6 L 251 265.40000000000003 L 251.4 265 L 251.8 264.8 L 252.20000000000002 264.40000000000003 L 252.60000000000002 264 L 253.20000000000002 263.8 L 253.60000000000002 263.40000000000003 L 254 263.2 L 254.4 262.8 L 254.8 262.40000000000003 L 255.20000000000002 262.2 L 255.60000000000002 261.8 L 256 261.6 L 256.6 261.2 L 257 261 L 257.40000000000003 260.6 L 257.8 260.2 L 258.2 260 L 258.6 259.6 L 259 259.40000000000003 L 259.40000000000003 259 L 260 258.6 L 260.40000000000003 258.40000000000003 L 260.8 258 L 261.2 257.8 L 261.6 257.40000000000003 L 262 257.2 L 262.40000000000003 256.8 L 262.8 256.40000000000003 L 263.40000000000003 256.2 L 263.8 255.8 L 264.2 255.60000000000002 L 264.6 255.20000000000002 L 265 254.8 L 265.40000000000003 254.60000000000002 L 265.8 254.20000000000002 L 266.2 254 L 266.8 253.60000000000002 L 267.2 253.20000000000002 L 267.6 253 L 268 252.60000000000002 L 268.40000000000003 252.4 L 268.8 252 L 269.2 251.8 L 269.6 251.4 L 270.2 251 L 270.6 250.8 L 271 250.4 L 271.40000000000003 250.20000000000002 L 271.8 249.8 L 272.2 249.4 L 272.6 249.20000000000002 L 273 248.8 L 273.6 248.60000000000002 L 274 248.20000000000002 L 274.40000000000003 248 L 274.8 247.60000000000002 L 275.2 247.20000000000002 L 275.6 247 L 276 246.60000000000002 L 276.40000000000003 246.4 L 277 246 L 277.40000000000003 245.60000000000002 L 277.8 245.4 L 278.2 245 L 278.6 244.8 L 279 244.4 L 279.40000000000003 244.20000000000002 L 279.8 243.8 L 280.40000000000003 243.4 L 280.8 243.20000000000002 L 281.2 242.8 L 281.6 242.60000000000002 L 282 242.20000000000002 L 282.40000000000003 241.8 L 282.8 241.60000000000002 L 283.2 241.20000000000002 L 283.8 241 L 284.2 240.60000000000002 L 284.6 240.4 L 285 240 L 285.40000000000003 239.60000000000002 L 285.8 239.4 L 286.2 239 L 286.6 238.8 L 287.2 238.4 L 287.6 238 L 288 237.8 L 288.40000000000003 237.4 L 288.8 237.20000000000002 L 289.2 236.8 L 289.6 236.60000000000002 L 290 236.20000000000002 L 290.6 235.8 L 291 235.60000000000002 L 291.40000000000003 235.20000000000002 L 291.8 235 L 292.2 234.60000000000002 L 292.6 234.20000000000002 L 293 234 L 293.40000000000003 233.60000000000002 L 294 233.4 L 294.40000000000003 233 L 294.8 232.8 L 295.2 232.4 L 295.6 232 L 296 231.8 L 296.40000000000003 231.4 L 296.8 231.20000000000002 L 297.40000000000003 230.8 L 297.8 230.4 L 298.2 230.20000000000002 L 298.6 229.8 L 299 229.60000000000002 L 299.40000000000003 229.20000000000002 L 299.8 228.8 L 300.2 228.60000000000002 L 300.8 228.20000000000002 L 301.2 228 L 301.6 227.60000000000002 L 302 227.4 L 302.40000000000003 227 L 302.8 226.60000000000002 L 303.2 226.4 L 303.6 226 L 304.2 225.8 L 304.6 225.4 L 305 225 L 305.40000000000003 224.8 L 305.8 224.4 L 306.2 224.20000000000002 L 306.6 223.8 L 307 223.60000000000002 L 307.6 223.20000000000002 L 308 222.8 L 308.40000000000003 222.60000000000002 L 308.8 222.20000000000002 L 309.20000000000005 222 L 309.6 221.60000000000002 L 310 221.20000000000002 L 310.40000000000003 221 L 311 220.60000000000002 L 311.40000000000003 220.4 L 311.8 220 L 312.20000000000005 219.8 L 312.6 219.4 L 313 219 L 313.40000000000003 218.8 L 313.8 218.4 L 314.40000000000003 218.20000000000002 L 314.8 217.8 L 315.20000000000005 217.4 L 315.6 217.20000000000002 L 316 216.8 L 316.40000000000003 216.60000000000002 L 316.8 216.20000000000002 L 317.20000000000005 216 L 317.8 215.60000000000002 L 318.20000000000005 215.20000000000002 L 318.6 215 L 319 214.60000000000002 L 319.40000000000003 214.4 L 319.8 214 L 320.20000000000005 213.60000000000002 L 320.6 213.4 L 321.20000000000005 213 L 321.6 212.8 L 322 212.4 L 322.40000000000003 212.20000000000002 L 322.8 211.8 L 323.20000000000005 211.4 L 323.6 211.20000000000002 L 324 210.8 L 324.6 210.60000000000002 L 325 210.20000000000002 L 325.40000000000003 209.8 L 325.8 209.60000000000002 L 326.20000000000005 209.20000000000002 L 326.6 209 L 327 208.60000000000002 L 327.40000000000003 208.4 L 328 208 L 328.40000000000003 207.60000000000002 L 328.8 207.4 L 329.20000000000005 207 L 329.6 206.8 L 330 206.4 L 330.40000000000003 206 L 330.8 205.8 L 331.40000000000003 205.4 L 331.8 205.20000000000002 L 332.20000000000005 204.8 L 332.6 204.4 L 333 204.20000000000002 L 333.40000000000003 203.8 L 333.8 203.60000000000002 L 334.20000000000005 203.20000000000002 L 334.8 203 L 335.20000000000005 202.60000000000002 L 335.6 202.20000000000002 L 336 202 L 336.40000000000003 201.60000000000002 L 336.8 201.4 L 337.20000000000005 201 L 337.6 200.60000000000002 L 338.20000000000005 200.4 L 338.6 200 L 339 199.8 L 339.40000000000003 199.4 L 339.8 199.20000000000002 L 340.20000000000005 198.8 L 340.6 198.4 L 341 198.20000000000002 L 341.6 197.8 L 342 197.60000000000002 L 342.40000000000003 197.20000000000002 L 342.8 196.8 L 343.20000000000005 196.60000000000002 L 343.6 196.20000000000002 L 344 196 L 344.40000000000003 195.60000000000002 L 345 195.4 L 345.40000000000003 195 L 345.8 194.60000000000002 L 346.20000000000005 194.4 L 346.6 194 L 347 193.8 L 347.40000000000003 193.4 L 347.8 193 L 348.40000000000003 192.8 L 348.8 192.4 L 349.20000000000005 192.20000000000002 L 349.6 191.8 L 350 191.60000000000002 L 350.40000000000003 191.20000000000002 L 350.8 190.8 L 351.20000000000005 190.60000000000002 L 351.8 190.20000000000002 L 352.20000000000005 190 L 352.6 189.60000000000002 L 353 189.20000000000002 L 353.40000000000003 189 L 353.8 188.60000000000002 L 354.20000000000005 188.4 L 354.6 188 L 355.20000000000005 187.8 L 355.6 187.4 L 356 187 L 356.40000000000003 186.8 L 356.8 186.4 L 357.20000000000005 186.20000000000002 L 357.6 185.8 L 358 185.4 L 358.6 185.20000000000002 L 359 184.8 L 359.40000000000003 184.60000000000002 L 359.8 184.20000000000002 L 360.20000000000005 184 L 360.6 183.60000000000002 L 361 183.20000000000002 L 361.40000000000003 183 L 362 182.60000000000002 L 362.40000000000003 182.4 L 362.8 182 L 363.20000000000005 181.60000000000002 L 363.6 181.4 L 364 181 L 364.40000000000003 180.8 L 364.8 180.4 L 365.40000000000003 180 L 365.8 179.8 L 366.20000000000005 179.4 L 366.6 179.20000000000002 L 367 178.8 L 367.40000000000003 178.60000000000002 L 367.8 178.20000000000002 L 368.20000000000005 177.8 L 368.8 177.60000000000002 L 369.20000000000005 177.20000000000002 L 369.6 177 L 370 176.60000000000002 L 370.40000000000003 176.20000000000002 L 370.8 176 L 371.20000000000005 175.60000000000002 L 371.6 175.4 L 372.20000000000005 175 L 372.6 174.8 L 373 174.4 L 373.40000000000003 174 L 373.8 173.8 L 374.20000000000005 173.4 L 374.6 173.20000000000002 L 375 172.8 L 375.6 172.4 L 376 172.20000000000002 L 376.40000000000003 171.8 L 376.8 171.60000000000002 L 377.20000000000005 171.20000000000002 L 377.6 171 L 378 170.60000000000002 L 378.40000000000003 170.20000000000002 L 379 170 L 379.40000000000003 169.60000000000002 L 379.8 169.4 L 380.20000000000005 169 L 380.6 168.60000000000002 L 381 168.4 L 381.40000000000003 168 L 381.8 167.8 L 382.40000000000003 167.4 L 382.8 167.20000000000002 L 383.20000000000005 166.8 L 383.6 166.4 L 384 166.20000000000002 L 384.40000000000003 165.8 L 384.8 165.60000000000002 L 385.20000000000005 165.20000000000002 L 385.8 164.8 L 386.20000000000005 164.60000000000002 L 386.6 164.20000000000002 L 387 164 L 387.40000000000003 163.60000000000002 L 387.8 163.4 L 388.20000000000005 163 L 388.6 162.60000000000002 L 389.20000000000005 162.4 L 389.6 162 L 390 161.8 L 390.40000000000003 161.4 L 390.8 161 L 391.20000000000005 160.8 L 391.6 160.4 L 392 160.20000000000002 L 392.6 159.8 L 393 159.60000000000002 L 393.40000000000003 159.20000000000002 L 393.8 158.8 L 394.20000000000005 158.60000000000002 L 394.6 158.20000000000002 L 395 158 L 395.40000000000003 157.60000000000002 L 396 157.20000000000002 L 396.40000000000003 157 L 396.8 156.60000000000002 L 397.20000000000005 156.4 L 397.6 156 L 398 155.60000000000002 L 398.40000000000003 155.4 L 398.8 155 L 399.40000000000003 154.8 L 399.8 154.4 L 400.20000000000005 154.20000000000002 L 400.6 153.8 L 401 153.4 L 401.40000000000003 153.20000000000002 L 401.8 152.8 L 402.20000000000005 152.6 L 402.8 152.20000000000002 L 403.20000000000005 151.8 L 403.6 151.6 L 404 151.20000000000002 L 404.40000000000003 151 L 404.8 150.6 L 405.20000000000005 150.4 L 405.6 150 L 406.20000000000005 149.6 L 406.6 149.4 L 407 149 L 407.40000000000003 148.8 L 407.8 148.4 L 408.20000000000005 148 L 408.6 147.8 L 409 147.4 L 409.6 147.20000000000002 L 410 146.8 L 410.40000000000003 146.6 L 410.8 146.20000000000002 L 411.20000000000005 145.8 L 411.6 145.6 L 412 145.20000000000002 L 412.40000000000003 145 L 413 144.6 L 413.40000000000003 144.20000000000002 L 413.8 144 L 414.20000000000005 143.6 L 414.6 143.4 L 415 143 L 415.40000000000003 142.8 L 415.8 142.4 L 416.40000000000003 142 L 416.8 141.8 L 417.20000000000005 141.4 L 417.6 141.20000000000002 L 418 140.8 L 418.40000000000003 140.4 L 418.8 140.20000000000002 L 419.20000000000005 139.8 L 419.8 139.6 L 420.20000000000005 139.20000000000002 L 420.6 139 L 421 138.6 L 421.40000000000003 138.20000000000002 L 421.8 138 L 422.20000000000005 137.6 L 422.6 137.4 L 423.20000000000005 137 L 423.6 136.6 L 424 136.4 L 424.40000000000003 136 L 424.8 135.8 L 425.20000000000005 135.4 L 425.6 135.20000000000002 L 426 134.8 L 426.6 134.4 L 427 134.20000000000002 L 427.40000000000003 133.8 L 427.8 133.6 L 428.20000000000005 133.20000000000002 L 428.6 132.8 L 429 132.6 L 429.40000000000003 132.20000000000002 L 430 132 L 430.40000000000003 131.6 L 430.8 131.20000000000002 L 431.20000000000005 131 L 431.6 130.6 L 432 130.4 L 432.40000000000003 130 L 432.8 129.8 L 433.40000000000003 129.4 L 433.8 129 L 434.20000000000005 128.8 L 434.6 128.4 L 435 128.20000000000002 L 435.40000000000003 127.80000000000001 L 435.8 127.4 L 436.20000000000005 127.2 L 436.8 126.80000000000001 L 437.20000000000005 126.60000000000001 L 437.6 126.2 L 438 126 L 438.40000000000003 125.60000000000001 L 438.8 125.2 L 439.20000000000005 125 L 439.6 124.60000000000001 L 440.20000000000005 124.4 L 440.6 124 L 441 123.60000000000001 L 441.40000000000003 123.4 L 441.8 123 L 442.20000000000005 122.80000000000001 L 442.6 122.4 L 443 122.2 L 443.6 121.80000000000001 L 444 121.4 L 444.40000000000003 121.2 L 444.8 120.80000000000001 L 445.20000000000005 120.60000000000001 L 445.6 120.2 L 446 119.80000000000001 L 446.40000000000003 119.60000000000001 L 447 119.2 L 447.40000000000003 119 L 447.8 118.60000000000001 L 448.20000000000005 118.4 L 448.6 118 L 449 117.60000000000001 L 449.40000000000003 117.4 L 449.8 117 L 450.40000000000003 116.80000000000001 L 450.8 116.4 L 451.20000000000005 116 L 451.6 115.80000000000001 L 452 115.4 L 452.40000000000003 115.2 L 452.8 114.80000000000001 L 453.20000000000005 114.60000000000001 L 453.8 114.2 L 454.20000000000005 113.80000000000001 L 454.6 113.60000000000001 L 455 113.2 L 455.40000000000003 113 L 455.8 112.60000000000001 L 456.20000000000005 112.2 L 456.6 112 L 457.20000000000005 111.60000000000001 L 457.6 111.4 L 458 111 L 458.40000000000003 110.80000000000001 L 458.8 110.4 L 459.20000000000005 110 L 459.6 109.80000000000001 L 460 109.4 L 460.6 109.2 L 461 108.80000000000001 L 461.40000000000003 108.4 L 461.8 108.2 L 462.20000000000005 107.80000000000001 L 462.6 107.60000000000001 L 463 107.2 L 463.40000000000003 106.80000000000001 L 464 106.60000000000001 L 464.40000000000003 106.2 L 464.8 106 L 465.20000000000005 105.60000000000001 L 465.6 105.4 L 466 105 L 466.40000000000003 104.60000000000001 L 466.8 104.4 L 467.40000000000003 104 L 467.8 103.80000000000001 L 468.20000000000005 103.4 L 468.6 103 L 469 102.80000000000001 L 469.40000000000003 102.4 L 469.8 102.2 L 470.20000000000005 101.80000000000001 L 470.8 101.60000000000001 L 471.20000000000005 101.2 L 471.6 100.80000000000001 L 472 100.60000000000001 L 472.40000000000003 100.2 L 472.8 100 L 473.20000000000005 99.60000000000001 L 473.6 99.2 L 474.20000000000005 99 L 474.6 98.60000000000001 L 475 98.4 L 475.40000000000003 98 L 475.8 97.80000000000001 L 476.20000000000005 97.4 L 476.6 97 L 477 96.80000000000001 L 477.6 96.4 L 478 96.2 L 478.40000000000003 95.80000000000001 L 478.8 95.4 L 479.20000000000005 95.2 L 479.6 94.80000000000001 L 480 94.60000000000001 L 480.40000000000003 94.2 L 481 94 L 481.40000000000003 93.60000000000001 L 481.8 93.2 L 482.20000000000005 93 L 482.6 92.60000000000001 L 483 92.4 L 483.40000000000003 92 L 483.8 91.60000000000001 L 484.40000000000003 91.4 L 484.8 91 L 485.20000000000005 90.80000000000001 L 485.6 90.4 L 486 90.2 L 486.40000000000003 89.80000000000001 L 486.8 89.4 L 487.20000000000005 89.2 L 487.8 88.80000000000001 L 488.20000000000005 88.60000000000001 L 488.6 88.2 L 489 87.80000000000001 L 489.40000000000003 87.60000000000001 L 489.8 87.2 L 490.20000000000005 87 L 490.6 86.60000000000001 L 491.20000000000005 86.4 L 491.6 86 L 492 85.60000000000001 L 492.40000000000003 85.4 L 492.8 85 L 493.20000000000005 84.80000000000001 L 493.6 84.4 L 494 84 L 494.6 83.80000000000001 L 495 83.4 L 495.40000000000003 83.2 L 495.8 82.80000000000001 L 496.20000000000005 82.60000000000001 L 496.6 82.2 L 497 81.80000000000001 L 497.40000000000003 81.60000000000001 L 498 81.2 L 498.40000000000003 81 L 498.8 80.60000000000001 L 499.20000000000005 80.2 L 499.6 80 L 500 79.60000000000001 L 500.40000000000003 79.4 L 500.8 79 L 501.40000000000003 78.60000000000001 L 501.8 78.4 L 502.20000000000005 78 L 502.6 77.80000000000001 L 503 77.4 L 503.40000000000003 77.2 L 503.8 76.80000000000001 L 504.20000000000005 76.4 L 504.8 76.2 L 505.20000000000005 75.8 L 505.6 75.60000000000001 L 506 75.2 L 506.40000000000003 74.8 L 506.8 74.60000000000001 L 507.20000000000005 74.2 L 507.6 74 L 508.20000000000005 73.60000000000001 L 508.6 73.4 L 509 73 L 509.40000000000003 72.60000000000001 L 509.8 72.4 L 510.20000000000005 72 L 510.6 71.8 L 511 71.4 L 511.6 71 L 512 70.8 L 512.4 70.4 L 512.8000000000001 70.2 L 513.2 69.8 L 513.6 69.60000000000001 L 514 69.2 L 514.4 68.8 L 515 68.60000000000001 L 515.4 68.2 L 515.8000000000001 68 L 516.2 67.60000000000001 L 516.6 67.2 L 517 67 L 517.4 66.60000000000001 L 517.8000000000001 66.4 L 518.4 66 L 518.8000000000001 65.8 L 519.2 65.4 L 519.6 65 L 520 64.8 L 520.4 64.4 L 520.8000000000001 64.2 L 521.2 63.800000000000004 L 521.8000000000001 63.400000000000006 L 522.2 63.2 L 522.6 62.800000000000004 L 523 62.6 L 523.4 62.2 L 523.8000000000001 62 L 524.2 61.6 L 524.6 61.2 L 525.2 61 L 525.6 60.6 L 526 60.400000000000006 L 526.4 60 L 526.8000000000001 59.6 L 527.2 59.400000000000006 L 527.6 59 L 528 58.800000000000004 L 528.6 58.400000000000006 L 529 58.2 L 529.4 57.800000000000004 L 529.8000000000001 57.400000000000006 L 530.2 57.2 L 530.6 56.800000000000004 L 531 56.6 L 531.4 56.2 L 532 55.800000000000004 L 532.4 55.6 L 532.8000000000001 55.2 L 533.2 55 L 533.6 54.6 L 534 54.2 L 534.4 54 L 534.8000000000001 53.6 L 535.4 53.400000000000006 L 535.8000000000001 53 L 536.2 52.800000000000004 L 536.6 52.400000000000006 L 537 52 L 537.4 51.800000000000004 L 537.8000000000001 51.400000000000006 L 538.2 51.2 L 538.8000000000001 50.800000000000004 L 539.2 50.400000000000006 L 539.6 50.2 L 540 49.800000000000004 L 540.4 49.6 L 540.8000000000001 49.2 L 541.2 49 L 541.6 48.6 L 542.2 48.2 L 542.6 48 L 543 47.6 L 543.4 47.400000000000006 L 543.8000000000001 47 L 544.2 46.6 L 544.6 46.400000000000006 L 545 46 L 545.6 45.800000000000004 L 546 45.400000000000006 L 546.4 45.2 L 546.8000000000001 44.800000000000004 L 547.2 44.400000000000006 L 547.6 44.2 L 548 43.800000000000004 L 548.4 43.6 L 549 43.2 L 549.4 42.800000000000004 L 549.8000000000001 42.6 L 550.2 42.2 L 550.6 42 L 551 41.6 L 551.4 41.400000000000006 L 551.8000000000001 41 L 552.4 40.6 L 552.8000000000001 40.400000000000006 L 553.2 40 L 553.6 39.800000000000004 L 554 39.400000000000006 L 554.4 39 L 554.8000000000001 38.800000000000004 L 555.2 38.400000000000006 L 555.8000000000001 38.2 L 556.2 37.800000000000004 L 556.6 37.6 L 557 37.2 L 557.4 36.800000000000004 L 557.8000000000001 36.6 L 558.2 36.2 L 558.6 36 L 559.2 35.6 L 559.6 35.2 L 560 35 L 560.4 34.6 L 560.8000000000001 34.4 L 561.2 34 L 561.6 33.800000000000004 L 562 33.4 L 562.6 33 L 563 32.800000000000004 L 563.4 32.4 L 563.8000000000001 32.2 L 564.2 31.8 L 564.6 31.400000000000002 L 565 31.200000000000003 L 565.4 30.8 L 566 30.6 L 566.4 30.200000000000003 L 566.8000000000001 29.8 L 567.2 29.6 L 567.6 29.200000000000003 L 568 29 L 568.4 28.6 L 568.8000000000001 28.400000000000002 L 569.4 28 L 569.8000000000001 27.6 L 570.2 27.400000000000002 L 570.6 27 L 571 26.8 L 571.4 26.400000000000002 L 571.8000000000001 26 L 572.2 25.8 L 572.8000000000001 25.400000000000002 L 573.2 25.200000000000003 L 573.6 24.8 L 574 24.6 L 574.4 24.200000000000003 L 574.8000000000001 23.8 L 575.2 23.6 L 575.6 23.200000000000003 L 576.2 23 L 576.6 22.6 L 577 22.200000000000003 L 577.4 22 L 577.8000000000001 21.6 L 578.2 21.400000000000002 L 578.6 21 L 579 20.8 L 579.6 20.400000000000002 L 580 20 L 580.4 19.8 L 580.8000000000001 19.400000000000002 L 581.2 19.200000000000003 L 581.6 18.8 L 582 18.400000000000002 L 582.4 18.2 L 583 17.8 L 583.4 17.6 L 583.8000000000001 17.2 L 584.2 17 L 584.6 16.6 L 585 16.2 L 585.4 16 L 585.8000000000001 15.600000000000001 L 586.4 15.4 L 586.8000000000001 15 L 587.2 14.600000000000001 L 587.6 14.4 L 588 14 L 588.4 13.8 L 588.8000000000001 13.4 L 589.2 13.200000000000001 L 589.8000000000001 12.8 L 590.2 12.4 L 590.6 12.200000000000001 L 591 11.8 L 591.4 11.600000000000001 L 591.8000000000001 11.200000000000001 L 592.2 10.8 L 592.6 10.600000000000001 L 593.2 10.200000000000001 L 593.6 10 L 594 9.600000000000001 L 594.4 9.4 L 594.8000000000001 9 L 595.2 8.6 L 595.6 8.4 L 596 8 L 596.6 7.800000000000001 L 597 7.4 L 597.4 7 L 597.8000000000001 6.800000000000001 L 598.2 6.4 L 598.6 6.2 L 599 5.800000000000001 L 599.4 5.4 L 599.8000000000001 5.2 "/></g><circle fill="black" r="3" display="none"/><g/><rect fill="white"/><text/><g/></g></g><g><g clip-path="url(#_clipplot67ef7746-79fa-4bfe-87b5-85d19d22eaf2)"><rect data-label-i="0" display="initial"/><text data-label-i="0" display="initial"/></g><g clip-path="url(#_clipplot67ef7746-79fa-4bfe-87b5-85d19d22eaf2)"><rect data-label-i="0" display="initial"/><text data-label-i="0" display="initial"/></g><g clip-path="url(#_clipplot67ef7746-79fa-4bfe-87b5-85d19d22eaf2)"><rect data-label-i="0" display="initial"/><text data-label-i="0" display="initial"/></g><g clip-path="url(#_clipplot67ef7746-79fa-4bfe-87b5-85d19d22eaf2)"><rect data-label-i="0" display="initial"/><text data-label-i="0" display="initial"/></g></g></g></g><line stroke="black" shape-rendering="crispEdges" stroke-linecap="square" display="none"/><line stroke="black" shape-rendering="crispEdges" stroke-linecap="square" display="none"/><line stroke="black" shape-rendering="crispEdges" stroke-linecap="square" display="none"/><line stroke="black" shape-rendering="crispEdges" stroke-linecap="square" display="none"/></g><g><rect display="none" fill="rgba(171,12,12,0.2)" stroke="rgba(171,12,12,1)" shape-rendering="crispEdges" x="0" y="0" height="0" width="0" pointer-events="none"/></g></g></svg>