  0
SECTION
  2
HEADER
  9
$ACADVER
  1
AC1009
  9
$INSBASE
 10
0.0
 20
0.0
 30
0.0
  9
$EXTMIN
 10
0.0
 20
0.0
 30
0.0
  9
$EXTMAX
 10
0.0
 20
0.0
 30
0.0
  0
ENDSEC
  0
SECTION
  2
TABLES
  0
TABLE
  2
VPORT
 70
0
  0
ENDTAB
  0
TABLE
  2
LTYPE
 70
1
  0
LTYPE
  2
CONTINUOUS
 70
0
  3
Solid line
 72
65
 73
0
 40
0.0
  0
ENDTAB
  0
TABLE
  2
LAYER
 70
1
  0
LAYER
  2
0
 70
64
 62
7
  6
continuous
  0
ENDTAB
  0
TABLE
  2
STYLE
 70
1
  0
STYLE
  2
STANDARD
 70
0
 40
0
 41
1.0
 50
0.0
 71
0
 42
1
 3
ARIAL.TTF
 4

  0
ENDTAB
  0
TABLE
  2
VIEW
 70
0
  0
ENDTAB
  0
ENDSEC
  0
SECTION
  2
BLOCKS
  0
BLOCK
  8
0
  2
SKETCH
 70
0
 10
0.0
 20
0.0
 30
0.0
  3
SKETCH
  0
POLYLINE
  8
0
 62
7
 70
1
 66
1
 10
0.0
 20
0.0
 30
0.0
  0
VERTEX
  8
0
 10
38.0
 20
100.0
 30
0.0
  0
VERTEX
  8
0
 10
38.0
 20
-64.0
 30
0.0
  0
VERTEX
  8
0
 10
0.0
 20
-64.0
 30
0.0
  0
VERTEX
  8
0
 10
0.0
 20
-52.0
 30
0.0
  0
VERTEX
  8
0
 10
26.0
 20
-52.0
 30
0.0
  0
VERTEX
  8
0
 10
26.0
 20
-12.0
 30
0.0
  0
VERTEX
  8
0
 10
12.0
 20
-12.0
 30
0.0
  0
VERTEX
  8
0
 10
12.0
 20
-42.0
 30
0.0
  0
VERTEX
  8
0
 10
4.22914424378e-25
 20
-42.0
 30
0.0
  0
VERTEX
  8
0
 10
0.0
 20
0.0
 30
0.0
  0
VERTEX
  8
0
 10
26.0
 20
0.0
 30
0.0
  0
VERTEX
  8
0
 10
26.0
 20
100.0
 30
0.0
  0
SEQEND
  8
0
  0
POLYLINE
  8
0
 62
7
 70
1
 66
1
 10
0.0
 20
0.0
 30
0.0
  0
VERTEX
  8
0
 10
-22.0
 20
-64.0
 30
0.0
  0
VERTEX
  8
0
 10
-22.0
 20
100.0
 30
0.0
  0
VERTEX
  8
0
 10
16.0
 20
100.0
 30
0.0
  0
VERTEX
  8
0
 10
16.0
 20
88.0
 30
0.0
  0
VERTEX
  8
0
 10
-10.0
 20
88.0
 30
0.0
  0
VERTEX
  8
0
 10
-10.0
 20
48.0
 30
0.0
  0
VERTEX
  8
0
 10
4.0
 20
48.0
 30
0.0
  0
VERTEX
  8
0
 10
4.0
 20
78.0
 30
0.0
  0
VERTEX
  8
0
 10
16.0
 20
78.0
 30
0.0
  0
VERTEX
  8
0
 10
16.0
 20
36.0
 30
0.0
  0
VERTEX
  8
0
 10
-10.0
 20
36.0
 30
0.0
  0
VERTEX
  8
0
 10
-10.0
 20
-64.0
 30
0.0
  0
SEQEND
  8
0
  0
POLYLINE
  8
0
 62
7
 70
1
 66
1
 10
0.0
 20
0.0
 30
0.0
  0
VERTEX
  8
0
 10
96.0
 20
100.0
 30
0.0
  0
VERTEX
  8
0
 10
108.0
 20
100.0
 30
0.0
  0
VERTEX
  8
0
 10
108.0
 20
-64.0
 30
0.0
  0
VERTEX
  8
0
 10
70.0
 20
-64.0
 30
0.0
  0
VERTEX
  8
0
 10
70.0
 20
-52.0
 30
0.0
  0
VERTEX
  8
0
 10
96.0
 20
-52.0
 30
0.0
  0
VERTEX
  8
0
 10
96.0
 20
-12.0
 30
0.0
  0
VERTEX
  8
0
 10
82.0
 20
-12.0
 30
0.0
  0
VERTEX
  8
0
 10
82.0
 20
-32.0
 30
0.0
  0
VERTEX
  8
0
 10
70.0
 20
-32.0
 30
0.0
  0
VERTEX
  8
0
 10
70.0
 20
0.0
 30
0.0
  0
VERTEX
  8
0
 10
96.0
 20
4.99799099938e-16
 30
0.0
  0
SEQEND
  8
0
  0
POLYLINE
  8
0
 62
7
 70
1
 66
1
 10
0.0
 20
0.0
 30
0.0
  0
VERTEX
  8
0
 10
86.0
 20
100.0
 30
0.0
  0
VERTEX
  8
0
 10
48.0
 20
100.0
 30
0.0
  0
VERTEX
  8
0
 10
48.0
 20
-64.0
 30
0.0
  0
VERTEX
  8
0
 10
60.0
 20
-64.0
 30
0.0
  0
VERTEX
  8
0
 10
60.0
 20
36.0
 30
0.0
  0
VERTEX
  8
0
 10
86.0
 20
36.0
 30
0.0
  0
VERTEX
  8
0
 10
86.0
 20
68.0
 30
0.0
  0
VERTEX
  8
0
 10
74.0
 20
68.0
 30
0.0
  0
VERTEX
  8
0
 10
74.0
 20
48.0
 30
0.0
  0
VERTEX
  8
0
 10
60.0
 20
48.0
 30
0.0
  0
VERTEX
  8
0
 10
60.0
 20
88.0
 30
0.0
  0
VERTEX
  8
0
 10
86.0
 20
88.0
 30
0.0
  0
SEQEND
  8
0
  0
ENDBLK
  0
ENDSEC
  0
SECTION
  2
ENTITIES
  0
INSERT
  2
SKETCH
  8
0
 62
7
 10
0.0
 20
0.0
 30
0.0
  0
ENDSEC
  0
EOF
