<?xml version="1.0" standalone="no"?><!DOCTYPE svg PUBLIC "-//W3C//DTD SVG 1.1//EN" "http://www.w3.org/Graphics/SVG/1.1/DTD/svg11.dtd"><svg xmlns:xlink="http://www.w3.org/1999/xlink" xmlns="http://www.w3.org/2000/svg" font-family="Myriad Pro, Helvetica, Arial" font-size="12" data-jsgraph-version="v2.0.100" tabindex="0" width="760" height="534.007812"><defs><clipPath id="_clipplot62709932-d1ad-4f57-af9e-636b40a3124f" clipPathUnits="userSpaceOnUse"><rect y="0" x="34" width="686" height="442.00781199999994"/></clipPath><marker xmlns="" viewBox="0 0 10 10" id="arrow62709932-d1ad-4f57-af9e-636b40a3124f" refX="6" refY="5" markerUnits="strokeWidth" markerWidth="8" markerHeight="6" orient="auto"><path xmlns="http://www.w3.org/2000/svg" d="M 0 0 L 10 5 L 0 10 z"/></marker><marker viewBox="0 0 6 8" id="horionzalsplit_62709932-d1ad-4f57-af9e-636b40a3124f" refX="3" refY="4" markerUnits="strokeWidth" markerWidth="6" markerHeight="8"><line x1="0" y1="8" x2="6" y2="0" stroke="black"/></marker><marker viewBox="0 0 8 6" id="verticalsplit_62709932-d1ad-4f57-af9e-636b40a3124f" refX="4" refY="3" markerUnits="strokeWidth" markerWidth="8" markerHeight="6"><line x1="0" y1="0" x2="8" y2="6" stroke="black"/></marker><marker viewBox="0 0 10 10" id="verticalline62709932-d1ad-4f57-af9e-636b40a3124f" refX="0" refY="5" markerUnits="strokeWidth" markerWidth="20" markerHeight="10" orient="auto" stroke-width="1px"><path d="M 0 -10 L 0 10" stroke="black"/></marker></defs><g><rect pointer-events="fill" fill="transparent" y="30" x="54" width="686" height="442.00781199999994"/><text text-anchor="middle" y="20" x="380"/><g transform="translate(20, 30)"><g><g><g><path shape-rendering="crispEdges" stroke="#F0F0F0" stroke-width="1" stroke-opacity="undefined" clip-path="url(#_clipplot62709932-d1ad-4f57-af9e-636b40a3124f)" d="M 37.97095536424653 0 L 37.97095536424653 474.00781199999994M 47.45194708150842 0 L 47.45194708150842 474.00781199999994M 56.93293879877032 0 L 56.93293879877032 474.00781199999994M 66.41393051603222 0 L 66.41393051603222 474.00781199999994M 75.89492223329412 0 L 75.89492223329412 474.00781199999994M 85.37591395055603 0 L 85.37591395055603 474.00781199999994M 94.85690566781794 0 L 94.85690566781794 474.00781199999994M 104.33789738507983 0 L 104.33789738507983 474.00781199999994M 113.81888910234173 0 L 113.81888910234173 474.00781199999994M 132.78087253686553 0 L 132.78087253686553 474.00781199999994M 142.26186425412743 0 L 142.26186425412743 474.00781199999994M 151.74285597138933 0 L 151.74285597138933 474.00781199999994M 161.22384768865123 0 L 161.22384768865123 474.00781199999994M 170.70483940591313 0 L 170.70483940591313 474.00781199999994M 180.18583112317503 0 L 180.18583112317503 474.00781199999994M 189.66682284043694 0 L 189.66682284043694 474.00781199999994M 199.14781455769884 0 L 199.14781455769884 474.00781199999994M 208.62880627496074 0 L 208.62880627496074 474.00781199999994M 227.59078970948454 0 L 227.59078970948454 474.00781199999994M 237.07178142674644 0 L 237.07178142674644 474.00781199999994M 246.55277314400834 0 L 246.55277314400834 474.00781199999994M 256.03376486127024 0 L 256.03376486127024 474.00781199999994M 265.5147565785321 0 L 265.5147565785321 474.00781199999994M 274.99574829579404 0 L 274.99574829579404 474.00781199999994M 284.476740013056 0 L 284.476740013056 474.00781199999994M 293.95773173031785 0 L 293.95773173031785 474.00781199999994M 303.4387234475797 0 L 303.4387234475797 474.00781199999994M 322.4007068821035 0 L 322.4007068821035 474.00781199999994M 331.88169859936545 0 L 331.88169859936545 474.00781199999994M 341.3626903166273 0 L 341.3626903166273 474.00781199999994M 350.84368203388925 0 L 350.84368203388925 474.00781199999994M 360.3246737511511 0 L 360.3246737511511 474.00781199999994M 369.80566546841305 0 L 369.80566546841305 474.00781199999994M 379.2866571856749 0 L 379.2866571856749 474.00781199999994M 388.7676489029368 0 L 388.7676489029368 474.00781199999994M 398.2486406201988 0 L 398.2486406201988 474.00781199999994M 417.2106240547226 0 L 417.2106240547226 474.00781199999994M 426.6916157719844 0 L 426.6916157719844 474.00781199999994M 436.1726074892464 0 L 436.1726074892464 474.00781199999994M 445.6535992065082 0 L 445.6535992065082 474.00781199999994M 455.1345909237702 0 L 455.1345909237702 474.00781199999994M 464.615582641032 0 L 464.615582641032 474.00781199999994M 474.096574358294 0 L 474.096574358294 474.00781199999994M 483.5775660755558 0 L 483.5775660755558 474.00781199999994M 493.0585577928178 0 L 493.0585577928178 474.00781199999994M 512.0205412273416 0 L 512.0205412273416 474.00781199999994M 521.5015329446035 0 L 521.5015329446035 474.00781199999994M 530.9825246618655 0 L 530.9825246618655 474.00781199999994M 540.4635163791272 0 L 540.4635163791272 474.00781199999994M 549.9445080963892 0 L 549.9445080963892 474.00781199999994M 559.4254998136511 0 L 559.4254998136511 474.00781199999994M 568.906491530913 0 L 568.906491530913 474.00781199999994M 578.3874832481748 0 L 578.3874832481748 474.00781199999994M 587.8684749654368 0 L 587.8684749654368 474.00781199999994M 606.8304583999605 0 L 606.8304583999605 474.00781199999994M 616.3114501172224 0 L 616.3114501172224 474.00781199999994M 625.7924418344844 0 L 625.7924418344844 474.00781199999994M 635.2734335517463 0 L 635.2734335517463 474.00781199999994M 644.7544252690082 0 L 644.7544252690082 474.00781199999994M 654.2354169862701 0 L 654.2354169862701 474.00781199999994M 663.716408703532 0 L 663.716408703532 474.00781199999994M 673.1974004207939 0 L 673.1974004207939 474.00781199999994M 682.6783921380558 0 L 682.6783921380558 474.00781199999994M 701.6403755725796 0 L 701.6403755725796 474.00781199999994M 711.1213672898415 0 L 711.1213672898415 474.00781199999994"/><path shape-rendering="crispEdges" stroke="#F0F0F0" stroke-width="1" stroke-opacity="undefined" clip-path="url(#_clipplot62709932-d1ad-4f57-af9e-636b40a3124f)" d="M 0 441.49479713230954 L 720 441.49479713230954M 0 426.03690054803053 L 720 426.03690054803053M 0 410.5790039637515 L 720 410.5790039637515M 0 395.1211073794725 L 720 395.1211073794725M 0 379.6632107951935 L 720 379.6632107951935M 0 364.2053142109145 L 720 364.2053142109145M 0 348.7474176266355 L 720 348.7474176266355M 0 333.2895210423565 L 720 333.2895210423565M 0 317.8316244580775 L 720 317.8316244580775M 0 302.37372787379854 L 720 302.37372787379854M 0 286.91583128951953 L 720 286.91583128951953M 0 271.4579347052405 L 720 271.4579347052405M 0 256.00003812096156 L 720 256.00003812096156M 0 240.54214153668252 L 720 240.54214153668252M 0 225.0842449524035 L 720 225.0842449524035M 0 209.62634836812447 L 720 209.62634836812447M 0 194.16845178384546 L 720 194.16845178384546M 0 178.71055519956644 L 720 178.71055519956644M 0 163.25265861528743 L 720 163.25265861528743M 0 147.79476203100842 L 720 147.79476203100842M 0 116.87896886245045 L 720 116.87896886245045M 0 101.4210722781715 L 720 101.4210722781715M 0 85.96317569389248 L 720 85.96317569389248M 0 70.50527910961347 L 720 70.50527910961347M 0 55.0473825253344 L 720 55.0473825253344M 0 39.589485941055386 L 720 39.589485941055386M 0 24.131589356776374 L 720 24.131589356776374M 0 8.673692772497361 L 720 8.673692772497361"/></g><g><path shape-rendering="crispEdges" stroke="#DADADA" stroke-width="1" stroke-opacity="undefined" clip-path="url(#_clipplot62709932-d1ad-4f57-af9e-636b40a3124f)" d="M 123.29988081960363 0 L 123.29988081960363 474.00781199999994M 218.10979799222264 0 L 218.10979799222264 474.00781199999994M 312.91971516484165 0 L 312.91971516484165 474.00781199999994M 407.7296323374606 0 L 407.7296323374606 474.00781199999994M 502.5395495100796 0 L 502.5395495100796 474.00781199999994M 597.3494666826987 0 L 597.3494666826987 474.00781199999994M 692.1593838553177 0 L 692.1593838553177 474.00781199999994"/><path shape-rendering="crispEdges" stroke="#DADADA" stroke-width="1" stroke-opacity="undefined" clip-path="url(#_clipplot62709932-d1ad-4f57-af9e-636b40a3124f)" d="M 0 441.49479713230954 L 720 441.49479713230954M 0 286.9158312895195 L 720 286.9158312895195M 0 132.33686544672946 L 720 132.33686544672946"/></g></g><g transform="translate(0 442.00781199999994)"><rect pointer-events="fill" fill="transparent"/><g><line y1="0" y2="-2" stroke="black" display="visible" x1="37.97095536424653" x2="37.97095536424653"/><line y1="0" y2="-2" stroke="black" display="visible" x1="47.45194708150842" x2="47.45194708150842"/><line y1="0" y2="-2" stroke="black" display="visible" x1="56.93293879877032" x2="56.93293879877032"/><line y1="0" y2="-2" stroke="black" display="visible" x1="66.41393051603222" x2="66.41393051603222"/><line y1="0" y2="-4" stroke="black" display="visible" x1="75.89492223329412" x2="75.89492223329412"/><line y1="0" y2="-2" stroke="black" display="visible" x1="85.37591395055603" x2="85.37591395055603"/><line y1="0" y2="-2" stroke="black" display="visible" x1="94.85690566781794" x2="94.85690566781794"/><line y1="0" y2="-2" stroke="black" display="visible" x1="104.33789738507983" x2="104.33789738507983"/><line y1="0" y2="-2" stroke="black" display="visible" x1="113.81888910234173" x2="113.81888910234173"/><line y1="0" y2="-6" stroke="black" display="visible" x1="123.29988081960363" x2="123.29988081960363"/><line y1="0" y2="-2" stroke="black" display="visible" x1="132.78087253686553" x2="132.78087253686553"/><line y1="0" y2="-2" stroke="black" display="visible" x1="142.26186425412743" x2="142.26186425412743"/><line y1="0" y2="-2" stroke="black" display="visible" x1="151.74285597138933" x2="151.74285597138933"/><line y1="0" y2="-2" stroke="black" display="visible" x1="161.22384768865123" x2="161.22384768865123"/><line y1="0" y2="-4" stroke="black" display="visible" x1="170.70483940591313" x2="170.70483940591313"/><line y1="0" y2="-2" stroke="black" display="visible" x1="180.18583112317503" x2="180.18583112317503"/><line y1="0" y2="-2" stroke="black" display="visible" x1="189.66682284043694" x2="189.66682284043694"/><line y1="0" y2="-2" stroke="black" display="visible" x1="199.14781455769884" x2="199.14781455769884"/><line y1="0" y2="-2" stroke="black" display="visible" x1="208.62880627496074" x2="208.62880627496074"/><line y1="0" y2="-2" stroke="black" display="visible" x1="227.59078970948454" x2="227.59078970948454"/><line y1="0" y2="-6" stroke="black" display="visible" x1="218.10979799222264" x2="218.10979799222264"/><line y1="0" y2="-2" stroke="black" display="visible" x1="237.07178142674644" x2="237.07178142674644"/><line y1="0" y2="-2" stroke="black" display="visible" x1="246.55277314400834" x2="246.55277314400834"/><line y1="0" y2="-2" stroke="black" display="visible" x1="256.03376486127024" x2="256.03376486127024"/><line y1="0" y2="-2" stroke="black" display="visible" x1="274.99574829579404" x2="274.99574829579404"/><line y1="0" y2="-4" stroke="black" display="visible" x1="265.5147565785321" x2="265.5147565785321"/><line y1="0" y2="-2" stroke="black" display="visible" x1="284.476740013056" x2="284.476740013056"/><line y1="0" y2="-2" stroke="black" display="visible" x1="293.95773173031785" x2="293.95773173031785"/><line y1="0" y2="-2" stroke="black" display="visible" x1="303.4387234475797" x2="303.4387234475797"/><line y1="0" y2="-2" stroke="black" display="visible" x1="322.4007068821035" x2="322.4007068821035"/><line y1="0" y2="-2" stroke="black" display="visible" x1="331.88169859936545" x2="331.88169859936545"/><line y1="0" y2="-6" stroke="black" display="visible" x1="312.91971516484165" x2="312.91971516484165"/><line y1="0" y2="-2" stroke="black" display="visible" x1="341.3626903166273" x2="341.3626903166273"/><line y1="0" y2="-2" stroke="black" display="visible" x1="350.84368203388925" x2="350.84368203388925"/><line y1="0" y2="-2" stroke="black" display="visible" x1="369.80566546841305" x2="369.80566546841305"/><line y1="0" y2="-2" stroke="black" display="visible" x1="379.2866571856749" x2="379.2866571856749"/><line y1="0" y2="-4" stroke="black" display="visible" x1="360.3246737511511" x2="360.3246737511511"/><line y1="0" y2="-2" stroke="black" display="visible" x1="388.7676489029368" x2="388.7676489029368"/><line y1="0" y2="-2" stroke="black" display="visible" x1="398.2486406201988" x2="398.2486406201988"/><line y1="0" y2="-2" stroke="black" display="visible" x1="417.2106240547226" x2="417.2106240547226"/><line y1="0" y2="-2" stroke="black" display="visible" x1="426.6916157719844" x2="426.6916157719844"/><line y1="0" y2="-6" stroke="black" display="visible" x1="407.7296323374606" x2="407.7296323374606"/><line y1="0" y2="-6" stroke="black" display="visible" x1="502.5395495100796" x2="502.5395495100796"/><line y1="0" y2="-2" stroke="black" display="visible" x1="436.1726074892464" x2="436.1726074892464"/><line y1="0" y2="-2" stroke="black" display="visible" x1="445.6535992065082" x2="445.6535992065082"/><line y1="0" y2="-2" stroke="black" display="visible" x1="464.615582641032" x2="464.615582641032"/><line y1="0" y2="-4" stroke="black" display="visible" x1="455.1345909237702" x2="455.1345909237702"/><line y1="0" y2="-2" stroke="black" display="visible" x1="474.096574358294" x2="474.096574358294"/><line y1="0" y2="-2" stroke="black" display="visible" x1="483.5775660755558" x2="483.5775660755558"/><line y1="0" y2="-2" stroke="black" display="visible" x1="493.0585577928178" x2="493.0585577928178"/><line y1="0" y2="-2" stroke="black" display="visible" x1="512.0205412273416" x2="512.0205412273416"/><line y1="0" y2="-2" stroke="black" display="visible" x1="521.5015329446035" x2="521.5015329446035"/><line y1="0" y2="-2" stroke="black" display="visible" x1="530.9825246618655" x2="530.9825246618655"/><line y1="0" y2="-2" stroke="black" display="visible" x1="540.4635163791272" x2="540.4635163791272"/><line y1="0" y2="-2" stroke="black" display="visible" x1="559.4254998136511" x2="559.4254998136511"/><line y1="0" y2="-4" stroke="black" display="visible" x1="549.9445080963892" x2="549.9445080963892"/><line y1="0" y2="-2" stroke="black" display="visible" x1="568.906491530913" x2="568.906491530913"/><line y1="0" y2="-2" stroke="black" display="visible" x1="578.3874832481748" x2="578.3874832481748"/><line y1="0" y2="-2" stroke="black" display="visible" x1="587.8684749654368" x2="587.8684749654368"/><line y1="0" y2="-2" stroke="black" display="visible" x1="606.8304583999605" x2="606.8304583999605"/><line y1="0" y2="-6" stroke="black" display="visible" x1="597.3494666826987" x2="597.3494666826987"/><line y1="0" y2="-2" stroke="black" display="visible" x1="616.3114501172224" x2="616.3114501172224"/><line y1="0" y2="-2" stroke="black" display="visible" x1="625.7924418344844" x2="625.7924418344844"/><line y1="0" y2="-2" stroke="black" display="visible" x1="635.2734335517463" x2="635.2734335517463"/><line y1="0" y2="-2" stroke="black" display="visible" x1="654.2354169862701" x2="654.2354169862701"/><line y1="0" y2="-4" stroke="black" display="visible" x1="644.7544252690082" x2="644.7544252690082"/><line y1="0" y2="-2" stroke="black" display="visible" x1="663.716408703532" x2="663.716408703532"/><line y1="0" y2="-2" stroke="black" display="visible" x1="673.1974004207939" x2="673.1974004207939"/><line y1="0" y2="-2" stroke="black" display="visible" x1="682.6783921380558" x2="682.6783921380558"/><line y1="0" y2="-2" stroke="black" display="visible" x1="701.6403755725796" x2="701.6403755725796"/><line y1="0" y2="-6" stroke="black" display="visible" x1="692.1593838553177" x2="692.1593838553177"/><line y1="0" y2="-2" stroke="black" display="visible" x1="711.1213672898415" x2="711.1213672898415"/><line y1="0" y2="-2" stroke="black" display="none" x1="586.1282396980442" x2="586.1282396980442"/><line y1="0" y2="-2" stroke="black" display="none" x1="594.1300982443927" x2="594.1300982443927"/><line y1="0" y2="-2" stroke="black" display="none" x1="602.1319567907414" x2="602.1319567907414"/><line y1="0" y2="-2" stroke="black" display="none" x1="610.1338153370899" x2="610.1338153370899"/><line y1="0" y2="-2" stroke="black" display="none" x1="618.1356738834382" x2="618.1356738834382"/><line y1="0" y2="-2" stroke="black" display="none" x1="626.1375324297867" x2="626.1375324297867"/><line y1="0" y2="-4" stroke="black" display="none" x1="634.1393909761352" x2="634.1393909761352"/><line y1="0" y2="-2" stroke="black" display="none" x1="642.1412495224836" x2="642.1412495224836"/><line y1="0" y2="-2" stroke="black" display="none" x1="650.1431080688321" x2="650.1431080688321"/><line y1="0" y2="-2" stroke="black" display="none" x1="658.1449666151805" x2="658.1449666151805"/><line y1="0" y2="-2" stroke="black" display="none" x1="666.146825161529" x2="666.146825161529"/><line y1="0" y2="-2" stroke="black" display="none" x1="674.1486837078774" x2="674.1486837078774"/><line y1="0" y2="-6" stroke="black" display="none" x1="692.381221282084" x2="692.381221282084"/><line y1="0" y2="-2" stroke="black" display="none" x1="682.1505422542261" x2="682.1505422542261"/><line y1="0" y2="-2" stroke="black" display="none" x1="690.1524008005746" x2="690.1524008005746"/><line y1="0" y2="-2" stroke="black" display="none" x1="698.154259346923" x2="698.154259346923"/><line y1="0" y2="-2" stroke="black" display="none" x1="706.1561178932715" x2="706.1561178932715"/><line y1="0" y2="-4" stroke="black" display="none" x1="714.1579764396199" x2="714.1579764396199"/><line y1="0" y2="-6" stroke="black" display="none" x1="674.1486837078777" x2="674.1486837078777"/></g><g><text y="8" text-anchor="middle" display="visible" x="123.29988081960363" style="dominant-baseline: hanging;">5</text><text y="8" text-anchor="middle" display="visible" x="218.10979799222264" style="dominant-baseline: hanging;">10</text><text y="8" text-anchor="middle" display="visible" x="312.91971516484165" style="dominant-baseline: hanging;">15</text><text y="8" text-anchor="middle" display="visible" x="407.7296323374606" style="dominant-baseline: hanging;">20</text><text y="8" text-anchor="middle" display="visible" x="502.5395495100796" style="dominant-baseline: hanging;">25</text><text y="8" text-anchor="middle" display="visible" x="597.3494666826987" style="dominant-baseline: hanging;">30</text><text y="8" text-anchor="middle" display="visible" x="692.1593838553177" style="dominant-baseline: hanging;">35</text><text y="8" text-anchor="middle" display="none" x="692.381221282084" style="dominant-baseline: hanging;">35</text><text y="8" text-anchor="middle" display="none" x="674.1486837078777" style="dominant-baseline: hanging;">16</text></g><line stroke="black" shape-rendering="crispEdges" stroke-linecap="square" display="block" x1="34" x2="720" y1="0" y2="0" marker-start="" marker-end=""/><text text-anchor="middle" fill="undefined" style="display: initial;" x="377" y="22"><tspan style="dominant-baseline: hanging;">Time [min]</tspan><tspan display="none" style="dominant-baseline: hanging;"/><tspan dx="6" display="none" style="dominant-baseline: hanging;"/><tspan dy="-5" font-size="0.8em" display="none" style="dominant-baseline: hanging;"/></text><g/></g><g transform="translate( 34 0 )"><rect pointer-events="fill" fill="transparent"/><g><line x1="0" x2="2" stroke="black" display="visible" y1="441.49479713230954" y2="441.49479713230954"/><line x1="0" x2="2" stroke="black" display="visible" y1="426.03690054803053" y2="426.03690054803053"/><line x1="0" x2="2" stroke="black" display="visible" y1="410.5790039637515" y2="410.5790039637515"/><line x1="0" x2="2" stroke="black" display="visible" y1="395.1211073794725" y2="395.1211073794725"/><line x1="0" x2="2" stroke="black" display="visible" y1="379.6632107951935" y2="379.6632107951935"/><line x1="0" x2="2" stroke="black" display="visible" y1="348.7474176266355" y2="348.7474176266355"/><line x1="0" x2="2" stroke="black" display="visible" y1="333.2895210423565" y2="333.2895210423565"/><line x1="0" x2="2" stroke="black" display="visible" y1="317.8316244580775" y2="317.8316244580775"/><line x1="0" x2="4" stroke="black" display="visible" y1="364.2053142109145" y2="364.2053142109145"/><line x1="0" x2="2" stroke="black" display="visible" y1="302.37372787379854" y2="302.37372787379854"/><line x1="0" x2="2" stroke="black" display="visible" y1="286.91583128951953" y2="286.91583128951953"/><line x1="0" x2="2" stroke="black" display="visible" y1="271.4579347052405" y2="271.4579347052405"/><line x1="0" x2="2" stroke="black" display="visible" y1="256.00003812096156" y2="256.00003812096156"/><line x1="0" x2="6" stroke="black" display="visible" y1="441.49479713230954" y2="441.49479713230954"/><line x1="0" x2="2" stroke="black" display="visible" y1="240.54214153668252" y2="240.54214153668252"/><line x1="0" x2="2" stroke="black" display="visible" y1="225.0842449524035" y2="225.0842449524035"/><line x1="0" x2="2" stroke="black" display="visible" y1="194.16845178384546" y2="194.16845178384546"/><line x1="0" x2="2" stroke="black" display="visible" y1="178.71055519956644" y2="178.71055519956644"/><line x1="0" x2="4" stroke="black" display="visible" y1="209.62634836812447" y2="209.62634836812447"/><line x1="0" x2="2" stroke="black" display="visible" y1="163.25265861528743" y2="163.25265861528743"/><line x1="0" x2="2" stroke="black" display="visible" y1="147.79476203100842" y2="147.79476203100842"/><line x1="0" x2="2" stroke="black" display="visible" y1="116.87896886245045" y2="116.87896886245045"/><line x1="0" x2="2" stroke="black" display="visible" y1="101.4210722781715" y2="101.4210722781715"/><line x1="0" x2="6" stroke="black" display="visible" y1="286.9158312895195" y2="286.9158312895195"/><line x1="0" x2="2" stroke="black" display="visible" y1="85.96317569389248" y2="85.96317569389248"/><line x1="0" x2="2" stroke="black" display="visible" y1="70.50527910961347" y2="70.50527910961347"/><line x1="0" x2="2" stroke="black" display="visible" y1="39.589485941055386" y2="39.589485941055386"/><line x1="0" x2="2" stroke="black" display="visible" y1="24.131589356776374" y2="24.131589356776374"/><line x1="0" x2="4" stroke="black" display="visible" y1="55.0473825253344" y2="55.0473825253344"/><line x1="0" x2="2" stroke="black" display="visible" y1="8.673692772497361" y2="8.673692772497361"/><line x1="0" x2="2" stroke="black" display="none" y1="5.281199574852508" y2="5.281199574852508"/><line x1="0" x2="2" stroke="black" display="none" y1="59.19730768552438" y2="59.19730768552438"/><line x1="0" x2="2" stroke="black" display="none" y1="47.1831922921113" y2="47.1831922921113"/><line x1="0" x2="6" stroke="black" display="visible" y1="132.33686544672946" y2="132.33686544672946"/><line x1="0" x2="2" stroke="black" display="none" y1="23.1549615052852" y2="23.1549615052852"/><line x1="0" x2="2" stroke="black" display="none" y1="11.140846111872179" y2="11.140846111872179"/><line x1="0" x2="2" stroke="black" display="none" y1="18.804158201051564" y2="18.804158201051564"/><line x1="0" x2="6" stroke="black" display="none" y1="41.40299409096059" y2="41.40299409096059"/><line x1="0" x2="4" stroke="black" display="none" y1="35.16907689869828" y2="35.16907689869828"/><line x1="0" x2="2" stroke="black" display="none" y1="7.504740256097023" y2="7.504740256097023"/><line x1="0" x2="2" stroke="black" display="none" y1="98.09974686298932" y2="98.09974686298932"/><line x1="0" x2="2" stroke="black" display="none" y1="88.63599341563514" y2="88.63599341563514"/><line x1="0" x2="2" stroke="black" display="none" y1="79.17223996828159" y2="79.17223996828159"/><line x1="0" x2="2" stroke="black" display="none" y1="69.70848652092798" y2="69.70848652092798"/><line x1="0" x2="2" stroke="black" display="none" y1="60.24473307357448" y2="60.24473307357448"/><line x1="0" x2="4" stroke="black" display="none" y1="50.780979626220926" y2="50.780979626220926"/><line x1="0" x2="2" stroke="black" display="none" y1="41.31722617886737" y2="41.31722617886737"/><line x1="0" x2="2" stroke="black" display="none" y1="31.85347273151382" y2="31.85347273151382"/><line x1="0" x2="2" stroke="black" display="none" y1="22.389719284160265" y2="22.389719284160265"/><line x1="0" x2="2" stroke="black" display="none" y1="12.92596583680671" y2="12.92596583680671"/><line x1="0" x2="2" stroke="black" display="none" y1="3.462212389453157" y2="3.462212389453157"/><line x1="0" x2="6" stroke="black" display="none" y1="3.462212389452475" y2="3.462212389452475"/></g><g><text x="-5" text-anchor="end" display="visible" y="441.49479713230954" style="dominant-baseline: central;">0.0</text><text x="-5" text-anchor="end" display="visible" y="286.9158312895195" style="dominant-baseline: central;">0.2</text><text x="-5" text-anchor="end" display="visible" y="132.33686544672946" style="dominant-baseline: central;">0.4</text><text x="-5" text-anchor="end" display="none" y="41.40299409096059" style="dominant-baseline: central;">0.20</text><text x="-5" text-anchor="end" display="none" y="3.462212389452475" style="dominant-baseline: central;">0.032</text></g><line stroke="black" shape-rendering="crispEdges" stroke-linecap="square" display="block" y1="442.00781199999994" y2="0" x1="0" x2="0" marker-start="" marker-end=""/><text text-anchor="middle" transform="translate(-22, 221.00390599999997) rotate(-90)" fill="undefined" dominant-baseline="auto"><tspan>Absorbance</tspan><tspan display="none"/><tspan dx="6" display="none"/><tspan dy="-5" font-size="0.8em" display="none"/></text><g/></g></g><g><g data-layer="1"><g><g><g><path stroke="rgba(255,1,9,1)" stroke-width="0.0001" fill="none" d="M 33.800000000000004 442 L 45.800000000000004 438.20000000000005 L 57.6 435.40000000000003 L 69.4 433.8 L 81.2 432.6 L 93 432 L 104.80000000000001 431.20000000000005 L 116.60000000000001 431.40000000000003 L 128.6 430.40000000000003 L 140.4 431 L 152.20000000000002 430.8 L 164 430.8 L 175.8 430.6 L 187.60000000000002 430.6 L 199.4 430.6 L 211.4 430.6 L 223.20000000000002 430.40000000000003 L 235 430.6 L 246.8 430.6 L 258.6 430.6 L 270.40000000000003 430.6 L 282.2 430.40000000000003 L 294.2 430.40000000000003 L 306 430.6 L 317.8 430.6 L 329.6 430.6 L 341.40000000000003 430.6 L 353.20000000000005 430.40000000000003 L 365 430.40000000000003 L 376.8 430.40000000000003 L 388.8 430.6 L 400.6 430.6 L 412.40000000000003 430.40000000000003 L 424.20000000000005 430.40000000000003 L 436 430.6 L 447.8 430.40000000000003 L 459.6 430.40000000000003 L 471.6 430.40000000000003 L 483.40000000000003 430.40000000000003 L 495.20000000000005 430.6 L 507 430.40000000000003 L 518.8000000000001 430.40000000000003 L 530.6 430.40000000000003 L 542.4 430.40000000000003 L 554.4 430.20000000000005 L 566.2 430.40000000000003 L 578 430.40000000000003 L 589.8000000000001 430.40000000000003 L 601.6 430.20000000000005 L 613.4 430.20000000000005 L 625.2 430.40000000000003 L 637.2 430.40000000000003 L 649 430.20000000000005 L 660.8000000000001 430.20000000000005 L 672.6 430.20000000000005 L 684.4000000000001 430 L 696.2 430.20000000000005 L 708 430.20000000000005 L 719.8000000000001 430.20000000000005 "/></g><circle fill="black" r="3" display="none"/><g/><rect fill="white"/><text/><g><path fill="rgba(255,1,9,1)" stroke="rgba(255,1,9,1)" stroke-width="1" d="M 33.800000000000004 442 m -1 -1 l 2 0 l 0 2 l -2 0 z M 45.800000000000004 438.20000000000005 m -1 -1 l 2 0 l 0 2 l -2 0 z M 57.6 435.40000000000003 m -1 -1 l 2 0 l 0 2 l -2 0 z M 69.4 433.8 m -1 -1 l 2 0 l 0 2 l -2 0 z M 81.2 432.6 m -1 -1 l 2 0 l 0 2 l -2 0 z M 93 432 m -1 -1 l 2 0 l 0 2 l -2 0 z M 104.80000000000001 431.20000000000005 m -1 -1 l 2 0 l 0 2 l -2 0 z M 116.60000000000001 431.40000000000003 m -1 -1 l 2 0 l 0 2 l -2 0 z M 128.6 430.40000000000003 m -1 -1 l 2 0 l 0 2 l -2 0 z M 140.4 431 m -1 -1 l 2 0 l 0 2 l -2 0 z M 152.20000000000002 430.8 m -1 -1 l 2 0 l 0 2 l -2 0 z M 164 430.8 m -1 -1 l 2 0 l 0 2 l -2 0 z M 175.8 430.6 m -1 -1 l 2 0 l 0 2 l -2 0 z M 187.60000000000002 430.6 m -1 -1 l 2 0 l 0 2 l -2 0 z M 199.4 430.6 m -1 -1 l 2 0 l 0 2 l -2 0 z M 211.4 430.6 m -1 -1 l 2 0 l 0 2 l -2 0 z M 223.20000000000002 430.40000000000003 m -1 -1 l 2 0 l 0 2 l -2 0 z M 235 430.6 m -1 -1 l 2 0 l 0 2 l -2 0 z M 246.8 430.6 m -1 -1 l 2 0 l 0 2 l -2 0 z M 258.6 430.6 m -1 -1 l 2 0 l 0 2 l -2 0 z M 270.40000000000003 430.6 m -1 -1 l 2 0 l 0 2 l -2 0 z M 282.2 430.40000000000003 m -1 -1 l 2 0 l 0 2 l -2 0 z M 294.2 430.40000000000003 m -1 -1 l 2 0 l 0 2 l -2 0 z M 306 430.6 m -1 -1 l 2 0 l 0 2 l -2 0 z M 317.8 430.6 m -1 -1 l 2 0 l 0 2 l -2 0 z M 329.6 430.6 m -1 -1 l 2 0 l 0 2 l -2 0 z M 341.40000000000003 430.6 m -1 -1 l 2 0 l 0 2 l -2 0 z M 353.20000000000005 430.40000000000003 m -1 -1 l 2 0 l 0 2 l -2 0 z M 365 430.40000000000003 m -1 -1 l 2 0 l 0 2 l -2 0 z M 376.8 430.40000000000003 m -1 -1 l 2 0 l 0 2 l -2 0 z M 388.8 430.6 m -1 -1 l 2 0 l 0 2 l -2 0 z M 400.6 430.6 m -1 -1 l 2 0 l 0 2 l -2 0 z M 412.40000000000003 430.40000000000003 m -1 -1 l 2 0 l 0 2 l -2 0 z M 424.20000000000005 430.40000000000003 m -1 -1 l 2 0 l 0 2 l -2 0 z M 436 430.6 m -1 -1 l 2 0 l 0 2 l -2 0 z M 447.8 430.40000000000003 m -1 -1 l 2 0 l 0 2 l -2 0 z M 459.6 430.40000000000003 m -1 -1 l 2 0 l 0 2 l -2 0 z M 471.6 430.40000000000003 m -1 -1 l 2 0 l 0 2 l -2 0 z M 483.40000000000003 430.40000000000003 m -1 -1 l 2 0 l 0 2 l -2 0 z M 495.20000000000005 430.6 m -1 -1 l 2 0 l 0 2 l -2 0 z M 507 430.40000000000003 m -1 -1 l 2 0 l 0 2 l -2 0 z M 518.8000000000001 430.40000000000003 m -1 -1 l 2 0 l 0 2 l -2 0 z M 530.6 430.40000000000003 m -1 -1 l 2 0 l 0 2 l -2 0 z M 542.4 430.40000000000003 m -1 -1 l 2 0 l 0 2 l -2 0 z M 554.4 430.20000000000005 m -1 -1 l 2 0 l 0 2 l -2 0 z M 566.2 430.40000000000003 m -1 -1 l 2 0 l 0 2 l -2 0 z M 578 430.40000000000003 m -1 -1 l 2 0 l 0 2 l -2 0 z M 589.8000000000001 430.40000000000003 m -1 -1 l 2 0 l 0 2 l -2 0 z M 601.6 430.20000000000005 m -1 -1 l 2 0 l 0 2 l -2 0 z M 613.4 430.20000000000005 m -1 -1 l 2 0 l 0 2 l -2 0 z M 625.2 430.40000000000003 m -1 -1 l 2 0 l 0 2 l -2 0 z M 637.2 430.40000000000003 m -1 -1 l 2 0 l 0 2 l -2 0 z M 649 430.20000000000005 m -1 -1 l 2 0 l 0 2 l -2 0 z M 660.8000000000001 430.20000000000005 m -1 -1 l 2 0 l 0 2 l -2 0 z M 672.6 430.20000000000005 m -1 -1 l 2 0 l 0 2 l -2 0 z M 684.4000000000001 430 m -1 -1 l 2 0 l 0 2 l -2 0 z M 696.2 430.20000000000005 m -1 -1 l 2 0 l 0 2 l -2 0 z M 708 430.20000000000005 m -1 -1 l 2 0 l 0 2 l -2 0 z M 719.8000000000001 430.20000000000005 m -1 -1 l 2 0 l 0 2 l -2 0 z "/></g></g><g><g><path stroke="rgba(5,150,0,1)" stroke-width="0.0001" fill="none" d="M 33.800000000000004 410.6 L 45.800000000000004 385.40000000000003 L 57.6 368.20000000000005 L 69.4 356.8 L 81.2 349.40000000000003 L 93 344.40000000000003 L 104.80000000000001 340.40000000000003 L 116.60000000000001 337.40000000000003 L 128.6 336.8 L 140.4 335.40000000000003 L 152.20000000000002 334.8 L 164 334.20000000000005 L 175.8 334 L 187.60000000000002 333.6 L 199.4 333 L 211.4 333 L 223.20000000000002 332.8 L 235 332.6 L 246.8 332.40000000000003 L 258.6 332.6 L 270.40000000000003 332.40000000000003 L 282.2 332.20000000000005 L 294.2 331.8 L 306 331.8 L 317.8 331.8 L 329.6 331.6 L 341.40000000000003 331.6 L 353.20000000000005 331.40000000000003 L 365 331.20000000000005 L 376.8 331.20000000000005 L 388.8 331.20000000000005 L 400.6 331 L 412.40000000000003 330.8 L 424.20000000000005 330.8 L 436 330.8 L 447.8 330.6 L 459.6 330.6 L 471.6 330.40000000000003 L 483.40000000000003 330.40000000000003 L 495.20000000000005 330.20000000000005 L 507 330 L 518.8000000000001 329.8 L 530.6 329.40000000000003 L 542.4 329.6 L 554.4 329.40000000000003 L 566.2 329.40000000000003 L 578 329.40000000000003 L 589.8000000000001 329.40000000000003 L 601.6 329 L 613.4 329 L 625.2 329 L 637.2 328.6 L 649 328.40000000000003 L 660.8000000000001 328.40000000000003 L 672.6 328.20000000000005 L 684.4000000000001 328.20000000000005 L 696.2 328.40000000000003 L 708 328.20000000000005 L 719.8000000000001 328 "/></g><circle fill="black" r="3" display="none"/><g/><rect fill="white"/><text/><g><path fill="rgba(5,150,0,1)" stroke="rgba(5,150,0,1)" stroke-width="1" d="M 33.800000000000004 410.6 m -1 -1 l 2 0 l 0 2 l -2 0 z M 45.800000000000004 385.40000000000003 m -1 -1 l 2 0 l 0 2 l -2 0 z M 57.6 368.20000000000005 m -1 -1 l 2 0 l 0 2 l -2 0 z M 69.4 356.8 m -1 -1 l 2 0 l 0 2 l -2 0 z M 81.2 349.40000000000003 m -1 -1 l 2 0 l 0 2 l -2 0 z M 93 344.40000000000003 m -1 -1 l 2 0 l 0 2 l -2 0 z M 104.80000000000001 340.40000000000003 m -1 -1 l 2 0 l 0 2 l -2 0 z M 116.60000000000001 337.40000000000003 m -1 -1 l 2 0 l 0 2 l -2 0 z M 128.6 336.8 m -1 -1 l 2 0 l 0 2 l -2 0 z M 140.4 335.40000000000003 m -1 -1 l 2 0 l 0 2 l -2 0 z M 152.20000000000002 334.8 m -1 -1 l 2 0 l 0 2 l -2 0 z M 164 334.20000000000005 m -1 -1 l 2 0 l 0 2 l -2 0 z M 175.8 334 m -1 -1 l 2 0 l 0 2 l -2 0 z M 187.60000000000002 333.6 m -1 -1 l 2 0 l 0 2 l -2 0 z M 199.4 333 m -1 -1 l 2 0 l 0 2 l -2 0 z M 211.4 333 m -1 -1 l 2 0 l 0 2 l -2 0 z M 223.20000000000002 332.8 m -1 -1 l 2 0 l 0 2 l -2 0 z M 235 332.6 m -1 -1 l 2 0 l 0 2 l -2 0 z M 246.8 332.40000000000003 m -1 -1 l 2 0 l 0 2 l -2 0 z M 258.6 332.6 m -1 -1 l 2 0 l 0 2 l -2 0 z M 270.40000000000003 332.40000000000003 m -1 -1 l 2 0 l 0 2 l -2 0 z M 282.2 332.20000000000005 m -1 -1 l 2 0 l 0 2 l -2 0 z M 294.2 331.8 m -1 -1 l 2 0 l 0 2 l -2 0 z M 306 331.8 m -1 -1 l 2 0 l 0 2 l -2 0 z M 317.8 331.8 m -1 -1 l 2 0 l 0 2 l -2 0 z M 329.6 331.6 m -1 -1 l 2 0 l 0 2 l -2 0 z M 341.40000000000003 331.6 m -1 -1 l 2 0 l 0 2 l -2 0 z M 353.20000000000005 331.40000000000003 m -1 -1 l 2 0 l 0 2 l -2 0 z M 365 331.20000000000005 m -1 -1 l 2 0 l 0 2 l -2 0 z M 376.8 331.20000000000005 m -1 -1 l 2 0 l 0 2 l -2 0 z M 388.8 331.20000000000005 m -1 -1 l 2 0 l 0 2 l -2 0 z M 400.6 331 m -1 -1 l 2 0 l 0 2 l -2 0 z M 412.40000000000003 330.8 m -1 -1 l 2 0 l 0 2 l -2 0 z M 424.20000000000005 330.8 m -1 -1 l 2 0 l 0 2 l -2 0 z M 436 330.8 m -1 -1 l 2 0 l 0 2 l -2 0 z M 447.8 330.6 m -1 -1 l 2 0 l 0 2 l -2 0 z M 459.6 330.6 m -1 -1 l 2 0 l 0 2 l -2 0 z M 471.6 330.40000000000003 m -1 -1 l 2 0 l 0 2 l -2 0 z M 483.40000000000003 330.40000000000003 m -1 -1 l 2 0 l 0 2 l -2 0 z M 495.20000000000005 330.20000000000005 m -1 -1 l 2 0 l 0 2 l -2 0 z M 507 330 m -1 -1 l 2 0 l 0 2 l -2 0 z M 518.8000000000001 329.8 m -1 -1 l 2 0 l 0 2 l -2 0 z M 530.6 329.40000000000003 m -1 -1 l 2 0 l 0 2 l -2 0 z M 542.4 329.6 m -1 -1 l 2 0 l 0 2 l -2 0 z M 554.4 329.40000000000003 m -1 -1 l 2 0 l 0 2 l -2 0 z M 566.2 329.40000000000003 m -1 -1 l 2 0 l 0 2 l -2 0 z M 578 329.40000000000003 m -1 -1 l 2 0 l 0 2 l -2 0 z M 589.8000000000001 329.40000000000003 m -1 -1 l 2 0 l 0 2 l -2 0 z M 601.6 329 m -1 -1 l 2 0 l 0 2 l -2 0 z M 613.4 329 m -1 -1 l 2 0 l 0 2 l -2 0 z M 625.2 329 m -1 -1 l 2 0 l 0 2 l -2 0 z M 637.2 328.6 m -1 -1 l 2 0 l 0 2 l -2 0 z M 649 328.40000000000003 m -1 -1 l 2 0 l 0 2 l -2 0 z M 660.8000000000001 328.40000000000003 m -1 -1 l 2 0 l 0 2 l -2 0 z M 672.6 328.20000000000005 m -1 -1 l 2 0 l 0 2 l -2 0 z M 684.4000000000001 328.20000000000005 m -1 -1 l 2 0 l 0 2 l -2 0 z M 696.2 328.40000000000003 m -1 -1 l 2 0 l 0 2 l -2 0 z M 708 328.20000000000005 m -1 -1 l 2 0 l 0 2 l -2 0 z M 719.8000000000001 328 m -1 -1 l 2 0 l 0 2 l -2 0 z "/></g></g><g><g><path stroke="rgba(2,1,255,1)" stroke-width="0.0001" fill="none" d="M 33.800000000000004 288.2 L 45.800000000000004 195 L 57.6 133.20000000000002 L 69.4 96.60000000000001 L 81.2 70.60000000000001 L 93 53 L 104.80000000000001 41.800000000000004 L 116.60000000000001 34 L 128.6 28.8 L 140.4 24.8 L 152.20000000000002 22 L 164 20.200000000000003 L 175.8 19.200000000000003 L 187.60000000000002 17.8 L 199.4 17.2 L 211.4 16.2 L 223.20000000000002 15.8 L 235 15 L 246.8 15 L 258.6 14.600000000000001 L 270.40000000000003 14.200000000000001 L 282.2 14.200000000000001 L 294.2 13.4 L 306 13.200000000000001 L 317.8 12.600000000000001 L 329.6 12 L 341.40000000000003 11.600000000000001 L 353.20000000000005 11.200000000000001 L 365 11 L 376.8 10.8 L 388.8 10.600000000000001 L 400.6 10 L 412.40000000000003 9.200000000000001 L 424.20000000000005 9.4 L 436 9 L 447.8 8.8 L 459.6 8.4 L 471.6 7.800000000000001 L 483.40000000000003 7.6000000000000005 L 495.20000000000005 7 L 507 6.6000000000000005 L 518.8000000000001 6 L 530.6 5.4 L 542.4 5 L 554.4 4.6000000000000005 L 566.2 4.800000000000001 L 578 4.6000000000000005 L 589.8000000000001 4.2 L 601.6 3.8000000000000003 L 613.4 3.6 L 625.2 3.2 L 637.2 2.4000000000000004 L 649 2 L 660.8000000000001 1.6 L 672.6 1.2000000000000002 L 684.4000000000001 1 L 696.2 0.8 L 708 0.8 L 719.8000000000001 0 "/></g><circle fill="black" r="3" display="none"/><g/><rect fill="white"/><text/><g><path fill="rgba(2,1,255,1)" stroke="rgba(2,1,255,1)" stroke-width="1" d="M 33.800000000000004 288.2 m -1 -1 l 2 0 l 0 2 l -2 0 z M 45.800000000000004 195 m -1 -1 l 2 0 l 0 2 l -2 0 z M 57.6 133.20000000000002 m -1 -1 l 2 0 l 0 2 l -2 0 z M 69.4 96.60000000000001 m -1 -1 l 2 0 l 0 2 l -2 0 z M 81.2 70.60000000000001 m -1 -1 l 2 0 l 0 2 l -2 0 z M 93 53 m -1 -1 l 2 0 l 0 2 l -2 0 z M 104.80000000000001 41.800000000000004 m -1 -1 l 2 0 l 0 2 l -2 0 z M 116.60000000000001 34 m -1 -1 l 2 0 l 0 2 l -2 0 z M 128.6 28.8 m -1 -1 l 2 0 l 0 2 l -2 0 z M 140.4 24.8 m -1 -1 l 2 0 l 0 2 l -2 0 z M 152.20000000000002 22 m -1 -1 l 2 0 l 0 2 l -2 0 z M 164 20.200000000000003 m -1 -1 l 2 0 l 0 2 l -2 0 z M 175.8 19.200000000000003 m -1 -1 l 2 0 l 0 2 l -2 0 z M 187.60000000000002 17.8 m -1 -1 l 2 0 l 0 2 l -2 0 z M 199.4 17.2 m -1 -1 l 2 0 l 0 2 l -2 0 z M 211.4 16.2 m -1 -1 l 2 0 l 0 2 l -2 0 z M 223.20000000000002 15.8 m -1 -1 l 2 0 l 0 2 l -2 0 z M 235 15 m -1 -1 l 2 0 l 0 2 l -2 0 z M 246.8 15 m -1 -1 l 2 0 l 0 2 l -2 0 z M 258.6 14.600000000000001 m -1 -1 l 2 0 l 0 2 l -2 0 z M 270.40000000000003 14.200000000000001 m -1 -1 l 2 0 l 0 2 l -2 0 z M 282.2 14.200000000000001 m -1 -1 l 2 0 l 0 2 l -2 0 z M 294.2 13.4 m -1 -1 l 2 0 l 0 2 l -2 0 z M 306 13.200000000000001 m -1 -1 l 2 0 l 0 2 l -2 0 z M 317.8 12.600000000000001 m -1 -1 l 2 0 l 0 2 l -2 0 z M 329.6 12 m -1 -1 l 2 0 l 0 2 l -2 0 z M 341.40000000000003 11.600000000000001 m -1 -1 l 2 0 l 0 2 l -2 0 z M 353.20000000000005 11.200000000000001 m -1 -1 l 2 0 l 0 2 l -2 0 z M 365 11 m -1 -1 l 2 0 l 0 2 l -2 0 z M 376.8 10.8 m -1 -1 l 2 0 l 0 2 l -2 0 z M 388.8 10.600000000000001 m -1 -1 l 2 0 l 0 2 l -2 0 z M 400.6 10 m -1 -1 l 2 0 l 0 2 l -2 0 z M 412.40000000000003 9.200000000000001 m -1 -1 l 2 0 l 0 2 l -2 0 z M 424.20000000000005 9.4 m -1 -1 l 2 0 l 0 2 l -2 0 z M 436 9 m -1 -1 l 2 0 l 0 2 l -2 0 z M 447.8 8.8 m -1 -1 l 2 0 l 0 2 l -2 0 z M 459.6 8.4 m -1 -1 l 2 0 l 0 2 l -2 0 z M 471.6 7.800000000000001 m -1 -1 l 2 0 l 0 2 l -2 0 z M 483.40000000000003 7.6000000000000005 m -1 -1 l 2 0 l 0 2 l -2 0 z M 495.20000000000005 7 m -1 -1 l 2 0 l 0 2 l -2 0 z M 507 6.6000000000000005 m -1 -1 l 2 0 l 0 2 l -2 0 z M 518.8000000000001 6 m -1 -1 l 2 0 l 0 2 l -2 0 z M 530.6 5.4 m -1 -1 l 2 0 l 0 2 l -2 0 z M 542.4 5 m -1 -1 l 2 0 l 0 2 l -2 0 z M 554.4 4.6000000000000005 m -1 -1 l 2 0 l 0 2 l -2 0 z M 566.2 4.800000000000001 m -1 -1 l 2 0 l 0 2 l -2 0 z M 578 4.6000000000000005 m -1 -1 l 2 0 l 0 2 l -2 0 z M 589.8000000000001 4.2 m -1 -1 l 2 0 l 0 2 l -2 0 z M 601.6 3.8000000000000003 m -1 -1 l 2 0 l 0 2 l -2 0 z M 613.4 3.6 m -1 -1 l 2 0 l 0 2 l -2 0 z M 625.2 3.2 m -1 -1 l 2 0 l 0 2 l -2 0 z M 637.2 2.4000000000000004 m -1 -1 l 2 0 l 0 2 l -2 0 z M 649 2 m -1 -1 l 2 0 l 0 2 l -2 0 z M 660.8000000000001 1.6 m -1 -1 l 2 0 l 0 2 l -2 0 z M 672.6 1.2000000000000002 m -1 -1 l 2 0 l 0 2 l -2 0 z M 684.4000000000001 1 m -1 -1 l 2 0 l 0 2 l -2 0 z M 696.2 0.8 m -1 -1 l 2 0 l 0 2 l -2 0 z M 708 0.8 m -1 -1 l 2 0 l 0 2 l -2 0 z M 719.8000000000001 0 m -1 -1 l 2 0 l 0 2 l -2 0 z "/></g></g></g><g><g clip-path="url(#_clipplot62709932-d1ad-4f57-af9e-636b40a3124f)"><rect data-label-i="0" display="initial"/><text data-label-i="0" display="initial"/></g><g clip-path="url(#_clipplot62709932-d1ad-4f57-af9e-636b40a3124f)"><rect data-label-i="0" display="initial"/><text data-label-i="0" display="initial"/></g><g clip-path="url(#_clipplot62709932-d1ad-4f57-af9e-636b40a3124f)"><rect data-label-i="0" display="initial"/><text data-label-i="0" display="initial"/></g><g clip-path="url(#_clipplot62709932-d1ad-4f57-af9e-636b40a3124f)"><rect data-label-i="0" display="initial"/><text data-label-i="0" display="initial"/></g></g></g></g><line stroke="black" shape-rendering="crispEdges" stroke-linecap="square" display="none"/><line stroke="black" shape-rendering="crispEdges" stroke-linecap="square" display="none"/><line stroke="black" shape-rendering="crispEdges" stroke-linecap="square" display="none"/><line stroke="black" shape-rendering="crispEdges" stroke-linecap="square" display="none"/></g><g><rect display="none" fill="rgba(171,12,12,0.2)" stroke="rgba(171,12,12,1)" shape-rendering="crispEdges" x="0" y="0" height="0" width="0" pointer-events="none"/></g></g><g display="block" transform="translate(387, 514)"><rect x="-10" y="-10" stroke="rgba( 100, 100, 100, 0.5 )" stroke-width="1px" rx="0" ry="0" fill="rgba( 255, 255, 255, 0.8 )" width="20" height="20" style="cursor: move;"/><symbol id="d7230e6e-f9f1-420b-88a8-c3ca2480e5b9" viewBox="0 -256 1850 1850"><rect pointer-events="fill" x="-256" y="0" fill="transparent" width="2106" height="1850"/><g transform="matrix(1,0,0,-1,30.372881,1259.8983)"><path d="m 1664,576 q -152,236 -381,353 61,-104 61,-225 0,-185 -131.5,-316.5 Q 1081,256 896,256 711,256 579.5,387.5 448,519 448,704 448,825 509,929 280,812 128,576 261,371 461.5,249.5 662,128 896,128 1130,128 1330.5,249.5 1531,371 1664,576 z M 944,960 q 0,20 -14,34 -14,14 -34,14 -125,0 -214.5,-89.5 Q 592,829 592,704 q 0,-20 14,-34 14,-14 34,-14 20,0 34,14 14,14 14,34 0,86 61,147 61,61 147,61 20,0 34,14 14,14 14,34 z m 848,-384 q 0,-34 -20,-69 Q 1632,277 1395.5,138.5 1159,0 896,0 633,0 396.5,139 160,278 20,507 0,542 0,576 q 0,34 20,69 140,229 376.5,368 236.5,139 499.5,139 263,0 499.5,-139 236.5,-139 376.5,-368 20,-35 20,-69 z" fill="#444444"/></g></symbol><symbol id="207ae92d-9f47-418f-be26-98c8f9c65446" viewBox="0 -256 1850 1850"><rect pointer-events="fill" fill="transparent" x="-256" y="0" width="2106" height="1850"/><g transform="matrix(1,0,0,-1,30.372881,1214.339)"><path d="m 555,201 78,141 q -87,63 -136,159 -49,96 -49,203 0,121 61,225 Q 280,812 128,576 295,318 555,201 z m 389,759 q 0,20 -14,34 -14,14 -34,14 -125,0 -214.5,-89.5 Q 592,829 592,704 q 0,-20 14,-34 14,-14 34,-14 20,0 34,14 14,14 14,34 0,86 61,147 61,61 147,61 20,0 34,14 14,14 14,34 z m 363,191 q 0,-7 -1,-9 Q 1201,954 991,576 781,198 675,9 l -49,-89 q -10,-16 -28,-16 -12,0 -134,70 -16,10 -16,28 0,12 44,87 Q 349,154 228.5,262 108,370 20,507 0,538 0,576 q 0,38 20,69 153,235 380,371 227,136 496,136 89,0 180,-17 l 54,97 q 10,16 28,16 5,0 18,-6 13,-6 31,-15.5 18,-9.5 33,-18.5 15,-9 31.5,-18.5 16.5,-9.5 19.5,-11.5 16,-10 16,-27 z m 37,-447 Q 1344,565 1265,450.5 1186,336 1056,286 l 280,502 q 8,-45 8,-84 z m 448,-128 q 0,-35 -20,-69 Q 1733,443 1663,362 1513,190 1315.5,95 1118,0 896,0 l 74,132 q 212,18 392.5,137 180.5,119 301.5,307 -115,179 -282,294 l 63,112 q 95,-64 182.5,-153 87.5,-89 144.5,-184 20,-34 20,-69 z" fill="#c0c0c0"/></g></symbol><g><g transform="translate( 0, 10)"><rect x="0" y="0" width="0" height="0" fill="none" pointer-events="fill"/><line stroke="rgba(255,1,9,1)" stroke-width="0.0001" fill="none" x1="5" x2="25" y1="0" y2="0" cursor="pointer"/><path fill="rgba(255,1,9,1)" stroke="rgba(255,1,9,1)" stroke-width="1" d="M 14 0 m -1 -1 l 2 0 l 0 2 l -2 0 z"/><use xlink:href="#d7230e6e-f9f1-420b-88a8-c3ca2480e5b9" width="15" height="15" x="35" y="-8"/><text cursor="pointer" transform="translate(55, 3)" fill="black">red</text></g><g transform="translate( 10, 10)"><rect x="0" y="0" width="0" height="0" fill="none" pointer-events="fill"/><line stroke="rgba(5,150,0,1)" stroke-width="0.0001" fill="none" x1="5" x2="25" y1="0" y2="0" cursor="pointer"/><path fill="rgba(5,150,0,1)" stroke="rgba(5,150,0,1)" stroke-width="1" d="M 14 0 m -1 -1 l 2 0 l 0 2 l -2 0 z"/><use xlink:href="#d7230e6e-f9f1-420b-88a8-c3ca2480e5b9" width="15" height="15" x="35" y="-8"/><text cursor="pointer" transform="translate(55, 3)" fill="black">green</text></g><g transform="translate( 20, 10)"><rect x="0" y="0" width="0" height="0" fill="none" pointer-events="fill"/><line stroke="rgba(2,1,255,1)" stroke-width="0.0001" fill="none" x1="5" x2="25" y1="0" y2="0" cursor="pointer"/><path fill="rgba(2,1,255,1)" stroke="rgba(2,1,255,1)" stroke-width="1" d="M 14 0 m -1 -1 l 2 0 l 0 2 l -2 0 z"/><use xlink:href="#d7230e6e-f9f1-420b-88a8-c3ca2480e5b9" width="15" height="15" x="35" y="-8"/><text cursor="pointer" transform="translate(55, 3)" fill="black">blue</text></g></g><rect x="0" y="0" width="20" height="20" fill="none" pointer-events="fill" display="none"/></g></svg>