<?xml version="1.0" standalone="no"?><!DOCTYPE svg PUBLIC "-//W3C//DTD SVG 1.1//EN" "http://www.w3.org/Graphics/SVG/1.1/DTD/svg11.dtd"><svg xmlns:xlink="http://www.w3.org/1999/xlink" xmlns="http://www.w3.org/2000/svg" font-family="Myriad Pro, Helvetica, Arial" font-size="12" data-jsgraph-version="v2.0.100" tabindex="0" width="760" height="534.007812"><defs><clipPath id="_clipplot62709932-d1ad-4f57-af9e-636b40a3124f" clipPathUnits="userSpaceOnUse"><rect y="0" x="34" width="686" height="442.00781199999994"/></clipPath><marker xmlns="" viewBox="0 0 10 10" id="arrow62709932-d1ad-4f57-af9e-636b40a3124f" refX="6" refY="5" markerUnits="strokeWidth" markerWidth="8" markerHeight="6" orient="auto"><path xmlns="http://www.w3.org/2000/svg" d="M 0 0 L 10 5 L 0 10 z"/></marker><marker viewBox="0 0 6 8" id="horionzalsplit_62709932-d1ad-4f57-af9e-636b40a3124f" refX="3" refY="4" markerUnits="strokeWidth" markerWidth="6" markerHeight="8"><line x1="0" y1="8" x2="6" y2="0" stroke="black"/></marker><marker viewBox="0 0 8 6" id="verticalsplit_62709932-d1ad-4f57-af9e-636b40a3124f" refX="4" refY="3" markerUnits="strokeWidth" markerWidth="8" markerHeight="6"><line x1="0" y1="0" x2="8" y2="6" stroke="black"/></marker><marker viewBox="0 0 10 10" id="verticalline62709932-d1ad-4f57-af9e-636b40a3124f" refX="0" refY="5" markerUnits="strokeWidth" markerWidth="20" markerHeight="10" orient="auto" stroke-width="1px"><path d="M 0 -10 L 0 10" stroke="black"/></marker></defs><g><rect pointer-events="fill" fill="transparent" y="30" x="54" width="686" height="442.00781199999994"/><text text-anchor="middle" y="20" x="380"/><g transform="translate(20, 30)"><g><g><g><path shape-rendering="crispEdges" stroke="#F0F0F0" stroke-width="1" stroke-opacity="undefined" clip-path="url(#_clipplot62709932-d1ad-4f57-af9e-636b40a3124f)" d="M 42.00185854634847 0 L 42.00185854634847 474.00781199999994M 50.003717092696945 0 L 50.003717092696945 474.00781199999994M 58.00557563904542 0 L 58.00557563904542 474.00781199999994M 66.00743418539389 0 L 66.00743418539389 474.00781199999994M 74.00929273174236 0 L 74.00929273174236 474.00781199999994M 82.01115127809084 0 L 82.01115127809084 474.00781199999994M 90.0130098244393 0 L 90.0130098244393 474.00781199999994M 98.01486837078777 0 L 98.01486837078777 474.00781199999994M 106.01672691713624 0 L 106.01672691713624 474.00781199999994M 114.0185854634847 0 L 114.0185854634847 474.00781199999994M 122.02044400983318 0 L 122.02044400983318 474.00781199999994M 130.02230255618167 0 L 130.02230255618167 474.00781199999994M 138.02416110253014 0 L 138.02416110253014 474.00781199999994M 146.02601964887862 0 L 146.02601964887862 474.00781199999994M 154.0278781952271 0 L 154.0278781952271 474.00781199999994M 162.0297367415756 0 L 162.0297367415756 474.00781199999994M 170.03159528792406 0 L 170.03159528792406 474.00781199999994M 178.03345383427254 0 L 178.03345383427254 474.00781199999994M 186.035312380621 0 L 186.035312380621 474.00781199999994M 202.0390294733179 0 L 202.0390294733179 474.00781199999994M 210.04088801966637 0 L 210.04088801966637 474.00781199999994M 218.04274656601487 0 L 218.04274656601487 474.00781199999994M 226.04460511236334 0 L 226.04460511236334 474.00781199999994M 234.0464636587118 0 L 234.0464636587118 474.00781199999994M 242.0483222050603 0 L 242.0483222050603 474.00781199999994M 250.05018075140876 0 L 250.05018075140876 474.00781199999994M 258.05203929775723 0 L 258.05203929775723 474.00781199999994M 266.05389784410573 0 L 266.05389784410573 474.00781199999994M 282.05761493680257 0 L 282.05761493680257 474.00781199999994M 290.05947348315107 0 L 290.05947348315107 474.00781199999994M 298.06133202949957 0 L 298.06133202949957 474.00781199999994M 306.06319057584807 0 L 306.06319057584807 474.00781199999994M 314.0650491221965 0 L 314.0650491221965 474.00781199999994M 322.06690766854496 0 L 322.06690766854496 474.00781199999994M 330.06876621489346 0 L 330.06876621489346 474.00781199999994M 338.07062476124196 0 L 338.07062476124196 474.00781199999994M 346.07248330759046 0 L 346.07248330759046 474.00781199999994M 362.0762004002873 0 L 362.0762004002873 474.00781199999994M 370.07805894663574 0 L 370.07805894663574 474.00781199999994M 378.0799174929842 0 L 378.0799174929842 474.00781199999994M 386.0817760393326 0 L 386.0817760393326 474.00781199999994M 394.08363458568107 0 L 394.08363458568107 474.00781199999994M 402.0854931320295 0 L 402.0854931320295 474.00781199999994M 410.0873516783779 0 L 410.0873516783779 474.00781199999994M 418.0892102247264 0 L 418.0892102247264 474.00781199999994M 426.0910687710748 0 L 426.0910687710748 474.00781199999994M 434.0929273174233 0 L 434.0929273174233 474.00781199999994M 442.094785863772 0 L 442.094785863772 474.00781199999994M 450.0966444101204 0 L 450.0966444101204 474.00781199999994M 458.0985029564689 0 L 458.0985029564689 474.00781199999994M 466.1003615028173 0 L 466.1003615028173 474.00781199999994M 474.1022200491658 0 L 474.1022200491658 474.00781199999994M 482.1040785955142 0 L 482.1040785955142 474.00781199999994M 490.1059371418627 0 L 490.1059371418627 474.00781199999994M 498.10779568821107 0 L 498.10779568821107 474.00781199999994M 506.1096542345595 0 L 506.1096542345595 474.00781199999994M 514.111512780908 0 L 514.111512780908 474.00781199999994M 522.1133713272567 0 L 522.1133713272567 474.00781199999994M 530.1152298736051 0 L 530.1152298736051 474.00781199999994M 538.1170884199536 0 L 538.1170884199536 474.00781199999994M 546.118946966302 0 L 546.118946966302 474.00781199999994M 554.1208055126505 0 L 554.1208055126505 474.00781199999994M 562.1226640589989 0 L 562.1226640589989 474.00781199999994M 570.1245226053474 0 L 570.1245226053474 474.00781199999994M 578.1263811516958 0 L 578.1263811516958 474.00781199999994M 586.1282396980442 0 L 586.1282396980442 474.00781199999994M 594.1300982443927 0 L 594.1300982443927 474.00781199999994M 602.1319567907414 0 L 602.1319567907414 474.00781199999994M 610.1338153370899 0 L 610.1338153370899 474.00781199999994M 618.1356738834382 0 L 618.1356738834382 474.00781199999994M 626.1375324297867 0 L 626.1375324297867 474.00781199999994M 634.1393909761352 0 L 634.1393909761352 474.00781199999994M 642.1412495224836 0 L 642.1412495224836 474.00781199999994M 650.1431080688321 0 L 650.1431080688321 474.00781199999994M 658.1449666151805 0 L 658.1449666151805 474.00781199999994M 666.146825161529 0 L 666.146825161529 474.00781199999994M 674.1486837078774 0 L 674.1486837078774 474.00781199999994M 682.1505422542261 0 L 682.1505422542261 474.00781199999994M 690.1524008005746 0 L 690.1524008005746 474.00781199999994M 698.154259346923 0 L 698.154259346923 474.00781199999994M 706.1561178932715 0 L 706.1561178932715 474.00781199999994M 714.1579764396199 0 L 714.1579764396199 474.00781199999994"/><path shape-rendering="crispEdges" stroke="#F0F0F0" stroke-width="1" stroke-opacity="undefined" clip-path="url(#_clipplot62709932-d1ad-4f57-af9e-636b40a3124f)" d="M 0 431.6348848813287 L 720 431.6348848813287M 0 419.62076948791565 L 720 419.62076948791565M 0 407.6066540945026 L 720 407.6066540945026M 0 395.59253870108955 L 720 395.59253870108955M 0 383.57842330767653 L 720 383.57842330767653M 0 371.56430791426345 L 720 371.56430791426345M 0 359.55019252085043 L 720 359.55019252085043M 0 347.5360771274374 L 720 347.5360771274374M 0 335.5219617340244 L 720 335.5219617340244M 0 323.5078463406113 L 720 323.5078463406113M 0 311.4937309471983 L 720 311.4937309471983M 0 299.47961555378527 L 720 299.47961555378527M 0 287.4655001603722 L 720 287.4655001603722M 0 275.4513847669591 L 720 275.4513847669591M 0 263.4372693735461 L 720 263.4372693735461M 0 251.42315398013304 L 720 251.42315398013304M 0 239.40903858672 L 720 239.40903858672M 0 227.39492319330694 L 720 227.39492319330694M 0 203.36669240648092 L 720 203.36669240648092M 0 191.35257701306784 L 720 191.35257701306784M 0 179.33846161965482 L 720 179.33846161965482M 0 167.32434622624174 L 720 167.32434622624174M 0 155.31023083282872 L 720 155.31023083282872M 0 143.29611543941564 L 720 143.29611543941564M 0 131.28200004600262 L 720 131.28200004600262M 0 119.26788465258954 L 720 119.26788465258954M 0 107.25376925917652 L 720 107.25376925917652M 0 83.22553847235048 L 720 83.22553847235048M 0 71.2114230789374 L 720 71.2114230789374M 0 59.19730768552438 L 720 59.19730768552438M 0 47.1831922921113 L 720 47.1831922921113M 0 35.16907689869828 L 720 35.16907689869828M 0 23.1549615052852 L 720 23.1549615052852M 0 11.140846111872179 L 720 11.140846111872179"/></g><g><path shape-rendering="crispEdges" stroke="#DADADA" stroke-width="1" stroke-opacity="undefined" clip-path="url(#_clipplot62709932-d1ad-4f57-af9e-636b40a3124f)" d="M 34 0 L 34 474.00781199999994M 114.01858546348471 0 L 114.01858546348471 474.00781199999994M 194.03717092696942 0 L 194.03717092696942 474.00781199999994M 274.0557563904541 0 L 274.0557563904541 474.00781199999994M 354.07434185393885 0 L 354.07434185393885 474.00781199999994M 434.0929273174235 0 L 434.0929273174235 474.00781199999994M 514.1115127809082 0 L 514.1115127809082 474.00781199999994M 594.130098244393 0 L 594.130098244393 474.00781199999994M 674.1486837078777 0 L 674.1486837078777 474.00781199999994"/><path shape-rendering="crispEdges" stroke="#DADADA" stroke-width="1" stroke-opacity="undefined" clip-path="url(#_clipplot62709932-d1ad-4f57-af9e-636b40a3124f)" d="M 0 335.52196173402433 L 720 335.52196173402433M 0 215.38080779989394 L 720 215.38080779989394M 0 95.2396538657635 L 720 95.2396538657635"/></g></g><g transform="translate(0 442.00781199999994)"><rect pointer-events="fill" fill="transparent"/><g><line y1="0" y2="-2" stroke="black" display="visible" x1="42.00185854634847" x2="42.00185854634847"/><line y1="0" y2="-2" stroke="black" display="visible" x1="50.003717092696945" x2="50.003717092696945"/><line y1="0" y2="-2" stroke="black" display="visible" x1="58.00557563904542" x2="58.00557563904542"/><line y1="0" y2="-2" stroke="black" display="visible" x1="66.00743418539389" x2="66.00743418539389"/><line y1="0" y2="-4" stroke="black" display="visible" x1="74.00929273174236" x2="74.00929273174236"/><line y1="0" y2="-2" stroke="black" display="visible" x1="82.01115127809084" x2="82.01115127809084"/><line y1="0" y2="-2" stroke="black" display="visible" x1="90.0130098244393" x2="90.0130098244393"/><line y1="0" y2="-2" stroke="black" display="visible" x1="98.01486837078777" x2="98.01486837078777"/><line y1="0" y2="-2" stroke="black" display="visible" x1="106.01672691713624" x2="106.01672691713624"/><line y1="0" y2="-6" stroke="black" display="visible" x1="34" x2="34"/><line y1="0" y2="-2" stroke="black" display="visible" x1="114.0185854634847" x2="114.0185854634847"/><line y1="0" y2="-2" stroke="black" display="visible" x1="122.02044400983318" x2="122.02044400983318"/><line y1="0" y2="-2" stroke="black" display="visible" x1="130.02230255618167" x2="130.02230255618167"/><line y1="0" y2="-2" stroke="black" display="visible" x1="138.02416110253014" x2="138.02416110253014"/><line y1="0" y2="-4" stroke="black" display="visible" x1="154.0278781952271" x2="154.0278781952271"/><line y1="0" y2="-2" stroke="black" display="visible" x1="146.02601964887862" x2="146.02601964887862"/><line y1="0" y2="-2" stroke="black" display="visible" x1="162.0297367415756" x2="162.0297367415756"/><line y1="0" y2="-2" stroke="black" display="visible" x1="170.03159528792406" x2="170.03159528792406"/><line y1="0" y2="-2" stroke="black" display="visible" x1="178.03345383427254" x2="178.03345383427254"/><line y1="0" y2="-2" stroke="black" display="visible" x1="186.035312380621" x2="186.035312380621"/><line y1="0" y2="-6" stroke="black" display="visible" x1="114.01858546348471" x2="114.01858546348471"/><line y1="0" y2="-2" stroke="black" display="visible" x1="202.0390294733179" x2="202.0390294733179"/><line y1="0" y2="-2" stroke="black" display="visible" x1="210.04088801966637" x2="210.04088801966637"/><line y1="0" y2="-2" stroke="black" display="visible" x1="218.04274656601487" x2="218.04274656601487"/><line y1="0" y2="-2" stroke="black" display="visible" x1="226.04460511236334" x2="226.04460511236334"/><line y1="0" y2="-4" stroke="black" display="visible" x1="234.0464636587118" x2="234.0464636587118"/><line y1="0" y2="-2" stroke="black" display="visible" x1="242.0483222050603" x2="242.0483222050603"/><line y1="0" y2="-2" stroke="black" display="visible" x1="250.05018075140876" x2="250.05018075140876"/><line y1="0" y2="-2" stroke="black" display="visible" x1="258.05203929775723" x2="258.05203929775723"/><line y1="0" y2="-2" stroke="black" display="visible" x1="266.05389784410573" x2="266.05389784410573"/><line y1="0" y2="-2" stroke="black" display="visible" x1="282.05761493680257" x2="282.05761493680257"/><line y1="0" y2="-6" stroke="black" display="visible" x1="194.03717092696942" x2="194.03717092696942"/><line y1="0" y2="-2" stroke="black" display="visible" x1="290.05947348315107" x2="290.05947348315107"/><line y1="0" y2="-2" stroke="black" display="visible" x1="298.06133202949957" x2="298.06133202949957"/><line y1="0" y2="-2" stroke="black" display="visible" x1="306.06319057584807" x2="306.06319057584807"/><line y1="0" y2="-2" stroke="black" display="visible" x1="322.06690766854496" x2="322.06690766854496"/><line y1="0" y2="-4" stroke="black" display="visible" x1="314.0650491221965" x2="314.0650491221965"/><line y1="0" y2="-2" stroke="black" display="visible" x1="330.06876621489346" x2="330.06876621489346"/><line y1="0" y2="-2" stroke="black" display="visible" x1="338.07062476124196" x2="338.07062476124196"/><line y1="0" y2="-2" stroke="black" display="visible" x1="346.07248330759046" x2="346.07248330759046"/><line y1="0" y2="-2" stroke="black" display="visible" x1="362.0762004002873" x2="362.0762004002873"/><line y1="0" y2="-6" stroke="black" display="visible" x1="274.0557563904541" x2="274.0557563904541"/><line y1="0" y2="-6" stroke="black" display="visible" x1="354.07434185393885" x2="354.07434185393885"/><line y1="0" y2="-2" stroke="black" display="visible" x1="370.07805894663574" x2="370.07805894663574"/><line y1="0" y2="-2" stroke="black" display="visible" x1="378.0799174929842" x2="378.0799174929842"/><line y1="0" y2="-2" stroke="black" display="visible" x1="386.0817760393326" x2="386.0817760393326"/><line y1="0" y2="-4" stroke="black" display="visible" x1="394.08363458568107" x2="394.08363458568107"/><line y1="0" y2="-2" stroke="black" display="visible" x1="402.0854931320295" x2="402.0854931320295"/><line y1="0" y2="-2" stroke="black" display="visible" x1="410.0873516783779" x2="410.0873516783779"/><line y1="0" y2="-2" stroke="black" display="visible" x1="418.0892102247264" x2="418.0892102247264"/><line y1="0" y2="-2" stroke="black" display="visible" x1="426.0910687710748" x2="426.0910687710748"/><line y1="0" y2="-2" stroke="black" display="visible" x1="434.0929273174233" x2="434.0929273174233"/><line y1="0" y2="-2" stroke="black" display="visible" x1="442.094785863772" x2="442.094785863772"/><line y1="0" y2="-2" stroke="black" display="visible" x1="450.0966444101204" x2="450.0966444101204"/><line y1="0" y2="-2" stroke="black" display="visible" x1="458.0985029564689" x2="458.0985029564689"/><line y1="0" y2="-4" stroke="black" display="visible" x1="474.1022200491658" x2="474.1022200491658"/><line y1="0" y2="-2" stroke="black" display="visible" x1="466.1003615028173" x2="466.1003615028173"/><line y1="0" y2="-2" stroke="black" display="visible" x1="482.1040785955142" x2="482.1040785955142"/><line y1="0" y2="-2" stroke="black" display="visible" x1="490.1059371418627" x2="490.1059371418627"/><line y1="0" y2="-2" stroke="black" display="visible" x1="498.10779568821107" x2="498.10779568821107"/><line y1="0" y2="-6" stroke="black" display="visible" x1="434.0929273174235" x2="434.0929273174235"/><line y1="0" y2="-2" stroke="black" display="visible" x1="506.1096542345595" x2="506.1096542345595"/><line y1="0" y2="-2" stroke="black" display="visible" x1="514.111512780908" x2="514.111512780908"/><line y1="0" y2="-2" stroke="black" display="visible" x1="522.1133713272567" x2="522.1133713272567"/><line y1="0" y2="-2" stroke="black" display="visible" x1="530.1152298736051" x2="530.1152298736051"/><line y1="0" y2="-4" stroke="black" display="visible" x1="554.1208055126505" x2="554.1208055126505"/><line y1="0" y2="-2" stroke="black" display="visible" x1="538.1170884199536" x2="538.1170884199536"/><line y1="0" y2="-2" stroke="black" display="visible" x1="546.118946966302" x2="546.118946966302"/><line y1="0" y2="-2" stroke="black" display="visible" x1="562.1226640589989" x2="562.1226640589989"/><line y1="0" y2="-2" stroke="black" display="visible" x1="570.1245226053474" x2="570.1245226053474"/><line y1="0" y2="-6" stroke="black" display="visible" x1="514.1115127809082" x2="514.1115127809082"/><line y1="0" y2="-2" stroke="black" display="visible" x1="578.1263811516958" x2="578.1263811516958"/><line y1="0" y2="-2" stroke="black" display="visible" x1="586.1282396980442" x2="586.1282396980442"/><line y1="0" y2="-2" stroke="black" display="visible" x1="594.1300982443927" x2="594.1300982443927"/><line y1="0" y2="-2" stroke="black" display="visible" x1="602.1319567907414" x2="602.1319567907414"/><line y1="0" y2="-2" stroke="black" display="visible" x1="610.1338153370899" x2="610.1338153370899"/><line y1="0" y2="-2" stroke="black" display="visible" x1="618.1356738834382" x2="618.1356738834382"/><line y1="0" y2="-2" stroke="black" display="visible" x1="626.1375324297867" x2="626.1375324297867"/><line y1="0" y2="-4" stroke="black" display="visible" x1="634.1393909761352" x2="634.1393909761352"/><line y1="0" y2="-2" stroke="black" display="visible" x1="642.1412495224836" x2="642.1412495224836"/><line y1="0" y2="-2" stroke="black" display="visible" x1="650.1431080688321" x2="650.1431080688321"/><line y1="0" y2="-2" stroke="black" display="visible" x1="658.1449666151805" x2="658.1449666151805"/><line y1="0" y2="-2" stroke="black" display="visible" x1="666.146825161529" x2="666.146825161529"/><line y1="0" y2="-2" stroke="black" display="visible" x1="674.1486837078774" x2="674.1486837078774"/><line y1="0" y2="-6" stroke="black" display="visible" x1="594.130098244393" x2="594.130098244393"/><line y1="0" y2="-2" stroke="black" display="visible" x1="682.1505422542261" x2="682.1505422542261"/><line y1="0" y2="-2" stroke="black" display="visible" x1="690.1524008005746" x2="690.1524008005746"/><line y1="0" y2="-2" stroke="black" display="visible" x1="698.154259346923" x2="698.154259346923"/><line y1="0" y2="-2" stroke="black" display="visible" x1="706.1561178932715" x2="706.1561178932715"/><line y1="0" y2="-4" stroke="black" display="visible" x1="714.1579764396199" x2="714.1579764396199"/><line y1="0" y2="-6" stroke="black" display="visible" x1="674.1486837078777" x2="674.1486837078777"/></g><g><text y="8" text-anchor="middle" display="visible" x="34" style="dominant-baseline: hanging;">0</text><text y="8" text-anchor="middle" display="visible" x="114.01858546348471" style="dominant-baseline: hanging;">2</text><text y="8" text-anchor="middle" display="visible" x="194.03717092696942" style="dominant-baseline: hanging;">4</text><text y="8" text-anchor="middle" display="visible" x="274.0557563904541" style="dominant-baseline: hanging;">6</text><text y="8" text-anchor="middle" display="visible" x="354.07434185393885" style="dominant-baseline: hanging;">8</text><text y="8" text-anchor="middle" display="visible" x="434.0929273174235" style="dominant-baseline: hanging;">10</text><text y="8" text-anchor="middle" display="visible" x="514.1115127809082" style="dominant-baseline: hanging;">12</text><text y="8" text-anchor="middle" display="visible" x="594.130098244393" style="dominant-baseline: hanging;">14</text><text y="8" text-anchor="middle" display="visible" x="674.1486837078777" style="dominant-baseline: hanging;">16</text></g><line stroke="black" shape-rendering="crispEdges" stroke-linecap="square" display="block" x1="34" x2="720" y1="0" y2="0" marker-start="" marker-end=""/><text text-anchor="middle" fill="undefined" style="display: initial;" x="377" y="22"><tspan style="dominant-baseline: hanging;">Time [min]</tspan><tspan display="none" style="dominant-baseline: hanging;"/><tspan dx="6" display="none" style="dominant-baseline: hanging;"/><tspan dy="-5" font-size="0.8em" display="none" style="dominant-baseline: hanging;"/></text><g/></g><g transform="translate( 34 0 )"><rect pointer-events="fill" fill="transparent"/><g><line x1="0" x2="2" stroke="black" display="visible" y1="431.6348848813287" y2="431.6348848813287"/><line x1="0" x2="2" stroke="black" display="visible" y1="419.62076948791565" y2="419.62076948791565"/><line x1="0" x2="2" stroke="black" display="visible" y1="407.6066540945026" y2="407.6066540945026"/><line x1="0" x2="2" stroke="black" display="visible" y1="383.57842330767653" y2="383.57842330767653"/><line x1="0" x2="2" stroke="black" display="visible" y1="371.56430791426345" y2="371.56430791426345"/><line x1="0" x2="2" stroke="black" display="visible" y1="359.55019252085043" y2="359.55019252085043"/><line x1="0" x2="2" stroke="black" display="visible" y1="347.5360771274374" y2="347.5360771274374"/><line x1="0" x2="2" stroke="black" display="visible" y1="335.5219617340244" y2="335.5219617340244"/><line x1="0" x2="4" stroke="black" display="visible" y1="395.59253870108955" y2="395.59253870108955"/><line x1="0" x2="2" stroke="black" display="visible" y1="323.5078463406113" y2="323.5078463406113"/><line x1="0" x2="2" stroke="black" display="visible" y1="311.4937309471983" y2="311.4937309471983"/><line x1="0" x2="2" stroke="black" display="visible" y1="299.47961555378527" y2="299.47961555378527"/><line x1="0" x2="2" stroke="black" display="visible" y1="287.4655001603722" y2="287.4655001603722"/><line x1="0" x2="6" stroke="black" display="visible" y1="335.52196173402433" y2="335.52196173402433"/><line x1="0" x2="2" stroke="black" display="visible" y1="263.4372693735461" y2="263.4372693735461"/><line x1="0" x2="2" stroke="black" display="visible" y1="251.42315398013304" y2="251.42315398013304"/><line x1="0" x2="2" stroke="black" display="visible" y1="239.40903858672" y2="239.40903858672"/><line x1="0" x2="2" stroke="black" display="visible" y1="227.39492319330694" y2="227.39492319330694"/><line x1="0" x2="4" stroke="black" display="visible" y1="275.4513847669591" y2="275.4513847669591"/><line x1="0" x2="2" stroke="black" display="visible" y1="203.36669240648092" y2="203.36669240648092"/><line x1="0" x2="2" stroke="black" display="visible" y1="191.35257701306784" y2="191.35257701306784"/><line x1="0" x2="2" stroke="black" display="visible" y1="179.33846161965482" y2="179.33846161965482"/><line x1="0" x2="2" stroke="black" display="visible" y1="167.32434622624174" y2="167.32434622624174"/><line x1="0" x2="6" stroke="black" display="visible" y1="215.38080779989394" y2="215.38080779989394"/><line x1="0" x2="2" stroke="black" display="visible" y1="143.29611543941564" y2="143.29611543941564"/><line x1="0" x2="2" stroke="black" display="visible" y1="131.28200004600262" y2="131.28200004600262"/><line x1="0" x2="2" stroke="black" display="visible" y1="119.26788465258954" y2="119.26788465258954"/><line x1="0" x2="2" stroke="black" display="visible" y1="107.25376925917652" y2="107.25376925917652"/><line x1="0" x2="4" stroke="black" display="visible" y1="155.31023083282872" y2="155.31023083282872"/><line x1="0" x2="2" stroke="black" display="visible" y1="83.22553847235048" y2="83.22553847235048"/><line x1="0" x2="2" stroke="black" display="visible" y1="71.2114230789374" y2="71.2114230789374"/><line x1="0" x2="2" stroke="black" display="visible" y1="59.19730768552438" y2="59.19730768552438"/><line x1="0" x2="2" stroke="black" display="visible" y1="47.1831922921113" y2="47.1831922921113"/><line x1="0" x2="6" stroke="black" display="visible" y1="95.2396538657635" y2="95.2396538657635"/><line x1="0" x2="2" stroke="black" display="visible" y1="23.1549615052852" y2="23.1549615052852"/><line x1="0" x2="2" stroke="black" display="visible" y1="11.140846111872179" y2="11.140846111872179"/><line x1="0" x2="2" stroke="black" display="none" y1="18.804158201051564" y2="18.804158201051564"/><line x1="0" x2="6" stroke="black" display="none" y1="41.40299409096059" y2="41.40299409096059"/><line x1="0" x2="4" stroke="black" display="visible" y1="35.16907689869828" y2="35.16907689869828"/><line x1="0" x2="2" stroke="black" display="none" y1="7.504740256097023" y2="7.504740256097023"/><line x1="0" x2="2" stroke="black" display="none" y1="98.09974686298932" y2="98.09974686298932"/><line x1="0" x2="2" stroke="black" display="none" y1="88.63599341563514" y2="88.63599341563514"/><line x1="0" x2="2" stroke="black" display="none" y1="79.17223996828159" y2="79.17223996828159"/><line x1="0" x2="2" stroke="black" display="none" y1="69.70848652092798" y2="69.70848652092798"/><line x1="0" x2="2" stroke="black" display="none" y1="60.24473307357448" y2="60.24473307357448"/><line x1="0" x2="4" stroke="black" display="none" y1="50.780979626220926" y2="50.780979626220926"/><line x1="0" x2="2" stroke="black" display="none" y1="41.31722617886737" y2="41.31722617886737"/><line x1="0" x2="2" stroke="black" display="none" y1="31.85347273151382" y2="31.85347273151382"/><line x1="0" x2="2" stroke="black" display="none" y1="22.389719284160265" y2="22.389719284160265"/><line x1="0" x2="2" stroke="black" display="none" y1="12.92596583680671" y2="12.92596583680671"/><line x1="0" x2="2" stroke="black" display="none" y1="3.462212389453157" y2="3.462212389453157"/><line x1="0" x2="6" stroke="black" display="none" y1="3.462212389452475" y2="3.462212389452475"/></g><g><text x="-5" text-anchor="end" display="visible" y="335.52196173402433" style="dominant-baseline: central;">0.2</text><text x="-5" text-anchor="end" display="visible" y="215.38080779989394" style="dominant-baseline: central;">0.4</text><text x="-5" text-anchor="end" display="visible" y="95.2396538657635" style="dominant-baseline: central;">0.6</text><text x="-5" text-anchor="end" display="none" y="41.40299409096059" style="dominant-baseline: central;">0.20</text><text x="-5" text-anchor="end" display="none" y="3.462212389452475" style="dominant-baseline: central;">0.032</text></g><line stroke="black" shape-rendering="crispEdges" stroke-linecap="square" display="block" y1="442.00781199999994" y2="0" x1="0" x2="0" marker-start="" marker-end=""/><text text-anchor="middle" transform="translate(-22, 221.00390599999997) rotate(-90)" fill="undefined" dominant-baseline="auto"><tspan>Absorbance</tspan><tspan display="none"/><tspan dx="6" display="none"/><tspan dy="-5" font-size="0.8em" display="none"/></text><g/></g></g><g><g data-layer="1"><g><g><g><path stroke="rgba(255,1,9,1)" stroke-width="0.0001" fill="none" d="M 45.6 442 L 57.2 439.8 L 68.8 439 L 80.4 437.6 L 92 438.40000000000003 L 103.60000000000001 438.20000000000005 L 115.2 438 L 127 437.8 L 138.6 437.8 L 150.20000000000002 437.8 L 161.8 437.40000000000003 L 173.4 437.6 L 185 437.6 L 196.60000000000002 437.6 L 208.4 437.6 L 220 437.40000000000003 L 231.60000000000002 437.40000000000003 L 243.20000000000002 437.40000000000003 L 254.8 437.20000000000005 L 266.40000000000003 437.20000000000005 L 278 437.20000000000005 L 289.6 437 L 301.40000000000003 437.20000000000005 L 313 437 L 324.6 437 L 336.20000000000005 437.20000000000005 L 347.8 437 L 359.40000000000003 437 L 371 436.8 L 382.8 436.8 L 394.40000000000003 437 L 406 436.8 L 417.6 436.8 L 429.20000000000005 436.8 L 440.8 436.8 L 452.40000000000003 436.8 L 464.20000000000005 436.8 L 475.8 436.8 L 487.40000000000003 436.8 L 499 436.8 L 510.6 436.8 L 522.2 436.6 L 533.8000000000001 436.6 L 545.4 436.6 L 557.2 436.6 L 568.8000000000001 436.6 L 580.4 436.6 L 592 436.40000000000003 L 603.6 436.40000000000003 L 615.2 436.40000000000003 L 626.8000000000001 436.40000000000003 L 638.6 436.40000000000003 L 650.2 436.40000000000003 L 661.8000000000001 436.40000000000003 L 673.4000000000001 436.40000000000003 L 685 436.40000000000003 L 696.6 436.40000000000003 L 708.2 436.20000000000005 L 719.8000000000001 436.20000000000005 "/></g><circle fill="black" r="3" display="none"/><g/><rect fill="white"/><text/><g><path fill="rgba(255,1,9,1)" stroke="rgba(255,1,9,1)" stroke-width="1" d="M 45.6 442 m -1 -1 l 2 0 l 0 2 l -2 0 z M 57.2 439.8 m -1 -1 l 2 0 l 0 2 l -2 0 z M 68.8 439 m -1 -1 l 2 0 l 0 2 l -2 0 z M 80.4 437.6 m -1 -1 l 2 0 l 0 2 l -2 0 z M 92 438.40000000000003 m -1 -1 l 2 0 l 0 2 l -2 0 z M 103.60000000000001 438.20000000000005 m -1 -1 l 2 0 l 0 2 l -2 0 z M 115.2 438 m -1 -1 l 2 0 l 0 2 l -2 0 z M 127 437.8 m -1 -1 l 2 0 l 0 2 l -2 0 z M 138.6 437.8 m -1 -1 l 2 0 l 0 2 l -2 0 z M 150.20000000000002 437.8 m -1 -1 l 2 0 l 0 2 l -2 0 z M 161.8 437.40000000000003 m -1 -1 l 2 0 l 0 2 l -2 0 z M 173.4 437.6 m -1 -1 l 2 0 l 0 2 l -2 0 z M 185 437.6 m -1 -1 l 2 0 l 0 2 l -2 0 z M 196.60000000000002 437.6 m -1 -1 l 2 0 l 0 2 l -2 0 z M 208.4 437.6 m -1 -1 l 2 0 l 0 2 l -2 0 z M 220 437.40000000000003 m -1 -1 l 2 0 l 0 2 l -2 0 z M 231.60000000000002 437.40000000000003 m -1 -1 l 2 0 l 0 2 l -2 0 z M 243.20000000000002 437.40000000000003 m -1 -1 l 2 0 l 0 2 l -2 0 z M 254.8 437.20000000000005 m -1 -1 l 2 0 l 0 2 l -2 0 z M 266.40000000000003 437.20000000000005 m -1 -1 l 2 0 l 0 2 l -2 0 z M 278 437.20000000000005 m -1 -1 l 2 0 l 0 2 l -2 0 z M 289.6 437 m -1 -1 l 2 0 l 0 2 l -2 0 z M 301.40000000000003 437.20000000000005 m -1 -1 l 2 0 l 0 2 l -2 0 z M 313 437 m -1 -1 l 2 0 l 0 2 l -2 0 z M 324.6 437 m -1 -1 l 2 0 l 0 2 l -2 0 z M 336.20000000000005 437.20000000000005 m -1 -1 l 2 0 l 0 2 l -2 0 z M 347.8 437 m -1 -1 l 2 0 l 0 2 l -2 0 z M 359.40000000000003 437 m -1 -1 l 2 0 l 0 2 l -2 0 z M 371 436.8 m -1 -1 l 2 0 l 0 2 l -2 0 z M 382.8 436.8 m -1 -1 l 2 0 l 0 2 l -2 0 z M 394.40000000000003 437 m -1 -1 l 2 0 l 0 2 l -2 0 z M 406 436.8 m -1 -1 l 2 0 l 0 2 l -2 0 z M 417.6 436.8 m -1 -1 l 2 0 l 0 2 l -2 0 z M 429.20000000000005 436.8 m -1 -1 l 2 0 l 0 2 l -2 0 z M 440.8 436.8 m -1 -1 l 2 0 l 0 2 l -2 0 z M 452.40000000000003 436.8 m -1 -1 l 2 0 l 0 2 l -2 0 z M 464.20000000000005 436.8 m -1 -1 l 2 0 l 0 2 l -2 0 z M 475.8 436.8 m -1 -1 l 2 0 l 0 2 l -2 0 z M 487.40000000000003 436.8 m -1 -1 l 2 0 l 0 2 l -2 0 z M 499 436.8 m -1 -1 l 2 0 l 0 2 l -2 0 z M 510.6 436.8 m -1 -1 l 2 0 l 0 2 l -2 0 z M 522.2 436.6 m -1 -1 l 2 0 l 0 2 l -2 0 z M 533.8000000000001 436.6 m -1 -1 l 2 0 l 0 2 l -2 0 z M 545.4 436.6 m -1 -1 l 2 0 l 0 2 l -2 0 z M 557.2 436.6 m -1 -1 l 2 0 l 0 2 l -2 0 z M 568.8000000000001 436.6 m -1 -1 l 2 0 l 0 2 l -2 0 z M 580.4 436.6 m -1 -1 l 2 0 l 0 2 l -2 0 z M 592 436.40000000000003 m -1 -1 l 2 0 l 0 2 l -2 0 z M 603.6 436.40000000000003 m -1 -1 l 2 0 l 0 2 l -2 0 z M 615.2 436.40000000000003 m -1 -1 l 2 0 l 0 2 l -2 0 z M 626.8000000000001 436.40000000000003 m -1 -1 l 2 0 l 0 2 l -2 0 z M 638.6 436.40000000000003 m -1 -1 l 2 0 l 0 2 l -2 0 z M 650.2 436.40000000000003 m -1 -1 l 2 0 l 0 2 l -2 0 z M 661.8000000000001 436.40000000000003 m -1 -1 l 2 0 l 0 2 l -2 0 z M 673.4000000000001 436.40000000000003 m -1 -1 l 2 0 l 0 2 l -2 0 z M 685 436.40000000000003 m -1 -1 l 2 0 l 0 2 l -2 0 z M 696.6 436.40000000000003 m -1 -1 l 2 0 l 0 2 l -2 0 z M 708.2 436.20000000000005 m -1 -1 l 2 0 l 0 2 l -2 0 z M 719.8000000000001 436.20000000000005 m -1 -1 l 2 0 l 0 2 l -2 0 z "/></g></g><g><g><path stroke="rgba(5,150,0,1)" stroke-width="0.0001" fill="none" d="M 45.6 357.6 L 57.2 344.40000000000003 L 68.8 338.6 L 80.4 335 L 92 334.8 L 103.60000000000001 334.20000000000005 L 115.2 333.8 L 127 333.6 L 138.6 333.40000000000003 L 150.20000000000002 333.20000000000005 L 161.8 333 L 173.4 332.6 L 185 332.6 L 196.60000000000002 332.40000000000003 L 208.4 332.20000000000005 L 220 332.20000000000005 L 231.60000000000002 332 L 243.20000000000002 331.8 L 254.8 331.6 L 266.40000000000003 331.40000000000003 L 278 331.20000000000005 L 289.6 330.6 L 301.40000000000003 330.6 L 313 330.6 L 324.6 330.40000000000003 L 336.20000000000005 330.20000000000005 L 347.8 330 L 359.40000000000003 329.8 L 371 329.6 L 382.8 329.40000000000003 L 394.40000000000003 329.20000000000005 L 406 329 L 417.6 328.8 L 429.20000000000005 328.6 L 440.8 328.40000000000003 L 452.40000000000003 328.20000000000005 L 464.20000000000005 328.20000000000005 L 475.8 328 L 487.40000000000003 327.8 L 499 327.6 L 510.6 327.40000000000003 L 522.2 327.40000000000003 L 533.8000000000001 327.20000000000005 L 545.4 327 L 557.2 326.8 L 568.8000000000001 326.6 L 580.4 326.40000000000003 L 592 326.20000000000005 L 603.6 326 L 615.2 325.8 L 626.8000000000001 325.6 L 638.6 325.40000000000003 L 650.2 325.40000000000003 L 661.8000000000001 325.20000000000005 L 673.4000000000001 325 L 685 324.8 L 696.6 324.8 L 708.2 324.6 L 719.8000000000001 324.40000000000003 "/></g><circle fill="black" r="3" display="none"/><g/><rect fill="white"/><text/><g><path fill="rgba(5,150,0,1)" stroke="rgba(5,150,0,1)" stroke-width="1" d="M 45.6 357.6 m -1 -1 l 2 0 l 0 2 l -2 0 z M 57.2 344.40000000000003 m -1 -1 l 2 0 l 0 2 l -2 0 z M 68.8 338.6 m -1 -1 l 2 0 l 0 2 l -2 0 z M 80.4 335 m -1 -1 l 2 0 l 0 2 l -2 0 z M 92 334.8 m -1 -1 l 2 0 l 0 2 l -2 0 z M 103.60000000000001 334.20000000000005 m -1 -1 l 2 0 l 0 2 l -2 0 z M 115.2 333.8 m -1 -1 l 2 0 l 0 2 l -2 0 z M 127 333.6 m -1 -1 l 2 0 l 0 2 l -2 0 z M 138.6 333.40000000000003 m -1 -1 l 2 0 l 0 2 l -2 0 z M 150.20000000000002 333.20000000000005 m -1 -1 l 2 0 l 0 2 l -2 0 z M 161.8 333 m -1 -1 l 2 0 l 0 2 l -2 0 z M 173.4 332.6 m -1 -1 l 2 0 l 0 2 l -2 0 z M 185 332.6 m -1 -1 l 2 0 l 0 2 l -2 0 z M 196.60000000000002 332.40000000000003 m -1 -1 l 2 0 l 0 2 l -2 0 z M 208.4 332.20000000000005 m -1 -1 l 2 0 l 0 2 l -2 0 z M 220 332.20000000000005 m -1 -1 l 2 0 l 0 2 l -2 0 z M 231.60000000000002 332 m -1 -1 l 2 0 l 0 2 l -2 0 z M 243.20000000000002 331.8 m -1 -1 l 2 0 l 0 2 l -2 0 z M 254.8 331.6 m -1 -1 l 2 0 l 0 2 l -2 0 z M 266.40000000000003 331.40000000000003 m -1 -1 l 2 0 l 0 2 l -2 0 z M 278 331.20000000000005 m -1 -1 l 2 0 l 0 2 l -2 0 z M 289.6 330.6 m -1 -1 l 2 0 l 0 2 l -2 0 z M 301.40000000000003 330.6 m -1 -1 l 2 0 l 0 2 l -2 0 z M 313 330.6 m -1 -1 l 2 0 l 0 2 l -2 0 z M 324.6 330.40000000000003 m -1 -1 l 2 0 l 0 2 l -2 0 z M 336.20000000000005 330.20000000000005 m -1 -1 l 2 0 l 0 2 l -2 0 z M 347.8 330 m -1 -1 l 2 0 l 0 2 l -2 0 z M 359.40000000000003 329.8 m -1 -1 l 2 0 l 0 2 l -2 0 z M 371 329.6 m -1 -1 l 2 0 l 0 2 l -2 0 z M 382.8 329.40000000000003 m -1 -1 l 2 0 l 0 2 l -2 0 z M 394.40000000000003 329.20000000000005 m -1 -1 l 2 0 l 0 2 l -2 0 z M 406 329 m -1 -1 l 2 0 l 0 2 l -2 0 z M 417.6 328.8 m -1 -1 l 2 0 l 0 2 l -2 0 z M 429.20000000000005 328.6 m -1 -1 l 2 0 l 0 2 l -2 0 z M 440.8 328.40000000000003 m -1 -1 l 2 0 l 0 2 l -2 0 z M 452.40000000000003 328.20000000000005 m -1 -1 l 2 0 l 0 2 l -2 0 z M 464.20000000000005 328.20000000000005 m -1 -1 l 2 0 l 0 2 l -2 0 z M 475.8 328 m -1 -1 l 2 0 l 0 2 l -2 0 z M 487.40000000000003 327.8 m -1 -1 l 2 0 l 0 2 l -2 0 z M 499 327.6 m -1 -1 l 2 0 l 0 2 l -2 0 z M 510.6 327.40000000000003 m -1 -1 l 2 0 l 0 2 l -2 0 z M 522.2 327.40000000000003 m -1 -1 l 2 0 l 0 2 l -2 0 z M 533.8000000000001 327.20000000000005 m -1 -1 l 2 0 l 0 2 l -2 0 z M 545.4 327 m -1 -1 l 2 0 l 0 2 l -2 0 z M 557.2 326.8 m -1 -1 l 2 0 l 0 2 l -2 0 z M 568.8000000000001 326.6 m -1 -1 l 2 0 l 0 2 l -2 0 z M 580.4 326.40000000000003 m -1 -1 l 2 0 l 0 2 l -2 0 z M 592 326.20000000000005 m -1 -1 l 2 0 l 0 2 l -2 0 z M 603.6 326 m -1 -1 l 2 0 l 0 2 l -2 0 z M 615.2 325.8 m -1 -1 l 2 0 l 0 2 l -2 0 z M 626.8000000000001 325.6 m -1 -1 l 2 0 l 0 2 l -2 0 z M 638.6 325.40000000000003 m -1 -1 l 2 0 l 0 2 l -2 0 z M 650.2 325.40000000000003 m -1 -1 l 2 0 l 0 2 l -2 0 z M 661.8000000000001 325.20000000000005 m -1 -1 l 2 0 l 0 2 l -2 0 z M 673.4000000000001 325 m -1 -1 l 2 0 l 0 2 l -2 0 z M 685 324.8 m -1 -1 l 2 0 l 0 2 l -2 0 z M 696.6 324.8 m -1 -1 l 2 0 l 0 2 l -2 0 z M 708.2 324.6 m -1 -1 l 2 0 l 0 2 l -2 0 z M 719.8000000000001 324.40000000000003 m -1 -1 l 2 0 l 0 2 l -2 0 z "/></g></g><g><g><path stroke="rgba(2,1,255,1)" stroke-width="0.0001" fill="none" d="M 45.6 98.2 L 57.2 58 L 68.8 41 L 80.4 33 L 92 30.200000000000003 L 103.60000000000001 28.6 L 115.2 27.8 L 127 27.200000000000003 L 138.6 26.6 L 150.20000000000002 25.8 L 161.8 25.400000000000002 L 173.4 25.200000000000003 L 185 24.400000000000002 L 196.60000000000002 24.200000000000003 L 208.4 24 L 220 23.400000000000002 L 231.60000000000002 23 L 243.20000000000002 22.6 L 254.8 21.8 L 266.40000000000003 21 L 278 20 L 289.6 19.6 L 301.40000000000003 18.8 L 313 18 L 324.6 17.6 L 336.20000000000005 17 L 347.8 16.6 L 359.40000000000003 16 L 371 15.4 L 382.8 15 L 394.40000000000003 14.4 L 406 14 L 417.6 13.4 L 429.20000000000005 12.8 L 440.8 12.200000000000001 L 452.40000000000003 11.8 L 464.20000000000005 11.200000000000001 L 475.8 10.8 L 487.40000000000003 10.200000000000001 L 499 9.8 L 510.6 9.200000000000001 L 522.2 8.8 L 533.8000000000001 8.200000000000001 L 545.4 7.800000000000001 L 557.2 7.2 L 568.8000000000001 6.800000000000001 L 580.4 6.2 L 592 5.6000000000000005 L 603.6 5.2 L 615.2 4.6000000000000005 L 626.8000000000001 4.2 L 638.6 3.4000000000000004 L 650.2 3 L 661.8000000000001 2.6 L 673.4000000000001 2.2 L 685 1.6 L 696.6 1 L 708.2 0.4 L 719.8000000000001 0 "/></g><circle fill="black" r="3" display="none"/><g/><rect fill="white"/><text/><g><path fill="rgba(2,1,255,1)" stroke="rgba(2,1,255,1)" stroke-width="1" d="M 45.6 98.2 m -1 -1 l 2 0 l 0 2 l -2 0 z M 57.2 58 m -1 -1 l 2 0 l 0 2 l -2 0 z M 68.8 41 m -1 -1 l 2 0 l 0 2 l -2 0 z M 80.4 33 m -1 -1 l 2 0 l 0 2 l -2 0 z M 92 30.200000000000003 m -1 -1 l 2 0 l 0 2 l -2 0 z M 103.60000000000001 28.6 m -1 -1 l 2 0 l 0 2 l -2 0 z M 115.2 27.8 m -1 -1 l 2 0 l 0 2 l -2 0 z M 127 27.200000000000003 m -1 -1 l 2 0 l 0 2 l -2 0 z M 138.6 26.6 m -1 -1 l 2 0 l 0 2 l -2 0 z M 150.20000000000002 25.8 m -1 -1 l 2 0 l 0 2 l -2 0 z M 161.8 25.400000000000002 m -1 -1 l 2 0 l 0 2 l -2 0 z M 173.4 25.200000000000003 m -1 -1 l 2 0 l 0 2 l -2 0 z M 185 24.400000000000002 m -1 -1 l 2 0 l 0 2 l -2 0 z M 196.60000000000002 24.200000000000003 m -1 -1 l 2 0 l 0 2 l -2 0 z M 208.4 24 m -1 -1 l 2 0 l 0 2 l -2 0 z M 220 23.400000000000002 m -1 -1 l 2 0 l 0 2 l -2 0 z M 231.60000000000002 23 m -1 -1 l 2 0 l 0 2 l -2 0 z M 243.20000000000002 22.6 m -1 -1 l 2 0 l 0 2 l -2 0 z M 254.8 21.8 m -1 -1 l 2 0 l 0 2 l -2 0 z M 266.40000000000003 21 m -1 -1 l 2 0 l 0 2 l -2 0 z M 278 20 m -1 -1 l 2 0 l 0 2 l -2 0 z M 289.6 19.6 m -1 -1 l 2 0 l 0 2 l -2 0 z M 301.40000000000003 18.8 m -1 -1 l 2 0 l 0 2 l -2 0 z M 313 18 m -1 -1 l 2 0 l 0 2 l -2 0 z M 324.6 17.6 m -1 -1 l 2 0 l 0 2 l -2 0 z M 336.20000000000005 17 m -1 -1 l 2 0 l 0 2 l -2 0 z M 347.8 16.6 m -1 -1 l 2 0 l 0 2 l -2 0 z M 359.40000000000003 16 m -1 -1 l 2 0 l 0 2 l -2 0 z M 371 15.4 m -1 -1 l 2 0 l 0 2 l -2 0 z M 382.8 15 m -1 -1 l 2 0 l 0 2 l -2 0 z M 394.40000000000003 14.4 m -1 -1 l 2 0 l 0 2 l -2 0 z M 406 14 m -1 -1 l 2 0 l 0 2 l -2 0 z M 417.6 13.4 m -1 -1 l 2 0 l 0 2 l -2 0 z M 429.20000000000005 12.8 m -1 -1 l 2 0 l 0 2 l -2 0 z M 440.8 12.200000000000001 m -1 -1 l 2 0 l 0 2 l -2 0 z M 452.40000000000003 11.8 m -1 -1 l 2 0 l 0 2 l -2 0 z M 464.20000000000005 11.200000000000001 m -1 -1 l 2 0 l 0 2 l -2 0 z M 475.8 10.8 m -1 -1 l 2 0 l 0 2 l -2 0 z M 487.40000000000003 10.200000000000001 m -1 -1 l 2 0 l 0 2 l -2 0 z M 499 9.8 m -1 -1 l 2 0 l 0 2 l -2 0 z M 510.6 9.200000000000001 m -1 -1 l 2 0 l 0 2 l -2 0 z M 522.2 8.8 m -1 -1 l 2 0 l 0 2 l -2 0 z M 533.8000000000001 8.200000000000001 m -1 -1 l 2 0 l 0 2 l -2 0 z M 545.4 7.800000000000001 m -1 -1 l 2 0 l 0 2 l -2 0 z M 557.2 7.2 m -1 -1 l 2 0 l 0 2 l -2 0 z M 568.8000000000001 6.800000000000001 m -1 -1 l 2 0 l 0 2 l -2 0 z M 580.4 6.2 m -1 -1 l 2 0 l 0 2 l -2 0 z M 592 5.6000000000000005 m -1 -1 l 2 0 l 0 2 l -2 0 z M 603.6 5.2 m -1 -1 l 2 0 l 0 2 l -2 0 z M 615.2 4.6000000000000005 m -1 -1 l 2 0 l 0 2 l -2 0 z M 626.8000000000001 4.2 m -1 -1 l 2 0 l 0 2 l -2 0 z M 638.6 3.4000000000000004 m -1 -1 l 2 0 l 0 2 l -2 0 z M 650.2 3 m -1 -1 l 2 0 l 0 2 l -2 0 z M 661.8000000000001 2.6 m -1 -1 l 2 0 l 0 2 l -2 0 z M 673.4000000000001 2.2 m -1 -1 l 2 0 l 0 2 l -2 0 z M 685 1.6 m -1 -1 l 2 0 l 0 2 l -2 0 z M 696.6 1 m -1 -1 l 2 0 l 0 2 l -2 0 z M 708.2 0.4 m -1 -1 l 2 0 l 0 2 l -2 0 z M 719.8000000000001 0 m -1 -1 l 2 0 l 0 2 l -2 0 z "/></g></g></g><g><g clip-path="url(#_clipplot62709932-d1ad-4f57-af9e-636b40a3124f)"><rect data-label-i="0" display="initial"/><text data-label-i="0" display="initial"/></g><g clip-path="url(#_clipplot62709932-d1ad-4f57-af9e-636b40a3124f)"><rect data-label-i="0" display="initial"/><text data-label-i="0" display="initial"/></g><g clip-path="url(#_clipplot62709932-d1ad-4f57-af9e-636b40a3124f)"><rect data-label-i="0" display="initial"/><text data-label-i="0" display="initial"/></g><g clip-path="url(#_clipplot62709932-d1ad-4f57-af9e-636b40a3124f)"><rect data-label-i="0" display="initial"/><text data-label-i="0" display="initial"/></g></g></g></g><line stroke="black" shape-rendering="crispEdges" stroke-linecap="square" display="none"/><line stroke="black" shape-rendering="crispEdges" stroke-linecap="square" display="none"/><line stroke="black" shape-rendering="crispEdges" stroke-linecap="square" display="none"/><line stroke="black" shape-rendering="crispEdges" stroke-linecap="square" display="none"/></g><g><rect display="none" fill="rgba(171,12,12,0.2)" stroke="rgba(171,12,12,1)" shape-rendering="crispEdges" x="0" y="0" height="0" width="0" pointer-events="none"/></g></g><g display="block" transform="translate(387, 514)"><rect x="-10" y="-10" stroke="rgba( 100, 100, 100, 0.5 )" stroke-width="1px" rx="0" ry="0" fill="rgba( 255, 255, 255, 0.8 )" width="20" height="20" style="cursor: move;"/><symbol id="d7230e6e-f9f1-420b-88a8-c3ca2480e5b9" viewBox="0 -256 1850 1850"><rect pointer-events="fill" x="-256" y="0" fill="transparent" width="2106" height="1850"/><g transform="matrix(1,0,0,-1,30.372881,1259.8983)"><path d="m 1664,576 q -152,236 -381,353 61,-104 61,-225 0,-185 -131.5,-316.5 Q 1081,256 896,256 711,256 579.5,387.5 448,519 448,704 448,825 509,929 280,812 128,576 261,371 461.5,249.5 662,128 896,128 1130,128 1330.5,249.5 1531,371 1664,576 z M 944,960 q 0,20 -14,34 -14,14 -34,14 -125,0 -214.5,-89.5 Q 592,829 592,704 q 0,-20 14,-34 14,-14 34,-14 20,0 34,14 14,14 14,34 0,86 61,147 61,61 147,61 20,0 34,14 14,14 14,34 z m 848,-384 q 0,-34 -20,-69 Q 1632,277 1395.5,138.5 1159,0 896,0 633,0 396.5,139 160,278 20,507 0,542 0,576 q 0,34 20,69 140,229 376.5,368 236.5,139 499.5,139 263,0 499.5,-139 236.5,-139 376.5,-368 20,-35 20,-69 z" fill="#444444"/></g></symbol><symbol id="207ae92d-9f47-418f-be26-98c8f9c65446" viewBox="0 -256 1850 1850"><rect pointer-events="fill" fill="transparent" x="-256" y="0" width="2106" height="1850"/><g transform="matrix(1,0,0,-1,30.372881,1214.339)"><path d="m 555,201 78,141 q -87,63 -136,159 -49,96 -49,203 0,121 61,225 Q 280,812 128,576 295,318 555,201 z m 389,759 q 0,20 -14,34 -14,14 -34,14 -125,0 -214.5,-89.5 Q 592,829 592,704 q 0,-20 14,-34 14,-14 34,-14 20,0 34,14 14,14 14,34 0,86 61,147 61,61 147,61 20,0 34,14 14,14 14,34 z m 363,191 q 0,-7 -1,-9 Q 1201,954 991,576 781,198 675,9 l -49,-89 q -10,-16 -28,-16 -12,0 -134,70 -16,10 -16,28 0,12 44,87 Q 349,154 228.5,262 108,370 20,507 0,538 0,576 q 0,38 20,69 153,235 380,371 227,136 496,136 89,0 180,-17 l 54,97 q 10,16 28,16 5,0 18,-6 13,-6 31,-15.5 18,-9.5 33,-18.5 15,-9 31.5,-18.5 16.5,-9.5 19.5,-11.5 16,-10 16,-27 z m 37,-447 Q 1344,565 1265,450.5 1186,336 1056,286 l 280,502 q 8,-45 8,-84 z m 448,-128 q 0,-35 -20,-69 Q 1733,443 1663,362 1513,190 1315.5,95 1118,0 896,0 l 74,132 q 212,18 392.5,137 180.5,119 301.5,307 -115,179 -282,294 l 63,112 q 95,-64 182.5,-153 87.5,-89 144.5,-184 20,-34 20,-69 z" fill="#c0c0c0"/></g></symbol><g><g transform="translate( 0, 10)"><rect x="0" y="0" width="0" height="0" fill="none" pointer-events="fill"/><line stroke="rgba(255,1,9,1)" stroke-width="0.0001" fill="none" x1="5" x2="25" y1="0" y2="0" cursor="pointer"/><path fill="rgba(255,1,9,1)" stroke="rgba(255,1,9,1)" stroke-width="1" d="M 14 0 m -1 -1 l 2 0 l 0 2 l -2 0 z"/><use xlink:href="#d7230e6e-f9f1-420b-88a8-c3ca2480e5b9" width="15" height="15" x="35" y="-8"/><text cursor="pointer" transform="translate(55, 3)" fill="black">red</text></g><g transform="translate( 10, 10)"><rect x="0" y="0" width="0" height="0" fill="none" pointer-events="fill"/><line stroke="rgba(5,150,0,1)" stroke-width="0.0001" fill="none" x1="5" x2="25" y1="0" y2="0" cursor="pointer"/><path fill="rgba(5,150,0,1)" stroke="rgba(5,150,0,1)" stroke-width="1" d="M 14 0 m -1 -1 l 2 0 l 0 2 l -2 0 z"/><use xlink:href="#d7230e6e-f9f1-420b-88a8-c3ca2480e5b9" width="15" height="15" x="35" y="-8"/><text cursor="pointer" transform="translate(55, 3)" fill="black">green</text></g><g transform="translate( 20, 10)"><rect x="0" y="0" width="0" height="0" fill="none" pointer-events="fill"/><line stroke="rgba(2,1,255,1)" stroke-width="0.0001" fill="none" x1="5" x2="25" y1="0" y2="0" cursor="pointer"/><path fill="rgba(2,1,255,1)" stroke="rgba(2,1,255,1)" stroke-width="1" d="M 14 0 m -1 -1 l 2 0 l 0 2 l -2 0 z"/><use xlink:href="#d7230e6e-f9f1-420b-88a8-c3ca2480e5b9" width="15" height="15" x="35" y="-8"/><text cursor="pointer" transform="translate(55, 3)" fill="black">blue</text></g></g><rect x="0" y="0" width="20" height="20" fill="none" pointer-events="fill" display="none"/></g></svg>