  0
SECTION
  2
HEADER
  9
$ACADVER
  1
AC1009
  9
$INSBASE
 10
0.0
 20
0.0
 30
0.0
  9
$EXTMIN
 10
0.0
 20
0.0
 30
0.0
  9
$EXTMAX
 10
0.0
 20
0.0
 30
0.0
  0
ENDSEC
  0
SECTION
  2
TABLES
  0
TABLE
  2
VPORT
 70
0
  0
ENDTAB
  0
TABLE
  2
LTYPE
 70
1
  0
LTYPE
  2
CONTINUOUS
 70
0
  3
Solid line
 72
65
 73
0
 40
0.0
  0
ENDTAB
  0
TABLE
  2
LAYER
 70
1
  0
LAYER
  2
0
 70
64
 62
7
  6
continuous
  0
ENDTAB
  0
TABLE
  2
STYLE
 70
1
  0
STYLE
  2
STANDARD
 70
0
 40
0
 41
1.0
 50
0.0
 71
0
 42
1
 3
ARIAL.TTF
 4

  0
ENDTAB
  0
TABLE
  2
VIEW
 70
0
  0
ENDTAB
  0
ENDSEC
  0
SECTION
  2
BLOCKS
  0
BLOCK
  8
0
  2
SKETCH
 70
0
 10
0.0
 20
0.0
 30
0.0
  3
SKETCH
  0
POLYLINE
  8
0
 62
7
 70
1
 66
1
 10
0.0
 20
0.0
 30
0.0
  0
VERTEX
  8
0
 10
3.0
 20
80.2
 30
0.0
  0
VERTEX
  8
0
 10
37.2333333333
 20
80.2
 30
0.0
  0
VERTEX
  8
0
 10
37.2333333333
 20
83.2
 30
0.0
  0
VERTEX
  8
0
 10
71.4666666667
 20
83.2
 30
0.0
  0
VERTEX
  8
0
 10
71.4666666667
 20
80.2
 30
0.0
  0
VERTEX
  8
0
 10
105.7
 20
80.2
 30
0.0
  0
VERTEX
  8
0
 10
105.7
 20
54.4666666667
 30
0.0
  0
VERTEX
  8
0
 10
108.7
 20
54.4666666667
 30
0.0
  0
VERTEX
  8
0
 10
108.7
 20
28.7333333333
 30
0.0
  0
VERTEX
  8
0
 10
105.7
 20
28.7333333333
 30
0.0
  0
VERTEX
  8
0
 10
105.7
 20
3.0
 30
0.0
  0
VERTEX
  8
0
 10
71.4666666667
 20
3.0
 30
0.0
  0
VERTEX
  8
0
 10
71.4666666667
 20
0.0
 30
0.0
  0
VERTEX
  8
0
 10
37.2333333333
 20
0.0
 30
0.0
  0
VERTEX
  8
0
 10
37.2333333333
 20
3.0
 30
0.0
  0
VERTEX
  8
0
 10
3.0
 20
3.0
 30
0.0
  0
VERTEX
  8
0
 10
3.0
 20
28.7333333333
 30
0.0
  0
VERTEX
  8
0
 10
0.0
 20
28.7333333333
 30
0.0
  0
VERTEX
  8
0
 10
0.0
 20
54.4666666667
 30
0.0
  0
VERTEX
  8
0
 10
3.0
 20
54.4666666667
 30
0.0
  0
SEQEND
  8
0
  0
CIRCLE
  8
0
 62
7
 10
8.5
 20
74.7
 30
0.0
 40
1.5
  0
CIRCLE
  8
0
 62
7
 10
100.2
 20
74.7
 30
0.0
 40
1.5
  0
CIRCLE
  8
0
 62
7
 10
8.5
 20
8.5
 30
0.0
 40
1.5
  0
CIRCLE
  8
0
 62
7
 10
100.2
 20
8.5
 30
0.0
 40
1.5
  0
ENDBLK
  0
BLOCK
  8
0
  2
SKETCH003
 70
0
 10
0.0
 20
0.0
 30
0.0
  3
SKETCH003
  0
POLYLINE
  8
0
 62
7
 70
1
 66
1
 10
0.0
 20
0.0
 30
0.0
  0
VERTEX
  8
0
 10
116.7
 20
80.2
 30
0.0
  0
VERTEX
  8
0
 10
150.933333333
 20
80.2
 30
0.0
  0
VERTEX
  8
0
 10
150.933333333
 20
83.2
 30
0.0
  0
VERTEX
  8
0
 10
185.166666667
 20
83.2
 30
0.0
  0
VERTEX
  8
0
 10
185.166666667
 20
80.2
 30
0.0
  0
VERTEX
  8
0
 10
219.4
 20
80.2
 30
0.0
  0
VERTEX
  8
0
 10
219.4
 20
54.4666666667
 30
0.0
  0
VERTEX
  8
0
 10
222.4
 20
54.4666666667
 30
0.0
  0
VERTEX
  8
0
 10
222.4
 20
28.7333333333
 30
0.0
  0
VERTEX
  8
0
 10
219.4
 20
28.7333333333
 30
0.0
  0
VERTEX
  8
0
 10
219.4
 20
3.0
 30
0.0
  0
VERTEX
  8
0
 10
185.166666667
 20
3.0
 30
0.0
  0
VERTEX
  8
0
 10
185.166666667
 20
0.0
 30
0.0
  0
VERTEX
  8
0
 10
150.933333333
 20
0.0
 30
0.0
  0
VERTEX
  8
0
 10
150.933333333
 20
3.0
 30
0.0
  0
VERTEX
  8
0
 10
116.7
 20
3.0
 30
0.0
  0
VERTEX
  8
0
 10
116.7
 20
28.7333333333
 30
0.0
  0
VERTEX
  8
0
 10
113.7
 20
28.7333333333
 30
0.0
  0
VERTEX
  8
0
 10
113.7
 20
54.4666666667
 30
0.0
  0
VERTEX
  8
0
 10
116.7
 20
54.4666666667
 30
0.0
  0
SEQEND
  8
0
  0
POLYLINE
  8
0
 62
7
 70
1
 66
1
 10
0.0
 20
0.0
 30
0.0
  0
VERTEX
  8
0
 10
132.4
 20
69.1
 30
0.0
  0
VERTEX
  8
0
 10
204.0
 20
69.1
 30
0.0
  0
VERTEX
  8
0
 10
204.0
 20
44.0
 30
0.0
  0
VERTEX
  8
0
 10
132.4
 20
44.0
 30
0.0
  0
SEQEND
  8
0
  0
CIRCLE
  8
0
 62
7
 10
204.2
 20
16.3
 30
0.0
 40
4.0
  0
CIRCLE
  8
0
 62
7
 10
122.2
 20
74.7
 30
0.0
 40
1.5
  0
CIRCLE
  8
0
 62
7
 10
213.9
 20
74.7
 30
0.0
 40
1.5
  0
CIRCLE
  8
0
 62
7
 10
122.2
 20
8.5
 30
0.0
 40
1.5
  0
CIRCLE
  8
0
 62
7
 10
213.9
 20
8.5
 30
0.0
 40
1.5
  0
POLYLINE
  8
0
 62
7
 70
1
 66
1
 10
0.0
 20
0.0
 30
0.0
  0
VERTEX
  8
0
 10
155.8
 20
23.3
 30
0.0
  0
VERTEX
  8
0
 10
168.7
 20
23.3
 30
0.0
  0
VERTEX
  8
0
 10
168.7
 20
10.4
 30
0.0
  0
VERTEX
  8
0
 10
155.8
 20
10.4
 30
0.0
  0
SEQEND
  8
0
  0
ENDBLK
  0
BLOCK
  8
0
  2
SKETCH006
 70
0
 10
0.0
 20
0.0
 30
0.0
  3
SKETCH006
  0
POLYLINE
  8
0
 62
7
 70
1
 66
1
 10
0.0
 20
0.0
 30
0.0
  0
VERTEX
  8
0
 10
88.2
 20
157.2
 30
0.0
  0
VERTEX
  8
0
 10
116.933333333
 20
157.2
 30
0.0
  0
VERTEX
  8
0
 10
116.933333333
 20
154.2
 30
0.0
  0
VERTEX
  8
0
 10
142.666666667
 20
154.2
 30
0.0
  0
VERTEX
  8
0
 10
142.666666667
 20
157.2
 30
0.0
  0
VERTEX
  8
0
 10
171.4
 20
157.2
 30
0.0
  0
VERTEX
  8
0
 10
171.4
 20
146.533333333
 30
0.0
  0
VERTEX
  8
0
 10
168.4
 20
146.533333333
 30
0.0
  0
VERTEX
  8
0
 10
168.4
 20
135.866666667
 30
0.0
  0
VERTEX
  8
0
 10
171.4
 20
135.866666667
 30
0.0
  0
VERTEX
  8
0
 10
171.4
 20
125.2
 30
0.0
  0
VERTEX
  8
0
 10
142.666666667
 20
125.2
 30
0.0
  0
VERTEX
  8
0
 10
142.666666667
 20
128.2
 30
0.0
  0
VERTEX
  8
0
 10
116.933333333
 20
128.2
 30
0.0
  0
VERTEX
  8
0
 10
116.933333333
 20
125.2
 30
0.0
  0
VERTEX
  8
0
 10
88.2
 20
125.2
 30
0.0
  0
VERTEX
  8
0
 10
88.2
 20
135.866666667
 30
0.0
  0
VERTEX
  8
0
 10
91.2
 20
135.866666667
 30
0.0
  0
VERTEX
  8
0
 10
91.2
 20
146.533333333
 30
0.0
  0
VERTEX
  8
0
 10
88.2
 20
146.533333333
 30
0.0
  0
SEQEND
  8
0
  0
POLYLINE
  8
0
 62
7
 70
1
 66
1
 10
0.0
 20
0.0
 30
0.0
  0
VERTEX
  8
0
 10
117.7
 20
148.2
 30
0.0
  0
VERTEX
  8
0
 10
128.7
 20
148.2
 30
0.0
  0
VERTEX
  8
0
 10
128.7
 20
139.2
 30
0.0
  0
VERTEX
  8
0
 10
117.7
 20
139.2
 30
0.0
  0
SEQEND
  8
0
  0
ENDBLK
  0
ENDSEC
  0
SECTION
  2
ENTITIES
  0
INSERT
  2
SKETCH
  8
0
 62
7
 10
0.0
 20
0.0
 30
0.0
  0
POLYLINE
  8
0
 62
7
 70
1
 66
1
 10
0.0
 20
0.0
 30
0.0
  0
VERTEX
  8
0
 10
3.0
 20
120.2
 30
0.0
  0
VERTEX
  8
0
 10
37.2333333333
 20
120.2
 30
0.0
  0
VERTEX
  8
0
 10
37.2333333333
 20
117.2
 30
0.0
  0
VERTEX
  8
0
 10
71.4666666667
 20
117.2
 30
0.0
  0
VERTEX
  8
0
 10
71.4666666667
 20
120.2
 30
0.0
  0
VERTEX
  8
0
 10
105.7
 20
120.2
 30
0.0
  0
VERTEX
  8
0
 10
105.7
 20
109.533333333
 30
0.0
  0
VERTEX
  8
0
 10
108.7
 20
109.533333333
 30
0.0
  0
VERTEX
  8
0
 10
108.7
 20
98.8666666667
 30
0.0
  0
VERTEX
  8
0
 10
105.7
 20
98.8666666667
 30
0.0
  0
VERTEX
  8
0
 10
105.7
 20
88.2
 30
0.0
  0
VERTEX
  8
0
 10
71.4666666667
 20
88.2
 30
0.0
  0
VERTEX
  8
0
 10
71.4666666667
 20
91.2
 30
0.0
  0
VERTEX
  8
0
 10
37.2333333333
 20
91.2
 30
0.0
  0
VERTEX
  8
0
 10
37.2333333333
 20
88.2
 30
0.0
  0
VERTEX
  8
0
 10
3.0
 20
88.2
 30
0.0
  0
VERTEX
  8
0
 10
3.0
 20
98.8666666667
 30
0.0
  0
VERTEX
  8
0
 10
0.0
 20
98.8666666667
 30
0.0
  0
VERTEX
  8
0
 10
0.0
 20
109.533333333
 30
0.0
  0
VERTEX
  8
0
 10
3.0
 20
109.533333333
 30
0.0
  0
SEQEND
  8
0
  0
POLYLINE
  8
0
 62
7
 70
1
 66
1
 10
0.0
 20
0.0
 30
0.0
  0
VERTEX
  8
0
 10
0.0
 20
157.2
 30
0.0
  0
VERTEX
  8
0
 10
28.7333333333
 20
157.2
 30
0.0
  0
VERTEX
  8
0
 10
28.7333333333
 20
154.2
 30
0.0
  0
VERTEX
  8
0
 10
54.4666666667
 20
154.2
 30
0.0
  0
VERTEX
  8
0
 10
54.4666666667
 20
157.2
 30
0.0
  0
VERTEX
  8
0
 10
83.2
 20
157.2
 30
0.0
  0
VERTEX
  8
0
 10
83.2
 20
146.533333333
 30
0.0
  0
VERTEX
  8
0
 10
80.2
 20
146.533333333
 30
0.0
  0
VERTEX
  8
0
 10
80.2
 20
135.866666667
 30
0.0
  0
VERTEX
  8
0
 10
83.2
 20
135.866666667
 30
0.0
  0
VERTEX
  8
0
 10
83.2
 20
125.2
 30
0.0
  0
VERTEX
  8
0
 10
54.4666666667
 20
125.2
 30
0.0
  0
VERTEX
  8
0
 10
54.4666666667
 20
128.2
 30
0.0
  0
VERTEX
  8
0
 10
28.7333333333
 20
128.2
 30
0.0
  0
VERTEX
  8
0
 10
28.7333333333
 20
125.2
 30
0.0
  0
VERTEX
  8
0
 10
0.0
 20
125.2
 30
0.0
  0
VERTEX
  8
0
 10
0.0
 20
135.866666667
 30
0.0
  0
VERTEX
  8
0
 10
3.0
 20
135.866666667
 30
0.0
  0
VERTEX
  8
0
 10
3.0
 20
146.533333333
 30
0.0
  0
VERTEX
  8
0
 10
0.0
 20
146.533333333
 30
0.0
  0
SEQEND
  8
0
  0
INSERT
  2
SKETCH003
  8
0
 62
7
 10
0.0
 20
0.0
 30
0.0
  0
POLYLINE
  8
0
 62
7
 70
1
 66
1
 10
0.0
 20
0.0
 30
0.0
  0
VERTEX
  8
0
 10
116.7
 20
120.2
 30
0.0
  0
VERTEX
  8
0
 10
150.933333333
 20
120.2
 30
0.0
  0
VERTEX
  8
0
 10
150.933333333
 20
117.2
 30
0.0
  0
VERTEX
  8
0
 10
185.166666667
 20
117.2
 30
0.0
  0
VERTEX
  8
0
 10
185.166666667
 20
120.2
 30
0.0
  0
VERTEX
  8
0
 10
219.4
 20
120.2
 30
0.0
  0
VERTEX
  8
0
 10
219.4
 20
109.533333333
 30
0.0
  0
VERTEX
  8
0
 10
222.4
 20
109.533333333
 30
0.0
  0
VERTEX
  8
0
 10
222.4
 20
98.8666666667
 30
0.0
  0
VERTEX
  8
0
 10
219.4
 20
98.8666666667
 30
0.0
  0
VERTEX
  8
0
 10
219.4
 20
88.2
 30
0.0
  0
VERTEX
  8
0
 10
185.166666667
 20
88.2
 30
0.0
  0
VERTEX
  8
0
 10
185.166666667
 20
91.2
 30
0.0
  0
VERTEX
  8
0
 10
150.933333333
 20
91.2
 30
0.0
  0
VERTEX
  8
0
 10
150.933333333
 20
88.2
 30
0.0
  0
VERTEX
  8
0
 10
116.7
 20
88.2
 30
0.0
  0
VERTEX
  8
0
 10
116.7
 20
98.8666666667
 30
0.0
  0
VERTEX
  8
0
 10
113.7
 20
98.8666666667
 30
0.0
  0
VERTEX
  8
0
 10
113.7
 20
109.533333333
 30
0.0
  0
VERTEX
  8
0
 10
116.7
 20
109.533333333
 30
0.0
  0
SEQEND
  8
0
  0
INSERT
  2
SKETCH006
  8
0
 62
7
 10
0.0
 20
0.0
 30
0.0
  0
ENDSEC
  0
EOF
