  0
SECTION
  2
BLOCKS
  0
ENDSEC
  0
SECTION
  2
ENTITIES
  0
LINE
  8
0
 10
113.22
 20
177.44
 11
0
 21
177.44
  0
LINE
  8
0
 10
0
 20
177.44
 11
0
 21
89.72
  0
LINE
  8
0
 10
0
 20
89.72
 11
113.22
 21
89.72
  0
LINE
  8
0
 10
113.22
 20
89.72
 11
113.22
 21
177.44
  0
LINE
  8
0
 10
47.43
 20
171.38
 11
47.43
 21
174.44
  0
LINE
  8
0
 10
47.43
 20
174.44
 11
53.55
 21
174.44
  0
LINE
  8
0
 10
53.55
 20
174.44
 11
53.55
 21
171.38
  0
LINE
  8
0
 10
53.55
 20
171.38
 11
47.43
 21
171.38
  0
LINE
  8
0
 10
3
 20
161.12
 11
3
 21
174.44
  0
LINE
  8
0
 10
3
 20
174.44
 11
16.83
 21
174.44
  0
LINE
  8
0
 10
16.83
 20
174.44
 11
16.83
 21
171.38
  0
LINE
  8
0
 10
16.83
 20
171.38
 11
6.06
 21
171.38
  0
LINE
  8
0
 10
6.06
 20
171.38
 11
6.06
 21
161.12
  0
LINE
  8
0
 10
6.06
 20
161.12
 11
3
 21
161.12
  0
LINE
  8
0
 10
22.95
 20
171.38
 11
22.95
 21
174.44
  0
LINE
  8
0
 10
22.95
 20
174.44
 11
29.07
 21
174.44
  0
LINE
  8
0
 10
29.07
 20
174.44
 11
29.07
 21
171.38
  0
LINE
  8
0
 10
29.07
 20
171.38
 11
22.95
 21
171.38
  0
LINE
  8
0
 10
35.19
 20
171.38
 11
35.19
 21
174.44
  0
LINE
  8
0
 10
35.19
 20
174.44
 11
41.31
 21
174.44
  0
LINE
  8
0
 10
41.31
 20
174.44
 11
41.31
 21
171.38
  0
LINE
  8
0
 10
41.31
 20
171.38
 11
35.19
 21
171.38
  0
LINE
  8
0
 10
59.67
 20
171.38
 11
59.67
 21
174.44
  0
LINE
  8
0
 10
59.67
 20
174.44
 11
65.79
 21
174.44
  0
LINE
  8
0
 10
65.79
 20
174.44
 11
65.79
 21
171.38
  0
LINE
  8
0
 10
65.79
 20
171.38
 11
59.67
 21
171.38
  0
LINE
  8
0
 10
71.91
 20
171.38
 11
71.91
 21
174.44
  0
LINE
  8
0
 10
71.91
 20
174.44
 11
78.03
 21
174.44
  0
LINE
  8
0
 10
78.03
 20
174.44
 11
78.03
 21
171.38
  0
LINE
  8
0
 10
78.03
 20
171.38
 11
71.91
 21
171.38
  0
LINE
  8
0
 10
84.15
 20
171.38
 11
84.15
 21
174.44
  0
LINE
  8
0
 10
84.15
 20
174.44
 11
90.27
 21
174.44
  0
LINE
  8
0
 10
90.27
 20
174.44
 11
90.27
 21
171.38
  0
LINE
  8
0
 10
90.27
 20
171.38
 11
84.15
 21
171.38
  0
LINE
  8
0
 10
107.16
 20
161.12
 11
107.16
 21
171.38
  0
LINE
  8
0
 10
107.16
 20
171.38
 11
96.39
 21
171.38
  0
LINE
  8
0
 10
96.39
 20
171.38
 11
96.39
 21
174.44
  0
LINE
  8
0
 10
96.39
 20
174.44
 11
110.22
 21
174.44
  0
LINE
  8
0
 10
110.22
 20
174.44
 11
110.22
 21
161.12
  0
LINE
  8
0
 10
110.22
 20
161.12
 11
107.16
 21
161.12
  0
LINE
  8
0
 10
102.06
 20
165.05
 11
101.816
 21
165.108
  0
LINE
  8
0
 10
101.816
 20
165.108
 11
101.584
 21
165.204
  0
LINE
  8
0
 10
101.584
 20
165.204
 11
101.37
 21
165.336
  0
LINE
  8
0
 10
101.37
 20
165.336
 11
101.179
 21
165.499
  0
LINE
  8
0
 10
101.179
 20
165.499
 11
101.016
 21
165.69
  0
LINE
  8
0
 10
101.016
 20
165.69
 11
100.884
 21
165.904
  0
LINE
  8
0
 10
100.884
 20
165.904
 11
100.788
 21
166.136
  0
LINE
  8
0
 10
100.788
 20
166.136
 11
100.73
 21
166.38
  0
LINE
  8
0
 10
100.73
 20
166.38
 11
100.71
 21
166.63
  0
LINE
  8
0
 10
100.71
 20
166.63
 11
100.73
 21
166.88
  0
LINE
  8
0
 10
100.73
 20
166.88
 11
100.788
 21
167.124
  0
LINE
  8
0
 10
100.788
 20
167.124
 11
100.884
 21
167.356
  0
LINE
  8
0
 10
100.884
 20
167.356
 11
101.016
 21
167.57
  0
LINE
  8
0
 10
101.016
 20
167.57
 11
101.179
 21
167.761
  0
LINE
  8
0
 10
101.179
 20
167.761
 11
101.37
 21
167.924
  0
LINE
  8
0
 10
101.37
 20
167.924
 11
101.584
 21
168.056
  0
LINE
  8
0
 10
101.584
 20
168.056
 11
101.816
 21
168.152
  0
LINE
  8
0
 10
101.816
 20
168.152
 11
102.06
 21
168.21
  0
LINE
  8
0
 10
102.06
 20
168.21
 11
102.31
 21
168.23
  0
LINE
  8
0
 10
102.31
 20
168.23
 11
102.56
 21
168.21
  0
LINE
  8
0
 10
102.56
 20
168.21
 11
102.804
 21
168.152
  0
LINE
  8
0
 10
102.804
 20
168.152
 11
103.036
 21
168.056
  0
LINE
  8
0
 10
103.036
 20
168.056
 11
103.25
 21
167.924
  0
LINE
  8
0
 10
103.25
 20
167.924
 11
103.441
 21
167.761
  0
LINE
  8
0
 10
103.441
 20
167.761
 11
103.604
 21
167.57
  0
LINE
  8
0
 10
103.604
 20
167.57
 11
103.736
 21
167.356
  0
LINE
  8
0
 10
103.736
 20
167.356
 11
103.832
 21
167.124
  0
LINE
  8
0
 10
103.832
 20
167.124
 11
103.89
 21
166.88
  0
LINE
  8
0
 10
103.89
 20
166.88
 11
103.91
 21
166.63
  0
LINE
  8
0
 10
103.91
 20
166.63
 11
103.89
 21
166.38
  0
LINE
  8
0
 10
103.89
 20
166.38
 11
103.832
 21
166.136
  0
LINE
  8
0
 10
103.832
 20
166.136
 11
103.736
 21
165.904
  0
LINE
  8
0
 10
103.736
 20
165.904
 11
103.604
 21
165.69
  0
LINE
  8
0
 10
103.604
 20
165.69
 11
103.441
 21
165.499
  0
LINE
  8
0
 10
103.441
 20
165.499
 11
103.25
 21
165.336
  0
LINE
  8
0
 10
103.25
 20
165.336
 11
103.036
 21
165.204
  0
LINE
  8
0
 10
103.036
 20
165.204
 11
102.804
 21
165.108
  0
LINE
  8
0
 10
102.804
 20
165.108
 11
102.56
 21
165.05
  0
LINE
  8
0
 10
102.56
 20
165.05
 11
102.31
 21
165.03
  0
LINE
  8
0
 10
102.31
 20
165.03
 11
102.06
 21
165.05
  0
LINE
  8
0
 10
10.6197
 20
165.05
 11
10.3756
 21
165.108
  0
LINE
  8
0
 10
10.3756
 20
165.108
 11
10.1436
 21
165.204
  0
LINE
  8
0
 10
10.1436
 20
165.204
 11
9.92953
 21
165.336
  0
LINE
  8
0
 10
9.92953
 20
165.336
 11
9.73862
 21
165.499
  0
LINE
  8
0
 10
9.73862
 20
165.499
 11
9.57556
 21
165.69
  0
LINE
  8
0
 10
9.57556
 20
165.69
 11
9.44438
 21
165.904
  0
LINE
  8
0
 10
9.44438
 20
165.904
 11
9.3483
 21
166.136
  0
LINE
  8
0
 10
9.3483
 20
166.136
 11
9.28969
 21
166.38
  0
LINE
  8
0
 10
9.28969
 20
166.38
 11
9.26999
 21
166.63
  0
LINE
  8
0
 10
9.26999
 20
166.63
 11
9.28969
 21
166.88
  0
LINE
  8
0
 10
9.28969
 20
166.88
 11
9.3483
 21
167.124
  0
LINE
  8
0
 10
9.3483
 20
167.124
 11
9.44438
 21
167.356
  0
LINE
  8
0
 10
9.44438
 20
167.356
 11
9.57556
 21
167.57
  0
LINE
  8
0
 10
9.57556
 20
167.57
 11
9.73862
 21
167.761
  0
LINE
  8
0
 10
9.73862
 20
167.761
 11
9.92953
 21
167.924
  0
LINE
  8
0
 10
9.92953
 20
167.924
 11
10.1436
 21
168.056
  0
LINE
  8
0
 10
10.1436
 20
168.056
 11
10.3756
 21
168.152
  0
LINE
  8
0
 10
10.3756
 20
168.152
 11
10.6197
 21
168.21
  0
LINE
  8
0
 10
10.6197
 20
168.21
 11
10.87
 21
168.23
  0
LINE
  8
0
 10
10.87
 20
168.23
 11
11.1203
 21
168.21
  0
LINE
  8
0
 10
11.1203
 20
168.21
 11
11.3644
 21
168.152
  0
LINE
  8
0
 10
11.3644
 20
168.152
 11
11.5964
 21
168.056
  0
LINE
  8
0
 10
11.5964
 20
168.056
 11
11.8105
 21
167.924
  0
LINE
  8
0
 10
11.8105
 20
167.924
 11
12.0014
 21
167.761
  0
LINE
  8
0
 10
12.0014
 20
167.761
 11
12.1644
 21
167.57
  0
LINE
  8
0
 10
12.1644
 20
167.57
 11
12.2956
 21
167.356
  0
LINE
  8
0
 10
12.2956
 20
167.356
 11
12.3917
 21
167.124
  0
LINE
  8
0
 10
12.3917
 20
167.124
 11
12.4503
 21
166.88
  0
LINE
  8
0
 10
12.4503
 20
166.88
 11
12.47
 21
166.63
  0
LINE
  8
0
 10
12.47
 20
166.63
 11
12.4503
 21
166.38
  0
LINE
  8
0
 10
12.4503
 20
166.38
 11
12.3917
 21
166.136
  0
LINE
  8
0
 10
12.3917
 20
166.136
 11
12.2956
 21
165.904
  0
LINE
  8
0
 10
12.2956
 20
165.904
 11
12.1644
 21
165.69
  0
LINE
  8
0
 10
12.1644
 20
165.69
 11
12.0014
 21
165.499
  0
LINE
  8
0
 10
12.0014
 20
165.499
 11
11.8105
 21
165.336
  0
LINE
  8
0
 10
11.8105
 20
165.336
 11
11.5964
 21
165.204
  0
LINE
  8
0
 10
11.5964
 20
165.204
 11
11.3644
 21
165.108
  0
LINE
  8
0
 10
11.3644
 20
165.108
 11
11.1203
 21
165.05
  0
LINE
  8
0
 10
11.1203
 20
165.05
 11
10.87
 21
165.03
  0
LINE
  8
0
 10
10.87
 20
165.03
 11
10.6197
 21
165.05
  0
LINE
  8
0
 10
20.46
 20
137.28
 11
20.46
 21
162.38
  0
LINE
  8
0
 10
20.46
 20
162.38
 11
92.06
 21
162.38
  0
LINE
  8
0
 10
92.06
 20
162.38
 11
92.06
 21
137.28
  0
LINE
  8
0
 10
92.06
 20
137.28
 11
20.46
 21
137.28
  0
LINE
  8
0
 10
3
 20
148.88
 11
3
 21
155
  0
LINE
  8
0
 10
3
 20
155
 11
6.06
 21
155
  0
LINE
  8
0
 10
6.06
 20
155
 11
6.06
 21
148.88
  0
LINE
  8
0
 10
6.06
 20
148.88
 11
3
 21
148.88
  0
LINE
  8
0
 10
107.16
 20
148.88
 11
107.16
 21
155
  0
LINE
  8
0
 10
107.16
 20
155
 11
110.22
 21
155
  0
LINE
  8
0
 10
110.22
 20
155
 11
110.22
 21
148.88
  0
LINE
  8
0
 10
110.22
 20
148.88
 11
107.16
 21
148.88
  0
LINE
  8
0
 10
107.16
 20
136.64
 11
107.16
 21
142.76
  0
LINE
  8
0
 10
107.16
 20
142.76
 11
110.22
 21
142.76
  0
LINE
  8
0
 10
110.22
 20
142.76
 11
110.22
 21
136.64
  0
LINE
  8
0
 10
110.22
 20
136.64
 11
107.16
 21
136.64
  0
LINE
  8
0
 10
3
 20
136.64
 11
3
 21
142.76
  0
LINE
  8
0
 10
3
 20
142.76
 11
6.06
 21
142.76
  0
LINE
  8
0
 10
6.06
 20
142.76
 11
6.06
 21
136.64
  0
LINE
  8
0
 10
6.06
 20
136.64
 11
3
 21
136.64
  0
LINE
  8
0
 10
107.16
 20
124.4
 11
107.16
 21
130.52
  0
LINE
  8
0
 10
107.16
 20
130.52
 11
110.22
 21
130.52
  0
LINE
  8
0
 10
110.22
 20
130.52
 11
110.22
 21
124.4
  0
LINE
  8
0
 10
110.22
 20
124.4
 11
107.16
 21
124.4
  0
LINE
  8
0
 10
3
 20
124.4
 11
3
 21
130.52
  0
LINE
  8
0
 10
3
 20
130.52
 11
6.06
 21
130.52
  0
LINE
  8
0
 10
6.06
 20
130.52
 11
6.06
 21
124.4
  0
LINE
  8
0
 10
6.06
 20
124.4
 11
3
 21
124.4
  0
LINE
  8
0
 10
41.3325
 20
99.8025
 11
41.3325
 21
107.162
  0
LINE
  8
0
 10
41.3325
 20
107.162
 11
44.3925
 21
107.162
  0
LINE
  8
0
 10
44.3925
 20
107.162
 11
44.3925
 21
111.162
  0
LINE
  8
0
 10
44.3925
 20
111.162
 11
41.3325
 21
111.162
  0
LINE
  8
0
 10
41.3325
 20
111.162
 11
41.3325
 21
118.522
  0
LINE
  8
0
 10
41.3325
 20
118.522
 11
48.6925
 21
118.522
  0
LINE
  8
0
 10
48.6925
 20
118.522
 11
48.6925
 21
115.462
  0
LINE
  8
0
 10
48.6925
 20
115.462
 11
52.6925
 21
115.462
  0
LINE
  8
0
 10
52.6925
 20
115.462
 11
52.6925
 21
118.522
  0
LINE
  8
0
 10
52.6925
 20
118.522
 11
60.0525
 21
118.522
  0
LINE
  8
0
 10
60.0525
 20
118.522
 11
60.0525
 21
111.162
  0
LINE
  8
0
 10
60.0525
 20
111.162
 11
56.9925
 21
111.162
  0
LINE
  8
0
 10
56.9925
 20
111.162
 11
56.9925
 21
107.162
  0
LINE
  8
0
 10
56.9925
 20
107.162
 11
60.0525
 21
107.162
  0
LINE
  8
0
 10
60.0525
 20
107.162
 11
60.0525
 21
99.8025
  0
LINE
  8
0
 10
60.0525
 20
99.8025
 11
52.6925
 21
99.8025
  0
LINE
  8
0
 10
52.6925
 20
99.8025
 11
52.6925
 21
102.862
  0
LINE
  8
0
 10
52.6925
 20
102.862
 11
48.6925
 21
102.862
  0
LINE
  8
0
 10
48.6925
 20
102.862
 11
48.6925
 21
99.8025
  0
LINE
  8
0
 10
48.6925
 20
99.8025
 11
41.3325
 21
99.8025
  0
LINE
  8
0
 10
3
 20
112.16
 11
3
 21
118.28
  0
LINE
  8
0
 10
3
 20
118.28
 11
6.06
 21
118.28
  0
LINE
  8
0
 10
6.06
 20
118.28
 11
6.06
 21
112.16
  0
LINE
  8
0
 10
6.06
 20
112.16
 11
3
 21
112.16
  0
LINE
  8
0
 10
107.16
 20
112.16
 11
107.16
 21
118.28
  0
LINE
  8
0
 10
107.16
 20
118.28
 11
110.22
 21
118.28
  0
LINE
  8
0
 10
110.22
 20
118.28
 11
110.22
 21
112.16
  0
LINE
  8
0
 10
110.22
 20
112.16
 11
107.16
 21
112.16
  0
LINE
  8
0
 10
91.4843
 20
105.439
 11
90.8739
 21
105.586
  0
LINE
  8
0
 10
90.8739
 20
105.586
 11
90.294
 21
105.826
  0
LINE
  8
0
 10
90.294
 20
105.826
 11
89.7589
 21
106.154
  0
LINE
  8
0
 10
89.7589
 20
106.154
 11
89.2816
 21
106.562
  0
LINE
  8
0
 10
89.2816
 20
106.562
 11
88.8739
 21
107.039
  0
LINE
  8
0
 10
88.8739
 20
107.039
 11
88.546
 21
107.574
  0
LINE
  8
0
 10
88.546
 20
107.574
 11
88.3058
 21
108.154
  0
LINE
  8
0
 10
88.3058
 20
108.154
 11
88.1592
 21
108.764
  0
LINE
  8
0
 10
88.1592
 20
108.764
 11
88.11
 21
109.39
  0
LINE
  8
0
 10
88.11
 20
109.39
 11
88.1592
 21
110.016
  0
LINE
  8
0
 10
88.1592
 20
110.016
 11
88.3058
 21
110.626
  0
LINE
  8
0
 10
88.3058
 20
110.626
 11
88.546
 21
111.206
  0
LINE
  8
0
 10
88.546
 20
111.206
 11
88.8739
 21
111.741
  0
LINE
  8
0
 10
88.8739
 20
111.741
 11
89.2816
 21
112.218
  0
LINE
  8
0
 10
89.2816
 20
112.218
 11
89.7589
 21
112.626
  0
LINE
  8
0
 10
89.7589
 20
112.626
 11
90.294
 21
112.954
  0
LINE
  8
0
 10
90.294
 20
112.954
 11
90.8739
 21
113.194
  0
LINE
  8
0
 10
90.8739
 20
113.194
 11
91.4843
 21
113.341
  0
LINE
  8
0
 10
91.4843
 20
113.341
 11
92.11
 21
113.39
  0
LINE
  8
0
 10
92.11
 20
113.39
 11
92.7357
 21
113.341
  0
LINE
  8
0
 10
92.7357
 20
113.341
 11
93.3461
 21
113.194
  0
LINE
  8
0
 10
93.3461
 20
113.194
 11
93.9259
 21
112.954
  0
LINE
  8
0
 10
93.9259
 20
112.954
 11
94.4611
 21
112.626
  0
LINE
  8
0
 10
94.4611
 20
112.626
 11
94.9384
 21
112.218
  0
LINE
  8
0
 10
94.9384
 20
112.218
 11
95.3461
 21
111.741
  0
LINE
  8
0
 10
95.3461
 20
111.741
 11
95.674
 21
111.206
  0
LINE
  8
0
 10
95.674
 20
111.206
 11
95.9142
 21
110.626
  0
LINE
  8
0
 10
95.9142
 20
110.626
 11
96.0607
 21
110.016
  0
LINE
  8
0
 10
96.0607
 20
110.016
 11
96.11
 21
109.39
  0
LINE
  8
0
 10
96.11
 20
109.39
 11
96.0607
 21
108.764
  0
LINE
  8
0
 10
96.0607
 20
108.764
 11
95.9142
 21
108.154
  0
LINE
  8
0
 10
95.9142
 20
108.154
 11
95.674
 21
107.574
  0
LINE
  8
0
 10
95.674
 20
107.574
 11
95.3461
 21
107.039
  0
LINE
  8
0
 10
95.3461
 20
107.039
 11
94.9384
 21
106.562
  0
LINE
  8
0
 10
94.9384
 20
106.562
 11
94.4611
 21
106.154
  0
LINE
  8
0
 10
94.4611
 20
106.154
 11
93.9259
 21
105.826
  0
LINE
  8
0
 10
93.9259
 20
105.826
 11
93.3461
 21
105.586
  0
LINE
  8
0
 10
93.3461
 20
105.586
 11
92.7357
 21
105.439
  0
LINE
  8
0
 10
92.7357
 20
105.439
 11
92.11
 21
105.39
  0
LINE
  8
0
 10
92.11
 20
105.39
 11
91.4843
 21
105.439
  0
LINE
  8
0
 10
3
 20
92.72
 11
3
 21
106.04
  0
LINE
  8
0
 10
3
 20
106.04
 11
6.06
 21
106.04
  0
LINE
  8
0
 10
6.06
 20
106.04
 11
6.06
 21
95.78
  0
LINE
  8
0
 10
6.06
 20
95.78
 11
16.83
 21
95.78
  0
LINE
  8
0
 10
16.83
 20
95.78
 11
16.83
 21
92.72
  0
LINE
  8
0
 10
16.83
 20
92.72
 11
3
 21
92.72
  0
LINE
  8
0
 10
96.39
 20
92.72
 11
96.39
 21
95.78
  0
LINE
  8
0
 10
96.39
 20
95.78
 11
107.16
 21
95.78
  0
LINE
  8
0
 10
107.16
 20
95.78
 11
107.16
 21
106.04
  0
LINE
  8
0
 10
107.16
 20
106.04
 11
110.22
 21
106.04
  0
LINE
  8
0
 10
110.22
 20
106.04
 11
110.22
 21
92.72
  0
LINE
  8
0
 10
110.22
 20
92.72
 11
96.39
 21
92.72
  0
LINE
  8
0
 10
102.06
 20
99.0097
 11
101.816
 21
99.0683
  0
LINE
  8
0
 10
101.816
 20
99.0683
 11
101.584
 21
99.1644
  0
LINE
  8
0
 10
101.584
 20
99.1644
 11
101.37
 21
99.2955
  0
LINE
  8
0
 10
101.37
 20
99.2955
 11
101.179
 21
99.4586
  0
LINE
  8
0
 10
101.179
 20
99.4586
 11
101.016
 21
99.6495
  0
LINE
  8
0
 10
101.016
 20
99.6495
 11
100.884
 21
99.8636
  0
LINE
  8
0
 10
100.884
 20
99.8636
 11
100.788
 21
100.096
  0
LINE
  8
0
 10
100.788
 20
100.096
 11
100.73
 21
100.34
  0
LINE
  8
0
 10
100.73
 20
100.34
 11
100.71
 21
100.59
  0
LINE
  8
0
 10
100.71
 20
100.59
 11
100.73
 21
100.84
  0
LINE
  8
0
 10
100.73
 20
100.84
 11
100.788
 21
101.084
  0
LINE
  8
0
 10
100.788
 20
101.084
 11
100.884
 21
101.316
  0
LINE
  8
0
 10
100.884
 20
101.316
 11
101.016
 21
101.53
  0
LINE
  8
0
 10
101.016
 20
101.53
 11
101.179
 21
101.721
  0
LINE
  8
0
 10
101.179
 20
101.721
 11
101.37
 21
101.884
  0
LINE
  8
0
 10
101.37
 20
101.884
 11
101.584
 21
102.016
  0
LINE
  8
0
 10
101.584
 20
102.016
 11
101.816
 21
102.112
  0
LINE
  8
0
 10
101.816
 20
102.112
 11
102.06
 21
102.17
  0
LINE
  8
0
 10
102.06
 20
102.17
 11
102.31
 21
102.19
  0
LINE
  8
0
 10
102.31
 20
102.19
 11
102.56
 21
102.17
  0
LINE
  8
0
 10
102.56
 20
102.17
 11
102.804
 21
102.112
  0
LINE
  8
0
 10
102.804
 20
102.112
 11
103.036
 21
102.016
  0
LINE
  8
0
 10
103.036
 20
102.016
 11
103.25
 21
101.884
  0
LINE
  8
0
 10
103.25
 20
101.884
 11
103.441
 21
101.721
  0
LINE
  8
0
 10
103.441
 20
101.721
 11
103.604
 21
101.53
  0
LINE
  8
0
 10
103.604
 20
101.53
 11
103.736
 21
101.316
  0
LINE
  8
0
 10
103.736
 20
101.316
 11
103.832
 21
101.084
  0
LINE
  8
0
 10
103.832
 20
101.084
 11
103.89
 21
100.84
  0
LINE
  8
0
 10
103.89
 20
100.84
 11
103.91
 21
100.59
  0
LINE
  8
0
 10
103.91
 20
100.59
 11
103.89
 21
100.34
  0
LINE
  8
0
 10
103.89
 20
100.34
 11
103.832
 21
100.096
  0
LINE
  8
0
 10
103.832
 20
100.096
 11
103.736
 21
99.8636
  0
LINE
  8
0
 10
103.736
 20
99.8636
 11
103.604
 21
99.6495
  0
LINE
  8
0
 10
103.604
 20
99.6495
 11
103.441
 21
99.4586
  0
LINE
  8
0
 10
103.441
 20
99.4586
 11
103.25
 21
99.2955
  0
LINE
  8
0
 10
103.25
 20
99.2955
 11
103.036
 21
99.1644
  0
LINE
  8
0
 10
103.036
 20
99.1644
 11
102.804
 21
99.0683
  0
LINE
  8
0
 10
102.804
 20
99.0683
 11
102.56
 21
99.0097
  0
LINE
  8
0
 10
102.56
 20
99.0097
 11
102.31
 21
98.99
  0
LINE
  8
0
 10
102.31
 20
98.99
 11
102.06
 21
99.0097
  0
LINE
  8
0
 10
10.6197
 20
99.0097
 11
10.3756
 21
99.0683
  0
LINE
  8
0
 10
10.3756
 20
99.0683
 11
10.1436
 21
99.1644
  0
LINE
  8
0
 10
10.1436
 20
99.1644
 11
9.92953
 21
99.2955
  0
LINE
  8
0
 10
9.92953
 20
99.2955
 11
9.73862
 21
99.4586
  0
LINE
  8
0
 10
9.73862
 20
99.4586
 11
9.57556
 21
99.6495
  0
LINE
  8
0
 10
9.57556
 20
99.6495
 11
9.44438
 21
99.8636
  0
LINE
  8
0
 10
9.44438
 20
99.8636
 11
9.3483
 21
100.096
  0
LINE
  8
0
 10
9.3483
 20
100.096
 11
9.28969
 21
100.34
  0
LINE
  8
0
 10
9.28969
 20
100.34
 11
9.26999
 21
100.59
  0
LINE
  8
0
 10
9.26999
 20
100.59
 11
9.28969
 21
100.84
  0
LINE
  8
0
 10
9.28969
 20
100.84
 11
9.3483
 21
101.084
  0
LINE
  8
0
 10
9.3483
 20
101.084
 11
9.44438
 21
101.316
  0
LINE
  8
0
 10
9.44438
 20
101.316
 11
9.57556
 21
101.53
  0
LINE
  8
0
 10
9.57556
 20
101.53
 11
9.73862
 21
101.721
  0
LINE
  8
0
 10
9.73862
 20
101.721
 11
9.92953
 21
101.884
  0
LINE
  8
0
 10
9.92953
 20
101.884
 11
10.1436
 21
102.016
  0
LINE
  8
0
 10
10.1436
 20
102.016
 11
10.3756
 21
102.112
  0
LINE
  8
0
 10
10.3756
 20
102.112
 11
10.6197
 21
102.17
  0
LINE
  8
0
 10
10.6197
 20
102.17
 11
10.87
 21
102.19
  0
LINE
  8
0
 10
10.87
 20
102.19
 11
11.1203
 21
102.17
  0
LINE
  8
0
 10
11.1203
 20
102.17
 11
11.3644
 21
102.112
  0
LINE
  8
0
 10
11.3644
 20
102.112
 11
11.5964
 21
102.016
  0
LINE
  8
0
 10
11.5964
 20
102.016
 11
11.8105
 21
101.884
  0
LINE
  8
0
 10
11.8105
 20
101.884
 11
12.0014
 21
101.721
  0
LINE
  8
0
 10
12.0014
 20
101.721
 11
12.1644
 21
101.53
  0
LINE
  8
0
 10
12.1644
 20
101.53
 11
12.2956
 21
101.316
  0
LINE
  8
0
 10
12.2956
 20
101.316
 11
12.3917
 21
101.084
  0
LINE
  8
0
 10
12.3917
 20
101.084
 11
12.4503
 21
100.84
  0
LINE
  8
0
 10
12.4503
 20
100.84
 11
12.47
 21
100.59
  0
LINE
  8
0
 10
12.47
 20
100.59
 11
12.4503
 21
100.34
  0
LINE
  8
0
 10
12.4503
 20
100.34
 11
12.3917
 21
100.096
  0
LINE
  8
0
 10
12.3917
 20
100.096
 11
12.2956
 21
99.8636
  0
LINE
  8
0
 10
12.2956
 20
99.8636
 11
12.1644
 21
99.6495
  0
LINE
  8
0
 10
12.1644
 20
99.6495
 11
12.0014
 21
99.4586
  0
LINE
  8
0
 10
12.0014
 20
99.4586
 11
11.8105
 21
99.2955
  0
LINE
  8
0
 10
11.8105
 20
99.2955
 11
11.5964
 21
99.1644
  0
LINE
  8
0
 10
11.5964
 20
99.1644
 11
11.3644
 21
99.0683
  0
LINE
  8
0
 10
11.3644
 20
99.0683
 11
11.1203
 21
99.0097
  0
LINE
  8
0
 10
11.1203
 20
99.0097
 11
10.87
 21
98.99
  0
LINE
  8
0
 10
10.87
 20
98.99
 11
10.6197
 21
99.0097
  0
LINE
  8
0
 10
47.43
 20
92.72
 11
47.43
 21
95.78
  0
LINE
  8
0
 10
47.43
 20
95.78
 11
53.55
 21
95.78
  0
LINE
  8
0
 10
53.55
 20
95.78
 11
53.55
 21
92.72
  0
LINE
  8
0
 10
53.55
 20
92.72
 11
47.43
 21
92.72
  0
LINE
  8
0
 10
84.15
 20
92.72
 11
84.15
 21
95.78
  0
LINE
  8
0
 10
84.15
 20
95.78
 11
90.27
 21
95.78
  0
LINE
  8
0
 10
90.27
 20
95.78
 11
90.27
 21
92.72
  0
LINE
  8
0
 10
90.27
 20
92.72
 11
84.15
 21
92.72
  0
LINE
  8
0
 10
71.91
 20
92.72
 11
71.91
 21
95.78
  0
LINE
  8
0
 10
71.91
 20
95.78
 11
78.03
 21
95.78
  0
LINE
  8
0
 10
78.03
 20
95.78
 11
78.03
 21
92.72
  0
LINE
  8
0
 10
78.03
 20
92.72
 11
71.91
 21
92.72
  0
LINE
  8
0
 10
35.19
 20
92.72
 11
35.19
 21
95.78
  0
LINE
  8
0
 10
35.19
 20
95.78
 11
41.31
 21
95.78
  0
LINE
  8
0
 10
41.31
 20
95.78
 11
41.31
 21
92.72
  0
LINE
  8
0
 10
41.31
 20
92.72
 11
35.19
 21
92.72
  0
LINE
  8
0
 10
22.95
 20
92.72
 11
22.95
 21
95.78
  0
LINE
  8
0
 10
22.95
 20
95.78
 11
29.07
 21
95.78
  0
LINE
  8
0
 10
29.07
 20
95.78
 11
29.07
 21
92.72
  0
LINE
  8
0
 10
29.07
 20
92.72
 11
22.95
 21
92.72
  0
LINE
  8
0
 10
59.67
 20
92.72
 11
59.67
 21
95.78
  0
LINE
  8
0
 10
59.67
 20
95.78
 11
65.79
 21
95.78
  0
LINE
  8
0
 10
65.79
 20
95.78
 11
65.79
 21
92.72
  0
LINE
  8
0
 10
65.79
 20
92.72
 11
59.67
 21
92.72
  0
LINE
  8
0
 10
128.54
 20
109.86
 11
134.66
 21
109.86
  0
LINE
  8
0
 10
134.66
 20
109.86
 11
134.66
 21
106.8
  0
LINE
  8
0
 10
134.66
 20
106.8
 11
140.78
 21
106.8
  0
LINE
  8
0
 10
140.78
 20
106.8
 11
140.78
 21
109.86
  0
LINE
  8
0
 10
140.78
 20
109.86
 11
146.9
 21
109.86
  0
LINE
  8
0
 10
146.9
 20
109.86
 11
146.9
 21
106.8
  0
LINE
  8
0
 10
146.9
 20
106.8
 11
153.02
 21
106.8
  0
LINE
  8
0
 10
153.02
 20
106.8
 11
153.02
 21
109.86
  0
LINE
  8
0
 10
153.02
 20
109.86
 11
159.14
 21
109.86
  0
LINE
  8
0
 10
159.14
 20
109.86
 11
159.14
 21
106.8
  0
LINE
  8
0
 10
159.14
 20
106.8
 11
165.26
 21
106.8
  0
LINE
  8
0
 10
165.26
 20
106.8
 11
165.26
 21
109.86
  0
LINE
  8
0
 10
165.26
 20
109.86
 11
171.38
 21
109.86
  0
LINE
  8
0
 10
171.38
 20
109.86
 11
171.38
 21
106.8
  0
LINE
  8
0
 10
171.38
 20
106.8
 11
177.5
 21
106.8
  0
LINE
  8
0
 10
177.5
 20
106.8
 11
177.5
 21
109.86
  0
LINE
  8
0
 10
177.5
 20
109.86
 11
183.62
 21
109.86
  0
LINE
  8
0
 10
183.62
 20
109.86
 11
183.62
 21
106.8
  0
LINE
  8
0
 10
183.62
 20
106.8
 11
196.94
 21
106.8
  0
LINE
  8
0
 10
196.94
 20
106.8
 11
196.94
 21
120.54
  0
LINE
  8
0
 10
196.94
 20
120.54
 11
193.88
 21
120.54
  0
LINE
  8
0
 10
193.88
 20
120.54
 11
193.88
 21
126.66
  0
LINE
  8
0
 10
193.88
 20
126.66
 11
196.94
 21
126.66
  0
LINE
  8
0
 10
196.94
 20
126.66
 11
196.94
 21
140.4
  0
LINE
  8
0
 10
196.94
 20
140.4
 11
183.62
 21
140.4
  0
LINE
  8
0
 10
183.62
 20
140.4
 11
183.62
 21
137.34
  0
LINE
  8
0
 10
183.62
 20
137.34
 11
177.5
 21
137.34
  0
LINE
  8
0
 10
177.5
 20
137.34
 11
177.5
 21
140.4
  0
LINE
  8
0
 10
177.5
 20
140.4
 11
171.38
 21
140.4
  0
LINE
  8
0
 10
171.38
 20
140.4
 11
171.38
 21
137.34
  0
LINE
  8
0
 10
171.38
 20
137.34
 11
165.26
 21
137.34
  0
LINE
  8
0
 10
165.26
 20
137.34
 11
165.26
 21
140.4
  0
LINE
  8
0
 10
165.26
 20
140.4
 11
159.14
 21
140.4
  0
LINE
  8
0
 10
159.14
 20
140.4
 11
159.14
 21
137.34
  0
LINE
  8
0
 10
159.14
 20
137.34
 11
153.02
 21
137.34
  0
LINE
  8
0
 10
153.02
 20
137.34
 11
153.02
 21
140.4
  0
LINE
  8
0
 10
153.02
 20
140.4
 11
146.9
 21
140.4
  0
LINE
  8
0
 10
146.9
 20
140.4
 11
146.9
 21
137.34
  0
LINE
  8
0
 10
146.9
 20
137.34
 11
140.78
 21
137.34
  0
LINE
  8
0
 10
140.78
 20
137.34
 11
140.78
 21
140.4
  0
LINE
  8
0
 10
140.78
 20
140.4
 11
134.66
 21
140.4
  0
LINE
  8
0
 10
134.66
 20
140.4
 11
134.66
 21
137.34
  0
LINE
  8
0
 10
134.66
 20
137.34
 11
128.54
 21
137.34
  0
LINE
  8
0
 10
128.54
 20
137.34
 11
128.54
 21
140.4
  0
LINE
  8
0
 10
128.54
 20
140.4
 11
115.22
 21
140.4
  0
LINE
  8
0
 10
115.22
 20
140.4
 11
115.22
 21
126.66
  0
LINE
  8
0
 10
115.22
 20
126.66
 11
118.28
 21
126.66
  0
LINE
  8
0
 10
118.28
 20
126.66
 11
118.28
 21
120.54
  0
LINE
  8
0
 10
118.28
 20
120.54
 11
115.22
 21
120.54
  0
LINE
  8
0
 10
115.22
 20
120.54
 11
115.22
 21
106.8
  0
LINE
  8
0
 10
115.22
 20
106.8
 11
128.54
 21
106.8
  0
LINE
  8
0
 10
128.54
 20
106.8
 11
128.54
 21
109.86
  0
LINE
  8
0
 10
156.66
 20
119.8
 11
156.66
 21
129.3
  0
LINE
  8
0
 10
156.66
 20
129.3
 11
168.26
 21
129.3
  0
LINE
  8
0
 10
168.26
 20
129.3
 11
168.26
 21
119.8
  0
LINE
  8
0
 10
168.26
 20
119.8
 11
156.66
 21
119.8
  0
LINE
  8
0
 10
128.54
 20
74.26
 11
134.66
 21
74.26
  0
LINE
  8
0
 10
134.66
 20
74.26
 11
134.66
 21
71.2
  0
LINE
  8
0
 10
134.66
 20
71.2
 11
140.78
 21
71.2
  0
LINE
  8
0
 10
140.78
 20
71.2
 11
140.78
 21
74.26
  0
LINE
  8
0
 10
140.78
 20
74.26
 11
146.9
 21
74.26
  0
LINE
  8
0
 10
146.9
 20
74.26
 11
146.9
 21
71.2
  0
LINE
  8
0
 10
146.9
 20
71.2
 11
153.02
 21
71.2
  0
LINE
  8
0
 10
153.02
 20
71.2
 11
153.02
 21
74.26
  0
LINE
  8
0
 10
153.02
 20
74.26
 11
159.14
 21
74.26
  0
LINE
  8
0
 10
159.14
 20
74.26
 11
159.14
 21
71.2
  0
LINE
  8
0
 10
159.14
 20
71.2
 11
165.26
 21
71.2
  0
LINE
  8
0
 10
165.26
 20
71.2
 11
165.26
 21
74.26
  0
LINE
  8
0
 10
165.26
 20
74.26
 11
171.38
 21
74.26
  0
LINE
  8
0
 10
171.38
 20
74.26
 11
171.38
 21
71.2
  0
LINE
  8
0
 10
171.38
 20
71.2
 11
177.5
 21
71.2
  0
LINE
  8
0
 10
177.5
 20
71.2
 11
177.5
 21
74.26
  0
LINE
  8
0
 10
177.5
 20
74.26
 11
183.62
 21
74.26
  0
LINE
  8
0
 10
183.62
 20
74.26
 11
183.62
 21
71.2
  0
LINE
  8
0
 10
183.62
 20
71.2
 11
196.94
 21
71.2
  0
LINE
  8
0
 10
196.94
 20
71.2
 11
196.94
 21
84.94
  0
LINE
  8
0
 10
196.94
 20
84.94
 11
193.88
 21
84.94
  0
LINE
  8
0
 10
193.88
 20
84.94
 11
193.88
 21
91.06
  0
LINE
  8
0
 10
193.88
 20
91.06
 11
196.94
 21
91.06
  0
LINE
  8
0
 10
196.94
 20
91.06
 11
196.94
 21
104.8
  0
LINE
  8
0
 10
196.94
 20
104.8
 11
183.62
 21
104.8
  0
LINE
  8
0
 10
183.62
 20
104.8
 11
183.62
 21
101.74
  0
LINE
  8
0
 10
183.62
 20
101.74
 11
177.5
 21
101.74
  0
LINE
  8
0
 10
177.5
 20
101.74
 11
177.5
 21
104.8
  0
LINE
  8
0
 10
177.5
 20
104.8
 11
171.38
 21
104.8
  0
LINE
  8
0
 10
171.38
 20
104.8
 11
171.38
 21
101.74
  0
LINE
  8
0
 10
171.38
 20
101.74
 11
165.26
 21
101.74
  0
LINE
  8
0
 10
165.26
 20
101.74
 11
165.26
 21
104.8
  0
LINE
  8
0
 10
165.26
 20
104.8
 11
159.14
 21
104.8
  0
LINE
  8
0
 10
159.14
 20
104.8
 11
159.14
 21
101.74
  0
LINE
  8
0
 10
159.14
 20
101.74
 11
153.02
 21
101.74
  0
LINE
  8
0
 10
153.02
 20
101.74
 11
153.02
 21
104.8
  0
LINE
  8
0
 10
153.02
 20
104.8
 11
146.9
 21
104.8
  0
LINE
  8
0
 10
146.9
 20
104.8
 11
146.9
 21
101.74
  0
LINE
  8
0
 10
146.9
 20
101.74
 11
140.78
 21
101.74
  0
LINE
  8
0
 10
140.78
 20
101.74
 11
140.78
 21
104.8
  0
LINE
  8
0
 10
140.78
 20
104.8
 11
134.66
 21
104.8
  0
LINE
  8
0
 10
134.66
 20
104.8
 11
134.66
 21
101.74
  0
LINE
  8
0
 10
134.66
 20
101.74
 11
128.54
 21
101.74
  0
LINE
  8
0
 10
128.54
 20
101.74
 11
128.54
 21
104.8
  0
LINE
  8
0
 10
128.54
 20
104.8
 11
115.22
 21
104.8
  0
LINE
  8
0
 10
115.22
 20
104.8
 11
115.22
 21
91.06
  0
LINE
  8
0
 10
115.22
 20
91.06
 11
118.28
 21
91.06
  0
LINE
  8
0
 10
118.28
 20
91.06
 11
118.28
 21
84.94
  0
LINE
  8
0
 10
118.28
 20
84.94
 11
115.22
 21
84.94
  0
LINE
  8
0
 10
115.22
 20
84.94
 11
115.22
 21
71.2
  0
LINE
  8
0
 10
115.22
 20
71.2
 11
128.54
 21
71.2
  0
LINE
  8
0
 10
128.54
 20
71.2
 11
128.54
 21
74.26
  0
LINE
  8
0
 10
113.22
 20
87.72
 11
0
 21
87.72
  0
LINE
  8
0
 10
0
 20
87.72
 11
0
 21
0
  0
LINE
  8
0
 10
0
 20
0
 11
113.22
 21
0
  0
LINE
  8
0
 10
113.22
 20
0
 11
113.22
 21
87.72
  0
LINE
  8
0
 10
3
 20
71.4
 11
3
 21
84.72
  0
LINE
  8
0
 10
3
 20
84.72
 11
16.83
 21
84.72
  0
LINE
  8
0
 10
16.83
 20
84.72
 11
16.83
 21
81.66
  0
LINE
  8
0
 10
16.83
 20
81.66
 11
6.06
 21
81.66
  0
LINE
  8
0
 10
6.06
 20
81.66
 11
6.06
 21
71.4
  0
LINE
  8
0
 10
6.06
 20
71.4
 11
3
 21
71.4
  0
LINE
  8
0
 10
71.91
 20
81.66
 11
71.91
 21
84.72
  0
LINE
  8
0
 10
71.91
 20
84.72
 11
78.03
 21
84.72
  0
LINE
  8
0
 10
78.03
 20
84.72
 11
78.03
 21
81.66
  0
LINE
  8
0
 10
78.03
 20
81.66
 11
71.91
 21
81.66
  0
LINE
  8
0
 10
84.15
 20
81.66
 11
84.15
 21
84.72
  0
LINE
  8
0
 10
84.15
 20
84.72
 11
90.27
 21
84.72
  0
LINE
  8
0
 10
90.27
 20
84.72
 11
90.27
 21
81.66
  0
LINE
  8
0
 10
90.27
 20
81.66
 11
84.15
 21
81.66
  0
LINE
  8
0
 10
107.16
 20
71.4
 11
107.16
 21
81.66
  0
LINE
  8
0
 10
107.16
 20
81.66
 11
96.39
 21
81.66
  0
LINE
  8
0
 10
96.39
 20
81.66
 11
96.39
 21
84.72
  0
LINE
  8
0
 10
96.39
 20
84.72
 11
110.22
 21
84.72
  0
LINE
  8
0
 10
110.22
 20
84.72
 11
110.22
 21
71.4
  0
LINE
  8
0
 10
110.22
 20
71.4
 11
107.16
 21
71.4
  0
LINE
  8
0
 10
59.67
 20
81.66
 11
59.67
 21
84.72
  0
LINE
  8
0
 10
59.67
 20
84.72
 11
65.79
 21
84.72
  0
LINE
  8
0
 10
65.79
 20
84.72
 11
65.79
 21
81.66
  0
LINE
  8
0
 10
65.79
 20
81.66
 11
59.67
 21
81.66
  0
LINE
  8
0
 10
47.43
 20
81.66
 11
47.43
 21
84.72
  0
LINE
  8
0
 10
47.43
 20
84.72
 11
53.55
 21
84.72
  0
LINE
  8
0
 10
53.55
 20
84.72
 11
53.55
 21
81.66
  0
LINE
  8
0
 10
53.55
 20
81.66
 11
47.43
 21
81.66
  0
LINE
  8
0
 10
35.19
 20
81.66
 11
35.19
 21
84.72
  0
LINE
  8
0
 10
35.19
 20
84.72
 11
41.31
 21
84.72
  0
LINE
  8
0
 10
41.31
 20
84.72
 11
41.31
 21
81.66
  0
LINE
  8
0
 10
41.31
 20
81.66
 11
35.19
 21
81.66
  0
LINE
  8
0
 10
22.95
 20
81.66
 11
22.95
 21
84.72
  0
LINE
  8
0
 10
22.95
 20
84.72
 11
29.07
 21
84.72
  0
LINE
  8
0
 10
29.07
 20
84.72
 11
29.07
 21
81.66
  0
LINE
  8
0
 10
29.07
 20
81.66
 11
22.95
 21
81.66
  0
LINE
  8
0
 10
10.6597
 20
75.3297
 11
10.4156
 21
75.3883
  0
LINE
  8
0
 10
10.4156
 20
75.3883
 11
10.1836
 21
75.4844
  0
LINE
  8
0
 10
10.1836
 20
75.4844
 11
9.96954
 21
75.6156
  0
LINE
  8
0
 10
9.96954
 20
75.6156
 11
9.77863
 21
75.7786
  0
LINE
  8
0
 10
9.77863
 20
75.7786
 11
9.61557
 21
75.9695
  0
LINE
  8
0
 10
9.61557
 20
75.9695
 11
9.48438
 21
76.1836
  0
LINE
  8
0
 10
9.48438
 20
76.1836
 11
9.38831
 21
76.4156
  0
LINE
  8
0
 10
9.38831
 20
76.4156
 11
9.3297
 21
76.6597
  0
LINE
  8
0
 10
9.3297
 20
76.6597
 11
9.31
 21
76.91
  0
LINE
  8
0
 10
9.31
 20
76.91
 11
9.3297
 21
77.1603
  0
LINE
  8
0
 10
9.3297
 20
77.1603
 11
9.38831
 21
77.4044
  0
LINE
  8
0
 10
9.38831
 20
77.4044
 11
9.48438
 21
77.6364
  0
LINE
  8
0
 10
9.48438
 20
77.6364
 11
9.61557
 21
77.8504
  0
LINE
  8
0
 10
9.61557
 20
77.8504
 11
9.77863
 21
78.0414
  0
LINE
  8
0
 10
9.77863
 20
78.0414
 11
9.96954
 21
78.2044
  0
LINE
  8
0
 10
9.96954
 20
78.2044
 11
10.1836
 21
78.3356
  0
LINE
  8
0
 10
10.1836
 20
78.3356
 11
10.4156
 21
78.4317
  0
LINE
  8
0
 10
10.4156
 20
78.4317
 11
10.6597
 21
78.4903
  0
LINE
  8
0
 10
10.6597
 20
78.4903
 11
10.91
 21
78.51
  0
LINE
  8
0
 10
10.91
 20
78.51
 11
11.1603
 21
78.4903
  0
LINE
  8
0
 10
11.1603
 20
78.4903
 11
11.4044
 21
78.4317
  0
LINE
  8
0
 10
11.4044
 20
78.4317
 11
11.6364
 21
78.3356
  0
LINE
  8
0
 10
11.6364
 20
78.3356
 11
11.8504
 21
78.2044
  0
LINE
  8
0
 10
11.8504
 20
78.2044
 11
12.0414
 21
78.0414
  0
LINE
  8
0
 10
12.0414
 20
78.0414
 11
12.2044
 21
77.8504
  0
LINE
  8
0
 10
12.2044
 20
77.8504
 11
12.3356
 21
77.6364
  0
LINE
  8
0
 10
12.3356
 20
77.6364
 11
12.4317
 21
77.4044
  0
LINE
  8
0
 10
12.4317
 20
77.4044
 11
12.4903
 21
77.1603
  0
LINE
  8
0
 10
12.4903
 20
77.1603
 11
12.51
 21
76.91
  0
LINE
  8
0
 10
12.51
 20
76.91
 11
12.4903
 21
76.6597
  0
LINE
  8
0
 10
12.4903
 20
76.6597
 11
12.4317
 21
76.4156
  0
LINE
  8
0
 10
12.4317
 20
76.4156
 11
12.3356
 21
76.1836
  0
LINE
  8
0
 10
12.3356
 20
76.1836
 11
12.2044
 21
75.9695
  0
LINE
  8
0
 10
12.2044
 20
75.9695
 11
12.0414
 21
75.7786
  0
LINE
  8
0
 10
12.0414
 20
75.7786
 11
11.8504
 21
75.6156
  0
LINE
  8
0
 10
11.8504
 20
75.6156
 11
11.6364
 21
75.4844
  0
LINE
  8
0
 10
11.6364
 20
75.4844
 11
11.4044
 21
75.3883
  0
LINE
  8
0
 10
11.4044
 20
75.3883
 11
11.1603
 21
75.3297
  0
LINE
  8
0
 10
11.1603
 20
75.3297
 11
10.91
 21
75.31
  0
LINE
  8
0
 10
10.91
 20
75.31
 11
10.6597
 21
75.3297
  0
LINE
  8
0
 10
102.1
 20
75.3297
 11
101.856
 21
75.3883
  0
LINE
  8
0
 10
101.856
 20
75.3883
 11
101.624
 21
75.4844
  0
LINE
  8
0
 10
101.624
 20
75.4844
 11
101.41
 21
75.6156
  0
LINE
  8
0
 10
101.41
 20
75.6156
 11
101.219
 21
75.7786
  0
LINE
  8
0
 10
101.219
 20
75.7786
 11
101.056
 21
75.9695
  0
LINE
  8
0
 10
101.056
 20
75.9695
 11
100.924
 21
76.1836
  0
LINE
  8
0
 10
100.924
 20
76.1836
 11
100.828
 21
76.4156
  0
LINE
  8
0
 10
100.828
 20
76.4156
 11
100.77
 21
76.6597
  0
LINE
  8
0
 10
100.77
 20
76.6597
 11
100.75
 21
76.91
  0
LINE
  8
0
 10
100.75
 20
76.91
 11
100.77
 21
77.1603
  0
LINE
  8
0
 10
100.77
 20
77.1603
 11
100.828
 21
77.4044
  0
LINE
  8
0
 10
100.828
 20
77.4044
 11
100.924
 21
77.6364
  0
LINE
  8
0
 10
100.924
 20
77.6364
 11
101.056
 21
77.8504
  0
LINE
  8
0
 10
101.056
 20
77.8504
 11
101.219
 21
78.0414
  0
LINE
  8
0
 10
101.219
 20
78.0414
 11
101.41
 21
78.2044
  0
LINE
  8
0
 10
101.41
 20
78.2044
 11
101.624
 21
78.3356
  0
LINE
  8
0
 10
101.624
 20
78.3356
 11
101.856
 21
78.4317
  0
LINE
  8
0
 10
101.856
 20
78.4317
 11
102.1
 21
78.4903
  0
LINE
  8
0
 10
102.1
 20
78.4903
 11
102.35
 21
78.51
  0
LINE
  8
0
 10
102.35
 20
78.51
 11
102.6
 21
78.4903
  0
LINE
  8
0
 10
102.6
 20
78.4903
 11
102.844
 21
78.4317
  0
LINE
  8
0
 10
102.844
 20
78.4317
 11
103.076
 21
78.3356
  0
LINE
  8
0
 10
103.076
 20
78.3356
 11
103.29
 21
78.2044
  0
LINE
  8
0
 10
103.29
 20
78.2044
 11
103.481
 21
78.0414
  0
LINE
  8
0
 10
103.481
 20
78.0414
 11
103.644
 21
77.8504
  0
LINE
  8
0
 10
103.644
 20
77.8504
 11
103.776
 21
77.6364
  0
LINE
  8
0
 10
103.776
 20
77.6364
 11
103.872
 21
77.4044
  0
LINE
  8
0
 10
103.872
 20
77.4044
 11
103.93
 21
77.1603
  0
LINE
  8
0
 10
103.93
 20
77.1603
 11
103.95
 21
76.91
  0
LINE
  8
0
 10
103.95
 20
76.91
 11
103.93
 21
76.6597
  0
LINE
  8
0
 10
103.93
 20
76.6597
 11
103.872
 21
76.4156
  0
LINE
  8
0
 10
103.872
 20
76.4156
 11
103.776
 21
76.1836
  0
LINE
  8
0
 10
103.776
 20
76.1836
 11
103.644
 21
75.9695
  0
LINE
  8
0
 10
103.644
 20
75.9695
 11
103.481
 21
75.7786
  0
LINE
  8
0
 10
103.481
 20
75.7786
 11
103.29
 21
75.6156
  0
LINE
  8
0
 10
103.29
 20
75.6156
 11
103.076
 21
75.4844
  0
LINE
  8
0
 10
103.076
 20
75.4844
 11
102.844
 21
75.3883
  0
LINE
  8
0
 10
102.844
 20
75.3883
 11
102.6
 21
75.3297
  0
LINE
  8
0
 10
102.6
 20
75.3297
 11
102.35
 21
75.31
  0
LINE
  8
0
 10
102.35
 20
75.31
 11
102.1
 21
75.3297
  0
LINE
  8
0
 10
107.16
 20
59.16
 11
107.16
 21
65.28
  0
LINE
  8
0
 10
107.16
 20
65.28
 11
110.22
 21
65.28
  0
LINE
  8
0
 10
110.22
 20
65.28
 11
110.22
 21
59.16
  0
LINE
  8
0
 10
110.22
 20
59.16
 11
107.16
 21
59.16
  0
LINE
  8
0
 10
3
 20
59.16
 11
3
 21
65.28
  0
LINE
  8
0
 10
3
 20
65.28
 11
6.06
 21
65.28
  0
LINE
  8
0
 10
6.06
 20
65.28
 11
6.06
 21
59.16
  0
LINE
  8
0
 10
6.06
 20
59.16
 11
3
 21
59.16
  0
LINE
  8
0
 10
3
 20
46.92
 11
3
 21
53.04
  0
LINE
  8
0
 10
3
 20
53.04
 11
6.06
 21
53.04
  0
LINE
  8
0
 10
6.06
 20
53.04
 11
6.06
 21
46.92
  0
LINE
  8
0
 10
6.06
 20
46.92
 11
3
 21
46.92
  0
LINE
  8
0
 10
107.16
 20
46.92
 11
107.16
 21
53.04
  0
LINE
  8
0
 10
107.16
 20
53.04
 11
110.22
 21
53.04
  0
LINE
  8
0
 10
110.22
 20
53.04
 11
110.22
 21
46.92
  0
LINE
  8
0
 10
110.22
 20
46.92
 11
107.16
 21
46.92
  0
LINE
  8
0
 10
107.16
 20
34.68
 11
107.16
 21
40.8
  0
LINE
  8
0
 10
107.16
 20
40.8
 11
110.22
 21
40.8
  0
LINE
  8
0
 10
110.22
 20
40.8
 11
110.22
 21
34.68
  0
LINE
  8
0
 10
110.22
 20
34.68
 11
107.16
 21
34.68
  0
LINE
  8
0
 10
3
 20
34.68
 11
3
 21
40.8
  0
LINE
  8
0
 10
3
 20
40.8
 11
6.06
 21
40.8
  0
LINE
  8
0
 10
6.06
 20
40.8
 11
6.06
 21
34.68
  0
LINE
  8
0
 10
6.06
 20
34.68
 11
3
 21
34.68
  0
LINE
  8
0
 10
3
 20
22.44
 11
3
 21
28.56
  0
LINE
  8
0
 10
3
 20
28.56
 11
6.06
 21
28.56
  0
LINE
  8
0
 10
6.06
 20
28.56
 11
6.06
 21
22.44
  0
LINE
  8
0
 10
6.06
 20
22.44
 11
3
 21
22.44
  0
LINE
  8
0
 10
107.16
 20
22.44
 11
107.16
 21
28.56
  0
LINE
  8
0
 10
107.16
 20
28.56
 11
110.22
 21
28.56
  0
LINE
  8
0
 10
110.22
 20
28.56
 11
110.22
 21
22.44
  0
LINE
  8
0
 10
110.22
 20
22.44
 11
107.16
 21
22.44
  0
LINE
  8
0
 10
3
 20
3
 11
3
 21
16.32
  0
LINE
  8
0
 10
3
 20
16.32
 11
6.06
 21
16.32
  0
LINE
  8
0
 10
6.06
 20
16.32
 11
6.06
 21
6.06
  0
LINE
  8
0
 10
6.06
 20
6.06
 11
16.83
 21
6.06
  0
LINE
  8
0
 10
16.83
 20
6.06
 11
16.83
 21
3
  0
LINE
  8
0
 10
16.83
 20
3
 11
3
 21
3
  0
LINE
  8
0
 10
96.39
 20
3
 11
96.39
 21
6.06
  0
LINE
  8
0
 10
96.39
 20
6.06
 11
107.16
 21
6.06
  0
LINE
  8
0
 10
107.16
 20
6.06
 11
107.16
 21
16.32
  0
LINE
  8
0
 10
107.16
 20
16.32
 11
110.22
 21
16.32
  0
LINE
  8
0
 10
110.22
 20
16.32
 11
110.22
 21
3
  0
LINE
  8
0
 10
110.22
 20
3
 11
96.39
 21
3
  0
LINE
  8
0
 10
10.6597
 20
9.28969
 11
10.4156
 21
9.3483
  0
LINE
  8
0
 10
10.4156
 20
9.3483
 11
10.1836
 21
9.44438
  0
LINE
  8
0
 10
10.1836
 20
9.44438
 11
9.96954
 21
9.57556
  0
LINE
  8
0
 10
9.96954
 20
9.57556
 11
9.77863
 21
9.73862
  0
LINE
  8
0
 10
9.77863
 20
9.73862
 11
9.61557
 21
9.92953
  0
LINE
  8
0
 10
9.61557
 20
9.92953
 11
9.48438
 21
10.1436
  0
LINE
  8
0
 10
9.48438
 20
10.1436
 11
9.38831
 21
10.3756
  0
LINE
  8
0
 10
9.38831
 20
10.3756
 11
9.3297
 21
10.6197
  0
LINE
  8
0
 10
9.3297
 20
10.6197
 11
9.31
 21
10.87
  0
LINE
  8
0
 10
9.31
 20
10.87
 11
9.3297
 21
11.1203
  0
LINE
  8
0
 10
9.3297
 20
11.1203
 11
9.38831
 21
11.3644
  0
LINE
  8
0
 10
9.38831
 20
11.3644
 11
9.48438
 21
11.5964
  0
LINE
  8
0
 10
9.48438
 20
11.5964
 11
9.61557
 21
11.8105
  0
LINE
  8
0
 10
9.61557
 20
11.8105
 11
9.77863
 21
12.0014
  0
LINE
  8
0
 10
9.77863
 20
12.0014
 11
9.96954
 21
12.1644
  0
LINE
  8
0
 10
9.96954
 20
12.1644
 11
10.1836
 21
12.2956
  0
LINE
  8
0
 10
10.1836
 20
12.2956
 11
10.4156
 21
12.3917
  0
LINE
  8
0
 10
10.4156
 20
12.3917
 11
10.6597
 21
12.4503
  0
LINE
  8
0
 10
10.6597
 20
12.4503
 11
10.91
 21
12.47
  0
LINE
  8
0
 10
10.91
 20
12.47
 11
11.1603
 21
12.4503
  0
LINE
  8
0
 10
11.1603
 20
12.4503
 11
11.4044
 21
12.3917
  0
LINE
  8
0
 10
11.4044
 20
12.3917
 11
11.6364
 21
12.2956
  0
LINE
  8
0
 10
11.6364
 20
12.2956
 11
11.8504
 21
12.1644
  0
LINE
  8
0
 10
11.8504
 20
12.1644
 11
12.0414
 21
12.0014
  0
LINE
  8
0
 10
12.0414
 20
12.0014
 11
12.2044
 21
11.8105
  0
LINE
  8
0
 10
12.2044
 20
11.8105
 11
12.3356
 21
11.5964
  0
LINE
  8
0
 10
12.3356
 20
11.5964
 11
12.4317
 21
11.3644
  0
LINE
  8
0
 10
12.4317
 20
11.3644
 11
12.4903
 21
11.1203
  0
LINE
  8
0
 10
12.4903
 20
11.1203
 11
12.51
 21
10.87
  0
LINE
  8
0
 10
12.51
 20
10.87
 11
12.4903
 21
10.6197
  0
LINE
  8
0
 10
12.4903
 20
10.6197
 11
12.4317
 21
10.3756
  0
LINE
  8
0
 10
12.4317
 20
10.3756
 11
12.3356
 21
10.1436
  0
LINE
  8
0
 10
12.3356
 20
10.1436
 11
12.2044
 21
9.92953
  0
LINE
  8
0
 10
12.2044
 20
9.92953
 11
12.0414
 21
9.73862
  0
LINE
  8
0
 10
12.0414
 20
9.73862
 11
11.8504
 21
9.57556
  0
LINE
  8
0
 10
11.8504
 20
9.57556
 11
11.6364
 21
9.44438
  0
LINE
  8
0
 10
11.6364
 20
9.44438
 11
11.4044
 21
9.3483
  0
LINE
  8
0
 10
11.4044
 20
9.3483
 11
11.1603
 21
9.28969
  0
LINE
  8
0
 10
11.1603
 20
9.28969
 11
10.91
 21
9.26999
  0
LINE
  8
0
 10
10.91
 20
9.26999
 11
10.6597
 21
9.28969
  0
LINE
  8
0
 10
102.1
 20
9.28969
 11
101.856
 21
9.3483
  0
LINE
  8
0
 10
101.856
 20
9.3483
 11
101.624
 21
9.44438
  0
LINE
  8
0
 10
101.624
 20
9.44438
 11
101.41
 21
9.57556
  0
LINE
  8
0
 10
101.41
 20
9.57556
 11
101.219
 21
9.73862
  0
LINE
  8
0
 10
101.219
 20
9.73862
 11
101.056
 21
9.92953
  0
LINE
  8
0
 10
101.056
 20
9.92953
 11
100.924
 21
10.1436
  0
LINE
  8
0
 10
100.924
 20
10.1436
 11
100.828
 21
10.3756
  0
LINE
  8
0
 10
100.828
 20
10.3756
 11
100.77
 21
10.6197
  0
LINE
  8
0
 10
100.77
 20
10.6197
 11
100.75
 21
10.87
  0
LINE
  8
0
 10
100.75
 20
10.87
 11
100.77
 21
11.1203
  0
LINE
  8
0
 10
100.77
 20
11.1203
 11
100.828
 21
11.3644
  0
LINE
  8
0
 10
100.828
 20
11.3644
 11
100.924
 21
11.5964
  0
LINE
  8
0
 10
100.924
 20
11.5964
 11
101.056
 21
11.8105
  0
LINE
  8
0
 10
101.056
 20
11.8105
 11
101.219
 21
12.0014
  0
LINE
  8
0
 10
101.219
 20
12.0014
 11
101.41
 21
12.1644
  0
LINE
  8
0
 10
101.41
 20
12.1644
 11
101.624
 21
12.2956
  0
LINE
  8
0
 10
101.624
 20
12.2956
 11
101.856
 21
12.3917
  0
LINE
  8
0
 10
101.856
 20
12.3917
 11
102.1
 21
12.4503
  0
LINE
  8
0
 10
102.1
 20
12.4503
 11
102.35
 21
12.47
  0
LINE
  8
0
 10
102.35
 20
12.47
 11
102.6
 21
12.4503
  0
LINE
  8
0
 10
102.6
 20
12.4503
 11
102.844
 21
12.3917
  0
LINE
  8
0
 10
102.844
 20
12.3917
 11
103.076
 21
12.2956
  0
LINE
  8
0
 10
103.076
 20
12.2956
 11
103.29
 21
12.1644
  0
LINE
  8
0
 10
103.29
 20
12.1644
 11
103.481
 21
12.0014
  0
LINE
  8
0
 10
103.481
 20
12.0014
 11
103.644
 21
11.8105
  0
LINE
  8
0
 10
103.644
 20
11.8105
 11
103.776
 21
11.5964
  0
LINE
  8
0
 10
103.776
 20
11.5964
 11
103.872
 21
11.3644
  0
LINE
  8
0
 10
103.872
 20
11.3644
 11
103.93
 21
11.1203
  0
LINE
  8
0
 10
103.93
 20
11.1203
 11
103.95
 21
10.87
  0
LINE
  8
0
 10
103.95
 20
10.87
 11
103.93
 21
10.6197
  0
LINE
  8
0
 10
103.93
 20
10.6197
 11
103.872
 21
10.3756
  0
LINE
  8
0
 10
103.872
 20
10.3756
 11
103.776
 21
10.1436
  0
LINE
  8
0
 10
103.776
 20
10.1436
 11
103.644
 21
9.92953
  0
LINE
  8
0
 10
103.644
 20
9.92953
 11
103.481
 21
9.73862
  0
LINE
  8
0
 10
103.481
 20
9.73862
 11
103.29
 21
9.57556
  0
LINE
  8
0
 10
103.29
 20
9.57556
 11
103.076
 21
9.44438
  0
LINE
  8
0
 10
103.076
 20
9.44438
 11
102.844
 21
9.3483
  0
LINE
  8
0
 10
102.844
 20
9.3483
 11
102.6
 21
9.28969
  0
LINE
  8
0
 10
102.6
 20
9.28969
 11
102.35
 21
9.26999
  0
LINE
  8
0
 10
102.35
 20
9.26999
 11
102.1
 21
9.28969
  0
LINE
  8
0
 10
84.15
 20
3
 11
84.15
 21
6.06
  0
LINE
  8
0
 10
84.15
 20
6.06
 11
90.27
 21
6.06
  0
LINE
  8
0
 10
90.27
 20
6.06
 11
90.27
 21
3
  0
LINE
  8
0
 10
90.27
 20
3
 11
84.15
 21
3
  0
LINE
  8
0
 10
22.95
 20
3
 11
22.95
 21
6.06
  0
LINE
  8
0
 10
22.95
 20
6.06
 11
29.07
 21
6.06
  0
LINE
  8
0
 10
29.07
 20
6.06
 11
29.07
 21
3
  0
LINE
  8
0
 10
29.07
 20
3
 11
22.95
 21
3
  0
LINE
  8
0
 10
35.19
 20
3
 11
35.19
 21
6.06
  0
LINE
  8
0
 10
35.19
 20
6.06
 11
41.31
 21
6.06
  0
LINE
  8
0
 10
41.31
 20
6.06
 11
41.31
 21
3
  0
LINE
  8
0
 10
41.31
 20
3
 11
35.19
 21
3
  0
LINE
  8
0
 10
47.43
 20
3
 11
47.43
 21
6.06
  0
LINE
  8
0
 10
47.43
 20
6.06
 11
53.55
 21
6.06
  0
LINE
  8
0
 10
53.55
 20
6.06
 11
53.55
 21
3
  0
LINE
  8
0
 10
53.55
 20
3
 11
47.43
 21
3
  0
LINE
  8
0
 10
59.67
 20
3
 11
59.67
 21
6.06
  0
LINE
  8
0
 10
59.67
 20
6.06
 11
65.79
 21
6.06
  0
LINE
  8
0
 10
65.79
 20
6.06
 11
65.79
 21
3
  0
LINE
  8
0
 10
65.79
 20
3
 11
59.67
 21
3
  0
LINE
  8
0
 10
71.91
 20
3
 11
71.91
 21
6.06
  0
LINE
  8
0
 10
71.91
 20
6.06
 11
78.03
 21
6.06
  0
LINE
  8
0
 10
78.03
 20
6.06
 11
78.03
 21
3
  0
LINE
  8
0
 10
78.03
 20
3
 11
71.91
 21
3
  0
LINE
  8
0
 10
129.05
 20
38.66
 11
135.17
 21
38.66
  0
LINE
  8
0
 10
135.17
 20
38.66
 11
135.17
 21
35.6
  0
LINE
  8
0
 10
135.17
 20
35.6
 11
141.29
 21
35.6
  0
LINE
  8
0
 10
141.29
 20
35.6
 11
141.29
 21
38.66
  0
LINE
  8
0
 10
141.29
 20
38.66
 11
147.41
 21
38.66
  0
LINE
  8
0
 10
147.41
 20
38.66
 11
147.41
 21
35.6
  0
LINE
  8
0
 10
147.41
 20
35.6
 11
153.53
 21
35.6
  0
LINE
  8
0
 10
153.53
 20
35.6
 11
153.53
 21
38.66
  0
LINE
  8
0
 10
153.53
 20
38.66
 11
159.65
 21
38.66
  0
LINE
  8
0
 10
159.65
 20
38.66
 11
159.65
 21
35.6
  0
LINE
  8
0
 10
159.65
 20
35.6
 11
165.77
 21
35.6
  0
LINE
  8
0
 10
165.77
 20
35.6
 11
165.77
 21
38.66
  0
LINE
  8
0
 10
165.77
 20
38.66
 11
171.89
 21
38.66
  0
LINE
  8
0
 10
171.89
 20
38.66
 11
171.89
 21
35.6
  0
LINE
  8
0
 10
171.89
 20
35.6
 11
178.01
 21
35.6
  0
LINE
  8
0
 10
178.01
 20
35.6
 11
178.01
 21
38.66
  0
LINE
  8
0
 10
178.01
 20
38.66
 11
184.13
 21
38.66
  0
LINE
  8
0
 10
184.13
 20
38.66
 11
184.13
 21
35.6
  0
LINE
  8
0
 10
184.13
 20
35.6
 11
190.25
 21
35.6
  0
LINE
  8
0
 10
190.25
 20
35.6
 11
190.25
 21
38.66
  0
LINE
  8
0
 10
190.25
 20
38.66
 11
196.37
 21
38.66
  0
LINE
  8
0
 10
196.37
 20
38.66
 11
196.37
 21
35.6
  0
LINE
  8
0
 10
196.37
 20
35.6
 11
202.49
 21
35.6
  0
LINE
  8
0
 10
202.49
 20
35.6
 11
202.49
 21
38.66
  0
LINE
  8
0
 10
202.49
 20
38.66
 11
208.61
 21
38.66
  0
LINE
  8
0
 10
208.61
 20
38.66
 11
208.61
 21
35.6
  0
LINE
  8
0
 10
208.61
 20
35.6
 11
219.38
 21
35.6
  0
LINE
  8
0
 10
219.38
 20
35.6
 11
219.38
 21
49.34
  0
LINE
  8
0
 10
219.38
 20
49.34
 11
222.44
 21
49.34
  0
LINE
  8
0
 10
222.44
 20
49.34
 11
222.44
 21
55.46
  0
LINE
  8
0
 10
222.44
 20
55.46
 11
219.38
 21
55.46
  0
LINE
  8
0
 10
219.38
 20
55.46
 11
219.38
 21
69.2
  0
LINE
  8
0
 10
219.38
 20
69.2
 11
208.61
 21
69.2
  0
LINE
  8
0
 10
208.61
 20
69.2
 11
208.61
 21
66.14
  0
LINE
  8
0
 10
208.61
 20
66.14
 11
202.49
 21
66.14
  0
LINE
  8
0
 10
202.49
 20
66.14
 11
202.49
 21
69.2
  0
LINE
  8
0
 10
202.49
 20
69.2
 11
196.37
 21
69.2
  0
LINE
  8
0
 10
196.37
 20
69.2
 11
196.37
 21
66.14
  0
LINE
  8
0
 10
196.37
 20
66.14
 11
190.25
 21
66.14
  0
LINE
  8
0
 10
190.25
 20
66.14
 11
190.25
 21
69.2
  0
LINE
  8
0
 10
190.25
 20
69.2
 11
184.13
 21
69.2
  0
LINE
  8
0
 10
184.13
 20
69.2
 11
184.13
 21
66.14
  0
LINE
  8
0
 10
184.13
 20
66.14
 11
178.01
 21
66.14
  0
LINE
  8
0
 10
178.01
 20
66.14
 11
178.01
 21
69.2
  0
LINE
  8
0
 10
178.01
 20
69.2
 11
171.89
 21
69.2
  0
LINE
  8
0
 10
171.89
 20
69.2
 11
171.89
 21
66.14
  0
LINE
  8
0
 10
171.89
 20
66.14
 11
165.77
 21
66.14
  0
LINE
  8
0
 10
165.77
 20
66.14
 11
165.77
 21
69.2
  0
LINE
  8
0
 10
165.77
 20
69.2
 11
159.65
 21
69.2
  0
LINE
  8
0
 10
159.65
 20
69.2
 11
159.65
 21
66.14
  0
LINE
  8
0
 10
159.65
 20
66.14
 11
153.53
 21
66.14
  0
LINE
  8
0
 10
153.53
 20
66.14
 11
153.53
 21
69.2
  0
LINE
  8
0
 10
153.53
 20
69.2
 11
147.41
 21
69.2
  0
LINE
  8
0
 10
147.41
 20
69.2
 11
147.41
 21
66.14
  0
LINE
  8
0
 10
147.41
 20
66.14
 11
141.29
 21
66.14
  0
LINE
  8
0
 10
141.29
 20
66.14
 11
141.29
 21
69.2
  0
LINE
  8
0
 10
141.29
 20
69.2
 11
135.17
 21
69.2
  0
LINE
  8
0
 10
135.17
 20
69.2
 11
135.17
 21
66.14
  0
LINE
  8
0
 10
135.17
 20
66.14
 11
129.05
 21
66.14
  0
LINE
  8
0
 10
129.05
 20
66.14
 11
129.05
 21
69.2
  0
LINE
  8
0
 10
129.05
 20
69.2
 11
118.28
 21
69.2
  0
LINE
  8
0
 10
118.28
 20
69.2
 11
118.28
 21
55.46
  0
LINE
  8
0
 10
118.28
 20
55.46
 11
115.22
 21
55.46
  0
LINE
  8
0
 10
115.22
 20
55.46
 11
115.22
 21
49.34
  0
LINE
  8
0
 10
115.22
 20
49.34
 11
118.28
 21
49.34
  0
LINE
  8
0
 10
118.28
 20
49.34
 11
118.28
 21
35.6
  0
LINE
  8
0
 10
118.28
 20
35.6
 11
129.05
 21
35.6
  0
LINE
  8
0
 10
129.05
 20
35.6
 11
129.05
 21
38.66
  0
LINE
  8
0
 10
-5.36002
 20
46.4
 11
-8.42001
 21
46.4
  0
LINE
  8
0
 10
-8.42001
 20
46.4
 11
-8.42001
 21
50.4
  0
LINE
  8
0
 10
-8.42001
 20
50.4
 11
-5.36002
 21
50.4
  0
LINE
  8
0
 10
-5.36002
 20
50.4
 11
-5.36002
 21
54.4
  0
LINE
  8
0
 10
-5.36002
 20
54.4
 11
-8.42001
 21
54.4
  0
LINE
  8
0
 10
-8.42001
 20
54.4
 11
-8.42001
 21
58.4
  0
LINE
  8
0
 10
-8.42001
 20
58.4
 11
-5.36002
 21
58.4
  0
LINE
  8
0
 10
-5.36002
 20
58.4
 11
-5.36002
 21
69.2
  0
LINE
  8
0
 10
-5.36002
 20
69.2
 11
-12.72
 21
69.2
  0
LINE
  8
0
 10
-12.72
 20
69.2
 11
-12.72
 21
66.14
  0
LINE
  8
0
 10
-12.72
 20
66.14
 11
-16.72
 21
66.14
  0
LINE
  8
0
 10
-16.72
 20
66.14
 11
-16.72
 21
69.2
  0
LINE
  8
0
 10
-16.72
 20
69.2
 11
-24.08
 21
69.2
  0
LINE
  8
0
 10
-24.08
 20
69.2
 11
-24.08
 21
58.4
  0
LINE
  8
0
 10
-24.08
 20
58.4
 11
-21.02
 21
58.4
  0
LINE
  8
0
 10
-21.02
 20
58.4
 11
-21.02
 21
54.4
  0
LINE
  8
0
 10
-21.02
 20
54.4
 11
-24.08
 21
54.4
  0
LINE
  8
0
 10
-24.08
 20
54.4
 11
-24.08
 21
50.4
  0
LINE
  8
0
 10
-24.08
 20
50.4
 11
-21.02
 21
50.4
  0
LINE
  8
0
 10
-21.02
 20
50.4
 11
-21.02
 21
46.4
  0
LINE
  8
0
 10
-21.02
 20
46.4
 11
-24.08
 21
46.4
  0
LINE
  8
0
 10
-24.08
 20
46.4
 11
-24.08
 21
38.66
  0
LINE
  8
0
 10
-24.08
 20
38.66
 11
-5.36002
 21
38.66
  0
LINE
  8
0
 10
-5.36002
 20
38.66
 11
-5.36002
 21
46.4
  0
LINE
  8
0
 10
-15.97
 20
50.6
 11
-15.97
 21
55.6
  0
LINE
  8
0
 10
-15.97
 20
55.6
 11
-13.47
 21
55.6
  0
LINE
  8
0
 10
-13.47
 20
55.6
 11
-13.47
 21
50.6
  0
LINE
  8
0
 10
-13.47
 20
50.6
 11
-15.97
 21
50.6
  0
LINE
  8
0
 10
-37.44
 20
38.66
 11
-33.44
 21
38.66
  0
LINE
  8
0
 10
-33.44
 20
38.66
 11
-33.44
 21
35.6
  0
LINE
  8
0
 10
-33.44
 20
35.6
 11
-29.14
 21
35.6
  0
LINE
  8
0
 10
-29.14
 20
35.6
 11
-29.14
 21
46.4
  0
LINE
  8
0
 10
-29.14
 20
46.4
 11
-26.08
 21
46.4
  0
LINE
  8
0
 10
-26.08
 20
46.4
 11
-26.08
 21
50.4
  0
LINE
  8
0
 10
-26.08
 20
50.4
 11
-29.14
 21
50.4
  0
LINE
  8
0
 10
-29.14
 20
50.4
 11
-29.14
 21
54.4
  0
LINE
  8
0
 10
-29.14
 20
54.4
 11
-26.08
 21
54.4
  0
LINE
  8
0
 10
-26.08
 20
54.4
 11
-26.08
 21
58.4
  0
LINE
  8
0
 10
-26.08
 20
58.4
 11
-29.14
 21
58.4
  0
LINE
  8
0
 10
-29.14
 20
58.4
 11
-29.14
 21
66.14
  0
LINE
  8
0
 10
-29.14
 20
66.14
 11
-41.74
 21
66.14
  0
LINE
  8
0
 10
-41.74
 20
66.14
 11
-41.74
 21
58.4
  0
LINE
  8
0
 10
-41.74
 20
58.4
 11
-44.8
 21
58.4
  0
LINE
  8
0
 10
-44.8
 20
58.4
 11
-44.8
 21
54.4
  0
LINE
  8
0
 10
-44.8
 20
54.4
 11
-41.74
 21
54.4
  0
LINE
  8
0
 10
-41.74
 20
54.4
 11
-41.74
 21
50.4
  0
LINE
  8
0
 10
-41.74
 20
50.4
 11
-44.8
 21
50.4
  0
LINE
  8
0
 10
-44.8
 20
50.4
 11
-44.8
 21
46.4
  0
LINE
  8
0
 10
-44.8
 20
46.4
 11
-41.74
 21
46.4
  0
LINE
  8
0
 10
-41.74
 20
46.4
 11
-41.74
 21
35.6
  0
LINE
  8
0
 10
-41.74
 20
35.6
 11
-37.44
 21
35.6
  0
LINE
  8
0
 10
-37.44
 20
35.6
 11
-37.44
 21
38.66
  0
LINE
  8
0
 10
-37.94
 20
49.2
 11
-37.94
 21
54.2
  0
LINE
  8
0
 10
-37.94
 20
54.2
 11
-32.94
 21
54.2
  0
LINE
  8
0
 10
-32.94
 20
54.2
 11
-32.94
 21
49.2
  0
LINE
  8
0
 10
-32.94
 20
49.2
 11
-37.94
 21
49.2
  0
LINE
  8
0
 10
-29.14
 20
10.8
 11
-26.08
 21
10.8
  0
LINE
  8
0
 10
-26.08
 20
10.8
 11
-26.08
 21
14.8
  0
LINE
  8
0
 10
-26.08
 20
14.8
 11
-29.14
 21
14.8
  0
LINE
  8
0
 10
-29.14
 20
14.8
 11
-29.14
 21
18.8
  0
LINE
  8
0
 10
-29.14
 20
18.8
 11
-26.08
 21
18.8
  0
LINE
  8
0
 10
-26.08
 20
18.8
 11
-26.08
 21
22.8
  0
LINE
  8
0
 10
-26.08
 20
22.8
 11
-29.14
 21
22.8
  0
LINE
  8
0
 10
-29.14
 20
22.8
 11
-29.14
 21
33.6
  0
LINE
  8
0
 10
-29.14
 20
33.6
 11
-33.44
 21
33.6
  0
LINE
  8
0
 10
-33.44
 20
33.6
 11
-33.44
 21
30.54
  0
LINE
  8
0
 10
-33.44
 20
30.54
 11
-37.44
 21
30.54
  0
LINE
  8
0
 10
-37.44
 20
30.54
 11
-37.44
 21
33.6
  0
LINE
  8
0
 10
-37.44
 20
33.6
 11
-41.74
 21
33.6
  0
LINE
  8
0
 10
-41.74
 20
33.6
 11
-41.74
 21
22.8
  0
LINE
  8
0
 10
-41.74
 20
22.8
 11
-44.8
 21
22.8
  0
LINE
  8
0
 10
-44.8
 20
22.8
 11
-44.8
 21
18.8
  0
LINE
  8
0
 10
-44.8
 20
18.8
 11
-41.74
 21
18.8
  0
LINE
  8
0
 10
-41.74
 20
18.8
 11
-41.74
 21
14.8
  0
LINE
  8
0
 10
-41.74
 20
14.8
 11
-44.8
 21
14.8
  0
LINE
  8
0
 10
-44.8
 20
14.8
 11
-44.8
 21
10.8
  0
LINE
  8
0
 10
-44.8
 20
10.8
 11
-41.74
 21
10.8
  0
LINE
  8
0
 10
-41.74
 20
10.8
 11
-41.74
 21
3.06
  0
LINE
  8
0
 10
-41.74
 20
3.06
 11
-29.14
 21
3.06
  0
LINE
  8
0
 10
-29.14
 20
3.06
 11
-29.14
 21
10.8
  0
LINE
  8
0
 10
129.05
 20
3.06
 11
135.17
 21
3.06
  0
LINE
  8
0
 10
135.17
 20
3.06
 11
135.17
 21
0
  0
LINE
  8
0
 10
135.17
 20
0
 11
141.29
 21
0
  0
LINE
  8
0
 10
141.29
 20
0
 11
141.29
 21
3.06
  0
LINE
  8
0
 10
141.29
 20
3.06
 11
147.41
 21
3.06
  0
LINE
  8
0
 10
147.41
 20
3.06
 11
147.41
 21
0
  0
LINE
  8
0
 10
147.41
 20
0
 11
153.53
 21
0
  0
LINE
  8
0
 10
153.53
 20
0
 11
153.53
 21
3.06
  0
LINE
  8
0
 10
153.53
 20
3.06
 11
159.65
 21
3.06
  0
LINE
  8
0
 10
159.65
 20
3.06
 11
159.65
 21
0
  0
LINE
  8
0
 10
159.65
 20
0
 11
165.77
 21
0
  0
LINE
  8
0
 10
165.77
 20
0
 11
165.77
 21
3.06
  0
LINE
  8
0
 10
165.77
 20
3.06
 11
171.89
 21
3.06
  0
LINE
  8
0
 10
171.89
 20
3.06
 11
171.89
 21
0
  0
LINE
  8
0
 10
171.89
 20
0
 11
178.01
 21
0
  0
LINE
  8
0
 10
178.01
 20
0
 11
178.01
 21
3.06
  0
LINE
  8
0
 10
178.01
 20
3.06
 11
184.13
 21
3.06
  0
LINE
  8
0
 10
184.13
 20
3.06
 11
184.13
 21
0
  0
LINE
  8
0
 10
184.13
 20
0
 11
190.25
 21
0
  0
LINE
  8
0
 10
190.25
 20
0
 11
190.25
 21
3.06
  0
LINE
  8
0
 10
190.25
 20
3.06
 11
196.37
 21
3.06
  0
LINE
  8
0
 10
196.37
 20
3.06
 11
196.37
 21
0
  0
LINE
  8
0
 10
196.37
 20
0
 11
202.49
 21
0
  0
LINE
  8
0
 10
202.49
 20
0
 11
202.49
 21
3.06
  0
LINE
  8
0
 10
202.49
 20
3.06
 11
208.61
 21
3.06
  0
LINE
  8
0
 10
208.61
 20
3.06
 11
208.61
 21
0
  0
LINE
  8
0
 10
208.61
 20
0
 11
219.38
 21
0
  0
LINE
  8
0
 10
219.38
 20
0
 11
219.38
 21
13.74
  0
LINE
  8
0
 10
219.38
 20
13.74
 11
222.44
 21
13.74
  0
LINE
  8
0
 10
222.44
 20
13.74
 11
222.44
 21
19.86
  0
LINE
  8
0
 10
222.44
 20
19.86
 11
219.38
 21
19.86
  0
LINE
  8
0
 10
219.38
 20
19.86
 11
219.38
 21
33.6
  0
LINE
  8
0
 10
219.38
 20
33.6
 11
208.61
 21
33.6
  0
LINE
  8
0
 10
208.61
 20
33.6
 11
208.61
 21
30.54
  0
LINE
  8
0
 10
208.61
 20
30.54
 11
202.49
 21
30.54
  0
LINE
  8
0
 10
202.49
 20
30.54
 11
202.49
 21
33.6
  0
LINE
  8
0
 10
202.49
 20
33.6
 11
196.37
 21
33.6
  0
LINE
  8
0
 10
196.37
 20
33.6
 11
196.37
 21
30.54
  0
LINE
  8
0
 10
196.37
 20
30.54
 11
190.25
 21
30.54
  0
LINE
  8
0
 10
190.25
 20
30.54
 11
190.25
 21
33.6
  0
LINE
  8
0
 10
190.25
 20
33.6
 11
184.13
 21
33.6
  0
LINE
  8
0
 10
184.13
 20
33.6
 11
184.13
 21
30.54
  0
LINE
  8
0
 10
184.13
 20
30.54
 11
178.01
 21
30.54
  0
LINE
  8
0
 10
178.01
 20
30.54
 11
178.01
 21
33.6
  0
LINE
  8
0
 10
178.01
 20
33.6
 11
171.89
 21
33.6
  0
LINE
  8
0
 10
171.89
 20
33.6
 11
171.89
 21
30.54
  0
LINE
  8
0
 10
171.89
 20
30.54
 11
165.77
 21
30.54
  0
LINE
  8
0
 10
165.77
 20
30.54
 11
165.77
 21
33.6
  0
LINE
  8
0
 10
165.77
 20
33.6
 11
159.65
 21
33.6
  0
LINE
  8
0
 10
159.65
 20
33.6
 11
159.65
 21
30.54
  0
LINE
  8
0
 10
159.65
 20
30.54
 11
153.53
 21
30.54
  0
LINE
  8
0
 10
153.53
 20
30.54
 11
153.53
 21
33.6
  0
LINE
  8
0
 10
153.53
 20
33.6
 11
147.41
 21
33.6
  0
LINE
  8
0
 10
147.41
 20
33.6
 11
147.41
 21
30.54
  0
LINE
  8
0
 10
147.41
 20
30.54
 11
141.29
 21
30.54
  0
LINE
  8
0
 10
141.29
 20
30.54
 11
141.29
 21
33.6
  0
LINE
  8
0
 10
141.29
 20
33.6
 11
135.17
 21
33.6
  0
LINE
  8
0
 10
135.17
 20
33.6
 11
135.17
 21
30.54
  0
LINE
  8
0
 10
135.17
 20
30.54
 11
129.05
 21
30.54
  0
LINE
  8
0
 10
129.05
 20
30.54
 11
129.05
 21
33.6
  0
LINE
  8
0
 10
129.05
 20
33.6
 11
118.28
 21
33.6
  0
LINE
  8
0
 10
118.28
 20
33.6
 11
118.28
 21
19.86
  0
LINE
  8
0
 10
118.28
 20
19.86
 11
115.22
 21
19.86
  0
LINE
  8
0
 10
115.22
 20
19.86
 11
115.22
 21
13.74
  0
LINE
  8
0
 10
115.22
 20
13.74
 11
118.28
 21
13.74
  0
LINE
  8
0
 10
118.28
 20
13.74
 11
118.28
 21
0
  0
LINE
  8
0
 10
118.28
 20
0
 11
129.05
 21
0
  0
LINE
  8
0
 10
129.05
 20
0
 11
129.05
 21
3.06
  0
LINE
  8
0
 10
-16.72
 20
3.06
 11
-12.72
 21
3.06
  0
LINE
  8
0
 10
-12.72
 20
3.06
 11
-12.72
 21
0
  0
LINE
  8
0
 10
-12.72
 20
0
 11
-5.36002
 21
0
  0
LINE
  8
0
 10
-5.36002
 20
0
 11
-5.36002
 21
10.8
  0
LINE
  8
0
 10
-5.36002
 20
10.8
 11
-8.42001
 21
10.8
  0
LINE
  8
0
 10
-8.42001
 20
10.8
 11
-8.42001
 21
14.8
  0
LINE
  8
0
 10
-8.42001
 20
14.8
 11
-5.36002
 21
14.8
  0
LINE
  8
0
 10
-5.36002
 20
14.8
 11
-5.36002
 21
18.8
  0
LINE
  8
0
 10
-5.36002
 20
18.8
 11
-8.42001
 21
18.8
  0
LINE
  8
0
 10
-8.42001
 20
18.8
 11
-8.42001
 21
22.8
  0
LINE
  8
0
 10
-8.42001
 20
22.8
 11
-5.36002
 21
22.8
  0
LINE
  8
0
 10
-5.36002
 20
22.8
 11
-5.36002
 21
30.54
  0
LINE
  8
0
 10
-5.36002
 20
30.54
 11
-24.08
 21
30.54
  0
LINE
  8
0
 10
-24.08
 20
30.54
 11
-24.08
 21
22.8
  0
LINE
  8
0
 10
-24.08
 20
22.8
 11
-21.02
 21
22.8
  0
LINE
  8
0
 10
-21.02
 20
22.8
 11
-21.02
 21
18.8
  0
LINE
  8
0
 10
-21.02
 20
18.8
 11
-24.08
 21
18.8
  0
LINE
  8
0
 10
-24.08
 20
18.8
 11
-24.08
 21
14.8
  0
LINE
  8
0
 10
-24.08
 20
14.8
 11
-21.02
 21
14.8
  0
LINE
  8
0
 10
-21.02
 20
14.8
 11
-21.02
 21
10.8
  0
LINE
  8
0
 10
-21.02
 20
10.8
 11
-24.08
 21
10.8
  0
LINE
  8
0
 10
-24.08
 20
10.8
 11
-24.08
 21
0
  0
LINE
  8
0
 10
-24.08
 20
0
 11
-16.72
 21
0
  0
LINE
  8
0
 10
-16.72
 20
0
 11
-16.72
 21
3.06
  0
LINE
  8
0
 10
-15.97
 20
13.6
 11
-15.97
 21
18.6
  0
LINE
  8
0
 10
-15.97
 20
18.6
 11
-13.47
 21
18.6
  0
LINE
  8
0
 10
-13.47
 20
18.6
 11
-13.47
 21
13.6
  0
LINE
  8
0
 10
-13.47
 20
13.6
 11
-15.97
 21
13.6
  0
ENDSEC
  0
SECTION
  2
OBJECTS
  0
DICTIONARY
  0
ENDSEC
  0
EOF
