  0
SECTION
  2
BLOCKS
  0
ENDSEC
  0
SECTION
  2
ENTITIES
  0
LINE
  8
0
 10
113.4
 20
177.8
 11
0
 21
177.8
  0
LINE
  8
0
 10
0
 20
177.8
 11
0
 21
89.9
  0
LINE
  8
0
 10
0
 20
89.9
 11
113.4
 21
89.9
  0
LINE
  8
0
 10
113.4
 20
89.9
 11
113.4
 21
177.8
  0
LINE
  8
0
 10
3
 20
162.2
 11
3
 21
174.8
  0
LINE
  8
0
 10
3
 20
174.8
 11
15.75
 21
174.8
  0
LINE
  8
0
 10
15.75
 20
174.8
 11
15.75
 21
171.65
  0
LINE
  8
0
 10
15.75
 20
171.65
 11
6.14999
 21
171.65
  0
LINE
  8
0
 10
6.14999
 20
171.65
 11
6.14999
 21
162.2
  0
LINE
  8
0
 10
6.14999
 20
162.2
 11
3
 21
162.2
  0
LINE
  8
0
 10
47.25
 20
171.65
 11
47.25
 21
174.8
  0
LINE
  8
0
 10
47.25
 20
174.8
 11
53.55
 21
174.8
  0
LINE
  8
0
 10
53.55
 20
174.8
 11
53.55
 21
171.65
  0
LINE
  8
0
 10
53.55
 20
171.65
 11
47.25
 21
171.65
  0
LINE
  8
0
 10
22.05
 20
171.65
 11
22.05
 21
174.8
  0
LINE
  8
0
 10
22.05
 20
174.8
 11
28.35
 21
174.8
  0
LINE
  8
0
 10
28.35
 20
174.8
 11
28.35
 21
171.65
  0
LINE
  8
0
 10
28.35
 20
171.65
 11
22.05
 21
171.65
  0
LINE
  8
0
 10
34.65
 20
171.65
 11
34.65
 21
174.8
  0
LINE
  8
0
 10
34.65
 20
174.8
 11
40.95
 21
174.8
  0
LINE
  8
0
 10
40.95
 20
174.8
 11
40.95
 21
171.65
  0
LINE
  8
0
 10
40.95
 20
171.65
 11
34.65
 21
171.65
  0
LINE
  8
0
 10
107.25
 20
162.2
 11
107.25
 21
171.65
  0
LINE
  8
0
 10
107.25
 20
171.65
 11
97.65
 21
171.65
  0
LINE
  8
0
 10
97.65
 20
171.65
 11
97.65
 21
174.8
  0
LINE
  8
0
 10
97.65
 20
174.8
 11
110.4
 21
174.8
  0
LINE
  8
0
 10
110.4
 20
174.8
 11
110.4
 21
162.2
  0
LINE
  8
0
 10
110.4
 20
162.2
 11
107.25
 21
162.2
  0
LINE
  8
0
 10
85.05
 20
171.65
 11
85.05
 21
174.8
  0
LINE
  8
0
 10
85.05
 20
174.8
 11
91.35
 21
174.8
  0
LINE
  8
0
 10
91.35
 20
174.8
 11
91.35
 21
171.65
  0
LINE
  8
0
 10
91.35
 20
171.65
 11
85.05
 21
171.65
  0
LINE
  8
0
 10
72.45
 20
171.65
 11
72.45
 21
174.8
  0
LINE
  8
0
 10
72.45
 20
174.8
 11
78.75
 21
174.8
  0
LINE
  8
0
 10
78.75
 20
174.8
 11
78.75
 21
171.65
  0
LINE
  8
0
 10
78.75
 20
171.65
 11
72.45
 21
171.65
  0
LINE
  8
0
 10
59.85
 20
171.65
 11
59.85
 21
174.8
  0
LINE
  8
0
 10
59.85
 20
174.8
 11
66.15
 21
174.8
  0
LINE
  8
0
 10
66.15
 20
174.8
 11
66.15
 21
171.65
  0
LINE
  8
0
 10
66.15
 20
171.65
 11
59.85
 21
171.65
  0
LINE
  8
0
 10
102.15
 20
165.32
 11
101.906
 21
165.378
  0
LINE
  8
0
 10
101.906
 20
165.378
 11
101.674
 21
165.474
  0
LINE
  8
0
 10
101.674
 20
165.474
 11
101.46
 21
165.606
  0
LINE
  8
0
 10
101.46
 20
165.606
 11
101.269
 21
165.769
  0
LINE
  8
0
 10
101.269
 20
165.769
 11
101.106
 21
165.96
  0
LINE
  8
0
 10
101.106
 20
165.96
 11
100.974
 21
166.174
  0
LINE
  8
0
 10
100.974
 20
166.174
 11
100.878
 21
166.406
  0
LINE
  8
0
 10
100.878
 20
166.406
 11
100.82
 21
166.65
  0
LINE
  8
0
 10
100.82
 20
166.65
 11
100.8
 21
166.9
  0
LINE
  8
0
 10
100.8
 20
166.9
 11
100.82
 21
167.15
  0
LINE
  8
0
 10
100.82
 20
167.15
 11
100.878
 21
167.394
  0
LINE
  8
0
 10
100.878
 20
167.394
 11
100.974
 21
167.626
  0
LINE
  8
0
 10
100.974
 20
167.626
 11
101.106
 21
167.84
  0
LINE
  8
0
 10
101.106
 20
167.84
 11
101.269
 21
168.031
  0
LINE
  8
0
 10
101.269
 20
168.031
 11
101.46
 21
168.194
  0
LINE
  8
0
 10
101.46
 20
168.194
 11
101.674
 21
168.326
  0
LINE
  8
0
 10
101.674
 20
168.326
 11
101.906
 21
168.422
  0
LINE
  8
0
 10
101.906
 20
168.422
 11
102.15
 21
168.48
  0
LINE
  8
0
 10
102.15
 20
168.48
 11
102.4
 21
168.5
  0
LINE
  8
0
 10
102.4
 20
168.5
 11
102.65
 21
168.48
  0
LINE
  8
0
 10
102.65
 20
168.48
 11
102.894
 21
168.422
  0
LINE
  8
0
 10
102.894
 20
168.422
 11
103.126
 21
168.326
  0
LINE
  8
0
 10
103.126
 20
168.326
 11
103.34
 21
168.194
  0
LINE
  8
0
 10
103.34
 20
168.194
 11
103.531
 21
168.031
  0
LINE
  8
0
 10
103.531
 20
168.031
 11
103.694
 21
167.84
  0
LINE
  8
0
 10
103.694
 20
167.84
 11
103.826
 21
167.626
  0
LINE
  8
0
 10
103.826
 20
167.626
 11
103.922
 21
167.394
  0
LINE
  8
0
 10
103.922
 20
167.394
 11
103.98
 21
167.15
  0
LINE
  8
0
 10
103.98
 20
167.15
 11
104
 21
166.9
  0
LINE
  8
0
 10
104
 20
166.9
 11
103.98
 21
166.65
  0
LINE
  8
0
 10
103.98
 20
166.65
 11
103.922
 21
166.406
  0
LINE
  8
0
 10
103.922
 20
166.406
 11
103.826
 21
166.174
  0
LINE
  8
0
 10
103.826
 20
166.174
 11
103.694
 21
165.96
  0
LINE
  8
0
 10
103.694
 20
165.96
 11
103.531
 21
165.769
  0
LINE
  8
0
 10
103.531
 20
165.769
 11
103.34
 21
165.606
  0
LINE
  8
0
 10
103.34
 20
165.606
 11
103.126
 21
165.474
  0
LINE
  8
0
 10
103.126
 20
165.474
 11
102.894
 21
165.378
  0
LINE
  8
0
 10
102.894
 20
165.378
 11
102.65
 21
165.32
  0
LINE
  8
0
 10
102.65
 20
165.32
 11
102.4
 21
165.3
  0
LINE
  8
0
 10
102.4
 20
165.3
 11
102.15
 21
165.32
  0
LINE
  8
0
 10
10.7097
 20
165.32
 11
10.4656
 21
165.378
  0
LINE
  8
0
 10
10.4656
 20
165.378
 11
10.2336
 21
165.474
  0
LINE
  8
0
 10
10.2336
 20
165.474
 11
10.0195
 21
165.606
  0
LINE
  8
0
 10
10.0195
 20
165.606
 11
9.82863
 21
165.769
  0
LINE
  8
0
 10
9.82863
 20
165.769
 11
9.66556
 21
165.96
  0
LINE
  8
0
 10
9.66556
 20
165.96
 11
9.53438
 21
166.174
  0
LINE
  8
0
 10
9.53438
 20
166.174
 11
9.43831
 21
166.406
  0
LINE
  8
0
 10
9.43831
 20
166.406
 11
9.37968
 21
166.65
  0
LINE
  8
0
 10
9.37968
 20
166.65
 11
9.35999
 21
166.9
  0
LINE
  8
0
 10
9.35999
 20
166.9
 11
9.37968
 21
167.15
  0
LINE
  8
0
 10
9.37968
 20
167.15
 11
9.43831
 21
167.394
  0
LINE
  8
0
 10
9.43831
 20
167.394
 11
9.53438
 21
167.626
  0
LINE
  8
0
 10
9.53438
 20
167.626
 11
9.66556
 21
167.84
  0
LINE
  8
0
 10
9.66556
 20
167.84
 11
9.82863
 21
168.031
  0
LINE
  8
0
 10
9.82863
 20
168.031
 11
10.0195
 21
168.194
  0
LINE
  8
0
 10
10.0195
 20
168.194
 11
10.2336
 21
168.326
  0
LINE
  8
0
 10
10.2336
 20
168.326
 11
10.4656
 21
168.422
  0
LINE
  8
0
 10
10.4656
 20
168.422
 11
10.7097
 21
168.48
  0
LINE
  8
0
 10
10.7097
 20
168.48
 11
10.96
 21
168.5
  0
LINE
  8
0
 10
10.96
 20
168.5
 11
11.2103
 21
168.48
  0
LINE
  8
0
 10
11.2103
 20
168.48
 11
11.4544
 21
168.422
  0
LINE
  8
0
 10
11.4544
 20
168.422
 11
11.6864
 21
168.326
  0
LINE
  8
0
 10
11.6864
 20
168.326
 11
11.9005
 21
168.194
  0
LINE
  8
0
 10
11.9005
 20
168.194
 11
12.0914
 21
168.031
  0
LINE
  8
0
 10
12.0914
 20
168.031
 11
12.2544
 21
167.84
  0
LINE
  8
0
 10
12.2544
 20
167.84
 11
12.3856
 21
167.626
  0
LINE
  8
0
 10
12.3856
 20
167.626
 11
12.4817
 21
167.394
  0
LINE
  8
0
 10
12.4817
 20
167.394
 11
12.5403
 21
167.15
  0
LINE
  8
0
 10
12.5403
 20
167.15
 11
12.56
 21
166.9
  0
LINE
  8
0
 10
12.56
 20
166.9
 11
12.5403
 21
166.65
  0
LINE
  8
0
 10
12.5403
 20
166.65
 11
12.4817
 21
166.406
  0
LINE
  8
0
 10
12.4817
 20
166.406
 11
12.3856
 21
166.174
  0
LINE
  8
0
 10
12.3856
 20
166.174
 11
12.2544
 21
165.96
  0
LINE
  8
0
 10
12.2544
 20
165.96
 11
12.0914
 21
165.769
  0
LINE
  8
0
 10
12.0914
 20
165.769
 11
11.9005
 21
165.606
  0
LINE
  8
0
 10
11.9005
 20
165.606
 11
11.6864
 21
165.474
  0
LINE
  8
0
 10
11.6864
 20
165.474
 11
11.4544
 21
165.378
  0
LINE
  8
0
 10
11.4544
 20
165.378
 11
11.2103
 21
165.32
  0
LINE
  8
0
 10
11.2103
 20
165.32
 11
10.96
 21
165.3
  0
LINE
  8
0
 10
10.96
 20
165.3
 11
10.7097
 21
165.32
  0
LINE
  8
0
 10
20.55
 20
137.55
 11
20.55
 21
162.65
  0
LINE
  8
0
 10
20.55
 20
162.65
 11
92.15
 21
162.65
  0
LINE
  8
0
 10
92.15
 20
162.65
 11
92.15
 21
137.55
  0
LINE
  8
0
 10
92.15
 20
137.55
 11
20.55
 21
137.55
  0
LINE
  8
0
 10
107.25
 20
149.6
 11
107.25
 21
155.9
  0
LINE
  8
0
 10
107.25
 20
155.9
 11
110.4
 21
155.9
  0
LINE
  8
0
 10
110.4
 20
155.9
 11
110.4
 21
149.6
  0
LINE
  8
0
 10
110.4
 20
149.6
 11
107.25
 21
149.6
  0
LINE
  8
0
 10
3
 20
149.6
 11
3
 21
155.9
  0
LINE
  8
0
 10
3
 20
155.9
 11
6.14999
 21
155.9
  0
LINE
  8
0
 10
6.14999
 20
155.9
 11
6.14999
 21
149.6
  0
LINE
  8
0
 10
6.14999
 20
149.6
 11
3
 21
149.6
  0
LINE
  8
0
 10
107.25
 20
137
 11
107.25
 21
143.3
  0
LINE
  8
0
 10
107.25
 20
143.3
 11
110.4
 21
143.3
  0
LINE
  8
0
 10
110.4
 20
143.3
 11
110.4
 21
137
  0
LINE
  8
0
 10
110.4
 20
137
 11
107.25
 21
137
  0
LINE
  8
0
 10
3
 20
137
 11
3
 21
143.3
  0
LINE
  8
0
 10
3
 20
143.3
 11
6.14999
 21
143.3
  0
LINE
  8
0
 10
6.14999
 20
143.3
 11
6.14999
 21
137
  0
LINE
  8
0
 10
6.14999
 20
137
 11
3
 21
137
  0
LINE
  8
0
 10
107.25
 20
124.4
 11
107.25
 21
130.7
  0
LINE
  8
0
 10
107.25
 20
130.7
 11
110.4
 21
130.7
  0
LINE
  8
0
 10
110.4
 20
130.7
 11
110.4
 21
124.4
  0
LINE
  8
0
 10
110.4
 20
124.4
 11
107.25
 21
124.4
  0
LINE
  8
0
 10
3
 20
124.4
 11
3
 21
130.7
  0
LINE
  8
0
 10
3
 20
130.7
 11
6.14999
 21
130.7
  0
LINE
  8
0
 10
6.14999
 20
130.7
 11
6.14999
 21
124.4
  0
LINE
  8
0
 10
6.14999
 20
124.4
 11
3
 21
124.4
  0
LINE
  8
0
 10
41.3325
 20
99.9825
 11
41.3325
 21
107.432
  0
LINE
  8
0
 10
41.3325
 20
107.432
 11
44.4825
 21
107.432
  0
LINE
  8
0
 10
44.4825
 20
107.432
 11
44.4825
 21
111.432
  0
LINE
  8
0
 10
44.4825
 20
111.432
 11
41.3325
 21
111.432
  0
LINE
  8
0
 10
41.3325
 20
111.432
 11
41.3325
 21
118.882
  0
LINE
  8
0
 10
41.3325
 20
118.882
 11
48.7825
 21
118.882
  0
LINE
  8
0
 10
48.7825
 20
118.882
 11
48.7825
 21
115.732
  0
LINE
  8
0
 10
48.7825
 20
115.732
 11
52.7825
 21
115.732
  0
LINE
  8
0
 10
52.7825
 20
115.732
 11
52.7825
 21
118.882
  0
LINE
  8
0
 10
52.7825
 20
118.882
 11
60.2325
 21
118.882
  0
LINE
  8
0
 10
60.2325
 20
118.882
 11
60.2325
 21
111.432
  0
LINE
  8
0
 10
60.2325
 20
111.432
 11
57.0825
 21
111.432
  0
LINE
  8
0
 10
57.0825
 20
111.432
 11
57.0825
 21
107.432
  0
LINE
  8
0
 10
57.0825
 20
107.432
 11
60.2325
 21
107.432
  0
LINE
  8
0
 10
60.2325
 20
107.432
 11
60.2325
 21
99.9825
  0
LINE
  8
0
 10
60.2325
 20
99.9825
 11
52.7825
 21
99.9825
  0
LINE
  8
0
 10
52.7825
 20
99.9825
 11
52.7825
 21
103.132
  0
LINE
  8
0
 10
52.7825
 20
103.132
 11
48.7825
 21
103.132
  0
LINE
  8
0
 10
48.7825
 20
103.132
 11
48.7825
 21
99.9825
  0
LINE
  8
0
 10
48.7825
 20
99.9825
 11
41.3325
 21
99.9825
  0
LINE
  8
0
 10
3
 20
111.8
 11
3
 21
118.1
  0
LINE
  8
0
 10
3
 20
118.1
 11
6.14999
 21
118.1
  0
LINE
  8
0
 10
6.14999
 20
118.1
 11
6.14999
 21
111.8
  0
LINE
  8
0
 10
6.14999
 20
111.8
 11
3
 21
111.8
  0
LINE
  8
0
 10
107.25
 20
111.8
 11
107.25
 21
118.1
  0
LINE
  8
0
 10
107.25
 20
118.1
 11
110.4
 21
118.1
  0
LINE
  8
0
 10
110.4
 20
118.1
 11
110.4
 21
111.8
  0
LINE
  8
0
 10
110.4
 20
111.8
 11
107.25
 21
111.8
  0
LINE
  8
0
 10
91.5742
 20
105.709
 11
90.9639
 21
105.856
  0
LINE
  8
0
 10
90.9639
 20
105.856
 11
90.384
 21
106.096
  0
LINE
  8
0
 10
90.384
 20
106.096
 11
89.8488
 21
106.424
  0
LINE
  8
0
 10
89.8488
 20
106.424
 11
89.3716
 21
106.832
  0
LINE
  8
0
 10
89.3716
 20
106.832
 11
88.9639
 21
107.309
  0
LINE
  8
0
 10
88.9639
 20
107.309
 11
88.636
 21
107.844
  0
LINE
  8
0
 10
88.636
 20
107.844
 11
88.3958
 21
108.424
  0
LINE
  8
0
 10
88.3958
 20
108.424
 11
88.2492
 21
109.034
  0
LINE
  8
0
 10
88.2492
 20
109.034
 11
88.2
 21
109.66
  0
LINE
  8
0
 10
88.2
 20
109.66
 11
88.2492
 21
110.286
  0
LINE
  8
0
 10
88.2492
 20
110.286
 11
88.3958
 21
110.896
  0
LINE
  8
0
 10
88.3958
 20
110.896
 11
88.636
 21
111.476
  0
LINE
  8
0
 10
88.636
 20
111.476
 11
88.9639
 21
112.011
  0
LINE
  8
0
 10
88.9639
 20
112.011
 11
89.3716
 21
112.488
  0
LINE
  8
0
 10
89.3716
 20
112.488
 11
89.8488
 21
112.896
  0
LINE
  8
0
 10
89.8488
 20
112.896
 11
90.384
 21
113.224
  0
LINE
  8
0
 10
90.384
 20
113.224
 11
90.9639
 21
113.464
  0
LINE
  8
0
 10
90.9639
 20
113.464
 11
91.5742
 21
113.611
  0
LINE
  8
0
 10
91.5742
 20
113.611
 11
92.2
 21
113.66
  0
LINE
  8
0
 10
92.2
 20
113.66
 11
92.8257
 21
113.611
  0
LINE
  8
0
 10
92.8257
 20
113.611
 11
93.4361
 21
113.464
  0
LINE
  8
0
 10
93.4361
 20
113.464
 11
94.016
 21
113.224
  0
LINE
  8
0
 10
94.016
 20
113.224
 11
94.5511
 21
112.896
  0
LINE
  8
0
 10
94.5511
 20
112.896
 11
95.0284
 21
112.488
  0
LINE
  8
0
 10
95.0284
 20
112.488
 11
95.4361
 21
112.011
  0
LINE
  8
0
 10
95.4361
 20
112.011
 11
95.764
 21
111.476
  0
LINE
  8
0
 10
95.764
 20
111.476
 11
96.0042
 21
110.896
  0
LINE
  8
0
 10
96.0042
 20
110.896
 11
96.1507
 21
110.286
  0
LINE
  8
0
 10
96.1507
 20
110.286
 11
96.2
 21
109.66
  0
LINE
  8
0
 10
96.2
 20
109.66
 11
96.1507
 21
109.034
  0
LINE
  8
0
 10
96.1507
 20
109.034
 11
96.0042
 21
108.424
  0
LINE
  8
0
 10
96.0042
 20
108.424
 11
95.764
 21
107.844
  0
LINE
  8
0
 10
95.764
 20
107.844
 11
95.4361
 21
107.309
  0
LINE
  8
0
 10
95.4361
 20
107.309
 11
95.0284
 21
106.832
  0
LINE
  8
0
 10
95.0284
 20
106.832
 11
94.5511
 21
106.424
  0
LINE
  8
0
 10
94.5511
 20
106.424
 11
94.016
 21
106.096
  0
LINE
  8
0
 10
94.016
 20
106.096
 11
93.4361
 21
105.856
  0
LINE
  8
0
 10
93.4361
 20
105.856
 11
92.8257
 21
105.709
  0
LINE
  8
0
 10
92.8257
 20
105.709
 11
92.2
 21
105.66
  0
LINE
  8
0
 10
92.2
 20
105.66
 11
91.5742
 21
105.709
  0
LINE
  8
0
 10
97.65
 20
92.9
 11
97.65
 21
96.05
  0
LINE
  8
0
 10
97.65
 20
96.05
 11
107.25
 21
96.05
  0
LINE
  8
0
 10
107.25
 20
96.05
 11
107.25
 21
105.5
  0
LINE
  8
0
 10
107.25
 20
105.5
 11
110.4
 21
105.5
  0
LINE
  8
0
 10
110.4
 20
105.5
 11
110.4
 21
92.9
  0
LINE
  8
0
 10
110.4
 20
92.9
 11
97.65
 21
92.9
  0
LINE
  8
0
 10
3
 20
92.9
 11
3
 21
105.5
  0
LINE
  8
0
 10
3
 20
105.5
 11
6.14999
 21
105.5
  0
LINE
  8
0
 10
6.14999
 20
105.5
 11
6.14999
 21
96.05
  0
LINE
  8
0
 10
6.14999
 20
96.05
 11
15.75
 21
96.05
  0
LINE
  8
0
 10
15.75
 20
96.05
 11
15.75
 21
92.9
  0
LINE
  8
0
 10
15.75
 20
92.9
 11
3
 21
92.9
  0
LINE
  8
0
 10
102.15
 20
99.2797
 11
101.906
 21
99.3383
  0
LINE
  8
0
 10
101.906
 20
99.3383
 11
101.674
 21
99.4344
  0
LINE
  8
0
 10
101.674
 20
99.4344
 11
101.46
 21
99.5656
  0
LINE
  8
0
 10
101.46
 20
99.5656
 11
101.269
 21
99.7286
  0
LINE
  8
0
 10
101.269
 20
99.7286
 11
101.106
 21
99.9195
  0
LINE
  8
0
 10
101.106
 20
99.9195
 11
100.974
 21
100.134
  0
LINE
  8
0
 10
100.974
 20
100.134
 11
100.878
 21
100.366
  0
LINE
  8
0
 10
100.878
 20
100.366
 11
100.82
 21
100.61
  0
LINE
  8
0
 10
100.82
 20
100.61
 11
100.8
 21
100.86
  0
LINE
  8
0
 10
100.8
 20
100.86
 11
100.82
 21
101.11
  0
LINE
  8
0
 10
100.82
 20
101.11
 11
100.878
 21
101.354
  0
LINE
  8
0
 10
100.878
 20
101.354
 11
100.974
 21
101.586
  0
LINE
  8
0
 10
100.974
 20
101.586
 11
101.106
 21
101.8
  0
LINE
  8
0
 10
101.106
 20
101.8
 11
101.269
 21
101.991
  0
LINE
  8
0
 10
101.269
 20
101.991
 11
101.46
 21
102.154
  0
LINE
  8
0
 10
101.46
 20
102.154
 11
101.674
 21
102.286
  0
LINE
  8
0
 10
101.674
 20
102.286
 11
101.906
 21
102.382
  0
LINE
  8
0
 10
101.906
 20
102.382
 11
102.15
 21
102.44
  0
LINE
  8
0
 10
102.15
 20
102.44
 11
102.4
 21
102.46
  0
LINE
  8
0
 10
102.4
 20
102.46
 11
102.65
 21
102.44
  0
LINE
  8
0
 10
102.65
 20
102.44
 11
102.894
 21
102.382
  0
LINE
  8
0
 10
102.894
 20
102.382
 11
103.126
 21
102.286
  0
LINE
  8
0
 10
103.126
 20
102.286
 11
103.34
 21
102.154
  0
LINE
  8
0
 10
103.34
 20
102.154
 11
103.531
 21
101.991
  0
LINE
  8
0
 10
103.531
 20
101.991
 11
103.694
 21
101.8
  0
LINE
  8
0
 10
103.694
 20
101.8
 11
103.826
 21
101.586
  0
LINE
  8
0
 10
103.826
 20
101.586
 11
103.922
 21
101.354
  0
LINE
  8
0
 10
103.922
 20
101.354
 11
103.98
 21
101.11
  0
LINE
  8
0
 10
103.98
 20
101.11
 11
104
 21
100.86
  0
LINE
  8
0
 10
104
 20
100.86
 11
103.98
 21
100.61
  0
LINE
  8
0
 10
103.98
 20
100.61
 11
103.922
 21
100.366
  0
LINE
  8
0
 10
103.922
 20
100.366
 11
103.826
 21
100.134
  0
LINE
  8
0
 10
103.826
 20
100.134
 11
103.694
 21
99.9195
  0
LINE
  8
0
 10
103.694
 20
99.9195
 11
103.531
 21
99.7286
  0
LINE
  8
0
 10
103.531
 20
99.7286
 11
103.34
 21
99.5656
  0
LINE
  8
0
 10
103.34
 20
99.5656
 11
103.126
 21
99.4344
  0
LINE
  8
0
 10
103.126
 20
99.4344
 11
102.894
 21
99.3383
  0
LINE
  8
0
 10
102.894
 20
99.3383
 11
102.65
 21
99.2797
  0
LINE
  8
0
 10
102.65
 20
99.2797
 11
102.4
 21
99.26
  0
LINE
  8
0
 10
102.4
 20
99.26
 11
102.15
 21
99.2797
  0
LINE
  8
0
 10
10.7097
 20
99.2797
 11
10.4656
 21
99.3383
  0
LINE
  8
0
 10
10.4656
 20
99.3383
 11
10.2336
 21
99.4344
  0
LINE
  8
0
 10
10.2336
 20
99.4344
 11
10.0195
 21
99.5656
  0
LINE
  8
0
 10
10.0195
 20
99.5656
 11
9.82863
 21
99.7286
  0
LINE
  8
0
 10
9.82863
 20
99.7286
 11
9.66556
 21
99.9195
  0
LINE
  8
0
 10
9.66556
 20
99.9195
 11
9.53438
 21
100.134
  0
LINE
  8
0
 10
9.53438
 20
100.134
 11
9.43831
 21
100.366
  0
LINE
  8
0
 10
9.43831
 20
100.366
 11
9.37968
 21
100.61
  0
LINE
  8
0
 10
9.37968
 20
100.61
 11
9.35999
 21
100.86
  0
LINE
  8
0
 10
9.35999
 20
100.86
 11
9.37968
 21
101.11
  0
LINE
  8
0
 10
9.37968
 20
101.11
 11
9.43831
 21
101.354
  0
LINE
  8
0
 10
9.43831
 20
101.354
 11
9.53438
 21
101.586
  0
LINE
  8
0
 10
9.53438
 20
101.586
 11
9.66556
 21
101.8
  0
LINE
  8
0
 10
9.66556
 20
101.8
 11
9.82863
 21
101.991
  0
LINE
  8
0
 10
9.82863
 20
101.991
 11
10.0195
 21
102.154
  0
LINE
  8
0
 10
10.0195
 20
102.154
 11
10.2336
 21
102.286
  0
LINE
  8
0
 10
10.2336
 20
102.286
 11
10.4656
 21
102.382
  0
LINE
  8
0
 10
10.4656
 20
102.382
 11
10.7097
 21
102.44
  0
LINE
  8
0
 10
10.7097
 20
102.44
 11
10.96
 21
102.46
  0
LINE
  8
0
 10
10.96
 20
102.46
 11
11.2103
 21
102.44
  0
LINE
  8
0
 10
11.2103
 20
102.44
 11
11.4544
 21
102.382
  0
LINE
  8
0
 10
11.4544
 20
102.382
 11
11.6864
 21
102.286
  0
LINE
  8
0
 10
11.6864
 20
102.286
 11
11.9005
 21
102.154
  0
LINE
  8
0
 10
11.9005
 20
102.154
 11
12.0914
 21
101.991
  0
LINE
  8
0
 10
12.0914
 20
101.991
 11
12.2544
 21
101.8
  0
LINE
  8
0
 10
12.2544
 20
101.8
 11
12.3856
 21
101.586
  0
LINE
  8
0
 10
12.3856
 20
101.586
 11
12.4817
 21
101.354
  0
LINE
  8
0
 10
12.4817
 20
101.354
 11
12.5403
 21
101.11
  0
LINE
  8
0
 10
12.5403
 20
101.11
 11
12.56
 21
100.86
  0
LINE
  8
0
 10
12.56
 20
100.86
 11
12.5403
 21
100.61
  0
LINE
  8
0
 10
12.5403
 20
100.61
 11
12.4817
 21
100.366
  0
LINE
  8
0
 10
12.4817
 20
100.366
 11
12.3856
 21
100.134
  0
LINE
  8
0
 10
12.3856
 20
100.134
 11
12.2544
 21
99.9195
  0
LINE
  8
0
 10
12.2544
 20
99.9195
 11
12.0914
 21
99.7286
  0
LINE
  8
0
 10
12.0914
 20
99.7286
 11
11.9005
 21
99.5656
  0
LINE
  8
0
 10
11.9005
 20
99.5656
 11
11.6864
 21
99.4344
  0
LINE
  8
0
 10
11.6864
 20
99.4344
 11
11.4544
 21
99.3383
  0
LINE
  8
0
 10
11.4544
 20
99.3383
 11
11.2103
 21
99.2797
  0
LINE
  8
0
 10
11.2103
 20
99.2797
 11
10.96
 21
99.26
  0
LINE
  8
0
 10
10.96
 20
99.26
 11
10.7097
 21
99.2797
  0
LINE
  8
0
 10
47.25
 20
92.9
 11
47.25
 21
96.05
  0
LINE
  8
0
 10
47.25
 20
96.05
 11
53.55
 21
96.05
  0
LINE
  8
0
 10
53.55
 20
96.05
 11
53.55
 21
92.9
  0
LINE
  8
0
 10
53.55
 20
92.9
 11
47.25
 21
92.9
  0
LINE
  8
0
 10
72.45
 20
92.9
 11
72.45
 21
96.05
  0
LINE
  8
0
 10
72.45
 20
96.05
 11
78.75
 21
96.05
  0
LINE
  8
0
 10
78.75
 20
96.05
 11
78.75
 21
92.9
  0
LINE
  8
0
 10
78.75
 20
92.9
 11
72.45
 21
92.9
  0
LINE
  8
0
 10
59.85
 20
92.9
 11
59.85
 21
96.05
  0
LINE
  8
0
 10
59.85
 20
96.05
 11
66.15
 21
96.05
  0
LINE
  8
0
 10
66.15
 20
96.05
 11
66.15
 21
92.9
  0
LINE
  8
0
 10
66.15
 20
92.9
 11
59.85
 21
92.9
  0
LINE
  8
0
 10
34.65
 20
92.9
 11
34.65
 21
96.05
  0
LINE
  8
0
 10
34.65
 20
96.05
 11
40.95
 21
96.05
  0
LINE
  8
0
 10
40.95
 20
96.05
 11
40.95
 21
92.9
  0
LINE
  8
0
 10
40.95
 20
92.9
 11
34.65
 21
92.9
  0
LINE
  8
0
 10
22.05
 20
92.9
 11
22.05
 21
96.05
  0
LINE
  8
0
 10
22.05
 20
96.05
 11
28.35
 21
96.05
  0
LINE
  8
0
 10
28.35
 20
96.05
 11
28.35
 21
92.9
  0
LINE
  8
0
 10
28.35
 20
92.9
 11
22.05
 21
92.9
  0
LINE
  8
0
 10
85.05
 20
92.9
 11
85.05
 21
96.05
  0
LINE
  8
0
 10
85.05
 20
96.05
 11
91.35
 21
96.05
  0
LINE
  8
0
 10
91.35
 20
96.05
 11
91.35
 21
92.9
  0
LINE
  8
0
 10
91.35
 20
92.9
 11
85.05
 21
92.9
  0
LINE
  8
0
 10
128
 20
109.95
 11
134.3
 21
109.95
  0
LINE
  8
0
 10
134.3
 20
109.95
 11
134.3
 21
106.8
  0
LINE
  8
0
 10
134.3
 20
106.8
 11
140.6
 21
106.8
  0
LINE
  8
0
 10
140.6
 20
106.8
 11
140.6
 21
109.95
  0
LINE
  8
0
 10
140.6
 20
109.95
 11
146.9
 21
109.95
  0
LINE
  8
0
 10
146.9
 20
109.95
 11
146.9
 21
106.8
  0
LINE
  8
0
 10
146.9
 20
106.8
 11
153.2
 21
106.8
  0
LINE
  8
0
 10
153.2
 20
106.8
 11
153.2
 21
109.95
  0
LINE
  8
0
 10
153.2
 20
109.95
 11
159.5
 21
109.95
  0
LINE
  8
0
 10
159.5
 20
109.95
 11
159.5
 21
106.8
  0
LINE
  8
0
 10
159.5
 20
106.8
 11
165.8
 21
106.8
  0
LINE
  8
0
 10
165.8
 20
106.8
 11
165.8
 21
109.95
  0
LINE
  8
0
 10
165.8
 20
109.95
 11
172.1
 21
109.95
  0
LINE
  8
0
 10
172.1
 20
109.95
 11
172.1
 21
106.8
  0
LINE
  8
0
 10
172.1
 20
106.8
 11
178.4
 21
106.8
  0
LINE
  8
0
 10
178.4
 20
106.8
 11
178.4
 21
109.95
  0
LINE
  8
0
 10
178.4
 20
109.95
 11
184.7
 21
109.95
  0
LINE
  8
0
 10
184.7
 20
109.95
 11
184.7
 21
106.8
  0
LINE
  8
0
 10
184.7
 20
106.8
 11
197.3
 21
106.8
  0
LINE
  8
0
 10
197.3
 20
106.8
 11
197.3
 21
120.45
  0
LINE
  8
0
 10
197.3
 20
120.45
 11
194.15
 21
120.45
  0
LINE
  8
0
 10
194.15
 20
120.45
 11
194.15
 21
126.75
  0
LINE
  8
0
 10
194.15
 20
126.75
 11
197.3
 21
126.75
  0
LINE
  8
0
 10
197.3
 20
126.75
 11
197.3
 21
140.4
  0
LINE
  8
0
 10
197.3
 20
140.4
 11
184.7
 21
140.4
  0
LINE
  8
0
 10
184.7
 20
140.4
 11
184.7
 21
137.25
  0
LINE
  8
0
 10
184.7
 20
137.25
 11
178.4
 21
137.25
  0
LINE
  8
0
 10
178.4
 20
137.25
 11
178.4
 21
140.4
  0
LINE
  8
0
 10
178.4
 20
140.4
 11
172.1
 21
140.4
  0
LINE
  8
0
 10
172.1
 20
140.4
 11
172.1
 21
137.25
  0
LINE
  8
0
 10
172.1
 20
137.25
 11
165.8
 21
137.25
  0
LINE
  8
0
 10
165.8
 20
137.25
 11
165.8
 21
140.4
  0
LINE
  8
0
 10
165.8
 20
140.4
 11
159.5
 21
140.4
  0
LINE
  8
0
 10
159.5
 20
140.4
 11
159.5
 21
137.25
  0
LINE
  8
0
 10
159.5
 20
137.25
 11
153.2
 21
137.25
  0
LINE
  8
0
 10
153.2
 20
137.25
 11
153.2
 21
140.4
  0
LINE
  8
0
 10
153.2
 20
140.4
 11
146.9
 21
140.4
  0
LINE
  8
0
 10
146.9
 20
140.4
 11
146.9
 21
137.25
  0
LINE
  8
0
 10
146.9
 20
137.25
 11
140.6
 21
137.25
  0
LINE
  8
0
 10
140.6
 20
137.25
 11
140.6
 21
140.4
  0
LINE
  8
0
 10
140.6
 20
140.4
 11
134.3
 21
140.4
  0
LINE
  8
0
 10
134.3
 20
140.4
 11
134.3
 21
137.25
  0
LINE
  8
0
 10
134.3
 20
137.25
 11
128
 21
137.25
  0
LINE
  8
0
 10
128
 20
137.25
 11
128
 21
140.4
  0
LINE
  8
0
 10
128
 20
140.4
 11
115.4
 21
140.4
  0
LINE
  8
0
 10
115.4
 20
140.4
 11
115.4
 21
126.75
  0
LINE
  8
0
 10
115.4
 20
126.75
 11
118.55
 21
126.75
  0
LINE
  8
0
 10
118.55
 20
126.75
 11
118.55
 21
120.45
  0
LINE
  8
0
 10
118.55
 20
120.45
 11
115.4
 21
120.45
  0
LINE
  8
0
 10
115.4
 20
120.45
 11
115.4
 21
106.8
  0
LINE
  8
0
 10
115.4
 20
106.8
 11
128
 21
106.8
  0
LINE
  8
0
 10
128
 20
106.8
 11
128
 21
109.95
  0
LINE
  8
0
 10
156.93
 20
117.9
 11
156.93
 21
129.3
  0
LINE
  8
0
 10
156.93
 20
129.3
 11
168.53
 21
129.3
  0
LINE
  8
0
 10
168.53
 20
129.3
 11
168.53
 21
117.9
  0
LINE
  8
0
 10
168.53
 20
117.9
 11
156.93
 21
117.9
  0
LINE
  8
0
 10
128
 20
74.35
 11
134.3
 21
74.35
  0
LINE
  8
0
 10
134.3
 20
74.35
 11
134.3
 21
71.2
  0
LINE
  8
0
 10
134.3
 20
71.2
 11
140.6
 21
71.2
  0
LINE
  8
0
 10
140.6
 20
71.2
 11
140.6
 21
74.35
  0
LINE
  8
0
 10
140.6
 20
74.35
 11
146.9
 21
74.35
  0
LINE
  8
0
 10
146.9
 20
74.35
 11
146.9
 21
71.2
  0
LINE
  8
0
 10
146.9
 20
71.2
 11
153.2
 21
71.2
  0
LINE
  8
0
 10
153.2
 20
71.2
 11
153.2
 21
74.35
  0
LINE
  8
0
 10
153.2
 20
74.35
 11
159.5
 21
74.35
  0
LINE
  8
0
 10
159.5
 20
74.35
 11
159.5
 21
71.2
  0
LINE
  8
0
 10
159.5
 20
71.2
 11
165.8
 21
71.2
  0
LINE
  8
0
 10
165.8
 20
71.2
 11
165.8
 21
74.35
  0
LINE
  8
0
 10
165.8
 20
74.35
 11
172.1
 21
74.35
  0
LINE
  8
0
 10
172.1
 20
74.35
 11
172.1
 21
71.2
  0
LINE
  8
0
 10
172.1
 20
71.2
 11
178.4
 21
71.2
  0
LINE
  8
0
 10
178.4
 20
71.2
 11
178.4
 21
74.35
  0
LINE
  8
0
 10
178.4
 20
74.35
 11
184.7
 21
74.35
  0
LINE
  8
0
 10
184.7
 20
74.35
 11
184.7
 21
71.2
  0
LINE
  8
0
 10
184.7
 20
71.2
 11
197.3
 21
71.2
  0
LINE
  8
0
 10
197.3
 20
71.2
 11
197.3
 21
84.85
  0
LINE
  8
0
 10
197.3
 20
84.85
 11
194.15
 21
84.85
  0
LINE
  8
0
 10
194.15
 20
84.85
 11
194.15
 21
91.15
  0
LINE
  8
0
 10
194.15
 20
91.15
 11
197.3
 21
91.15
  0
LINE
  8
0
 10
197.3
 20
91.15
 11
197.3
 21
104.8
  0
LINE
  8
0
 10
197.3
 20
104.8
 11
184.7
 21
104.8
  0
LINE
  8
0
 10
184.7
 20
104.8
 11
184.7
 21
101.65
  0
LINE
  8
0
 10
184.7
 20
101.65
 11
178.4
 21
101.65
  0
LINE
  8
0
 10
178.4
 20
101.65
 11
178.4
 21
104.8
  0
LINE
  8
0
 10
178.4
 20
104.8
 11
172.1
 21
104.8
  0
LINE
  8
0
 10
172.1
 20
104.8
 11
172.1
 21
101.65
  0
LINE
  8
0
 10
172.1
 20
101.65
 11
165.8
 21
101.65
  0
LINE
  8
0
 10
165.8
 20
101.65
 11
165.8
 21
104.8
  0
LINE
  8
0
 10
165.8
 20
104.8
 11
159.5
 21
104.8
  0
LINE
  8
0
 10
159.5
 20
104.8
 11
159.5
 21
101.65
  0
LINE
  8
0
 10
159.5
 20
101.65
 11
153.2
 21
101.65
  0
LINE
  8
0
 10
153.2
 20
101.65
 11
153.2
 21
104.8
  0
LINE
  8
0
 10
153.2
 20
104.8
 11
146.9
 21
104.8
  0
LINE
  8
0
 10
146.9
 20
104.8
 11
146.9
 21
101.65
  0
LINE
  8
0
 10
146.9
 20
101.65
 11
140.6
 21
101.65
  0
LINE
  8
0
 10
140.6
 20
101.65
 11
140.6
 21
104.8
  0
LINE
  8
0
 10
140.6
 20
104.8
 11
134.3
 21
104.8
  0
LINE
  8
0
 10
134.3
 20
104.8
 11
134.3
 21
101.65
  0
LINE
  8
0
 10
134.3
 20
101.65
 11
128
 21
101.65
  0
LINE
  8
0
 10
128
 20
101.65
 11
128
 21
104.8
  0
LINE
  8
0
 10
128
 20
104.8
 11
115.4
 21
104.8
  0
LINE
  8
0
 10
115.4
 20
104.8
 11
115.4
 21
91.15
  0
LINE
  8
0
 10
115.4
 20
91.15
 11
118.55
 21
91.15
  0
LINE
  8
0
 10
118.55
 20
91.15
 11
118.55
 21
84.85
  0
LINE
  8
0
 10
118.55
 20
84.85
 11
115.4
 21
84.85
  0
LINE
  8
0
 10
115.4
 20
84.85
 11
115.4
 21
71.2
  0
LINE
  8
0
 10
115.4
 20
71.2
 11
128
 21
71.2
  0
LINE
  8
0
 10
128
 20
71.2
 11
128
 21
74.35
  0
LINE
  8
0
 10
113.4
 20
87.9
 11
0
 21
87.9
  0
LINE
  8
0
 10
0
 20
87.9
 11
0
 21
0
  0
LINE
  8
0
 10
0
 20
0
 11
113.4
 21
0
  0
LINE
  8
0
 10
113.4
 20
0
 11
113.4
 21
87.9
  0
LINE
  8
0
 10
3
 20
72.3
 11
3
 21
84.9
  0
LINE
  8
0
 10
3
 20
84.9
 11
15.75
 21
84.9
  0
LINE
  8
0
 10
15.75
 20
84.9
 11
15.75
 21
81.75
  0
LINE
  8
0
 10
15.75
 20
81.75
 11
6.14999
 21
81.75
  0
LINE
  8
0
 10
6.14999
 20
81.75
 11
6.14999
 21
72.3
  0
LINE
  8
0
 10
6.14999
 20
72.3
 11
3
 21
72.3
  0
LINE
  8
0
 10
107.25
 20
72.3
 11
107.25
 21
81.75
  0
LINE
  8
0
 10
107.25
 20
81.75
 11
97.65
 21
81.75
  0
LINE
  8
0
 10
97.65
 20
81.75
 11
97.65
 21
84.9
  0
LINE
  8
0
 10
97.65
 20
84.9
 11
110.4
 21
84.9
  0
LINE
  8
0
 10
110.4
 20
84.9
 11
110.4
 21
72.3
  0
LINE
  8
0
 10
110.4
 20
72.3
 11
107.25
 21
72.3
  0
LINE
  8
0
 10
22.05
 20
81.75
 11
22.05
 21
84.9
  0
LINE
  8
0
 10
22.05
 20
84.9
 11
28.35
 21
84.9
  0
LINE
  8
0
 10
28.35
 20
84.9
 11
28.35
 21
81.75
  0
LINE
  8
0
 10
28.35
 20
81.75
 11
22.05
 21
81.75
  0
LINE
  8
0
 10
34.65
 20
81.75
 11
34.65
 21
84.9
  0
LINE
  8
0
 10
34.65
 20
84.9
 11
40.95
 21
84.9
  0
LINE
  8
0
 10
40.95
 20
84.9
 11
40.95
 21
81.75
  0
LINE
  8
0
 10
40.95
 20
81.75
 11
34.65
 21
81.75
  0
LINE
  8
0
 10
47.25
 20
81.75
 11
47.25
 21
84.9
  0
LINE
  8
0
 10
47.25
 20
84.9
 11
53.55
 21
84.9
  0
LINE
  8
0
 10
53.55
 20
84.9
 11
53.55
 21
81.75
  0
LINE
  8
0
 10
53.55
 20
81.75
 11
47.25
 21
81.75
  0
LINE
  8
0
 10
85.05
 20
81.75
 11
85.05
 21
84.9
  0
LINE
  8
0
 10
85.05
 20
84.9
 11
91.35
 21
84.9
  0
LINE
  8
0
 10
91.35
 20
84.9
 11
91.35
 21
81.75
  0
LINE
  8
0
 10
91.35
 20
81.75
 11
85.05
 21
81.75
  0
LINE
  8
0
 10
72.45
 20
81.75
 11
72.45
 21
84.9
  0
LINE
  8
0
 10
72.45
 20
84.9
 11
78.75
 21
84.9
  0
LINE
  8
0
 10
78.75
 20
84.9
 11
78.75
 21
81.75
  0
LINE
  8
0
 10
78.75
 20
81.75
 11
72.45
 21
81.75
  0
LINE
  8
0
 10
59.85
 20
81.75
 11
59.85
 21
84.9
  0
LINE
  8
0
 10
59.85
 20
84.9
 11
66.15
 21
84.9
  0
LINE
  8
0
 10
66.15
 20
84.9
 11
66.15
 21
81.75
  0
LINE
  8
0
 10
66.15
 20
81.75
 11
59.85
 21
81.75
  0
LINE
  8
0
 10
10.7497
 20
75.4197
 11
10.5056
 21
75.4783
  0
LINE
  8
0
 10
10.5056
 20
75.4783
 11
10.2736
 21
75.5744
  0
LINE
  8
0
 10
10.2736
 20
75.5744
 11
10.0595
 21
75.7056
  0
LINE
  8
0
 10
10.0595
 20
75.7056
 11
9.86862
 21
75.8686
  0
LINE
  8
0
 10
9.86862
 20
75.8686
 11
9.70557
 21
76.0595
  0
LINE
  8
0
 10
9.70557
 20
76.0595
 11
9.57439
 21
76.2736
  0
LINE
  8
0
 10
9.57439
 20
76.2736
 11
9.4783
 21
76.5056
  0
LINE
  8
0
 10
9.4783
 20
76.5056
 11
9.41969
 21
76.7497
  0
LINE
  8
0
 10
9.41969
 20
76.7497
 11
9.39999
 21
77
  0
LINE
  8
0
 10
9.39999
 20
77
 11
9.41969
 21
77.2503
  0
LINE
  8
0
 10
9.41969
 20
77.2503
 11
9.4783
 21
77.4944
  0
LINE
  8
0
 10
9.4783
 20
77.4944
 11
9.57439
 21
77.7264
  0
LINE
  8
0
 10
9.57439
 20
77.7264
 11
9.70557
 21
77.9404
  0
LINE
  8
0
 10
9.70557
 20
77.9404
 11
9.86862
 21
78.1314
  0
LINE
  8
0
 10
9.86862
 20
78.1314
 11
10.0595
 21
78.2944
  0
LINE
  8
0
 10
10.0595
 20
78.2944
 11
10.2736
 21
78.4256
  0
LINE
  8
0
 10
10.2736
 20
78.4256
 11
10.5056
 21
78.5217
  0
LINE
  8
0
 10
10.5056
 20
78.5217
 11
10.7497
 21
78.5803
  0
LINE
  8
0
 10
10.7497
 20
78.5803
 11
11
 21
78.6
  0
LINE
  8
0
 10
11
 20
78.6
 11
11.2503
 21
78.5803
  0
LINE
  8
0
 10
11.2503
 20
78.5803
 11
11.4944
 21
78.5217
  0
LINE
  8
0
 10
11.4944
 20
78.5217
 11
11.7264
 21
78.4256
  0
LINE
  8
0
 10
11.7264
 20
78.4256
 11
11.9404
 21
78.2944
  0
LINE
  8
0
 10
11.9404
 20
78.2944
 11
12.1314
 21
78.1314
  0
LINE
  8
0
 10
12.1314
 20
78.1314
 11
12.2944
 21
77.9404
  0
LINE
  8
0
 10
12.2944
 20
77.9404
 11
12.4256
 21
77.7264
  0
LINE
  8
0
 10
12.4256
 20
77.7264
 11
12.5217
 21
77.4944
  0
LINE
  8
0
 10
12.5217
 20
77.4944
 11
12.5803
 21
77.2503
  0
LINE
  8
0
 10
12.5803
 20
77.2503
 11
12.6
 21
77
  0
LINE
  8
0
 10
12.6
 20
77
 11
12.5803
 21
76.7497
  0
LINE
  8
0
 10
12.5803
 20
76.7497
 11
12.5217
 21
76.5056
  0
LINE
  8
0
 10
12.5217
 20
76.5056
 11
12.4256
 21
76.2736
  0
LINE
  8
0
 10
12.4256
 20
76.2736
 11
12.2944
 21
76.0595
  0
LINE
  8
0
 10
12.2944
 20
76.0595
 11
12.1314
 21
75.8686
  0
LINE
  8
0
 10
12.1314
 20
75.8686
 11
11.9404
 21
75.7056
  0
LINE
  8
0
 10
11.9404
 20
75.7056
 11
11.7264
 21
75.5744
  0
LINE
  8
0
 10
11.7264
 20
75.5744
 11
11.4944
 21
75.4783
  0
LINE
  8
0
 10
11.4944
 20
75.4783
 11
11.2503
 21
75.4197
  0
LINE
  8
0
 10
11.2503
 20
75.4197
 11
11
 21
75.4
  0
LINE
  8
0
 10
11
 20
75.4
 11
10.7497
 21
75.4197
  0
LINE
  8
0
 10
102.19
 20
75.4197
 11
101.946
 21
75.4783
  0
LINE
  8
0
 10
101.946
 20
75.4783
 11
101.714
 21
75.5744
  0
LINE
  8
0
 10
101.714
 20
75.5744
 11
101.5
 21
75.7056
  0
LINE
  8
0
 10
101.5
 20
75.7056
 11
101.309
 21
75.8686
  0
LINE
  8
0
 10
101.309
 20
75.8686
 11
101.146
 21
76.0595
  0
LINE
  8
0
 10
101.146
 20
76.0595
 11
101.014
 21
76.2736
  0
LINE
  8
0
 10
101.014
 20
76.2736
 11
100.918
 21
76.5056
  0
LINE
  8
0
 10
100.918
 20
76.5056
 11
100.86
 21
76.7497
  0
LINE
  8
0
 10
100.86
 20
76.7497
 11
100.84
 21
77
  0
LINE
  8
0
 10
100.84
 20
77
 11
100.86
 21
77.2503
  0
LINE
  8
0
 10
100.86
 20
77.2503
 11
100.918
 21
77.4944
  0
LINE
  8
0
 10
100.918
 20
77.4944
 11
101.014
 21
77.7264
  0
LINE
  8
0
 10
101.014
 20
77.7264
 11
101.146
 21
77.9404
  0
LINE
  8
0
 10
101.146
 20
77.9404
 11
101.309
 21
78.1314
  0
LINE
  8
0
 10
101.309
 20
78.1314
 11
101.5
 21
78.2944
  0
LINE
  8
0
 10
101.5
 20
78.2944
 11
101.714
 21
78.4256
  0
LINE
  8
0
 10
101.714
 20
78.4256
 11
101.946
 21
78.5217
  0
LINE
  8
0
 10
101.946
 20
78.5217
 11
102.19
 21
78.5803
  0
LINE
  8
0
 10
102.19
 20
78.5803
 11
102.44
 21
78.6
  0
LINE
  8
0
 10
102.44
 20
78.6
 11
102.69
 21
78.5803
  0
LINE
  8
0
 10
102.69
 20
78.5803
 11
102.934
 21
78.5217
  0
LINE
  8
0
 10
102.934
 20
78.5217
 11
103.166
 21
78.4256
  0
LINE
  8
0
 10
103.166
 20
78.4256
 11
103.38
 21
78.2944
  0
LINE
  8
0
 10
103.38
 20
78.2944
 11
103.571
 21
78.1314
  0
LINE
  8
0
 10
103.571
 20
78.1314
 11
103.734
 21
77.9404
  0
LINE
  8
0
 10
103.734
 20
77.9404
 11
103.866
 21
77.7264
  0
LINE
  8
0
 10
103.866
 20
77.7264
 11
103.962
 21
77.4944
  0
LINE
  8
0
 10
103.962
 20
77.4944
 11
104.02
 21
77.2503
  0
LINE
  8
0
 10
104.02
 20
77.2503
 11
104.04
 21
77
  0
LINE
  8
0
 10
104.04
 20
77
 11
104.02
 21
76.7497
  0
LINE
  8
0
 10
104.02
 20
76.7497
 11
103.962
 21
76.5056
  0
LINE
  8
0
 10
103.962
 20
76.5056
 11
103.866
 21
76.2736
  0
LINE
  8
0
 10
103.866
 20
76.2736
 11
103.734
 21
76.0595
  0
LINE
  8
0
 10
103.734
 20
76.0595
 11
103.571
 21
75.8686
  0
LINE
  8
0
 10
103.571
 20
75.8686
 11
103.38
 21
75.7056
  0
LINE
  8
0
 10
103.38
 20
75.7056
 11
103.166
 21
75.5744
  0
LINE
  8
0
 10
103.166
 20
75.5744
 11
102.934
 21
75.4783
  0
LINE
  8
0
 10
102.934
 20
75.4783
 11
102.69
 21
75.4197
  0
LINE
  8
0
 10
102.69
 20
75.4197
 11
102.44
 21
75.4
  0
LINE
  8
0
 10
102.44
 20
75.4
 11
102.19
 21
75.4197
  0
LINE
  8
0
 10
3
 20
59.7
 11
3
 21
66
  0
LINE
  8
0
 10
3
 20
66
 11
6.14999
 21
66
  0
LINE
  8
0
 10
6.14999
 20
66
 11
6.14999
 21
59.7
  0
LINE
  8
0
 10
6.14999
 20
59.7
 11
3
 21
59.7
  0
LINE
  8
0
 10
107.25
 20
59.7
 11
107.25
 21
66
  0
LINE
  8
0
 10
107.25
 20
66
 11
110.4
 21
66
  0
LINE
  8
0
 10
110.4
 20
66
 11
110.4
 21
59.7
  0
LINE
  8
0
 10
110.4
 20
59.7
 11
107.25
 21
59.7
  0
LINE
  8
0
 10
107.25
 20
47.1
 11
107.25
 21
53.4
  0
LINE
  8
0
 10
107.25
 20
53.4
 11
110.4
 21
53.4
  0
LINE
  8
0
 10
110.4
 20
53.4
 11
110.4
 21
47.1
  0
LINE
  8
0
 10
110.4
 20
47.1
 11
107.25
 21
47.1
  0
LINE
  8
0
 10
3
 20
47.1
 11
3
 21
53.4
  0
LINE
  8
0
 10
3
 20
53.4
 11
6.14999
 21
53.4
  0
LINE
  8
0
 10
6.14999
 20
53.4
 11
6.14999
 21
47.1
  0
LINE
  8
0
 10
6.14999
 20
47.1
 11
3
 21
47.1
  0
LINE
  8
0
 10
107.25
 20
34.5
 11
107.25
 21
40.8
  0
LINE
  8
0
 10
107.25
 20
40.8
 11
110.4
 21
40.8
  0
LINE
  8
0
 10
110.4
 20
40.8
 11
110.4
 21
34.5
  0
LINE
  8
0
 10
110.4
 20
34.5
 11
107.25
 21
34.5
  0
LINE
  8
0
 10
3
 20
34.5
 11
3
 21
40.8
  0
LINE
  8
0
 10
3
 20
40.8
 11
6.14999
 21
40.8
  0
LINE
  8
0
 10
6.14999
 20
40.8
 11
6.14999
 21
34.5
  0
LINE
  8
0
 10
6.14999
 20
34.5
 11
3
 21
34.5
  0
LINE
  8
0
 10
53.1675
 20
10.0825
 11
53.1675
 21
17.5325
  0
LINE
  8
0
 10
53.1675
 20
17.5325
 11
56.3175
 21
17.5325
  0
LINE
  8
0
 10
56.3175
 20
17.5325
 11
56.3175
 21
21.5325
  0
LINE
  8
0
 10
56.3175
 20
21.5325
 11
53.1675
 21
21.5325
  0
LINE
  8
0
 10
53.1675
 20
21.5325
 11
53.1675
 21
28.9825
  0
LINE
  8
0
 10
53.1675
 20
28.9825
 11
60.6175
 21
28.9825
  0
LINE
  8
0
 10
60.6175
 20
28.9825
 11
60.6175
 21
25.8325
  0
LINE
  8
0
 10
60.6175
 20
25.8325
 11
56.3175
 21
25.8325
  0
LINE
  8
0
 10
56.3175
 20
25.8325
 11
56.3175
 21
13.2325
  0
LINE
  8
0
 10
56.3175
 20
13.2325
 11
68.9175
 21
13.2325
  0
LINE
  8
0
 10
68.9175
 20
13.2325
 11
68.9175
 21
17.5325
  0
LINE
  8
0
 10
68.9175
 20
17.5325
 11
72.0675
 21
17.5325
  0
LINE
  8
0
 10
72.0675
 20
17.5325
 11
72.0675
 21
10.0825
  0
LINE
  8
0
 10
72.0675
 20
10.0825
 11
64.6175
 21
10.0825
  0
LINE
  8
0
 10
64.6175
 20
10.0825
 11
64.6175
 21
13.2325
  0
LINE
  8
0
 10
64.6175
 20
13.2325
 11
60.6175
 21
13.2325
  0
LINE
  8
0
 10
60.6175
 20
13.2325
 11
60.6175
 21
10.0825
  0
LINE
  8
0
 10
60.6175
 20
10.0825
 11
53.1675
 21
10.0825
  0
LINE
  8
0
 10
68.9175
 20
21.5325
 11
68.9175
 21
25.8325
  0
LINE
  8
0
 10
68.9175
 20
25.8325
 11
64.6175
 21
25.8325
  0
LINE
  8
0
 10
64.6175
 20
25.8325
 11
64.6175
 21
28.9825
  0
LINE
  8
0
 10
64.6175
 20
28.9825
 11
72.0675
 21
28.9825
  0
LINE
  8
0
 10
72.0675
 20
28.9825
 11
72.0675
 21
21.5325
  0
LINE
  8
0
 10
72.0675
 20
21.5325
 11
68.9175
 21
21.5325
  0
LINE
  8
0
 10
107.25
 20
21.9
 11
107.25
 21
28.2
  0
LINE
  8
0
 10
107.25
 20
28.2
 11
110.4
 21
28.2
  0
LINE
  8
0
 10
110.4
 20
28.2
 11
110.4
 21
21.9
  0
LINE
  8
0
 10
110.4
 20
21.9
 11
107.25
 21
21.9
  0
LINE
  8
0
 10
3
 20
21.9
 11
3
 21
28.2
  0
LINE
  8
0
 10
3
 20
28.2
 11
6.14999
 21
28.2
  0
LINE
  8
0
 10
6.14999
 20
28.2
 11
6.14999
 21
21.9
  0
LINE
  8
0
 10
6.14999
 20
21.9
 11
3
 21
21.9
  0
LINE
  8
0
 10
97.65
 20
3
 11
97.65
 21
6.14999
  0
LINE
  8
0
 10
97.65
 20
6.14999
 11
107.25
 21
6.14999
  0
LINE
  8
0
 10
107.25
 20
6.14999
 11
107.25
 21
15.6
  0
LINE
  8
0
 10
107.25
 20
15.6
 11
110.4
 21
15.6
  0
LINE
  8
0
 10
110.4
 20
15.6
 11
110.4
 21
3
  0
LINE
  8
0
 10
110.4
 20
3
 11
97.65
 21
3
  0
LINE
  8
0
 10
3
 20
3
 11
3
 21
15.6
  0
LINE
  8
0
 10
3
 20
15.6
 11
6.14999
 21
15.6
  0
LINE
  8
0
 10
6.14999
 20
15.6
 11
6.14999
 21
6.14999
  0
LINE
  8
0
 10
6.14999
 20
6.14999
 11
15.75
 21
6.14999
  0
LINE
  8
0
 10
15.75
 20
6.14999
 11
15.75
 21
3
  0
LINE
  8
0
 10
15.75
 20
3
 11
3
 21
3
  0
LINE
  8
0
 10
102.19
 20
9.37968
 11
101.946
 21
9.43831
  0
LINE
  8
0
 10
101.946
 20
9.43831
 11
101.714
 21
9.53438
  0
LINE
  8
0
 10
101.714
 20
9.53438
 11
101.5
 21
9.66556
  0
LINE
  8
0
 10
101.5
 20
9.66556
 11
101.309
 21
9.82863
  0
LINE
  8
0
 10
101.309
 20
9.82863
 11
101.146
 21
10.0195
  0
LINE
  8
0
 10
101.146
 20
10.0195
 11
101.014
 21
10.2336
  0
LINE
  8
0
 10
101.014
 20
10.2336
 11
100.918
 21
10.4656
  0
LINE
  8
0
 10
100.918
 20
10.4656
 11
100.86
 21
10.7097
  0
LINE
  8
0
 10
100.86
 20
10.7097
 11
100.84
 21
10.96
  0
LINE
  8
0
 10
100.84
 20
10.96
 11
100.86
 21
11.2103
  0
LINE
  8
0
 10
100.86
 20
11.2103
 11
100.918
 21
11.4544
  0
LINE
  8
0
 10
100.918
 20
11.4544
 11
101.014
 21
11.6864
  0
LINE
  8
0
 10
101.014
 20
11.6864
 11
101.146
 21
11.9005
  0
LINE
  8
0
 10
101.146
 20
11.9005
 11
101.309
 21
12.0914
  0
LINE
  8
0
 10
101.309
 20
12.0914
 11
101.5
 21
12.2544
  0
LINE
  8
0
 10
101.5
 20
12.2544
 11
101.714
 21
12.3856
  0
LINE
  8
0
 10
101.714
 20
12.3856
 11
101.946
 21
12.4817
  0
LINE
  8
0
 10
101.946
 20
12.4817
 11
102.19
 21
12.5403
  0
LINE
  8
0
 10
102.19
 20
12.5403
 11
102.44
 21
12.56
  0
LINE
  8
0
 10
102.44
 20
12.56
 11
102.69
 21
12.5403
  0
LINE
  8
0
 10
102.69
 20
12.5403
 11
102.934
 21
12.4817
  0
LINE
  8
0
 10
102.934
 20
12.4817
 11
103.166
 21
12.3856
  0
LINE
  8
0
 10
103.166
 20
12.3856
 11
103.38
 21
12.2544
  0
LINE
  8
0
 10
103.38
 20
12.2544
 11
103.571
 21
12.0914
  0
LINE
  8
0
 10
103.571
 20
12.0914
 11
103.734
 21
11.9005
  0
LINE
  8
0
 10
103.734
 20
11.9005
 11
103.866
 21
11.6864
  0
LINE
  8
0
 10
103.866
 20
11.6864
 11
103.962
 21
11.4544
  0
LINE
  8
0
 10
103.962
 20
11.4544
 11
104.02
 21
11.2103
  0
LINE
  8
0
 10
104.02
 20
11.2103
 11
104.04
 21
10.96
  0
LINE
  8
0
 10
104.04
 20
10.96
 11
104.02
 21
10.7097
  0
LINE
  8
0
 10
104.02
 20
10.7097
 11
103.962
 21
10.4656
  0
LINE
  8
0
 10
103.962
 20
10.4656
 11
103.866
 21
10.2336
  0
LINE
  8
0
 10
103.866
 20
10.2336
 11
103.734
 21
10.0195
  0
LINE
  8
0
 10
103.734
 20
10.0195
 11
103.571
 21
9.82863
  0
LINE
  8
0
 10
103.571
 20
9.82863
 11
103.38
 21
9.66556
  0
LINE
  8
0
 10
103.38
 20
9.66556
 11
103.166
 21
9.53438
  0
LINE
  8
0
 10
103.166
 20
9.53438
 11
102.934
 21
9.43831
  0
LINE
  8
0
 10
102.934
 20
9.43831
 11
102.69
 21
9.37968
  0
LINE
  8
0
 10
102.69
 20
9.37968
 11
102.44
 21
9.35999
  0
LINE
  8
0
 10
102.44
 20
9.35999
 11
102.19
 21
9.37968
  0
LINE
  8
0
 10
10.7497
 20
9.37968
 11
10.5056
 21
9.43831
  0
LINE
  8
0
 10
10.5056
 20
9.43831
 11
10.2736
 21
9.53438
  0
LINE
  8
0
 10
10.2736
 20
9.53438
 11
10.0595
 21
9.66556
  0
LINE
  8
0
 10
10.0595
 20
9.66556
 11
9.86862
 21
9.82863
  0
LINE
  8
0
 10
9.86862
 20
9.82863
 11
9.70557
 21
10.0195
  0
LINE
  8
0
 10
9.70557
 20
10.0195
 11
9.57439
 21
10.2336
  0
LINE
  8
0
 10
9.57439
 20
10.2336
 11
9.4783
 21
10.4656
  0
LINE
  8
0
 10
9.4783
 20
10.4656
 11
9.41969
 21
10.7097
  0
LINE
  8
0
 10
9.41969
 20
10.7097
 11
9.39999
 21
10.96
  0
LINE
  8
0
 10
9.39999
 20
10.96
 11
9.41969
 21
11.2103
  0
LINE
  8
0
 10
9.41969
 20
11.2103
 11
9.4783
 21
11.4544
  0
LINE
  8
0
 10
9.4783
 20
11.4544
 11
9.57439
 21
11.6864
  0
LINE
  8
0
 10
9.57439
 20
11.6864
 11
9.70557
 21
11.9005
  0
LINE
  8
0
 10
9.70557
 20
11.9005
 11
9.86862
 21
12.0914
  0
LINE
  8
0
 10
9.86862
 20
12.0914
 11
10.0595
 21
12.2544
  0
LINE
  8
0
 10
10.0595
 20
12.2544
 11
10.2736
 21
12.3856
  0
LINE
  8
0
 10
10.2736
 20
12.3856
 11
10.5056
 21
12.4817
  0
LINE
  8
0
 10
10.5056
 20
12.4817
 11
10.7497
 21
12.5403
  0
LINE
  8
0
 10
10.7497
 20
12.5403
 11
11
 21
12.56
  0
LINE
  8
0
 10
11
 20
12.56
 11
11.2503
 21
12.5403
  0
LINE
  8
0
 10
11.2503
 20
12.5403
 11
11.4944
 21
12.4817
  0
LINE
  8
0
 10
11.4944
 20
12.4817
 11
11.7264
 21
12.3856
  0
LINE
  8
0
 10
11.7264
 20
12.3856
 11
11.9404
 21
12.2544
  0
LINE
  8
0
 10
11.9404
 20
12.2544
 11
12.1314
 21
12.0914
  0
LINE
  8
0
 10
12.1314
 20
12.0914
 11
12.2944
 21
11.9005
  0
LINE
  8
0
 10
12.2944
 20
11.9005
 11
12.4256
 21
11.6864
  0
LINE
  8
0
 10
12.4256
 20
11.6864
 11
12.5217
 21
11.4544
  0
LINE
  8
0
 10
12.5217
 20
11.4544
 11
12.5803
 21
11.2103
  0
LINE
  8
0
 10
12.5803
 20
11.2103
 11
12.6
 21
10.96
  0
LINE
  8
0
 10
12.6
 20
10.96
 11
12.5803
 21
10.7097
  0
LINE
  8
0
 10
12.5803
 20
10.7097
 11
12.5217
 21
10.4656
  0
LINE
  8
0
 10
12.5217
 20
10.4656
 11
12.4256
 21
10.2336
  0
LINE
  8
0
 10
12.4256
 20
10.2336
 11
12.2944
 21
10.0195
  0
LINE
  8
0
 10
12.2944
 20
10.0195
 11
12.1314
 21
9.82863
  0
LINE
  8
0
 10
12.1314
 20
9.82863
 11
11.9404
 21
9.66556
  0
LINE
  8
0
 10
11.9404
 20
9.66556
 11
11.7264
 21
9.53438
  0
LINE
  8
0
 10
11.7264
 20
9.53438
 11
11.4944
 21
9.43831
  0
LINE
  8
0
 10
11.4944
 20
9.43831
 11
11.2503
 21
9.37968
  0
LINE
  8
0
 10
11.2503
 20
9.37968
 11
11
 21
9.35999
  0
LINE
  8
0
 10
11
 20
9.35999
 11
10.7497
 21
9.37968
  0
LINE
  8
0
 10
72.45
 20
3
 11
72.45
 21
6.14999
  0
LINE
  8
0
 10
72.45
 20
6.14999
 11
78.75
 21
6.14999
  0
LINE
  8
0
 10
78.75
 20
6.14999
 11
78.75
 21
3
  0
LINE
  8
0
 10
78.75
 20
3
 11
72.45
 21
3
  0
LINE
  8
0
 10
22.05
 20
3
 11
22.05
 21
6.14999
  0
LINE
  8
0
 10
22.05
 20
6.14999
 11
28.35
 21
6.14999
  0
LINE
  8
0
 10
28.35
 20
6.14999
 11
28.35
 21
3
  0
LINE
  8
0
 10
28.35
 20
3
 11
22.05
 21
3
  0
LINE
  8
0
 10
34.65
 20
3
 11
34.65
 21
6.14999
  0
LINE
  8
0
 10
34.65
 20
6.14999
 11
40.95
 21
6.14999
  0
LINE
  8
0
 10
40.95
 20
6.14999
 11
40.95
 21
3
  0
LINE
  8
0
 10
40.95
 20
3
 11
34.65
 21
3
  0
LINE
  8
0
 10
47.25
 20
3
 11
47.25
 21
6.14999
  0
LINE
  8
0
 10
47.25
 20
6.14999
 11
53.55
 21
6.14999
  0
LINE
  8
0
 10
53.55
 20
6.14999
 11
53.55
 21
3
  0
LINE
  8
0
 10
53.55
 20
3
 11
47.25
 21
3
  0
LINE
  8
0
 10
59.85
 20
3
 11
59.85
 21
6.14999
  0
LINE
  8
0
 10
59.85
 20
6.14999
 11
66.15
 21
6.14999
  0
LINE
  8
0
 10
66.15
 20
6.14999
 11
66.15
 21
3
  0
LINE
  8
0
 10
66.15
 20
3
 11
59.85
 21
3
  0
LINE
  8
0
 10
85.05
 20
3
 11
85.05
 21
6.14999
  0
LINE
  8
0
 10
85.05
 20
6.14999
 11
91.35
 21
6.14999
  0
LINE
  8
0
 10
91.35
 20
6.14999
 11
91.35
 21
3
  0
LINE
  8
0
 10
91.35
 20
3
 11
85.05
 21
3
  0
LINE
  8
0
 10
128.15
 20
38.75
 11
134.45
 21
38.75
  0
LINE
  8
0
 10
134.45
 20
38.75
 11
134.45
 21
35.6
  0
LINE
  8
0
 10
134.45
 20
35.6
 11
140.75
 21
35.6
  0
LINE
  8
0
 10
140.75
 20
35.6
 11
140.75
 21
38.75
  0
LINE
  8
0
 10
140.75
 20
38.75
 11
147.05
 21
38.75
  0
LINE
  8
0
 10
147.05
 20
38.75
 11
147.05
 21
35.6
  0
LINE
  8
0
 10
147.05
 20
35.6
 11
153.35
 21
35.6
  0
LINE
  8
0
 10
153.35
 20
35.6
 11
153.35
 21
38.75
  0
LINE
  8
0
 10
153.35
 20
38.75
 11
159.65
 21
38.75
  0
LINE
  8
0
 10
159.65
 20
38.75
 11
159.65
 21
35.6
  0
LINE
  8
0
 10
159.65
 20
35.6
 11
165.95
 21
35.6
  0
LINE
  8
0
 10
165.95
 20
35.6
 11
165.95
 21
38.75
  0
LINE
  8
0
 10
165.95
 20
38.75
 11
172.25
 21
38.75
  0
LINE
  8
0
 10
172.25
 20
38.75
 11
172.25
 21
35.6
  0
LINE
  8
0
 10
172.25
 20
35.6
 11
178.55
 21
35.6
  0
LINE
  8
0
 10
178.55
 20
35.6
 11
178.55
 21
38.75
  0
LINE
  8
0
 10
178.55
 20
38.75
 11
184.85
 21
38.75
  0
LINE
  8
0
 10
184.85
 20
38.75
 11
184.85
 21
35.6
  0
LINE
  8
0
 10
184.85
 20
35.6
 11
191.15
 21
35.6
  0
LINE
  8
0
 10
191.15
 20
35.6
 11
191.15
 21
38.75
  0
LINE
  8
0
 10
191.15
 20
38.75
 11
197.45
 21
38.75
  0
LINE
  8
0
 10
197.45
 20
38.75
 11
197.45
 21
35.6
  0
LINE
  8
0
 10
197.45
 20
35.6
 11
203.75
 21
35.6
  0
LINE
  8
0
 10
203.75
 20
35.6
 11
203.75
 21
38.75
  0
LINE
  8
0
 10
203.75
 20
38.75
 11
210.05
 21
38.75
  0
LINE
  8
0
 10
210.05
 20
38.75
 11
210.05
 21
35.6
  0
LINE
  8
0
 10
210.05
 20
35.6
 11
219.65
 21
35.6
  0
LINE
  8
0
 10
219.65
 20
35.6
 11
219.65
 21
49.25
  0
LINE
  8
0
 10
219.65
 20
49.25
 11
222.8
 21
49.25
  0
LINE
  8
0
 10
222.8
 20
49.25
 11
222.8
 21
55.55
  0
LINE
  8
0
 10
222.8
 20
55.55
 11
219.65
 21
55.55
  0
LINE
  8
0
 10
219.65
 20
55.55
 11
219.65
 21
69.2
  0
LINE
  8
0
 10
219.65
 20
69.2
 11
210.05
 21
69.2
  0
LINE
  8
0
 10
210.05
 20
69.2
 11
210.05
 21
66.05
  0
LINE
  8
0
 10
210.05
 20
66.05
 11
203.75
 21
66.05
  0
LINE
  8
0
 10
203.75
 20
66.05
 11
203.75
 21
69.2
  0
LINE
  8
0
 10
203.75
 20
69.2
 11
197.45
 21
69.2
  0
LINE
  8
0
 10
197.45
 20
69.2
 11
197.45
 21
66.05
  0
LINE
  8
0
 10
197.45
 20
66.05
 11
191.15
 21
66.05
  0
LINE
  8
0
 10
191.15
 20
66.05
 11
191.15
 21
69.2
  0
LINE
  8
0
 10
191.15
 20
69.2
 11
184.85
 21
69.2
  0
LINE
  8
0
 10
184.85
 20
69.2
 11
184.85
 21
66.05
  0
LINE
  8
0
 10
184.85
 20
66.05
 11
178.55
 21
66.05
  0
LINE
  8
0
 10
178.55
 20
66.05
 11
178.55
 21
69.2
  0
LINE
  8
0
 10
178.55
 20
69.2
 11
172.25
 21
69.2
  0
LINE
  8
0
 10
172.25
 20
69.2
 11
172.25
 21
66.05
  0
LINE
  8
0
 10
172.25
 20
66.05
 11
165.95
 21
66.05
  0
LINE
  8
0
 10
165.95
 20
66.05
 11
165.95
 21
69.2
  0
LINE
  8
0
 10
165.95
 20
69.2
 11
159.65
 21
69.2
  0
LINE
  8
0
 10
159.65
 20
69.2
 11
159.65
 21
66.05
  0
LINE
  8
0
 10
159.65
 20
66.05
 11
153.35
 21
66.05
  0
LINE
  8
0
 10
153.35
 20
66.05
 11
153.35
 21
69.2
  0
LINE
  8
0
 10
153.35
 20
69.2
 11
147.05
 21
69.2
  0
LINE
  8
0
 10
147.05
 20
69.2
 11
147.05
 21
66.05
  0
LINE
  8
0
 10
147.05
 20
66.05
 11
140.75
 21
66.05
  0
LINE
  8
0
 10
140.75
 20
66.05
 11
140.75
 21
69.2
  0
LINE
  8
0
 10
140.75
 20
69.2
 11
134.45
 21
69.2
  0
LINE
  8
0
 10
134.45
 20
69.2
 11
134.45
 21
66.05
  0
LINE
  8
0
 10
134.45
 20
66.05
 11
128.15
 21
66.05
  0
LINE
  8
0
 10
128.15
 20
66.05
 11
128.15
 21
69.2
  0
LINE
  8
0
 10
128.15
 20
69.2
 11
118.55
 21
69.2
  0
LINE
  8
0
 10
118.55
 20
69.2
 11
118.55
 21
55.55
  0
LINE
  8
0
 10
118.55
 20
55.55
 11
115.4
 21
55.55
  0
LINE
  8
0
 10
115.4
 20
55.55
 11
115.4
 21
49.25
  0
LINE
  8
0
 10
115.4
 20
49.25
 11
118.55
 21
49.25
  0
LINE
  8
0
 10
118.55
 20
49.25
 11
118.55
 21
35.6
  0
LINE
  8
0
 10
118.55
 20
35.6
 11
128.15
 21
35.6
  0
LINE
  8
0
 10
128.15
 20
35.6
 11
128.15
 21
38.75
  0
LINE
  8
0
 10
-37.8
 20
38.75
 11
-33.8
 21
38.75
  0
LINE
  8
0
 10
-33.8
 20
38.75
 11
-33.8
 21
35.6
  0
LINE
  8
0
 10
-33.8
 20
35.6
 11
-29.5
 21
35.6
  0
LINE
  8
0
 10
-29.5
 20
35.6
 11
-29.5
 21
46.4
  0
LINE
  8
0
 10
-29.5
 20
46.4
 11
-26.35
 21
46.4
  0
LINE
  8
0
 10
-26.35
 20
46.4
 11
-26.35
 21
50.4
  0
LINE
  8
0
 10
-26.35
 20
50.4
 11
-29.5
 21
50.4
  0
LINE
  8
0
 10
-29.5
 20
50.4
 11
-29.5
 21
54.4
  0
LINE
  8
0
 10
-29.5
 20
54.4
 11
-26.35
 21
54.4
  0
LINE
  8
0
 10
-26.35
 20
54.4
 11
-26.35
 21
58.4
  0
LINE
  8
0
 10
-26.35
 20
58.4
 11
-29.5
 21
58.4
  0
LINE
  8
0
 10
-29.5
 20
58.4
 11
-29.5
 21
69.2
  0
LINE
  8
0
 10
-29.5
 20
69.2
 11
-33.8
 21
69.2
  0
LINE
  8
0
 10
-33.8
 20
69.2
 11
-33.8
 21
66.05
  0
LINE
  8
0
 10
-33.8
 20
66.05
 11
-37.8
 21
66.05
  0
LINE
  8
0
 10
-37.8
 20
66.05
 11
-37.8
 21
69.2
  0
LINE
  8
0
 10
-37.8
 20
69.2
 11
-42.1
 21
69.2
  0
LINE
  8
0
 10
-42.1
 20
69.2
 11
-42.1
 21
58.4
  0
LINE
  8
0
 10
-42.1
 20
58.4
 11
-45.25
 21
58.4
  0
LINE
  8
0
 10
-45.25
 20
58.4
 11
-45.25
 21
54.4
  0
LINE
  8
0
 10
-45.25
 20
54.4
 11
-42.1
 21
54.4
  0
LINE
  8
0
 10
-42.1
 20
54.4
 11
-42.1
 21
50.4
  0
LINE
  8
0
 10
-42.1
 20
50.4
 11
-45.25
 21
50.4
  0
LINE
  8
0
 10
-45.25
 20
50.4
 11
-45.25
 21
46.4
  0
LINE
  8
0
 10
-45.25
 20
46.4
 11
-42.1
 21
46.4
  0
LINE
  8
0
 10
-42.1
 20
46.4
 11
-42.1
 21
35.6
  0
LINE
  8
0
 10
-42.1
 20
35.6
 11
-37.8
 21
35.6
  0
LINE
  8
0
 10
-37.8
 20
35.6
 11
-37.8
 21
38.75
  0
LINE
  8
0
 10
-38.3
 20
48.9
 11
-38.3
 21
55.9
  0
LINE
  8
0
 10
-38.3
 20
55.9
 11
-33.3
 21
55.9
  0
LINE
  8
0
 10
-33.3
 20
55.9
 11
-33.3
 21
48.9
  0
LINE
  8
0
 10
-33.3
 20
48.9
 11
-38.3
 21
48.9
  0
LINE
  8
0
 10
-16.9
 20
38.75
 11
-12.9
 21
38.75
  0
LINE
  8
0
 10
-12.9
 20
38.75
 11
-12.9
 21
35.6
  0
LINE
  8
0
 10
-12.9
 20
35.6
 11
-5.45001
 21
35.6
  0
LINE
  8
0
 10
-5.45001
 20
35.6
 11
-5.45001
 21
69.2
  0
LINE
  8
0
 10
-5.45001
 20
69.2
 11
-12.9
 21
69.2
  0
LINE
  8
0
 10
-12.9
 20
69.2
 11
-12.9
 21
66.05
  0
LINE
  8
0
 10
-12.9
 20
66.05
 11
-16.9
 21
66.05
  0
LINE
  8
0
 10
-16.9
 20
66.05
 11
-16.9
 21
69.2
  0
LINE
  8
0
 10
-16.9
 20
69.2
 11
-24.35
 21
69.2
  0
LINE
  8
0
 10
-24.35
 20
69.2
 11
-24.35
 21
58.4
  0
LINE
  8
0
 10
-24.35
 20
58.4
 11
-21.2
 21
58.4
  0
LINE
  8
0
 10
-21.2
 20
58.4
 11
-21.2
 21
54.4
  0
LINE
  8
0
 10
-21.2
 20
54.4
 11
-24.35
 21
54.4
  0
LINE
  8
0
 10
-24.35
 20
54.4
 11
-24.35
 21
50.4
  0
LINE
  8
0
 10
-24.35
 20
50.4
 11
-21.2
 21
50.4
  0
LINE
  8
0
 10
-21.2
 20
50.4
 11
-21.2
 21
46.4
  0
LINE
  8
0
 10
-21.2
 20
46.4
 11
-24.35
 21
46.4
  0
LINE
  8
0
 10
-24.35
 20
46.4
 11
-24.35
 21
35.6
  0
LINE
  8
0
 10
-24.35
 20
35.6
 11
-16.9
 21
35.6
  0
LINE
  8
0
 10
-16.9
 20
35.6
 11
-16.9
 21
38.75
  0
LINE
  8
0
 10
-8.60002
 20
54.4
 11
-8.60002
 21
58.4
  0
LINE
  8
0
 10
-8.60002
 20
58.4
 11
-5.45003
 21
58.4
  0
LINE
  8
0
 10
-5.45003
 20
58.4
 11
-5.45003
 21
54.4
  0
LINE
  8
0
 10
-5.45003
 20
54.4
 11
-8.60002
 21
54.4
  0
LINE
  8
0
 10
-16.15
 20
48.9
 11
-16.15
 21
55.9
  0
LINE
  8
0
 10
-16.15
 20
55.9
 11
-13.65
 21
55.9
  0
LINE
  8
0
 10
-13.65
 20
55.9
 11
-13.65
 21
48.9
  0
LINE
  8
0
 10
-13.65
 20
48.9
 11
-16.15
 21
48.9
  0
LINE
  8
0
 10
-8.60002
 20
46.4
 11
-8.60002
 21
50.4
  0
LINE
  8
0
 10
-8.60002
 20
50.4
 11
-5.45003
 21
50.4
  0
LINE
  8
0
 10
-5.45003
 20
50.4
 11
-5.45003
 21
46.4
  0
LINE
  8
0
 10
-5.45003
 20
46.4
 11
-8.60002
 21
46.4
  0
LINE
  8
0
 10
128.15
 20
3.14999
 11
134.45
 21
3.14999
  0
LINE
  8
0
 10
134.45
 20
3.14999
 11
134.45
 21
0
  0
LINE
  8
0
 10
134.45
 20
0
 11
140.75
 21
0
  0
LINE
  8
0
 10
140.75
 20
0
 11
140.75
 21
3.14999
  0
LINE
  8
0
 10
140.75
 20
3.14999
 11
147.05
 21
3.14999
  0
LINE
  8
0
 10
147.05
 20
3.14999
 11
147.05
 21
0
  0
LINE
  8
0
 10
147.05
 20
0
 11
153.35
 21
0
  0
LINE
  8
0
 10
153.35
 20
0
 11
153.35
 21
3.14999
  0
LINE
  8
0
 10
153.35
 20
3.14999
 11
159.65
 21
3.14999
  0
LINE
  8
0
 10
159.65
 20
3.14999
 11
159.65
 21
0
  0
LINE
  8
0
 10
159.65
 20
0
 11
165.95
 21
0
  0
LINE
  8
0
 10
165.95
 20
0
 11
165.95
 21
3.14999
  0
LINE
  8
0
 10
165.95
 20
3.14999
 11
172.25
 21
3.14999
  0
LINE
  8
0
 10
172.25
 20
3.14999
 11
172.25
 21
0
  0
LINE
  8
0
 10
172.25
 20
0
 11
178.55
 21
0
  0
LINE
  8
0
 10
178.55
 20
0
 11
178.55
 21
3.14999
  0
LINE
  8
0
 10
178.55
 20
3.14999
 11
184.85
 21
3.14999
  0
LINE
  8
0
 10
184.85
 20
3.14999
 11
184.85
 21
0
  0
LINE
  8
0
 10
184.85
 20
0
 11
191.15
 21
0
  0
LINE
  8
0
 10
191.15
 20
0
 11
191.15
 21
3.14999
  0
LINE
  8
0
 10
191.15
 20
3.14999
 11
197.45
 21
3.14999
  0
LINE
  8
0
 10
197.45
 20
3.14999
 11
197.45
 21
0
  0
LINE
  8
0
 10
197.45
 20
0
 11
203.75
 21
0
  0
LINE
  8
0
 10
203.75
 20
0
 11
203.75
 21
3.14999
  0
LINE
  8
0
 10
203.75
 20
3.14999
 11
210.05
 21
3.14999
  0
LINE
  8
0
 10
210.05
 20
3.14999
 11
210.05
 21
0
  0
LINE
  8
0
 10
210.05
 20
0
 11
219.65
 21
0
  0
LINE
  8
0
 10
219.65
 20
0
 11
219.65
 21
13.65
  0
LINE
  8
0
 10
219.65
 20
13.65
 11
222.8
 21
13.65
  0
LINE
  8
0
 10
222.8
 20
13.65
 11
222.8
 21
19.95
  0
LINE
  8
0
 10
222.8
 20
19.95
 11
219.65
 21
19.95
  0
LINE
  8
0
 10
219.65
 20
19.95
 11
219.65
 21
33.6
  0
LINE
  8
0
 10
219.65
 20
33.6
 11
210.05
 21
33.6
  0
LINE
  8
0
 10
210.05
 20
33.6
 11
210.05
 21
30.45
  0
LINE
  8
0
 10
210.05
 20
30.45
 11
203.75
 21
30.45
  0
LINE
  8
0
 10
203.75
 20
30.45
 11
203.75
 21
33.6
  0
LINE
  8
0
 10
203.75
 20
33.6
 11
197.45
 21
33.6
  0
LINE
  8
0
 10
197.45
 20
33.6
 11
197.45
 21
30.45
  0
LINE
  8
0
 10
197.45
 20
30.45
 11
191.15
 21
30.45
  0
LINE
  8
0
 10
191.15
 20
30.45
 11
191.15
 21
33.6
  0
LINE
  8
0
 10
191.15
 20
33.6
 11
184.85
 21
33.6
  0
LINE
  8
0
 10
184.85
 20
33.6
 11
184.85
 21
30.45
  0
LINE
  8
0
 10
184.85
 20
30.45
 11
178.55
 21
30.45
  0
LINE
  8
0
 10
178.55
 20
30.45
 11
178.55
 21
33.6
  0
LINE
  8
0
 10
178.55
 20
33.6
 11
172.25
 21
33.6
  0
LINE
  8
0
 10
172.25
 20
33.6
 11
172.25
 21
30.45
  0
LINE
  8
0
 10
172.25
 20
30.45
 11
165.95
 21
30.45
  0
LINE
  8
0
 10
165.95
 20
30.45
 11
165.95
 21
33.6
  0
LINE
  8
0
 10
165.95
 20
33.6
 11
159.65
 21
33.6
  0
LINE
  8
0
 10
159.65
 20
33.6
 11
159.65
 21
30.45
  0
LINE
  8
0
 10
159.65
 20
30.45
 11
153.35
 21
30.45
  0
LINE
  8
0
 10
153.35
 20
30.45
 11
153.35
 21
33.6
  0
LINE
  8
0
 10
153.35
 20
33.6
 11
147.05
 21
33.6
  0
LINE
  8
0
 10
147.05
 20
33.6
 11
147.05
 21
30.45
  0
LINE
  8
0
 10
147.05
 20
30.45
 11
140.75
 21
30.45
  0
LINE
  8
0
 10
140.75
 20
30.45
 11
140.75
 21
33.6
  0
LINE
  8
0
 10
140.75
 20
33.6
 11
134.45
 21
33.6
  0
LINE
  8
0
 10
134.45
 20
33.6
 11
134.45
 21
30.45
  0
LINE
  8
0
 10
134.45
 20
30.45
 11
128.15
 21
30.45
  0
LINE
  8
0
 10
128.15
 20
30.45
 11
128.15
 21
33.6
  0
LINE
  8
0
 10
128.15
 20
33.6
 11
118.55
 21
33.6
  0
LINE
  8
0
 10
118.55
 20
33.6
 11
118.55
 21
19.95
  0
LINE
  8
0
 10
118.55
 20
19.95
 11
115.4
 21
19.95
  0
LINE
  8
0
 10
115.4
 20
19.95
 11
115.4
 21
13.65
  0
LINE
  8
0
 10
115.4
 20
13.65
 11
118.55
 21
13.65
  0
LINE
  8
0
 10
118.55
 20
13.65
 11
118.55
 21
0
  0
LINE
  8
0
 10
118.55
 20
0
 11
128.15
 21
0
  0
LINE
  8
0
 10
128.15
 20
0
 11
128.15
 21
3.14999
  0
LINE
  8
0
 10
-37.8
 20
3.14999
 11
-33.8
 21
3.14999
  0
LINE
  8
0
 10
-33.8
 20
3.14999
 11
-33.8
 21
0
  0
LINE
  8
0
 10
-33.8
 20
0
 11
-29.5
 21
0
  0
LINE
  8
0
 10
-29.5
 20
0
 11
-29.5
 21
10.8
  0
LINE
  8
0
 10
-29.5
 20
10.8
 11
-26.35
 21
10.8
  0
LINE
  8
0
 10
-26.35
 20
10.8
 11
-26.35
 21
14.8
  0
LINE
  8
0
 10
-26.35
 20
14.8
 11
-29.5
 21
14.8
  0
LINE
  8
0
 10
-29.5
 20
14.8
 11
-29.5
 21
18.8
  0
LINE
  8
0
 10
-29.5
 20
18.8
 11
-26.35
 21
18.8
  0
LINE
  8
0
 10
-26.35
 20
18.8
 11
-26.35
 21
22.8
  0
LINE
  8
0
 10
-26.35
 20
22.8
 11
-29.5
 21
22.8
  0
LINE
  8
0
 10
-29.5
 20
22.8
 11
-29.5
 21
33.6
  0
LINE
  8
0
 10
-29.5
 20
33.6
 11
-33.8
 21
33.6
  0
LINE
  8
0
 10
-33.8
 20
33.6
 11
-33.8
 21
30.45
  0
LINE
  8
0
 10
-33.8
 20
30.45
 11
-37.8
 21
30.45
  0
LINE
  8
0
 10
-37.8
 20
30.45
 11
-37.8
 21
33.6
  0
LINE
  8
0
 10
-37.8
 20
33.6
 11
-42.1
 21
33.6
  0
LINE
  8
0
 10
-42.1
 20
33.6
 11
-42.1
 21
22.8
  0
LINE
  8
0
 10
-42.1
 20
22.8
 11
-45.25
 21
22.8
  0
LINE
  8
0
 10
-45.25
 20
22.8
 11
-45.25
 21
18.8
  0
LINE
  8
0
 10
-45.25
 20
18.8
 11
-42.1
 21
18.8
  0
LINE
  8
0
 10
-42.1
 20
18.8
 11
-42.1
 21
14.8
  0
LINE
  8
0
 10
-42.1
 20
14.8
 11
-45.25
 21
14.8
  0
LINE
  8
0
 10
-45.25
 20
14.8
 11
-45.25
 21
10.8
  0
LINE
  8
0
 10
-45.25
 20
10.8
 11
-42.1
 21
10.8
  0
LINE
  8
0
 10
-42.1
 20
10.8
 11
-42.1
 21
0
  0
LINE
  8
0
 10
-42.1
 20
0
 11
-37.8
 21
0
  0
LINE
  8
0
 10
-37.8
 20
0
 11
-37.8
 21
3.14999
  0
LINE
  8
0
 10
-16.9
 20
3.14999
 11
-12.9
 21
3.14999
  0
LINE
  8
0
 10
-12.9
 20
3.14999
 11
-12.9
 21
0
  0
LINE
  8
0
 10
-12.9
 20
0
 11
-5.45001
 21
0
  0
LINE
  8
0
 10
-5.45001
 20
0
 11
-5.45001
 21
33.6
  0
LINE
  8
0
 10
-5.45001
 20
33.6
 11
-12.9
 21
33.6
  0
LINE
  8
0
 10
-12.9
 20
33.6
 11
-12.9
 21
30.45
  0
LINE
  8
0
 10
-12.9
 20
30.45
 11
-16.9
 21
30.45
  0
LINE
  8
0
 10
-16.9
 20
30.45
 11
-16.9
 21
33.6
  0
LINE
  8
0
 10
-16.9
 20
33.6
 11
-24.35
 21
33.6
  0
LINE
  8
0
 10
-24.35
 20
33.6
 11
-24.35
 21
22.8
  0
LINE
  8
0
 10
-24.35
 20
22.8
 11
-21.2
 21
22.8
  0
LINE
  8
0
 10
-21.2
 20
22.8
 11
-21.2
 21
18.8
  0
LINE
  8
0
 10
-21.2
 20
18.8
 11
-24.35
 21
18.8
  0
LINE
  8
0
 10
-24.35
 20
18.8
 11
-24.35
 21
14.8
  0
LINE
  8
0
 10
-24.35
 20
14.8
 11
-21.2
 21
14.8
  0
LINE
  8
0
 10
-21.2
 20
14.8
 11
-21.2
 21
10.8
  0
LINE
  8
0
 10
-21.2
 20
10.8
 11
-24.35
 21
10.8
  0
LINE
  8
0
 10
-24.35
 20
10.8
 11
-24.35
 21
0
  0
LINE
  8
0
 10
-24.35
 20
0
 11
-16.9
 21
0
  0
LINE
  8
0
 10
-16.9
 20
0
 11
-16.9
 21
3.14999
  0
LINE
  8
0
 10
-8.60002
 20
18.8
 11
-8.60002
 21
22.8
  0
LINE
  8
0
 10
-8.60002
 20
22.8
 11
-5.45003
 21
22.8
  0
LINE
  8
0
 10
-5.45003
 20
22.8
 11
-5.45003
 21
18.8
  0
LINE
  8
0
 10
-5.45003
 20
18.8
 11
-8.60002
 21
18.8
  0
LINE
  8
0
 10
-16.15
 20
13.3
 11
-16.15
 21
20.3
  0
LINE
  8
0
 10
-16.15
 20
20.3
 11
-13.65
 21
20.3
  0
LINE
  8
0
 10
-13.65
 20
20.3
 11
-13.65
 21
13.3
  0
LINE
  8
0
 10
-13.65
 20
13.3
 11
-16.15
 21
13.3
  0
LINE
  8
0
 10
-8.60002
 20
10.8
 11
-8.60002
 21
14.8
  0
LINE
  8
0
 10
-8.60002
 20
14.8
 11
-5.45003
 21
14.8
  0
LINE
  8
0
 10
-5.45003
 20
14.8
 11
-5.45003
 21
10.8
  0
LINE
  8
0
 10
-5.45003
 20
10.8
 11
-8.60002
 21
10.8
  0
ENDSEC
  0
SECTION
  2
OBJECTS
  0
DICTIONARY
  0
ENDSEC
  0
EOF
