  0
SECTION
  2
HEADER
  9
$ACADVER
  1
AC1009
  9
$EXTMIN
 10
0.0
 20
0.0
 30
0.0
  9
$EXTMAX
 10
1000.0
 20
1000.0
 30
0.0
  9
$FILLMODE
 70
 0
  9
$SPLFRAME
 70
 1
  0
ENDSEC
  0
SECTION
  2
TABLES
  0
TABLE
  2
LAYER
 70
1
  0
LAYER
  2
0
 70
     0
 62
     7
  6
CONTINUOUS
  0
ENDTAB
  0
ENDSEC
  0
SECTION
  2
ENTITIES
  0
POLYLINE
  8
0
 62
     7
 66
     1
 10
0
 20
0
 30
0.0
 70
     1
 40
0
 41
0
  0
VERTEX
  8
0
 10
0
 20
2.75
 30
0.0
 40
0
 41
0
  0
VERTEX
  8
0
 10
2.75
 20
2.75
 30
0.0
 40
0
 41
0
  0
VERTEX
  8
0
 10
2.75
 20
0
 30
0.0
 40
0
 41
0
  0
VERTEX
  8
0
 10
0
 20
0
 30
0.0
 40
0
 41
0
  0
VERTEX
  8
0
 10
0
 20
2.75
 30
0.0
 40
0
 41
0
  0
SEQEND
 8
0
  0
POLYLINE
  8
0
 62
     0
 66
     1
 10
0
 20
0
 30
0.0
 70
     1
 40
0
 41
0
  0
VERTEX
  8
0
 10
0.333333
 20
2.41667
 30
0.0
 40
0
 41
0
  0
VERTEX
  8
0
 10
0.416667
 20
2.41667
 30
0.0
 40
0
 41
0
  0
VERTEX
  8
0
 10
0.416667
 20
2.33333
 30
0.0
 40
0
 41
0
  0
VERTEX
  8
0
 10
0.333333
 20
2.33333
 30
0.0
 40
0
 41
0
  0
VERTEX
  8
0
 10
0.333333
 20
2.41667
 30
0.0
 40
0
 41
0
  0
SEQEND
 8
0
  0
POLYLINE
  8
0
 62
     0
 66
     1
 10
0
 20
0
 30
0.0
 70
     1
 40
0
 41
0
  0
VERTEX
  8
0
 10
0.333333
 20
2.33333
 30
0.0
 40
0
 41
0
  0
VERTEX
  8
0
 10
0.416667
 20
2.33333
 30
0.0
 40
0
 41
0
  0
VERTEX
  8
0
 10
0.416667
 20
2.25
 30
0.0
 40
0
 41
0
  0
VERTEX
  8
0
 10
0.333333
 20
2.25
 30
0.0
 40
0
 41
0
  0
VERTEX
  8
0
 10
0.333333
 20
2.33333
 30
0.0
 40
0
 41
0
  0
SEQEND
 8
0
  0
POLYLINE
  8
0
 62
     0
 66
     1
 10
0
 20
0
 30
0.0
 70
     1
 40
0
 41
0
  0
VERTEX
  8
0
 10
0.333333
 20
2.25
 30
0.0
 40
0
 41
0
  0
VERTEX
  8
0
 10
0.416667
 20
2.25
 30
0.0
 40
0
 41
0
  0
VERTEX
  8
0
 10
0.416667
 20
2.16667
 30
0.0
 40
0
 41
0
  0
VERTEX
  8
0
 10
0.333333
 20
2.16667
 30
0.0
 40
0
 41
0
  0
VERTEX
  8
0
 10
0.333333
 20
2.25
 30
0.0
 40
0
 41
0
  0
SEQEND
 8
0
  0
POLYLINE
  8
0
 62
     0
 66
     1
 10
0
 20
0
 30
0.0
 70
     1
 40
0
 41
0
  0
VERTEX
  8
0
 10
0.333333
 20
2.16667
 30
0.0
 40
0
 41
0
  0
VERTEX
  8
0
 10
0.416667
 20
2.16667
 30
0.0
 40
0
 41
0
  0
VERTEX
  8
0
 10
0.416667
 20
2.08333
 30
0.0
 40
0
 41
0
  0
VERTEX
  8
0
 10
0.333333
 20
2.08333
 30
0.0
 40
0
 41
0
  0
VERTEX
  8
0
 10
0.333333
 20
2.16667
 30
0.0
 40
0
 41
0
  0
SEQEND
 8
0
  0
POLYLINE
  8
0
 62
     0
 66
     1
 10
0
 20
0
 30
0.0
 70
     1
 40
0
 41
0
  0
VERTEX
  8
0
 10
0.333333
 20
2.08333
 30
0.0
 40
0
 41
0
  0
VERTEX
  8
0
 10
0.416667
 20
2.08333
 30
0.0
 40
0
 41
0
  0
VERTEX
  8
0
 10
0.416667
 20
2
 30
0.0
 40
0
 41
0
  0
VERTEX
  8
0
 10
0.333333
 20
2
 30
0.0
 40
0
 41
0
  0
VERTEX
  8
0
 10
0.333333
 20
2.08333
 30
0.0
 40
0
 41
0
  0
SEQEND
 8
0
  0
POLYLINE
  8
0
 62
     0
 66
     1
 10
0
 20
0
 30
0.0
 70
     1
 40
0
 41
0
  0
VERTEX
  8
0
 10
0.333333
 20
2
 30
0.0
 40
0
 41
0
  0
VERTEX
  8
0
 10
0.416667
 20
2
 30
0.0
 40
0
 41
0
  0
VERTEX
  8
0
 10
0.416667
 20
1.91667
 30
0.0
 40
0
 41
0
  0
VERTEX
  8
0
 10
0.333333
 20
1.91667
 30
0.0
 40
0
 41
0
  0
VERTEX
  8
0
 10
0.333333
 20
2
 30
0.0
 40
0
 41
0
  0
SEQEND
 8
0
  0
POLYLINE
  8
0
 62
     0
 66
     1
 10
0
 20
0
 30
0.0
 70
     1
 40
0
 41
0
  0
VERTEX
  8
0
 10
0.333333
 20
1.91667
 30
0.0
 40
0
 41
0
  0
VERTEX
  8
0
 10
0.416667
 20
1.91667
 30
0.0
 40
0
 41
0
  0
VERTEX
  8
0
 10
0.416667
 20
1.83333
 30
0.0
 40
0
 41
0
  0
VERTEX
  8
0
 10
0.333333
 20
1.83333
 30
0.0
 40
0
 41
0
  0
VERTEX
  8
0
 10
0.333333
 20
1.91667
 30
0.0
 40
0
 41
0
  0
SEQEND
 8
0
  0
POLYLINE
  8
0
 62
     0
 66
     1
 10
0
 20
0
 30
0.0
 70
     1
 40
0
 41
0
  0
VERTEX
  8
0
 10
0.333333
 20
1.75
 30
0.0
 40
0
 41
0
  0
VERTEX
  8
0
 10
0.416667
 20
1.75
 30
0.0
 40
0
 41
0
  0
VERTEX
  8
0
 10
0.416667
 20
1.66667
 30
0.0
 40
0
 41
0
  0
VERTEX
  8
0
 10
0.333333
 20
1.66667
 30
0.0
 40
0
 41
0
  0
VERTEX
  8
0
 10
0.333333
 20
1.75
 30
0.0
 40
0
 41
0
  0
SEQEND
 8
0
  0
POLYLINE
  8
0
 62
     0
 66
     1
 10
0
 20
0
 30
0.0
 70
     1
 40
0
 41
0
  0
VERTEX
  8
0
 10
0.333333
 20
1.58333
 30
0.0
 40
0
 41
0
  0
VERTEX
  8
0
 10
0.416667
 20
1.58333
 30
0.0
 40
0
 41
0
  0
VERTEX
  8
0
 10
0.416667
 20
1.5
 30
0.0
 40
0
 41
0
  0
VERTEX
  8
0
 10
0.333333
 20
1.5
 30
0.0
 40
0
 41
0
  0
VERTEX
  8
0
 10
0.333333
 20
1.58333
 30
0.0
 40
0
 41
0
  0
SEQEND
 8
0
  0
POLYLINE
  8
0
 62
     0
 66
     1
 10
0
 20
0
 30
0.0
 70
     1
 40
0
 41
0
  0
VERTEX
  8
0
 10
0.333333
 20
1.41667
 30
0.0
 40
0
 41
0
  0
VERTEX
  8
0
 10
0.416667
 20
1.41667
 30
0.0
 40
0
 41
0
  0
VERTEX
  8
0
 10
0.416667
 20
1.33333
 30
0.0
 40
0
 41
0
  0
VERTEX
  8
0
 10
0.333333
 20
1.33333
 30
0.0
 40
0
 41
0
  0
VERTEX
  8
0
 10
0.333333
 20
1.41667
 30
0.0
 40
0
 41
0
  0
SEQEND
 8
0
  0
POLYLINE
  8
0
 62
     0
 66
     1
 10
0
 20
0
 30
0.0
 70
     1
 40
0
 41
0
  0
VERTEX
  8
0
 10
0.333333
 20
0.916667
 30
0.0
 40
0
 41
0
  0
VERTEX
  8
0
 10
0.416667
 20
0.916667
 30
0.0
 40
0
 41
0
  0
VERTEX
  8
0
 10
0.416667
 20
0.833333
 30
0.0
 40
0
 41
0
  0
VERTEX
  8
0
 10
0.333333
 20
0.833333
 30
0.0
 40
0
 41
0
  0
VERTEX
  8
0
 10
0.333333
 20
0.916667
 30
0.0
 40
0
 41
0
  0
SEQEND
 8
0
  0
POLYLINE
  8
0
 62
     0
 66
     1
 10
0
 20
0
 30
0.0
 70
     1
 40
0
 41
0
  0
VERTEX
  8
0
 10
0.333333
 20
0.833333
 30
0.0
 40
0
 41
0
  0
VERTEX
  8
0
 10
0.416667
 20
0.833333
 30
0.0
 40
0
 41
0
  0
VERTEX
  8
0
 10
0.416667
 20
0.75
 30
0.0
 40
0
 41
0
  0
VERTEX
  8
0
 10
0.333333
 20
0.75
 30
0.0
 40
0
 41
0
  0
VERTEX
  8
0
 10
0.333333
 20
0.833333
 30
0.0
 40
0
 41
0
  0
SEQEND
 8
0
  0
POLYLINE
  8
0
 62
     0
 66
     1
 10
0
 20
0
 30
0.0
 70
     1
 40
0
 41
0
  0
VERTEX
  8
0
 10
0.333333
 20
0.75
 30
0.0
 40
0
 41
0
  0
VERTEX
  8
0
 10
0.416667
 20
0.75
 30
0.0
 40
0
 41
0
  0
VERTEX
  8
0
 10
0.416667
 20
0.666667
 30
0.0
 40
0
 41
0
  0
VERTEX
  8
0
 10
0.333333
 20
0.666667
 30
0.0
 40
0
 41
0
  0
VERTEX
  8
0
 10
0.333333
 20
0.75
 30
0.0
 40
0
 41
0
  0
SEQEND
 8
0
  0
POLYLINE
  8
0
 62
     0
 66
     1
 10
0
 20
0
 30
0.0
 70
     1
 40
0
 41
0
  0
VERTEX
  8
0
 10
0.333333
 20
0.666667
 30
0.0
 40
0
 41
0
  0
VERTEX
  8
0
 10
0.416667
 20
0.666667
 30
0.0
 40
0
 41
0
  0
VERTEX
  8
0
 10
0.416667
 20
0.583333
 30
0.0
 40
0
 41
0
  0
VERTEX
  8
0
 10
0.333333
 20
0.583333
 30
0.0
 40
0
 41
0
  0
VERTEX
  8
0
 10
0.333333
 20
0.666667
 30
0.0
 40
0
 41
0
  0
SEQEND
 8
0
  0
POLYLINE
  8
0
 62
     0
 66
     1
 10
0
 20
0
 30
0.0
 70
     1
 40
0
 41
0
  0
VERTEX
  8
0
 10
0.333333
 20
0.583333
 30
0.0
 40
0
 41
0
  0
VERTEX
  8
0
 10
0.416667
 20
0.583333
 30
0.0
 40
0
 41
0
  0
VERTEX
  8
0
 10
0.416667
 20
0.5
 30
0.0
 40
0
 41
0
  0
VERTEX
  8
0
 10
0.333333
 20
0.5
 30
0.0
 40
0
 41
0
  0
VERTEX
  8
0
 10
0.333333
 20
0.583333
 30
0.0
 40
0
 41
0
  0
SEQEND
 8
0
  0
POLYLINE
  8
0
 62
     0
 66
     1
 10
0
 20
0
 30
0.0
 70
     1
 40
0
 41
0
  0
VERTEX
  8
0
 10
0.333333
 20
0.5
 30
0.0
 40
0
 41
0
  0
VERTEX
  8
0
 10
0.416667
 20
0.5
 30
0.0
 40
0
 41
0
  0
VERTEX
  8
0
 10
0.416667
 20
0.416667
 30
0.0
 40
0
 41
0
  0
VERTEX
  8
0
 10
0.333333
 20
0.416667
 30
0.0
 40
0
 41
0
  0
VERTEX
  8
0
 10
0.333333
 20
0.5
 30
0.0
 40
0
 41
0
  0
SEQEND
 8
0
  0
POLYLINE
  8
0
 62
     0
 66
     1
 10
0
 20
0
 30
0.0
 70
     1
 40
0
 41
0
  0
VERTEX
  8
0
 10
0.333333
 20
0.416667
 30
0.0
 40
0
 41
0
  0
VERTEX
  8
0
 10
0.416667
 20
0.416667
 30
0.0
 40
0
 41
0
  0
VERTEX
  8
0
 10
0.416667
 20
0.333333
 30
0.0
 40
0
 41
0
  0
VERTEX
  8
0
 10
0.333333
 20
0.333333
 30
0.0
 40
0
 41
0
  0
VERTEX
  8
0
 10
0.333333
 20
0.416667
 30
0.0
 40
0
 41
0
  0
SEQEND
 8
0
  0
POLYLINE
  8
0
 62
     0
 66
     1
 10
0
 20
0
 30
0.0
 70
     1
 40
0
 41
0
  0
VERTEX
  8
0
 10
0.416667
 20
2.41667
 30
0.0
 40
0
 41
0
  0
VERTEX
  8
0
 10
0.5
 20
2.41667
 30
0.0
 40
0
 41
0
  0
VERTEX
  8
0
 10
0.5
 20
2.33333
 30
0.0
 40
0
 41
0
  0
VERTEX
  8
0
 10
0.416667
 20
2.33333
 30
0.0
 40
0
 41
0
  0
VERTEX
  8
0
 10
0.416667
 20
2.41667
 30
0.0
 40
0
 41
0
  0
SEQEND
 8
0
  0
POLYLINE
  8
0
 62
     0
 66
     1
 10
0
 20
0
 30
0.0
 70
     1
 40
0
 41
0
  0
VERTEX
  8
0
 10
0.416667
 20
1.91667
 30
0.0
 40
0
 41
0
  0
VERTEX
  8
0
 10
0.5
 20
1.91667
 30
0.0
 40
0
 41
0
  0
VERTEX
  8
0
 10
0.5
 20
1.83333
 30
0.0
 40
0
 41
0
  0
VERTEX
  8
0
 10
0.416667
 20
1.83333
 30
0.0
 40
0
 41
0
  0
VERTEX
  8
0
 10
0.416667
 20
1.91667
 30
0.0
 40
0
 41
0
  0
SEQEND
 8
0
  0
POLYLINE
  8
0
 62
     0
 66
     1
 10
0
 20
0
 30
0.0
 70
     1
 40
0
 41
0
  0
VERTEX
  8
0
 10
0.416667
 20
1.75
 30
0.0
 40
0
 41
0
  0
VERTEX
  8
0
 10
0.5
 20
1.75
 30
0.0
 40
0
 41
0
  0
VERTEX
  8
0
 10
0.5
 20
1.66667
 30
0.0
 40
0
 41
0
  0
VERTEX
  8
0
 10
0.416667
 20
1.66667
 30
0.0
 40
0
 41
0
  0
VERTEX
  8
0
 10
0.416667
 20
1.75
 30
0.0
 40
0
 41
0
  0
SEQEND
 8
0
  0
POLYLINE
  8
0
 62
     0
 66
     1
 10
0
 20
0
 30
0.0
 70
     1
 40
0
 41
0
  0
VERTEX
  8
0
 10
0.416667
 20
1.66667
 30
0.0
 40
0
 41
0
  0
VERTEX
  8
0
 10
0.5
 20
1.66667
 30
0.0
 40
0
 41
0
  0
VERTEX
  8
0
 10
0.5
 20
1.58333
 30
0.0
 40
0
 41
0
  0
VERTEX
  8
0
 10
0.416667
 20
1.58333
 30
0.0
 40
0
 41
0
  0
VERTEX
  8
0
 10
0.416667
 20
1.66667
 30
0.0
 40
0
 41
0
  0
SEQEND
 8
0
  0
POLYLINE
  8
0
 62
     0
 66
     1
 10
0
 20
0
 30
0.0
 70
     1
 40
0
 41
0
  0
VERTEX
  8
0
 10
0.416667
 20
1.58333
 30
0.0
 40
0
 41
0
  0
VERTEX
  8
0
 10
0.5
 20
1.58333
 30
0.0
 40
0
 41
0
  0
VERTEX
  8
0
 10
0.5
 20
1.5
 30
0.0
 40
0
 41
0
  0
VERTEX
  8
0
 10
0.416667
 20
1.5
 30
0.0
 40
0
 41
0
  0
VERTEX
  8
0
 10
0.416667
 20
1.58333
 30
0.0
 40
0
 41
0
  0
SEQEND
 8
0
  0
POLYLINE
  8
0
 62
     0
 66
     1
 10
0
 20
0
 30
0.0
 70
     1
 40
0
 41
0
  0
VERTEX
  8
0
 10
0.416667
 20
1.5
 30
0.0
 40
0
 41
0
  0
VERTEX
  8
0
 10
0.5
 20
1.5
 30
0.0
 40
0
 41
0
  0
VERTEX
  8
0
 10
0.5
 20
1.41667
 30
0.0
 40
0
 41
0
  0
VERTEX
  8
0
 10
0.416667
 20
1.41667
 30
0.0
 40
0
 41
0
  0
VERTEX
  8
0
 10
0.416667
 20
1.5
 30
0.0
 40
0
 41
0
  0
SEQEND
 8
0
  0
POLYLINE
  8
0
 62
     0
 66
     1
 10
0
 20
0
 30
0.0
 70
     1
 40
0
 41
0
  0
VERTEX
  8
0
 10
0.416667
 20
1.41667
 30
0.0
 40
0
 41
0
  0
VERTEX
  8
0
 10
0.5
 20
1.41667
 30
0.0
 40
0
 41
0
  0
VERTEX
  8
0
 10
0.5
 20
1.33333
 30
0.0
 40
0
 41
0
  0
VERTEX
  8
0
 10
0.416667
 20
1.33333
 30
0.0
 40
0
 41
0
  0
VERTEX
  8
0
 10
0.416667
 20
1.41667
 30
0.0
 40
0
 41
0
  0
SEQEND
 8
0
  0
POLYLINE
  8
0
 62
     0
 66
     1
 10
0
 20
0
 30
0.0
 70
     1
 40
0
 41
0
  0
VERTEX
  8
0
 10
0.416667
 20
1.16667
 30
0.0
 40
0
 41
0
  0
VERTEX
  8
0
 10
0.5
 20
1.16667
 30
0.0
 40
0
 41
0
  0
VERTEX
  8
0
 10
0.5
 20
1.08333
 30
0.0
 40
0
 41
0
  0
VERTEX
  8
0
 10
0.416667
 20
1.08333
 30
0.0
 40
0
 41
0
  0
VERTEX
  8
0
 10
0.416667
 20
1.16667
 30
0.0
 40
0
 41
0
  0
SEQEND
 8
0
  0
POLYLINE
  8
0
 62
     0
 66
     1
 10
0
 20
0
 30
0.0
 70
     1
 40
0
 41
0
  0
VERTEX
  8
0
 10
0.416667
 20
1.08333
 30
0.0
 40
0
 41
0
  0
VERTEX
  8
0
 10
0.5
 20
1.08333
 30
0.0
 40
0
 41
0
  0
VERTEX
  8
0
 10
0.5
 20
1
 30
0.0
 40
0
 41
0
  0
VERTEX
  8
0
 10
0.416667
 20
1
 30
0.0
 40
0
 41
0
  0
VERTEX
  8
0
 10
0.416667
 20
1.08333
 30
0.0
 40
0
 41
0
  0
SEQEND
 8
0
  0
POLYLINE
  8
0
 62
     0
 66
     1
 10
0
 20
0
 30
0.0
 70
     1
 40
0
 41
0
  0
VERTEX
  8
0
 10
0.416667
 20
0.916667
 30
0.0
 40
0
 41
0
  0
VERTEX
  8
0
 10
0.5
 20
0.916667
 30
0.0
 40
0
 41
0
  0
VERTEX
  8
0
 10
0.5
 20
0.833333
 30
0.0
 40
0
 41
0
  0
VERTEX
  8
0
 10
0.416667
 20
0.833333
 30
0.0
 40
0
 41
0
  0
VERTEX
  8
0
 10
0.416667
 20
0.916667
 30
0.0
 40
0
 41
0
  0
SEQEND
 8
0
  0
POLYLINE
  8
0
 62
     0
 66
     1
 10
0
 20
0
 30
0.0
 70
     1
 40
0
 41
0
  0
VERTEX
  8
0
 10
0.416667
 20
0.416667
 30
0.0
 40
0
 41
0
  0
VERTEX
  8
0
 10
0.5
 20
0.416667
 30
0.0
 40
0
 41
0
  0
VERTEX
  8
0
 10
0.5
 20
0.333333
 30
0.0
 40
0
 41
0
  0
VERTEX
  8
0
 10
0.416667
 20
0.333333
 30
0.0
 40
0
 41
0
  0
VERTEX
  8
0
 10
0.416667
 20
0.416667
 30
0.0
 40
0
 41
0
  0
SEQEND
 8
0
  0
POLYLINE
  8
0
 62
     0
 66
     1
 10
0
 20
0
 30
0.0
 70
     1
 40
0
 41
0
  0
VERTEX
  8
0
 10
0.5
 20
2.41667
 30
0.0
 40
0
 41
0
  0
VERTEX
  8
0
 10
0.583333
 20
2.41667
 30
0.0
 40
0
 41
0
  0
VERTEX
  8
0
 10
0.583333
 20
2.33333
 30
0.0
 40
0
 41
0
  0
VERTEX
  8
0
 10
0.5
 20
2.33333
 30
0.0
 40
0
 41
0
  0
VERTEX
  8
0
 10
0.5
 20
2.41667
 30
0.0
 40
0
 41
0
  0
SEQEND
 8
0
  0
POLYLINE
  8
0
 62
     0
 66
     1
 10
0
 20
0
 30
0.0
 70
     1
 40
0
 41
0
  0
VERTEX
  8
0
 10
0.5
 20
2.25
 30
0.0
 40
0
 41
0
  0
VERTEX
  8
0
 10
0.583333
 20
2.25
 30
0.0
 40
0
 41
0
  0
VERTEX
  8
0
 10
0.583333
 20
2.16667
 30
0.0
 40
0
 41
0
  0
VERTEX
  8
0
 10
0.5
 20
2.16667
 30
0.0
 40
0
 41
0
  0
VERTEX
  8
0
 10
0.5
 20
2.25
 30
0.0
 40
0
 41
0
  0
SEQEND
 8
0
  0
POLYLINE
  8
0
 62
     0
 66
     1
 10
0
 20
0
 30
0.0
 70
     1
 40
0
 41
0
  0
VERTEX
  8
0
 10
0.5
 20
2.16667
 30
0.0
 40
0
 41
0
  0
VERTEX
  8
0
 10
0.583333
 20
2.16667
 30
0.0
 40
0
 41
0
  0
VERTEX
  8
0
 10
0.583333
 20
2.08333
 30
0.0
 40
0
 41
0
  0
VERTEX
  8
0
 10
0.5
 20
2.08333
 30
0.0
 40
0
 41
0
  0
VERTEX
  8
0
 10
0.5
 20
2.16667
 30
0.0
 40
0
 41
0
  0
SEQEND
 8
0
  0
POLYLINE
  8
0
 62
     0
 66
     1
 10
0
 20
0
 30
0.0
 70
     1
 40
0
 41
0
  0
VERTEX
  8
0
 10
0.5
 20
2.08333
 30
0.0
 40
0
 41
0
  0
VERTEX
  8
0
 10
0.583333
 20
2.08333
 30
0.0
 40
0
 41
0
  0
VERTEX
  8
0
 10
0.583333
 20
2
 30
0.0
 40
0
 41
0
  0
VERTEX
  8
0
 10
0.5
 20
2
 30
0.0
 40
0
 41
0
  0
VERTEX
  8
0
 10
0.5
 20
2.08333
 30
0.0
 40
0
 41
0
  0
SEQEND
 8
0
  0
POLYLINE
  8
0
 62
     0
 66
     1
 10
0
 20
0
 30
0.0
 70
     1
 40
0
 41
0
  0
VERTEX
  8
0
 10
0.5
 20
1.91667
 30
0.0
 40
0
 41
0
  0
VERTEX
  8
0
 10
0.583333
 20
1.91667
 30
0.0
 40
0
 41
0
  0
VERTEX
  8
0
 10
0.583333
 20
1.83333
 30
0.0
 40
0
 41
0
  0
VERTEX
  8
0
 10
0.5
 20
1.83333
 30
0.0
 40
0
 41
0
  0
VERTEX
  8
0
 10
0.5
 20
1.91667
 30
0.0
 40
0
 41
0
  0
SEQEND
 8
0
  0
POLYLINE
  8
0
 62
     0
 66
     1
 10
0
 20
0
 30
0.0
 70
     1
 40
0
 41
0
  0
VERTEX
  8
0
 10
0.5
 20
1.66667
 30
0.0
 40
0
 41
0
  0
VERTEX
  8
0
 10
0.583333
 20
1.66667
 30
0.0
 40
0
 41
0
  0
VERTEX
  8
0
 10
0.583333
 20
1.58333
 30
0.0
 40
0
 41
0
  0
VERTEX
  8
0
 10
0.5
 20
1.58333
 30
0.0
 40
0
 41
0
  0
VERTEX
  8
0
 10
0.5
 20
1.66667
 30
0.0
 40
0
 41
0
  0
SEQEND
 8
0
  0
POLYLINE
  8
0
 62
     0
 66
     1
 10
0
 20
0
 30
0.0
 70
     1
 40
0
 41
0
  0
VERTEX
  8
0
 10
0.5
 20
1.5
 30
0.0
 40
0
 41
0
  0
VERTEX
  8
0
 10
0.583333
 20
1.5
 30
0.0
 40
0
 41
0
  0
VERTEX
  8
0
 10
0.583333
 20
1.41667
 30
0.0
 40
0
 41
0
  0
VERTEX
  8
0
 10
0.5
 20
1.41667
 30
0.0
 40
0
 41
0
  0
VERTEX
  8
0
 10
0.5
 20
1.5
 30
0.0
 40
0
 41
0
  0
SEQEND
 8
0
  0
POLYLINE
  8
0
 62
     0
 66
     1
 10
0
 20
0
 30
0.0
 70
     1
 40
0
 41
0
  0
VERTEX
  8
0
 10
0.5
 20
1.25
 30
0.0
 40
0
 41
0
  0
VERTEX
  8
0
 10
0.583333
 20
1.25
 30
0.0
 40
0
 41
0
  0
VERTEX
  8
0
 10
0.583333
 20
1.16667
 30
0.0
 40
0
 41
0
  0
VERTEX
  8
0
 10
0.5
 20
1.16667
 30
0.0
 40
0
 41
0
  0
VERTEX
  8
0
 10
0.5
 20
1.25
 30
0.0
 40
0
 41
0
  0
SEQEND
 8
0
  0
POLYLINE
  8
0
 62
     0
 66
     1
 10
0
 20
0
 30
0.0
 70
     1
 40
0
 41
0
  0
VERTEX
  8
0
 10
0.5
 20
1.16667
 30
0.0
 40
0
 41
0
  0
VERTEX
  8
0
 10
0.583333
 20
1.16667
 30
0.0
 40
0
 41
0
  0
VERTEX
  8
0
 10
0.583333
 20
1.08333
 30
0.0
 40
0
 41
0
  0
VERTEX
  8
0
 10
0.5
 20
1.08333
 30
0.0
 40
0
 41
0
  0
VERTEX
  8
0
 10
0.5
 20
1.16667
 30
0.0
 40
0
 41
0
  0
SEQEND
 8
0
  0
POLYLINE
  8
0
 62
     0
 66
     1
 10
0
 20
0
 30
0.0
 70
     1
 40
0
 41
0
  0
VERTEX
  8
0
 10
0.5
 20
0.916667
 30
0.0
 40
0
 41
0
  0
VERTEX
  8
0
 10
0.583333
 20
0.916667
 30
0.0
 40
0
 41
0
  0
VERTEX
  8
0
 10
0.583333
 20
0.833333
 30
0.0
 40
0
 41
0
  0
VERTEX
  8
0
 10
0.5
 20
0.833333
 30
0.0
 40
0
 41
0
  0
VERTEX
  8
0
 10
0.5
 20
0.916667
 30
0.0
 40
0
 41
0
  0
SEQEND
 8
0
  0
POLYLINE
  8
0
 62
     0
 66
     1
 10
0
 20
0
 30
0.0
 70
     1
 40
0
 41
0
  0
VERTEX
  8
0
 10
0.5
 20
0.75
 30
0.0
 40
0
 41
0
  0
VERTEX
  8
0
 10
0.583333
 20
0.75
 30
0.0
 40
0
 41
0
  0
VERTEX
  8
0
 10
0.583333
 20
0.666667
 30
0.0
 40
0
 41
0
  0
VERTEX
  8
0
 10
0.5
 20
0.666667
 30
0.0
 40
0
 41
0
  0
VERTEX
  8
0
 10
0.5
 20
0.75
 30
0.0
 40
0
 41
0
  0
SEQEND
 8
0
  0
POLYLINE
  8
0
 62
     0
 66
     1
 10
0
 20
0
 30
0.0
 70
     1
 40
0
 41
0
  0
VERTEX
  8
0
 10
0.5
 20
0.666667
 30
0.0
 40
0
 41
0
  0
VERTEX
  8
0
 10
0.583333
 20
0.666667
 30
0.0
 40
0
 41
0
  0
VERTEX
  8
0
 10
0.583333
 20
0.583333
 30
0.0
 40
0
 41
0
  0
VERTEX
  8
0
 10
0.5
 20
0.583333
 30
0.0
 40
0
 41
0
  0
VERTEX
  8
0
 10
0.5
 20
0.666667
 30
0.0
 40
0
 41
0
  0
SEQEND
 8
0
  0
POLYLINE
  8
0
 62
     0
 66
     1
 10
0
 20
0
 30
0.0
 70
     1
 40
0
 41
0
  0
VERTEX
  8
0
 10
0.5
 20
0.583333
 30
0.0
 40
0
 41
0
  0
VERTEX
  8
0
 10
0.583333
 20
0.583333
 30
0.0
 40
0
 41
0
  0
VERTEX
  8
0
 10
0.583333
 20
0.5
 30
0.0
 40
0
 41
0
  0
VERTEX
  8
0
 10
0.5
 20
0.5
 30
0.0
 40
0
 41
0
  0
VERTEX
  8
0
 10
0.5
 20
0.583333
 30
0.0
 40
0
 41
0
  0
SEQEND
 8
0
  0
POLYLINE
  8
0
 62
     0
 66
     1
 10
0
 20
0
 30
0.0
 70
     1
 40
0
 41
0
  0
VERTEX
  8
0
 10
0.5
 20
0.416667
 30
0.0
 40
0
 41
0
  0
VERTEX
  8
0
 10
0.583333
 20
0.416667
 30
0.0
 40
0
 41
0
  0
VERTEX
  8
0
 10
0.583333
 20
0.333333
 30
0.0
 40
0
 41
0
  0
VERTEX
  8
0
 10
0.5
 20
0.333333
 30
0.0
 40
0
 41
0
  0
VERTEX
  8
0
 10
0.5
 20
0.416667
 30
0.0
 40
0
 41
0
  0
SEQEND
 8
0
  0
POLYLINE
  8
0
 62
     0
 66
     1
 10
0
 20
0
 30
0.0
 70
     1
 40
0
 41
0
  0
VERTEX
  8
0
 10
0.583333
 20
2.41667
 30
0.0
 40
0
 41
0
  0
VERTEX
  8
0
 10
0.666667
 20
2.41667
 30
0.0
 40
0
 41
0
  0
VERTEX
  8
0
 10
0.666667
 20
2.33333
 30
0.0
 40
0
 41
0
  0
VERTEX
  8
0
 10
0.583333
 20
2.33333
 30
0.0
 40
0
 41
0
  0
VERTEX
  8
0
 10
0.583333
 20
2.41667
 30
0.0
 40
0
 41
0
  0
SEQEND
 8
0
  0
POLYLINE
  8
0
 62
     0
 66
     1
 10
0
 20
0
 30
0.0
 70
     1
 40
0
 41
0
  0
VERTEX
  8
0
 10
0.583333
 20
2.25
 30
0.0
 40
0
 41
0
  0
VERTEX
  8
0
 10
0.666667
 20
2.25
 30
0.0
 40
0
 41
0
  0
VERTEX
  8
0
 10
0.666667
 20
2.16667
 30
0.0
 40
0
 41
0
  0
VERTEX
  8
0
 10
0.583333
 20
2.16667
 30
0.0
 40
0
 41
0
  0
VERTEX
  8
0
 10
0.583333
 20
2.25
 30
0.0
 40
0
 41
0
  0
SEQEND
 8
0
  0
POLYLINE
  8
0
 62
     0
 66
     1
 10
0
 20
0
 30
0.0
 70
     1
 40
0
 41
0
  0
VERTEX
  8
0
 10
0.583333
 20
2.16667
 30
0.0
 40
0
 41
0
  0
VERTEX
  8
0
 10
0.666667
 20
2.16667
 30
0.0
 40
0
 41
0
  0
VERTEX
  8
0
 10
0.666667
 20
2.08333
 30
0.0
 40
0
 41
0
  0
VERTEX
  8
0
 10
0.583333
 20
2.08333
 30
0.0
 40
0
 41
0
  0
VERTEX
  8
0
 10
0.583333
 20
2.16667
 30
0.0
 40
0
 41
0
  0
SEQEND
 8
0
  0
POLYLINE
  8
0
 62
     0
 66
     1
 10
0
 20
0
 30
0.0
 70
     1
 40
0
 41
0
  0
VERTEX
  8
0
 10
0.583333
 20
2.08333
 30
0.0
 40
0
 41
0
  0
VERTEX
  8
0
 10
0.666667
 20
2.08333
 30
0.0
 40
0
 41
0
  0
VERTEX
  8
0
 10
0.666667
 20
2
 30
0.0
 40
0
 41
0
  0
VERTEX
  8
0
 10
0.583333
 20
2
 30
0.0
 40
0
 41
0
  0
VERTEX
  8
0
 10
0.583333
 20
2.08333
 30
0.0
 40
0
 41
0
  0
SEQEND
 8
0
  0
POLYLINE
  8
0
 62
     0
 66
     1
 10
0
 20
0
 30
0.0
 70
     1
 40
0
 41
0
  0
VERTEX
  8
0
 10
0.583333
 20
1.91667
 30
0.0
 40
0
 41
0
  0
VERTEX
  8
0
 10
0.666667
 20
1.91667
 30
0.0
 40
0
 41
0
  0
VERTEX
  8
0
 10
0.666667
 20
1.83333
 30
0.0
 40
0
 41
0
  0
VERTEX
  8
0
 10
0.583333
 20
1.83333
 30
0.0
 40
0
 41
0
  0
VERTEX
  8
0
 10
0.583333
 20
1.91667
 30
0.0
 40
0
 41
0
  0
SEQEND
 8
0
  0
POLYLINE
  8
0
 62
     0
 66
     1
 10
0
 20
0
 30
0.0
 70
     1
 40
0
 41
0
  0
VERTEX
  8
0
 10
0.583333
 20
1.75
 30
0.0
 40
0
 41
0
  0
VERTEX
  8
0
 10
0.666667
 20
1.75
 30
0.0
 40
0
 41
0
  0
VERTEX
  8
0
 10
0.666667
 20
1.66667
 30
0.0
 40
0
 41
0
  0
VERTEX
  8
0
 10
0.583333
 20
1.66667
 30
0.0
 40
0
 41
0
  0
VERTEX
  8
0
 10
0.583333
 20
1.75
 30
0.0
 40
0
 41
0
  0
SEQEND
 8
0
  0
POLYLINE
  8
0
 62
     0
 66
     1
 10
0
 20
0
 30
0.0
 70
     1
 40
0
 41
0
  0
VERTEX
  8
0
 10
0.583333
 20
1.16667
 30
0.0
 40
0
 41
0
  0
VERTEX
  8
0
 10
0.666667
 20
1.16667
 30
0.0
 40
0
 41
0
  0
VERTEX
  8
0
 10
0.666667
 20
1.08333
 30
0.0
 40
0
 41
0
  0
VERTEX
  8
0
 10
0.583333
 20
1.08333
 30
0.0
 40
0
 41
0
  0
VERTEX
  8
0
 10
0.583333
 20
1.16667
 30
0.0
 40
0
 41
0
  0
SEQEND
 8
0
  0
POLYLINE
  8
0
 62
     0
 66
     1
 10
0
 20
0
 30
0.0
 70
     1
 40
0
 41
0
  0
VERTEX
  8
0
 10
0.583333
 20
1.08333
 30
0.0
 40
0
 41
0
  0
VERTEX
  8
0
 10
0.666667
 20
1.08333
 30
0.0
 40
0
 41
0
  0
VERTEX
  8
0
 10
0.666667
 20
1
 30
0.0
 40
0
 41
0
  0
VERTEX
  8
0
 10
0.583333
 20
1
 30
0.0
 40
0
 41
0
  0
VERTEX
  8
0
 10
0.583333
 20
1.08333
 30
0.0
 40
0
 41
0
  0
SEQEND
 8
0
  0
POLYLINE
  8
0
 62
     0
 66
     1
 10
0
 20
0
 30
0.0
 70
     1
 40
0
 41
0
  0
VERTEX
  8
0
 10
0.583333
 20
0.916667
 30
0.0
 40
0
 41
0
  0
VERTEX
  8
0
 10
0.666667
 20
0.916667
 30
0.0
 40
0
 41
0
  0
VERTEX
  8
0
 10
0.666667
 20
0.833333
 30
0.0
 40
0
 41
0
  0
VERTEX
  8
0
 10
0.583333
 20
0.833333
 30
0.0
 40
0
 41
0
  0
VERTEX
  8
0
 10
0.583333
 20
0.916667
 30
0.0
 40
0
 41
0
  0
SEQEND
 8
0
  0
POLYLINE
  8
0
 62
     0
 66
     1
 10
0
 20
0
 30
0.0
 70
     1
 40
0
 41
0
  0
VERTEX
  8
0
 10
0.583333
 20
0.75
 30
0.0
 40
0
 41
0
  0
VERTEX
  8
0
 10
0.666667
 20
0.75
 30
0.0
 40
0
 41
0
  0
VERTEX
  8
0
 10
0.666667
 20
0.666667
 30
0.0
 40
0
 41
0
  0
VERTEX
  8
0
 10
0.583333
 20
0.666667
 30
0.0
 40
0
 41
0
  0
VERTEX
  8
0
 10
0.583333
 20
0.75
 30
0.0
 40
0
 41
0
  0
SEQEND
 8
0
  0
POLYLINE
  8
0
 62
     0
 66
     1
 10
0
 20
0
 30
0.0
 70
     1
 40
0
 41
0
  0
VERTEX
  8
0
 10
0.583333
 20
0.666667
 30
0.0
 40
0
 41
0
  0
VERTEX
  8
0
 10
0.666667
 20
0.666667
 30
0.0
 40
0
 41
0
  0
VERTEX
  8
0
 10
0.666667
 20
0.583333
 30
0.0
 40
0
 41
0
  0
VERTEX
  8
0
 10
0.583333
 20
0.583333
 30
0.0
 40
0
 41
0
  0
VERTEX
  8
0
 10
0.583333
 20
0.666667
 30
0.0
 40
0
 41
0
  0
SEQEND
 8
0
  0
POLYLINE
  8
0
 62
     0
 66
     1
 10
0
 20
0
 30
0.0
 70
     1
 40
0
 41
0
  0
VERTEX
  8
0
 10
0.583333
 20
0.583333
 30
0.0
 40
0
 41
0
  0
VERTEX
  8
0
 10
0.666667
 20
0.583333
 30
0.0
 40
0
 41
0
  0
VERTEX
  8
0
 10
0.666667
 20
0.5
 30
0.0
 40
0
 41
0
  0
VERTEX
  8
0
 10
0.583333
 20
0.5
 30
0.0
 40
0
 41
0
  0
VERTEX
  8
0
 10
0.583333
 20
0.583333
 30
0.0
 40
0
 41
0
  0
SEQEND
 8
0
  0
POLYLINE
  8
0
 62
     0
 66
     1
 10
0
 20
0
 30
0.0
 70
     1
 40
0
 41
0
  0
VERTEX
  8
0
 10
0.583333
 20
0.416667
 30
0.0
 40
0
 41
0
  0
VERTEX
  8
0
 10
0.666667
 20
0.416667
 30
0.0
 40
0
 41
0
  0
VERTEX
  8
0
 10
0.666667
 20
0.333333
 30
0.0
 40
0
 41
0
  0
VERTEX
  8
0
 10
0.583333
 20
0.333333
 30
0.0
 40
0
 41
0
  0
VERTEX
  8
0
 10
0.583333
 20
0.416667
 30
0.0
 40
0
 41
0
  0
SEQEND
 8
0
  0
POLYLINE
  8
0
 62
     0
 66
     1
 10
0
 20
0
 30
0.0
 70
     1
 40
0
 41
0
  0
VERTEX
  8
0
 10
0.666667
 20
2.41667
 30
0.0
 40
0
 41
0
  0
VERTEX
  8
0
 10
0.75
 20
2.41667
 30
0.0
 40
0
 41
0
  0
VERTEX
  8
0
 10
0.75
 20
2.33333
 30
0.0
 40
0
 41
0
  0
VERTEX
  8
0
 10
0.666667
 20
2.33333
 30
0.0
 40
0
 41
0
  0
VERTEX
  8
0
 10
0.666667
 20
2.41667
 30
0.0
 40
0
 41
0
  0
SEQEND
 8
0
  0
POLYLINE
  8
0
 62
     0
 66
     1
 10
0
 20
0
 30
0.0
 70
     1
 40
0
 41
0
  0
VERTEX
  8
0
 10
0.666667
 20
2.25
 30
0.0
 40
0
 41
0
  0
VERTEX
  8
0
 10
0.75
 20
2.25
 30
0.0
 40
0
 41
0
  0
VERTEX
  8
0
 10
0.75
 20
2.16667
 30
0.0
 40
0
 41
0
  0
VERTEX
  8
0
 10
0.666667
 20
2.16667
 30
0.0
 40
0
 41
0
  0
VERTEX
  8
0
 10
0.666667
 20
2.25
 30
0.0
 40
0
 41
0
  0
SEQEND
 8
0
  0
POLYLINE
  8
0
 62
     0
 66
     1
 10
0
 20
0
 30
0.0
 70
     1
 40
0
 41
0
  0
VERTEX
  8
0
 10
0.666667
 20
2.16667
 30
0.0
 40
0
 41
0
  0
VERTEX
  8
0
 10
0.75
 20
2.16667
 30
0.0
 40
0
 41
0
  0
VERTEX
  8
0
 10
0.75
 20
2.08333
 30
0.0
 40
0
 41
0
  0
VERTEX
  8
0
 10
0.666667
 20
2.08333
 30
0.0
 40
0
 41
0
  0
VERTEX
  8
0
 10
0.666667
 20
2.16667
 30
0.0
 40
0
 41
0
  0
SEQEND
 8
0
  0
POLYLINE
  8
0
 62
     0
 66
     1
 10
0
 20
0
 30
0.0
 70
     1
 40
0
 41
0
  0
VERTEX
  8
0
 10
0.666667
 20
2.08333
 30
0.0
 40
0
 41
0
  0
VERTEX
  8
0
 10
0.75
 20
2.08333
 30
0.0
 40
0
 41
0
  0
VERTEX
  8
0
 10
0.75
 20
2
 30
0.0
 40
0
 41
0
  0
VERTEX
  8
0
 10
0.666667
 20
2
 30
0.0
 40
0
 41
0
  0
VERTEX
  8
0
 10
0.666667
 20
2.08333
 30
0.0
 40
0
 41
0
  0
SEQEND
 8
0
  0
POLYLINE
  8
0
 62
     0
 66
     1
 10
0
 20
0
 30
0.0
 70
     1
 40
0
 41
0
  0
VERTEX
  8
0
 10
0.666667
 20
1.91667
 30
0.0
 40
0
 41
0
  0
VERTEX
  8
0
 10
0.75
 20
1.91667
 30
0.0
 40
0
 41
0
  0
VERTEX
  8
0
 10
0.75
 20
1.83333
 30
0.0
 40
0
 41
0
  0
VERTEX
  8
0
 10
0.666667
 20
1.83333
 30
0.0
 40
0
 41
0
  0
VERTEX
  8
0
 10
0.666667
 20
1.91667
 30
0.0
 40
0
 41
0
  0
SEQEND
 8
0
  0
POLYLINE
  8
0
 62
     0
 66
     1
 10
0
 20
0
 30
0.0
 70
     1
 40
0
 41
0
  0
VERTEX
  8
0
 10
0.666667
 20
1.75
 30
0.0
 40
0
 41
0
  0
VERTEX
  8
0
 10
0.75
 20
1.75
 30
0.0
 40
0
 41
0
  0
VERTEX
  8
0
 10
0.75
 20
1.66667
 30
0.0
 40
0
 41
0
  0
VERTEX
  8
0
 10
0.666667
 20
1.66667
 30
0.0
 40
0
 41
0
  0
VERTEX
  8
0
 10
0.666667
 20
1.75
 30
0.0
 40
0
 41
0
  0
SEQEND
 8
0
  0
POLYLINE
  8
0
 62
     0
 66
     1
 10
0
 20
0
 30
0.0
 70
     1
 40
0
 41
0
  0
VERTEX
  8
0
 10
0.666667
 20
1.66667
 30
0.0
 40
0
 41
0
  0
VERTEX
  8
0
 10
0.75
 20
1.66667
 30
0.0
 40
0
 41
0
  0
VERTEX
  8
0
 10
0.75
 20
1.58333
 30
0.0
 40
0
 41
0
  0
VERTEX
  8
0
 10
0.666667
 20
1.58333
 30
0.0
 40
0
 41
0
  0
VERTEX
  8
0
 10
0.666667
 20
1.66667
 30
0.0
 40
0
 41
0
  0
SEQEND
 8
0
  0
POLYLINE
  8
0
 62
     0
 66
     1
 10
0
 20
0
 30
0.0
 70
     1
 40
0
 41
0
  0
VERTEX
  8
0
 10
0.666667
 20
1.58333
 30
0.0
 40
0
 41
0
  0
VERTEX
  8
0
 10
0.75
 20
1.58333
 30
0.0
 40
0
 41
0
  0
VERTEX
  8
0
 10
0.75
 20
1.5
 30
0.0
 40
0
 41
0
  0
VERTEX
  8
0
 10
0.666667
 20
1.5
 30
0.0
 40
0
 41
0
  0
VERTEX
  8
0
 10
0.666667
 20
1.58333
 30
0.0
 40
0
 41
0
  0
SEQEND
 8
0
  0
POLYLINE
  8
0
 62
     0
 66
     1
 10
0
 20
0
 30
0.0
 70
     1
 40
0
 41
0
  0
VERTEX
  8
0
 10
0.666667
 20
1.33333
 30
0.0
 40
0
 41
0
  0
VERTEX
  8
0
 10
0.75
 20
1.33333
 30
0.0
 40
0
 41
0
  0
VERTEX
  8
0
 10
0.75
 20
1.25
 30
0.0
 40
0
 41
0
  0
VERTEX
  8
0
 10
0.666667
 20
1.25
 30
0.0
 40
0
 41
0
  0
VERTEX
  8
0
 10
0.666667
 20
1.33333
 30
0.0
 40
0
 41
0
  0
SEQEND
 8
0
  0
POLYLINE
  8
0
 62
     0
 66
     1
 10
0
 20
0
 30
0.0
 70
     1
 40
0
 41
0
  0
VERTEX
  8
0
 10
0.666667
 20
0.916667
 30
0.0
 40
0
 41
0
  0
VERTEX
  8
0
 10
0.75
 20
0.916667
 30
0.0
 40
0
 41
0
  0
VERTEX
  8
0
 10
0.75
 20
0.833333
 30
0.0
 40
0
 41
0
  0
VERTEX
  8
0
 10
0.666667
 20
0.833333
 30
0.0
 40
0
 41
0
  0
VERTEX
  8
0
 10
0.666667
 20
0.916667
 30
0.0
 40
0
 41
0
  0
SEQEND
 8
0
  0
POLYLINE
  8
0
 62
     0
 66
     1
 10
0
 20
0
 30
0.0
 70
     1
 40
0
 41
0
  0
VERTEX
  8
0
 10
0.666667
 20
0.75
 30
0.0
 40
0
 41
0
  0
VERTEX
  8
0
 10
0.75
 20
0.75
 30
0.0
 40
0
 41
0
  0
VERTEX
  8
0
 10
0.75
 20
0.666667
 30
0.0
 40
0
 41
0
  0
VERTEX
  8
0
 10
0.666667
 20
0.666667
 30
0.0
 40
0
 41
0
  0
VERTEX
  8
0
 10
0.666667
 20
0.75
 30
0.0
 40
0
 41
0
  0
SEQEND
 8
0
  0
POLYLINE
  8
0
 62
     0
 66
     1
 10
0
 20
0
 30
0.0
 70
     1
 40
0
 41
0
  0
VERTEX
  8
0
 10
0.666667
 20
0.666667
 30
0.0
 40
0
 41
0
  0
VERTEX
  8
0
 10
0.75
 20
0.666667
 30
0.0
 40
0
 41
0
  0
VERTEX
  8
0
 10
0.75
 20
0.583333
 30
0.0
 40
0
 41
0
  0
VERTEX
  8
0
 10
0.666667
 20
0.583333
 30
0.0
 40
0
 41
0
  0
VERTEX
  8
0
 10
0.666667
 20
0.666667
 30
0.0
 40
0
 41
0
  0
SEQEND
 8
0
  0
POLYLINE
  8
0
 62
     0
 66
     1
 10
0
 20
0
 30
0.0
 70
     1
 40
0
 41
0
  0
VERTEX
  8
0
 10
0.666667
 20
0.583333
 30
0.0
 40
0
 41
0
  0
VERTEX
  8
0
 10
0.75
 20
0.583333
 30
0.0
 40
0
 41
0
  0
VERTEX
  8
0
 10
0.75
 20
0.5
 30
0.0
 40
0
 41
0
  0
VERTEX
  8
0
 10
0.666667
 20
0.5
 30
0.0
 40
0
 41
0
  0
VERTEX
  8
0
 10
0.666667
 20
0.583333
 30
0.0
 40
0
 41
0
  0
SEQEND
 8
0
  0
POLYLINE
  8
0
 62
     0
 66
     1
 10
0
 20
0
 30
0.0
 70
     1
 40
0
 41
0
  0
VERTEX
  8
0
 10
0.666667
 20
0.416667
 30
0.0
 40
0
 41
0
  0
VERTEX
  8
0
 10
0.75
 20
0.416667
 30
0.0
 40
0
 41
0
  0
VERTEX
  8
0
 10
0.75
 20
0.333333
 30
0.0
 40
0
 41
0
  0
VERTEX
  8
0
 10
0.666667
 20
0.333333
 30
0.0
 40
0
 41
0
  0
VERTEX
  8
0
 10
0.666667
 20
0.416667
 30
0.0
 40
0
 41
0
  0
SEQEND
 8
0
  0
POLYLINE
  8
0
 62
     0
 66
     1
 10
0
 20
0
 30
0.0
 70
     1
 40
0
 41
0
  0
VERTEX
  8
0
 10
0.75
 20
2.41667
 30
0.0
 40
0
 41
0
  0
VERTEX
  8
0
 10
0.833333
 20
2.41667
 30
0.0
 40
0
 41
0
  0
VERTEX
  8
0
 10
0.833333
 20
2.33333
 30
0.0
 40
0
 41
0
  0
VERTEX
  8
0
 10
0.75
 20
2.33333
 30
0.0
 40
0
 41
0
  0
VERTEX
  8
0
 10
0.75
 20
2.41667
 30
0.0
 40
0
 41
0
  0
SEQEND
 8
0
  0
POLYLINE
  8
0
 62
     0
 66
     1
 10
0
 20
0
 30
0.0
 70
     1
 40
0
 41
0
  0
VERTEX
  8
0
 10
0.75
 20
1.91667
 30
0.0
 40
0
 41
0
  0
VERTEX
  8
0
 10
0.833333
 20
1.91667
 30
0.0
 40
0
 41
0
  0
VERTEX
  8
0
 10
0.833333
 20
1.83333
 30
0.0
 40
0
 41
0
  0
VERTEX
  8
0
 10
0.75
 20
1.83333
 30
0.0
 40
0
 41
0
  0
VERTEX
  8
0
 10
0.75
 20
1.91667
 30
0.0
 40
0
 41
0
  0
SEQEND
 8
0
  0
POLYLINE
  8
0
 62
     0
 66
     1
 10
0
 20
0
 30
0.0
 70
     1
 40
0
 41
0
  0
VERTEX
  8
0
 10
0.75
 20
1.66667
 30
0.0
 40
0
 41
0
  0
VERTEX
  8
0
 10
0.833333
 20
1.66667
 30
0.0
 40
0
 41
0
  0
VERTEX
  8
0
 10
0.833333
 20
1.58333
 30
0.0
 40
0
 41
0
  0
VERTEX
  8
0
 10
0.75
 20
1.58333
 30
0.0
 40
0
 41
0
  0
VERTEX
  8
0
 10
0.75
 20
1.66667
 30
0.0
 40
0
 41
0
  0
SEQEND
 8
0
  0
POLYLINE
  8
0
 62
     0
 66
     1
 10
0
 20
0
 30
0.0
 70
     1
 40
0
 41
0
  0
VERTEX
  8
0
 10
0.75
 20
1.5
 30
0.0
 40
0
 41
0
  0
VERTEX
  8
0
 10
0.833333
 20
1.5
 30
0.0
 40
0
 41
0
  0
VERTEX
  8
0
 10
0.833333
 20
1.41667
 30
0.0
 40
0
 41
0
  0
VERTEX
  8
0
 10
0.75
 20
1.41667
 30
0.0
 40
0
 41
0
  0
VERTEX
  8
0
 10
0.75
 20
1.5
 30
0.0
 40
0
 41
0
  0
SEQEND
 8
0
  0
POLYLINE
  8
0
 62
     0
 66
     1
 10
0
 20
0
 30
0.0
 70
     1
 40
0
 41
0
  0
VERTEX
  8
0
 10
0.75
 20
1.33333
 30
0.0
 40
0
 41
0
  0
VERTEX
  8
0
 10
0.833333
 20
1.33333
 30
0.0
 40
0
 41
0
  0
VERTEX
  8
0
 10
0.833333
 20
1.25
 30
0.0
 40
0
 41
0
  0
VERTEX
  8
0
 10
0.75
 20
1.25
 30
0.0
 40
0
 41
0
  0
VERTEX
  8
0
 10
0.75
 20
1.33333
 30
0.0
 40
0
 41
0
  0
SEQEND
 8
0
  0
POLYLINE
  8
0
 62
     0
 66
     1
 10
0
 20
0
 30
0.0
 70
     1
 40
0
 41
0
  0
VERTEX
  8
0
 10
0.75
 20
1.16667
 30
0.0
 40
0
 41
0
  0
VERTEX
  8
0
 10
0.833333
 20
1.16667
 30
0.0
 40
0
 41
0
  0
VERTEX
  8
0
 10
0.833333
 20
1.08333
 30
0.0
 40
0
 41
0
  0
VERTEX
  8
0
 10
0.75
 20
1.08333
 30
0.0
 40
0
 41
0
  0
VERTEX
  8
0
 10
0.75
 20
1.16667
 30
0.0
 40
0
 41
0
  0
SEQEND
 8
0
  0
POLYLINE
  8
0
 62
     0
 66
     1
 10
0
 20
0
 30
0.0
 70
     1
 40
0
 41
0
  0
VERTEX
  8
0
 10
0.75
 20
0.916667
 30
0.0
 40
0
 41
0
  0
VERTEX
  8
0
 10
0.833333
 20
0.916667
 30
0.0
 40
0
 41
0
  0
VERTEX
  8
0
 10
0.833333
 20
0.833333
 30
0.0
 40
0
 41
0
  0
VERTEX
  8
0
 10
0.75
 20
0.833333
 30
0.0
 40
0
 41
0
  0
VERTEX
  8
0
 10
0.75
 20
0.916667
 30
0.0
 40
0
 41
0
  0
SEQEND
 8
0
  0
POLYLINE
  8
0
 62
     0
 66
     1
 10
0
 20
0
 30
0.0
 70
     1
 40
0
 41
0
  0
VERTEX
  8
0
 10
0.75
 20
0.416667
 30
0.0
 40
0
 41
0
  0
VERTEX
  8
0
 10
0.833333
 20
0.416667
 30
0.0
 40
0
 41
0
  0
VERTEX
  8
0
 10
0.833333
 20
0.333333
 30
0.0
 40
0
 41
0
  0
VERTEX
  8
0
 10
0.75
 20
0.333333
 30
0.0
 40
0
 41
0
  0
VERTEX
  8
0
 10
0.75
 20
0.416667
 30
0.0
 40
0
 41
0
  0
SEQEND
 8
0
  0
POLYLINE
  8
0
 62
     0
 66
     1
 10
0
 20
0
 30
0.0
 70
     1
 40
0
 41
0
  0
VERTEX
  8
0
 10
0.833333
 20
2.41667
 30
0.0
 40
0
 41
0
  0
VERTEX
  8
0
 10
0.916667
 20
2.41667
 30
0.0
 40
0
 41
0
  0
VERTEX
  8
0
 10
0.916667
 20
2.33333
 30
0.0
 40
0
 41
0
  0
VERTEX
  8
0
 10
0.833333
 20
2.33333
 30
0.0
 40
0
 41
0
  0
VERTEX
  8
0
 10
0.833333
 20
2.41667
 30
0.0
 40
0
 41
0
  0
SEQEND
 8
0
  0
POLYLINE
  8
0
 62
     0
 66
     1
 10
0
 20
0
 30
0.0
 70
     1
 40
0
 41
0
  0
VERTEX
  8
0
 10
0.833333
 20
2.33333
 30
0.0
 40
0
 41
0
  0
VERTEX
  8
0
 10
0.916667
 20
2.33333
 30
0.0
 40
0
 41
0
  0
VERTEX
  8
0
 10
0.916667
 20
2.25
 30
0.0
 40
0
 41
0
  0
VERTEX
  8
0
 10
0.833333
 20
2.25
 30
0.0
 40
0
 41
0
  0
VERTEX
  8
0
 10
0.833333
 20
2.33333
 30
0.0
 40
0
 41
0
  0
SEQEND
 8
0
  0
POLYLINE
  8
0
 62
     0
 66
     1
 10
0
 20
0
 30
0.0
 70
     1
 40
0
 41
0
  0
VERTEX
  8
0
 10
0.833333
 20
2.25
 30
0.0
 40
0
 41
0
  0
VERTEX
  8
0
 10
0.916667
 20
2.25
 30
0.0
 40
0
 41
0
  0
VERTEX
  8
0
 10
0.916667
 20
2.16667
 30
0.0
 40
0
 41
0
  0
VERTEX
  8
0
 10
0.833333
 20
2.16667
 30
0.0
 40
0
 41
0
  0
VERTEX
  8
0
 10
0.833333
 20
2.25
 30
0.0
 40
0
 41
0
  0
SEQEND
 8
0
  0
POLYLINE
  8
0
 62
     0
 66
     1
 10
0
 20
0
 30
0.0
 70
     1
 40
0
 41
0
  0
VERTEX
  8
0
 10
0.833333
 20
2.16667
 30
0.0
 40
0
 41
0
  0
VERTEX
  8
0
 10
0.916667
 20
2.16667
 30
0.0
 40
0
 41
0
  0
VERTEX
  8
0
 10
0.916667
 20
2.08333
 30
0.0
 40
0
 41
0
  0
VERTEX
  8
0
 10
0.833333
 20
2.08333
 30
0.0
 40
0
 41
0
  0
VERTEX
  8
0
 10
0.833333
 20
2.16667
 30
0.0
 40
0
 41
0
  0
SEQEND
 8
0
  0
POLYLINE
  8
0
 62
     0
 66
     1
 10
0
 20
0
 30
0.0
 70
     1
 40
0
 41
0
  0
VERTEX
  8
0
 10
0.833333
 20
2.08333
 30
0.0
 40
0
 41
0
  0
VERTEX
  8
0
 10
0.916667
 20
2.08333
 30
0.0
 40
0
 41
0
  0
VERTEX
  8
0
 10
0.916667
 20
2
 30
0.0
 40
0
 41
0
  0
VERTEX
  8
0
 10
0.833333
 20
2
 30
0.0
 40
0
 41
0
  0
VERTEX
  8
0
 10
0.833333
 20
2.08333
 30
0.0
 40
0
 41
0
  0
SEQEND
 8
0
  0
POLYLINE
  8
0
 62
     0
 66
     1
 10
0
 20
0
 30
0.0
 70
     1
 40
0
 41
0
  0
VERTEX
  8
0
 10
0.833333
 20
2
 30
0.0
 40
0
 41
0
  0
VERTEX
  8
0
 10
0.916667
 20
2
 30
0.0
 40
0
 41
0
  0
VERTEX
  8
0
 10
0.916667
 20
1.91667
 30
0.0
 40
0
 41
0
  0
VERTEX
  8
0
 10
0.833333
 20
1.91667
 30
0.0
 40
0
 41
0
  0
VERTEX
  8
0
 10
0.833333
 20
2
 30
0.0
 40
0
 41
0
  0
SEQEND
 8
0
  0
POLYLINE
  8
0
 62
     0
 66
     1
 10
0
 20
0
 30
0.0
 70
     1
 40
0
 41
0
  0
VERTEX
  8
0
 10
0.833333
 20
1.91667
 30
0.0
 40
0
 41
0
  0
VERTEX
  8
0
 10
0.916667
 20
1.91667
 30
0.0
 40
0
 41
0
  0
VERTEX
  8
0
 10
0.916667
 20
1.83333
 30
0.0
 40
0
 41
0
  0
VERTEX
  8
0
 10
0.833333
 20
1.83333
 30
0.0
 40
0
 41
0
  0
VERTEX
  8
0
 10
0.833333
 20
1.91667
 30
0.0
 40
0
 41
0
  0
SEQEND
 8
0
  0
POLYLINE
  8
0
 62
     0
 66
     1
 10
0
 20
0
 30
0.0
 70
     1
 40
0
 41
0
  0
VERTEX
  8
0
 10
0.833333
 20
1.75
 30
0.0
 40
0
 41
0
  0
VERTEX
  8
0
 10
0.916667
 20
1.75
 30
0.0
 40
0
 41
0
  0
VERTEX
  8
0
 10
0.916667
 20
1.66667
 30
0.0
 40
0
 41
0
  0
VERTEX
  8
0
 10
0.833333
 20
1.66667
 30
0.0
 40
0
 41
0
  0
VERTEX
  8
0
 10
0.833333
 20
1.75
 30
0.0
 40
0
 41
0
  0
SEQEND
 8
0
  0
POLYLINE
  8
0
 62
     0
 66
     1
 10
0
 20
0
 30
0.0
 70
     1
 40
0
 41
0
  0
VERTEX
  8
0
 10
0.833333
 20
1.58333
 30
0.0
 40
0
 41
0
  0
VERTEX
  8
0
 10
0.916667
 20
1.58333
 30
0.0
 40
0
 41
0
  0
VERTEX
  8
0
 10
0.916667
 20
1.5
 30
0.0
 40
0
 41
0
  0
VERTEX
  8
0
 10
0.833333
 20
1.5
 30
0.0
 40
0
 41
0
  0
VERTEX
  8
0
 10
0.833333
 20
1.58333
 30
0.0
 40
0
 41
0
  0
SEQEND
 8
0
  0
POLYLINE
  8
0
 62
     0
 66
     1
 10
0
 20
0
 30
0.0
 70
     1
 40
0
 41
0
  0
VERTEX
  8
0
 10
0.833333
 20
1.41667
 30
0.0
 40
0
 41
0
  0
VERTEX
  8
0
 10
0.916667
 20
1.41667
 30
0.0
 40
0
 41
0
  0
VERTEX
  8
0
 10
0.916667
 20
1.33333
 30
0.0
 40
0
 41
0
  0
VERTEX
  8
0
 10
0.833333
 20
1.33333
 30
0.0
 40
0
 41
0
  0
VERTEX
  8
0
 10
0.833333
 20
1.41667
 30
0.0
 40
0
 41
0
  0
SEQEND
 8
0
  0
POLYLINE
  8
0
 62
     0
 66
     1
 10
0
 20
0
 30
0.0
 70
     1
 40
0
 41
0
  0
VERTEX
  8
0
 10
0.833333
 20
1.25
 30
0.0
 40
0
 41
0
  0
VERTEX
  8
0
 10
0.916667
 20
1.25
 30
0.0
 40
0
 41
0
  0
VERTEX
  8
0
 10
0.916667
 20
1.16667
 30
0.0
 40
0
 41
0
  0
VERTEX
  8
0
 10
0.833333
 20
1.16667
 30
0.0
 40
0
 41
0
  0
VERTEX
  8
0
 10
0.833333
 20
1.25
 30
0.0
 40
0
 41
0
  0
SEQEND
 8
0
  0
POLYLINE
  8
0
 62
     0
 66
     1
 10
0
 20
0
 30
0.0
 70
     1
 40
0
 41
0
  0
VERTEX
  8
0
 10
0.833333
 20
1.08333
 30
0.0
 40
0
 41
0
  0
VERTEX
  8
0
 10
0.916667
 20
1.08333
 30
0.0
 40
0
 41
0
  0
VERTEX
  8
0
 10
0.916667
 20
1
 30
0.0
 40
0
 41
0
  0
VERTEX
  8
0
 10
0.833333
 20
1
 30
0.0
 40
0
 41
0
  0
VERTEX
  8
0
 10
0.833333
 20
1.08333
 30
0.0
 40
0
 41
0
  0
SEQEND
 8
0
  0
POLYLINE
  8
0
 62
     0
 66
     1
 10
0
 20
0
 30
0.0
 70
     1
 40
0
 41
0
  0
VERTEX
  8
0
 10
0.833333
 20
0.916667
 30
0.0
 40
0
 41
0
  0
VERTEX
  8
0
 10
0.916667
 20
0.916667
 30
0.0
 40
0
 41
0
  0
VERTEX
  8
0
 10
0.916667
 20
0.833333
 30
0.0
 40
0
 41
0
  0
VERTEX
  8
0
 10
0.833333
 20
0.833333
 30
0.0
 40
0
 41
0
  0
VERTEX
  8
0
 10
0.833333
 20
0.916667
 30
0.0
 40
0
 41
0
  0
SEQEND
 8
0
  0
POLYLINE
  8
0
 62
     0
 66
     1
 10
0
 20
0
 30
0.0
 70
     1
 40
0
 41
0
  0
VERTEX
  8
0
 10
0.833333
 20
0.833333
 30
0.0
 40
0
 41
0
  0
VERTEX
  8
0
 10
0.916667
 20
0.833333
 30
0.0
 40
0
 41
0
  0
VERTEX
  8
0
 10
0.916667
 20
0.75
 30
0.0
 40
0
 41
0
  0
VERTEX
  8
0
 10
0.833333
 20
0.75
 30
0.0
 40
0
 41
0
  0
VERTEX
  8
0
 10
0.833333
 20
0.833333
 30
0.0
 40
0
 41
0
  0
SEQEND
 8
0
  0
POLYLINE
  8
0
 62
     0
 66
     1
 10
0
 20
0
 30
0.0
 70
     1
 40
0
 41
0
  0
VERTEX
  8
0
 10
0.833333
 20
0.75
 30
0.0
 40
0
 41
0
  0
VERTEX
  8
0
 10
0.916667
 20
0.75
 30
0.0
 40
0
 41
0
  0
VERTEX
  8
0
 10
0.916667
 20
0.666667
 30
0.0
 40
0
 41
0
  0
VERTEX
  8
0
 10
0.833333
 20
0.666667
 30
0.0
 40
0
 41
0
  0
VERTEX
  8
0
 10
0.833333
 20
0.75
 30
0.0
 40
0
 41
0
  0
SEQEND
 8
0
  0
POLYLINE
  8
0
 62
     0
 66
     1
 10
0
 20
0
 30
0.0
 70
     1
 40
0
 41
0
  0
VERTEX
  8
0
 10
0.833333
 20
0.666667
 30
0.0
 40
0
 41
0
  0
VERTEX
  8
0
 10
0.916667
 20
0.666667
 30
0.0
 40
0
 41
0
  0
VERTEX
  8
0
 10
0.916667
 20
0.583333
 30
0.0
 40
0
 41
0
  0
VERTEX
  8
0
 10
0.833333
 20
0.583333
 30
0.0
 40
0
 41
0
  0
VERTEX
  8
0
 10
0.833333
 20
0.666667
 30
0.0
 40
0
 41
0
  0
SEQEND
 8
0
  0
POLYLINE
  8
0
 62
     0
 66
     1
 10
0
 20
0
 30
0.0
 70
     1
 40
0
 41
0
  0
VERTEX
  8
0
 10
0.833333
 20
0.583333
 30
0.0
 40
0
 41
0
  0
VERTEX
  8
0
 10
0.916667
 20
0.583333
 30
0.0
 40
0
 41
0
  0
VERTEX
  8
0
 10
0.916667
 20
0.5
 30
0.0
 40
0
 41
0
  0
VERTEX
  8
0
 10
0.833333
 20
0.5
 30
0.0
 40
0
 41
0
  0
VERTEX
  8
0
 10
0.833333
 20
0.583333
 30
0.0
 40
0
 41
0
  0
SEQEND
 8
0
  0
POLYLINE
  8
0
 62
     0
 66
     1
 10
0
 20
0
 30
0.0
 70
     1
 40
0
 41
0
  0
VERTEX
  8
0
 10
0.833333
 20
0.5
 30
0.0
 40
0
 41
0
  0
VERTEX
  8
0
 10
0.916667
 20
0.5
 30
0.0
 40
0
 41
0
  0
VERTEX
  8
0
 10
0.916667
 20
0.416667
 30
0.0
 40
0
 41
0
  0
VERTEX
  8
0
 10
0.833333
 20
0.416667
 30
0.0
 40
0
 41
0
  0
VERTEX
  8
0
 10
0.833333
 20
0.5
 30
0.0
 40
0
 41
0
  0
SEQEND
 8
0
  0
POLYLINE
  8
0
 62
     0
 66
     1
 10
0
 20
0
 30
0.0
 70
     1
 40
0
 41
0
  0
VERTEX
  8
0
 10
0.833333
 20
0.416667
 30
0.0
 40
0
 41
0
  0
VERTEX
  8
0
 10
0.916667
 20
0.416667
 30
0.0
 40
0
 41
0
  0
VERTEX
  8
0
 10
0.916667
 20
0.333333
 30
0.0
 40
0
 41
0
  0
VERTEX
  8
0
 10
0.833333
 20
0.333333
 30
0.0
 40
0
 41
0
  0
VERTEX
  8
0
 10
0.833333
 20
0.416667
 30
0.0
 40
0
 41
0
  0
SEQEND
 8
0
  0
POLYLINE
  8
0
 62
     0
 66
     1
 10
0
 20
0
 30
0.0
 70
     1
 40
0
 41
0
  0
VERTEX
  8
0
 10
0.916667
 20
1.5
 30
0.0
 40
0
 41
0
  0
VERTEX
  8
0
 10
1
 20
1.5
 30
0.0
 40
0
 41
0
  0
VERTEX
  8
0
 10
1
 20
1.41667
 30
0.0
 40
0
 41
0
  0
VERTEX
  8
0
 10
0.916667
 20
1.41667
 30
0.0
 40
0
 41
0
  0
VERTEX
  8
0
 10
0.916667
 20
1.5
 30
0.0
 40
0
 41
0
  0
SEQEND
 8
0
  0
POLYLINE
  8
0
 62
     0
 66
     1
 10
0
 20
0
 30
0.0
 70
     1
 40
0
 41
0
  0
VERTEX
  8
0
 10
0.916667
 20
1.41667
 30
0.0
 40
0
 41
0
  0
VERTEX
  8
0
 10
1
 20
1.41667
 30
0.0
 40
0
 41
0
  0
VERTEX
  8
0
 10
1
 20
1.33333
 30
0.0
 40
0
 41
0
  0
VERTEX
  8
0
 10
0.916667
 20
1.33333
 30
0.0
 40
0
 41
0
  0
VERTEX
  8
0
 10
0.916667
 20
1.41667
 30
0.0
 40
0
 41
0
  0
SEQEND
 8
0
  0
POLYLINE
  8
0
 62
     0
 66
     1
 10
0
 20
0
 30
0.0
 70
     1
 40
0
 41
0
  0
VERTEX
  8
0
 10
0.916667
 20
1.25
 30
0.0
 40
0
 41
0
  0
VERTEX
  8
0
 10
1
 20
1.25
 30
0.0
 40
0
 41
0
  0
VERTEX
  8
0
 10
1
 20
1.16667
 30
0.0
 40
0
 41
0
  0
VERTEX
  8
0
 10
0.916667
 20
1.16667
 30
0.0
 40
0
 41
0
  0
VERTEX
  8
0
 10
0.916667
 20
1.25
 30
0.0
 40
0
 41
0
  0
SEQEND
 8
0
  0
POLYLINE
  8
0
 62
     0
 66
     1
 10
0
 20
0
 30
0.0
 70
     1
 40
0
 41
0
  0
VERTEX
  8
0
 10
0.916667
 20
1.16667
 30
0.0
 40
0
 41
0
  0
VERTEX
  8
0
 10
1
 20
1.16667
 30
0.0
 40
0
 41
0
  0
VERTEX
  8
0
 10
1
 20
1.08333
 30
0.0
 40
0
 41
0
  0
VERTEX
  8
0
 10
0.916667
 20
1.08333
 30
0.0
 40
0
 41
0
  0
VERTEX
  8
0
 10
0.916667
 20
1.16667
 30
0.0
 40
0
 41
0
  0
SEQEND
 8
0
  0
POLYLINE
  8
0
 62
     0
 66
     1
 10
0
 20
0
 30
0.0
 70
     1
 40
0
 41
0
  0
VERTEX
  8
0
 10
1
 20
2.41667
 30
0.0
 40
0
 41
0
  0
VERTEX
  8
0
 10
1.08333
 20
2.41667
 30
0.0
 40
0
 41
0
  0
VERTEX
  8
0
 10
1.08333
 20
2.33333
 30
0.0
 40
0
 41
0
  0
VERTEX
  8
0
 10
1
 20
2.33333
 30
0.0
 40
0
 41
0
  0
VERTEX
  8
0
 10
1
 20
2.41667
 30
0.0
 40
0
 41
0
  0
SEQEND
 8
0
  0
POLYLINE
  8
0
 62
     0
 66
     1
 10
0
 20
0
 30
0.0
 70
     1
 40
0
 41
0
  0
VERTEX
  8
0
 10
1
 20
1.91667
 30
0.0
 40
0
 41
0
  0
VERTEX
  8
0
 10
1.08333
 20
1.91667
 30
0.0
 40
0
 41
0
  0
VERTEX
  8
0
 10
1.08333
 20
1.83333
 30
0.0
 40
0
 41
0
  0
VERTEX
  8
0
 10
1
 20
1.83333
 30
0.0
 40
0
 41
0
  0
VERTEX
  8
0
 10
1
 20
1.91667
 30
0.0
 40
0
 41
0
  0
SEQEND
 8
0
  0
POLYLINE
  8
0
 62
     0
 66
     1
 10
0
 20
0
 30
0.0
 70
     1
 40
0
 41
0
  0
VERTEX
  8
0
 10
1
 20
1.83333
 30
0.0
 40
0
 41
0
  0
VERTEX
  8
0
 10
1.08333
 20
1.83333
 30
0.0
 40
0
 41
0
  0
VERTEX
  8
0
 10
1.08333
 20
1.75
 30
0.0
 40
0
 41
0
  0
VERTEX
  8
0
 10
1
 20
1.75
 30
0.0
 40
0
 41
0
  0
VERTEX
  8
0
 10
1
 20
1.83333
 30
0.0
 40
0
 41
0
  0
SEQEND
 8
0
  0
POLYLINE
  8
0
 62
     0
 66
     1
 10
0
 20
0
 30
0.0
 70
     1
 40
0
 41
0
  0
VERTEX
  8
0
 10
1
 20
1.58333
 30
0.0
 40
0
 41
0
  0
VERTEX
  8
0
 10
1.08333
 20
1.58333
 30
0.0
 40
0
 41
0
  0
VERTEX
  8
0
 10
1.08333
 20
1.5
 30
0.0
 40
0
 41
0
  0
VERTEX
  8
0
 10
1
 20
1.5
 30
0.0
 40
0
 41
0
  0
VERTEX
  8
0
 10
1
 20
1.58333
 30
0.0
 40
0
 41
0
  0
SEQEND
 8
0
  0
POLYLINE
  8
0
 62
     0
 66
     1
 10
0
 20
0
 30
0.0
 70
     1
 40
0
 41
0
  0
VERTEX
  8
0
 10
1
 20
1.25
 30
0.0
 40
0
 41
0
  0
VERTEX
  8
0
 10
1.08333
 20
1.25
 30
0.0
 40
0
 41
0
  0
VERTEX
  8
0
 10
1.08333
 20
1.16667
 30
0.0
 40
0
 41
0
  0
VERTEX
  8
0
 10
1
 20
1.16667
 30
0.0
 40
0
 41
0
  0
VERTEX
  8
0
 10
1
 20
1.25
 30
0.0
 40
0
 41
0
  0
SEQEND
 8
0
  0
POLYLINE
  8
0
 62
     0
 66
     1
 10
0
 20
0
 30
0.0
 70
     1
 40
0
 41
0
  0
VERTEX
  8
0
 10
1
 20
1
 30
0.0
 40
0
 41
0
  0
VERTEX
  8
0
 10
1.08333
 20
1
 30
0.0
 40
0
 41
0
  0
VERTEX
  8
0
 10
1.08333
 20
0.916667
 30
0.0
 40
0
 41
0
  0
VERTEX
  8
0
 10
1
 20
0.916667
 30
0.0
 40
0
 41
0
  0
VERTEX
  8
0
 10
1
 20
1
 30
0.0
 40
0
 41
0
  0
SEQEND
 8
0
  0
POLYLINE
  8
0
 62
     0
 66
     1
 10
0
 20
0
 30
0.0
 70
     1
 40
0
 41
0
  0
VERTEX
  8
0
 10
1
 20
0.75
 30
0.0
 40
0
 41
0
  0
VERTEX
  8
0
 10
1.08333
 20
0.75
 30
0.0
 40
0
 41
0
  0
VERTEX
  8
0
 10
1.08333
 20
0.666667
 30
0.0
 40
0
 41
0
  0
VERTEX
  8
0
 10
1
 20
0.666667
 30
0.0
 40
0
 41
0
  0
VERTEX
  8
0
 10
1
 20
0.75
 30
0.0
 40
0
 41
0
  0
SEQEND
 8
0
  0
POLYLINE
  8
0
 62
     0
 66
     1
 10
0
 20
0
 30
0.0
 70
     1
 40
0
 41
0
  0
VERTEX
  8
0
 10
1
 20
0.666667
 30
0.0
 40
0
 41
0
  0
VERTEX
  8
0
 10
1.08333
 20
0.666667
 30
0.0
 40
0
 41
0
  0
VERTEX
  8
0
 10
1.08333
 20
0.583333
 30
0.0
 40
0
 41
0
  0
VERTEX
  8
0
 10
1
 20
0.583333
 30
0.0
 40
0
 41
0
  0
VERTEX
  8
0
 10
1
 20
0.666667
 30
0.0
 40
0
 41
0
  0
SEQEND
 8
0
  0
POLYLINE
  8
0
 62
     0
 66
     1
 10
0
 20
0
 30
0.0
 70
     1
 40
0
 41
0
  0
VERTEX
  8
0
 10
1
 20
0.5
 30
0.0
 40
0
 41
0
  0
VERTEX
  8
0
 10
1.08333
 20
0.5
 30
0.0
 40
0
 41
0
  0
VERTEX
  8
0
 10
1.08333
 20
0.416667
 30
0.0
 40
0
 41
0
  0
VERTEX
  8
0
 10
1
 20
0.416667
 30
0.0
 40
0
 41
0
  0
VERTEX
  8
0
 10
1
 20
0.5
 30
0.0
 40
0
 41
0
  0
SEQEND
 8
0
  0
POLYLINE
  8
0
 62
     0
 66
     1
 10
0
 20
0
 30
0.0
 70
     1
 40
0
 41
0
  0
VERTEX
  8
0
 10
1
 20
0.416667
 30
0.0
 40
0
 41
0
  0
VERTEX
  8
0
 10
1.08333
 20
0.416667
 30
0.0
 40
0
 41
0
  0
VERTEX
  8
0
 10
1.08333
 20
0.333333
 30
0.0
 40
0
 41
0
  0
VERTEX
  8
0
 10
1
 20
0.333333
 30
0.0
 40
0
 41
0
  0
VERTEX
  8
0
 10
1
 20
0.416667
 30
0.0
 40
0
 41
0
  0
SEQEND
 8
0
  0
POLYLINE
  8
0
 62
     0
 66
     1
 10
0
 20
0
 30
0.0
 70
     1
 40
0
 41
0
  0
VERTEX
  8
0
 10
1.08333
 20
2.41667
 30
0.0
 40
0
 41
0
  0
VERTEX
  8
0
 10
1.16667
 20
2.41667
 30
0.0
 40
0
 41
0
  0
VERTEX
  8
0
 10
1.16667
 20
2.33333
 30
0.0
 40
0
 41
0
  0
VERTEX
  8
0
 10
1.08333
 20
2.33333
 30
0.0
 40
0
 41
0
  0
VERTEX
  8
0
 10
1.08333
 20
2.41667
 30
0.0
 40
0
 41
0
  0
SEQEND
 8
0
  0
POLYLINE
  8
0
 62
     0
 66
     1
 10
0
 20
0
 30
0.0
 70
     1
 40
0
 41
0
  0
VERTEX
  8
0
 10
1.08333
 20
2.25
 30
0.0
 40
0
 41
0
  0
VERTEX
  8
0
 10
1.16667
 20
2.25
 30
0.0
 40
0
 41
0
  0
VERTEX
  8
0
 10
1.16667
 20
2.16667
 30
0.0
 40
0
 41
0
  0
VERTEX
  8
0
 10
1.08333
 20
2.16667
 30
0.0
 40
0
 41
0
  0
VERTEX
  8
0
 10
1.08333
 20
2.25
 30
0.0
 40
0
 41
0
  0
SEQEND
 8
0
  0
POLYLINE
  8
0
 62
     0
 66
     1
 10
0
 20
0
 30
0.0
 70
     1
 40
0
 41
0
  0
VERTEX
  8
0
 10
1.08333
 20
2
 30
0.0
 40
0
 41
0
  0
VERTEX
  8
0
 10
1.16667
 20
2
 30
0.0
 40
0
 41
0
  0
VERTEX
  8
0
 10
1.16667
 20
1.91667
 30
0.0
 40
0
 41
0
  0
VERTEX
  8
0
 10
1.08333
 20
1.91667
 30
0.0
 40
0
 41
0
  0
VERTEX
  8
0
 10
1.08333
 20
2
 30
0.0
 40
0
 41
0
  0
SEQEND
 8
0
  0
POLYLINE
  8
0
 62
     0
 66
     1
 10
0
 20
0
 30
0.0
 70
     1
 40
0
 41
0
  0
VERTEX
  8
0
 10
1.08333
 20
1.83333
 30
0.0
 40
0
 41
0
  0
VERTEX
  8
0
 10
1.16667
 20
1.83333
 30
0.0
 40
0
 41
0
  0
VERTEX
  8
0
 10
1.16667
 20
1.75
 30
0.0
 40
0
 41
0
  0
VERTEX
  8
0
 10
1.08333
 20
1.75
 30
0.0
 40
0
 41
0
  0
VERTEX
  8
0
 10
1.08333
 20
1.83333
 30
0.0
 40
0
 41
0
  0
SEQEND
 8
0
  0
POLYLINE
  8
0
 62
     0
 66
     1
 10
0
 20
0
 30
0.0
 70
     1
 40
0
 41
0
  0
VERTEX
  8
0
 10
1.08333
 20
1.75
 30
0.0
 40
0
 41
0
  0
VERTEX
  8
0
 10
1.16667
 20
1.75
 30
0.0
 40
0
 41
0
  0
VERTEX
  8
0
 10
1.16667
 20
1.66667
 30
0.0
 40
0
 41
0
  0
VERTEX
  8
0
 10
1.08333
 20
1.66667
 30
0.0
 40
0
 41
0
  0
VERTEX
  8
0
 10
1.08333
 20
1.75
 30
0.0
 40
0
 41
0
  0
SEQEND
 8
0
  0
POLYLINE
  8
0
 62
     0
 66
     1
 10
0
 20
0
 30
0.0
 70
     1
 40
0
 41
0
  0
VERTEX
  8
0
 10
1.08333
 20
1.58333
 30
0.0
 40
0
 41
0
  0
VERTEX
  8
0
 10
1.16667
 20
1.58333
 30
0.0
 40
0
 41
0
  0
VERTEX
  8
0
 10
1.16667
 20
1.5
 30
0.0
 40
0
 41
0
  0
VERTEX
  8
0
 10
1.08333
 20
1.5
 30
0.0
 40
0
 41
0
  0
VERTEX
  8
0
 10
1.08333
 20
1.58333
 30
0.0
 40
0
 41
0
  0
SEQEND
 8
0
  0
POLYLINE
  8
0
 62
     0
 66
     1
 10
0
 20
0
 30
0.0
 70
     1
 40
0
 41
0
  0
VERTEX
  8
0
 10
1.08333
 20
1.41667
 30
0.0
 40
0
 41
0
  0
VERTEX
  8
0
 10
1.16667
 20
1.41667
 30
0.0
 40
0
 41
0
  0
VERTEX
  8
0
 10
1.16667
 20
1.33333
 30
0.0
 40
0
 41
0
  0
VERTEX
  8
0
 10
1.08333
 20
1.33333
 30
0.0
 40
0
 41
0
  0
VERTEX
  8
0
 10
1.08333
 20
1.41667
 30
0.0
 40
0
 41
0
  0
SEQEND
 8
0
  0
POLYLINE
  8
0
 62
     0
 66
     1
 10
0
 20
0
 30
0.0
 70
     1
 40
0
 41
0
  0
VERTEX
  8
0
 10
1.08333
 20
1.25
 30
0.0
 40
0
 41
0
  0
VERTEX
  8
0
 10
1.16667
 20
1.25
 30
0.0
 40
0
 41
0
  0
VERTEX
  8
0
 10
1.16667
 20
1.16667
 30
0.0
 40
0
 41
0
  0
VERTEX
  8
0
 10
1.08333
 20
1.16667
 30
0.0
 40
0
 41
0
  0
VERTEX
  8
0
 10
1.08333
 20
1.25
 30
0.0
 40
0
 41
0
  0
SEQEND
 8
0
  0
POLYLINE
  8
0
 62
     0
 66
     1
 10
0
 20
0
 30
0.0
 70
     1
 40
0
 41
0
  0
VERTEX
  8
0
 10
1.08333
 20
0.916667
 30
0.0
 40
0
 41
0
  0
VERTEX
  8
0
 10
1.16667
 20
0.916667
 30
0.0
 40
0
 41
0
  0
VERTEX
  8
0
 10
1.16667
 20
0.833333
 30
0.0
 40
0
 41
0
  0
VERTEX
  8
0
 10
1.08333
 20
0.833333
 30
0.0
 40
0
 41
0
  0
VERTEX
  8
0
 10
1.08333
 20
0.916667
 30
0.0
 40
0
 41
0
  0
SEQEND
 8
0
  0
POLYLINE
  8
0
 62
     0
 66
     1
 10
0
 20
0
 30
0.0
 70
     1
 40
0
 41
0
  0
VERTEX
  8
0
 10
1.08333
 20
0.75
 30
0.0
 40
0
 41
0
  0
VERTEX
  8
0
 10
1.16667
 20
0.75
 30
0.0
 40
0
 41
0
  0
VERTEX
  8
0
 10
1.16667
 20
0.666667
 30
0.0
 40
0
 41
0
  0
VERTEX
  8
0
 10
1.08333
 20
0.666667
 30
0.0
 40
0
 41
0
  0
VERTEX
  8
0
 10
1.08333
 20
0.75
 30
0.0
 40
0
 41
0
  0
SEQEND
 8
0
  0
POLYLINE
  8
0
 62
     0
 66
     1
 10
0
 20
0
 30
0.0
 70
     1
 40
0
 41
0
  0
VERTEX
  8
0
 10
1.08333
 20
0.5
 30
0.0
 40
0
 41
0
  0
VERTEX
  8
0
 10
1.16667
 20
0.5
 30
0.0
 40
0
 41
0
  0
VERTEX
  8
0
 10
1.16667
 20
0.416667
 30
0.0
 40
0
 41
0
  0
VERTEX
  8
0
 10
1.08333
 20
0.416667
 30
0.0
 40
0
 41
0
  0
VERTEX
  8
0
 10
1.08333
 20
0.5
 30
0.0
 40
0
 41
0
  0
SEQEND
 8
0
  0
POLYLINE
  8
0
 62
     0
 66
     1
 10
0
 20
0
 30
0.0
 70
     1
 40
0
 41
0
  0
VERTEX
  8
0
 10
1.08333
 20
0.416667
 30
0.0
 40
0
 41
0
  0
VERTEX
  8
0
 10
1.16667
 20
0.416667
 30
0.0
 40
0
 41
0
  0
VERTEX
  8
0
 10
1.16667
 20
0.333333
 30
0.0
 40
0
 41
0
  0
VERTEX
  8
0
 10
1.08333
 20
0.333333
 30
0.0
 40
0
 41
0
  0
VERTEX
  8
0
 10
1.08333
 20
0.416667
 30
0.0
 40
0
 41
0
  0
SEQEND
 8
0
  0
POLYLINE
  8
0
 62
     0
 66
     1
 10
0
 20
0
 30
0.0
 70
     1
 40
0
 41
0
  0
VERTEX
  8
0
 10
1.16667
 20
2.41667
 30
0.0
 40
0
 41
0
  0
VERTEX
  8
0
 10
1.25
 20
2.41667
 30
0.0
 40
0
 41
0
  0
VERTEX
  8
0
 10
1.25
 20
2.33333
 30
0.0
 40
0
 41
0
  0
VERTEX
  8
0
 10
1.16667
 20
2.33333
 30
0.0
 40
0
 41
0
  0
VERTEX
  8
0
 10
1.16667
 20
2.41667
 30
0.0
 40
0
 41
0
  0
SEQEND
 8
0
  0
POLYLINE
  8
0
 62
     0
 66
     1
 10
0
 20
0
 30
0.0
 70
     1
 40
0
 41
0
  0
VERTEX
  8
0
 10
1.16667
 20
2.16667
 30
0.0
 40
0
 41
0
  0
VERTEX
  8
0
 10
1.25
 20
2.16667
 30
0.0
 40
0
 41
0
  0
VERTEX
  8
0
 10
1.25
 20
2.08333
 30
0.0
 40
0
 41
0
  0
VERTEX
  8
0
 10
1.16667
 20
2.08333
 30
0.0
 40
0
 41
0
  0
VERTEX
  8
0
 10
1.16667
 20
2.16667
 30
0.0
 40
0
 41
0
  0
SEQEND
 8
0
  0
POLYLINE
  8
0
 62
     0
 66
     1
 10
0
 20
0
 30
0.0
 70
     1
 40
0
 41
0
  0
VERTEX
  8
0
 10
1.16667
 20
2.08333
 30
0.0
 40
0
 41
0
  0
VERTEX
  8
0
 10
1.25
 20
2.08333
 30
0.0
 40
0
 41
0
  0
VERTEX
  8
0
 10
1.25
 20
2
 30
0.0
 40
0
 41
0
  0
VERTEX
  8
0
 10
1.16667
 20
2
 30
0.0
 40
0
 41
0
  0
VERTEX
  8
0
 10
1.16667
 20
2.08333
 30
0.0
 40
0
 41
0
  0
SEQEND
 8
0
  0
POLYLINE
  8
0
 62
     0
 66
     1
 10
0
 20
0
 30
0.0
 70
     1
 40
0
 41
0
  0
VERTEX
  8
0
 10
1.16667
 20
1.91667
 30
0.0
 40
0
 41
0
  0
VERTEX
  8
0
 10
1.25
 20
1.91667
 30
0.0
 40
0
 41
0
  0
VERTEX
  8
0
 10
1.25
 20
1.83333
 30
0.0
 40
0
 41
0
  0
VERTEX
  8
0
 10
1.16667
 20
1.83333
 30
0.0
 40
0
 41
0
  0
VERTEX
  8
0
 10
1.16667
 20
1.91667
 30
0.0
 40
0
 41
0
  0
SEQEND
 8
0
  0
POLYLINE
  8
0
 62
     0
 66
     1
 10
0
 20
0
 30
0.0
 70
     1
 40
0
 41
0
  0
VERTEX
  8
0
 10
1.16667
 20
1.66667
 30
0.0
 40
0
 41
0
  0
VERTEX
  8
0
 10
1.25
 20
1.66667
 30
0.0
 40
0
 41
0
  0
VERTEX
  8
0
 10
1.25
 20
1.58333
 30
0.0
 40
0
 41
0
  0
VERTEX
  8
0
 10
1.16667
 20
1.58333
 30
0.0
 40
0
 41
0
  0
VERTEX
  8
0
 10
1.16667
 20
1.66667
 30
0.0
 40
0
 41
0
  0
SEQEND
 8
0
  0
POLYLINE
  8
0
 62
     0
 66
     1
 10
0
 20
0
 30
0.0
 70
     1
 40
0
 41
0
  0
VERTEX
  8
0
 10
1.16667
 20
1.41667
 30
0.0
 40
0
 41
0
  0
VERTEX
  8
0
 10
1.25
 20
1.41667
 30
0.0
 40
0
 41
0
  0
VERTEX
  8
0
 10
1.25
 20
1.33333
 30
0.0
 40
0
 41
0
  0
VERTEX
  8
0
 10
1.16667
 20
1.33333
 30
0.0
 40
0
 41
0
  0
VERTEX
  8
0
 10
1.16667
 20
1.41667
 30
0.0
 40
0
 41
0
  0
SEQEND
 8
0
  0
POLYLINE
  8
0
 62
     0
 66
     1
 10
0
 20
0
 30
0.0
 70
     1
 40
0
 41
0
  0
VERTEX
  8
0
 10
1.16667
 20
1.33333
 30
0.0
 40
0
 41
0
  0
VERTEX
  8
0
 10
1.25
 20
1.33333
 30
0.0
 40
0
 41
0
  0
VERTEX
  8
0
 10
1.25
 20
1.25
 30
0.0
 40
0
 41
0
  0
VERTEX
  8
0
 10
1.16667
 20
1.25
 30
0.0
 40
0
 41
0
  0
VERTEX
  8
0
 10
1.16667
 20
1.33333
 30
0.0
 40
0
 41
0
  0
SEQEND
 8
0
  0
POLYLINE
  8
0
 62
     0
 66
     1
 10
0
 20
0
 30
0.0
 70
     1
 40
0
 41
0
  0
VERTEX
  8
0
 10
1.16667
 20
1
 30
0.0
 40
0
 41
0
  0
VERTEX
  8
0
 10
1.25
 20
1
 30
0.0
 40
0
 41
0
  0
VERTEX
  8
0
 10
1.25
 20
0.916667
 30
0.0
 40
0
 41
0
  0
VERTEX
  8
0
 10
1.16667
 20
0.916667
 30
0.0
 40
0
 41
0
  0
VERTEX
  8
0
 10
1.16667
 20
1
 30
0.0
 40
0
 41
0
  0
SEQEND
 8
0
  0
POLYLINE
  8
0
 62
     0
 66
     1
 10
0
 20
0
 30
0.0
 70
     1
 40
0
 41
0
  0
VERTEX
  8
0
 10
1.16667
 20
0.916667
 30
0.0
 40
0
 41
0
  0
VERTEX
  8
0
 10
1.25
 20
0.916667
 30
0.0
 40
0
 41
0
  0
VERTEX
  8
0
 10
1.25
 20
0.833333
 30
0.0
 40
0
 41
0
  0
VERTEX
  8
0
 10
1.16667
 20
0.833333
 30
0.0
 40
0
 41
0
  0
VERTEX
  8
0
 10
1.16667
 20
0.916667
 30
0.0
 40
0
 41
0
  0
SEQEND
 8
0
  0
POLYLINE
  8
0
 62
     0
 66
     1
 10
0
 20
0
 30
0.0
 70
     1
 40
0
 41
0
  0
VERTEX
  8
0
 10
1.16667
 20
0.75
 30
0.0
 40
0
 41
0
  0
VERTEX
  8
0
 10
1.25
 20
0.75
 30
0.0
 40
0
 41
0
  0
VERTEX
  8
0
 10
1.25
 20
0.666667
 30
0.0
 40
0
 41
0
  0
VERTEX
  8
0
 10
1.16667
 20
0.666667
 30
0.0
 40
0
 41
0
  0
VERTEX
  8
0
 10
1.16667
 20
0.75
 30
0.0
 40
0
 41
0
  0
SEQEND
 8
0
  0
POLYLINE
  8
0
 62
     0
 66
     1
 10
0
 20
0
 30
0.0
 70
     1
 40
0
 41
0
  0
VERTEX
  8
0
 10
1.16667
 20
0.666667
 30
0.0
 40
0
 41
0
  0
VERTEX
  8
0
 10
1.25
 20
0.666667
 30
0.0
 40
0
 41
0
  0
VERTEX
  8
0
 10
1.25
 20
0.583333
 30
0.0
 40
0
 41
0
  0
VERTEX
  8
0
 10
1.16667
 20
0.583333
 30
0.0
 40
0
 41
0
  0
VERTEX
  8
0
 10
1.16667
 20
0.666667
 30
0.0
 40
0
 41
0
  0
SEQEND
 8
0
  0
POLYLINE
  8
0
 62
     0
 66
     1
 10
0
 20
0
 30
0.0
 70
     1
 40
0
 41
0
  0
VERTEX
  8
0
 10
1.16667
 20
0.5
 30
0.0
 40
0
 41
0
  0
VERTEX
  8
0
 10
1.25
 20
0.5
 30
0.0
 40
0
 41
0
  0
VERTEX
  8
0
 10
1.25
 20
0.416667
 30
0.0
 40
0
 41
0
  0
VERTEX
  8
0
 10
1.16667
 20
0.416667
 30
0.0
 40
0
 41
0
  0
VERTEX
  8
0
 10
1.16667
 20
0.5
 30
0.0
 40
0
 41
0
  0
SEQEND
 8
0
  0
POLYLINE
  8
0
 62
     0
 66
     1
 10
0
 20
0
 30
0.0
 70
     1
 40
0
 41
0
  0
VERTEX
  8
0
 10
1.25
 20
2.41667
 30
0.0
 40
0
 41
0
  0
VERTEX
  8
0
 10
1.33333
 20
2.41667
 30
0.0
 40
0
 41
0
  0
VERTEX
  8
0
 10
1.33333
 20
2.33333
 30
0.0
 40
0
 41
0
  0
VERTEX
  8
0
 10
1.25
 20
2.33333
 30
0.0
 40
0
 41
0
  0
VERTEX
  8
0
 10
1.25
 20
2.41667
 30
0.0
 40
0
 41
0
  0
SEQEND
 8
0
  0
POLYLINE
  8
0
 62
     0
 66
     1
 10
0
 20
0
 30
0.0
 70
     1
 40
0
 41
0
  0
VERTEX
  8
0
 10
1.25
 20
2.33333
 30
0.0
 40
0
 41
0
  0
VERTEX
  8
0
 10
1.33333
 20
2.33333
 30
0.0
 40
0
 41
0
  0
VERTEX
  8
0
 10
1.33333
 20
2.25
 30
0.0
 40
0
 41
0
  0
VERTEX
  8
0
 10
1.25
 20
2.25
 30
0.0
 40
0
 41
0
  0
VERTEX
  8
0
 10
1.25
 20
2.33333
 30
0.0
 40
0
 41
0
  0
SEQEND
 8
0
  0
POLYLINE
  8
0
 62
     0
 66
     1
 10
0
 20
0
 30
0.0
 70
     1
 40
0
 41
0
  0
VERTEX
  8
0
 10
1.25
 20
2.25
 30
0.0
 40
0
 41
0
  0
VERTEX
  8
0
 10
1.33333
 20
2.25
 30
0.0
 40
0
 41
0
  0
VERTEX
  8
0
 10
1.33333
 20
2.16667
 30
0.0
 40
0
 41
0
  0
VERTEX
  8
0
 10
1.25
 20
2.16667
 30
0.0
 40
0
 41
0
  0
VERTEX
  8
0
 10
1.25
 20
2.25
 30
0.0
 40
0
 41
0
  0
SEQEND
 8
0
  0
POLYLINE
  8
0
 62
     0
 66
     1
 10
0
 20
0
 30
0.0
 70
     1
 40
0
 41
0
  0
VERTEX
  8
0
 10
1.25
 20
2.16667
 30
0.0
 40
0
 41
0
  0
VERTEX
  8
0
 10
1.33333
 20
2.16667
 30
0.0
 40
0
 41
0
  0
VERTEX
  8
0
 10
1.33333
 20
2.08333
 30
0.0
 40
0
 41
0
  0
VERTEX
  8
0
 10
1.25
 20
2.08333
 30
0.0
 40
0
 41
0
  0
VERTEX
  8
0
 10
1.25
 20
2.16667
 30
0.0
 40
0
 41
0
  0
SEQEND
 8
0
  0
POLYLINE
  8
0
 62
     0
 66
     1
 10
0
 20
0
 30
0.0
 70
     1
 40
0
 41
0
  0
VERTEX
  8
0
 10
1.25
 20
2.08333
 30
0.0
 40
0
 41
0
  0
VERTEX
  8
0
 10
1.33333
 20
2.08333
 30
0.0
 40
0
 41
0
  0
VERTEX
  8
0
 10
1.33333
 20
2
 30
0.0
 40
0
 41
0
  0
VERTEX
  8
0
 10
1.25
 20
2
 30
0.0
 40
0
 41
0
  0
VERTEX
  8
0
 10
1.25
 20
2.08333
 30
0.0
 40
0
 41
0
  0
SEQEND
 8
0
  0
POLYLINE
  8
0
 62
     0
 66
     1
 10
0
 20
0
 30
0.0
 70
     1
 40
0
 41
0
  0
VERTEX
  8
0
 10
1.25
 20
2
 30
0.0
 40
0
 41
0
  0
VERTEX
  8
0
 10
1.33333
 20
2
 30
0.0
 40
0
 41
0
  0
VERTEX
  8
0
 10
1.33333
 20
1.91667
 30
0.0
 40
0
 41
0
  0
VERTEX
  8
0
 10
1.25
 20
1.91667
 30
0.0
 40
0
 41
0
  0
VERTEX
  8
0
 10
1.25
 20
2
 30
0.0
 40
0
 41
0
  0
SEQEND
 8
0
  0
POLYLINE
  8
0
 62
     0
 66
     1
 10
0
 20
0
 30
0.0
 70
     1
 40
0
 41
0
  0
VERTEX
  8
0
 10
1.25
 20
1.08333
 30
0.0
 40
0
 41
0
  0
VERTEX
  8
0
 10
1.33333
 20
1.08333
 30
0.0
 40
0
 41
0
  0
VERTEX
  8
0
 10
1.33333
 20
1
 30
0.0
 40
0
 41
0
  0
VERTEX
  8
0
 10
1.25
 20
1
 30
0.0
 40
0
 41
0
  0
VERTEX
  8
0
 10
1.25
 20
1.08333
 30
0.0
 40
0
 41
0
  0
SEQEND
 8
0
  0
POLYLINE
  8
0
 62
     0
 66
     1
 10
0
 20
0
 30
0.0
 70
     1
 40
0
 41
0
  0
VERTEX
  8
0
 10
1.25
 20
1
 30
0.0
 40
0
 41
0
  0
VERTEX
  8
0
 10
1.33333
 20
1
 30
0.0
 40
0
 41
0
  0
VERTEX
  8
0
 10
1.33333
 20
0.916667
 30
0.0
 40
0
 41
0
  0
VERTEX
  8
0
 10
1.25
 20
0.916667
 30
0.0
 40
0
 41
0
  0
VERTEX
  8
0
 10
1.25
 20
1
 30
0.0
 40
0
 41
0
  0
SEQEND
 8
0
  0
POLYLINE
  8
0
 62
     0
 66
     1
 10
0
 20
0
 30
0.0
 70
     1
 40
0
 41
0
  0
VERTEX
  8
0
 10
1.25
 20
0.833333
 30
0.0
 40
0
 41
0
  0
VERTEX
  8
0
 10
1.33333
 20
0.833333
 30
0.0
 40
0
 41
0
  0
VERTEX
  8
0
 10
1.33333
 20
0.75
 30
0.0
 40
0
 41
0
  0
VERTEX
  8
0
 10
1.25
 20
0.75
 30
0.0
 40
0
 41
0
  0
VERTEX
  8
0
 10
1.25
 20
0.833333
 30
0.0
 40
0
 41
0
  0
SEQEND
 8
0
  0
POLYLINE
  8
0
 62
     0
 66
     1
 10
0
 20
0
 30
0.0
 70
     1
 40
0
 41
0
  0
VERTEX
  8
0
 10
1.25
 20
0.75
 30
0.0
 40
0
 41
0
  0
VERTEX
  8
0
 10
1.33333
 20
0.75
 30
0.0
 40
0
 41
0
  0
VERTEX
  8
0
 10
1.33333
 20
0.666667
 30
0.0
 40
0
 41
0
  0
VERTEX
  8
0
 10
1.25
 20
0.666667
 30
0.0
 40
0
 41
0
  0
VERTEX
  8
0
 10
1.25
 20
0.75
 30
0.0
 40
0
 41
0
  0
SEQEND
 8
0
  0
POLYLINE
  8
0
 62
     0
 66
     1
 10
0
 20
0
 30
0.0
 70
     1
 40
0
 41
0
  0
VERTEX
  8
0
 10
1.25
 20
0.583333
 30
0.0
 40
0
 41
0
  0
VERTEX
  8
0
 10
1.33333
 20
0.583333
 30
0.0
 40
0
 41
0
  0
VERTEX
  8
0
 10
1.33333
 20
0.5
 30
0.0
 40
0
 41
0
  0
VERTEX
  8
0
 10
1.25
 20
0.5
 30
0.0
 40
0
 41
0
  0
VERTEX
  8
0
 10
1.25
 20
0.583333
 30
0.0
 40
0
 41
0
  0
SEQEND
 8
0
  0
POLYLINE
  8
0
 62
     0
 66
     1
 10
0
 20
0
 30
0.0
 70
     1
 40
0
 41
0
  0
VERTEX
  8
0
 10
1.25
 20
0.5
 30
0.0
 40
0
 41
0
  0
VERTEX
  8
0
 10
1.33333
 20
0.5
 30
0.0
 40
0
 41
0
  0
VERTEX
  8
0
 10
1.33333
 20
0.416667
 30
0.0
 40
0
 41
0
  0
VERTEX
  8
0
 10
1.25
 20
0.416667
 30
0.0
 40
0
 41
0
  0
VERTEX
  8
0
 10
1.25
 20
0.5
 30
0.0
 40
0
 41
0
  0
SEQEND
 8
0
  0
POLYLINE
  8
0
 62
     0
 66
     1
 10
0
 20
0
 30
0.0
 70
     1
 40
0
 41
0
  0
VERTEX
  8
0
 10
1.33333
 20
2.33333
 30
0.0
 40
0
 41
0
  0
VERTEX
  8
0
 10
1.41667
 20
2.33333
 30
0.0
 40
0
 41
0
  0
VERTEX
  8
0
 10
1.41667
 20
2.25
 30
0.0
 40
0
 41
0
  0
VERTEX
  8
0
 10
1.33333
 20
2.25
 30
0.0
 40
0
 41
0
  0
VERTEX
  8
0
 10
1.33333
 20
2.33333
 30
0.0
 40
0
 41
0
  0
SEQEND
 8
0
  0
POLYLINE
  8
0
 62
     0
 66
     1
 10
0
 20
0
 30
0.0
 70
     1
 40
0
 41
0
  0
VERTEX
  8
0
 10
1.33333
 20
2.08333
 30
0.0
 40
0
 41
0
  0
VERTEX
  8
0
 10
1.41667
 20
2.08333
 30
0.0
 40
0
 41
0
  0
VERTEX
  8
0
 10
1.41667
 20
2
 30
0.0
 40
0
 41
0
  0
VERTEX
  8
0
 10
1.33333
 20
2
 30
0.0
 40
0
 41
0
  0
VERTEX
  8
0
 10
1.33333
 20
2.08333
 30
0.0
 40
0
 41
0
  0
SEQEND
 8
0
  0
POLYLINE
  8
0
 62
     0
 66
     1
 10
0
 20
0
 30
0.0
 70
     1
 40
0
 41
0
  0
VERTEX
  8
0
 10
1.33333
 20
1.91667
 30
0.0
 40
0
 41
0
  0
VERTEX
  8
0
 10
1.41667
 20
1.91667
 30
0.0
 40
0
 41
0
  0
VERTEX
  8
0
 10
1.41667
 20
1.83333
 30
0.0
 40
0
 41
0
  0
VERTEX
  8
0
 10
1.33333
 20
1.83333
 30
0.0
 40
0
 41
0
  0
VERTEX
  8
0
 10
1.33333
 20
1.91667
 30
0.0
 40
0
 41
0
  0
SEQEND
 8
0
  0
POLYLINE
  8
0
 62
     0
 66
     1
 10
0
 20
0
 30
0.0
 70
     1
 40
0
 41
0
  0
VERTEX
  8
0
 10
1.33333
 20
1.83333
 30
0.0
 40
0
 41
0
  0
VERTEX
  8
0
 10
1.41667
 20
1.83333
 30
0.0
 40
0
 41
0
  0
VERTEX
  8
0
 10
1.41667
 20
1.75
 30
0.0
 40
0
 41
0
  0
VERTEX
  8
0
 10
1.33333
 20
1.75
 30
0.0
 40
0
 41
0
  0
VERTEX
  8
0
 10
1.33333
 20
1.83333
 30
0.0
 40
0
 41
0
  0
SEQEND
 8
0
  0
POLYLINE
  8
0
 62
     0
 66
     1
 10
0
 20
0
 30
0.0
 70
     1
 40
0
 41
0
  0
VERTEX
  8
0
 10
1.33333
 20
1.75
 30
0.0
 40
0
 41
0
  0
VERTEX
  8
0
 10
1.41667
 20
1.75
 30
0.0
 40
0
 41
0
  0
VERTEX
  8
0
 10
1.41667
 20
1.66667
 30
0.0
 40
0
 41
0
  0
VERTEX
  8
0
 10
1.33333
 20
1.66667
 30
0.0
 40
0
 41
0
  0
VERTEX
  8
0
 10
1.33333
 20
1.75
 30
0.0
 40
0
 41
0
  0
SEQEND
 8
0
  0
POLYLINE
  8
0
 62
     0
 66
     1
 10
0
 20
0
 30
0.0
 70
     1
 40
0
 41
0
  0
VERTEX
  8
0
 10
1.33333
 20
1.58333
 30
0.0
 40
0
 41
0
  0
VERTEX
  8
0
 10
1.41667
 20
1.58333
 30
0.0
 40
0
 41
0
  0
VERTEX
  8
0
 10
1.41667
 20
1.5
 30
0.0
 40
0
 41
0
  0
VERTEX
  8
0
 10
1.33333
 20
1.5
 30
0.0
 40
0
 41
0
  0
VERTEX
  8
0
 10
1.33333
 20
1.58333
 30
0.0
 40
0
 41
0
  0
SEQEND
 8
0
  0
POLYLINE
  8
0
 62
     0
 66
     1
 10
0
 20
0
 30
0.0
 70
     1
 40
0
 41
0
  0
VERTEX
  8
0
 10
1.33333
 20
1.33333
 30
0.0
 40
0
 41
0
  0
VERTEX
  8
0
 10
1.41667
 20
1.33333
 30
0.0
 40
0
 41
0
  0
VERTEX
  8
0
 10
1.41667
 20
1.25
 30
0.0
 40
0
 41
0
  0
VERTEX
  8
0
 10
1.33333
 20
1.25
 30
0.0
 40
0
 41
0
  0
VERTEX
  8
0
 10
1.33333
 20
1.33333
 30
0.0
 40
0
 41
0
  0
SEQEND
 8
0
  0
POLYLINE
  8
0
 62
     0
 66
     1
 10
0
 20
0
 30
0.0
 70
     1
 40
0
 41
0
  0
VERTEX
  8
0
 10
1.33333
 20
1.16667
 30
0.0
 40
0
 41
0
  0
VERTEX
  8
0
 10
1.41667
 20
1.16667
 30
0.0
 40
0
 41
0
  0
VERTEX
  8
0
 10
1.41667
 20
1.08333
 30
0.0
 40
0
 41
0
  0
VERTEX
  8
0
 10
1.33333
 20
1.08333
 30
0.0
 40
0
 41
0
  0
VERTEX
  8
0
 10
1.33333
 20
1.16667
 30
0.0
 40
0
 41
0
  0
SEQEND
 8
0
  0
POLYLINE
  8
0
 62
     0
 66
     1
 10
0
 20
0
 30
0.0
 70
     1
 40
0
 41
0
  0
VERTEX
  8
0
 10
1.33333
 20
1.08333
 30
0.0
 40
0
 41
0
  0
VERTEX
  8
0
 10
1.41667
 20
1.08333
 30
0.0
 40
0
 41
0
  0
VERTEX
  8
0
 10
1.41667
 20
1
 30
0.0
 40
0
 41
0
  0
VERTEX
  8
0
 10
1.33333
 20
1
 30
0.0
 40
0
 41
0
  0
VERTEX
  8
0
 10
1.33333
 20
1.08333
 30
0.0
 40
0
 41
0
  0
SEQEND
 8
0
  0
POLYLINE
  8
0
 62
     0
 66
     1
 10
0
 20
0
 30
0.0
 70
     1
 40
0
 41
0
  0
VERTEX
  8
0
 10
1.33333
 20
0.916667
 30
0.0
 40
0
 41
0
  0
VERTEX
  8
0
 10
1.41667
 20
0.916667
 30
0.0
 40
0
 41
0
  0
VERTEX
  8
0
 10
1.41667
 20
0.833333
 30
0.0
 40
0
 41
0
  0
VERTEX
  8
0
 10
1.33333
 20
0.833333
 30
0.0
 40
0
 41
0
  0
VERTEX
  8
0
 10
1.33333
 20
0.916667
 30
0.0
 40
0
 41
0
  0
SEQEND
 8
0
  0
POLYLINE
  8
0
 62
     0
 66
     1
 10
0
 20
0
 30
0.0
 70
     1
 40
0
 41
0
  0
VERTEX
  8
0
 10
1.33333
 20
0.75
 30
0.0
 40
0
 41
0
  0
VERTEX
  8
0
 10
1.41667
 20
0.75
 30
0.0
 40
0
 41
0
  0
VERTEX
  8
0
 10
1.41667
 20
0.666667
 30
0.0
 40
0
 41
0
  0
VERTEX
  8
0
 10
1.33333
 20
0.666667
 30
0.0
 40
0
 41
0
  0
VERTEX
  8
0
 10
1.33333
 20
0.75
 30
0.0
 40
0
 41
0
  0
SEQEND
 8
0
  0
POLYLINE
  8
0
 62
     0
 66
     1
 10
0
 20
0
 30
0.0
 70
     1
 40
0
 41
0
  0
VERTEX
  8
0
 10
1.33333
 20
0.666667
 30
0.0
 40
0
 41
0
  0
VERTEX
  8
0
 10
1.41667
 20
0.666667
 30
0.0
 40
0
 41
0
  0
VERTEX
  8
0
 10
1.41667
 20
0.583333
 30
0.0
 40
0
 41
0
  0
VERTEX
  8
0
 10
1.33333
 20
0.583333
 30
0.0
 40
0
 41
0
  0
VERTEX
  8
0
 10
1.33333
 20
0.666667
 30
0.0
 40
0
 41
0
  0
SEQEND
 8
0
  0
POLYLINE
  8
0
 62
     0
 66
     1
 10
0
 20
0
 30
0.0
 70
     1
 40
0
 41
0
  0
VERTEX
  8
0
 10
1.33333
 20
0.583333
 30
0.0
 40
0
 41
0
  0
VERTEX
  8
0
 10
1.41667
 20
0.583333
 30
0.0
 40
0
 41
0
  0
VERTEX
  8
0
 10
1.41667
 20
0.5
 30
0.0
 40
0
 41
0
  0
VERTEX
  8
0
 10
1.33333
 20
0.5
 30
0.0
 40
0
 41
0
  0
VERTEX
  8
0
 10
1.33333
 20
0.583333
 30
0.0
 40
0
 41
0
  0
SEQEND
 8
0
  0
POLYLINE
  8
0
 62
     0
 66
     1
 10
0
 20
0
 30
0.0
 70
     1
 40
0
 41
0
  0
VERTEX
  8
0
 10
1.33333
 20
0.5
 30
0.0
 40
0
 41
0
  0
VERTEX
  8
0
 10
1.41667
 20
0.5
 30
0.0
 40
0
 41
0
  0
VERTEX
  8
0
 10
1.41667
 20
0.416667
 30
0.0
 40
0
 41
0
  0
VERTEX
  8
0
 10
1.33333
 20
0.416667
 30
0.0
 40
0
 41
0
  0
VERTEX
  8
0
 10
1.33333
 20
0.5
 30
0.0
 40
0
 41
0
  0
SEQEND
 8
0
  0
POLYLINE
  8
0
 62
     0
 66
     1
 10
0
 20
0
 30
0.0
 70
     1
 40
0
 41
0
  0
VERTEX
  8
0
 10
1.33333
 20
0.416667
 30
0.0
 40
0
 41
0
  0
VERTEX
  8
0
 10
1.41667
 20
0.416667
 30
0.0
 40
0
 41
0
  0
VERTEX
  8
0
 10
1.41667
 20
0.333333
 30
0.0
 40
0
 41
0
  0
VERTEX
  8
0
 10
1.33333
 20
0.333333
 30
0.0
 40
0
 41
0
  0
VERTEX
  8
0
 10
1.33333
 20
0.416667
 30
0.0
 40
0
 41
0
  0
SEQEND
 8
0
  0
POLYLINE
  8
0
 62
     0
 66
     1
 10
0
 20
0
 30
0.0
 70
     1
 40
0
 41
0
  0
VERTEX
  8
0
 10
1.41667
 20
2.41667
 30
0.0
 40
0
 41
0
  0
VERTEX
  8
0
 10
1.5
 20
2.41667
 30
0.0
 40
0
 41
0
  0
VERTEX
  8
0
 10
1.5
 20
2.33333
 30
0.0
 40
0
 41
0
  0
VERTEX
  8
0
 10
1.41667
 20
2.33333
 30
0.0
 40
0
 41
0
  0
VERTEX
  8
0
 10
1.41667
 20
2.41667
 30
0.0
 40
0
 41
0
  0
SEQEND
 8
0
  0
POLYLINE
  8
0
 62
     0
 66
     1
 10
0
 20
0
 30
0.0
 70
     1
 40
0
 41
0
  0
VERTEX
  8
0
 10
1.41667
 20
2.25
 30
0.0
 40
0
 41
0
  0
VERTEX
  8
0
 10
1.5
 20
2.25
 30
0.0
 40
0
 41
0
  0
VERTEX
  8
0
 10
1.5
 20
2.16667
 30
0.0
 40
0
 41
0
  0
VERTEX
  8
0
 10
1.41667
 20
2.16667
 30
0.0
 40
0
 41
0
  0
VERTEX
  8
0
 10
1.41667
 20
2.25
 30
0.0
 40
0
 41
0
  0
SEQEND
 8
0
  0
POLYLINE
  8
0
 62
     0
 66
     1
 10
0
 20
0
 30
0.0
 70
     1
 40
0
 41
0
  0
VERTEX
  8
0
 10
1.41667
 20
2.16667
 30
0.0
 40
0
 41
0
  0
VERTEX
  8
0
 10
1.5
 20
2.16667
 30
0.0
 40
0
 41
0
  0
VERTEX
  8
0
 10
1.5
 20
2.08333
 30
0.0
 40
0
 41
0
  0
VERTEX
  8
0
 10
1.41667
 20
2.08333
 30
0.0
 40
0
 41
0
  0
VERTEX
  8
0
 10
1.41667
 20
2.16667
 30
0.0
 40
0
 41
0
  0
SEQEND
 8
0
  0
POLYLINE
  8
0
 62
     0
 66
     1
 10
0
 20
0
 30
0.0
 70
     1
 40
0
 41
0
  0
VERTEX
  8
0
 10
1.41667
 20
2.08333
 30
0.0
 40
0
 41
0
  0
VERTEX
  8
0
 10
1.5
 20
2.08333
 30
0.0
 40
0
 41
0
  0
VERTEX
  8
0
 10
1.5
 20
2
 30
0.0
 40
0
 41
0
  0
VERTEX
  8
0
 10
1.41667
 20
2
 30
0.0
 40
0
 41
0
  0
VERTEX
  8
0
 10
1.41667
 20
2.08333
 30
0.0
 40
0
 41
0
  0
SEQEND
 8
0
  0
POLYLINE
  8
0
 62
     0
 66
     1
 10
0
 20
0
 30
0.0
 70
     1
 40
0
 41
0
  0
VERTEX
  8
0
 10
1.41667
 20
1.83333
 30
0.0
 40
0
 41
0
  0
VERTEX
  8
0
 10
1.5
 20
1.83333
 30
0.0
 40
0
 41
0
  0
VERTEX
  8
0
 10
1.5
 20
1.75
 30
0.0
 40
0
 41
0
  0
VERTEX
  8
0
 10
1.41667
 20
1.75
 30
0.0
 40
0
 41
0
  0
VERTEX
  8
0
 10
1.41667
 20
1.83333
 30
0.0
 40
0
 41
0
  0
SEQEND
 8
0
  0
POLYLINE
  8
0
 62
     0
 66
     1
 10
0
 20
0
 30
0.0
 70
     1
 40
0
 41
0
  0
VERTEX
  8
0
 10
1.41667
 20
1.25
 30
0.0
 40
0
 41
0
  0
VERTEX
  8
0
 10
1.5
 20
1.25
 30
0.0
 40
0
 41
0
  0
VERTEX
  8
0
 10
1.5
 20
1.16667
 30
0.0
 40
0
 41
0
  0
VERTEX
  8
0
 10
1.41667
 20
1.16667
 30
0.0
 40
0
 41
0
  0
VERTEX
  8
0
 10
1.41667
 20
1.25
 30
0.0
 40
0
 41
0
  0
SEQEND
 8
0
  0
POLYLINE
  8
0
 62
     0
 66
     1
 10
0
 20
0
 30
0.0
 70
     1
 40
0
 41
0
  0
VERTEX
  8
0
 10
1.41667
 20
1.08333
 30
0.0
 40
0
 41
0
  0
VERTEX
  8
0
 10
1.5
 20
1.08333
 30
0.0
 40
0
 41
0
  0
VERTEX
  8
0
 10
1.5
 20
1
 30
0.0
 40
0
 41
0
  0
VERTEX
  8
0
 10
1.41667
 20
1
 30
0.0
 40
0
 41
0
  0
VERTEX
  8
0
 10
1.41667
 20
1.08333
 30
0.0
 40
0
 41
0
  0
SEQEND
 8
0
  0
POLYLINE
  8
0
 62
     0
 66
     1
 10
0
 20
0
 30
0.0
 70
     1
 40
0
 41
0
  0
VERTEX
  8
0
 10
1.41667
 20
1
 30
0.0
 40
0
 41
0
  0
VERTEX
  8
0
 10
1.5
 20
1
 30
0.0
 40
0
 41
0
  0
VERTEX
  8
0
 10
1.5
 20
0.916667
 30
0.0
 40
0
 41
0
  0
VERTEX
  8
0
 10
1.41667
 20
0.916667
 30
0.0
 40
0
 41
0
  0
VERTEX
  8
0
 10
1.41667
 20
1
 30
0.0
 40
0
 41
0
  0
SEQEND
 8
0
  0
POLYLINE
  8
0
 62
     0
 66
     1
 10
0
 20
0
 30
0.0
 70
     1
 40
0
 41
0
  0
VERTEX
  8
0
 10
1.41667
 20
0.833333
 30
0.0
 40
0
 41
0
  0
VERTEX
  8
0
 10
1.5
 20
0.833333
 30
0.0
 40
0
 41
0
  0
VERTEX
  8
0
 10
1.5
 20
0.75
 30
0.0
 40
0
 41
0
  0
VERTEX
  8
0
 10
1.41667
 20
0.75
 30
0.0
 40
0
 41
0
  0
VERTEX
  8
0
 10
1.41667
 20
0.833333
 30
0.0
 40
0
 41
0
  0
SEQEND
 8
0
  0
POLYLINE
  8
0
 62
     0
 66
     1
 10
0
 20
0
 30
0.0
 70
     1
 40
0
 41
0
  0
VERTEX
  8
0
 10
1.41667
 20
0.583333
 30
0.0
 40
0
 41
0
  0
VERTEX
  8
0
 10
1.5
 20
0.583333
 30
0.0
 40
0
 41
0
  0
VERTEX
  8
0
 10
1.5
 20
0.5
 30
0.0
 40
0
 41
0
  0
VERTEX
  8
0
 10
1.41667
 20
0.5
 30
0.0
 40
0
 41
0
  0
VERTEX
  8
0
 10
1.41667
 20
0.583333
 30
0.0
 40
0
 41
0
  0
SEQEND
 8
0
  0
POLYLINE
  8
0
 62
     0
 66
     1
 10
0
 20
0
 30
0.0
 70
     1
 40
0
 41
0
  0
VERTEX
  8
0
 10
1.5
 20
2.33333
 30
0.0
 40
0
 41
0
  0
VERTEX
  8
0
 10
1.58333
 20
2.33333
 30
0.0
 40
0
 41
0
  0
VERTEX
  8
0
 10
1.58333
 20
2.25
 30
0.0
 40
0
 41
0
  0
VERTEX
  8
0
 10
1.5
 20
2.25
 30
0.0
 40
0
 41
0
  0
VERTEX
  8
0
 10
1.5
 20
2.33333
 30
0.0
 40
0
 41
0
  0
SEQEND
 8
0
  0
POLYLINE
  8
0
 62
     0
 66
     1
 10
0
 20
0
 30
0.0
 70
     1
 40
0
 41
0
  0
VERTEX
  8
0
 10
1.5
 20
2.08333
 30
0.0
 40
0
 41
0
  0
VERTEX
  8
0
 10
1.58333
 20
2.08333
 30
0.0
 40
0
 41
0
  0
VERTEX
  8
0
 10
1.58333
 20
2
 30
0.0
 40
0
 41
0
  0
VERTEX
  8
0
 10
1.5
 20
2
 30
0.0
 40
0
 41
0
  0
VERTEX
  8
0
 10
1.5
 20
2.08333
 30
0.0
 40
0
 41
0
  0
SEQEND
 8
0
  0
POLYLINE
  8
0
 62
     0
 66
     1
 10
0
 20
0
 30
0.0
 70
     1
 40
0
 41
0
  0
VERTEX
  8
0
 10
1.5
 20
1.91667
 30
0.0
 40
0
 41
0
  0
VERTEX
  8
0
 10
1.58333
 20
1.91667
 30
0.0
 40
0
 41
0
  0
VERTEX
  8
0
 10
1.58333
 20
1.83333
 30
0.0
 40
0
 41
0
  0
VERTEX
  8
0
 10
1.5
 20
1.83333
 30
0.0
 40
0
 41
0
  0
VERTEX
  8
0
 10
1.5
 20
1.91667
 30
0.0
 40
0
 41
0
  0
SEQEND
 8
0
  0
POLYLINE
  8
0
 62
     0
 66
     1
 10
0
 20
0
 30
0.0
 70
     1
 40
0
 41
0
  0
VERTEX
  8
0
 10
1.5
 20
1.75
 30
0.0
 40
0
 41
0
  0
VERTEX
  8
0
 10
1.58333
 20
1.75
 30
0.0
 40
0
 41
0
  0
VERTEX
  8
0
 10
1.58333
 20
1.66667
 30
0.0
 40
0
 41
0
  0
VERTEX
  8
0
 10
1.5
 20
1.66667
 30
0.0
 40
0
 41
0
  0
VERTEX
  8
0
 10
1.5
 20
1.75
 30
0.0
 40
0
 41
0
  0
SEQEND
 8
0
  0
POLYLINE
  8
0
 62
     0
 66
     1
 10
0
 20
0
 30
0.0
 70
     1
 40
0
 41
0
  0
VERTEX
  8
0
 10
1.5
 20
1.5
 30
0.0
 40
0
 41
0
  0
VERTEX
  8
0
 10
1.58333
 20
1.5
 30
0.0
 40
0
 41
0
  0
VERTEX
  8
0
 10
1.58333
 20
1.41667
 30
0.0
 40
0
 41
0
  0
VERTEX
  8
0
 10
1.5
 20
1.41667
 30
0.0
 40
0
 41
0
  0
VERTEX
  8
0
 10
1.5
 20
1.5
 30
0.0
 40
0
 41
0
  0
SEQEND
 8
0
  0
POLYLINE
  8
0
 62
     0
 66
     1
 10
0
 20
0
 30
0.0
 70
     1
 40
0
 41
0
  0
VERTEX
  8
0
 10
1.5
 20
1.33333
 30
0.0
 40
0
 41
0
  0
VERTEX
  8
0
 10
1.58333
 20
1.33333
 30
0.0
 40
0
 41
0
  0
VERTEX
  8
0
 10
1.58333
 20
1.25
 30
0.0
 40
0
 41
0
  0
VERTEX
  8
0
 10
1.5
 20
1.25
 30
0.0
 40
0
 41
0
  0
VERTEX
  8
0
 10
1.5
 20
1.33333
 30
0.0
 40
0
 41
0
  0
SEQEND
 8
0
  0
POLYLINE
  8
0
 62
     0
 66
     1
 10
0
 20
0
 30
0.0
 70
     1
 40
0
 41
0
  0
VERTEX
  8
0
 10
1.5
 20
1.25
 30
0.0
 40
0
 41
0
  0
VERTEX
  8
0
 10
1.58333
 20
1.25
 30
0.0
 40
0
 41
0
  0
VERTEX
  8
0
 10
1.58333
 20
1.16667
 30
0.0
 40
0
 41
0
  0
VERTEX
  8
0
 10
1.5
 20
1.16667
 30
0.0
 40
0
 41
0
  0
VERTEX
  8
0
 10
1.5
 20
1.25
 30
0.0
 40
0
 41
0
  0
SEQEND
 8
0
  0
POLYLINE
  8
0
 62
     0
 66
     1
 10
0
 20
0
 30
0.0
 70
     1
 40
0
 41
0
  0
VERTEX
  8
0
 10
1.5
 20
1.08333
 30
0.0
 40
0
 41
0
  0
VERTEX
  8
0
 10
1.58333
 20
1.08333
 30
0.0
 40
0
 41
0
  0
VERTEX
  8
0
 10
1.58333
 20
1
 30
0.0
 40
0
 41
0
  0
VERTEX
  8
0
 10
1.5
 20
1
 30
0.0
 40
0
 41
0
  0
VERTEX
  8
0
 10
1.5
 20
1.08333
 30
0.0
 40
0
 41
0
  0
SEQEND
 8
0
  0
POLYLINE
  8
0
 62
     0
 66
     1
 10
0
 20
0
 30
0.0
 70
     1
 40
0
 41
0
  0
VERTEX
  8
0
 10
1.5
 20
0.833333
 30
0.0
 40
0
 41
0
  0
VERTEX
  8
0
 10
1.58333
 20
0.833333
 30
0.0
 40
0
 41
0
  0
VERTEX
  8
0
 10
1.58333
 20
0.75
 30
0.0
 40
0
 41
0
  0
VERTEX
  8
0
 10
1.5
 20
0.75
 30
0.0
 40
0
 41
0
  0
VERTEX
  8
0
 10
1.5
 20
0.833333
 30
0.0
 40
0
 41
0
  0
SEQEND
 8
0
  0
POLYLINE
  8
0
 62
     0
 66
     1
 10
0
 20
0
 30
0.0
 70
     1
 40
0
 41
0
  0
VERTEX
  8
0
 10
1.5
 20
0.75
 30
0.0
 40
0
 41
0
  0
VERTEX
  8
0
 10
1.58333
 20
0.75
 30
0.0
 40
0
 41
0
  0
VERTEX
  8
0
 10
1.58333
 20
0.666667
 30
0.0
 40
0
 41
0
  0
VERTEX
  8
0
 10
1.5
 20
0.666667
 30
0.0
 40
0
 41
0
  0
VERTEX
  8
0
 10
1.5
 20
0.75
 30
0.0
 40
0
 41
0
  0
SEQEND
 8
0
  0
POLYLINE
  8
0
 62
     0
 66
     1
 10
0
 20
0
 30
0.0
 70
     1
 40
0
 41
0
  0
VERTEX
  8
0
 10
1.5
 20
0.666667
 30
0.0
 40
0
 41
0
  0
VERTEX
  8
0
 10
1.58333
 20
0.666667
 30
0.0
 40
0
 41
0
  0
VERTEX
  8
0
 10
1.58333
 20
0.583333
 30
0.0
 40
0
 41
0
  0
VERTEX
  8
0
 10
1.5
 20
0.583333
 30
0.0
 40
0
 41
0
  0
VERTEX
  8
0
 10
1.5
 20
0.666667
 30
0.0
 40
0
 41
0
  0
SEQEND
 8
0
  0
POLYLINE
  8
0
 62
     0
 66
     1
 10
0
 20
0
 30
0.0
 70
     1
 40
0
 41
0
  0
VERTEX
  8
0
 10
1.5
 20
0.583333
 30
0.0
 40
0
 41
0
  0
VERTEX
  8
0
 10
1.58333
 20
0.583333
 30
0.0
 40
0
 41
0
  0
VERTEX
  8
0
 10
1.58333
 20
0.5
 30
0.0
 40
0
 41
0
  0
VERTEX
  8
0
 10
1.5
 20
0.5
 30
0.0
 40
0
 41
0
  0
VERTEX
  8
0
 10
1.5
 20
0.583333
 30
0.0
 40
0
 41
0
  0
SEQEND
 8
0
  0
POLYLINE
  8
0
 62
     0
 66
     1
 10
0
 20
0
 30
0.0
 70
     1
 40
0
 41
0
  0
VERTEX
  8
0
 10
1.5
 20
0.5
 30
0.0
 40
0
 41
0
  0
VERTEX
  8
0
 10
1.58333
 20
0.5
 30
0.0
 40
0
 41
0
  0
VERTEX
  8
0
 10
1.58333
 20
0.416667
 30
0.0
 40
0
 41
0
  0
VERTEX
  8
0
 10
1.5
 20
0.416667
 30
0.0
 40
0
 41
0
  0
VERTEX
  8
0
 10
1.5
 20
0.5
 30
0.0
 40
0
 41
0
  0
SEQEND
 8
0
  0
POLYLINE
  8
0
 62
     0
 66
     1
 10
0
 20
0
 30
0.0
 70
     1
 40
0
 41
0
  0
VERTEX
  8
0
 10
1.58333
 20
2.25
 30
0.0
 40
0
 41
0
  0
VERTEX
  8
0
 10
1.66667
 20
2.25
 30
0.0
 40
0
 41
0
  0
VERTEX
  8
0
 10
1.66667
 20
2.16667
 30
0.0
 40
0
 41
0
  0
VERTEX
  8
0
 10
1.58333
 20
2.16667
 30
0.0
 40
0
 41
0
  0
VERTEX
  8
0
 10
1.58333
 20
2.25
 30
0.0
 40
0
 41
0
  0
SEQEND
 8
0
  0
POLYLINE
  8
0
 62
     0
 66
     1
 10
0
 20
0
 30
0.0
 70
     1
 40
0
 41
0
  0
VERTEX
  8
0
 10
1.58333
 20
1.75
 30
0.0
 40
0
 41
0
  0
VERTEX
  8
0
 10
1.66667
 20
1.75
 30
0.0
 40
0
 41
0
  0
VERTEX
  8
0
 10
1.66667
 20
1.66667
 30
0.0
 40
0
 41
0
  0
VERTEX
  8
0
 10
1.58333
 20
1.66667
 30
0.0
 40
0
 41
0
  0
VERTEX
  8
0
 10
1.58333
 20
1.75
 30
0.0
 40
0
 41
0
  0
SEQEND
 8
0
  0
POLYLINE
  8
0
 62
     0
 66
     1
 10
0
 20
0
 30
0.0
 70
     1
 40
0
 41
0
  0
VERTEX
  8
0
 10
1.58333
 20
1.66667
 30
0.0
 40
0
 41
0
  0
VERTEX
  8
0
 10
1.66667
 20
1.66667
 30
0.0
 40
0
 41
0
  0
VERTEX
  8
0
 10
1.66667
 20
1.58333
 30
0.0
 40
0
 41
0
  0
VERTEX
  8
0
 10
1.58333
 20
1.58333
 30
0.0
 40
0
 41
0
  0
VERTEX
  8
0
 10
1.58333
 20
1.66667
 30
0.0
 40
0
 41
0
  0
SEQEND
 8
0
  0
POLYLINE
  8
0
 62
     0
 66
     1
 10
0
 20
0
 30
0.0
 70
     1
 40
0
 41
0
  0
VERTEX
  8
0
 10
1.58333
 20
1.58333
 30
0.0
 40
0
 41
0
  0
VERTEX
  8
0
 10
1.66667
 20
1.58333
 30
0.0
 40
0
 41
0
  0
VERTEX
  8
0
 10
1.66667
 20
1.5
 30
0.0
 40
0
 41
0
  0
VERTEX
  8
0
 10
1.58333
 20
1.5
 30
0.0
 40
0
 41
0
  0
VERTEX
  8
0
 10
1.58333
 20
1.58333
 30
0.0
 40
0
 41
0
  0
SEQEND
 8
0
  0
POLYLINE
  8
0
 62
     0
 66
     1
 10
0
 20
0
 30
0.0
 70
     1
 40
0
 41
0
  0
VERTEX
  8
0
 10
1.58333
 20
1.5
 30
0.0
 40
0
 41
0
  0
VERTEX
  8
0
 10
1.66667
 20
1.5
 30
0.0
 40
0
 41
0
  0
VERTEX
  8
0
 10
1.66667
 20
1.41667
 30
0.0
 40
0
 41
0
  0
VERTEX
  8
0
 10
1.58333
 20
1.41667
 30
0.0
 40
0
 41
0
  0
VERTEX
  8
0
 10
1.58333
 20
1.5
 30
0.0
 40
0
 41
0
  0
SEQEND
 8
0
  0
POLYLINE
  8
0
 62
     0
 66
     1
 10
0
 20
0
 30
0.0
 70
     1
 40
0
 41
0
  0
VERTEX
  8
0
 10
1.58333
 20
1.33333
 30
0.0
 40
0
 41
0
  0
VERTEX
  8
0
 10
1.66667
 20
1.33333
 30
0.0
 40
0
 41
0
  0
VERTEX
  8
0
 10
1.66667
 20
1.25
 30
0.0
 40
0
 41
0
  0
VERTEX
  8
0
 10
1.58333
 20
1.25
 30
0.0
 40
0
 41
0
  0
VERTEX
  8
0
 10
1.58333
 20
1.33333
 30
0.0
 40
0
 41
0
  0
SEQEND
 8
0
  0
POLYLINE
  8
0
 62
     0
 66
     1
 10
0
 20
0
 30
0.0
 70
     1
 40
0
 41
0
  0
VERTEX
  8
0
 10
1.58333
 20
1.25
 30
0.0
 40
0
 41
0
  0
VERTEX
  8
0
 10
1.66667
 20
1.25
 30
0.0
 40
0
 41
0
  0
VERTEX
  8
0
 10
1.66667
 20
1.16667
 30
0.0
 40
0
 41
0
  0
VERTEX
  8
0
 10
1.58333
 20
1.16667
 30
0.0
 40
0
 41
0
  0
VERTEX
  8
0
 10
1.58333
 20
1.25
 30
0.0
 40
0
 41
0
  0
SEQEND
 8
0
  0
POLYLINE
  8
0
 62
     0
 66
     1
 10
0
 20
0
 30
0.0
 70
     1
 40
0
 41
0
  0
VERTEX
  8
0
 10
1.58333
 20
1.16667
 30
0.0
 40
0
 41
0
  0
VERTEX
  8
0
 10
1.66667
 20
1.16667
 30
0.0
 40
0
 41
0
  0
VERTEX
  8
0
 10
1.66667
 20
1.08333
 30
0.0
 40
0
 41
0
  0
VERTEX
  8
0
 10
1.58333
 20
1.08333
 30
0.0
 40
0
 41
0
  0
VERTEX
  8
0
 10
1.58333
 20
1.16667
 30
0.0
 40
0
 41
0
  0
SEQEND
 8
0
  0
POLYLINE
  8
0
 62
     0
 66
     1
 10
0
 20
0
 30
0.0
 70
     1
 40
0
 41
0
  0
VERTEX
  8
0
 10
1.58333
 20
1.08333
 30
0.0
 40
0
 41
0
  0
VERTEX
  8
0
 10
1.66667
 20
1.08333
 30
0.0
 40
0
 41
0
  0
VERTEX
  8
0
 10
1.66667
 20
1
 30
0.0
 40
0
 41
0
  0
VERTEX
  8
0
 10
1.58333
 20
1
 30
0.0
 40
0
 41
0
  0
VERTEX
  8
0
 10
1.58333
 20
1.08333
 30
0.0
 40
0
 41
0
  0
SEQEND
 8
0
  0
POLYLINE
  8
0
 62
     0
 66
     1
 10
0
 20
0
 30
0.0
 70
     1
 40
0
 41
0
  0
VERTEX
  8
0
 10
1.58333
 20
0.833333
 30
0.0
 40
0
 41
0
  0
VERTEX
  8
0
 10
1.66667
 20
0.833333
 30
0.0
 40
0
 41
0
  0
VERTEX
  8
0
 10
1.66667
 20
0.75
 30
0.0
 40
0
 41
0
  0
VERTEX
  8
0
 10
1.58333
 20
0.75
 30
0.0
 40
0
 41
0
  0
VERTEX
  8
0
 10
1.58333
 20
0.833333
 30
0.0
 40
0
 41
0
  0
SEQEND
 8
0
  0
POLYLINE
  8
0
 62
     0
 66
     1
 10
0
 20
0
 30
0.0
 70
     1
 40
0
 41
0
  0
VERTEX
  8
0
 10
1.58333
 20
0.75
 30
0.0
 40
0
 41
0
  0
VERTEX
  8
0
 10
1.66667
 20
0.75
 30
0.0
 40
0
 41
0
  0
VERTEX
  8
0
 10
1.66667
 20
0.666667
 30
0.0
 40
0
 41
0
  0
VERTEX
  8
0
 10
1.58333
 20
0.666667
 30
0.0
 40
0
 41
0
  0
VERTEX
  8
0
 10
1.58333
 20
0.75
 30
0.0
 40
0
 41
0
  0
SEQEND
 8
0
  0
POLYLINE
  8
0
 62
     0
 66
     1
 10
0
 20
0
 30
0.0
 70
     1
 40
0
 41
0
  0
VERTEX
  8
0
 10
1.58333
 20
0.666667
 30
0.0
 40
0
 41
0
  0
VERTEX
  8
0
 10
1.66667
 20
0.666667
 30
0.0
 40
0
 41
0
  0
VERTEX
  8
0
 10
1.66667
 20
0.583333
 30
0.0
 40
0
 41
0
  0
VERTEX
  8
0
 10
1.58333
 20
0.583333
 30
0.0
 40
0
 41
0
  0
VERTEX
  8
0
 10
1.58333
 20
0.666667
 30
0.0
 40
0
 41
0
  0
SEQEND
 8
0
  0
POLYLINE
  8
0
 62
     0
 66
     1
 10
0
 20
0
 30
0.0
 70
     1
 40
0
 41
0
  0
VERTEX
  8
0
 10
1.58333
 20
0.583333
 30
0.0
 40
0
 41
0
  0
VERTEX
  8
0
 10
1.66667
 20
0.583333
 30
0.0
 40
0
 41
0
  0
VERTEX
  8
0
 10
1.66667
 20
0.5
 30
0.0
 40
0
 41
0
  0
VERTEX
  8
0
 10
1.58333
 20
0.5
 30
0.0
 40
0
 41
0
  0
VERTEX
  8
0
 10
1.58333
 20
0.583333
 30
0.0
 40
0
 41
0
  0
SEQEND
 8
0
  0
POLYLINE
  8
0
 62
     0
 66
     1
 10
0
 20
0
 30
0.0
 70
     1
 40
0
 41
0
  0
VERTEX
  8
0
 10
1.66667
 20
2.33333
 30
0.0
 40
0
 41
0
  0
VERTEX
  8
0
 10
1.75
 20
2.33333
 30
0.0
 40
0
 41
0
  0
VERTEX
  8
0
 10
1.75
 20
2.25
 30
0.0
 40
0
 41
0
  0
VERTEX
  8
0
 10
1.66667
 20
2.25
 30
0.0
 40
0
 41
0
  0
VERTEX
  8
0
 10
1.66667
 20
2.33333
 30
0.0
 40
0
 41
0
  0
SEQEND
 8
0
  0
POLYLINE
  8
0
 62
     0
 66
     1
 10
0
 20
0
 30
0.0
 70
     1
 40
0
 41
0
  0
VERTEX
  8
0
 10
1.66667
 20
2.25
 30
0.0
 40
0
 41
0
  0
VERTEX
  8
0
 10
1.75
 20
2.25
 30
0.0
 40
0
 41
0
  0
VERTEX
  8
0
 10
1.75
 20
2.16667
 30
0.0
 40
0
 41
0
  0
VERTEX
  8
0
 10
1.66667
 20
2.16667
 30
0.0
 40
0
 41
0
  0
VERTEX
  8
0
 10
1.66667
 20
2.25
 30
0.0
 40
0
 41
0
  0
SEQEND
 8
0
  0
POLYLINE
  8
0
 62
     0
 66
     1
 10
0
 20
0
 30
0.0
 70
     1
 40
0
 41
0
  0
VERTEX
  8
0
 10
1.66667
 20
2.16667
 30
0.0
 40
0
 41
0
  0
VERTEX
  8
0
 10
1.75
 20
2.16667
 30
0.0
 40
0
 41
0
  0
VERTEX
  8
0
 10
1.75
 20
2.08333
 30
0.0
 40
0
 41
0
  0
VERTEX
  8
0
 10
1.66667
 20
2.08333
 30
0.0
 40
0
 41
0
  0
VERTEX
  8
0
 10
1.66667
 20
2.16667
 30
0.0
 40
0
 41
0
  0
SEQEND
 8
0
  0
POLYLINE
  8
0
 62
     0
 66
     1
 10
0
 20
0
 30
0.0
 70
     1
 40
0
 41
0
  0
VERTEX
  8
0
 10
1.66667
 20
2.08333
 30
0.0
 40
0
 41
0
  0
VERTEX
  8
0
 10
1.75
 20
2.08333
 30
0.0
 40
0
 41
0
  0
VERTEX
  8
0
 10
1.75
 20
2
 30
0.0
 40
0
 41
0
  0
VERTEX
  8
0
 10
1.66667
 20
2
 30
0.0
 40
0
 41
0
  0
VERTEX
  8
0
 10
1.66667
 20
2.08333
 30
0.0
 40
0
 41
0
  0
SEQEND
 8
0
  0
POLYLINE
  8
0
 62
     0
 66
     1
 10
0
 20
0
 30
0.0
 70
     1
 40
0
 41
0
  0
VERTEX
  8
0
 10
1.66667
 20
1.91667
 30
0.0
 40
0
 41
0
  0
VERTEX
  8
0
 10
1.75
 20
1.91667
 30
0.0
 40
0
 41
0
  0
VERTEX
  8
0
 10
1.75
 20
1.83333
 30
0.0
 40
0
 41
0
  0
VERTEX
  8
0
 10
1.66667
 20
1.83333
 30
0.0
 40
0
 41
0
  0
VERTEX
  8
0
 10
1.66667
 20
1.91667
 30
0.0
 40
0
 41
0
  0
SEQEND
 8
0
  0
POLYLINE
  8
0
 62
     0
 66
     1
 10
0
 20
0
 30
0.0
 70
     1
 40
0
 41
0
  0
VERTEX
  8
0
 10
1.66667
 20
1.83333
 30
0.0
 40
0
 41
0
  0
VERTEX
  8
0
 10
1.75
 20
1.83333
 30
0.0
 40
0
 41
0
  0
VERTEX
  8
0
 10
1.75
 20
1.75
 30
0.0
 40
0
 41
0
  0
VERTEX
  8
0
 10
1.66667
 20
1.75
 30
0.0
 40
0
 41
0
  0
VERTEX
  8
0
 10
1.66667
 20
1.83333
 30
0.0
 40
0
 41
0
  0
SEQEND
 8
0
  0
POLYLINE
  8
0
 62
     0
 66
     1
 10
0
 20
0
 30
0.0
 70
     1
 40
0
 41
0
  0
VERTEX
  8
0
 10
1.66667
 20
1.58333
 30
0.0
 40
0
 41
0
  0
VERTEX
  8
0
 10
1.75
 20
1.58333
 30
0.0
 40
0
 41
0
  0
VERTEX
  8
0
 10
1.75
 20
1.5
 30
0.0
 40
0
 41
0
  0
VERTEX
  8
0
 10
1.66667
 20
1.5
 30
0.0
 40
0
 41
0
  0
VERTEX
  8
0
 10
1.66667
 20
1.58333
 30
0.0
 40
0
 41
0
  0
SEQEND
 8
0
  0
POLYLINE
  8
0
 62
     0
 66
     1
 10
0
 20
0
 30
0.0
 70
     1
 40
0
 41
0
  0
VERTEX
  8
0
 10
1.66667
 20
1.5
 30
0.0
 40
0
 41
0
  0
VERTEX
  8
0
 10
1.75
 20
1.5
 30
0.0
 40
0
 41
0
  0
VERTEX
  8
0
 10
1.75
 20
1.41667
 30
0.0
 40
0
 41
0
  0
VERTEX
  8
0
 10
1.66667
 20
1.41667
 30
0.0
 40
0
 41
0
  0
VERTEX
  8
0
 10
1.66667
 20
1.5
 30
0.0
 40
0
 41
0
  0
SEQEND
 8
0
  0
POLYLINE
  8
0
 62
     0
 66
     1
 10
0
 20
0
 30
0.0
 70
     1
 40
0
 41
0
  0
VERTEX
  8
0
 10
1.66667
 20
1.41667
 30
0.0
 40
0
 41
0
  0
VERTEX
  8
0
 10
1.75
 20
1.41667
 30
0.0
 40
0
 41
0
  0
VERTEX
  8
0
 10
1.75
 20
1.33333
 30
0.0
 40
0
 41
0
  0
VERTEX
  8
0
 10
1.66667
 20
1.33333
 30
0.0
 40
0
 41
0
  0
VERTEX
  8
0
 10
1.66667
 20
1.41667
 30
0.0
 40
0
 41
0
  0
SEQEND
 8
0
  0
POLYLINE
  8
0
 62
     0
 66
     1
 10
0
 20
0
 30
0.0
 70
     1
 40
0
 41
0
  0
VERTEX
  8
0
 10
1.66667
 20
1.33333
 30
0.0
 40
0
 41
0
  0
VERTEX
  8
0
 10
1.75
 20
1.33333
 30
0.0
 40
0
 41
0
  0
VERTEX
  8
0
 10
1.75
 20
1.25
 30
0.0
 40
0
 41
0
  0
VERTEX
  8
0
 10
1.66667
 20
1.25
 30
0.0
 40
0
 41
0
  0
VERTEX
  8
0
 10
1.66667
 20
1.33333
 30
0.0
 40
0
 41
0
  0
SEQEND
 8
0
  0
POLYLINE
  8
0
 62
     0
 66
     1
 10
0
 20
0
 30
0.0
 70
     1
 40
0
 41
0
  0
VERTEX
  8
0
 10
1.66667
 20
1.16667
 30
0.0
 40
0
 41
0
  0
VERTEX
  8
0
 10
1.75
 20
1.16667
 30
0.0
 40
0
 41
0
  0
VERTEX
  8
0
 10
1.75
 20
1.08333
 30
0.0
 40
0
 41
0
  0
VERTEX
  8
0
 10
1.66667
 20
1.08333
 30
0.0
 40
0
 41
0
  0
VERTEX
  8
0
 10
1.66667
 20
1.16667
 30
0.0
 40
0
 41
0
  0
SEQEND
 8
0
  0
POLYLINE
  8
0
 62
     0
 66
     1
 10
0
 20
0
 30
0.0
 70
     1
 40
0
 41
0
  0
VERTEX
  8
0
 10
1.66667
 20
1.08333
 30
0.0
 40
0
 41
0
  0
VERTEX
  8
0
 10
1.75
 20
1.08333
 30
0.0
 40
0
 41
0
  0
VERTEX
  8
0
 10
1.75
 20
1
 30
0.0
 40
0
 41
0
  0
VERTEX
  8
0
 10
1.66667
 20
1
 30
0.0
 40
0
 41
0
  0
VERTEX
  8
0
 10
1.66667
 20
1.08333
 30
0.0
 40
0
 41
0
  0
SEQEND
 8
0
  0
POLYLINE
  8
0
 62
     0
 66
     1
 10
0
 20
0
 30
0.0
 70
     1
 40
0
 41
0
  0
VERTEX
  8
0
 10
1.66667
 20
1
 30
0.0
 40
0
 41
0
  0
VERTEX
  8
0
 10
1.75
 20
1
 30
0.0
 40
0
 41
0
  0
VERTEX
  8
0
 10
1.75
 20
0.916667
 30
0.0
 40
0
 41
0
  0
VERTEX
  8
0
 10
1.66667
 20
0.916667
 30
0.0
 40
0
 41
0
  0
VERTEX
  8
0
 10
1.66667
 20
1
 30
0.0
 40
0
 41
0
  0
SEQEND
 8
0
  0
POLYLINE
  8
0
 62
     0
 66
     1
 10
0
 20
0
 30
0.0
 70
     1
 40
0
 41
0
  0
VERTEX
  8
0
 10
1.66667
 20
0.916667
 30
0.0
 40
0
 41
0
  0
VERTEX
  8
0
 10
1.75
 20
0.916667
 30
0.0
 40
0
 41
0
  0
VERTEX
  8
0
 10
1.75
 20
0.833333
 30
0.0
 40
0
 41
0
  0
VERTEX
  8
0
 10
1.66667
 20
0.833333
 30
0.0
 40
0
 41
0
  0
VERTEX
  8
0
 10
1.66667
 20
0.916667
 30
0.0
 40
0
 41
0
  0
SEQEND
 8
0
  0
POLYLINE
  8
0
 62
     0
 66
     1
 10
0
 20
0
 30
0.0
 70
     1
 40
0
 41
0
  0
VERTEX
  8
0
 10
1.66667
 20
0.833333
 30
0.0
 40
0
 41
0
  0
VERTEX
  8
0
 10
1.75
 20
0.833333
 30
0.0
 40
0
 41
0
  0
VERTEX
  8
0
 10
1.75
 20
0.75
 30
0.0
 40
0
 41
0
  0
VERTEX
  8
0
 10
1.66667
 20
0.75
 30
0.0
 40
0
 41
0
  0
VERTEX
  8
0
 10
1.66667
 20
0.833333
 30
0.0
 40
0
 41
0
  0
SEQEND
 8
0
  0
POLYLINE
  8
0
 62
     0
 66
     1
 10
0
 20
0
 30
0.0
 70
     1
 40
0
 41
0
  0
VERTEX
  8
0
 10
1.66667
 20
0.75
 30
0.0
 40
0
 41
0
  0
VERTEX
  8
0
 10
1.75
 20
0.75
 30
0.0
 40
0
 41
0
  0
VERTEX
  8
0
 10
1.75
 20
0.666667
 30
0.0
 40
0
 41
0
  0
VERTEX
  8
0
 10
1.66667
 20
0.666667
 30
0.0
 40
0
 41
0
  0
VERTEX
  8
0
 10
1.66667
 20
0.75
 30
0.0
 40
0
 41
0
  0
SEQEND
 8
0
  0
POLYLINE
  8
0
 62
     0
 66
     1
 10
0
 20
0
 30
0.0
 70
     1
 40
0
 41
0
  0
VERTEX
  8
0
 10
1.66667
 20
0.666667
 30
0.0
 40
0
 41
0
  0
VERTEX
  8
0
 10
1.75
 20
0.666667
 30
0.0
 40
0
 41
0
  0
VERTEX
  8
0
 10
1.75
 20
0.583333
 30
0.0
 40
0
 41
0
  0
VERTEX
  8
0
 10
1.66667
 20
0.583333
 30
0.0
 40
0
 41
0
  0
VERTEX
  8
0
 10
1.66667
 20
0.666667
 30
0.0
 40
0
 41
0
  0
SEQEND
 8
0
  0
POLYLINE
  8
0
 62
     0
 66
     1
 10
0
 20
0
 30
0.0
 70
     1
 40
0
 41
0
  0
VERTEX
  8
0
 10
1.66667
 20
0.416667
 30
0.0
 40
0
 41
0
  0
VERTEX
  8
0
 10
1.75
 20
0.416667
 30
0.0
 40
0
 41
0
  0
VERTEX
  8
0
 10
1.75
 20
0.333333
 30
0.0
 40
0
 41
0
  0
VERTEX
  8
0
 10
1.66667
 20
0.333333
 30
0.0
 40
0
 41
0
  0
VERTEX
  8
0
 10
1.66667
 20
0.416667
 30
0.0
 40
0
 41
0
  0
SEQEND
 8
0
  0
POLYLINE
  8
0
 62
     0
 66
     1
 10
0
 20
0
 30
0.0
 70
     1
 40
0
 41
0
  0
VERTEX
  8
0
 10
1.75
 20
1.66667
 30
0.0
 40
0
 41
0
  0
VERTEX
  8
0
 10
1.83333
 20
1.66667
 30
0.0
 40
0
 41
0
  0
VERTEX
  8
0
 10
1.83333
 20
1.58333
 30
0.0
 40
0
 41
0
  0
VERTEX
  8
0
 10
1.75
 20
1.58333
 30
0.0
 40
0
 41
0
  0
VERTEX
  8
0
 10
1.75
 20
1.66667
 30
0.0
 40
0
 41
0
  0
SEQEND
 8
0
  0
POLYLINE
  8
0
 62
     0
 66
     1
 10
0
 20
0
 30
0.0
 70
     1
 40
0
 41
0
  0
VERTEX
  8
0
 10
1.75
 20
1.41667
 30
0.0
 40
0
 41
0
  0
VERTEX
  8
0
 10
1.83333
 20
1.41667
 30
0.0
 40
0
 41
0
  0
VERTEX
  8
0
 10
1.83333
 20
1.33333
 30
0.0
 40
0
 41
0
  0
VERTEX
  8
0
 10
1.75
 20
1.33333
 30
0.0
 40
0
 41
0
  0
VERTEX
  8
0
 10
1.75
 20
1.41667
 30
0.0
 40
0
 41
0
  0
SEQEND
 8
0
  0
POLYLINE
  8
0
 62
     0
 66
     1
 10
0
 20
0
 30
0.0
 70
     1
 40
0
 41
0
  0
VERTEX
  8
0
 10
1.75
 20
1.25
 30
0.0
 40
0
 41
0
  0
VERTEX
  8
0
 10
1.83333
 20
1.25
 30
0.0
 40
0
 41
0
  0
VERTEX
  8
0
 10
1.83333
 20
1.16667
 30
0.0
 40
0
 41
0
  0
VERTEX
  8
0
 10
1.75
 20
1.16667
 30
0.0
 40
0
 41
0
  0
VERTEX
  8
0
 10
1.75
 20
1.25
 30
0.0
 40
0
 41
0
  0
SEQEND
 8
0
  0
POLYLINE
  8
0
 62
     0
 66
     1
 10
0
 20
0
 30
0.0
 70
     1
 40
0
 41
0
  0
VERTEX
  8
0
 10
1.75
 20
1.08333
 30
0.0
 40
0
 41
0
  0
VERTEX
  8
0
 10
1.83333
 20
1.08333
 30
0.0
 40
0
 41
0
  0
VERTEX
  8
0
 10
1.83333
 20
1
 30
0.0
 40
0
 41
0
  0
VERTEX
  8
0
 10
1.75
 20
1
 30
0.0
 40
0
 41
0
  0
VERTEX
  8
0
 10
1.75
 20
1.08333
 30
0.0
 40
0
 41
0
  0
SEQEND
 8
0
  0
POLYLINE
  8
0
 62
     0
 66
     1
 10
0
 20
0
 30
0.0
 70
     1
 40
0
 41
0
  0
VERTEX
  8
0
 10
1.75
 20
0.75
 30
0.0
 40
0
 41
0
  0
VERTEX
  8
0
 10
1.83333
 20
0.75
 30
0.0
 40
0
 41
0
  0
VERTEX
  8
0
 10
1.83333
 20
0.666667
 30
0.0
 40
0
 41
0
  0
VERTEX
  8
0
 10
1.75
 20
0.666667
 30
0.0
 40
0
 41
0
  0
VERTEX
  8
0
 10
1.75
 20
0.75
 30
0.0
 40
0
 41
0
  0
SEQEND
 8
0
  0
POLYLINE
  8
0
 62
     0
 66
     1
 10
0
 20
0
 30
0.0
 70
     1
 40
0
 41
0
  0
VERTEX
  8
0
 10
1.75
 20
0.666667
 30
0.0
 40
0
 41
0
  0
VERTEX
  8
0
 10
1.83333
 20
0.666667
 30
0.0
 40
0
 41
0
  0
VERTEX
  8
0
 10
1.83333
 20
0.583333
 30
0.0
 40
0
 41
0
  0
VERTEX
  8
0
 10
1.75
 20
0.583333
 30
0.0
 40
0
 41
0
  0
VERTEX
  8
0
 10
1.75
 20
0.666667
 30
0.0
 40
0
 41
0
  0
SEQEND
 8
0
  0
POLYLINE
  8
0
 62
     0
 66
     1
 10
0
 20
0
 30
0.0
 70
     1
 40
0
 41
0
  0
VERTEX
  8
0
 10
1.75
 20
0.583333
 30
0.0
 40
0
 41
0
  0
VERTEX
  8
0
 10
1.83333
 20
0.583333
 30
0.0
 40
0
 41
0
  0
VERTEX
  8
0
 10
1.83333
 20
0.5
 30
0.0
 40
0
 41
0
  0
VERTEX
  8
0
 10
1.75
 20
0.5
 30
0.0
 40
0
 41
0
  0
VERTEX
  8
0
 10
1.75
 20
0.583333
 30
0.0
 40
0
 41
0
  0
SEQEND
 8
0
  0
POLYLINE
  8
0
 62
     0
 66
     1
 10
0
 20
0
 30
0.0
 70
     1
 40
0
 41
0
  0
VERTEX
  8
0
 10
1.75
 20
0.5
 30
0.0
 40
0
 41
0
  0
VERTEX
  8
0
 10
1.83333
 20
0.5
 30
0.0
 40
0
 41
0
  0
VERTEX
  8
0
 10
1.83333
 20
0.416667
 30
0.0
 40
0
 41
0
  0
VERTEX
  8
0
 10
1.75
 20
0.416667
 30
0.0
 40
0
 41
0
  0
VERTEX
  8
0
 10
1.75
 20
0.5
 30
0.0
 40
0
 41
0
  0
SEQEND
 8
0
  0
POLYLINE
  8
0
 62
     0
 66
     1
 10
0
 20
0
 30
0.0
 70
     1
 40
0
 41
0
  0
VERTEX
  8
0
 10
1.75
 20
0.416667
 30
0.0
 40
0
 41
0
  0
VERTEX
  8
0
 10
1.83333
 20
0.416667
 30
0.0
 40
0
 41
0
  0
VERTEX
  8
0
 10
1.83333
 20
0.333333
 30
0.0
 40
0
 41
0
  0
VERTEX
  8
0
 10
1.75
 20
0.333333
 30
0.0
 40
0
 41
0
  0
VERTEX
  8
0
 10
1.75
 20
0.416667
 30
0.0
 40
0
 41
0
  0
SEQEND
 8
0
  0
POLYLINE
  8
0
 62
     0
 66
     1
 10
0
 20
0
 30
0.0
 70
     1
 40
0
 41
0
  0
VERTEX
  8
0
 10
1.83333
 20
2.41667
 30
0.0
 40
0
 41
0
  0
VERTEX
  8
0
 10
1.91667
 20
2.41667
 30
0.0
 40
0
 41
0
  0
VERTEX
  8
0
 10
1.91667
 20
2.33333
 30
0.0
 40
0
 41
0
  0
VERTEX
  8
0
 10
1.83333
 20
2.33333
 30
0.0
 40
0
 41
0
  0
VERTEX
  8
0
 10
1.83333
 20
2.41667
 30
0.0
 40
0
 41
0
  0
SEQEND
 8
0
  0
POLYLINE
  8
0
 62
     0
 66
     1
 10
0
 20
0
 30
0.0
 70
     1
 40
0
 41
0
  0
VERTEX
  8
0
 10
1.83333
 20
2.33333
 30
0.0
 40
0
 41
0
  0
VERTEX
  8
0
 10
1.91667
 20
2.33333
 30
0.0
 40
0
 41
0
  0
VERTEX
  8
0
 10
1.91667
 20
2.25
 30
0.0
 40
0
 41
0
  0
VERTEX
  8
0
 10
1.83333
 20
2.25
 30
0.0
 40
0
 41
0
  0
VERTEX
  8
0
 10
1.83333
 20
2.33333
 30
0.0
 40
0
 41
0
  0
SEQEND
 8
0
  0
POLYLINE
  8
0
 62
     0
 66
     1
 10
0
 20
0
 30
0.0
 70
     1
 40
0
 41
0
  0
VERTEX
  8
0
 10
1.83333
 20
2.25
 30
0.0
 40
0
 41
0
  0
VERTEX
  8
0
 10
1.91667
 20
2.25
 30
0.0
 40
0
 41
0
  0
VERTEX
  8
0
 10
1.91667
 20
2.16667
 30
0.0
 40
0
 41
0
  0
VERTEX
  8
0
 10
1.83333
 20
2.16667
 30
0.0
 40
0
 41
0
  0
VERTEX
  8
0
 10
1.83333
 20
2.25
 30
0.0
 40
0
 41
0
  0
SEQEND
 8
0
  0
POLYLINE
  8
0
 62
     0
 66
     1
 10
0
 20
0
 30
0.0
 70
     1
 40
0
 41
0
  0
VERTEX
  8
0
 10
1.83333
 20
2.16667
 30
0.0
 40
0
 41
0
  0
VERTEX
  8
0
 10
1.91667
 20
2.16667
 30
0.0
 40
0
 41
0
  0
VERTEX
  8
0
 10
1.91667
 20
2.08333
 30
0.0
 40
0
 41
0
  0
VERTEX
  8
0
 10
1.83333
 20
2.08333
 30
0.0
 40
0
 41
0
  0
VERTEX
  8
0
 10
1.83333
 20
2.16667
 30
0.0
 40
0
 41
0
  0
SEQEND
 8
0
  0
POLYLINE
  8
0
 62
     0
 66
     1
 10
0
 20
0
 30
0.0
 70
     1
 40
0
 41
0
  0
VERTEX
  8
0
 10
1.83333
 20
2.08333
 30
0.0
 40
0
 41
0
  0
VERTEX
  8
0
 10
1.91667
 20
2.08333
 30
0.0
 40
0
 41
0
  0
VERTEX
  8
0
 10
1.91667
 20
2
 30
0.0
 40
0
 41
0
  0
VERTEX
  8
0
 10
1.83333
 20
2
 30
0.0
 40
0
 41
0
  0
VERTEX
  8
0
 10
1.83333
 20
2.08333
 30
0.0
 40
0
 41
0
  0
SEQEND
 8
0
  0
POLYLINE
  8
0
 62
     0
 66
     1
 10
0
 20
0
 30
0.0
 70
     1
 40
0
 41
0
  0
VERTEX
  8
0
 10
1.83333
 20
2
 30
0.0
 40
0
 41
0
  0
VERTEX
  8
0
 10
1.91667
 20
2
 30
0.0
 40
0
 41
0
  0
VERTEX
  8
0
 10
1.91667
 20
1.91667
 30
0.0
 40
0
 41
0
  0
VERTEX
  8
0
 10
1.83333
 20
1.91667
 30
0.0
 40
0
 41
0
  0
VERTEX
  8
0
 10
1.83333
 20
2
 30
0.0
 40
0
 41
0
  0
SEQEND
 8
0
  0
POLYLINE
  8
0
 62
     0
 66
     1
 10
0
 20
0
 30
0.0
 70
     1
 40
0
 41
0
  0
VERTEX
  8
0
 10
1.83333
 20
1.91667
 30
0.0
 40
0
 41
0
  0
VERTEX
  8
0
 10
1.91667
 20
1.91667
 30
0.0
 40
0
 41
0
  0
VERTEX
  8
0
 10
1.91667
 20
1.83333
 30
0.0
 40
0
 41
0
  0
VERTEX
  8
0
 10
1.83333
 20
1.83333
 30
0.0
 40
0
 41
0
  0
VERTEX
  8
0
 10
1.83333
 20
1.91667
 30
0.0
 40
0
 41
0
  0
SEQEND
 8
0
  0
POLYLINE
  8
0
 62
     0
 66
     1
 10
0
 20
0
 30
0.0
 70
     1
 40
0
 41
0
  0
VERTEX
  8
0
 10
1.83333
 20
1.75
 30
0.0
 40
0
 41
0
  0
VERTEX
  8
0
 10
1.91667
 20
1.75
 30
0.0
 40
0
 41
0
  0
VERTEX
  8
0
 10
1.91667
 20
1.66667
 30
0.0
 40
0
 41
0
  0
VERTEX
  8
0
 10
1.83333
 20
1.66667
 30
0.0
 40
0
 41
0
  0
VERTEX
  8
0
 10
1.83333
 20
1.75
 30
0.0
 40
0
 41
0
  0
SEQEND
 8
0
  0
POLYLINE
  8
0
 62
     0
 66
     1
 10
0
 20
0
 30
0.0
 70
     1
 40
0
 41
0
  0
VERTEX
  8
0
 10
1.83333
 20
1.58333
 30
0.0
 40
0
 41
0
  0
VERTEX
  8
0
 10
1.91667
 20
1.58333
 30
0.0
 40
0
 41
0
  0
VERTEX
  8
0
 10
1.91667
 20
1.5
 30
0.0
 40
0
 41
0
  0
VERTEX
  8
0
 10
1.83333
 20
1.5
 30
0.0
 40
0
 41
0
  0
VERTEX
  8
0
 10
1.83333
 20
1.58333
 30
0.0
 40
0
 41
0
  0
SEQEND
 8
0
  0
POLYLINE
  8
0
 62
     0
 66
     1
 10
0
 20
0
 30
0.0
 70
     1
 40
0
 41
0
  0
VERTEX
  8
0
 10
1.83333
 20
1.41667
 30
0.0
 40
0
 41
0
  0
VERTEX
  8
0
 10
1.91667
 20
1.41667
 30
0.0
 40
0
 41
0
  0
VERTEX
  8
0
 10
1.91667
 20
1.33333
 30
0.0
 40
0
 41
0
  0
VERTEX
  8
0
 10
1.83333
 20
1.33333
 30
0.0
 40
0
 41
0
  0
VERTEX
  8
0
 10
1.83333
 20
1.41667
 30
0.0
 40
0
 41
0
  0
SEQEND
 8
0
  0
POLYLINE
  8
0
 62
     0
 66
     1
 10
0
 20
0
 30
0.0
 70
     1
 40
0
 41
0
  0
VERTEX
  8
0
 10
1.83333
 20
1.08333
 30
0.0
 40
0
 41
0
  0
VERTEX
  8
0
 10
1.91667
 20
1.08333
 30
0.0
 40
0
 41
0
  0
VERTEX
  8
0
 10
1.91667
 20
1
 30
0.0
 40
0
 41
0
  0
VERTEX
  8
0
 10
1.83333
 20
1
 30
0.0
 40
0
 41
0
  0
VERTEX
  8
0
 10
1.83333
 20
1.08333
 30
0.0
 40
0
 41
0
  0
SEQEND
 8
0
  0
POLYLINE
  8
0
 62
     0
 66
     1
 10
0
 20
0
 30
0.0
 70
     1
 40
0
 41
0
  0
VERTEX
  8
0
 10
1.83333
 20
0.916667
 30
0.0
 40
0
 41
0
  0
VERTEX
  8
0
 10
1.91667
 20
0.916667
 30
0.0
 40
0
 41
0
  0
VERTEX
  8
0
 10
1.91667
 20
0.833333
 30
0.0
 40
0
 41
0
  0
VERTEX
  8
0
 10
1.83333
 20
0.833333
 30
0.0
 40
0
 41
0
  0
VERTEX
  8
0
 10
1.83333
 20
0.916667
 30
0.0
 40
0
 41
0
  0
SEQEND
 8
0
  0
POLYLINE
  8
0
 62
     0
 66
     1
 10
0
 20
0
 30
0.0
 70
     1
 40
0
 41
0
  0
VERTEX
  8
0
 10
1.83333
 20
0.75
 30
0.0
 40
0
 41
0
  0
VERTEX
  8
0
 10
1.91667
 20
0.75
 30
0.0
 40
0
 41
0
  0
VERTEX
  8
0
 10
1.91667
 20
0.666667
 30
0.0
 40
0
 41
0
  0
VERTEX
  8
0
 10
1.83333
 20
0.666667
 30
0.0
 40
0
 41
0
  0
VERTEX
  8
0
 10
1.83333
 20
0.75
 30
0.0
 40
0
 41
0
  0
SEQEND
 8
0
  0
POLYLINE
  8
0
 62
     0
 66
     1
 10
0
 20
0
 30
0.0
 70
     1
 40
0
 41
0
  0
VERTEX
  8
0
 10
1.83333
 20
0.666667
 30
0.0
 40
0
 41
0
  0
VERTEX
  8
0
 10
1.91667
 20
0.666667
 30
0.0
 40
0
 41
0
  0
VERTEX
  8
0
 10
1.91667
 20
0.583333
 30
0.0
 40
0
 41
0
  0
VERTEX
  8
0
 10
1.83333
 20
0.583333
 30
0.0
 40
0
 41
0
  0
VERTEX
  8
0
 10
1.83333
 20
0.666667
 30
0.0
 40
0
 41
0
  0
SEQEND
 8
0
  0
POLYLINE
  8
0
 62
     0
 66
     1
 10
0
 20
0
 30
0.0
 70
     1
 40
0
 41
0
  0
VERTEX
  8
0
 10
1.83333
 20
0.416667
 30
0.0
 40
0
 41
0
  0
VERTEX
  8
0
 10
1.91667
 20
0.416667
 30
0.0
 40
0
 41
0
  0
VERTEX
  8
0
 10
1.91667
 20
0.333333
 30
0.0
 40
0
 41
0
  0
VERTEX
  8
0
 10
1.83333
 20
0.333333
 30
0.0
 40
0
 41
0
  0
VERTEX
  8
0
 10
1.83333
 20
0.416667
 30
0.0
 40
0
 41
0
  0
SEQEND
 8
0
  0
POLYLINE
  8
0
 62
     0
 66
     1
 10
0
 20
0
 30
0.0
 70
     1
 40
0
 41
0
  0
VERTEX
  8
0
 10
1.91667
 20
2.41667
 30
0.0
 40
0
 41
0
  0
VERTEX
  8
0
 10
2
 20
2.41667
 30
0.0
 40
0
 41
0
  0
VERTEX
  8
0
 10
2
 20
2.33333
 30
0.0
 40
0
 41
0
  0
VERTEX
  8
0
 10
1.91667
 20
2.33333
 30
0.0
 40
0
 41
0
  0
VERTEX
  8
0
 10
1.91667
 20
2.41667
 30
0.0
 40
0
 41
0
  0
SEQEND
 8
0
  0
POLYLINE
  8
0
 62
     0
 66
     1
 10
0
 20
0
 30
0.0
 70
     1
 40
0
 41
0
  0
VERTEX
  8
0
 10
1.91667
 20
1.91667
 30
0.0
 40
0
 41
0
  0
VERTEX
  8
0
 10
2
 20
1.91667
 30
0.0
 40
0
 41
0
  0
VERTEX
  8
0
 10
2
 20
1.83333
 30
0.0
 40
0
 41
0
  0
VERTEX
  8
0
 10
1.91667
 20
1.83333
 30
0.0
 40
0
 41
0
  0
VERTEX
  8
0
 10
1.91667
 20
1.91667
 30
0.0
 40
0
 41
0
  0
SEQEND
 8
0
  0
POLYLINE
  8
0
 62
     0
 66
     1
 10
0
 20
0
 30
0.0
 70
     1
 40
0
 41
0
  0
VERTEX
  8
0
 10
1.91667
 20
1.66667
 30
0.0
 40
0
 41
0
  0
VERTEX
  8
0
 10
2
 20
1.66667
 30
0.0
 40
0
 41
0
  0
VERTEX
  8
0
 10
2
 20
1.58333
 30
0.0
 40
0
 41
0
  0
VERTEX
  8
0
 10
1.91667
 20
1.58333
 30
0.0
 40
0
 41
0
  0
VERTEX
  8
0
 10
1.91667
 20
1.66667
 30
0.0
 40
0
 41
0
  0
SEQEND
 8
0
  0
POLYLINE
  8
0
 62
     0
 66
     1
 10
0
 20
0
 30
0.0
 70
     1
 40
0
 41
0
  0
VERTEX
  8
0
 10
1.91667
 20
1.58333
 30
0.0
 40
0
 41
0
  0
VERTEX
  8
0
 10
2
 20
1.58333
 30
0.0
 40
0
 41
0
  0
VERTEX
  8
0
 10
2
 20
1.5
 30
0.0
 40
0
 41
0
  0
VERTEX
  8
0
 10
1.91667
 20
1.5
 30
0.0
 40
0
 41
0
  0
VERTEX
  8
0
 10
1.91667
 20
1.58333
 30
0.0
 40
0
 41
0
  0
SEQEND
 8
0
  0
POLYLINE
  8
0
 62
     0
 66
     1
 10
0
 20
0
 30
0.0
 70
     1
 40
0
 41
0
  0
VERTEX
  8
0
 10
1.91667
 20
1.5
 30
0.0
 40
0
 41
0
  0
VERTEX
  8
0
 10
2
 20
1.5
 30
0.0
 40
0
 41
0
  0
VERTEX
  8
0
 10
2
 20
1.41667
 30
0.0
 40
0
 41
0
  0
VERTEX
  8
0
 10
1.91667
 20
1.41667
 30
0.0
 40
0
 41
0
  0
VERTEX
  8
0
 10
1.91667
 20
1.5
 30
0.0
 40
0
 41
0
  0
SEQEND
 8
0
  0
POLYLINE
  8
0
 62
     0
 66
     1
 10
0
 20
0
 30
0.0
 70
     1
 40
0
 41
0
  0
VERTEX
  8
0
 10
1.91667
 20
1.16667
 30
0.0
 40
0
 41
0
  0
VERTEX
  8
0
 10
2
 20
1.16667
 30
0.0
 40
0
 41
0
  0
VERTEX
  8
0
 10
2
 20
1.08333
 30
0.0
 40
0
 41
0
  0
VERTEX
  8
0
 10
1.91667
 20
1.08333
 30
0.0
 40
0
 41
0
  0
VERTEX
  8
0
 10
1.91667
 20
1.16667
 30
0.0
 40
0
 41
0
  0
SEQEND
 8
0
  0
POLYLINE
  8
0
 62
     0
 66
     1
 10
0
 20
0
 30
0.0
 70
     1
 40
0
 41
0
  0
VERTEX
  8
0
 10
1.91667
 20
1.08333
 30
0.0
 40
0
 41
0
  0
VERTEX
  8
0
 10
2
 20
1.08333
 30
0.0
 40
0
 41
0
  0
VERTEX
  8
0
 10
2
 20
1
 30
0.0
 40
0
 41
0
  0
VERTEX
  8
0
 10
1.91667
 20
1
 30
0.0
 40
0
 41
0
  0
VERTEX
  8
0
 10
1.91667
 20
1.08333
 30
0.0
 40
0
 41
0
  0
SEQEND
 8
0
  0
POLYLINE
  8
0
 62
     0
 66
     1
 10
0
 20
0
 30
0.0
 70
     1
 40
0
 41
0
  0
VERTEX
  8
0
 10
1.91667
 20
0.75
 30
0.0
 40
0
 41
0
  0
VERTEX
  8
0
 10
2
 20
0.75
 30
0.0
 40
0
 41
0
  0
VERTEX
  8
0
 10
2
 20
0.666667
 30
0.0
 40
0
 41
0
  0
VERTEX
  8
0
 10
1.91667
 20
0.666667
 30
0.0
 40
0
 41
0
  0
VERTEX
  8
0
 10
1.91667
 20
0.75
 30
0.0
 40
0
 41
0
  0
SEQEND
 8
0
  0
POLYLINE
  8
0
 62
     0
 66
     1
 10
0
 20
0
 30
0.0
 70
     1
 40
0
 41
0
  0
VERTEX
  8
0
 10
1.91667
 20
0.666667
 30
0.0
 40
0
 41
0
  0
VERTEX
  8
0
 10
2
 20
0.666667
 30
0.0
 40
0
 41
0
  0
VERTEX
  8
0
 10
2
 20
0.583333
 30
0.0
 40
0
 41
0
  0
VERTEX
  8
0
 10
1.91667
 20
0.583333
 30
0.0
 40
0
 41
0
  0
VERTEX
  8
0
 10
1.91667
 20
0.666667
 30
0.0
 40
0
 41
0
  0
SEQEND
 8
0
  0
POLYLINE
  8
0
 62
     0
 66
     1
 10
0
 20
0
 30
0.0
 70
     1
 40
0
 41
0
  0
VERTEX
  8
0
 10
1.91667
 20
0.583333
 30
0.0
 40
0
 41
0
  0
VERTEX
  8
0
 10
2
 20
0.583333
 30
0.0
 40
0
 41
0
  0
VERTEX
  8
0
 10
2
 20
0.5
 30
0.0
 40
0
 41
0
  0
VERTEX
  8
0
 10
1.91667
 20
0.5
 30
0.0
 40
0
 41
0
  0
VERTEX
  8
0
 10
1.91667
 20
0.583333
 30
0.0
 40
0
 41
0
  0
SEQEND
 8
0
  0
POLYLINE
  8
0
 62
     0
 66
     1
 10
0
 20
0
 30
0.0
 70
     1
 40
0
 41
0
  0
VERTEX
  8
0
 10
1.91667
 20
0.5
 30
0.0
 40
0
 41
0
  0
VERTEX
  8
0
 10
2
 20
0.5
 30
0.0
 40
0
 41
0
  0
VERTEX
  8
0
 10
2
 20
0.416667
 30
0.0
 40
0
 41
0
  0
VERTEX
  8
0
 10
1.91667
 20
0.416667
 30
0.0
 40
0
 41
0
  0
VERTEX
  8
0
 10
1.91667
 20
0.5
 30
0.0
 40
0
 41
0
  0
SEQEND
 8
0
  0
POLYLINE
  8
0
 62
     0
 66
     1
 10
0
 20
0
 30
0.0
 70
     1
 40
0
 41
0
  0
VERTEX
  8
0
 10
2
 20
2.41667
 30
0.0
 40
0
 41
0
  0
VERTEX
  8
0
 10
2.08333
 20
2.41667
 30
0.0
 40
0
 41
0
  0
VERTEX
  8
0
 10
2.08333
 20
2.33333
 30
0.0
 40
0
 41
0
  0
VERTEX
  8
0
 10
2
 20
2.33333
 30
0.0
 40
0
 41
0
  0
VERTEX
  8
0
 10
2
 20
2.41667
 30
0.0
 40
0
 41
0
  0
SEQEND
 8
0
  0
POLYLINE
  8
0
 62
     0
 66
     1
 10
0
 20
0
 30
0.0
 70
     1
 40
0
 41
0
  0
VERTEX
  8
0
 10
2
 20
2.25
 30
0.0
 40
0
 41
0
  0
VERTEX
  8
0
 10
2.08333
 20
2.25
 30
0.0
 40
0
 41
0
  0
VERTEX
  8
0
 10
2.08333
 20
2.16667
 30
0.0
 40
0
 41
0
  0
VERTEX
  8
0
 10
2
 20
2.16667
 30
0.0
 40
0
 41
0
  0
VERTEX
  8
0
 10
2
 20
2.25
 30
0.0
 40
0
 41
0
  0
SEQEND
 8
0
  0
POLYLINE
  8
0
 62
     0
 66
     1
 10
0
 20
0
 30
0.0
 70
     1
 40
0
 41
0
  0
VERTEX
  8
0
 10
2
 20
2.16667
 30
0.0
 40
0
 41
0
  0
VERTEX
  8
0
 10
2.08333
 20
2.16667
 30
0.0
 40
0
 41
0
  0
VERTEX
  8
0
 10
2.08333
 20
2.08333
 30
0.0
 40
0
 41
0
  0
VERTEX
  8
0
 10
2
 20
2.08333
 30
0.0
 40
0
 41
0
  0
VERTEX
  8
0
 10
2
 20
2.16667
 30
0.0
 40
0
 41
0
  0
SEQEND
 8
0
  0
POLYLINE
  8
0
 62
     0
 66
     1
 10
0
 20
0
 30
0.0
 70
     1
 40
0
 41
0
  0
VERTEX
  8
0
 10
2
 20
2.08333
 30
0.0
 40
0
 41
0
  0
VERTEX
  8
0
 10
2.08333
 20
2.08333
 30
0.0
 40
0
 41
0
  0
VERTEX
  8
0
 10
2.08333
 20
2
 30
0.0
 40
0
 41
0
  0
VERTEX
  8
0
 10
2
 20
2
 30
0.0
 40
0
 41
0
  0
VERTEX
  8
0
 10
2
 20
2.08333
 30
0.0
 40
0
 41
0
  0
SEQEND
 8
0
  0
POLYLINE
  8
0
 62
     0
 66
     1
 10
0
 20
0
 30
0.0
 70
     1
 40
0
 41
0
  0
VERTEX
  8
0
 10
2
 20
1.91667
 30
0.0
 40
0
 41
0
  0
VERTEX
  8
0
 10
2.08333
 20
1.91667
 30
0.0
 40
0
 41
0
  0
VERTEX
  8
0
 10
2.08333
 20
1.83333
 30
0.0
 40
0
 41
0
  0
VERTEX
  8
0
 10
2
 20
1.83333
 30
0.0
 40
0
 41
0
  0
VERTEX
  8
0
 10
2
 20
1.91667
 30
0.0
 40
0
 41
0
  0
SEQEND
 8
0
  0
POLYLINE
  8
0
 62
     0
 66
     1
 10
0
 20
0
 30
0.0
 70
     1
 40
0
 41
0
  0
VERTEX
  8
0
 10
2
 20
1.66667
 30
0.0
 40
0
 41
0
  0
VERTEX
  8
0
 10
2.08333
 20
1.66667
 30
0.0
 40
0
 41
0
  0
VERTEX
  8
0
 10
2.08333
 20
1.58333
 30
0.0
 40
0
 41
0
  0
VERTEX
  8
0
 10
2
 20
1.58333
 30
0.0
 40
0
 41
0
  0
VERTEX
  8
0
 10
2
 20
1.66667
 30
0.0
 40
0
 41
0
  0
SEQEND
 8
0
  0
POLYLINE
  8
0
 62
     0
 66
     1
 10
0
 20
0
 30
0.0
 70
     1
 40
0
 41
0
  0
VERTEX
  8
0
 10
2
 20
1.33333
 30
0.0
 40
0
 41
0
  0
VERTEX
  8
0
 10
2.08333
 20
1.33333
 30
0.0
 40
0
 41
0
  0
VERTEX
  8
0
 10
2.08333
 20
1.25
 30
0.0
 40
0
 41
0
  0
VERTEX
  8
0
 10
2
 20
1.25
 30
0.0
 40
0
 41
0
  0
VERTEX
  8
0
 10
2
 20
1.33333
 30
0.0
 40
0
 41
0
  0
SEQEND
 8
0
  0
POLYLINE
  8
0
 62
     0
 66
     1
 10
0
 20
0
 30
0.0
 70
     1
 40
0
 41
0
  0
VERTEX
  8
0
 10
2
 20
1.25
 30
0.0
 40
0
 41
0
  0
VERTEX
  8
0
 10
2.08333
 20
1.25
 30
0.0
 40
0
 41
0
  0
VERTEX
  8
0
 10
2.08333
 20
1.16667
 30
0.0
 40
0
 41
0
  0
VERTEX
  8
0
 10
2
 20
1.16667
 30
0.0
 40
0
 41
0
  0
VERTEX
  8
0
 10
2
 20
1.25
 30
0.0
 40
0
 41
0
  0
SEQEND
 8
0
  0
POLYLINE
  8
0
 62
     0
 66
     1
 10
0
 20
0
 30
0.0
 70
     1
 40
0
 41
0
  0
VERTEX
  8
0
 10
2
 20
1.16667
 30
0.0
 40
0
 41
0
  0
VERTEX
  8
0
 10
2.08333
 20
1.16667
 30
0.0
 40
0
 41
0
  0
VERTEX
  8
0
 10
2.08333
 20
1.08333
 30
0.0
 40
0
 41
0
  0
VERTEX
  8
0
 10
2
 20
1.08333
 30
0.0
 40
0
 41
0
  0
VERTEX
  8
0
 10
2
 20
1.16667
 30
0.0
 40
0
 41
0
  0
SEQEND
 8
0
  0
POLYLINE
  8
0
 62
     0
 66
     1
 10
0
 20
0
 30
0.0
 70
     1
 40
0
 41
0
  0
VERTEX
  8
0
 10
2
 20
1.08333
 30
0.0
 40
0
 41
0
  0
VERTEX
  8
0
 10
2.08333
 20
1.08333
 30
0.0
 40
0
 41
0
  0
VERTEX
  8
0
 10
2.08333
 20
1
 30
0.0
 40
0
 41
0
  0
VERTEX
  8
0
 10
2
 20
1
 30
0.0
 40
0
 41
0
  0
VERTEX
  8
0
 10
2
 20
1.08333
 30
0.0
 40
0
 41
0
  0
SEQEND
 8
0
  0
POLYLINE
  8
0
 62
     0
 66
     1
 10
0
 20
0
 30
0.0
 70
     1
 40
0
 41
0
  0
VERTEX
  8
0
 10
2
 20
1
 30
0.0
 40
0
 41
0
  0
VERTEX
  8
0
 10
2.08333
 20
1
 30
0.0
 40
0
 41
0
  0
VERTEX
  8
0
 10
2.08333
 20
0.916667
 30
0.0
 40
0
 41
0
  0
VERTEX
  8
0
 10
2
 20
0.916667
 30
0.0
 40
0
 41
0
  0
VERTEX
  8
0
 10
2
 20
1
 30
0.0
 40
0
 41
0
  0
SEQEND
 8
0
  0
POLYLINE
  8
0
 62
     0
 66
     1
 10
0
 20
0
 30
0.0
 70
     1
 40
0
 41
0
  0
VERTEX
  8
0
 10
2
 20
0.916667
 30
0.0
 40
0
 41
0
  0
VERTEX
  8
0
 10
2.08333
 20
0.916667
 30
0.0
 40
0
 41
0
  0
VERTEX
  8
0
 10
2.08333
 20
0.833333
 30
0.0
 40
0
 41
0
  0
VERTEX
  8
0
 10
2
 20
0.833333
 30
0.0
 40
0
 41
0
  0
VERTEX
  8
0
 10
2
 20
0.916667
 30
0.0
 40
0
 41
0
  0
SEQEND
 8
0
  0
POLYLINE
  8
0
 62
     0
 66
     1
 10
0
 20
0
 30
0.0
 70
     1
 40
0
 41
0
  0
VERTEX
  8
0
 10
2
 20
0.833333
 30
0.0
 40
0
 41
0
  0
VERTEX
  8
0
 10
2.08333
 20
0.833333
 30
0.0
 40
0
 41
0
  0
VERTEX
  8
0
 10
2.08333
 20
0.75
 30
0.0
 40
0
 41
0
  0
VERTEX
  8
0
 10
2
 20
0.75
 30
0.0
 40
0
 41
0
  0
VERTEX
  8
0
 10
2
 20
0.833333
 30
0.0
 40
0
 41
0
  0
SEQEND
 8
0
  0
POLYLINE
  8
0
 62
     0
 66
     1
 10
0
 20
0
 30
0.0
 70
     1
 40
0
 41
0
  0
VERTEX
  8
0
 10
2
 20
0.75
 30
0.0
 40
0
 41
0
  0
VERTEX
  8
0
 10
2.08333
 20
0.75
 30
0.0
 40
0
 41
0
  0
VERTEX
  8
0
 10
2.08333
 20
0.666667
 30
0.0
 40
0
 41
0
  0
VERTEX
  8
0
 10
2
 20
0.666667
 30
0.0
 40
0
 41
0
  0
VERTEX
  8
0
 10
2
 20
0.75
 30
0.0
 40
0
 41
0
  0
SEQEND
 8
0
  0
POLYLINE
  8
0
 62
     0
 66
     1
 10
0
 20
0
 30
0.0
 70
     1
 40
0
 41
0
  0
VERTEX
  8
0
 10
2
 20
0.583333
 30
0.0
 40
0
 41
0
  0
VERTEX
  8
0
 10
2.08333
 20
0.583333
 30
0.0
 40
0
 41
0
  0
VERTEX
  8
0
 10
2.08333
 20
0.5
 30
0.0
 40
0
 41
0
  0
VERTEX
  8
0
 10
2
 20
0.5
 30
0.0
 40
0
 41
0
  0
VERTEX
  8
0
 10
2
 20
0.583333
 30
0.0
 40
0
 41
0
  0
SEQEND
 8
0
  0
POLYLINE
  8
0
 62
     0
 66
     1
 10
0
 20
0
 30
0.0
 70
     1
 40
0
 41
0
  0
VERTEX
  8
0
 10
2
 20
0.5
 30
0.0
 40
0
 41
0
  0
VERTEX
  8
0
 10
2.08333
 20
0.5
 30
0.0
 40
0
 41
0
  0
VERTEX
  8
0
 10
2.08333
 20
0.416667
 30
0.0
 40
0
 41
0
  0
VERTEX
  8
0
 10
2
 20
0.416667
 30
0.0
 40
0
 41
0
  0
VERTEX
  8
0
 10
2
 20
0.5
 30
0.0
 40
0
 41
0
  0
SEQEND
 8
0
  0
POLYLINE
  8
0
 62
     0
 66
     1
 10
0
 20
0
 30
0.0
 70
     1
 40
0
 41
0
  0
VERTEX
  8
0
 10
2.08333
 20
2.41667
 30
0.0
 40
0
 41
0
  0
VERTEX
  8
0
 10
2.16667
 20
2.41667
 30
0.0
 40
0
 41
0
  0
VERTEX
  8
0
 10
2.16667
 20
2.33333
 30
0.0
 40
0
 41
0
  0
VERTEX
  8
0
 10
2.08333
 20
2.33333
 30
0.0
 40
0
 41
0
  0
VERTEX
  8
0
 10
2.08333
 20
2.41667
 30
0.0
 40
0
 41
0
  0
SEQEND
 8
0
  0
POLYLINE
  8
0
 62
     0
 66
     1
 10
0
 20
0
 30
0.0
 70
     1
 40
0
 41
0
  0
VERTEX
  8
0
 10
2.08333
 20
2.25
 30
0.0
 40
0
 41
0
  0
VERTEX
  8
0
 10
2.16667
 20
2.25
 30
0.0
 40
0
 41
0
  0
VERTEX
  8
0
 10
2.16667
 20
2.16667
 30
0.0
 40
0
 41
0
  0
VERTEX
  8
0
 10
2.08333
 20
2.16667
 30
0.0
 40
0
 41
0
  0
VERTEX
  8
0
 10
2.08333
 20
2.25
 30
0.0
 40
0
 41
0
  0
SEQEND
 8
0
  0
POLYLINE
  8
0
 62
     0
 66
     1
 10
0
 20
0
 30
0.0
 70
     1
 40
0
 41
0
  0
VERTEX
  8
0
 10
2.08333
 20
2.16667
 30
0.0
 40
0
 41
0
  0
VERTEX
  8
0
 10
2.16667
 20
2.16667
 30
0.0
 40
0
 41
0
  0
VERTEX
  8
0
 10
2.16667
 20
2.08333
 30
0.0
 40
0
 41
0
  0
VERTEX
  8
0
 10
2.08333
 20
2.08333
 30
0.0
 40
0
 41
0
  0
VERTEX
  8
0
 10
2.08333
 20
2.16667
 30
0.0
 40
0
 41
0
  0
SEQEND
 8
0
  0
POLYLINE
  8
0
 62
     0
 66
     1
 10
0
 20
0
 30
0.0
 70
     1
 40
0
 41
0
  0
VERTEX
  8
0
 10
2.08333
 20
2.08333
 30
0.0
 40
0
 41
0
  0
VERTEX
  8
0
 10
2.16667
 20
2.08333
 30
0.0
 40
0
 41
0
  0
VERTEX
  8
0
 10
2.16667
 20
2
 30
0.0
 40
0
 41
0
  0
VERTEX
  8
0
 10
2.08333
 20
2
 30
0.0
 40
0
 41
0
  0
VERTEX
  8
0
 10
2.08333
 20
2.08333
 30
0.0
 40
0
 41
0
  0
SEQEND
 8
0
  0
POLYLINE
  8
0
 62
     0
 66
     1
 10
0
 20
0
 30
0.0
 70
     1
 40
0
 41
0
  0
VERTEX
  8
0
 10
2.08333
 20
1.91667
 30
0.0
 40
0
 41
0
  0
VERTEX
  8
0
 10
2.16667
 20
1.91667
 30
0.0
 40
0
 41
0
  0
VERTEX
  8
0
 10
2.16667
 20
1.83333
 30
0.0
 40
0
 41
0
  0
VERTEX
  8
0
 10
2.08333
 20
1.83333
 30
0.0
 40
0
 41
0
  0
VERTEX
  8
0
 10
2.08333
 20
1.91667
 30
0.0
 40
0
 41
0
  0
SEQEND
 8
0
  0
POLYLINE
  8
0
 62
     0
 66
     1
 10
0
 20
0
 30
0.0
 70
     1
 40
0
 41
0
  0
VERTEX
  8
0
 10
2.08333
 20
1.66667
 30
0.0
 40
0
 41
0
  0
VERTEX
  8
0
 10
2.16667
 20
1.66667
 30
0.0
 40
0
 41
0
  0
VERTEX
  8
0
 10
2.16667
 20
1.58333
 30
0.0
 40
0
 41
0
  0
VERTEX
  8
0
 10
2.08333
 20
1.58333
 30
0.0
 40
0
 41
0
  0
VERTEX
  8
0
 10
2.08333
 20
1.66667
 30
0.0
 40
0
 41
0
  0
SEQEND
 8
0
  0
POLYLINE
  8
0
 62
     0
 66
     1
 10
0
 20
0
 30
0.0
 70
     1
 40
0
 41
0
  0
VERTEX
  8
0
 10
2.08333
 20
1.58333
 30
0.0
 40
0
 41
0
  0
VERTEX
  8
0
 10
2.16667
 20
1.58333
 30
0.0
 40
0
 41
0
  0
VERTEX
  8
0
 10
2.16667
 20
1.5
 30
0.0
 40
0
 41
0
  0
VERTEX
  8
0
 10
2.08333
 20
1.5
 30
0.0
 40
0
 41
0
  0
VERTEX
  8
0
 10
2.08333
 20
1.58333
 30
0.0
 40
0
 41
0
  0
SEQEND
 8
0
  0
POLYLINE
  8
0
 62
     0
 66
     1
 10
0
 20
0
 30
0.0
 70
     1
 40
0
 41
0
  0
VERTEX
  8
0
 10
2.08333
 20
1.5
 30
0.0
 40
0
 41
0
  0
VERTEX
  8
0
 10
2.16667
 20
1.5
 30
0.0
 40
0
 41
0
  0
VERTEX
  8
0
 10
2.16667
 20
1.41667
 30
0.0
 40
0
 41
0
  0
VERTEX
  8
0
 10
2.08333
 20
1.41667
 30
0.0
 40
0
 41
0
  0
VERTEX
  8
0
 10
2.08333
 20
1.5
 30
0.0
 40
0
 41
0
  0
SEQEND
 8
0
  0
POLYLINE
  8
0
 62
     0
 66
     1
 10
0
 20
0
 30
0.0
 70
     1
 40
0
 41
0
  0
VERTEX
  8
0
 10
2.08333
 20
1.25
 30
0.0
 40
0
 41
0
  0
VERTEX
  8
0
 10
2.16667
 20
1.25
 30
0.0
 40
0
 41
0
  0
VERTEX
  8
0
 10
2.16667
 20
1.16667
 30
0.0
 40
0
 41
0
  0
VERTEX
  8
0
 10
2.08333
 20
1.16667
 30
0.0
 40
0
 41
0
  0
VERTEX
  8
0
 10
2.08333
 20
1.25
 30
0.0
 40
0
 41
0
  0
SEQEND
 8
0
  0
POLYLINE
  8
0
 62
     0
 66
     1
 10
0
 20
0
 30
0.0
 70
     1
 40
0
 41
0
  0
VERTEX
  8
0
 10
2.08333
 20
0.916667
 30
0.0
 40
0
 41
0
  0
VERTEX
  8
0
 10
2.16667
 20
0.916667
 30
0.0
 40
0
 41
0
  0
VERTEX
  8
0
 10
2.16667
 20
0.833333
 30
0.0
 40
0
 41
0
  0
VERTEX
  8
0
 10
2.08333
 20
0.833333
 30
0.0
 40
0
 41
0
  0
VERTEX
  8
0
 10
2.08333
 20
0.916667
 30
0.0
 40
0
 41
0
  0
SEQEND
 8
0
  0
POLYLINE
  8
0
 62
     0
 66
     1
 10
0
 20
0
 30
0.0
 70
     1
 40
0
 41
0
  0
VERTEX
  8
0
 10
2.08333
 20
0.75
 30
0.0
 40
0
 41
0
  0
VERTEX
  8
0
 10
2.16667
 20
0.75
 30
0.0
 40
0
 41
0
  0
VERTEX
  8
0
 10
2.16667
 20
0.666667
 30
0.0
 40
0
 41
0
  0
VERTEX
  8
0
 10
2.08333
 20
0.666667
 30
0.0
 40
0
 41
0
  0
VERTEX
  8
0
 10
2.08333
 20
0.75
 30
0.0
 40
0
 41
0
  0
SEQEND
 8
0
  0
POLYLINE
  8
0
 62
     0
 66
     1
 10
0
 20
0
 30
0.0
 70
     1
 40
0
 41
0
  0
VERTEX
  8
0
 10
2.08333
 20
0.666667
 30
0.0
 40
0
 41
0
  0
VERTEX
  8
0
 10
2.16667
 20
0.666667
 30
0.0
 40
0
 41
0
  0
VERTEX
  8
0
 10
2.16667
 20
0.583333
 30
0.0
 40
0
 41
0
  0
VERTEX
  8
0
 10
2.08333
 20
0.583333
 30
0.0
 40
0
 41
0
  0
VERTEX
  8
0
 10
2.08333
 20
0.666667
 30
0.0
 40
0
 41
0
  0
SEQEND
 8
0
  0
POLYLINE
  8
0
 62
     0
 66
     1
 10
0
 20
0
 30
0.0
 70
     1
 40
0
 41
0
  0
VERTEX
  8
0
 10
2.08333
 20
0.416667
 30
0.0
 40
0
 41
0
  0
VERTEX
  8
0
 10
2.16667
 20
0.416667
 30
0.0
 40
0
 41
0
  0
VERTEX
  8
0
 10
2.16667
 20
0.333333
 30
0.0
 40
0
 41
0
  0
VERTEX
  8
0
 10
2.08333
 20
0.333333
 30
0.0
 40
0
 41
0
  0
VERTEX
  8
0
 10
2.08333
 20
0.416667
 30
0.0
 40
0
 41
0
  0
SEQEND
 8
0
  0
POLYLINE
  8
0
 62
     0
 66
     1
 10
0
 20
0
 30
0.0
 70
     1
 40
0
 41
0
  0
VERTEX
  8
0
 10
2.16667
 20
2.41667
 30
0.0
 40
0
 41
0
  0
VERTEX
  8
0
 10
2.25
 20
2.41667
 30
0.0
 40
0
 41
0
  0
VERTEX
  8
0
 10
2.25
 20
2.33333
 30
0.0
 40
0
 41
0
  0
VERTEX
  8
0
 10
2.16667
 20
2.33333
 30
0.0
 40
0
 41
0
  0
VERTEX
  8
0
 10
2.16667
 20
2.41667
 30
0.0
 40
0
 41
0
  0
SEQEND
 8
0
  0
POLYLINE
  8
0
 62
     0
 66
     1
 10
0
 20
0
 30
0.0
 70
     1
 40
0
 41
0
  0
VERTEX
  8
0
 10
2.16667
 20
2.25
 30
0.0
 40
0
 41
0
  0
VERTEX
  8
0
 10
2.25
 20
2.25
 30
0.0
 40
0
 41
0
  0
VERTEX
  8
0
 10
2.25
 20
2.16667
 30
0.0
 40
0
 41
0
  0
VERTEX
  8
0
 10
2.16667
 20
2.16667
 30
0.0
 40
0
 41
0
  0
VERTEX
  8
0
 10
2.16667
 20
2.25
 30
0.0
 40
0
 41
0
  0
SEQEND
 8
0
  0
POLYLINE
  8
0
 62
     0
 66
     1
 10
0
 20
0
 30
0.0
 70
     1
 40
0
 41
0
  0
VERTEX
  8
0
 10
2.16667
 20
2.16667
 30
0.0
 40
0
 41
0
  0
VERTEX
  8
0
 10
2.25
 20
2.16667
 30
0.0
 40
0
 41
0
  0
VERTEX
  8
0
 10
2.25
 20
2.08333
 30
0.0
 40
0
 41
0
  0
VERTEX
  8
0
 10
2.16667
 20
2.08333
 30
0.0
 40
0
 41
0
  0
VERTEX
  8
0
 10
2.16667
 20
2.16667
 30
0.0
 40
0
 41
0
  0
SEQEND
 8
0
  0
POLYLINE
  8
0
 62
     0
 66
     1
 10
0
 20
0
 30
0.0
 70
     1
 40
0
 41
0
  0
VERTEX
  8
0
 10
2.16667
 20
2.08333
 30
0.0
 40
0
 41
0
  0
VERTEX
  8
0
 10
2.25
 20
2.08333
 30
0.0
 40
0
 41
0
  0
VERTEX
  8
0
 10
2.25
 20
2
 30
0.0
 40
0
 41
0
  0
VERTEX
  8
0
 10
2.16667
 20
2
 30
0.0
 40
0
 41
0
  0
VERTEX
  8
0
 10
2.16667
 20
2.08333
 30
0.0
 40
0
 41
0
  0
SEQEND
 8
0
  0
POLYLINE
  8
0
 62
     0
 66
     1
 10
0
 20
0
 30
0.0
 70
     1
 40
0
 41
0
  0
VERTEX
  8
0
 10
2.16667
 20
1.91667
 30
0.0
 40
0
 41
0
  0
VERTEX
  8
0
 10
2.25
 20
1.91667
 30
0.0
 40
0
 41
0
  0
VERTEX
  8
0
 10
2.25
 20
1.83333
 30
0.0
 40
0
 41
0
  0
VERTEX
  8
0
 10
2.16667
 20
1.83333
 30
0.0
 40
0
 41
0
  0
VERTEX
  8
0
 10
2.16667
 20
1.91667
 30
0.0
 40
0
 41
0
  0
SEQEND
 8
0
  0
POLYLINE
  8
0
 62
     0
 66
     1
 10
0
 20
0
 30
0.0
 70
     1
 40
0
 41
0
  0
VERTEX
  8
0
 10
2.16667
 20
1.66667
 30
0.0
 40
0
 41
0
  0
VERTEX
  8
0
 10
2.25
 20
1.66667
 30
0.0
 40
0
 41
0
  0
VERTEX
  8
0
 10
2.25
 20
1.58333
 30
0.0
 40
0
 41
0
  0
VERTEX
  8
0
 10
2.16667
 20
1.58333
 30
0.0
 40
0
 41
0
  0
VERTEX
  8
0
 10
2.16667
 20
1.66667
 30
0.0
 40
0
 41
0
  0
SEQEND
 8
0
  0
POLYLINE
  8
0
 62
     0
 66
     1
 10
0
 20
0
 30
0.0
 70
     1
 40
0
 41
0
  0
VERTEX
  8
0
 10
2.16667
 20
1.5
 30
0.0
 40
0
 41
0
  0
VERTEX
  8
0
 10
2.25
 20
1.5
 30
0.0
 40
0
 41
0
  0
VERTEX
  8
0
 10
2.25
 20
1.41667
 30
0.0
 40
0
 41
0
  0
VERTEX
  8
0
 10
2.16667
 20
1.41667
 30
0.0
 40
0
 41
0
  0
VERTEX
  8
0
 10
2.16667
 20
1.5
 30
0.0
 40
0
 41
0
  0
SEQEND
 8
0
  0
POLYLINE
  8
0
 62
     0
 66
     1
 10
0
 20
0
 30
0.0
 70
     1
 40
0
 41
0
  0
VERTEX
  8
0
 10
2.16667
 20
1.25
 30
0.0
 40
0
 41
0
  0
VERTEX
  8
0
 10
2.25
 20
1.25
 30
0.0
 40
0
 41
0
  0
VERTEX
  8
0
 10
2.25
 20
1.16667
 30
0.0
 40
0
 41
0
  0
VERTEX
  8
0
 10
2.16667
 20
1.16667
 30
0.0
 40
0
 41
0
  0
VERTEX
  8
0
 10
2.16667
 20
1.25
 30
0.0
 40
0
 41
0
  0
SEQEND
 8
0
  0
POLYLINE
  8
0
 62
     0
 66
     1
 10
0
 20
0
 30
0.0
 70
     1
 40
0
 41
0
  0
VERTEX
  8
0
 10
2.16667
 20
1.16667
 30
0.0
 40
0
 41
0
  0
VERTEX
  8
0
 10
2.25
 20
1.16667
 30
0.0
 40
0
 41
0
  0
VERTEX
  8
0
 10
2.25
 20
1.08333
 30
0.0
 40
0
 41
0
  0
VERTEX
  8
0
 10
2.16667
 20
1.08333
 30
0.0
 40
0
 41
0
  0
VERTEX
  8
0
 10
2.16667
 20
1.16667
 30
0.0
 40
0
 41
0
  0
SEQEND
 8
0
  0
POLYLINE
  8
0
 62
     0
 66
     1
 10
0
 20
0
 30
0.0
 70
     1
 40
0
 41
0
  0
VERTEX
  8
0
 10
2.16667
 20
1.08333
 30
0.0
 40
0
 41
0
  0
VERTEX
  8
0
 10
2.25
 20
1.08333
 30
0.0
 40
0
 41
0
  0
VERTEX
  8
0
 10
2.25
 20
1
 30
0.0
 40
0
 41
0
  0
VERTEX
  8
0
 10
2.16667
 20
1
 30
0.0
 40
0
 41
0
  0
VERTEX
  8
0
 10
2.16667
 20
1.08333
 30
0.0
 40
0
 41
0
  0
SEQEND
 8
0
  0
POLYLINE
  8
0
 62
     0
 66
     1
 10
0
 20
0
 30
0.0
 70
     1
 40
0
 41
0
  0
VERTEX
  8
0
 10
2.16667
 20
0.583333
 30
0.0
 40
0
 41
0
  0
VERTEX
  8
0
 10
2.25
 20
0.583333
 30
0.0
 40
0
 41
0
  0
VERTEX
  8
0
 10
2.25
 20
0.5
 30
0.0
 40
0
 41
0
  0
VERTEX
  8
0
 10
2.16667
 20
0.5
 30
0.0
 40
0
 41
0
  0
VERTEX
  8
0
 10
2.16667
 20
0.583333
 30
0.0
 40
0
 41
0
  0
SEQEND
 8
0
  0
POLYLINE
  8
0
 62
     0
 66
     1
 10
0
 20
0
 30
0.0
 70
     1
 40
0
 41
0
  0
VERTEX
  8
0
 10
2.16667
 20
0.5
 30
0.0
 40
0
 41
0
  0
VERTEX
  8
0
 10
2.25
 20
0.5
 30
0.0
 40
0
 41
0
  0
VERTEX
  8
0
 10
2.25
 20
0.416667
 30
0.0
 40
0
 41
0
  0
VERTEX
  8
0
 10
2.16667
 20
0.416667
 30
0.0
 40
0
 41
0
  0
VERTEX
  8
0
 10
2.16667
 20
0.5
 30
0.0
 40
0
 41
0
  0
SEQEND
 8
0
  0
POLYLINE
  8
0
 62
     0
 66
     1
 10
0
 20
0
 30
0.0
 70
     1
 40
0
 41
0
  0
VERTEX
  8
0
 10
2.25
 20
2.41667
 30
0.0
 40
0
 41
0
  0
VERTEX
  8
0
 10
2.33333
 20
2.41667
 30
0.0
 40
0
 41
0
  0
VERTEX
  8
0
 10
2.33333
 20
2.33333
 30
0.0
 40
0
 41
0
  0
VERTEX
  8
0
 10
2.25
 20
2.33333
 30
0.0
 40
0
 41
0
  0
VERTEX
  8
0
 10
2.25
 20
2.41667
 30
0.0
 40
0
 41
0
  0
SEQEND
 8
0
  0
POLYLINE
  8
0
 62
     0
 66
     1
 10
0
 20
0
 30
0.0
 70
     1
 40
0
 41
0
  0
VERTEX
  8
0
 10
2.25
 20
1.91667
 30
0.0
 40
0
 41
0
  0
VERTEX
  8
0
 10
2.33333
 20
1.91667
 30
0.0
 40
0
 41
0
  0
VERTEX
  8
0
 10
2.33333
 20
1.83333
 30
0.0
 40
0
 41
0
  0
VERTEX
  8
0
 10
2.25
 20
1.83333
 30
0.0
 40
0
 41
0
  0
VERTEX
  8
0
 10
2.25
 20
1.91667
 30
0.0
 40
0
 41
0
  0
SEQEND
 8
0
  0
POLYLINE
  8
0
 62
     0
 66
     1
 10
0
 20
0
 30
0.0
 70
     1
 40
0
 41
0
  0
VERTEX
  8
0
 10
2.25
 20
1.66667
 30
0.0
 40
0
 41
0
  0
VERTEX
  8
0
 10
2.33333
 20
1.66667
 30
0.0
 40
0
 41
0
  0
VERTEX
  8
0
 10
2.33333
 20
1.58333
 30
0.0
 40
0
 41
0
  0
VERTEX
  8
0
 10
2.25
 20
1.58333
 30
0.0
 40
0
 41
0
  0
VERTEX
  8
0
 10
2.25
 20
1.66667
 30
0.0
 40
0
 41
0
  0
SEQEND
 8
0
  0
POLYLINE
  8
0
 62
     0
 66
     1
 10
0
 20
0
 30
0.0
 70
     1
 40
0
 41
0
  0
VERTEX
  8
0
 10
2.25
 20
1.5
 30
0.0
 40
0
 41
0
  0
VERTEX
  8
0
 10
2.33333
 20
1.5
 30
0.0
 40
0
 41
0
  0
VERTEX
  8
0
 10
2.33333
 20
1.41667
 30
0.0
 40
0
 41
0
  0
VERTEX
  8
0
 10
2.25
 20
1.41667
 30
0.0
 40
0
 41
0
  0
VERTEX
  8
0
 10
2.25
 20
1.5
 30
0.0
 40
0
 41
0
  0
SEQEND
 8
0
  0
POLYLINE
  8
0
 62
     0
 66
     1
 10
0
 20
0
 30
0.0
 70
     1
 40
0
 41
0
  0
VERTEX
  8
0
 10
2.25
 20
1.33333
 30
0.0
 40
0
 41
0
  0
VERTEX
  8
0
 10
2.33333
 20
1.33333
 30
0.0
 40
0
 41
0
  0
VERTEX
  8
0
 10
2.33333
 20
1.25
 30
0.0
 40
0
 41
0
  0
VERTEX
  8
0
 10
2.25
 20
1.25
 30
0.0
 40
0
 41
0
  0
VERTEX
  8
0
 10
2.25
 20
1.33333
 30
0.0
 40
0
 41
0
  0
SEQEND
 8
0
  0
POLYLINE
  8
0
 62
     0
 66
     1
 10
0
 20
0
 30
0.0
 70
     1
 40
0
 41
0
  0
VERTEX
  8
0
 10
2.25
 20
1.25
 30
0.0
 40
0
 41
0
  0
VERTEX
  8
0
 10
2.33333
 20
1.25
 30
0.0
 40
0
 41
0
  0
VERTEX
  8
0
 10
2.33333
 20
1.16667
 30
0.0
 40
0
 41
0
  0
VERTEX
  8
0
 10
2.25
 20
1.16667
 30
0.0
 40
0
 41
0
  0
VERTEX
  8
0
 10
2.25
 20
1.25
 30
0.0
 40
0
 41
0
  0
SEQEND
 8
0
  0
POLYLINE
  8
0
 62
     0
 66
     1
 10
0
 20
0
 30
0.0
 70
     1
 40
0
 41
0
  0
VERTEX
  8
0
 10
2.25
 20
1.08333
 30
0.0
 40
0
 41
0
  0
VERTEX
  8
0
 10
2.33333
 20
1.08333
 30
0.0
 40
0
 41
0
  0
VERTEX
  8
0
 10
2.33333
 20
1
 30
0.0
 40
0
 41
0
  0
VERTEX
  8
0
 10
2.25
 20
1
 30
0.0
 40
0
 41
0
  0
VERTEX
  8
0
 10
2.25
 20
1.08333
 30
0.0
 40
0
 41
0
  0
SEQEND
 8
0
  0
POLYLINE
  8
0
 62
     0
 66
     1
 10
0
 20
0
 30
0.0
 70
     1
 40
0
 41
0
  0
VERTEX
  8
0
 10
2.25
 20
1
 30
0.0
 40
0
 41
0
  0
VERTEX
  8
0
 10
2.33333
 20
1
 30
0.0
 40
0
 41
0
  0
VERTEX
  8
0
 10
2.33333
 20
0.916667
 30
0.0
 40
0
 41
0
  0
VERTEX
  8
0
 10
2.25
 20
0.916667
 30
0.0
 40
0
 41
0
  0
VERTEX
  8
0
 10
2.25
 20
1
 30
0.0
 40
0
 41
0
  0
SEQEND
 8
0
  0
POLYLINE
  8
0
 62
     0
 66
     1
 10
0
 20
0
 30
0.0
 70
     1
 40
0
 41
0
  0
VERTEX
  8
0
 10
2.25
 20
0.666667
 30
0.0
 40
0
 41
0
  0
VERTEX
  8
0
 10
2.33333
 20
0.666667
 30
0.0
 40
0
 41
0
  0
VERTEX
  8
0
 10
2.33333
 20
0.583333
 30
0.0
 40
0
 41
0
  0
VERTEX
  8
0
 10
2.25
 20
0.583333
 30
0.0
 40
0
 41
0
  0
VERTEX
  8
0
 10
2.25
 20
0.666667
 30
0.0
 40
0
 41
0
  0
SEQEND
 8
0
  0
POLYLINE
  8
0
 62
     0
 66
     1
 10
0
 20
0
 30
0.0
 70
     1
 40
0
 41
0
  0
VERTEX
  8
0
 10
2.25
 20
0.583333
 30
0.0
 40
0
 41
0
  0
VERTEX
  8
0
 10
2.33333
 20
0.583333
 30
0.0
 40
0
 41
0
  0
VERTEX
  8
0
 10
2.33333
 20
0.5
 30
0.0
 40
0
 41
0
  0
VERTEX
  8
0
 10
2.25
 20
0.5
 30
0.0
 40
0
 41
0
  0
VERTEX
  8
0
 10
2.25
 20
0.583333
 30
0.0
 40
0
 41
0
  0
SEQEND
 8
0
  0
POLYLINE
  8
0
 62
     0
 66
     1
 10
0
 20
0
 30
0.0
 70
     1
 40
0
 41
0
  0
VERTEX
  8
0
 10
2.25
 20
0.5
 30
0.0
 40
0
 41
0
  0
VERTEX
  8
0
 10
2.33333
 20
0.5
 30
0.0
 40
0
 41
0
  0
VERTEX
  8
0
 10
2.33333
 20
0.416667
 30
0.0
 40
0
 41
0
  0
VERTEX
  8
0
 10
2.25
 20
0.416667
 30
0.0
 40
0
 41
0
  0
VERTEX
  8
0
 10
2.25
 20
0.5
 30
0.0
 40
0
 41
0
  0
SEQEND
 8
0
  0
POLYLINE
  8
0
 62
     0
 66
     1
 10
0
 20
0
 30
0.0
 70
     1
 40
0
 41
0
  0
VERTEX
  8
0
 10
2.33333
 20
2.41667
 30
0.0
 40
0
 41
0
  0
VERTEX
  8
0
 10
2.41667
 20
2.41667
 30
0.0
 40
0
 41
0
  0
VERTEX
  8
0
 10
2.41667
 20
2.33333
 30
0.0
 40
0
 41
0
  0
VERTEX
  8
0
 10
2.33333
 20
2.33333
 30
0.0
 40
0
 41
0
  0
VERTEX
  8
0
 10
2.33333
 20
2.41667
 30
0.0
 40
0
 41
0
  0
SEQEND
 8
0
  0
POLYLINE
  8
0
 62
     0
 66
     1
 10
0
 20
0
 30
0.0
 70
     1
 40
0
 41
0
  0
VERTEX
  8
0
 10
2.33333
 20
2.33333
 30
0.0
 40
0
 41
0
  0
VERTEX
  8
0
 10
2.41667
 20
2.33333
 30
0.0
 40
0
 41
0
  0
VERTEX
  8
0
 10
2.41667
 20
2.25
 30
0.0
 40
0
 41
0
  0
VERTEX
  8
0
 10
2.33333
 20
2.25
 30
0.0
 40
0
 41
0
  0
VERTEX
  8
0
 10
2.33333
 20
2.33333
 30
0.0
 40
0
 41
0
  0
SEQEND
 8
0
  0
POLYLINE
  8
0
 62
     0
 66
     1
 10
0
 20
0
 30
0.0
 70
     1
 40
0
 41
0
  0
VERTEX
  8
0
 10
2.33333
 20
2.25
 30
0.0
 40
0
 41
0
  0
VERTEX
  8
0
 10
2.41667
 20
2.25
 30
0.0
 40
0
 41
0
  0
VERTEX
  8
0
 10
2.41667
 20
2.16667
 30
0.0
 40
0
 41
0
  0
VERTEX
  8
0
 10
2.33333
 20
2.16667
 30
0.0
 40
0
 41
0
  0
VERTEX
  8
0
 10
2.33333
 20
2.25
 30
0.0
 40
0
 41
0
  0
SEQEND
 8
0
  0
POLYLINE
  8
0
 62
     0
 66
     1
 10
0
 20
0
 30
0.0
 70
     1
 40
0
 41
0
  0
VERTEX
  8
0
 10
2.33333
 20
2.16667
 30
0.0
 40
0
 41
0
  0
VERTEX
  8
0
 10
2.41667
 20
2.16667
 30
0.0
 40
0
 41
0
  0
VERTEX
  8
0
 10
2.41667
 20
2.08333
 30
0.0
 40
0
 41
0
  0
VERTEX
  8
0
 10
2.33333
 20
2.08333
 30
0.0
 40
0
 41
0
  0
VERTEX
  8
0
 10
2.33333
 20
2.16667
 30
0.0
 40
0
 41
0
  0
SEQEND
 8
0
  0
POLYLINE
  8
0
 62
     0
 66
     1
 10
0
 20
0
 30
0.0
 70
     1
 40
0
 41
0
  0
VERTEX
  8
0
 10
2.33333
 20
2.08333
 30
0.0
 40
0
 41
0
  0
VERTEX
  8
0
 10
2.41667
 20
2.08333
 30
0.0
 40
0
 41
0
  0
VERTEX
  8
0
 10
2.41667
 20
2
 30
0.0
 40
0
 41
0
  0
VERTEX
  8
0
 10
2.33333
 20
2
 30
0.0
 40
0
 41
0
  0
VERTEX
  8
0
 10
2.33333
 20
2.08333
 30
0.0
 40
0
 41
0
  0
SEQEND
 8
0
  0
POLYLINE
  8
0
 62
     0
 66
     1
 10
0
 20
0
 30
0.0
 70
     1
 40
0
 41
0
  0
VERTEX
  8
0
 10
2.33333
 20
2
 30
0.0
 40
0
 41
0
  0
VERTEX
  8
0
 10
2.41667
 20
2
 30
0.0
 40
0
 41
0
  0
VERTEX
  8
0
 10
2.41667
 20
1.91667
 30
0.0
 40
0
 41
0
  0
VERTEX
  8
0
 10
2.33333
 20
1.91667
 30
0.0
 40
0
 41
0
  0
VERTEX
  8
0
 10
2.33333
 20
2
 30
0.0
 40
0
 41
0
  0
SEQEND
 8
0
  0
POLYLINE
  8
0
 62
     0
 66
     1
 10
0
 20
0
 30
0.0
 70
     1
 40
0
 41
0
  0
VERTEX
  8
0
 10
2.33333
 20
1.91667
 30
0.0
 40
0
 41
0
  0
VERTEX
  8
0
 10
2.41667
 20
1.91667
 30
0.0
 40
0
 41
0
  0
VERTEX
  8
0
 10
2.41667
 20
1.83333
 30
0.0
 40
0
 41
0
  0
VERTEX
  8
0
 10
2.33333
 20
1.83333
 30
0.0
 40
0
 41
0
  0
VERTEX
  8
0
 10
2.33333
 20
1.91667
 30
0.0
 40
0
 41
0
  0
SEQEND
 8
0
  0
POLYLINE
  8
0
 62
     0
 66
     1
 10
0
 20
0
 30
0.0
 70
     1
 40
0
 41
0
  0
VERTEX
  8
0
 10
2.33333
 20
1.75
 30
0.0
 40
0
 41
0
  0
VERTEX
  8
0
 10
2.41667
 20
1.75
 30
0.0
 40
0
 41
0
  0
VERTEX
  8
0
 10
2.41667
 20
1.66667
 30
0.0
 40
0
 41
0
  0
VERTEX
  8
0
 10
2.33333
 20
1.66667
 30
0.0
 40
0
 41
0
  0
VERTEX
  8
0
 10
2.33333
 20
1.75
 30
0.0
 40
0
 41
0
  0
SEQEND
 8
0
  0
POLYLINE
  8
0
 62
     0
 66
     1
 10
0
 20
0
 30
0.0
 70
     1
 40
0
 41
0
  0
VERTEX
  8
0
 10
2.33333
 20
1.58333
 30
0.0
 40
0
 41
0
  0
VERTEX
  8
0
 10
2.41667
 20
1.58333
 30
0.0
 40
0
 41
0
  0
VERTEX
  8
0
 10
2.41667
 20
1.5
 30
0.0
 40
0
 41
0
  0
VERTEX
  8
0
 10
2.33333
 20
1.5
 30
0.0
 40
0
 41
0
  0
VERTEX
  8
0
 10
2.33333
 20
1.58333
 30
0.0
 40
0
 41
0
  0
SEQEND
 8
0
  0
POLYLINE
  8
0
 62
     0
 66
     1
 10
0
 20
0
 30
0.0
 70
     1
 40
0
 41
0
  0
VERTEX
  8
0
 10
2.33333
 20
1.5
 30
0.0
 40
0
 41
0
  0
VERTEX
  8
0
 10
2.41667
 20
1.5
 30
0.0
 40
0
 41
0
  0
VERTEX
  8
0
 10
2.41667
 20
1.41667
 30
0.0
 40
0
 41
0
  0
VERTEX
  8
0
 10
2.33333
 20
1.41667
 30
0.0
 40
0
 41
0
  0
VERTEX
  8
0
 10
2.33333
 20
1.5
 30
0.0
 40
0
 41
0
  0
SEQEND
 8
0
  0
POLYLINE
  8
0
 62
     0
 66
     1
 10
0
 20
0
 30
0.0
 70
     1
 40
0
 41
0
  0
VERTEX
  8
0
 10
2.33333
 20
1.41667
 30
0.0
 40
0
 41
0
  0
VERTEX
  8
0
 10
2.41667
 20
1.41667
 30
0.0
 40
0
 41
0
  0
VERTEX
  8
0
 10
2.41667
 20
1.33333
 30
0.0
 40
0
 41
0
  0
VERTEX
  8
0
 10
2.33333
 20
1.33333
 30
0.0
 40
0
 41
0
  0
VERTEX
  8
0
 10
2.33333
 20
1.41667
 30
0.0
 40
0
 41
0
  0
SEQEND
 8
0
  0
POLYLINE
  8
0
 62
     0
 66
     1
 10
0
 20
0
 30
0.0
 70
     1
 40
0
 41
0
  0
VERTEX
  8
0
 10
2.33333
 20
1.25
 30
0.0
 40
0
 41
0
  0
VERTEX
  8
0
 10
2.41667
 20
1.25
 30
0.0
 40
0
 41
0
  0
VERTEX
  8
0
 10
2.41667
 20
1.16667
 30
0.0
 40
0
 41
0
  0
VERTEX
  8
0
 10
2.33333
 20
1.16667
 30
0.0
 40
0
 41
0
  0
VERTEX
  8
0
 10
2.33333
 20
1.25
 30
0.0
 40
0
 41
0
  0
SEQEND
 8
0
  0
POLYLINE
  8
0
 62
     0
 66
     1
 10
0
 20
0
 30
0.0
 70
     1
 40
0
 41
0
  0
VERTEX
  8
0
 10
2.33333
 20
1.16667
 30
0.0
 40
0
 41
0
  0
VERTEX
  8
0
 10
2.41667
 20
1.16667
 30
0.0
 40
0
 41
0
  0
VERTEX
  8
0
 10
2.41667
 20
1.08333
 30
0.0
 40
0
 41
0
  0
VERTEX
  8
0
 10
2.33333
 20
1.08333
 30
0.0
 40
0
 41
0
  0
VERTEX
  8
0
 10
2.33333
 20
1.16667
 30
0.0
 40
0
 41
0
  0
SEQEND
 8
0
  0
POLYLINE
  8
0
 62
     0
 66
     1
 10
0
 20
0
 30
0.0
 70
     1
 40
0
 41
0
  0
VERTEX
  8
0
 10
2.33333
 20
0.916667
 30
0.0
 40
0
 41
0
  0
VERTEX
  8
0
 10
2.41667
 20
0.916667
 30
0.0
 40
0
 41
0
  0
VERTEX
  8
0
 10
2.41667
 20
0.833333
 30
0.0
 40
0
 41
0
  0
VERTEX
  8
0
 10
2.33333
 20
0.833333
 30
0.0
 40
0
 41
0
  0
VERTEX
  8
0
 10
2.33333
 20
0.916667
 30
0.0
 40
0
 41
0
  0
SEQEND
 8
0
  0
POLYLINE
  8
0
 62
     0
 66
     1
 10
0
 20
0
 30
0.0
 70
     1
 40
0
 41
0
  0
VERTEX
  8
0
 10
2.33333
 20
0.833333
 30
0.0
 40
0
 41
0
  0
VERTEX
  8
0
 10
2.41667
 20
0.833333
 30
0.0
 40
0
 41
0
  0
VERTEX
  8
0
 10
2.41667
 20
0.75
 30
0.0
 40
0
 41
0
  0
VERTEX
  8
0
 10
2.33333
 20
0.75
 30
0.0
 40
0
 41
0
  0
VERTEX
  8
0
 10
2.33333
 20
0.833333
 30
0.0
 40
0
 41
0
  0
SEQEND
 8
0
  0
POLYLINE
  8
0
 62
     0
 66
     1
 10
0
 20
0
 30
0.0
 70
     1
 40
0
 41
0
  0
VERTEX
  8
0
 10
2.33333
 20
0.666667
 30
0.0
 40
0
 41
0
  0
VERTEX
  8
0
 10
2.41667
 20
0.666667
 30
0.0
 40
0
 41
0
  0
VERTEX
  8
0
 10
2.41667
 20
0.583333
 30
0.0
 40
0
 41
0
  0
VERTEX
  8
0
 10
2.33333
 20
0.583333
 30
0.0
 40
0
 41
0
  0
VERTEX
  8
0
 10
2.33333
 20
0.666667
 30
0.0
 40
0
 41
0
  0
SEQEND
 8
0
  0
POLYLINE
  8
0
 62
     0
 66
     1
 10
0
 20
0
 30
0.0
 70
     1
 40
0
 41
0
  0
VERTEX
  8
0
 10
2.33333
 20
0.583333
 30
0.0
 40
0
 41
0
  0
VERTEX
  8
0
 10
2.41667
 20
0.583333
 30
0.0
 40
0
 41
0
  0
VERTEX
  8
0
 10
2.41667
 20
0.5
 30
0.0
 40
0
 41
0
  0
VERTEX
  8
0
 10
2.33333
 20
0.5
 30
0.0
 40
0
 41
0
  0
VERTEX
  8
0
 10
2.33333
 20
0.583333
 30
0.0
 40
0
 41
0
  0
SEQEND
 8
0
  0
POLYLINE
  8
0
 62
     0
 66
     1
 10
0
 20
0
 30
0.0
 70
     1
 40
0
 41
0
  0
VERTEX
  8
0
 10
2.33333
 20
0.5
 30
0.0
 40
0
 41
0
  0
VERTEX
  8
0
 10
2.41667
 20
0.5
 30
0.0
 40
0
 41
0
  0
VERTEX
  8
0
 10
2.41667
 20
0.416667
 30
0.0
 40
0
 41
0
  0
VERTEX
  8
0
 10
2.33333
 20
0.416667
 30
0.0
 40
0
 41
0
  0
VERTEX
  8
0
 10
2.33333
 20
0.5
 30
0.0
 40
0
 41
0
  0
SEQEND
 8
0
  0
POLYLINE
  8
0
 62
     0
 66
     1
 10
0
 20
0
 30
0.0
 70
     1
 40
0
 41
0
  0
VERTEX
  8
0
 10
2.33333
 20
0.416667
 30
0.0
 40
0
 41
0
  0
VERTEX
  8
0
 10
2.41667
 20
0.416667
 30
0.0
 40
0
 41
0
  0
VERTEX
  8
0
 10
2.41667
 20
0.333333
 30
0.0
 40
0
 41
0
  0
VERTEX
  8
0
 10
2.33333
 20
0.333333
 30
0.0
 40
0
 41
0
  0
VERTEX
  8
0
 10
2.33333
 20
0.416667
 30
0.0
 40
0
 41
0
  0
SEQEND
 8
0
  0
ENDSEC
  0
EOF
