<?xml version="1.0" encoding="UTF-8" standalone="no"?>
<!-- Created with Inkscape (http://www.inkscape.org/) -->

<svg
   xmlns:dc="http://purl.org/dc/elements/1.1/"
   xmlns:cc="http://creativecommons.org/ns#"
   xmlns:rdf="http://www.w3.org/1999/02/22-rdf-syntax-ns#"
   xmlns:svg="http://www.w3.org/2000/svg"
   xmlns="http://www.w3.org/2000/svg"
   xmlns:xlink="http://www.w3.org/1999/xlink"
   xmlns:sodipodi="http://sodipodi.sourceforge.net/DTD/sodipodi-0.dtd"
   xmlns:inkscape="http://www.inkscape.org/namespaces/inkscape"
   version="1.1"
   id="svg3481"
   xml:space="preserve"
   width="245.66933"
   height="245.66933"
   viewBox="0 0 245.66933 245.66933"
   sodipodi:docname="spectro4.svg"
   inkscape:version="0.92.4 (unknown)"><metadata
     id="metadata3487"><rdf:RDF><cc:Work
         rdf:about=""><dc:format>image/svg+xml</dc:format><dc:type
           rdf:resource="http://purl.org/dc/dcmitype/StillImage" /><dc:title></dc:title></cc:Work></rdf:RDF></metadata><defs
     id="defs3485"><marker
       inkscape:isstock="true"
       style="overflow:visible"
       id="marker2278"
       refX="0.0"
       refY="0.0"
       orient="auto"
       inkscape:stockid="TriangleInM"><path
         transform="scale(-0.4)"
         style="fill-rule:evenodd;stroke:#000000;stroke-width:1pt;stroke-opacity:1;fill:#000000;fill-opacity:1"
         d="M 5.77,0.0 L -2.88,5.0 L -2.88,-5.0 L 5.77,0.0 z "
         id="path2276" /></marker><marker
       inkscape:stockid="TriangleInM"
       orient="auto"
       refY="0.0"
       refX="0.0"
       id="TriangleInM"
       style="overflow:visible"
       inkscape:isstock="true"
       inkscape:collect="always"><path
         id="path984"
         d="M 5.77,0.0 L -2.88,5.0 L -2.88,-5.0 L 5.77,0.0 z "
         style="fill-rule:evenodd;stroke:#ffffff;stroke-width:1pt;stroke-opacity:1;fill:#ffffff;fill-opacity:1"
         transform="scale(-0.4)" /></marker><marker
       inkscape:stockid="TriangleInL"
       orient="auto"
       refY="0.0"
       refX="0.0"
       id="TriangleInL"
       style="overflow:visible"
       inkscape:isstock="true"><path
         id="path981"
         d="M 5.77,0.0 L -2.88,5.0 L -2.88,-5.0 L 5.77,0.0 z "
         style="fill-rule:evenodd;stroke:#000000;stroke-width:1pt;stroke-opacity:1;fill:#000000;fill-opacity:1"
         transform="scale(-0.8)" /></marker><marker
       inkscape:stockid="Arrow1Mend"
       orient="auto"
       refY="0.0"
       refX="0.0"
       id="Arrow1Mend"
       style="overflow:visible;"
       inkscape:isstock="true"><path
         id="path857"
         d="M 0.0,0.0 L 5.0,-5.0 L -12.5,0.0 L 5.0,5.0 L 0.0,0.0 z "
         style="fill-rule:evenodd;stroke:#000000;stroke-width:1pt;stroke-opacity:1;fill:#000000;fill-opacity:1"
         transform="scale(0.4) rotate(180) translate(10,0)" /></marker><marker
       inkscape:stockid="Arrow1Mstart"
       orient="auto"
       refY="0.0"
       refX="0.0"
       id="Arrow1Mstart"
       style="overflow:visible"
       inkscape:isstock="true"><path
         id="path854"
         d="M 0.0,0.0 L 5.0,-5.0 L -12.5,0.0 L 5.0,5.0 L 0.0,0.0 z "
         style="fill-rule:evenodd;stroke:#000000;stroke-width:1pt;stroke-opacity:1;fill:#000000;fill-opacity:1"
         transform="scale(0.4) translate(10,0)" /></marker><marker
       inkscape:stockid="Arrow1Lend"
       orient="auto"
       refY="0.0"
       refX="0.0"
       id="marker1286"
       style="overflow:visible;"
       inkscape:isstock="true"><path
         id="path1284"
         d="M 0.0,0.0 L 5.0,-5.0 L -12.5,0.0 L 5.0,5.0 L 0.0,0.0 z "
         style="fill-rule:evenodd;stroke:#000000;stroke-width:1pt;stroke-opacity:1;fill:#000000;fill-opacity:1"
         transform="scale(0.8) rotate(180) translate(12.5,0)" /></marker><marker
       inkscape:stockid="TriangleOutL"
       orient="auto"
       refY="0.0"
       refX="0.0"
       id="TriangleOutL"
       style="overflow:visible"
       inkscape:isstock="true"><path
         id="path990"
         d="M 5.77,0.0 L -2.88,5.0 L -2.88,-5.0 L 5.77,0.0 z "
         style="fill-rule:evenodd;stroke:#000000;stroke-width:1pt;stroke-opacity:1;fill:#000000;fill-opacity:1"
         transform="scale(0.8)" /></marker><marker
       inkscape:stockid="Arrow1Lend"
       orient="auto"
       refY="0.0"
       refX="0.0"
       id="Arrow1Lend"
       style="overflow:visible;"
       inkscape:isstock="true"><path
         id="path851"
         d="M 0.0,0.0 L 5.0,-5.0 L -12.5,0.0 L 5.0,5.0 L 0.0,0.0 z "
         style="fill-rule:evenodd;stroke:#000000;stroke-width:1pt;stroke-opacity:1;fill:#000000;fill-opacity:1"
         transform="scale(0.8) rotate(180) translate(12.5,0)" /></marker><linearGradient
       inkscape:collect="always"
       id="linearGradient5445"><stop
         style="stop-color:#d90000;stop-opacity:1"
         offset="0"
         id="stop5433" /><stop
         id="stop5435"
         offset="0.51283723"
         style="stop-color:#00c200;stop-opacity:1" /><stop
         style="stop-color:#0000ff;stop-opacity:1"
         offset="0.82980424"
         id="stop5437" /><stop
         style="stop-color:#0000ff;stop-opacity:1"
         offset="1"
         id="stop5439" /><stop
         style="stop-color:#501288;stop-opacity:0.35686275;"
         offset="1"
         id="stop5441" /><stop
         style="stop-color:#c83737;stop-opacity:1"
         offset="1"
         id="stop5443" /></linearGradient><clipPath
       clipPathUnits="userSpaceOnUse"
       id="clipPath3497"><path
         d="M 0,0 H 184.252 V 184.252 H 0 Z"
         id="path3495"
         inkscape:connector-curvature="0" /></clipPath><linearGradient
       inkscape:collect="always"
       xlink:href="#linearGradient5445"
       id="linearGradient5412"
       x1="15.320263"
       y1="-141.28801"
       x2="149.28316"
       y2="-141.28801"
       gradientUnits="userSpaceOnUse"
       gradientTransform="matrix(1.2035897,0,0,1.2035897,18.564339,131.05364)" /><marker
       inkscape:isstock="true"
       style="overflow:visible"
       id="marker2278-8"
       refX="0"
       refY="0"
       orient="auto"
       inkscape:stockid="TriangleInM"><path
         inkscape:connector-curvature="0"
         transform="scale(-0.4)"
         style="fill:#ffffff;fill-opacity:1;fill-rule:evenodd;stroke:#ffffff;stroke-width:1.00000003pt;stroke-opacity:1"
         d="M 5.77,0 -2.88,5 V -5 Z"
         id="path2276-1" /></marker></defs><sodipodi:namedview
     pagecolor="#ffffff"
     bordercolor="#666666"
     inkscape:document-rotation="0"
     borderopacity="1"
     objecttolerance="10"
     gridtolerance="10"
     guidetolerance="10"
     inkscape:pageopacity="0"
     inkscape:pageshadow="2"
     inkscape:window-width="1600"
     inkscape:window-height="836"
     id="namedview3483"
     showgrid="false"
     inkscape:zoom="2"
     inkscape:cx="83.39366"
     inkscape:cy="121.33466"
     inkscape:window-x="0"
     inkscape:window-y="27"
     inkscape:window-maximized="1"
     inkscape:current-layer="g3493"
     showguides="false" /><g
     id="g3489"
     inkscape:groupmode="layer"
     inkscape:label="logoHackuariumText_vectorgraphics"
     transform="matrix(1.3333333,0,0,-1.3333333,0,245.66933)"><g
       id="g3491"><g
         id="g3493"
         clip-path="url(#clipPath3497)"><rect
   style="fill:#000000;fill-opacity:1;stroke:#800080;stroke-width:1;stroke-miterlimit:4.30000019;stroke-dasharray:none;stroke-opacity:1"
   id="rect7489"
   width="224.25"
   height="210.375"
   x="-18"
   y="-194.625"
   transform="scale(1,-1)" /><g
   id="g3499"
   transform="translate(32.3184,51.0908)"
   style="fill:#ffffff;fill-opacity:1"><path
     d="m 0,0 c -1.365,0.455 -2.727,1.835 -3.294,3.338 -0.876,2.32 -0.196,5.026 1.641,6.531 1.632,1.338 1.372,1.315 13.567,1.315 7.285,0 11.183,0.07 11.554,0.211 0.761,0.288 1.644,1.144 1.975,1.918 0.226,0.528 0.274,4.008 0.274,20.041 v 19.4 l 0.646,-0.461 c 0.542,-0.386 0.948,-0.472 2.513,-0.53 2.305,-0.087 2.91,-0.376 3.384,-1.621 1.32,-3.46 4.942,-6.787 8.663,-7.959 2.098,-0.66 5.258,-0.751 7.503,-0.215 5.827,1.39 10.143,6.399 10.617,12.321 0.132,1.645 0.436,2.215 1.182,2.215 0.636,0 1.073,-0.724 1.075,-1.784 0.002,-1.49 0.751,-4.151 1.644,-5.842 1.148,-2.173 3.464,-4.489 5.637,-5.637 5.253,-2.774 11.663,-1.99 16.044,1.964 1.39,1.254 2.945,3.441 3.475,4.883 0.47,1.28 0.953,1.527 3.224,1.649 1.705,0.091 1.999,0.164 2.64,0.653 l 0.722,0.55 0.053,-19.569 0.054,-19.569 0.599,-0.864 c 0.35,-0.502 0.966,-1.046 1.483,-1.308 l 0.884,-0.446 h 10.766 c 11.944,0 11.709,0.021 13.34,-1.315 2.586,-2.119 2.709,-6.24 0.256,-8.629 -1.657,-1.614 -1.41,-1.587 -14.214,-1.587 -12.469,0 -13.044,0.046 -15.703,1.277 -3.737,1.725 -6.487,4.575 -7.978,8.266 -0.811,2.007 -1.062,3.869 -1.062,7.877 0,3.63 -0.006,3.674 -0.488,4.156 -0.768,0.768 -1.716,0.583 -2.262,-0.443 -0.165,-0.307 -0.231,-2.692 -0.231,-8.265 0,-8.704 -0.044,-9.072 -1.253,-10.545 -2.601,-3.176 -7.478,-2.589 -9.442,1.131 l -0.537,1.019 -0.099,8.416 -0.1,8.416 -0.469,0.38 C 67.66,21.844 67.027,21.817 66.512,21.27 66.097,20.828 66.088,20.665 66.029,12.474 L 65.97,4.126 65.44,3.122 c -1.138,-2.156 -2.79,-3.174 -5.14,-3.166 -1.297,0.009 -1.64,0.087 -2.584,0.617 -0.599,0.336 -1.379,0.989 -1.734,1.449 -1.117,1.454 -1.197,2.104 -1.325,10.75 -0.107,7.224 -0.146,7.892 -0.484,8.349 -0.493,0.666 -1.415,0.756 -1.929,0.19 -0.365,-0.403 -0.399,-0.936 -0.586,-9.004 L 51.459,3.729 50.93,2.834 c -1.166,-1.973 -2.725,-2.883 -4.937,-2.883 -2.213,0 -3.772,0.91 -4.938,2.883 l -0.529,0.895 -0.1,8.481 -0.099,8.482 -0.482,0.513 c -0.572,0.608 -1.188,0.653 -1.832,0.133 -0.459,-0.371 -0.471,-0.467 -0.591,-4.721 -0.101,-3.605 -0.196,-4.61 -0.561,-5.93 C 35.703,6.492 32.537,2.744 28.625,0.938 25.921,-0.309 25.423,-0.348 12.556,-0.334 2.417,-0.323 0.848,-0.28 0,0"
     style="fill:#ffffff;fill-opacity:1;fill-rule:nonzero;stroke:none"
     id="path3501"
     inkscape:connector-curvature="0" /></g><g
   id="g3511"
   transform="translate(126.1533,109.4438)"
   style="fill:#ffffff;fill-opacity:1"><path
     d="m 0,0 c -0.444,0.346 -0.889,0.45 -2.159,0.508 -1.355,0.062 -1.727,0.159 -2.426,0.63 -0.549,0.371 -0.916,0.813 -1.096,1.32 -0.802,2.265 -3.448,5.318 -5.788,6.681 -0.709,0.413 -2.005,0.994 -2.88,1.292 l -1.589,0.542 -17.175,0.055 c -16.938,0.054 -17.199,0.049 -18.884,-0.368 -2.193,-0.542 -4.502,-1.764 -6.107,-3.234 -1.375,-1.259 -3.133,-3.753 -3.495,-4.96 -0.162,-0.541 -0.473,-0.922 -1.097,-1.342 -0.765,-0.517 -1.044,-0.587 -2.309,-0.587 -1.037,0 -1.652,-0.109 -2.203,-0.39 l -0.764,-0.39 0.133,1.132 c 0.805,6.851 3.855,13.677 8.413,18.83 5.021,5.676 11.371,9.363 18.918,10.983 2.302,0.494 2.867,0.538 6.978,0.538 4.163,0.001 4.651,-0.038 7.056,-0.56 C -12.945,27.745 -2.641,17.415 0.224,3.916 0.717,1.592 0.954,-0.461 0.729,-0.446 0.636,-0.44 0.309,-0.239 0,0"
     style="fill:#ffffff;fill-opacity:1;fill-rule:nonzero;stroke:none"
     id="path3513"
     inkscape:connector-curvature="0" /></g>

<text
   xml:space="preserve"
   style="font-style:normal;font-variant:normal;font-weight:normal;font-stretch:normal;font-size:11.01629829px;line-height:1.25;font-family:Base5;-inkscape-font-specification:'Base5, Normal';font-variant-ligatures:normal;font-variant-caps:normal;font-variant-numeric:normal;font-feature-settings:normal;text-align:start;letter-spacing:0px;word-spacing:0px;writing-mode:lr-tb;text-anchor:start;fill:#ffffff;fill-opacity:1;stroke:none;stroke-width:0.82622236;"
   x="29.330893"
   y="-30.827267"
   id="text844"
   transform="scale(0.90774595,-1.1016298)"><tspan
     sodipodi:role="line"
     id="tspan842"
     x="29.330893"
     y="-30.827267"
     style="font-style:normal;font-variant:normal;font-weight:normal;font-stretch:normal;font-size:11.01629829px;font-family:Base5;-inkscape-font-specification:'Base5, Normal';font-variant-ligatures:normal;font-variant-caps:normal;font-variant-numeric:normal;font-feature-settings:normal;text-align:start;writing-mode:lr-tb;text-anchor:start;fill:#ffffff;stroke-width:0.82622236;">spectro . hackuarium . org</tspan></text>

<path
   style="fill:#ffffff;stroke:#ffffff;stroke-width:3.0999999;stroke-linecap:butt;stroke-linejoin:miter;stroke-miterlimit:4.30000019;stroke-dasharray:none;stroke-opacity:1;marker-start:url(#TriangleInM)"
   d="M 134.27529,157.55947 117.54305,141.92094"
   id="path846"
   inkscape:connector-curvature="0" /><path
   inkscape:connector-curvature="0"
   id="path2274-2"
   d="M 146.30332,144.50376 129.57108,128.86523"
   style="fill:#ffffff;stroke:#ffffff;stroke-width:3.0999999;stroke-linecap:butt;stroke-linejoin:miter;stroke-miterlimit:4.30000019;stroke-dasharray:none;stroke-opacity:1;marker-start:url(#marker2278-8)" /></g></g></g></svg>