G75*
%MOIN*%
%OFA0B0*%
%FSLAX25Y25*%
%IPPOS*%
%LPD*%
%AMOC8*
5,1,8,0,0,1.08239X$1,22.5*
%
%ADD10C,0.00600*%
%ADD11R,0.00400X0.00200*%
%ADD12R,0.00600X0.00200*%
%ADD13R,0.02400X0.00200*%
%ADD14R,0.02600X0.00200*%
%ADD15R,0.02800X0.00200*%
%ADD16R,0.00800X0.00200*%
%ADD17R,0.03200X0.00200*%
%ADD18R,0.03400X0.00200*%
%ADD19R,0.01000X0.00200*%
%ADD20R,0.03600X0.00200*%
%ADD21R,0.04000X0.00200*%
%ADD22R,0.03800X0.00200*%
%ADD23R,0.04200X0.00200*%
%ADD24R,0.04400X0.00200*%
%ADD25R,0.05400X0.00200*%
%ADD26R,0.04600X0.00200*%
%ADD27R,0.02200X0.00200*%
%ADD28R,0.01400X0.00200*%
%ADD29R,0.01200X0.00200*%
%ADD30R,0.01800X0.00200*%
%ADD31R,0.02000X0.00200*%
%ADD32R,0.01600X0.00200*%
%ADD33R,0.05200X0.00200*%
%ADD34R,0.05000X0.00200*%
%ADD35R,0.04800X0.00200*%
%ADD36R,0.06000X0.00200*%
%ADD37R,0.03000X0.00200*%
%ADD38R,0.00200X0.00200*%
%ADD39R,0.12200X0.00200*%
%ADD40R,0.12800X0.00200*%
%ADD41R,0.14200X0.00200*%
%ADD42R,0.14600X0.00200*%
%ADD43R,0.15200X0.00200*%
%ADD44R,0.15400X0.00200*%
%ADD45R,0.15800X0.00200*%
%ADD46R,0.16200X0.00200*%
%ADD47R,0.16400X0.00200*%
%ADD48R,0.16800X0.00200*%
%ADD49R,0.17000X0.00200*%
%ADD50R,0.17200X0.00200*%
%ADD51R,0.17600X0.00200*%
%ADD52R,0.17800X0.00200*%
%ADD53R,0.18000X0.00200*%
%ADD54R,0.18200X0.00200*%
%ADD55R,0.18600X0.00200*%
%ADD56R,0.05600X0.00200*%
%ADD57R,0.18800X0.00200*%
%ADD58R,0.19000X0.00200*%
%ADD59R,0.05800X0.00200*%
%ADD60R,0.19200X0.00200*%
%ADD61R,0.19400X0.00200*%
%ADD62R,0.19600X0.00200*%
%ADD63R,0.19800X0.00200*%
%ADD64R,0.20200X0.00200*%
%ADD65R,0.20000X0.00200*%
%ADD66R,0.20400X0.00200*%
%ADD67R,0.20600X0.00200*%
%ADD68R,0.20800X0.00200*%
%ADD69R,0.18400X0.00200*%
%ADD70R,0.07200X0.00200*%
%ADD71R,0.07000X0.00200*%
%ADD72R,0.06800X0.00200*%
%ADD73R,0.06600X0.00200*%
%ADD74R,0.06400X0.00200*%
%ADD75R,0.06200X0.00200*%
%ADD76R,0.36800X0.00200*%
%ADD77R,0.09000X0.00200*%
%ADD78R,0.13200X0.00200*%
%ADD79R,0.08800X0.00200*%
%ADD80R,0.08200X0.00200*%
%ADD81R,0.11600X0.00200*%
%ADD82R,0.08000X0.00200*%
%ADD83R,0.07600X0.00200*%
%ADD84R,0.10400X0.00200*%
%ADD85R,0.07400X0.00200*%
%ADD86R,0.09600X0.00200*%
%ADD87R,0.07800X0.00200*%
%ADD88R,0.08400X0.00200*%
%ADD89R,0.08600X0.00200*%
%ADD90R,0.33600X0.00200*%
%ADD91R,0.33200X0.00200*%
%ADD92R,0.32800X0.00200*%
%ADD93R,0.32400X0.00200*%
%ADD94R,0.32000X0.00200*%
%ADD95R,0.31600X0.00200*%
%ADD96R,0.31200X0.00200*%
%ADD97R,0.30800X0.00200*%
%ADD98R,0.30400X0.00200*%
%ADD99R,0.30000X0.00200*%
%ADD100R,0.29600X0.00200*%
%ADD101R,0.29400X0.00200*%
%ADD102R,0.29200X0.00200*%
%ADD103R,0.28800X0.00200*%
%ADD104R,0.28400X0.00200*%
%ADD105R,0.28000X0.00200*%
%ADD106R,0.27800X0.00200*%
%ADD107R,0.27600X0.00200*%
%ADD108R,0.27200X0.00200*%
%ADD109R,0.26800X0.00200*%
%ADD110R,0.26400X0.00200*%
%ADD111R,0.26000X0.00200*%
%ADD112R,0.25600X0.00200*%
%ADD113R,0.25200X0.00200*%
%ADD114R,0.24800X0.00200*%
%ADD115R,0.24200X0.00200*%
%ADD116R,0.23600X0.00200*%
%ADD117R,0.23200X0.00200*%
%ADD118R,0.22800X0.00200*%
%ADD119R,0.22400X0.00200*%
%ADD120R,0.21600X0.00200*%
%ADD121R,0.21200X0.00200*%
%ADD122R,0.15600X0.00200*%
%ADD123R,0.14800X0.00200*%
%ADD124R,0.13800X0.00200*%
%ADD125C,0.00400*%
%ADD126C,0.00800*%
%ADD127C,0.00300*%
%ADD128C,0.01000*%
%ADD129C,0.00500*%
%ADD130C,0.00200*%
%ADD131C,0.00100*%
%ADD132R,0.05000X0.30000*%
%ADD133R,0.01000X0.02000*%
%ADD134R,0.00500X0.01500*%
%ADD135R,0.01000X0.01000*%
%ADD136C,0.01575*%
D10*
X0086800Y0017800D02*
X0086800Y0025800D01*
X0087800Y0026800D01*
X0095800Y0026800D01*
X0096800Y0025800D01*
X0097800Y0026800D01*
X0105800Y0026800D01*
X0106800Y0025800D01*
X0106800Y0017800D01*
X0105800Y0016800D01*
X0097800Y0016800D01*
X0096800Y0017800D01*
X0095800Y0016800D01*
X0087800Y0016800D01*
X0086800Y0017800D01*
X0039202Y0078808D02*
X0011682Y0078808D01*
X0011682Y0104792D01*
X0039202Y0104792D01*
X0039202Y0078808D01*
X0037800Y0176800D02*
X0031800Y0176800D01*
X0026800Y0176800D01*
X0020800Y0176800D01*
X0015600Y0176800D01*
X0015600Y0180300D01*
X0015600Y0186800D01*
X0015600Y0216800D01*
X0015600Y0223300D01*
X0015600Y0226700D01*
X0020800Y0226700D01*
X0026800Y0226700D01*
X0031800Y0226700D01*
X0037800Y0226700D01*
X0043100Y0226700D01*
X0043100Y0223300D01*
X0043100Y0216800D01*
X0043100Y0186800D01*
X0043100Y0180300D01*
X0043100Y0176800D01*
X0037800Y0176800D01*
X0037800Y0180300D01*
X0043100Y0180300D01*
X0043100Y0186800D02*
X0066800Y0186800D01*
X0061800Y0201800D01*
X0066800Y0216800D01*
X0043100Y0216800D01*
X0043100Y0223300D02*
X0037800Y0223300D01*
X0037800Y0226700D01*
X0031800Y0226700D02*
X0031800Y0223300D01*
X0026800Y0223300D01*
X0026800Y0226700D01*
X0020800Y0226700D02*
X0020800Y0223300D01*
X0015600Y0223300D01*
X0015600Y0216800D02*
X0012900Y0216800D01*
X0012900Y0186800D01*
X0015600Y0186800D01*
X0016800Y0191800D02*
X0017800Y0191800D01*
X0016800Y0191800D02*
X0020100Y0190100D01*
X0020100Y0193500D01*
X0016800Y0191800D01*
X0022100Y0186203D02*
X0022100Y0182600D01*
X0022100Y0184402D02*
X0027505Y0184402D01*
X0025703Y0182600D01*
X0026800Y0180300D02*
X0026800Y0176800D01*
X0026800Y0180300D02*
X0031800Y0180300D01*
X0031800Y0176800D01*
X0020800Y0176800D02*
X0020800Y0180300D01*
X0015600Y0180300D01*
X0132232Y0190301D02*
X0133300Y0189233D01*
X0132232Y0190301D02*
X0132232Y0192436D01*
X0133300Y0193503D01*
X0134367Y0193503D01*
X0135435Y0192436D01*
X0135435Y0191368D01*
X0135435Y0192436D02*
X0136502Y0193503D01*
X0137570Y0193503D01*
X0138637Y0192436D01*
X0138637Y0190301D01*
X0137570Y0189233D01*
X0137570Y0195679D02*
X0138637Y0196746D01*
X0138637Y0198881D01*
X0137570Y0199949D01*
X0136502Y0199949D01*
X0132232Y0195679D01*
X0132232Y0199949D01*
X0133300Y0202124D02*
X0132232Y0203192D01*
X0132232Y0205327D01*
X0133300Y0206394D01*
X0138637Y0206394D01*
X0135435Y0208570D02*
X0135435Y0212840D01*
X0138637Y0211772D02*
X0135435Y0208570D01*
X0138637Y0211772D02*
X0132232Y0211772D01*
X0133300Y0202124D02*
X0138637Y0202124D01*
X0164300Y0141800D02*
X0164303Y0142045D01*
X0164312Y0142291D01*
X0164327Y0142536D01*
X0164348Y0142780D01*
X0164375Y0143024D01*
X0164408Y0143267D01*
X0164447Y0143510D01*
X0164492Y0143751D01*
X0164543Y0143991D01*
X0164600Y0144230D01*
X0164662Y0144467D01*
X0164731Y0144703D01*
X0164805Y0144937D01*
X0164885Y0145169D01*
X0164970Y0145399D01*
X0165061Y0145627D01*
X0165158Y0145852D01*
X0165260Y0146076D01*
X0165368Y0146296D01*
X0165481Y0146514D01*
X0165599Y0146729D01*
X0165723Y0146941D01*
X0165851Y0147150D01*
X0165985Y0147356D01*
X0166124Y0147558D01*
X0166268Y0147757D01*
X0166417Y0147952D01*
X0166570Y0148144D01*
X0166728Y0148332D01*
X0166890Y0148516D01*
X0167058Y0148695D01*
X0167229Y0148871D01*
X0167405Y0149042D01*
X0167584Y0149210D01*
X0167768Y0149372D01*
X0167956Y0149530D01*
X0168148Y0149683D01*
X0168343Y0149832D01*
X0168542Y0149976D01*
X0168744Y0150115D01*
X0168950Y0150249D01*
X0169159Y0150377D01*
X0169371Y0150501D01*
X0169586Y0150619D01*
X0169804Y0150732D01*
X0170024Y0150840D01*
X0170248Y0150942D01*
X0170473Y0151039D01*
X0170701Y0151130D01*
X0170931Y0151215D01*
X0171163Y0151295D01*
X0171397Y0151369D01*
X0171633Y0151438D01*
X0171870Y0151500D01*
X0172109Y0151557D01*
X0172349Y0151608D01*
X0172590Y0151653D01*
X0172833Y0151692D01*
X0173076Y0151725D01*
X0173320Y0151752D01*
X0173564Y0151773D01*
X0173809Y0151788D01*
X0174055Y0151797D01*
X0174300Y0151800D01*
X0174545Y0151797D01*
X0174791Y0151788D01*
X0175036Y0151773D01*
X0175280Y0151752D01*
X0175524Y0151725D01*
X0175767Y0151692D01*
X0176010Y0151653D01*
X0176251Y0151608D01*
X0176491Y0151557D01*
X0176730Y0151500D01*
X0176967Y0151438D01*
X0177203Y0151369D01*
X0177437Y0151295D01*
X0177669Y0151215D01*
X0177899Y0151130D01*
X0178127Y0151039D01*
X0178352Y0150942D01*
X0178576Y0150840D01*
X0178796Y0150732D01*
X0179014Y0150619D01*
X0179229Y0150501D01*
X0179441Y0150377D01*
X0179650Y0150249D01*
X0179856Y0150115D01*
X0180058Y0149976D01*
X0180257Y0149832D01*
X0180452Y0149683D01*
X0180644Y0149530D01*
X0180832Y0149372D01*
X0181016Y0149210D01*
X0181195Y0149042D01*
X0181371Y0148871D01*
X0181542Y0148695D01*
X0181710Y0148516D01*
X0181872Y0148332D01*
X0182030Y0148144D01*
X0182183Y0147952D01*
X0182332Y0147757D01*
X0182476Y0147558D01*
X0182615Y0147356D01*
X0182749Y0147150D01*
X0182877Y0146941D01*
X0183001Y0146729D01*
X0183119Y0146514D01*
X0183232Y0146296D01*
X0183340Y0146076D01*
X0183442Y0145852D01*
X0183539Y0145627D01*
X0183630Y0145399D01*
X0183715Y0145169D01*
X0183795Y0144937D01*
X0183869Y0144703D01*
X0183938Y0144467D01*
X0184000Y0144230D01*
X0184057Y0143991D01*
X0184108Y0143751D01*
X0184153Y0143510D01*
X0184192Y0143267D01*
X0184225Y0143024D01*
X0184252Y0142780D01*
X0184273Y0142536D01*
X0184288Y0142291D01*
X0184297Y0142045D01*
X0184300Y0141800D01*
X0184297Y0141555D01*
X0184288Y0141309D01*
X0184273Y0141064D01*
X0184252Y0140820D01*
X0184225Y0140576D01*
X0184192Y0140333D01*
X0184153Y0140090D01*
X0184108Y0139849D01*
X0184057Y0139609D01*
X0184000Y0139370D01*
X0183938Y0139133D01*
X0183869Y0138897D01*
X0183795Y0138663D01*
X0183715Y0138431D01*
X0183630Y0138201D01*
X0183539Y0137973D01*
X0183442Y0137748D01*
X0183340Y0137524D01*
X0183232Y0137304D01*
X0183119Y0137086D01*
X0183001Y0136871D01*
X0182877Y0136659D01*
X0182749Y0136450D01*
X0182615Y0136244D01*
X0182476Y0136042D01*
X0182332Y0135843D01*
X0182183Y0135648D01*
X0182030Y0135456D01*
X0181872Y0135268D01*
X0181710Y0135084D01*
X0181542Y0134905D01*
X0181371Y0134729D01*
X0181195Y0134558D01*
X0181016Y0134390D01*
X0180832Y0134228D01*
X0180644Y0134070D01*
X0180452Y0133917D01*
X0180257Y0133768D01*
X0180058Y0133624D01*
X0179856Y0133485D01*
X0179650Y0133351D01*
X0179441Y0133223D01*
X0179229Y0133099D01*
X0179014Y0132981D01*
X0178796Y0132868D01*
X0178576Y0132760D01*
X0178352Y0132658D01*
X0178127Y0132561D01*
X0177899Y0132470D01*
X0177669Y0132385D01*
X0177437Y0132305D01*
X0177203Y0132231D01*
X0176967Y0132162D01*
X0176730Y0132100D01*
X0176491Y0132043D01*
X0176251Y0131992D01*
X0176010Y0131947D01*
X0175767Y0131908D01*
X0175524Y0131875D01*
X0175280Y0131848D01*
X0175036Y0131827D01*
X0174791Y0131812D01*
X0174545Y0131803D01*
X0174300Y0131800D01*
X0174055Y0131803D01*
X0173809Y0131812D01*
X0173564Y0131827D01*
X0173320Y0131848D01*
X0173076Y0131875D01*
X0172833Y0131908D01*
X0172590Y0131947D01*
X0172349Y0131992D01*
X0172109Y0132043D01*
X0171870Y0132100D01*
X0171633Y0132162D01*
X0171397Y0132231D01*
X0171163Y0132305D01*
X0170931Y0132385D01*
X0170701Y0132470D01*
X0170473Y0132561D01*
X0170248Y0132658D01*
X0170024Y0132760D01*
X0169804Y0132868D01*
X0169586Y0132981D01*
X0169371Y0133099D01*
X0169159Y0133223D01*
X0168950Y0133351D01*
X0168744Y0133485D01*
X0168542Y0133624D01*
X0168343Y0133768D01*
X0168148Y0133917D01*
X0167956Y0134070D01*
X0167768Y0134228D01*
X0167584Y0134390D01*
X0167405Y0134558D01*
X0167229Y0134729D01*
X0167058Y0134905D01*
X0166890Y0135084D01*
X0166728Y0135268D01*
X0166570Y0135456D01*
X0166417Y0135648D01*
X0166268Y0135843D01*
X0166124Y0136042D01*
X0165985Y0136244D01*
X0165851Y0136450D01*
X0165723Y0136659D01*
X0165599Y0136871D01*
X0165481Y0137086D01*
X0165368Y0137304D01*
X0165260Y0137524D01*
X0165158Y0137748D01*
X0165061Y0137973D01*
X0164970Y0138201D01*
X0164885Y0138431D01*
X0164805Y0138663D01*
X0164731Y0138897D01*
X0164662Y0139133D01*
X0164600Y0139370D01*
X0164543Y0139609D01*
X0164492Y0139849D01*
X0164447Y0140090D01*
X0164408Y0140333D01*
X0164375Y0140576D01*
X0164348Y0140820D01*
X0164327Y0141064D01*
X0164312Y0141309D01*
X0164303Y0141555D01*
X0164300Y0141800D01*
X0268702Y0186202D02*
X0271898Y0186202D01*
X0271898Y0188398D01*
X0271898Y0195202D02*
X0271898Y0197398D01*
X0268702Y0197398D01*
X0293700Y0184400D02*
X0293700Y0181200D01*
X0293700Y0184400D02*
X0295900Y0184400D01*
X0302700Y0184400D02*
X0304900Y0184400D01*
X0304900Y0181200D01*
X0265800Y0264300D02*
X0257800Y0264300D01*
X0256800Y0265300D01*
X0255800Y0264300D01*
X0247800Y0264300D01*
X0246800Y0265300D01*
X0246800Y0273300D01*
X0247800Y0274300D01*
X0255800Y0274300D01*
X0256800Y0273300D01*
X0257800Y0274300D01*
X0265800Y0274300D01*
X0266800Y0273300D01*
X0266800Y0265300D01*
X0265800Y0264300D01*
X0286799Y0026505D02*
X0286799Y0020100D01*
X0287867Y0020100D02*
X0285731Y0020100D01*
X0283570Y0021168D02*
X0283570Y0023303D01*
X0282502Y0024370D01*
X0280367Y0024370D01*
X0279299Y0023303D01*
X0279299Y0022235D01*
X0283570Y0022235D01*
X0283570Y0021168D02*
X0282502Y0020100D01*
X0280367Y0020100D01*
X0282515Y0016005D02*
X0281448Y0014938D01*
X0285718Y0010668D01*
X0284650Y0009600D01*
X0282515Y0009600D01*
X0281448Y0010668D01*
X0281448Y0014938D01*
X0282515Y0016005D02*
X0284650Y0016005D01*
X0285718Y0014938D01*
X0285718Y0010668D01*
X0287873Y0010668D02*
X0287873Y0009600D01*
X0288941Y0009600D01*
X0288941Y0010668D01*
X0287873Y0010668D01*
X0291116Y0010668D02*
X0291116Y0011735D01*
X0292184Y0012803D01*
X0295386Y0012803D01*
X0295386Y0010668D01*
X0294319Y0009600D01*
X0292184Y0009600D01*
X0291116Y0010668D01*
X0293251Y0014938D02*
X0295386Y0012803D01*
X0293251Y0014938D02*
X0291116Y0016005D01*
X0294312Y0017965D02*
X0294312Y0024370D01*
X0291109Y0024370D01*
X0290042Y0023303D01*
X0290042Y0021168D01*
X0291109Y0020100D01*
X0294312Y0020100D01*
X0296487Y0020100D02*
X0296487Y0023303D01*
X0297555Y0024370D01*
X0298622Y0023303D01*
X0298622Y0020100D01*
X0300758Y0020100D02*
X0300758Y0024370D01*
X0299690Y0024370D01*
X0298622Y0023303D01*
X0302919Y0020100D02*
X0305055Y0020100D01*
X0303987Y0020100D02*
X0303987Y0024370D01*
X0305055Y0024370D01*
X0303987Y0026505D02*
X0303987Y0027573D01*
X0307230Y0025438D02*
X0308297Y0026505D01*
X0310432Y0026505D01*
X0311500Y0025438D01*
X0311500Y0024370D01*
X0310432Y0023303D01*
X0308297Y0023303D01*
X0307230Y0022235D01*
X0307230Y0021168D01*
X0308297Y0020100D01*
X0310432Y0020100D01*
X0311500Y0021168D01*
X0311500Y0016005D02*
X0311500Y0011735D01*
X0309365Y0009600D01*
X0307230Y0011735D01*
X0307230Y0016005D01*
X0305055Y0013870D02*
X0302919Y0016005D01*
X0302919Y0009600D01*
X0300784Y0009600D02*
X0305055Y0009600D01*
X0298609Y0009600D02*
X0297541Y0009600D01*
X0297541Y0010668D01*
X0298609Y0010668D01*
X0298609Y0009600D01*
X0287867Y0026505D02*
X0286799Y0026505D01*
X0270679Y0023303D02*
X0269611Y0024370D01*
X0266408Y0024370D01*
X0264233Y0024370D02*
X0261030Y0024370D01*
X0259963Y0023303D01*
X0259963Y0021168D01*
X0261030Y0020100D01*
X0264233Y0020100D01*
X0264233Y0017965D02*
X0264233Y0024370D01*
X0266408Y0021168D02*
X0267476Y0022235D01*
X0269611Y0022235D01*
X0270679Y0023303D01*
X0270679Y0020100D02*
X0267476Y0020100D01*
X0266408Y0021168D01*
X0257788Y0021168D02*
X0257788Y0023303D01*
X0256720Y0024370D01*
X0254585Y0024370D01*
X0253517Y0023303D01*
X0253517Y0022235D01*
X0257788Y0022235D01*
X0257788Y0021168D02*
X0256720Y0020100D01*
X0254585Y0020100D01*
X0251342Y0021168D02*
X0250274Y0020100D01*
X0247072Y0020100D01*
X0243829Y0021168D02*
X0242761Y0020100D01*
X0243829Y0021168D02*
X0243829Y0025438D01*
X0244897Y0024370D02*
X0242761Y0024370D01*
X0240600Y0024370D02*
X0240600Y0020100D01*
X0240600Y0022235D02*
X0238464Y0024370D01*
X0237397Y0024370D01*
X0235228Y0023303D02*
X0234161Y0024370D01*
X0232026Y0024370D01*
X0230958Y0023303D01*
X0230958Y0021168D01*
X0232026Y0020100D01*
X0234161Y0020100D01*
X0235228Y0021168D01*
X0235228Y0023303D01*
X0247072Y0024370D02*
X0250274Y0024370D01*
X0251342Y0023303D01*
X0251342Y0021168D01*
D11*
X0095400Y0046700D03*
X0090200Y0046700D03*
X0083200Y0046700D03*
X0076200Y0049500D03*
X0076200Y0052100D03*
X0074600Y0046700D03*
X0068000Y0054900D03*
X0049600Y0053900D03*
X0046400Y0056700D03*
X0039000Y0046700D03*
X0028400Y0046700D03*
X0053800Y0092300D03*
X0043600Y0096100D03*
X0068600Y0100500D03*
D12*
X0071300Y0100500D03*
X0079900Y0095900D03*
X0055300Y0100500D03*
X0052500Y0100500D03*
X0053900Y0096900D03*
X0053900Y0096700D03*
X0043700Y0099300D03*
X0074500Y0057700D03*
X0069300Y0054900D03*
X0062700Y0054900D03*
X0054100Y0054900D03*
X0044300Y0054900D03*
X0038900Y0054900D03*
X0037300Y0054900D03*
X0037300Y0046700D03*
X0032900Y0046700D03*
X0046300Y0046700D03*
X0054100Y0046700D03*
X0055700Y0046700D03*
X0062700Y0046700D03*
X0069300Y0046700D03*
X0090100Y0056900D03*
X0095500Y0056900D03*
D13*
X0086000Y0046700D03*
X0063400Y0047500D03*
X0058600Y0046700D03*
X0056400Y0047500D03*
X0047200Y0054900D03*
X0041800Y0046700D03*
X0049800Y0095900D03*
X0044800Y0099700D03*
X0057800Y0099700D03*
X0057800Y0099500D03*
X0058000Y0097100D03*
X0057800Y0096100D03*
X0061800Y0094900D03*
X0066000Y0095900D03*
X0066400Y0094900D03*
X0065600Y0098500D03*
X0066000Y0099700D03*
X0073800Y0099500D03*
X0074000Y0098700D03*
X0074200Y0097100D03*
X0074000Y0096900D03*
X0073800Y0096100D03*
X0073400Y0094900D03*
X0079000Y0099700D03*
D14*
X0078700Y0099900D03*
X0073900Y0099300D03*
X0073900Y0099100D03*
X0073900Y0098900D03*
X0073900Y0096700D03*
X0073900Y0096500D03*
X0073900Y0096300D03*
X0078900Y0095700D03*
X0065900Y0096100D03*
X0065700Y0097100D03*
X0065900Y0098900D03*
X0065900Y0099500D03*
X0061900Y0094700D03*
X0061900Y0094500D03*
X0057900Y0096900D03*
X0057900Y0098700D03*
X0057900Y0098900D03*
X0057700Y0099300D03*
X0049900Y0099300D03*
X0049900Y0099500D03*
X0049900Y0099100D03*
X0049700Y0098700D03*
X0049700Y0097100D03*
X0049900Y0096300D03*
X0049900Y0096100D03*
X0044700Y0095700D03*
X0047100Y0054700D03*
X0047100Y0054500D03*
X0047100Y0054300D03*
X0051300Y0054900D03*
X0065500Y0046700D03*
X0078700Y0054900D03*
D15*
X0078800Y0046700D03*
X0069400Y0068500D03*
X0061800Y0068500D03*
X0054200Y0068500D03*
X0030600Y0054700D03*
X0053800Y0092500D03*
X0050000Y0096500D03*
X0049800Y0096700D03*
X0049800Y0096900D03*
X0049800Y0098900D03*
X0045000Y0099900D03*
X0053800Y0103100D03*
X0057800Y0099100D03*
X0057800Y0096700D03*
X0057800Y0096500D03*
X0057800Y0096300D03*
X0065800Y0096900D03*
X0066000Y0096500D03*
X0066000Y0096300D03*
X0065800Y0098700D03*
X0066000Y0099100D03*
X0066000Y0099300D03*
X0069800Y0103100D03*
X0078600Y0100100D03*
D16*
X0079800Y0099500D03*
X0070000Y0098700D03*
X0070000Y0096900D03*
X0070000Y0096700D03*
X0061800Y0098100D03*
X0053800Y0098700D03*
X0044000Y0099500D03*
X0043800Y0095900D03*
X0046400Y0057700D03*
X0044200Y0054700D03*
X0044200Y0054500D03*
X0039000Y0054500D03*
X0039000Y0054700D03*
X0039000Y0054300D03*
X0039000Y0054100D03*
X0039000Y0053900D03*
X0039000Y0053700D03*
X0039000Y0053500D03*
X0039000Y0053300D03*
X0039000Y0053100D03*
X0039000Y0052900D03*
X0039000Y0052700D03*
X0039000Y0052500D03*
X0039000Y0052300D03*
X0039000Y0052100D03*
X0039000Y0051900D03*
X0039000Y0051700D03*
X0039000Y0051500D03*
X0039000Y0051300D03*
X0039000Y0051100D03*
X0039000Y0050900D03*
X0039000Y0050700D03*
X0039000Y0050500D03*
X0039000Y0050300D03*
X0039000Y0050100D03*
X0039000Y0049900D03*
X0039000Y0049700D03*
X0039000Y0049500D03*
X0039000Y0049300D03*
X0039000Y0049100D03*
X0037400Y0049100D03*
X0037400Y0049300D03*
X0037400Y0049500D03*
X0037400Y0049700D03*
X0037400Y0049900D03*
X0037400Y0050100D03*
X0037400Y0050300D03*
X0037400Y0050500D03*
X0037400Y0050700D03*
X0037400Y0050900D03*
X0037400Y0051100D03*
X0037400Y0051300D03*
X0037400Y0051500D03*
X0037400Y0051700D03*
X0037400Y0051900D03*
X0037400Y0052100D03*
X0037400Y0052300D03*
X0037400Y0052500D03*
X0037400Y0054700D03*
X0032800Y0052500D03*
X0032800Y0052300D03*
X0032800Y0052100D03*
X0032800Y0051900D03*
X0032800Y0051700D03*
X0032800Y0051500D03*
X0032800Y0051300D03*
X0032800Y0051100D03*
X0032800Y0050900D03*
X0032800Y0050700D03*
X0032800Y0050500D03*
X0032800Y0050300D03*
X0032800Y0050100D03*
X0032800Y0049900D03*
X0032800Y0049700D03*
X0032800Y0049500D03*
X0032800Y0049300D03*
X0032800Y0049100D03*
X0032800Y0048900D03*
X0032800Y0048700D03*
X0032800Y0048500D03*
X0032800Y0048300D03*
X0032800Y0048100D03*
X0032800Y0047900D03*
X0032800Y0047700D03*
X0032800Y0047500D03*
X0032800Y0047300D03*
X0032800Y0047100D03*
X0032800Y0046900D03*
X0028400Y0046900D03*
X0028400Y0047100D03*
X0028400Y0047300D03*
X0028400Y0047500D03*
X0028400Y0047700D03*
X0028400Y0047900D03*
X0028400Y0048100D03*
X0028400Y0048300D03*
X0028400Y0048500D03*
X0028400Y0048700D03*
X0028400Y0048900D03*
X0028400Y0049100D03*
X0028400Y0049300D03*
X0028400Y0049500D03*
X0028400Y0049700D03*
X0028400Y0049900D03*
X0028400Y0050100D03*
X0028400Y0050300D03*
X0028400Y0050500D03*
X0028400Y0050700D03*
X0028400Y0050900D03*
X0028400Y0051100D03*
X0028400Y0051300D03*
X0028400Y0051500D03*
X0028400Y0051700D03*
X0028400Y0051900D03*
X0028400Y0052100D03*
X0028400Y0052300D03*
X0028400Y0052500D03*
X0028400Y0052700D03*
X0028400Y0052900D03*
X0028600Y0053300D03*
X0030600Y0055100D03*
X0037400Y0048900D03*
X0037400Y0048700D03*
X0037400Y0048500D03*
X0037400Y0048300D03*
X0037400Y0048100D03*
X0037400Y0047900D03*
X0037400Y0047700D03*
X0037400Y0047500D03*
X0037400Y0047300D03*
X0037400Y0047100D03*
X0037400Y0046900D03*
X0039000Y0046900D03*
X0039000Y0047100D03*
X0039000Y0047300D03*
X0044000Y0048100D03*
X0044200Y0048500D03*
X0044200Y0048700D03*
X0044200Y0048900D03*
X0044200Y0049100D03*
X0046200Y0046900D03*
X0054000Y0046900D03*
X0054000Y0047100D03*
X0054000Y0047300D03*
X0054000Y0047500D03*
X0054000Y0047700D03*
X0054000Y0047900D03*
X0054000Y0048100D03*
X0054000Y0048300D03*
X0054000Y0048500D03*
X0054000Y0048700D03*
X0054000Y0048900D03*
X0054000Y0049100D03*
X0054000Y0049300D03*
X0054000Y0049500D03*
X0054000Y0049700D03*
X0054000Y0049900D03*
X0054000Y0050100D03*
X0054000Y0050300D03*
X0054000Y0050500D03*
X0054000Y0050700D03*
X0054000Y0050900D03*
X0054000Y0051100D03*
X0054000Y0051300D03*
X0054000Y0051500D03*
X0054000Y0051700D03*
X0054000Y0051900D03*
X0054000Y0052100D03*
X0054000Y0052300D03*
X0054000Y0052500D03*
X0054000Y0052700D03*
X0054000Y0054500D03*
X0054000Y0054700D03*
X0055800Y0053100D03*
X0055800Y0052900D03*
X0055800Y0052700D03*
X0060800Y0050100D03*
X0061000Y0049700D03*
X0061000Y0049500D03*
X0061000Y0049300D03*
X0061000Y0049100D03*
X0061000Y0048900D03*
X0061000Y0048700D03*
X0060800Y0048300D03*
X0062600Y0046900D03*
X0055800Y0046900D03*
X0062600Y0054700D03*
X0068000Y0054700D03*
X0068000Y0054500D03*
X0068000Y0054300D03*
X0068000Y0054100D03*
X0068000Y0053900D03*
X0068000Y0053700D03*
X0068000Y0053500D03*
X0068000Y0053300D03*
X0068000Y0053100D03*
X0068000Y0052900D03*
X0068000Y0052700D03*
X0068000Y0052500D03*
X0068000Y0052300D03*
X0068000Y0052100D03*
X0068000Y0051900D03*
X0068000Y0051700D03*
X0068000Y0051500D03*
X0068000Y0051300D03*
X0068000Y0051100D03*
X0068000Y0050900D03*
X0068000Y0050700D03*
X0068000Y0050500D03*
X0068000Y0050300D03*
X0068000Y0050100D03*
X0068000Y0049900D03*
X0068000Y0049700D03*
X0068000Y0049500D03*
X0068000Y0049300D03*
X0068000Y0049100D03*
X0068000Y0048900D03*
X0067800Y0048300D03*
X0074600Y0048300D03*
X0074600Y0048500D03*
X0074600Y0048100D03*
X0074600Y0047900D03*
X0074600Y0047700D03*
X0074600Y0047500D03*
X0074600Y0047300D03*
X0074600Y0047100D03*
X0074600Y0046900D03*
X0076400Y0048300D03*
X0076200Y0048900D03*
X0076200Y0049100D03*
X0076200Y0049300D03*
X0074600Y0050100D03*
X0074600Y0050300D03*
X0074600Y0050500D03*
X0074600Y0050700D03*
X0074600Y0050900D03*
X0074600Y0051100D03*
X0074600Y0051300D03*
X0074600Y0051500D03*
X0074600Y0051700D03*
X0074600Y0051900D03*
X0074600Y0052100D03*
X0074600Y0052300D03*
X0074600Y0052500D03*
X0074600Y0052700D03*
X0074600Y0052900D03*
X0074600Y0053100D03*
X0074600Y0053300D03*
X0074600Y0053500D03*
X0074600Y0053700D03*
X0074600Y0053900D03*
X0074600Y0054100D03*
X0074600Y0054300D03*
X0074600Y0054500D03*
X0074600Y0054700D03*
X0074600Y0054900D03*
X0074600Y0055100D03*
X0074600Y0055300D03*
X0074600Y0055500D03*
X0074600Y0055700D03*
X0074600Y0055900D03*
X0074600Y0056100D03*
X0074600Y0056300D03*
X0074600Y0056500D03*
X0074600Y0056700D03*
X0074600Y0056900D03*
X0074600Y0057100D03*
X0074600Y0057300D03*
X0074600Y0057500D03*
X0076400Y0053300D03*
X0076200Y0052700D03*
X0076200Y0052500D03*
X0076200Y0052300D03*
X0081400Y0052700D03*
X0081400Y0052900D03*
X0081600Y0052100D03*
X0081600Y0051900D03*
X0081600Y0051700D03*
X0081600Y0051500D03*
X0081600Y0051300D03*
X0081600Y0051100D03*
X0081600Y0050900D03*
X0081600Y0050700D03*
X0081600Y0050500D03*
X0081600Y0050300D03*
X0081600Y0050100D03*
X0081600Y0049900D03*
X0081600Y0049700D03*
X0081600Y0049500D03*
X0081600Y0049300D03*
X0081600Y0049100D03*
X0081400Y0048500D03*
X0083200Y0049100D03*
X0083200Y0049300D03*
X0083200Y0049500D03*
X0083200Y0049700D03*
X0083200Y0049900D03*
X0083200Y0050100D03*
X0083200Y0050300D03*
X0083200Y0050500D03*
X0083200Y0050700D03*
X0083200Y0050900D03*
X0083200Y0051900D03*
X0083200Y0052100D03*
X0083200Y0052300D03*
X0083200Y0052500D03*
X0083200Y0052700D03*
X0083200Y0052900D03*
X0083400Y0053300D03*
X0090200Y0053300D03*
X0090200Y0053500D03*
X0090200Y0053700D03*
X0090200Y0053900D03*
X0090200Y0054100D03*
X0090200Y0054300D03*
X0090200Y0054500D03*
X0090200Y0054700D03*
X0090200Y0054900D03*
X0090200Y0055100D03*
X0090200Y0055300D03*
X0090200Y0055500D03*
X0090200Y0055700D03*
X0090200Y0055900D03*
X0090200Y0056100D03*
X0090200Y0056300D03*
X0090200Y0056500D03*
X0090200Y0056700D03*
X0090200Y0053100D03*
X0090200Y0052900D03*
X0090200Y0052700D03*
X0090200Y0051700D03*
X0090200Y0051500D03*
X0090200Y0051300D03*
X0090200Y0051100D03*
X0090200Y0050900D03*
X0090200Y0050700D03*
X0090200Y0050500D03*
X0090200Y0050300D03*
X0090200Y0050100D03*
X0090200Y0049900D03*
X0090200Y0049700D03*
X0090200Y0049500D03*
X0090200Y0049300D03*
X0090200Y0049100D03*
X0090200Y0048900D03*
X0090200Y0048700D03*
X0090200Y0048500D03*
X0090200Y0048300D03*
X0090200Y0048100D03*
X0090200Y0047900D03*
X0090200Y0047700D03*
X0090200Y0047500D03*
X0090200Y0047300D03*
X0090200Y0047100D03*
X0090200Y0046900D03*
X0088200Y0048100D03*
X0088400Y0048500D03*
X0088400Y0048700D03*
X0088400Y0048900D03*
X0088400Y0049100D03*
X0088400Y0049300D03*
X0088400Y0049500D03*
X0088400Y0049700D03*
X0088400Y0049900D03*
X0083200Y0047300D03*
X0083200Y0047100D03*
X0083200Y0046900D03*
X0095400Y0046900D03*
X0095400Y0047100D03*
X0095400Y0047300D03*
X0095400Y0047500D03*
X0095400Y0047700D03*
X0095400Y0047900D03*
X0095400Y0048100D03*
X0095400Y0048300D03*
X0095400Y0048500D03*
X0095400Y0048700D03*
X0095400Y0048900D03*
X0095400Y0049100D03*
X0095400Y0049300D03*
X0095400Y0049500D03*
X0095400Y0049700D03*
X0095400Y0049900D03*
X0095400Y0050100D03*
X0095400Y0050300D03*
X0095400Y0050500D03*
X0095400Y0050700D03*
X0095400Y0050900D03*
X0095400Y0051100D03*
X0095400Y0051300D03*
X0095400Y0051500D03*
X0095400Y0051700D03*
X0095400Y0052700D03*
X0095400Y0052900D03*
X0095400Y0053100D03*
X0095400Y0053300D03*
X0095400Y0053500D03*
X0095400Y0053700D03*
X0095400Y0053900D03*
X0095400Y0054100D03*
X0095400Y0054300D03*
X0095400Y0054500D03*
X0095400Y0054700D03*
X0095400Y0054900D03*
X0095400Y0055100D03*
X0095400Y0055300D03*
X0095400Y0055500D03*
X0095400Y0055700D03*
X0095400Y0055900D03*
X0095400Y0056100D03*
X0095400Y0056300D03*
X0095400Y0056500D03*
X0095400Y0056700D03*
D17*
X0086400Y0054900D03*
X0086000Y0046900D03*
X0041800Y0046900D03*
X0045000Y0095500D03*
X0045200Y0100300D03*
X0045200Y0100500D03*
X0045400Y0100900D03*
X0078200Y0101100D03*
X0078400Y0100700D03*
X0078400Y0100500D03*
X0078600Y0095300D03*
D18*
X0078500Y0095100D03*
X0078500Y0094900D03*
X0078300Y0100900D03*
X0078100Y0101300D03*
X0078100Y0101500D03*
X0072300Y0101300D03*
X0072100Y0101500D03*
X0061900Y0093900D03*
X0056300Y0101300D03*
X0056100Y0101500D03*
X0045500Y0101300D03*
X0045500Y0101100D03*
X0045300Y0100700D03*
X0045100Y0095300D03*
X0045100Y0095100D03*
X0061700Y0068700D03*
X0051300Y0054700D03*
X0058500Y0046900D03*
X0065500Y0046900D03*
X0078700Y0054700D03*
X0030700Y0054500D03*
D19*
X0028700Y0053500D03*
X0028500Y0053100D03*
X0032900Y0053100D03*
X0032900Y0052900D03*
X0032900Y0052700D03*
X0035100Y0055100D03*
X0037300Y0053100D03*
X0037300Y0052900D03*
X0037300Y0052700D03*
X0039100Y0048900D03*
X0039100Y0048700D03*
X0039100Y0048500D03*
X0043700Y0047700D03*
X0043900Y0047900D03*
X0044100Y0048300D03*
X0044300Y0049300D03*
X0044300Y0049500D03*
X0044300Y0049700D03*
X0044300Y0049900D03*
X0044300Y0050100D03*
X0044300Y0050300D03*
X0044300Y0050500D03*
X0044300Y0050700D03*
X0044300Y0050900D03*
X0044300Y0051100D03*
X0044300Y0051300D03*
X0044300Y0051500D03*
X0044300Y0051700D03*
X0044300Y0051900D03*
X0044300Y0052100D03*
X0044300Y0052300D03*
X0044300Y0052500D03*
X0044300Y0052700D03*
X0044300Y0052900D03*
X0044300Y0053100D03*
X0044300Y0053300D03*
X0044300Y0053500D03*
X0044300Y0053700D03*
X0044300Y0053900D03*
X0044300Y0054100D03*
X0044300Y0054300D03*
X0046300Y0054100D03*
X0046300Y0053900D03*
X0046300Y0053700D03*
X0046300Y0053500D03*
X0046300Y0053300D03*
X0046300Y0053100D03*
X0046300Y0052900D03*
X0046300Y0052700D03*
X0046300Y0052500D03*
X0046300Y0052300D03*
X0046300Y0052100D03*
X0046300Y0051900D03*
X0046300Y0051700D03*
X0046300Y0051500D03*
X0046300Y0051300D03*
X0046300Y0051100D03*
X0046300Y0050900D03*
X0046300Y0050700D03*
X0046300Y0050500D03*
X0046300Y0050300D03*
X0046300Y0050100D03*
X0046300Y0049900D03*
X0046300Y0049700D03*
X0046300Y0049500D03*
X0046300Y0049300D03*
X0046300Y0049100D03*
X0046300Y0048900D03*
X0046300Y0048700D03*
X0046300Y0048500D03*
X0046300Y0048300D03*
X0046300Y0048100D03*
X0046300Y0047900D03*
X0046300Y0047700D03*
X0046300Y0047500D03*
X0046300Y0047300D03*
X0046300Y0047100D03*
X0049700Y0054100D03*
X0046500Y0056900D03*
X0046500Y0057500D03*
X0053900Y0053100D03*
X0053900Y0052900D03*
X0055700Y0052500D03*
X0055700Y0052300D03*
X0055700Y0052100D03*
X0055700Y0051900D03*
X0055700Y0050900D03*
X0055700Y0050700D03*
X0055700Y0050500D03*
X0055700Y0050300D03*
X0055700Y0050100D03*
X0055700Y0049900D03*
X0055700Y0049700D03*
X0055700Y0049500D03*
X0055700Y0049300D03*
X0055700Y0049100D03*
X0055700Y0048900D03*
X0055700Y0047300D03*
X0055700Y0047100D03*
X0060700Y0048100D03*
X0060900Y0048500D03*
X0060900Y0049900D03*
X0060700Y0050300D03*
X0060500Y0050500D03*
X0062700Y0050500D03*
X0062700Y0050700D03*
X0062700Y0050900D03*
X0062700Y0051100D03*
X0062700Y0051300D03*
X0062700Y0051500D03*
X0062700Y0051700D03*
X0062700Y0051900D03*
X0062700Y0052100D03*
X0062700Y0052300D03*
X0062700Y0052500D03*
X0062700Y0052700D03*
X0062700Y0052900D03*
X0062700Y0053100D03*
X0062700Y0053300D03*
X0062700Y0053500D03*
X0062700Y0053700D03*
X0062700Y0053900D03*
X0062700Y0054100D03*
X0062700Y0054300D03*
X0062700Y0054500D03*
X0062700Y0050300D03*
X0062700Y0050100D03*
X0062700Y0049900D03*
X0062700Y0049700D03*
X0062700Y0049500D03*
X0062700Y0049300D03*
X0062700Y0049100D03*
X0062700Y0048900D03*
X0062700Y0048700D03*
X0062700Y0047100D03*
X0067500Y0047900D03*
X0067700Y0048100D03*
X0067900Y0048500D03*
X0067900Y0048700D03*
X0069500Y0047300D03*
X0069700Y0047500D03*
X0069900Y0047900D03*
X0070100Y0048100D03*
X0070300Y0048500D03*
X0070500Y0048700D03*
X0070700Y0049100D03*
X0070900Y0049300D03*
X0071100Y0049500D03*
X0071100Y0049700D03*
X0071300Y0049900D03*
X0071500Y0050100D03*
X0071500Y0050300D03*
X0071700Y0050500D03*
X0071300Y0052500D03*
X0071100Y0052700D03*
X0070900Y0052900D03*
X0069500Y0054500D03*
X0069300Y0054700D03*
X0076300Y0053100D03*
X0076300Y0052900D03*
X0076500Y0053500D03*
X0076700Y0053700D03*
X0080900Y0053700D03*
X0081100Y0053500D03*
X0081300Y0053300D03*
X0081300Y0053100D03*
X0081500Y0052500D03*
X0081500Y0052300D03*
X0083300Y0053100D03*
X0083500Y0053500D03*
X0088100Y0050300D03*
X0088300Y0050100D03*
X0088300Y0048300D03*
X0088100Y0047900D03*
X0087900Y0047700D03*
X0083300Y0048700D03*
X0083300Y0048900D03*
X0081500Y0048900D03*
X0081500Y0048700D03*
X0081300Y0048300D03*
X0081300Y0048100D03*
X0081100Y0047900D03*
X0076700Y0047900D03*
X0076500Y0048100D03*
X0076300Y0048500D03*
X0076300Y0048700D03*
X0074500Y0048700D03*
X0074500Y0048900D03*
X0069300Y0047100D03*
X0069300Y0046900D03*
X0056100Y0053500D03*
X0055900Y0053300D03*
X0053900Y0096300D03*
X0053900Y0096500D03*
X0052500Y0100700D03*
X0061900Y0097900D03*
X0061900Y0097700D03*
X0069900Y0096500D03*
X0069900Y0096300D03*
D20*
X0070000Y0095100D03*
X0072400Y0101100D03*
X0067600Y0101300D03*
X0067600Y0101500D03*
X0067400Y0101100D03*
X0077800Y0102100D03*
X0078000Y0101700D03*
X0078400Y0094700D03*
X0078400Y0094500D03*
X0061800Y0093700D03*
X0053800Y0095100D03*
X0051400Y0101100D03*
X0051400Y0101300D03*
X0051600Y0101500D03*
X0056400Y0101100D03*
X0045800Y0101900D03*
X0045600Y0101500D03*
X0045200Y0094900D03*
X0045200Y0094700D03*
X0054200Y0068700D03*
X0069400Y0068700D03*
X0078800Y0046900D03*
D21*
X0086000Y0047100D03*
X0078800Y0054500D03*
X0069400Y0068900D03*
X0061800Y0068900D03*
X0054200Y0068900D03*
X0041800Y0047100D03*
X0053800Y0092700D03*
X0045400Y0094100D03*
X0046000Y0102300D03*
X0046200Y0102700D03*
X0053800Y0102900D03*
X0069800Y0102900D03*
X0077400Y0102700D03*
X0077600Y0102500D03*
X0078200Y0093900D03*
X0078200Y0093700D03*
X0069800Y0092700D03*
D22*
X0061900Y0093500D03*
X0056500Y0100900D03*
X0051300Y0100900D03*
X0045900Y0102100D03*
X0045700Y0101700D03*
X0045300Y0094500D03*
X0045300Y0094300D03*
X0067300Y0100900D03*
X0072500Y0100900D03*
X0077700Y0102300D03*
X0077900Y0101900D03*
X0078300Y0094300D03*
X0078300Y0094100D03*
X0086100Y0054700D03*
X0065500Y0047100D03*
X0058500Y0047100D03*
X0058700Y0054700D03*
X0051300Y0054500D03*
X0030700Y0054300D03*
D23*
X0058500Y0054500D03*
X0058500Y0047300D03*
X0078900Y0047100D03*
X0084900Y0051700D03*
X0085900Y0054500D03*
X0078100Y0093500D03*
X0069900Y0094900D03*
X0061900Y0093300D03*
X0053900Y0094900D03*
X0045500Y0093900D03*
X0045500Y0093700D03*
X0046100Y0102500D03*
X0046300Y0102900D03*
X0077300Y0102900D03*
D24*
X0077200Y0103100D03*
X0078000Y0093300D03*
X0069400Y0069100D03*
X0061800Y0069100D03*
X0054200Y0069100D03*
X0058400Y0054300D03*
X0057400Y0051700D03*
X0041800Y0047300D03*
X0035600Y0054500D03*
X0078800Y0054300D03*
X0085800Y0054300D03*
X0086000Y0047300D03*
X0045600Y0093500D03*
X0046400Y0103100D03*
X0046600Y0103300D03*
D25*
X0047300Y0104100D03*
X0046100Y0092300D03*
X0061700Y0069900D03*
X0057900Y0051100D03*
X0064900Y0047300D03*
X0077500Y0092300D03*
D26*
X0077900Y0093100D03*
X0077100Y0103300D03*
X0076900Y0103500D03*
X0061900Y0093100D03*
X0045700Y0093100D03*
X0045700Y0093300D03*
X0035500Y0054300D03*
X0078900Y0047300D03*
X0085100Y0051500D03*
D27*
X0083900Y0047500D03*
X0053300Y0054100D03*
X0039700Y0047500D03*
X0035100Y0054900D03*
X0032900Y0053900D03*
X0030700Y0054900D03*
X0050300Y0094900D03*
X0050100Y0095100D03*
X0050100Y0095300D03*
X0049900Y0095500D03*
X0049900Y0095700D03*
X0049500Y0098500D03*
X0049900Y0099700D03*
X0049900Y0099900D03*
X0049900Y0100100D03*
X0050100Y0100500D03*
X0050300Y0100700D03*
X0053900Y0095300D03*
X0057300Y0094900D03*
X0057900Y0095900D03*
X0058100Y0098500D03*
X0061900Y0095100D03*
X0065900Y0095700D03*
X0066100Y0095300D03*
X0066300Y0095100D03*
X0069900Y0095300D03*
X0073900Y0095900D03*
X0074300Y0098500D03*
X0073900Y0099700D03*
X0073900Y0099900D03*
X0066300Y0100700D03*
X0065900Y0099900D03*
D28*
X0069900Y0098500D03*
X0069900Y0095900D03*
X0061900Y0096300D03*
X0061900Y0096500D03*
X0061900Y0096700D03*
X0061900Y0096900D03*
X0053900Y0097300D03*
X0053900Y0098500D03*
X0053900Y0095900D03*
X0053700Y0053500D03*
X0055900Y0048300D03*
X0062900Y0048300D03*
X0062900Y0048100D03*
X0067100Y0047500D03*
X0072300Y0051100D03*
X0074300Y0049300D03*
X0077100Y0047500D03*
X0080700Y0047500D03*
X0083500Y0048100D03*
X0087700Y0047500D03*
X0087500Y0050900D03*
X0083900Y0053900D03*
X0080500Y0054100D03*
X0043500Y0047500D03*
X0039300Y0048100D03*
X0037100Y0053700D03*
X0033700Y0054100D03*
X0032900Y0053500D03*
X0032100Y0054100D03*
D29*
X0032800Y0053300D03*
X0029200Y0054100D03*
X0029000Y0053900D03*
X0028800Y0053700D03*
X0037200Y0053500D03*
X0037200Y0053300D03*
X0039200Y0048300D03*
X0046400Y0057100D03*
X0046400Y0057300D03*
X0051200Y0055100D03*
X0053800Y0053300D03*
X0056200Y0053700D03*
X0056400Y0053900D03*
X0060400Y0050700D03*
X0060600Y0047900D03*
X0060400Y0047700D03*
X0060200Y0047500D03*
X0062800Y0048500D03*
X0055800Y0048500D03*
X0055800Y0048700D03*
X0067400Y0047700D03*
X0069800Y0047700D03*
X0070200Y0048300D03*
X0070600Y0048900D03*
X0073000Y0050500D03*
X0073200Y0050300D03*
X0073400Y0050100D03*
X0074400Y0049100D03*
X0076800Y0047700D03*
X0081000Y0047700D03*
X0083400Y0048300D03*
X0083400Y0048500D03*
X0087800Y0050700D03*
X0088000Y0050500D03*
X0083600Y0053700D03*
X0080800Y0053900D03*
X0078600Y0055100D03*
X0077000Y0054100D03*
X0076800Y0053900D03*
X0072400Y0051300D03*
X0072200Y0051500D03*
X0072000Y0051700D03*
X0071800Y0051900D03*
X0071600Y0052100D03*
X0071400Y0052300D03*
X0070800Y0053100D03*
X0070600Y0053300D03*
X0070400Y0053500D03*
X0070200Y0053700D03*
X0070000Y0053900D03*
X0069800Y0054100D03*
X0069600Y0054300D03*
X0070000Y0096100D03*
X0070000Y0097100D03*
X0068600Y0100700D03*
X0071400Y0100700D03*
X0061800Y0097500D03*
X0061800Y0097300D03*
X0061800Y0097100D03*
X0055200Y0100700D03*
X0053800Y0097100D03*
X0053800Y0096100D03*
D30*
X0053900Y0095500D03*
X0053900Y0097500D03*
X0053900Y0097700D03*
X0053900Y0097900D03*
X0053900Y0098100D03*
X0053900Y0098300D03*
X0057900Y0100100D03*
X0058500Y0098100D03*
X0058500Y0097900D03*
X0058500Y0097700D03*
X0058500Y0097500D03*
X0061900Y0095700D03*
X0065300Y0097300D03*
X0065300Y0097500D03*
X0065300Y0097700D03*
X0065300Y0097900D03*
X0065300Y0098100D03*
X0065300Y0098300D03*
X0069900Y0098300D03*
X0069900Y0098100D03*
X0069900Y0097700D03*
X0069900Y0097500D03*
X0069900Y0095500D03*
X0073900Y0095500D03*
X0074500Y0097300D03*
X0074500Y0097500D03*
X0074500Y0097700D03*
X0074500Y0097900D03*
X0074500Y0098100D03*
X0074500Y0098300D03*
X0073900Y0100100D03*
X0073900Y0100300D03*
X0073700Y0100500D03*
X0049300Y0098300D03*
X0049300Y0098100D03*
X0049300Y0097900D03*
X0049300Y0097700D03*
X0049300Y0097500D03*
X0049300Y0097300D03*
X0053500Y0053900D03*
X0056100Y0047900D03*
X0072300Y0050900D03*
X0074100Y0049700D03*
X0083700Y0047700D03*
X0039500Y0047700D03*
X0032900Y0053700D03*
D31*
X0036800Y0054100D03*
X0056200Y0047700D03*
X0063200Y0047700D03*
X0072400Y0050700D03*
X0074000Y0049900D03*
X0069400Y0068300D03*
X0061800Y0068300D03*
X0054200Y0068300D03*
X0057600Y0095100D03*
X0057800Y0095300D03*
X0057800Y0095500D03*
X0057800Y0095700D03*
X0061800Y0095500D03*
X0061800Y0095300D03*
X0066000Y0095500D03*
X0070000Y0097900D03*
X0073600Y0095100D03*
X0073800Y0095300D03*
X0074000Y0095700D03*
X0073600Y0100700D03*
X0066200Y0100500D03*
X0066000Y0100300D03*
X0066000Y0100100D03*
X0057800Y0100300D03*
X0057600Y0100500D03*
X0057400Y0100700D03*
X0057800Y0099900D03*
X0050000Y0100300D03*
D32*
X0053800Y0095700D03*
X0058400Y0097300D03*
X0058400Y0098300D03*
X0061800Y0096100D03*
X0061800Y0095900D03*
X0070000Y0095700D03*
X0070000Y0097300D03*
X0056800Y0054100D03*
X0053600Y0053700D03*
X0056000Y0048100D03*
X0060000Y0050900D03*
X0063000Y0047900D03*
X0074200Y0049500D03*
X0083600Y0047900D03*
X0084200Y0054100D03*
X0039400Y0047900D03*
X0037000Y0053900D03*
D33*
X0051800Y0054300D03*
X0057800Y0051300D03*
X0054200Y0069700D03*
X0061800Y0069700D03*
X0069400Y0069700D03*
X0085400Y0051100D03*
X0077600Y0092500D03*
X0076600Y0103900D03*
X0076400Y0104100D03*
X0061800Y0092700D03*
X0046000Y0092500D03*
D34*
X0045900Y0092700D03*
X0053900Y0092900D03*
X0046900Y0103700D03*
X0047100Y0103900D03*
X0069900Y0092900D03*
X0077700Y0092700D03*
X0069500Y0069500D03*
X0061700Y0069500D03*
X0054100Y0069500D03*
X0085300Y0051300D03*
D35*
X0069400Y0069300D03*
X0061800Y0069300D03*
X0054200Y0069300D03*
X0057600Y0051500D03*
X0061800Y0092900D03*
X0053800Y0102700D03*
X0046800Y0103500D03*
X0045800Y0092900D03*
X0069800Y0102700D03*
X0076800Y0103700D03*
X0077800Y0092900D03*
X0061800Y0115900D03*
D36*
X0061800Y0092300D03*
X0046400Y0091900D03*
X0054200Y0079100D03*
X0054200Y0078900D03*
X0054200Y0078700D03*
X0054200Y0078500D03*
X0054200Y0078300D03*
X0054200Y0078100D03*
X0054200Y0077900D03*
X0054200Y0077700D03*
X0054200Y0077500D03*
X0054200Y0077300D03*
X0054200Y0077100D03*
X0054200Y0076900D03*
X0054200Y0076700D03*
X0054200Y0076500D03*
X0054200Y0076300D03*
X0054200Y0076100D03*
X0054200Y0075900D03*
X0054200Y0075700D03*
X0054200Y0075500D03*
X0054200Y0075300D03*
X0054200Y0075100D03*
X0054200Y0074900D03*
X0054200Y0074700D03*
X0054200Y0074500D03*
X0054200Y0074300D03*
X0054200Y0074100D03*
X0054200Y0073900D03*
X0054200Y0073700D03*
X0054200Y0073500D03*
X0054200Y0073300D03*
X0054200Y0073100D03*
X0054200Y0072900D03*
X0054200Y0072700D03*
X0054200Y0072500D03*
X0054200Y0072300D03*
X0054200Y0072100D03*
X0054200Y0071900D03*
X0054200Y0071700D03*
X0054200Y0071500D03*
X0054200Y0071300D03*
X0054200Y0071100D03*
X0054200Y0070900D03*
X0054200Y0070700D03*
X0061800Y0071300D03*
X0061800Y0071500D03*
X0061800Y0071700D03*
X0061800Y0071900D03*
X0061800Y0072100D03*
X0061800Y0072300D03*
X0061800Y0072500D03*
X0061800Y0072700D03*
X0061800Y0072900D03*
X0061800Y0073100D03*
X0061800Y0073300D03*
X0061800Y0073500D03*
X0061800Y0073700D03*
X0061800Y0073900D03*
X0061800Y0074100D03*
X0061800Y0074300D03*
X0061800Y0074500D03*
X0061800Y0074700D03*
X0061800Y0074900D03*
X0061800Y0075100D03*
X0061800Y0075300D03*
X0061800Y0075500D03*
X0061800Y0075700D03*
X0061800Y0075900D03*
X0061800Y0076100D03*
X0061800Y0076300D03*
X0061800Y0076500D03*
X0061800Y0076700D03*
X0061800Y0076900D03*
X0061800Y0077100D03*
X0061800Y0077300D03*
X0061800Y0077500D03*
X0061800Y0077700D03*
X0061800Y0077900D03*
X0061800Y0078100D03*
X0061800Y0078300D03*
X0069400Y0078300D03*
X0069400Y0078100D03*
X0069400Y0077900D03*
X0069400Y0077700D03*
X0069400Y0077500D03*
X0069400Y0077300D03*
X0069400Y0077100D03*
X0069400Y0076900D03*
X0069400Y0076700D03*
X0069400Y0076500D03*
X0069400Y0076300D03*
X0069400Y0076100D03*
X0069400Y0075900D03*
X0069400Y0075700D03*
X0069400Y0075500D03*
X0069400Y0075300D03*
X0069400Y0075100D03*
X0069400Y0074900D03*
X0069400Y0074700D03*
X0069400Y0074500D03*
X0069400Y0074300D03*
X0069400Y0074100D03*
X0069400Y0073900D03*
X0069400Y0073700D03*
X0069400Y0073500D03*
X0069400Y0073300D03*
X0069400Y0073100D03*
X0069400Y0072900D03*
X0069400Y0072700D03*
X0069400Y0072500D03*
X0069400Y0072300D03*
X0069400Y0072100D03*
X0069400Y0071900D03*
X0069400Y0071700D03*
X0069400Y0071500D03*
X0069400Y0071300D03*
X0069400Y0071100D03*
X0077200Y0091700D03*
X0092800Y0052500D03*
X0092800Y0052300D03*
X0092800Y0052100D03*
X0092800Y0051900D03*
D37*
X0058900Y0054900D03*
X0035100Y0054700D03*
X0069900Y0092500D03*
X0065900Y0096700D03*
X0061900Y0094300D03*
X0061900Y0094100D03*
X0078700Y0095500D03*
X0078500Y0100300D03*
X0045100Y0100100D03*
D38*
X0043500Y0096300D03*
X0061900Y0098300D03*
X0080100Y0099300D03*
X0080100Y0096100D03*
X0069300Y0055100D03*
D39*
X0036500Y0068100D03*
D40*
X0087200Y0068100D03*
X0061800Y0114900D03*
D41*
X0036700Y0068300D03*
D42*
X0086900Y0068300D03*
D43*
X0036800Y0068500D03*
D44*
X0086900Y0068500D03*
D45*
X0036900Y0068700D03*
D46*
X0086700Y0068700D03*
D47*
X0037000Y0068900D03*
X0061800Y0114100D03*
D48*
X0086600Y0068900D03*
D49*
X0037100Y0069100D03*
D50*
X0086600Y0069100D03*
X0061800Y0113900D03*
D51*
X0037200Y0069300D03*
D52*
X0037300Y0069500D03*
X0086500Y0069300D03*
D53*
X0086400Y0069500D03*
X0061800Y0113700D03*
D54*
X0037300Y0069700D03*
D55*
X0037500Y0069900D03*
X0083500Y0074100D03*
X0086300Y0069700D03*
X0061900Y0113500D03*
D56*
X0069800Y0102500D03*
X0076200Y0104300D03*
X0077400Y0092100D03*
X0069800Y0093100D03*
X0061800Y0092500D03*
X0053800Y0102500D03*
X0047400Y0104300D03*
X0046200Y0092100D03*
X0054200Y0070100D03*
X0054200Y0069900D03*
X0061800Y0070100D03*
X0069400Y0069900D03*
D57*
X0086200Y0069900D03*
D58*
X0037500Y0070100D03*
D59*
X0054300Y0070300D03*
X0054300Y0070500D03*
X0061700Y0070500D03*
X0061700Y0070700D03*
X0061700Y0070900D03*
X0061700Y0071100D03*
X0061700Y0070300D03*
X0069500Y0070300D03*
X0069500Y0070100D03*
X0069500Y0070500D03*
X0069500Y0070700D03*
X0069500Y0070900D03*
X0077300Y0091900D03*
X0075900Y0104500D03*
X0053900Y0093100D03*
X0047700Y0104500D03*
D60*
X0061800Y0113300D03*
X0037600Y0070300D03*
X0086200Y0070100D03*
D61*
X0086100Y0070300D03*
X0037700Y0070500D03*
D62*
X0037800Y0070700D03*
X0086000Y0070500D03*
D63*
X0085900Y0070700D03*
X0084300Y0073900D03*
X0039500Y0073900D03*
X0037900Y0070900D03*
D64*
X0038100Y0071500D03*
X0039100Y0073500D03*
X0084500Y0073700D03*
X0085900Y0071100D03*
X0085900Y0070900D03*
D65*
X0039200Y0073700D03*
X0038000Y0071300D03*
X0037800Y0071100D03*
X0061800Y0113100D03*
D66*
X0084600Y0073500D03*
X0084800Y0073300D03*
X0085600Y0071500D03*
X0085800Y0071300D03*
X0039000Y0073300D03*
X0038800Y0073100D03*
X0038600Y0072700D03*
X0038400Y0072300D03*
X0038200Y0071900D03*
X0038200Y0071700D03*
D67*
X0038300Y0072100D03*
X0038500Y0072500D03*
X0038700Y0072900D03*
X0084900Y0073100D03*
X0085100Y0072700D03*
X0085300Y0072300D03*
X0085500Y0071900D03*
X0085500Y0071700D03*
X0061900Y0112900D03*
D68*
X0085000Y0072900D03*
X0085200Y0072500D03*
X0085400Y0072100D03*
D69*
X0040200Y0074100D03*
D70*
X0045800Y0074300D03*
X0054200Y0079700D03*
X0061800Y0079700D03*
X0069400Y0079700D03*
X0077800Y0074300D03*
X0069800Y0093700D03*
X0069800Y0101900D03*
X0053800Y0101900D03*
X0048600Y0105100D03*
X0053800Y0093700D03*
X0047000Y0091100D03*
X0061800Y0115700D03*
D71*
X0061900Y0091900D03*
X0076700Y0091100D03*
X0045900Y0074500D03*
D72*
X0046800Y0079700D03*
X0046800Y0091300D03*
X0053800Y0093500D03*
X0053800Y0102100D03*
X0069800Y0093500D03*
X0075400Y0104900D03*
X0076800Y0079700D03*
X0077600Y0074500D03*
D73*
X0077500Y0074700D03*
X0077300Y0075100D03*
X0069500Y0079500D03*
X0061900Y0079500D03*
X0046300Y0075100D03*
X0046100Y0074700D03*
X0076900Y0091300D03*
X0069900Y0102100D03*
X0048300Y0104900D03*
D74*
X0048000Y0104700D03*
X0046600Y0091500D03*
X0046600Y0079500D03*
X0046600Y0079300D03*
X0046400Y0075300D03*
X0046200Y0074900D03*
X0054200Y0079300D03*
X0054200Y0079500D03*
X0061800Y0079300D03*
X0061800Y0079100D03*
X0061800Y0078900D03*
X0061800Y0078700D03*
X0069400Y0079300D03*
X0077000Y0079300D03*
X0077000Y0079500D03*
X0077200Y0076500D03*
X0077200Y0076300D03*
X0077200Y0076100D03*
X0077200Y0075900D03*
X0077200Y0075700D03*
X0077200Y0075500D03*
X0077200Y0075300D03*
X0077400Y0074900D03*
X0077000Y0091500D03*
X0061800Y0092100D03*
D75*
X0053900Y0093300D03*
X0046500Y0091700D03*
X0053900Y0102300D03*
X0069900Y0102300D03*
X0075700Y0104700D03*
X0069900Y0093300D03*
X0069300Y0079100D03*
X0069300Y0078900D03*
X0069300Y0078700D03*
X0069300Y0078500D03*
X0061700Y0078500D03*
X0046500Y0078500D03*
X0046500Y0078700D03*
X0046500Y0078900D03*
X0046500Y0079100D03*
X0046500Y0078300D03*
X0046500Y0078100D03*
X0046500Y0077900D03*
X0046500Y0077700D03*
X0046500Y0077500D03*
X0046500Y0077300D03*
X0046500Y0077100D03*
X0046500Y0076900D03*
X0046500Y0076700D03*
X0046500Y0076500D03*
X0046500Y0076300D03*
X0046500Y0076100D03*
X0046500Y0075900D03*
X0046500Y0075700D03*
X0046500Y0075500D03*
X0077100Y0076700D03*
X0077100Y0076900D03*
X0077100Y0077100D03*
X0077100Y0077300D03*
X0077100Y0077500D03*
X0077100Y0077700D03*
X0077100Y0077900D03*
X0077100Y0078100D03*
X0077100Y0078300D03*
X0077100Y0078500D03*
X0077100Y0078700D03*
X0077100Y0078900D03*
X0077100Y0079100D03*
D76*
X0061800Y0079900D03*
X0061800Y0080100D03*
X0061800Y0080300D03*
X0061800Y0080500D03*
X0061800Y0080700D03*
X0061800Y0080900D03*
X0061800Y0081100D03*
X0061800Y0081300D03*
X0061800Y0081500D03*
X0061800Y0081700D03*
X0061800Y0081900D03*
X0061800Y0082100D03*
X0061800Y0082300D03*
X0061800Y0082500D03*
X0061800Y0082700D03*
X0061800Y0082900D03*
X0061800Y0083100D03*
X0061800Y0083300D03*
X0061800Y0083500D03*
X0061800Y0083700D03*
X0061800Y0083900D03*
X0061800Y0084100D03*
X0061800Y0084300D03*
X0061800Y0084500D03*
X0061800Y0084700D03*
X0061800Y0084900D03*
X0061800Y0085100D03*
X0061800Y0085300D03*
X0061800Y0085500D03*
X0061800Y0085700D03*
X0061800Y0085900D03*
X0061800Y0086100D03*
X0061800Y0086300D03*
X0061800Y0086500D03*
X0061800Y0086700D03*
X0061800Y0086900D03*
X0061800Y0087100D03*
X0061800Y0087300D03*
X0061800Y0087500D03*
X0061800Y0087700D03*
X0061800Y0087900D03*
X0061800Y0088100D03*
X0061800Y0088300D03*
X0061800Y0088500D03*
X0061800Y0088700D03*
X0061800Y0088900D03*
X0061800Y0089100D03*
X0061800Y0089300D03*
X0061800Y0089500D03*
X0061800Y0089700D03*
X0061800Y0089900D03*
X0061800Y0090100D03*
X0061800Y0090300D03*
D77*
X0053900Y0094700D03*
X0047900Y0090500D03*
X0069900Y0094700D03*
D78*
X0061800Y0090500D03*
D79*
X0061800Y0091300D03*
X0053800Y0094500D03*
X0075800Y0090500D03*
X0061800Y0115500D03*
D80*
X0069900Y0094100D03*
X0061900Y0091500D03*
X0047500Y0090700D03*
D81*
X0061800Y0090700D03*
X0061800Y0115100D03*
D82*
X0053800Y0094100D03*
X0076200Y0090700D03*
D83*
X0069800Y0101700D03*
X0074800Y0105100D03*
X0053800Y0101700D03*
X0047200Y0090900D03*
D84*
X0061800Y0090900D03*
X0061800Y0115300D03*
D85*
X0061900Y0091700D03*
X0076500Y0090900D03*
D86*
X0061800Y0091100D03*
D87*
X0053900Y0093900D03*
X0069900Y0093900D03*
D88*
X0069800Y0094300D03*
X0053800Y0094300D03*
D89*
X0069900Y0094500D03*
D90*
X0061800Y0105300D03*
D91*
X0061800Y0105500D03*
X0061800Y0105700D03*
D92*
X0061800Y0105900D03*
X0061800Y0106100D03*
D93*
X0061800Y0106300D03*
X0061800Y0106500D03*
D94*
X0061800Y0106700D03*
D95*
X0061800Y0106900D03*
X0061800Y0107100D03*
D96*
X0061800Y0107300D03*
X0061800Y0107500D03*
D97*
X0061800Y0107700D03*
D98*
X0061800Y0107900D03*
X0061800Y0108100D03*
D99*
X0061800Y0108300D03*
D100*
X0061800Y0108500D03*
D101*
X0061900Y0108700D03*
D102*
X0061800Y0108900D03*
D103*
X0061800Y0109100D03*
D104*
X0061800Y0109300D03*
D105*
X0061800Y0109500D03*
D106*
X0061900Y0109700D03*
D107*
X0061800Y0109900D03*
D108*
X0061800Y0110100D03*
D109*
X0061800Y0110300D03*
D110*
X0061800Y0110500D03*
D111*
X0061800Y0110700D03*
D112*
X0061800Y0110900D03*
D113*
X0061800Y0111100D03*
D114*
X0061800Y0111300D03*
D115*
X0061900Y0111500D03*
D116*
X0061800Y0111700D03*
D117*
X0061800Y0111900D03*
D118*
X0061800Y0112100D03*
D119*
X0061800Y0112300D03*
D120*
X0061800Y0112500D03*
D121*
X0061800Y0112700D03*
D122*
X0061800Y0114300D03*
D123*
X0061800Y0114500D03*
D124*
X0061900Y0114700D03*
D125*
X0089500Y0095465D02*
X0091035Y0093163D01*
X0092569Y0095465D01*
X0094104Y0093163D02*
X0089500Y0093163D01*
X0089500Y0091629D02*
X0089500Y0088559D01*
X0089500Y0090094D02*
X0094104Y0090094D01*
X0092569Y0088559D01*
X0102590Y0082569D02*
X0104892Y0081035D01*
X0102590Y0079500D01*
X0104892Y0079500D02*
X0104892Y0084104D01*
X0106427Y0083337D02*
X0109496Y0080267D01*
X0108729Y0079500D01*
X0107194Y0079500D01*
X0106427Y0080267D01*
X0106427Y0083337D01*
X0107194Y0084104D01*
X0108729Y0084104D01*
X0109496Y0083337D01*
X0109496Y0080267D01*
X0111031Y0079500D02*
X0114100Y0079500D01*
X0112565Y0079500D02*
X0112565Y0084104D01*
X0114100Y0082569D01*
X0112565Y0069104D02*
X0112565Y0064500D01*
X0111031Y0064500D02*
X0114100Y0064500D01*
X0109496Y0065267D02*
X0106427Y0068337D01*
X0106427Y0065267D01*
X0107194Y0064500D01*
X0108729Y0064500D01*
X0109496Y0065267D01*
X0109496Y0068337D01*
X0108729Y0069104D01*
X0107194Y0069104D01*
X0106427Y0068337D01*
X0104892Y0069104D02*
X0104892Y0064500D01*
X0104892Y0066035D02*
X0102590Y0067569D01*
X0104892Y0066035D02*
X0102590Y0064500D01*
X0112565Y0069104D02*
X0114100Y0067569D01*
X0069304Y0030465D02*
X0069304Y0027396D01*
X0067002Y0027396D01*
X0067769Y0028931D01*
X0067769Y0029698D01*
X0067002Y0030465D01*
X0065467Y0030465D01*
X0064700Y0029698D01*
X0064700Y0028163D01*
X0065467Y0027396D01*
X0068537Y0025861D02*
X0065467Y0022792D01*
X0064700Y0022792D01*
X0067002Y0021257D02*
X0066235Y0020490D01*
X0066235Y0018188D01*
X0066235Y0016654D02*
X0065467Y0016654D01*
X0064700Y0015886D01*
X0064700Y0014352D01*
X0065467Y0013584D01*
X0065467Y0012050D02*
X0064700Y0011282D01*
X0064700Y0008980D01*
X0069304Y0008980D01*
X0069304Y0011282D01*
X0068537Y0012050D01*
X0067769Y0012050D01*
X0067002Y0011282D01*
X0067002Y0008980D01*
X0067002Y0011282D02*
X0066235Y0012050D01*
X0065467Y0012050D01*
X0067002Y0014352D02*
X0067002Y0015886D01*
X0066235Y0016654D01*
X0064700Y0018188D02*
X0069304Y0018188D01*
X0069304Y0020490D01*
X0068537Y0021257D01*
X0067002Y0021257D01*
X0069304Y0022792D02*
X0069304Y0025861D01*
X0068537Y0025861D01*
X0072973Y0022937D02*
X0073740Y0023704D01*
X0076042Y0023704D01*
X0076042Y0019100D01*
X0073740Y0019100D01*
X0072973Y0019867D01*
X0072973Y0022937D01*
X0077577Y0023704D02*
X0077577Y0019100D01*
X0080646Y0023704D01*
X0080646Y0019100D01*
X0082181Y0019867D02*
X0082181Y0021402D01*
X0083715Y0021402D01*
X0082181Y0022937D02*
X0082948Y0023704D01*
X0084483Y0023704D01*
X0085250Y0022937D01*
X0085250Y0019867D01*
X0084483Y0019100D01*
X0082948Y0019100D01*
X0082181Y0019867D01*
X0069304Y0015886D02*
X0069304Y0014352D01*
X0068537Y0013584D01*
X0067769Y0013584D01*
X0067002Y0014352D01*
X0068537Y0016654D02*
X0069304Y0015886D01*
X0029104Y0054723D02*
X0024500Y0054723D01*
X0024500Y0056257D02*
X0024500Y0053188D01*
X0027569Y0053188D02*
X0029104Y0054723D01*
X0028337Y0057792D02*
X0025267Y0057792D01*
X0028337Y0060861D01*
X0025267Y0060861D01*
X0024500Y0060094D01*
X0024500Y0058559D01*
X0025267Y0057792D01*
X0028337Y0057792D02*
X0029104Y0058559D01*
X0029104Y0060094D01*
X0028337Y0060861D01*
X0028337Y0062396D02*
X0025267Y0062396D01*
X0028337Y0065465D01*
X0025267Y0065465D01*
X0024500Y0064698D01*
X0024500Y0063163D01*
X0025267Y0062396D01*
X0028337Y0062396D02*
X0029104Y0063163D01*
X0029104Y0064698D01*
X0028337Y0065465D01*
X0148250Y0147000D02*
X0148250Y0150069D01*
X0148250Y0148535D02*
X0152854Y0148535D01*
X0151319Y0147000D01*
X0152087Y0151604D02*
X0149017Y0151604D01*
X0152087Y0154673D01*
X0149017Y0154673D01*
X0148250Y0153906D01*
X0148250Y0152371D01*
X0149017Y0151604D01*
X0152087Y0151604D02*
X0152854Y0152371D01*
X0152854Y0153906D01*
X0152087Y0154673D01*
X0152087Y0156208D02*
X0149017Y0156208D01*
X0152087Y0159277D01*
X0149017Y0159277D01*
X0148250Y0158510D01*
X0148250Y0156975D01*
X0149017Y0156208D01*
X0152087Y0156208D02*
X0152854Y0156975D01*
X0152854Y0158510D01*
X0152087Y0159277D01*
X0151319Y0160812D02*
X0151319Y0163114D01*
X0150552Y0163881D01*
X0148250Y0163881D01*
X0148250Y0165416D02*
X0152854Y0165416D01*
X0152854Y0168485D01*
X0150552Y0166950D02*
X0150552Y0165416D01*
X0151319Y0160812D02*
X0148250Y0160812D01*
X0105019Y0196031D02*
X0105019Y0197566D01*
X0104251Y0198333D01*
X0103484Y0198333D01*
X0102717Y0197566D01*
X0102717Y0196031D01*
X0103484Y0195264D01*
X0104251Y0195264D01*
X0105019Y0196031D01*
X0102717Y0196031D02*
X0101949Y0195264D01*
X0101182Y0195264D01*
X0100415Y0196031D01*
X0100415Y0197566D01*
X0101182Y0198333D01*
X0101949Y0198333D01*
X0102717Y0197566D01*
X0100415Y0199868D02*
X0105019Y0199868D01*
X0103484Y0201402D01*
X0105019Y0202937D01*
X0100415Y0202937D01*
X0100415Y0204472D02*
X0105019Y0204472D01*
X0102717Y0204472D02*
X0102717Y0207541D01*
X0103484Y0209075D02*
X0103484Y0212145D01*
X0100415Y0209075D01*
X0100415Y0212145D01*
X0100415Y0207541D02*
X0105019Y0207541D01*
X0081859Y0205335D02*
X0077255Y0205335D01*
X0077255Y0202266D02*
X0081859Y0202266D01*
X0080325Y0203801D01*
X0081859Y0205335D01*
X0077255Y0200731D02*
X0077255Y0197662D01*
X0077255Y0199197D02*
X0081859Y0199197D01*
X0080325Y0197662D01*
X0069827Y0198674D02*
X0069827Y0201743D01*
X0067525Y0200209D02*
X0067525Y0198674D01*
X0067525Y0197139D02*
X0065991Y0197139D01*
X0065223Y0196372D01*
X0065223Y0194070D01*
X0063689Y0194070D02*
X0068293Y0194070D01*
X0068293Y0196372D01*
X0067525Y0197139D01*
X0065223Y0198674D02*
X0069827Y0198674D01*
X0069060Y0192535D02*
X0068293Y0192535D01*
X0067525Y0191768D01*
X0067525Y0190233D01*
X0068293Y0189466D01*
X0069060Y0189466D01*
X0069827Y0190233D01*
X0069827Y0191768D01*
X0069060Y0192535D01*
X0067525Y0191768D02*
X0066758Y0192535D01*
X0065991Y0192535D01*
X0065223Y0191768D01*
X0065223Y0190233D01*
X0065991Y0189466D01*
X0066758Y0189466D01*
X0067525Y0190233D01*
X0065223Y0187932D02*
X0065223Y0184862D01*
X0065223Y0186397D02*
X0069827Y0186397D01*
X0068293Y0184862D01*
X0087000Y0184860D02*
X0087000Y0183325D01*
X0087767Y0182558D01*
X0090837Y0185627D01*
X0087767Y0185627D01*
X0087000Y0184860D01*
X0087000Y0187162D02*
X0091604Y0187162D01*
X0090837Y0185627D02*
X0091604Y0184860D01*
X0091604Y0183325D01*
X0090837Y0182558D01*
X0087767Y0182558D01*
X0087767Y0181023D02*
X0087000Y0180256D01*
X0087000Y0178721D01*
X0087767Y0177954D01*
X0090837Y0181023D01*
X0087767Y0181023D01*
X0087767Y0177954D02*
X0090837Y0177954D01*
X0091604Y0178721D01*
X0091604Y0180256D01*
X0090837Y0181023D01*
X0087000Y0176419D02*
X0087000Y0173350D01*
X0087000Y0174885D02*
X0091604Y0174885D01*
X0090069Y0173350D01*
X0088535Y0187162D02*
X0090069Y0189464D01*
X0088535Y0187162D02*
X0087000Y0189464D01*
X0067702Y0208188D02*
X0069236Y0209722D01*
X0064632Y0209722D01*
X0064632Y0208188D02*
X0064632Y0211257D01*
X0065400Y0212792D02*
X0066167Y0212792D01*
X0066934Y0213559D01*
X0066934Y0215094D01*
X0066167Y0215861D01*
X0065400Y0215861D01*
X0064632Y0215094D01*
X0064632Y0213559D01*
X0065400Y0212792D01*
X0066934Y0213559D02*
X0067702Y0212792D01*
X0068469Y0212792D01*
X0069236Y0213559D01*
X0069236Y0215094D01*
X0068469Y0215861D01*
X0067702Y0215861D01*
X0066934Y0215094D01*
X0067702Y0217396D02*
X0063098Y0217396D01*
X0064632Y0217396D02*
X0064632Y0219698D01*
X0065400Y0220465D01*
X0066934Y0220465D01*
X0067702Y0219698D01*
X0067702Y0217396D01*
X0066934Y0222000D02*
X0066934Y0223534D01*
X0064632Y0222000D02*
X0069236Y0222000D01*
X0069236Y0225069D01*
X0036329Y0224986D02*
X0031725Y0224986D01*
X0036329Y0221917D01*
X0031725Y0221917D01*
X0032492Y0220382D02*
X0034027Y0220382D01*
X0034027Y0218848D01*
X0035562Y0220382D02*
X0036329Y0219615D01*
X0036329Y0218081D01*
X0035562Y0217313D01*
X0032492Y0217313D01*
X0031725Y0218081D01*
X0031725Y0219615D01*
X0032492Y0220382D01*
X0031725Y0226521D02*
X0031725Y0228823D01*
X0032492Y0229590D01*
X0035562Y0229590D01*
X0036329Y0228823D01*
X0036329Y0226521D01*
X0031725Y0226521D01*
X0011604Y0197742D02*
X0011604Y0196208D01*
X0011604Y0196975D02*
X0007000Y0196975D01*
X0007000Y0196208D02*
X0007000Y0197742D01*
X0009302Y0194673D02*
X0008535Y0193906D01*
X0008535Y0191604D01*
X0008535Y0190069D02*
X0007767Y0190069D01*
X0007000Y0189302D01*
X0007000Y0187767D01*
X0007767Y0187000D01*
X0009302Y0187767D02*
X0009302Y0189302D01*
X0008535Y0190069D01*
X0007000Y0191604D02*
X0011604Y0191604D01*
X0011604Y0193906D01*
X0010837Y0194673D01*
X0009302Y0194673D01*
X0010837Y0190069D02*
X0011604Y0189302D01*
X0011604Y0187767D01*
X0010837Y0187000D01*
X0010069Y0187000D01*
X0009302Y0187767D01*
X0065290Y0276800D02*
X0064523Y0277567D01*
X0064523Y0280637D01*
X0065290Y0281404D01*
X0067592Y0281404D01*
X0067592Y0276800D01*
X0065290Y0276800D01*
X0069127Y0276800D02*
X0069127Y0281404D01*
X0072196Y0281404D02*
X0069127Y0276800D01*
X0072196Y0276800D02*
X0072196Y0281404D01*
X0073731Y0280637D02*
X0074498Y0281404D01*
X0076033Y0281404D01*
X0076800Y0280637D01*
X0076800Y0277567D01*
X0076033Y0276800D01*
X0074498Y0276800D01*
X0073731Y0277567D01*
X0073731Y0279102D01*
X0075265Y0279102D01*
X0196125Y0238365D02*
X0200729Y0238365D01*
X0199194Y0236831D01*
X0200729Y0235296D01*
X0196125Y0235296D01*
X0196125Y0233761D02*
X0196125Y0230692D01*
X0196125Y0232227D02*
X0200729Y0232227D01*
X0199194Y0230692D01*
X0208350Y0231050D02*
X0208350Y0234119D01*
X0208350Y0232585D02*
X0212954Y0232585D01*
X0211419Y0231050D01*
X0212954Y0235654D02*
X0208350Y0235654D01*
X0208350Y0238723D02*
X0212954Y0238723D01*
X0211419Y0237189D01*
X0212954Y0235654D01*
X0217389Y0251820D02*
X0220459Y0254889D01*
X0217389Y0254889D01*
X0216622Y0254122D01*
X0216622Y0252588D01*
X0217389Y0251820D01*
X0220459Y0251820D01*
X0221226Y0252588D01*
X0221226Y0254122D01*
X0220459Y0254889D01*
X0219202Y0276600D02*
X0219202Y0281204D01*
X0217667Y0281204D02*
X0217667Y0276600D01*
X0215365Y0276600D01*
X0214598Y0277367D01*
X0214598Y0280437D01*
X0215365Y0281204D01*
X0217667Y0281204D01*
X0222271Y0281204D02*
X0219202Y0276600D01*
X0222271Y0276600D02*
X0222271Y0281204D01*
X0223806Y0280437D02*
X0224573Y0281204D01*
X0226108Y0281204D01*
X0226875Y0280437D01*
X0226875Y0277367D01*
X0226108Y0276600D01*
X0224573Y0276600D01*
X0223806Y0277367D01*
X0223806Y0278902D01*
X0225340Y0278902D01*
X0264500Y0253510D02*
X0266035Y0251208D01*
X0267569Y0253510D01*
X0269104Y0251208D02*
X0264500Y0251208D01*
X0265267Y0249673D02*
X0264500Y0248906D01*
X0264500Y0247371D01*
X0265267Y0246604D01*
X0268337Y0249673D01*
X0265267Y0249673D01*
X0268337Y0249673D02*
X0269104Y0248906D01*
X0269104Y0247371D01*
X0268337Y0246604D01*
X0265267Y0246604D01*
X0264500Y0245069D02*
X0264500Y0242000D01*
X0264500Y0243535D02*
X0269104Y0243535D01*
X0267569Y0242000D01*
X0294000Y0242402D02*
X0294000Y0240000D01*
X0294000Y0241201D02*
X0297603Y0241201D01*
X0296402Y0240000D01*
X0299432Y0238902D02*
X0301234Y0237701D01*
X0299432Y0236500D01*
X0301234Y0236500D02*
X0301234Y0240103D01*
X0302515Y0239503D02*
X0304917Y0237101D01*
X0304316Y0236500D01*
X0303115Y0236500D01*
X0302515Y0237101D01*
X0302515Y0239503D01*
X0303115Y0240103D01*
X0304316Y0240103D01*
X0304917Y0239503D01*
X0304917Y0237101D01*
X0306198Y0236500D02*
X0308600Y0236500D01*
X0307399Y0236500D02*
X0307399Y0240103D01*
X0308600Y0238902D01*
X0297603Y0244284D02*
X0297603Y0245485D01*
X0297003Y0246085D01*
X0294601Y0243683D01*
X0294000Y0244284D01*
X0294000Y0245485D01*
X0294601Y0246085D01*
X0297003Y0246085D01*
X0297603Y0247366D02*
X0294000Y0247366D01*
X0295201Y0247366D02*
X0296402Y0249168D01*
X0295201Y0247366D02*
X0294000Y0249168D01*
X0297603Y0244284D02*
X0297003Y0243683D01*
X0294601Y0243683D01*
X0311000Y0257381D02*
X0311000Y0259783D01*
X0311000Y0258582D02*
X0314603Y0258582D01*
X0313402Y0257381D01*
X0314003Y0261064D02*
X0311601Y0261064D01*
X0314003Y0263466D01*
X0311601Y0263466D01*
X0311000Y0262866D01*
X0311000Y0261665D01*
X0311601Y0261064D01*
X0314003Y0261064D02*
X0314603Y0261665D01*
X0314603Y0262866D01*
X0314003Y0263466D01*
X0314003Y0264748D02*
X0311601Y0264748D01*
X0314003Y0267150D01*
X0311601Y0267150D01*
X0311000Y0266549D01*
X0311000Y0265348D01*
X0311601Y0264748D01*
X0314003Y0264748D02*
X0314603Y0265348D01*
X0314603Y0266549D01*
X0314003Y0267150D01*
X0314603Y0268431D02*
X0311000Y0268431D01*
X0312201Y0268431D02*
X0313402Y0270232D01*
X0312201Y0268431D02*
X0311000Y0270232D01*
X0280725Y0275542D02*
X0279958Y0274775D01*
X0278423Y0274775D01*
X0277656Y0275542D01*
X0277656Y0277077D01*
X0279190Y0277077D01*
X0277656Y0278612D02*
X0278423Y0279379D01*
X0279958Y0279379D01*
X0280725Y0278612D01*
X0280725Y0275542D01*
X0276121Y0274775D02*
X0276121Y0279379D01*
X0273052Y0274775D01*
X0273052Y0279379D01*
X0271517Y0279379D02*
X0269215Y0279379D01*
X0268448Y0278612D01*
X0268448Y0275542D01*
X0269215Y0274775D01*
X0271517Y0274775D01*
X0271517Y0279379D01*
X0260837Y0214401D02*
X0260069Y0214401D01*
X0259302Y0213633D01*
X0259302Y0211331D01*
X0260837Y0209797D02*
X0261604Y0209029D01*
X0261604Y0207495D01*
X0260837Y0206727D01*
X0257767Y0206727D01*
X0257000Y0207495D01*
X0257000Y0209029D01*
X0257767Y0209797D01*
X0257000Y0211331D02*
X0257000Y0213633D01*
X0257767Y0214401D01*
X0258535Y0214401D01*
X0259302Y0213633D01*
X0260837Y0214401D02*
X0261604Y0213633D01*
X0261604Y0211331D01*
X0257000Y0211331D01*
X0257767Y0205193D02*
X0257000Y0204426D01*
X0257000Y0202891D01*
X0257767Y0202124D01*
X0257767Y0200589D02*
X0257000Y0199822D01*
X0257000Y0198287D01*
X0257767Y0197520D01*
X0260837Y0200589D01*
X0257767Y0200589D01*
X0257767Y0197520D02*
X0260837Y0197520D01*
X0261604Y0198287D01*
X0261604Y0199822D01*
X0260837Y0200589D01*
X0260837Y0202124D02*
X0261604Y0202891D01*
X0261604Y0204426D01*
X0260837Y0205193D01*
X0260069Y0205193D01*
X0259302Y0204426D01*
X0258535Y0205193D01*
X0257767Y0205193D01*
X0259302Y0204426D02*
X0259302Y0203658D01*
X0260837Y0195985D02*
X0257767Y0192916D01*
X0257000Y0192916D01*
X0257000Y0191381D02*
X0257000Y0188312D01*
X0257000Y0189846D02*
X0261604Y0189846D01*
X0260069Y0188312D01*
X0259302Y0186777D02*
X0258535Y0186010D01*
X0258535Y0183708D01*
X0257000Y0183708D02*
X0261604Y0183708D01*
X0261604Y0186010D01*
X0260837Y0186777D01*
X0259302Y0186777D01*
X0260837Y0182173D02*
X0261604Y0181406D01*
X0261604Y0179871D01*
X0260837Y0179104D01*
X0257767Y0179104D01*
X0257000Y0179871D01*
X0257000Y0181406D01*
X0257767Y0182173D01*
X0257000Y0177569D02*
X0261604Y0177569D01*
X0260069Y0176035D01*
X0261604Y0174500D01*
X0257000Y0174500D01*
X0245412Y0167569D02*
X0243877Y0169104D01*
X0243877Y0164500D01*
X0242343Y0164500D02*
X0245412Y0164500D01*
X0240808Y0165267D02*
X0240808Y0168337D01*
X0240041Y0169104D01*
X0238506Y0169104D01*
X0237739Y0168337D01*
X0240808Y0165267D01*
X0240041Y0164500D01*
X0238506Y0164500D01*
X0237739Y0165267D01*
X0237739Y0168337D01*
X0236204Y0167569D02*
X0236204Y0165267D01*
X0235437Y0164500D01*
X0233135Y0164500D01*
X0233135Y0167569D01*
X0233110Y0159104D02*
X0232343Y0158337D01*
X0235412Y0155267D01*
X0234645Y0154500D01*
X0233110Y0154500D01*
X0232343Y0155267D01*
X0232343Y0158337D01*
X0233110Y0159104D02*
X0234645Y0159104D01*
X0235412Y0158337D01*
X0235412Y0155267D01*
X0236946Y0155267D02*
X0237714Y0154500D01*
X0239248Y0154500D01*
X0240016Y0155267D01*
X0236946Y0158337D01*
X0236946Y0155267D01*
X0236946Y0158337D02*
X0237714Y0159104D01*
X0239248Y0159104D01*
X0240016Y0158337D01*
X0240016Y0155267D01*
X0241550Y0154500D02*
X0244620Y0154500D01*
X0243085Y0154500D02*
X0243085Y0159104D01*
X0244620Y0157569D01*
X0230808Y0157569D02*
X0230808Y0154500D01*
X0230808Y0157569D02*
X0228506Y0157569D01*
X0227739Y0156802D01*
X0227739Y0154500D01*
X0226204Y0154500D02*
X0226204Y0159104D01*
X0223135Y0159104D01*
X0224669Y0156802D02*
X0226204Y0156802D01*
X0200837Y0124673D02*
X0201604Y0123906D01*
X0201604Y0122371D01*
X0200837Y0121604D01*
X0200837Y0120069D02*
X0201604Y0119302D01*
X0201604Y0117767D01*
X0200837Y0117000D01*
X0200837Y0120069D02*
X0200069Y0120069D01*
X0197000Y0117000D01*
X0197000Y0120069D01*
X0197000Y0121604D02*
X0200069Y0124673D01*
X0200837Y0124673D01*
X0197000Y0124673D02*
X0197000Y0121604D01*
X0242000Y0101406D02*
X0243535Y0099104D01*
X0245069Y0101406D01*
X0246604Y0099104D02*
X0242000Y0099104D01*
X0242000Y0097569D02*
X0242000Y0094500D01*
X0242000Y0096035D02*
X0246604Y0096035D01*
X0245069Y0094500D01*
X0254525Y0094284D02*
X0254525Y0097354D01*
X0254525Y0098888D02*
X0259129Y0098888D01*
X0257594Y0101190D02*
X0256060Y0098888D01*
X0254525Y0101190D01*
X0254525Y0095819D02*
X0259129Y0095819D01*
X0257594Y0094284D01*
X0267000Y0094500D02*
X0267000Y0097569D01*
X0267000Y0096035D02*
X0271604Y0096035D01*
X0270069Y0094500D01*
X0268535Y0099104D02*
X0270069Y0101406D01*
X0268535Y0099104D02*
X0267000Y0101406D01*
X0267000Y0099104D02*
X0271604Y0099104D01*
X0289215Y0044379D02*
X0291517Y0044379D01*
X0291517Y0039775D01*
X0289215Y0039775D01*
X0288448Y0040542D01*
X0288448Y0043612D01*
X0289215Y0044379D01*
X0293052Y0044379D02*
X0293052Y0039775D01*
X0296121Y0044379D01*
X0296121Y0039775D01*
X0297656Y0040542D02*
X0297656Y0042077D01*
X0299190Y0042077D01*
X0297656Y0043612D02*
X0298423Y0044379D01*
X0299958Y0044379D01*
X0300725Y0043612D01*
X0300725Y0040542D01*
X0299958Y0039775D01*
X0298423Y0039775D01*
X0297656Y0040542D01*
X0370948Y0040542D02*
X0370948Y0043612D01*
X0371715Y0044379D01*
X0374017Y0044379D01*
X0374017Y0039775D01*
X0371715Y0039775D01*
X0370948Y0040542D01*
X0375552Y0039775D02*
X0375552Y0044379D01*
X0378621Y0044379D02*
X0375552Y0039775D01*
X0378621Y0039775D02*
X0378621Y0044379D01*
X0380156Y0043612D02*
X0380923Y0044379D01*
X0382458Y0044379D01*
X0383225Y0043612D01*
X0383225Y0040542D01*
X0382458Y0039775D01*
X0380923Y0039775D01*
X0380156Y0040542D01*
X0380156Y0042077D01*
X0381690Y0042077D01*
X0381427Y0144500D02*
X0381427Y0149104D01*
X0378358Y0144500D01*
X0378358Y0149104D01*
X0376823Y0149104D02*
X0375288Y0149104D01*
X0376056Y0149104D02*
X0376056Y0144500D01*
X0376823Y0144500D02*
X0375288Y0144500D01*
X0373754Y0146802D02*
X0370684Y0146802D01*
X0369150Y0145267D02*
X0369150Y0149104D01*
X0366080Y0149104D02*
X0366080Y0145267D01*
X0366848Y0144500D01*
X0368382Y0144500D01*
X0369150Y0145267D01*
X0364546Y0145267D02*
X0363778Y0144500D01*
X0362244Y0144500D01*
X0361476Y0145267D01*
X0361476Y0146035D01*
X0362244Y0146802D01*
X0363778Y0146802D01*
X0364546Y0147569D01*
X0364546Y0148337D01*
X0363778Y0149104D01*
X0362244Y0149104D01*
X0361476Y0148337D01*
X0359942Y0149104D02*
X0359942Y0144500D01*
X0357640Y0144500D01*
X0356873Y0145267D01*
X0356873Y0146035D01*
X0357640Y0146802D01*
X0359942Y0146802D01*
X0359942Y0149104D02*
X0357640Y0149104D01*
X0356873Y0148337D01*
X0356873Y0147569D01*
X0357640Y0146802D01*
X0368939Y0156676D02*
X0368995Y0156674D01*
X0369050Y0156668D01*
X0369105Y0156659D01*
X0369159Y0156646D01*
X0369213Y0156629D01*
X0369264Y0156608D01*
X0369315Y0156584D01*
X0369364Y0156557D01*
X0369410Y0156526D01*
X0369455Y0156493D01*
X0369497Y0156456D01*
X0369536Y0156417D01*
X0369573Y0156375D01*
X0369606Y0156330D01*
X0369637Y0156284D01*
X0369664Y0156235D01*
X0369688Y0156184D01*
X0369709Y0156133D01*
X0369726Y0156079D01*
X0369739Y0156025D01*
X0369748Y0155970D01*
X0369754Y0155915D01*
X0369756Y0155859D01*
X0369757Y0155859D02*
X0369757Y0155246D01*
X0368939Y0156676D02*
X0378031Y0156676D01*
X0378954Y0160151D02*
X0378954Y0160969D01*
X0388356Y0161990D01*
X0388356Y0164034D01*
X0378954Y0165056D01*
X0378954Y0165874D01*
X0389786Y0164852D01*
X0389786Y0164851D02*
X0389852Y0164844D01*
X0389917Y0164833D01*
X0389982Y0164819D01*
X0390045Y0164801D01*
X0390108Y0164779D01*
X0390169Y0164754D01*
X0390229Y0164726D01*
X0390287Y0164694D01*
X0390343Y0164658D01*
X0390397Y0164620D01*
X0390448Y0164579D01*
X0390497Y0164535D01*
X0390544Y0164488D01*
X0390588Y0164438D01*
X0390629Y0164386D01*
X0390667Y0164332D01*
X0390702Y0164276D01*
X0390733Y0164218D01*
X0390761Y0164158D01*
X0390786Y0164096D01*
X0390807Y0164034D01*
X0390807Y0161786D02*
X0390786Y0161724D01*
X0390761Y0161662D01*
X0390733Y0161602D01*
X0390702Y0161544D01*
X0390667Y0161488D01*
X0390629Y0161434D01*
X0390588Y0161382D01*
X0390544Y0161332D01*
X0390497Y0161285D01*
X0390448Y0161241D01*
X0390397Y0161200D01*
X0390343Y0161162D01*
X0390287Y0161126D01*
X0390229Y0161094D01*
X0390169Y0161066D01*
X0390108Y0161041D01*
X0390045Y0161019D01*
X0389982Y0161001D01*
X0389917Y0160987D01*
X0389852Y0160976D01*
X0389786Y0160969D01*
X0378954Y0160151D01*
X0390807Y0161786D02*
X0390841Y0161901D01*
X0390871Y0162018D01*
X0390897Y0162135D01*
X0390919Y0162253D01*
X0390938Y0162371D01*
X0390953Y0162491D01*
X0390964Y0162610D01*
X0390972Y0162730D01*
X0390976Y0162850D01*
X0390976Y0162970D01*
X0390972Y0163090D01*
X0390964Y0163210D01*
X0390953Y0163329D01*
X0390938Y0163449D01*
X0390919Y0163567D01*
X0390897Y0163685D01*
X0390871Y0163802D01*
X0390841Y0163919D01*
X0390807Y0164034D01*
X0389786Y0166896D02*
X0373844Y0167713D01*
X0373787Y0167718D01*
X0373730Y0167727D01*
X0373674Y0167740D01*
X0373619Y0167756D01*
X0373565Y0167776D01*
X0373513Y0167800D01*
X0373462Y0167826D01*
X0373413Y0167857D01*
X0373366Y0167890D01*
X0373321Y0167926D01*
X0373279Y0167966D01*
X0373240Y0168008D01*
X0373204Y0168052D01*
X0373170Y0168099D01*
X0373140Y0168148D01*
X0373113Y0168199D01*
X0373090Y0168251D01*
X0373070Y0168305D01*
X0373054Y0168361D01*
X0373041Y0168417D01*
X0373032Y0168474D01*
X0373027Y0168531D01*
X0373027Y0175070D01*
X0373026Y0175070D02*
X0373031Y0175127D01*
X0373040Y0175184D01*
X0373053Y0175240D01*
X0373069Y0175295D01*
X0373089Y0175349D01*
X0373112Y0175402D01*
X0373139Y0175453D01*
X0373169Y0175502D01*
X0373203Y0175549D01*
X0373239Y0175593D01*
X0373278Y0175635D01*
X0373321Y0175675D01*
X0373365Y0175711D01*
X0373412Y0175744D01*
X0373461Y0175775D01*
X0373512Y0175802D01*
X0373564Y0175825D01*
X0373618Y0175845D01*
X0373673Y0175861D01*
X0373730Y0175874D01*
X0373786Y0175883D01*
X0373844Y0175888D01*
X0389786Y0176705D01*
X0389842Y0176703D01*
X0389897Y0176697D01*
X0389952Y0176688D01*
X0390006Y0176675D01*
X0390060Y0176658D01*
X0390111Y0176637D01*
X0390162Y0176613D01*
X0390211Y0176586D01*
X0390257Y0176555D01*
X0390302Y0176522D01*
X0390344Y0176485D01*
X0390383Y0176446D01*
X0390420Y0176404D01*
X0390453Y0176359D01*
X0390484Y0176313D01*
X0390511Y0176264D01*
X0390535Y0176213D01*
X0390556Y0176162D01*
X0390573Y0176108D01*
X0390586Y0176054D01*
X0390595Y0175999D01*
X0390601Y0175944D01*
X0390603Y0175888D01*
X0390604Y0175888D02*
X0390604Y0175887D01*
X0390603Y0175887D02*
X0390601Y0175831D01*
X0390595Y0175776D01*
X0390586Y0175721D01*
X0390573Y0175667D01*
X0390556Y0175613D01*
X0390535Y0175562D01*
X0390511Y0175511D01*
X0390484Y0175462D01*
X0390453Y0175416D01*
X0390420Y0175371D01*
X0390383Y0175329D01*
X0390344Y0175290D01*
X0390302Y0175253D01*
X0390257Y0175220D01*
X0390211Y0175189D01*
X0390162Y0175162D01*
X0390111Y0175138D01*
X0390060Y0175117D01*
X0390006Y0175100D01*
X0389952Y0175087D01*
X0389897Y0175078D01*
X0389842Y0175072D01*
X0389786Y0175070D01*
X0376297Y0174253D01*
X0376297Y0174254D02*
X0376297Y0169348D01*
X0389786Y0168531D01*
X0389786Y0168530D02*
X0389842Y0168528D01*
X0389897Y0168522D01*
X0389952Y0168513D01*
X0390006Y0168500D01*
X0390060Y0168483D01*
X0390111Y0168462D01*
X0390162Y0168438D01*
X0390211Y0168411D01*
X0390257Y0168380D01*
X0390302Y0168347D01*
X0390344Y0168310D01*
X0390383Y0168271D01*
X0390420Y0168229D01*
X0390453Y0168184D01*
X0390484Y0168138D01*
X0390511Y0168089D01*
X0390535Y0168038D01*
X0390556Y0167987D01*
X0390573Y0167933D01*
X0390586Y0167879D01*
X0390595Y0167824D01*
X0390601Y0167769D01*
X0390603Y0167713D01*
X0390601Y0167657D01*
X0390595Y0167602D01*
X0390586Y0167547D01*
X0390573Y0167493D01*
X0390556Y0167439D01*
X0390535Y0167388D01*
X0390511Y0167337D01*
X0390484Y0167288D01*
X0390453Y0167242D01*
X0390420Y0167197D01*
X0390383Y0167155D01*
X0390344Y0167116D01*
X0390302Y0167079D01*
X0390257Y0167046D01*
X0390211Y0167015D01*
X0390162Y0166988D01*
X0390111Y0166964D01*
X0390060Y0166943D01*
X0390006Y0166926D01*
X0389952Y0166913D01*
X0389897Y0166904D01*
X0389842Y0166898D01*
X0389786Y0166896D01*
X0389180Y0156676D02*
X0395100Y0156676D01*
X0395100Y0156676D01*
X0395100Y0186924D01*
X0389181Y0186924D01*
X0389786Y0182632D02*
X0378954Y0183450D01*
X0378954Y0182632D01*
X0388356Y0181611D01*
X0388356Y0179567D01*
X0378954Y0178545D01*
X0378954Y0177727D01*
X0389786Y0178749D01*
X0389852Y0178756D01*
X0389917Y0178767D01*
X0389982Y0178781D01*
X0390045Y0178799D01*
X0390108Y0178821D01*
X0390169Y0178846D01*
X0390229Y0178874D01*
X0390287Y0178906D01*
X0390343Y0178942D01*
X0390397Y0178980D01*
X0390448Y0179021D01*
X0390497Y0179065D01*
X0390544Y0179112D01*
X0390588Y0179162D01*
X0390629Y0179214D01*
X0390667Y0179268D01*
X0390702Y0179324D01*
X0390733Y0179382D01*
X0390761Y0179442D01*
X0390786Y0179504D01*
X0390807Y0179566D01*
X0390807Y0181815D02*
X0390786Y0181877D01*
X0390761Y0181939D01*
X0390733Y0181999D01*
X0390702Y0182057D01*
X0390667Y0182113D01*
X0390629Y0182167D01*
X0390588Y0182219D01*
X0390544Y0182269D01*
X0390497Y0182316D01*
X0390448Y0182360D01*
X0390397Y0182401D01*
X0390343Y0182439D01*
X0390287Y0182475D01*
X0390229Y0182507D01*
X0390169Y0182535D01*
X0390108Y0182560D01*
X0390045Y0182582D01*
X0389982Y0182600D01*
X0389917Y0182614D01*
X0389852Y0182625D01*
X0389786Y0182632D01*
X0390807Y0181815D02*
X0390841Y0181700D01*
X0390871Y0181583D01*
X0390897Y0181466D01*
X0390919Y0181348D01*
X0390938Y0181230D01*
X0390953Y0181110D01*
X0390964Y0180991D01*
X0390972Y0180871D01*
X0390976Y0180751D01*
X0390976Y0180631D01*
X0390972Y0180511D01*
X0390964Y0180391D01*
X0390953Y0180272D01*
X0390938Y0180152D01*
X0390919Y0180034D01*
X0390897Y0179916D01*
X0390871Y0179799D01*
X0390841Y0179682D01*
X0390807Y0179567D01*
X0378030Y0186924D02*
X0368939Y0186924D01*
X0368939Y0186925D02*
X0368995Y0186927D01*
X0369050Y0186933D01*
X0369105Y0186942D01*
X0369159Y0186955D01*
X0369213Y0186972D01*
X0369264Y0186993D01*
X0369315Y0187017D01*
X0369364Y0187044D01*
X0369410Y0187075D01*
X0369455Y0187108D01*
X0369497Y0187145D01*
X0369536Y0187184D01*
X0369573Y0187226D01*
X0369606Y0187271D01*
X0369637Y0187317D01*
X0369664Y0187366D01*
X0369688Y0187417D01*
X0369709Y0187468D01*
X0369726Y0187522D01*
X0369739Y0187576D01*
X0369748Y0187631D01*
X0369754Y0187686D01*
X0369756Y0187742D01*
X0369757Y0187742D02*
X0369757Y0188355D01*
X0368530Y0179771D02*
X0368531Y0179771D01*
X0368530Y0179771D02*
X0368475Y0179769D01*
X0368419Y0179763D01*
X0368364Y0179754D01*
X0368310Y0179741D01*
X0368257Y0179724D01*
X0368205Y0179703D01*
X0368154Y0179679D01*
X0368106Y0179652D01*
X0368059Y0179622D01*
X0368014Y0179588D01*
X0367972Y0179551D01*
X0367933Y0179512D01*
X0367896Y0179470D01*
X0367862Y0179425D01*
X0367832Y0179378D01*
X0367805Y0179330D01*
X0367781Y0179279D01*
X0367760Y0179227D01*
X0367743Y0179174D01*
X0367730Y0179120D01*
X0367721Y0179065D01*
X0367715Y0179009D01*
X0367713Y0178954D01*
X0367713Y0164647D01*
X0367715Y0164592D01*
X0367721Y0164536D01*
X0367730Y0164481D01*
X0367743Y0164427D01*
X0367760Y0164374D01*
X0367781Y0164322D01*
X0367805Y0164271D01*
X0367832Y0164223D01*
X0367862Y0164176D01*
X0367896Y0164131D01*
X0367933Y0164089D01*
X0367972Y0164050D01*
X0368014Y0164013D01*
X0368059Y0163979D01*
X0368106Y0163949D01*
X0368154Y0163922D01*
X0368205Y0163898D01*
X0368257Y0163877D01*
X0368310Y0163860D01*
X0368364Y0163847D01*
X0368419Y0163838D01*
X0368475Y0163832D01*
X0368530Y0163830D01*
X0368531Y0163830D02*
X0368593Y0163832D01*
X0368654Y0163838D01*
X0368715Y0163847D01*
X0368776Y0163860D01*
X0368835Y0163877D01*
X0368893Y0163897D01*
X0368950Y0163920D01*
X0369006Y0163947D01*
X0369060Y0163978D01*
X0369111Y0164011D01*
X0369161Y0164048D01*
X0369208Y0164087D01*
X0369253Y0164130D01*
X0369296Y0164175D01*
X0369335Y0164222D01*
X0369372Y0164272D01*
X0369405Y0164323D01*
X0369436Y0164377D01*
X0369463Y0164433D01*
X0369486Y0164490D01*
X0369506Y0164548D01*
X0369523Y0164607D01*
X0369536Y0164668D01*
X0369545Y0164729D01*
X0369551Y0164790D01*
X0369553Y0164852D01*
X0369552Y0164851D02*
X0369552Y0178749D01*
X0369550Y0178811D01*
X0369545Y0178873D01*
X0369535Y0178934D01*
X0369522Y0178994D01*
X0369506Y0179053D01*
X0369486Y0179112D01*
X0369462Y0179169D01*
X0369435Y0179224D01*
X0369405Y0179278D01*
X0369371Y0179330D01*
X0369334Y0179379D01*
X0369295Y0179427D01*
X0369253Y0179472D01*
X0369208Y0179514D01*
X0369160Y0179553D01*
X0369111Y0179590D01*
X0369059Y0179624D01*
X0369005Y0179654D01*
X0368950Y0179681D01*
X0368893Y0179705D01*
X0368834Y0179725D01*
X0368775Y0179741D01*
X0368715Y0179754D01*
X0368654Y0179764D01*
X0368592Y0179769D01*
X0368530Y0179771D01*
X0365669Y0179772D02*
X0358311Y0179772D01*
X0358106Y0179771D02*
X0358106Y0183654D01*
X0358311Y0183654D02*
X0359742Y0183654D01*
X0333164Y0187511D02*
X0330095Y0190581D01*
X0330095Y0191348D01*
X0330862Y0192115D01*
X0332396Y0192115D01*
X0333164Y0191348D01*
X0333164Y0187511D02*
X0330095Y0187511D01*
X0328560Y0187511D02*
X0325491Y0190581D01*
X0325491Y0191348D01*
X0326258Y0192115D01*
X0327793Y0192115D01*
X0328560Y0191348D01*
X0328560Y0187511D02*
X0325491Y0187511D01*
X0358107Y0163830D02*
X0358107Y0159946D01*
X0358311Y0159946D02*
X0359742Y0159946D01*
X0358311Y0163829D02*
X0365669Y0163829D01*
X0382961Y0149104D02*
X0384496Y0149104D01*
X0383729Y0149104D02*
X0383729Y0144500D01*
X0384496Y0144500D02*
X0382961Y0144500D01*
X0386031Y0144500D02*
X0386031Y0149104D01*
X0387565Y0147569D01*
X0389100Y0149104D01*
X0389100Y0144500D01*
X0333750Y0153580D02*
X0330681Y0156649D01*
X0330681Y0157416D01*
X0331448Y0158184D01*
X0332983Y0158184D01*
X0333750Y0157416D01*
X0333750Y0153580D02*
X0330681Y0153580D01*
X0329146Y0153580D02*
X0326077Y0156649D01*
X0326077Y0157416D01*
X0326844Y0158184D01*
X0328379Y0158184D01*
X0329146Y0157416D01*
X0329146Y0153580D02*
X0326077Y0153580D01*
X0284100Y0157000D02*
X0281031Y0157000D01*
X0282565Y0157000D02*
X0282565Y0161604D01*
X0284100Y0160069D01*
X0279496Y0160837D02*
X0279496Y0157767D01*
X0276427Y0160837D01*
X0276427Y0157767D01*
X0277194Y0157000D01*
X0278729Y0157000D01*
X0279496Y0157767D01*
X0279496Y0160837D02*
X0278729Y0161604D01*
X0277194Y0161604D01*
X0276427Y0160837D01*
X0274892Y0160069D02*
X0274892Y0157767D01*
X0274125Y0157000D01*
X0271823Y0157000D01*
X0271823Y0160069D01*
X0261604Y0192916D02*
X0261604Y0195985D01*
X0260837Y0195985D01*
D126*
X0057300Y0034702D02*
X0057300Y0008898D01*
X0071300Y0008898D01*
X0071300Y0034702D01*
X0057300Y0034702D01*
X0109486Y0021879D02*
X0115625Y0021879D01*
X0112556Y0024948D02*
X0112556Y0018810D01*
X0121288Y0043788D02*
X0121288Y0054812D01*
X0132312Y0054812D01*
X0132312Y0043788D01*
X0121288Y0043788D01*
X0164300Y0134300D02*
X0164300Y0149300D01*
X0164123Y0182902D02*
X0129477Y0182902D01*
X0127902Y0184477D01*
X0127902Y0219123D01*
X0129477Y0220698D01*
X0164123Y0220698D01*
X0165698Y0219123D01*
X0165698Y0184477D01*
X0164123Y0182902D01*
X0237556Y0276310D02*
X0237556Y0282448D01*
X0240625Y0279379D02*
X0234486Y0279379D01*
X0296150Y0267509D02*
X0302450Y0267509D01*
X0302450Y0263572D02*
X0302450Y0260028D01*
X0302450Y0256091D02*
X0296150Y0256091D01*
D127*
X0293087Y0266970D02*
X0290618Y0266970D01*
X0291853Y0266970D02*
X0291853Y0270673D01*
X0293087Y0269438D01*
X0289404Y0270056D02*
X0288787Y0270673D01*
X0287552Y0270673D01*
X0286935Y0270056D01*
X0289404Y0267587D01*
X0288787Y0266970D01*
X0287552Y0266970D01*
X0286935Y0267587D01*
X0286935Y0270056D01*
X0285721Y0269438D02*
X0285721Y0267587D01*
X0285104Y0266970D01*
X0283252Y0266970D01*
X0283252Y0269438D01*
X0289404Y0270056D02*
X0289404Y0267587D01*
X0308228Y0226633D02*
X0307611Y0226016D01*
X0310079Y0223548D01*
X0309462Y0222930D01*
X0308228Y0222930D01*
X0307611Y0223548D01*
X0307611Y0226016D01*
X0308228Y0226633D02*
X0309462Y0226633D01*
X0310079Y0226016D01*
X0310079Y0223548D01*
X0311294Y0222930D02*
X0313762Y0222930D01*
X0312528Y0222930D02*
X0312528Y0226633D01*
X0313762Y0225399D01*
X0306396Y0225399D02*
X0306396Y0223548D01*
X0305779Y0222930D01*
X0303927Y0222930D01*
X0303927Y0225399D01*
X0324076Y0213068D02*
X0325310Y0211833D01*
X0325310Y0212450D02*
X0325310Y0210599D01*
X0324076Y0210599D02*
X0327779Y0210599D01*
X0327779Y0212450D01*
X0327162Y0213068D01*
X0325928Y0213068D01*
X0325310Y0212450D01*
X0324693Y0209384D02*
X0327162Y0209384D01*
X0327779Y0208767D01*
X0327779Y0207533D01*
X0327162Y0206916D01*
X0324693Y0206916D01*
X0324076Y0207533D01*
X0324076Y0208767D01*
X0324693Y0209384D01*
X0327779Y0205701D02*
X0327779Y0203232D01*
X0327779Y0204467D02*
X0324076Y0204467D01*
X0324693Y0202018D02*
X0324076Y0201401D01*
X0324076Y0200167D01*
X0324693Y0199549D01*
X0324076Y0198328D02*
X0324076Y0197094D01*
X0324076Y0197711D02*
X0327779Y0197711D01*
X0327779Y0197094D02*
X0327779Y0198328D01*
X0327162Y0199549D02*
X0326545Y0199549D01*
X0325928Y0200167D01*
X0325928Y0201401D01*
X0325310Y0202018D01*
X0324693Y0202018D01*
X0327162Y0202018D02*
X0327779Y0201401D01*
X0327779Y0200167D01*
X0327162Y0199549D01*
X0327162Y0195880D02*
X0325928Y0195880D01*
X0325310Y0195262D01*
X0325310Y0193411D01*
X0324076Y0193411D02*
X0327779Y0193411D01*
X0327779Y0195262D01*
X0327162Y0195880D01*
X0325310Y0194645D02*
X0324076Y0195880D01*
X0324076Y0192196D02*
X0326545Y0192196D01*
X0327779Y0190962D01*
X0326545Y0189728D01*
X0324076Y0189728D01*
X0325310Y0188513D02*
X0324076Y0187279D01*
X0325310Y0186044D01*
X0327779Y0186044D01*
X0327779Y0188513D02*
X0325310Y0188513D01*
X0325928Y0189728D02*
X0325928Y0192196D01*
X0325928Y0170568D02*
X0325310Y0169950D01*
X0325310Y0168099D01*
X0324076Y0168099D02*
X0327779Y0168099D01*
X0327779Y0169950D01*
X0327162Y0170568D01*
X0325928Y0170568D01*
X0325310Y0169333D02*
X0324076Y0170568D01*
X0324693Y0166884D02*
X0327162Y0166884D01*
X0327779Y0166267D01*
X0327779Y0165033D01*
X0327162Y0164416D01*
X0324693Y0164416D01*
X0324076Y0165033D01*
X0324076Y0166267D01*
X0324693Y0166884D01*
X0327779Y0163201D02*
X0327779Y0160732D01*
X0327779Y0161967D02*
X0324076Y0161967D01*
X0324693Y0159518D02*
X0324076Y0158901D01*
X0324076Y0157667D01*
X0324693Y0157049D01*
X0324076Y0155828D02*
X0324076Y0154594D01*
X0324076Y0155211D02*
X0327779Y0155211D01*
X0327779Y0154594D02*
X0327779Y0155828D01*
X0327162Y0157049D02*
X0326545Y0157049D01*
X0325928Y0157667D01*
X0325928Y0158901D01*
X0325310Y0159518D01*
X0324693Y0159518D01*
X0327162Y0159518D02*
X0327779Y0158901D01*
X0327779Y0157667D01*
X0327162Y0157049D01*
X0327162Y0153380D02*
X0325928Y0153380D01*
X0325310Y0152762D01*
X0325310Y0150911D01*
X0324076Y0150911D02*
X0327779Y0150911D01*
X0327779Y0152762D01*
X0327162Y0153380D01*
X0325310Y0152145D02*
X0324076Y0153380D01*
X0324076Y0149696D02*
X0326545Y0149696D01*
X0327779Y0148462D01*
X0326545Y0147228D01*
X0324076Y0147228D01*
X0325310Y0146013D02*
X0324076Y0144779D01*
X0325310Y0143544D01*
X0327779Y0143544D01*
X0327779Y0146013D02*
X0325310Y0146013D01*
X0325928Y0147228D02*
X0325928Y0149696D01*
X0197662Y0169067D02*
X0195193Y0169067D01*
X0196427Y0169067D02*
X0196427Y0172770D01*
X0197662Y0171535D01*
X0193978Y0172153D02*
X0193978Y0169684D01*
X0191510Y0172153D01*
X0191510Y0169684D01*
X0192127Y0169067D01*
X0193361Y0169067D01*
X0193978Y0169684D01*
X0193978Y0172153D02*
X0193361Y0172770D01*
X0192127Y0172770D01*
X0191510Y0172153D01*
X0190295Y0172153D02*
X0189678Y0172770D01*
X0188444Y0172770D01*
X0187827Y0172153D01*
X0190295Y0169684D01*
X0189678Y0169067D01*
X0188444Y0169067D01*
X0187827Y0169684D01*
X0187827Y0172153D01*
X0186612Y0171535D02*
X0184761Y0171535D01*
X0184143Y0170918D01*
X0184143Y0169067D01*
X0182929Y0169067D02*
X0182929Y0172770D01*
X0180460Y0172770D01*
X0181695Y0170918D02*
X0182929Y0170918D01*
X0186612Y0171535D02*
X0186612Y0169067D01*
X0190295Y0169684D02*
X0190295Y0172153D01*
X0189906Y0194557D02*
X0190523Y0195174D01*
X0188054Y0197643D01*
X0188054Y0195174D01*
X0188672Y0194557D01*
X0189906Y0194557D01*
X0190523Y0195174D02*
X0190523Y0197643D01*
X0189906Y0198260D01*
X0188672Y0198260D01*
X0188054Y0197643D01*
X0186840Y0197026D02*
X0184988Y0197026D01*
X0184371Y0196409D01*
X0184371Y0194557D01*
X0183157Y0194557D02*
X0183157Y0198260D01*
X0180688Y0198260D01*
X0181922Y0196409D02*
X0183157Y0196409D01*
X0186840Y0197026D02*
X0186840Y0194557D01*
X0191738Y0195174D02*
X0191738Y0197643D01*
X0194206Y0195174D01*
X0193589Y0194557D01*
X0192355Y0194557D01*
X0191738Y0195174D01*
X0194206Y0195174D02*
X0194206Y0197643D01*
X0193589Y0198260D01*
X0192355Y0198260D01*
X0191738Y0197643D01*
X0195421Y0194557D02*
X0197889Y0194557D01*
X0196655Y0194557D02*
X0196655Y0198260D01*
X0197889Y0197026D01*
X0186288Y0222963D02*
X0187523Y0224197D01*
X0183820Y0224197D01*
X0183820Y0222963D02*
X0183820Y0225432D01*
X0184437Y0226646D02*
X0186906Y0229115D01*
X0184437Y0229115D01*
X0183820Y0228498D01*
X0183820Y0227263D01*
X0184437Y0226646D01*
X0186906Y0226646D01*
X0187523Y0227263D01*
X0187523Y0228498D01*
X0186906Y0229115D01*
X0186906Y0230329D02*
X0187523Y0230946D01*
X0187523Y0232181D01*
X0186906Y0232798D01*
X0184437Y0230329D01*
X0183820Y0230946D01*
X0183820Y0232181D01*
X0184437Y0232798D01*
X0186906Y0232798D01*
X0186288Y0234012D02*
X0186288Y0235864D01*
X0185671Y0236481D01*
X0183820Y0236481D01*
X0183820Y0237696D02*
X0187523Y0237696D01*
X0187523Y0240164D01*
X0185671Y0238930D02*
X0185671Y0237696D01*
X0186288Y0234012D02*
X0183820Y0234012D01*
X0184437Y0230329D02*
X0186906Y0230329D01*
X0133402Y0092508D02*
X0134019Y0091891D01*
X0134019Y0090656D01*
X0133402Y0090039D01*
X0130933Y0090039D01*
X0130316Y0090656D01*
X0130316Y0091891D01*
X0130933Y0092508D01*
X0132168Y0092508D01*
X0132168Y0091274D01*
X0132785Y0088825D02*
X0133402Y0088825D01*
X0134019Y0088208D01*
X0134019Y0086973D01*
X0133402Y0086356D01*
X0133402Y0085142D02*
X0132168Y0085142D01*
X0131551Y0084525D01*
X0131551Y0082673D01*
X0131551Y0083907D02*
X0130316Y0085142D01*
X0130316Y0086356D02*
X0132785Y0088825D01*
X0130316Y0088825D02*
X0130316Y0086356D01*
X0133402Y0085142D02*
X0134019Y0084525D01*
X0134019Y0082673D01*
X0130316Y0082673D01*
X0130316Y0081459D02*
X0134019Y0081459D01*
X0132785Y0080224D01*
X0134019Y0078990D01*
X0130316Y0078990D01*
X0130933Y0077775D02*
X0130316Y0077158D01*
X0130316Y0075307D01*
X0134019Y0075307D01*
X0134019Y0077158D01*
X0133402Y0077775D01*
X0130933Y0077775D01*
X0130933Y0074092D02*
X0130316Y0073475D01*
X0130316Y0072241D01*
X0130933Y0071624D01*
X0132168Y0071624D02*
X0132785Y0072858D01*
X0132785Y0073475D01*
X0132168Y0074092D01*
X0130933Y0074092D01*
X0132168Y0071624D02*
X0134019Y0071624D01*
X0134019Y0074092D01*
X0134019Y0070409D02*
X0133402Y0070409D01*
X0130933Y0067940D01*
X0130316Y0067940D01*
X0130316Y0065492D02*
X0134019Y0065492D01*
X0134019Y0066726D02*
X0134019Y0064257D01*
X0133402Y0063043D02*
X0134019Y0062426D01*
X0134019Y0061191D01*
X0133402Y0060574D01*
X0130933Y0060574D01*
X0130316Y0061191D01*
X0130316Y0062426D01*
X0130933Y0063043D01*
X0130316Y0059360D02*
X0134019Y0059360D01*
X0134019Y0056891D02*
X0130316Y0056891D01*
X0130316Y0059360D02*
X0134019Y0056891D01*
X0134019Y0067940D02*
X0134019Y0070409D01*
X0129353Y0035673D02*
X0129353Y0031970D01*
X0130587Y0031970D02*
X0128118Y0031970D01*
X0126904Y0032587D02*
X0124435Y0035056D01*
X0124435Y0032587D01*
X0125052Y0031970D01*
X0126287Y0031970D01*
X0126904Y0032587D01*
X0126904Y0035056D01*
X0126287Y0035673D01*
X0125052Y0035673D01*
X0124435Y0035056D01*
X0123221Y0034438D02*
X0123221Y0032587D01*
X0122604Y0031970D01*
X0120752Y0031970D01*
X0120752Y0034438D01*
X0129353Y0035673D02*
X0130587Y0034438D01*
X0129894Y0011633D02*
X0129894Y0007930D01*
X0128660Y0007930D02*
X0131129Y0007930D01*
X0131129Y0010399D02*
X0129894Y0011633D01*
X0127446Y0011016D02*
X0126828Y0011633D01*
X0125594Y0011633D01*
X0124977Y0011016D01*
X0127446Y0008548D01*
X0126828Y0007930D01*
X0125594Y0007930D01*
X0124977Y0008548D01*
X0124977Y0011016D01*
X0123762Y0011016D02*
X0123145Y0011633D01*
X0121911Y0011633D01*
X0121294Y0011016D01*
X0123762Y0008548D01*
X0123145Y0007930D01*
X0121911Y0007930D01*
X0121294Y0008548D01*
X0121294Y0011016D01*
X0120079Y0010399D02*
X0118228Y0010399D01*
X0117611Y0009782D01*
X0117611Y0007930D01*
X0116396Y0007930D02*
X0116396Y0011633D01*
X0113927Y0011633D01*
X0115162Y0009782D02*
X0116396Y0009782D01*
X0120079Y0010399D02*
X0120079Y0007930D01*
X0123762Y0008548D02*
X0123762Y0011016D01*
X0127446Y0011016D02*
X0127446Y0008548D01*
D128*
X0161435Y0186052D02*
X0161437Y0186119D01*
X0161443Y0186185D01*
X0161453Y0186251D01*
X0161467Y0186316D01*
X0161484Y0186380D01*
X0161506Y0186443D01*
X0161531Y0186505D01*
X0161560Y0186565D01*
X0161593Y0186623D01*
X0161628Y0186679D01*
X0161668Y0186733D01*
X0161710Y0186784D01*
X0161755Y0186833D01*
X0161803Y0186879D01*
X0161854Y0186922D01*
X0161907Y0186962D01*
X0161963Y0186999D01*
X0162021Y0187032D01*
X0162080Y0187062D01*
X0162141Y0187088D01*
X0162204Y0187111D01*
X0162268Y0187129D01*
X0162333Y0187144D01*
X0162399Y0187155D01*
X0162465Y0187162D01*
X0162531Y0187165D01*
X0162598Y0187164D01*
X0162664Y0187159D01*
X0162730Y0187150D01*
X0162796Y0187137D01*
X0162860Y0187120D01*
X0162923Y0187100D01*
X0162985Y0187075D01*
X0163046Y0187047D01*
X0163105Y0187016D01*
X0163161Y0186981D01*
X0163216Y0186943D01*
X0163268Y0186901D01*
X0163317Y0186856D01*
X0163364Y0186809D01*
X0163408Y0186759D01*
X0163448Y0186706D01*
X0163486Y0186651D01*
X0163520Y0186594D01*
X0163551Y0186535D01*
X0163578Y0186474D01*
X0163601Y0186412D01*
X0163621Y0186348D01*
X0163637Y0186283D01*
X0163649Y0186218D01*
X0163657Y0186152D01*
X0163661Y0186085D01*
X0163661Y0186019D01*
X0163657Y0185952D01*
X0163649Y0185886D01*
X0163637Y0185821D01*
X0163621Y0185756D01*
X0163601Y0185692D01*
X0163578Y0185630D01*
X0163551Y0185569D01*
X0163520Y0185510D01*
X0163486Y0185453D01*
X0163448Y0185398D01*
X0163408Y0185345D01*
X0163364Y0185295D01*
X0163317Y0185248D01*
X0163268Y0185203D01*
X0163216Y0185161D01*
X0163161Y0185123D01*
X0163104Y0185088D01*
X0163046Y0185057D01*
X0162985Y0185029D01*
X0162923Y0185004D01*
X0162860Y0184984D01*
X0162796Y0184967D01*
X0162730Y0184954D01*
X0162664Y0184945D01*
X0162598Y0184940D01*
X0162531Y0184939D01*
X0162465Y0184942D01*
X0162399Y0184949D01*
X0162333Y0184960D01*
X0162268Y0184975D01*
X0162204Y0184993D01*
X0162141Y0185016D01*
X0162080Y0185042D01*
X0162021Y0185072D01*
X0161963Y0185105D01*
X0161907Y0185142D01*
X0161854Y0185182D01*
X0161803Y0185225D01*
X0161755Y0185271D01*
X0161710Y0185320D01*
X0161668Y0185371D01*
X0161628Y0185425D01*
X0161593Y0185481D01*
X0161560Y0185539D01*
X0161531Y0185599D01*
X0161506Y0185661D01*
X0161484Y0185724D01*
X0161467Y0185788D01*
X0161453Y0185853D01*
X0161443Y0185919D01*
X0161437Y0185985D01*
X0161435Y0186052D01*
D129*
X0107961Y0190915D02*
X0107961Y0212685D01*
X0107959Y0212750D01*
X0107953Y0212814D01*
X0107944Y0212878D01*
X0107931Y0212942D01*
X0107914Y0213004D01*
X0107894Y0213066D01*
X0107870Y0213126D01*
X0107843Y0213185D01*
X0107812Y0213242D01*
X0107778Y0213297D01*
X0107741Y0213350D01*
X0107701Y0213400D01*
X0107658Y0213449D01*
X0107612Y0213495D01*
X0107563Y0213538D01*
X0107513Y0213578D01*
X0107460Y0213615D01*
X0107405Y0213649D01*
X0107348Y0213680D01*
X0107289Y0213707D01*
X0107229Y0213731D01*
X0107167Y0213751D01*
X0107105Y0213768D01*
X0107041Y0213781D01*
X0106977Y0213790D01*
X0106913Y0213796D01*
X0106848Y0213798D01*
X0096519Y0213798D01*
X0096461Y0213796D01*
X0096404Y0213790D01*
X0096347Y0213781D01*
X0096291Y0213768D01*
X0096236Y0213751D01*
X0096182Y0213731D01*
X0096130Y0213707D01*
X0096079Y0213680D01*
X0096030Y0213650D01*
X0095983Y0213616D01*
X0095939Y0213580D01*
X0095897Y0213540D01*
X0095857Y0213498D01*
X0095821Y0213454D01*
X0095787Y0213407D01*
X0095757Y0213358D01*
X0095730Y0213307D01*
X0095706Y0213255D01*
X0095686Y0213201D01*
X0095669Y0213146D01*
X0095656Y0213090D01*
X0095647Y0213033D01*
X0095641Y0212976D01*
X0095639Y0212918D01*
X0095639Y0191047D01*
X0095638Y0191047D02*
X0095640Y0190977D01*
X0095646Y0190908D01*
X0095656Y0190838D01*
X0095669Y0190770D01*
X0095687Y0190702D01*
X0095708Y0190636D01*
X0095733Y0190571D01*
X0095761Y0190507D01*
X0095793Y0190445D01*
X0095829Y0190385D01*
X0095868Y0190327D01*
X0095910Y0190271D01*
X0095955Y0190217D01*
X0096003Y0190167D01*
X0096053Y0190119D01*
X0096107Y0190074D01*
X0096163Y0190032D01*
X0096221Y0189993D01*
X0096281Y0189957D01*
X0096343Y0189925D01*
X0096407Y0189897D01*
X0096472Y0189872D01*
X0096538Y0189851D01*
X0096606Y0189833D01*
X0096674Y0189820D01*
X0096744Y0189810D01*
X0096813Y0189804D01*
X0096883Y0189802D01*
X0106848Y0189802D01*
X0106913Y0189804D01*
X0106977Y0189810D01*
X0107041Y0189819D01*
X0107105Y0189832D01*
X0107167Y0189849D01*
X0107229Y0189869D01*
X0107289Y0189893D01*
X0107348Y0189920D01*
X0107405Y0189951D01*
X0107460Y0189985D01*
X0107513Y0190022D01*
X0107563Y0190062D01*
X0107612Y0190105D01*
X0107658Y0190151D01*
X0107701Y0190200D01*
X0107741Y0190250D01*
X0107778Y0190303D01*
X0107812Y0190359D01*
X0107843Y0190415D01*
X0107870Y0190474D01*
X0107894Y0190534D01*
X0107914Y0190596D01*
X0107931Y0190658D01*
X0107944Y0190722D01*
X0107953Y0190786D01*
X0107959Y0190850D01*
X0107961Y0190915D01*
X0106387Y0193345D02*
X0106387Y0210255D01*
X0106385Y0210332D01*
X0106379Y0210409D01*
X0106370Y0210486D01*
X0106357Y0210562D01*
X0106340Y0210638D01*
X0106319Y0210712D01*
X0106295Y0210786D01*
X0106267Y0210858D01*
X0106236Y0210928D01*
X0106201Y0210997D01*
X0106163Y0211065D01*
X0106122Y0211130D01*
X0106077Y0211193D01*
X0106029Y0211254D01*
X0105979Y0211313D01*
X0105926Y0211369D01*
X0105870Y0211422D01*
X0105811Y0211472D01*
X0105750Y0211520D01*
X0105687Y0211565D01*
X0105622Y0211606D01*
X0105554Y0211644D01*
X0105485Y0211679D01*
X0105415Y0211710D01*
X0105343Y0211738D01*
X0105269Y0211762D01*
X0105195Y0211783D01*
X0105119Y0211800D01*
X0105043Y0211813D01*
X0104966Y0211822D01*
X0104889Y0211828D01*
X0104812Y0211830D01*
X0098788Y0211830D01*
X0098702Y0211828D01*
X0098616Y0211823D01*
X0098531Y0211813D01*
X0098446Y0211800D01*
X0098362Y0211783D01*
X0098278Y0211763D01*
X0098196Y0211739D01*
X0098115Y0211711D01*
X0098034Y0211680D01*
X0097956Y0211646D01*
X0097879Y0211608D01*
X0097804Y0211566D01*
X0097730Y0211522D01*
X0097659Y0211474D01*
X0097589Y0211423D01*
X0097522Y0211369D01*
X0097458Y0211313D01*
X0097396Y0211253D01*
X0097336Y0211191D01*
X0097280Y0211127D01*
X0097226Y0211060D01*
X0097175Y0210990D01*
X0097127Y0210919D01*
X0097083Y0210846D01*
X0097041Y0210770D01*
X0097003Y0210693D01*
X0096969Y0210615D01*
X0096938Y0210534D01*
X0096910Y0210453D01*
X0096886Y0210371D01*
X0096866Y0210287D01*
X0096849Y0210203D01*
X0096836Y0210118D01*
X0096826Y0210033D01*
X0096821Y0209947D01*
X0096819Y0209861D01*
X0096820Y0209861D02*
X0096820Y0193345D01*
X0096819Y0193345D02*
X0096830Y0193263D01*
X0096845Y0193182D01*
X0096863Y0193102D01*
X0096885Y0193023D01*
X0096911Y0192945D01*
X0096940Y0192868D01*
X0096973Y0192792D01*
X0097010Y0192718D01*
X0097049Y0192646D01*
X0097092Y0192576D01*
X0097139Y0192508D01*
X0097188Y0192442D01*
X0097240Y0192378D01*
X0097295Y0192317D01*
X0097353Y0192258D01*
X0097414Y0192203D01*
X0097477Y0192150D01*
X0097543Y0192100D01*
X0097610Y0192053D01*
X0097680Y0192009D01*
X0097752Y0191969D01*
X0097826Y0191932D01*
X0097901Y0191898D01*
X0097977Y0191868D01*
X0098055Y0191841D01*
X0098134Y0191818D01*
X0098215Y0191799D01*
X0098295Y0191784D01*
X0098377Y0191772D01*
X0098459Y0191764D01*
X0098541Y0191760D01*
X0098624Y0191759D01*
X0098706Y0191763D01*
X0098788Y0191770D01*
X0104812Y0191770D01*
X0104889Y0191772D01*
X0104966Y0191778D01*
X0105043Y0191787D01*
X0105119Y0191800D01*
X0105195Y0191817D01*
X0105269Y0191838D01*
X0105343Y0191862D01*
X0105415Y0191890D01*
X0105485Y0191921D01*
X0105554Y0191956D01*
X0105622Y0191994D01*
X0105687Y0192035D01*
X0105750Y0192080D01*
X0105811Y0192128D01*
X0105870Y0192178D01*
X0105926Y0192231D01*
X0105979Y0192287D01*
X0106029Y0192346D01*
X0106077Y0192407D01*
X0106122Y0192470D01*
X0106163Y0192535D01*
X0106201Y0192603D01*
X0106236Y0192672D01*
X0106267Y0192742D01*
X0106295Y0192814D01*
X0106319Y0192888D01*
X0106340Y0192962D01*
X0106357Y0193038D01*
X0106370Y0193114D01*
X0106379Y0193191D01*
X0106385Y0193268D01*
X0106387Y0193345D01*
X0050554Y0191802D02*
X0050554Y0189550D01*
X0046050Y0189550D01*
X0047551Y0189550D02*
X0047551Y0191802D01*
X0048302Y0192553D01*
X0049803Y0192553D01*
X0050554Y0191802D01*
X0047551Y0191051D02*
X0046050Y0192553D01*
X0048302Y0194154D02*
X0048302Y0197156D01*
X0049803Y0198758D02*
X0046801Y0198758D01*
X0046050Y0199508D01*
X0046050Y0201010D01*
X0046801Y0201760D01*
X0046801Y0203362D02*
X0046050Y0204112D01*
X0046050Y0205614D01*
X0046801Y0206364D01*
X0047551Y0206364D01*
X0048302Y0205614D01*
X0048302Y0203362D01*
X0046801Y0203362D01*
X0048302Y0203362D02*
X0049803Y0204863D01*
X0050554Y0206364D01*
X0050554Y0207966D02*
X0050554Y0210218D01*
X0049803Y0210968D01*
X0048302Y0210968D01*
X0047551Y0210218D01*
X0047551Y0207966D01*
X0046050Y0207966D02*
X0050554Y0207966D01*
X0049803Y0201760D02*
X0050554Y0201010D01*
X0050554Y0199508D01*
X0049803Y0198758D01*
X0153844Y0139454D02*
X0153844Y0136451D01*
X0155345Y0134950D01*
X0156846Y0136451D01*
X0156846Y0139454D01*
X0158447Y0139454D02*
X0158447Y0135701D01*
X0159198Y0134950D01*
X0160699Y0134950D01*
X0161450Y0135701D01*
X0161450Y0139454D01*
X0263926Y0062292D02*
X0279674Y0062292D01*
X0279960Y0062096D01*
X0280242Y0061893D01*
X0280518Y0061684D01*
X0280789Y0061467D01*
X0281055Y0061244D01*
X0281315Y0061015D01*
X0281570Y0060779D01*
X0281818Y0060537D01*
X0282061Y0060290D01*
X0282298Y0060036D01*
X0282528Y0059777D01*
X0282752Y0059512D01*
X0282969Y0059242D01*
X0283180Y0058966D01*
X0283384Y0058685D01*
X0283581Y0058400D01*
X0283771Y0058110D01*
X0283954Y0057815D01*
X0284129Y0057516D01*
X0284297Y0057212D01*
X0284458Y0056905D01*
X0284611Y0056594D01*
X0284757Y0056279D01*
X0284895Y0055961D01*
X0285025Y0055639D01*
X0285147Y0055314D01*
X0285261Y0054987D01*
X0285367Y0054657D01*
X0285465Y0054324D01*
X0285555Y0053989D01*
X0285636Y0053652D01*
X0285710Y0053313D01*
X0285775Y0052972D01*
X0285831Y0052630D01*
X0285880Y0052286D01*
X0285920Y0051942D01*
X0285951Y0051596D01*
X0285974Y0051250D01*
X0285989Y0050904D01*
X0285995Y0050557D01*
X0285992Y0050210D01*
X0285982Y0049863D01*
X0285962Y0049517D01*
X0285934Y0049171D01*
X0285898Y0048826D01*
X0285854Y0048482D01*
X0285801Y0048139D01*
X0285739Y0047798D01*
X0285669Y0047458D01*
X0285591Y0047120D01*
X0285505Y0046784D01*
X0285411Y0046451D01*
X0285308Y0046119D01*
X0285198Y0045790D01*
X0285079Y0045465D01*
X0284953Y0045142D01*
X0284818Y0044822D01*
X0284676Y0044505D01*
X0284526Y0044193D01*
X0284369Y0043883D01*
X0284204Y0043578D01*
X0284031Y0043277D01*
X0283852Y0042981D01*
X0283665Y0042688D01*
X0283471Y0042401D01*
X0283270Y0042118D01*
X0283062Y0041840D01*
X0282848Y0041568D01*
X0282627Y0041300D01*
X0282399Y0041039D01*
X0282165Y0040783D01*
X0281925Y0040532D01*
X0281679Y0040288D01*
X0281427Y0040049D01*
X0281169Y0039817D01*
X0280906Y0039592D01*
X0280637Y0039372D01*
X0280363Y0039160D01*
X0280084Y0038954D01*
X0279800Y0038755D01*
X0279511Y0038563D01*
X0279217Y0038378D01*
X0278919Y0038200D01*
X0278617Y0038030D01*
X0278311Y0037867D01*
X0278001Y0037712D01*
X0277687Y0037564D01*
X0277370Y0037424D01*
X0277049Y0037292D01*
X0276725Y0037168D01*
X0276398Y0037051D01*
X0276069Y0036943D01*
X0275737Y0036843D01*
X0275402Y0036751D01*
X0275066Y0036667D01*
X0274727Y0036591D01*
X0274387Y0036524D01*
X0274045Y0036465D01*
X0273702Y0036414D01*
X0273358Y0036372D01*
X0273013Y0036338D01*
X0272667Y0036312D01*
X0272320Y0036296D01*
X0271973Y0036287D01*
X0271627Y0036287D01*
X0271280Y0036296D01*
X0270933Y0036312D01*
X0270587Y0036338D01*
X0270242Y0036372D01*
X0269898Y0036414D01*
X0269555Y0036465D01*
X0269213Y0036524D01*
X0268873Y0036591D01*
X0268534Y0036667D01*
X0268198Y0036751D01*
X0267863Y0036843D01*
X0267531Y0036943D01*
X0267202Y0037051D01*
X0266875Y0037168D01*
X0266551Y0037292D01*
X0266230Y0037424D01*
X0265913Y0037564D01*
X0265599Y0037712D01*
X0265289Y0037867D01*
X0264983Y0038030D01*
X0264681Y0038200D01*
X0264383Y0038378D01*
X0264089Y0038563D01*
X0263800Y0038755D01*
X0263516Y0038954D01*
X0263237Y0039160D01*
X0262963Y0039372D01*
X0262694Y0039592D01*
X0262431Y0039817D01*
X0262173Y0040049D01*
X0261921Y0040288D01*
X0261675Y0040532D01*
X0261435Y0040783D01*
X0261201Y0041039D01*
X0260973Y0041300D01*
X0260752Y0041568D01*
X0260538Y0041840D01*
X0260330Y0042118D01*
X0260129Y0042401D01*
X0259935Y0042688D01*
X0259748Y0042981D01*
X0259569Y0043277D01*
X0259396Y0043578D01*
X0259231Y0043883D01*
X0259074Y0044193D01*
X0258924Y0044505D01*
X0258782Y0044822D01*
X0258647Y0045142D01*
X0258521Y0045465D01*
X0258402Y0045790D01*
X0258292Y0046119D01*
X0258189Y0046451D01*
X0258095Y0046784D01*
X0258009Y0047120D01*
X0257931Y0047458D01*
X0257861Y0047798D01*
X0257799Y0048139D01*
X0257746Y0048482D01*
X0257702Y0048826D01*
X0257666Y0049171D01*
X0257638Y0049517D01*
X0257618Y0049863D01*
X0257608Y0050210D01*
X0257605Y0050557D01*
X0257611Y0050904D01*
X0257626Y0051250D01*
X0257649Y0051596D01*
X0257680Y0051942D01*
X0257720Y0052286D01*
X0257769Y0052630D01*
X0257825Y0052972D01*
X0257890Y0053313D01*
X0257964Y0053652D01*
X0258045Y0053989D01*
X0258135Y0054324D01*
X0258233Y0054657D01*
X0258339Y0054987D01*
X0258453Y0055314D01*
X0258575Y0055639D01*
X0258705Y0055961D01*
X0258843Y0056279D01*
X0258989Y0056594D01*
X0259142Y0056905D01*
X0259303Y0057212D01*
X0259471Y0057516D01*
X0259646Y0057815D01*
X0259829Y0058110D01*
X0260019Y0058400D01*
X0260216Y0058685D01*
X0260420Y0058966D01*
X0260631Y0059242D01*
X0260848Y0059512D01*
X0261072Y0059777D01*
X0261302Y0060036D01*
X0261539Y0060290D01*
X0261782Y0060537D01*
X0262030Y0060779D01*
X0262285Y0061015D01*
X0262545Y0061244D01*
X0262811Y0061467D01*
X0263082Y0061684D01*
X0263358Y0061893D01*
X0263640Y0062096D01*
X0263926Y0062292D01*
X0284571Y0170800D02*
X0283820Y0171551D01*
X0283820Y0175304D01*
X0286823Y0175304D02*
X0286823Y0171551D01*
X0286072Y0170800D01*
X0284571Y0170800D01*
X0288424Y0171551D02*
X0289175Y0170800D01*
X0290676Y0170800D01*
X0291426Y0171551D01*
X0291426Y0173052D02*
X0289925Y0173803D01*
X0289175Y0173803D01*
X0288424Y0173052D01*
X0288424Y0171551D01*
X0291426Y0173052D02*
X0291426Y0175304D01*
X0288424Y0175304D01*
X0293028Y0173052D02*
X0296030Y0173052D01*
X0293778Y0175304D01*
X0293778Y0170800D01*
X0297632Y0171551D02*
X0297632Y0174553D01*
X0300634Y0171551D01*
X0299884Y0170800D01*
X0298382Y0170800D01*
X0297632Y0171551D01*
X0297632Y0174553D02*
X0298382Y0175304D01*
X0299884Y0175304D01*
X0300634Y0174553D01*
X0300634Y0171551D01*
X0302236Y0170800D02*
X0305238Y0170800D01*
X0303737Y0170800D02*
X0303737Y0175304D01*
X0305238Y0173803D01*
X0306840Y0174553D02*
X0306840Y0173052D01*
X0307590Y0172301D01*
X0309842Y0172301D01*
X0309842Y0170800D02*
X0309842Y0175304D01*
X0307590Y0175304D01*
X0306840Y0174553D01*
X0311444Y0175304D02*
X0311444Y0170800D01*
X0314446Y0170800D02*
X0314446Y0175304D01*
X0312945Y0173803D01*
X0311444Y0175304D01*
X0316047Y0174553D02*
X0316047Y0171551D01*
X0316798Y0170800D01*
X0319050Y0170800D01*
X0319050Y0175304D01*
X0316798Y0175304D01*
X0316047Y0174553D01*
X0260362Y0276050D02*
X0258110Y0276050D01*
X0257359Y0276801D01*
X0257359Y0277551D01*
X0258110Y0278302D01*
X0260362Y0278302D01*
X0260362Y0276050D02*
X0260362Y0280554D01*
X0258110Y0280554D01*
X0257359Y0279803D01*
X0257359Y0279053D01*
X0258110Y0278302D01*
X0255758Y0278302D02*
X0252755Y0278302D01*
X0252755Y0279053D02*
X0252755Y0276050D01*
X0252755Y0279053D02*
X0254257Y0280554D01*
X0255758Y0279053D01*
X0255758Y0276050D01*
X0251154Y0280554D02*
X0248151Y0280554D01*
X0249653Y0280554D02*
X0249653Y0276050D01*
X0017800Y0100800D02*
X0017800Y0099300D01*
X0017300Y0098800D01*
X0015800Y0099800D02*
X0015800Y0100800D01*
X0015300Y0101300D01*
X0014300Y0101300D01*
X0013800Y0100800D01*
X0013800Y0099300D01*
X0014300Y0098800D01*
X0015800Y0100800D02*
X0016300Y0101300D01*
X0017300Y0101300D01*
X0017800Y0100800D01*
X0008803Y0091010D02*
X0007301Y0088758D01*
X0005800Y0091010D01*
X0005800Y0088758D02*
X0010304Y0088758D01*
X0009553Y0087156D02*
X0006551Y0087156D01*
X0005800Y0086406D01*
X0005800Y0084905D01*
X0006551Y0084154D01*
X0009553Y0087156D01*
X0010304Y0086406D01*
X0010304Y0084905D01*
X0009553Y0084154D01*
X0006551Y0084154D01*
X0005800Y0082553D02*
X0005800Y0079550D01*
X0005800Y0081051D02*
X0010304Y0081051D01*
X0008803Y0079550D01*
X0013800Y0083300D02*
X0013800Y0084300D01*
X0013800Y0085300D01*
X0013800Y0084300D02*
X0017800Y0084300D01*
X0016800Y0083300D01*
X0098264Y0052922D02*
X0098382Y0052920D01*
X0098500Y0052914D01*
X0098618Y0052904D01*
X0098735Y0052890D01*
X0098852Y0052873D01*
X0098968Y0052851D01*
X0099084Y0052826D01*
X0099198Y0052796D01*
X0099312Y0052763D01*
X0099424Y0052726D01*
X0099535Y0052686D01*
X0099644Y0052641D01*
X0099752Y0052593D01*
X0099859Y0052542D01*
X0099963Y0052487D01*
X0100066Y0052428D01*
X0100167Y0052366D01*
X0100265Y0052301D01*
X0100361Y0052233D01*
X0100455Y0052161D01*
X0100547Y0052086D01*
X0100636Y0052008D01*
X0100722Y0051928D01*
X0100806Y0051844D01*
X0100886Y0051758D01*
X0100964Y0051669D01*
X0101039Y0051577D01*
X0101111Y0051483D01*
X0101179Y0051387D01*
X0101244Y0051289D01*
X0101306Y0051188D01*
X0101365Y0051085D01*
X0101420Y0050981D01*
X0101471Y0050874D01*
X0101519Y0050766D01*
X0101564Y0050657D01*
X0101604Y0050546D01*
X0101641Y0050434D01*
X0101674Y0050320D01*
X0101704Y0050206D01*
X0101729Y0050090D01*
X0101751Y0049974D01*
X0101768Y0049857D01*
X0101782Y0049740D01*
X0101792Y0049622D01*
X0101798Y0049504D01*
X0101800Y0049386D01*
X0101798Y0049268D01*
X0101792Y0049150D01*
X0101782Y0049032D01*
X0101768Y0048915D01*
X0101751Y0048798D01*
X0101729Y0048682D01*
X0101704Y0048566D01*
X0101674Y0048452D01*
X0101641Y0048338D01*
X0101604Y0048226D01*
X0101564Y0048115D01*
X0101519Y0048006D01*
X0101471Y0047898D01*
X0101420Y0047791D01*
X0101365Y0047687D01*
X0101306Y0047584D01*
X0101244Y0047483D01*
X0101179Y0047385D01*
X0101111Y0047289D01*
X0101039Y0047195D01*
X0100964Y0047103D01*
X0100886Y0047014D01*
X0100806Y0046928D01*
X0100722Y0046844D01*
X0100636Y0046764D01*
X0100547Y0046686D01*
X0100455Y0046611D01*
X0100361Y0046539D01*
X0100265Y0046471D01*
X0100167Y0046406D01*
X0100066Y0046344D01*
X0099963Y0046285D01*
X0099859Y0046230D01*
X0099752Y0046179D01*
X0099644Y0046131D01*
X0099535Y0046086D01*
X0099424Y0046046D01*
X0099312Y0046009D01*
X0099198Y0045976D01*
X0099084Y0045946D01*
X0098968Y0045921D01*
X0098852Y0045899D01*
X0098735Y0045882D01*
X0098618Y0045868D01*
X0098500Y0045858D01*
X0098382Y0045852D01*
X0098264Y0045850D01*
X0098877Y0015054D02*
X0096625Y0015054D01*
X0095874Y0014303D01*
X0095874Y0013553D01*
X0096625Y0012802D01*
X0098877Y0012802D01*
X0098877Y0010550D02*
X0098877Y0015054D01*
X0100445Y0015054D02*
X0101946Y0015054D01*
X0101195Y0015054D02*
X0101195Y0010550D01*
X0100445Y0010550D02*
X0101946Y0010550D01*
X0103547Y0012051D02*
X0103547Y0015054D01*
X0103547Y0012051D02*
X0105049Y0010550D01*
X0106550Y0012051D01*
X0106550Y0015054D01*
X0098877Y0010550D02*
X0096625Y0010550D01*
X0095874Y0011301D01*
X0095874Y0012051D01*
X0096625Y0012802D01*
X0094273Y0012051D02*
X0092021Y0012051D01*
X0091270Y0012802D01*
X0091270Y0014303D01*
X0092021Y0015054D01*
X0094273Y0015054D01*
X0094273Y0010550D01*
X0092772Y0012051D02*
X0091270Y0010550D01*
D130*
X0032160Y0084910D02*
X0030874Y0086816D01*
X0029895Y0086156D02*
X0031181Y0084250D01*
X0028298Y0083200D02*
X0028298Y0083200D01*
X0028057Y0085487D01*
X0028060Y0086485D02*
X0028060Y0088532D01*
X0025540Y0088532D01*
X0025540Y0086485D01*
X0023851Y0086078D02*
X0022990Y0083946D01*
X0022269Y0087228D02*
X0018746Y0084271D01*
X0017981Y0085186D02*
X0021524Y0088139D01*
X0021485Y0090540D02*
X0023532Y0090540D01*
X0023532Y0093060D01*
X0021485Y0093060D01*
X0023532Y0093060D02*
X0025540Y0093060D01*
X0025540Y0095068D01*
X0028060Y0095068D01*
X0028060Y0097115D01*
X0028057Y0098113D02*
X0028298Y0100400D01*
X0028298Y0100400D01*
X0031181Y0099350D02*
X0029895Y0097444D01*
X0030874Y0096784D02*
X0032160Y0098690D01*
X0034213Y0096410D02*
X0032182Y0095331D01*
X0032737Y0094288D02*
X0034767Y0095367D01*
X0032115Y0093060D02*
X0030068Y0093060D01*
X0030068Y0090540D01*
X0032115Y0090540D01*
X0032737Y0089312D02*
X0034767Y0088233D01*
X0034213Y0087190D02*
X0032182Y0088269D01*
X0030068Y0090540D02*
X0028060Y0090540D01*
X0028060Y0088532D01*
X0025540Y0088532D02*
X0025540Y0090540D01*
X0023532Y0090540D01*
X0022272Y0096367D02*
X0022380Y0096471D01*
X0022491Y0096573D01*
X0022603Y0096673D01*
X0022718Y0096769D01*
X0022836Y0096863D01*
X0022955Y0096954D01*
X0023077Y0097043D01*
X0023200Y0097128D01*
X0023325Y0097211D01*
X0023453Y0097291D01*
X0023582Y0097367D01*
X0023713Y0097441D01*
X0023846Y0097512D01*
X0023851Y0097522D02*
X0022990Y0099654D01*
X0022272Y0096367D02*
X0018769Y0099320D01*
X0017981Y0098414D02*
X0021524Y0095461D01*
X0025540Y0095068D02*
X0025540Y0097115D01*
X0028060Y0095068D02*
X0028060Y0093060D01*
X0030068Y0093060D01*
X0032160Y0084910D02*
X0032003Y0084791D01*
X0031844Y0084675D01*
X0031682Y0084563D01*
X0031517Y0084455D01*
X0031350Y0084351D01*
X0031181Y0084250D01*
X0034213Y0087189D02*
X0034315Y0087357D01*
X0034413Y0087528D01*
X0034508Y0087701D01*
X0034598Y0087876D01*
X0034685Y0088053D01*
X0034767Y0088232D01*
X0032160Y0098690D02*
X0032003Y0098809D01*
X0031844Y0098925D01*
X0031682Y0099037D01*
X0031517Y0099145D01*
X0031350Y0099249D01*
X0031181Y0099350D01*
X0034213Y0096411D02*
X0034315Y0096243D01*
X0034413Y0096072D01*
X0034508Y0095899D01*
X0034598Y0095724D01*
X0034685Y0095547D01*
X0034767Y0095368D01*
X0018746Y0099329D02*
X0018587Y0099154D01*
X0018431Y0098977D01*
X0018279Y0098796D01*
X0018131Y0098611D01*
X0017987Y0098424D01*
X0022272Y0087233D02*
X0022380Y0087129D01*
X0022491Y0087027D01*
X0022603Y0086927D01*
X0022718Y0086831D01*
X0022836Y0086737D01*
X0022955Y0086646D01*
X0023077Y0086557D01*
X0023200Y0086472D01*
X0023325Y0086389D01*
X0023453Y0086309D01*
X0023582Y0086233D01*
X0023713Y0086159D01*
X0023846Y0086088D01*
X0018746Y0084271D02*
X0018587Y0084446D01*
X0018431Y0084623D01*
X0018279Y0084804D01*
X0018131Y0084989D01*
X0017987Y0085176D01*
X0028059Y0085501D02*
X0028208Y0085532D01*
X0028356Y0085567D01*
X0028503Y0085606D01*
X0028648Y0085648D01*
X0028793Y0085693D01*
X0028937Y0085742D01*
X0029080Y0085795D01*
X0029221Y0085850D01*
X0029361Y0085909D01*
X0029500Y0085971D01*
X0029637Y0086037D01*
X0029772Y0086105D01*
X0029906Y0086177D01*
X0032181Y0095334D02*
X0032095Y0095461D01*
X0032007Y0095585D01*
X0031916Y0095707D01*
X0031822Y0095828D01*
X0031725Y0095946D01*
X0031625Y0096061D01*
X0031523Y0096174D01*
X0031418Y0096285D01*
X0031310Y0096393D01*
X0031200Y0096499D01*
X0031087Y0096602D01*
X0030972Y0096702D01*
X0030855Y0096799D01*
X0032181Y0088266D02*
X0032095Y0088139D01*
X0032007Y0088015D01*
X0031916Y0087893D01*
X0031822Y0087772D01*
X0031725Y0087654D01*
X0031625Y0087539D01*
X0031523Y0087426D01*
X0031418Y0087315D01*
X0031310Y0087207D01*
X0031200Y0087101D01*
X0031087Y0086998D01*
X0030972Y0086898D01*
X0030855Y0086801D01*
X0033215Y0092391D02*
X0033199Y0092540D01*
X0033180Y0092689D01*
X0033158Y0092838D01*
X0033132Y0092986D01*
X0033102Y0093134D01*
X0033070Y0093280D01*
X0033033Y0093426D01*
X0032994Y0093571D01*
X0032951Y0093716D01*
X0032904Y0093859D01*
X0032854Y0094001D01*
X0032801Y0094141D01*
X0032745Y0094281D01*
X0033215Y0091209D02*
X0033199Y0091060D01*
X0033180Y0090911D01*
X0033158Y0090762D01*
X0033132Y0090614D01*
X0033102Y0090466D01*
X0033070Y0090320D01*
X0033033Y0090174D01*
X0032994Y0090029D01*
X0032951Y0089884D01*
X0032904Y0089741D01*
X0032854Y0089599D01*
X0032801Y0089459D01*
X0032745Y0089319D01*
X0021328Y0091800D02*
X0021330Y0091948D01*
X0021336Y0092095D01*
X0021346Y0092242D01*
X0021360Y0092389D01*
X0021378Y0092536D01*
X0021399Y0092682D01*
X0021425Y0092827D01*
X0021455Y0092971D01*
X0021488Y0093115D01*
X0021526Y0093258D01*
X0021567Y0093399D01*
X0021612Y0093540D01*
X0021661Y0093679D01*
X0021713Y0093817D01*
X0021770Y0093954D01*
X0021829Y0094088D01*
X0021893Y0094222D01*
X0021960Y0094353D01*
X0022031Y0094483D01*
X0022105Y0094610D01*
X0022182Y0094736D01*
X0022263Y0094859D01*
X0022347Y0094980D01*
X0022435Y0095099D01*
X0022525Y0095216D01*
X0022619Y0095330D01*
X0022715Y0095441D01*
X0022815Y0095550D01*
X0022918Y0095656D01*
X0023023Y0095760D01*
X0023131Y0095860D01*
X0023242Y0095957D01*
X0023355Y0096052D01*
X0023471Y0096143D01*
X0023590Y0096231D01*
X0023710Y0096316D01*
X0023833Y0096398D01*
X0023958Y0096476D01*
X0024085Y0096551D01*
X0024214Y0096623D01*
X0024345Y0096691D01*
X0024478Y0096755D01*
X0024613Y0096816D01*
X0024749Y0096873D01*
X0024886Y0096926D01*
X0025025Y0096976D01*
X0025165Y0097022D01*
X0025307Y0097064D01*
X0025449Y0097103D01*
X0025593Y0097137D01*
X0025737Y0097168D01*
X0025882Y0097194D01*
X0026028Y0097217D01*
X0026174Y0097236D01*
X0026321Y0097251D01*
X0026468Y0097262D01*
X0026616Y0097269D01*
X0026763Y0097272D01*
X0026911Y0097271D01*
X0027058Y0097266D01*
X0027205Y0097257D01*
X0027352Y0097244D01*
X0027499Y0097227D01*
X0027645Y0097206D01*
X0027791Y0097182D01*
X0027935Y0097153D01*
X0028079Y0097120D01*
X0028222Y0097084D01*
X0028364Y0097044D01*
X0028505Y0097000D01*
X0028645Y0096952D01*
X0028783Y0096900D01*
X0028920Y0096845D01*
X0029055Y0096786D01*
X0029188Y0096723D01*
X0029320Y0096657D01*
X0029450Y0096587D01*
X0029578Y0096514D01*
X0029705Y0096437D01*
X0029829Y0096357D01*
X0029950Y0096274D01*
X0030070Y0096188D01*
X0030187Y0096098D01*
X0030302Y0096005D01*
X0030414Y0095909D01*
X0030523Y0095810D01*
X0030630Y0095708D01*
X0030734Y0095604D01*
X0030835Y0095496D01*
X0030933Y0095386D01*
X0031028Y0095273D01*
X0031121Y0095158D01*
X0031210Y0095040D01*
X0031295Y0094920D01*
X0031378Y0094798D01*
X0031457Y0094673D01*
X0031533Y0094547D01*
X0031605Y0094418D01*
X0031674Y0094288D01*
X0031739Y0094155D01*
X0031801Y0094021D01*
X0031859Y0093886D01*
X0031913Y0093748D01*
X0031964Y0093610D01*
X0032011Y0093470D01*
X0032054Y0093329D01*
X0032093Y0093187D01*
X0032129Y0093043D01*
X0032160Y0092899D01*
X0032188Y0092754D01*
X0032212Y0092609D01*
X0032232Y0092462D01*
X0032248Y0092316D01*
X0032260Y0092169D01*
X0032268Y0092021D01*
X0032272Y0091874D01*
X0032272Y0091726D01*
X0032268Y0091579D01*
X0032260Y0091431D01*
X0032248Y0091284D01*
X0032232Y0091138D01*
X0032212Y0090991D01*
X0032188Y0090846D01*
X0032160Y0090701D01*
X0032129Y0090557D01*
X0032093Y0090413D01*
X0032054Y0090271D01*
X0032011Y0090130D01*
X0031964Y0089990D01*
X0031913Y0089852D01*
X0031859Y0089714D01*
X0031801Y0089579D01*
X0031739Y0089445D01*
X0031674Y0089312D01*
X0031605Y0089182D01*
X0031533Y0089053D01*
X0031457Y0088927D01*
X0031378Y0088802D01*
X0031295Y0088680D01*
X0031210Y0088560D01*
X0031121Y0088442D01*
X0031028Y0088327D01*
X0030933Y0088214D01*
X0030835Y0088104D01*
X0030734Y0087996D01*
X0030630Y0087892D01*
X0030523Y0087790D01*
X0030414Y0087691D01*
X0030302Y0087595D01*
X0030187Y0087502D01*
X0030070Y0087412D01*
X0029950Y0087326D01*
X0029829Y0087243D01*
X0029705Y0087163D01*
X0029578Y0087086D01*
X0029450Y0087013D01*
X0029320Y0086943D01*
X0029188Y0086877D01*
X0029055Y0086814D01*
X0028920Y0086755D01*
X0028783Y0086700D01*
X0028645Y0086648D01*
X0028505Y0086600D01*
X0028364Y0086556D01*
X0028222Y0086516D01*
X0028079Y0086480D01*
X0027935Y0086447D01*
X0027791Y0086418D01*
X0027645Y0086394D01*
X0027499Y0086373D01*
X0027352Y0086356D01*
X0027205Y0086343D01*
X0027058Y0086334D01*
X0026911Y0086329D01*
X0026763Y0086328D01*
X0026616Y0086331D01*
X0026468Y0086338D01*
X0026321Y0086349D01*
X0026174Y0086364D01*
X0026028Y0086383D01*
X0025882Y0086406D01*
X0025737Y0086432D01*
X0025593Y0086463D01*
X0025449Y0086497D01*
X0025307Y0086536D01*
X0025165Y0086578D01*
X0025025Y0086624D01*
X0024886Y0086674D01*
X0024749Y0086727D01*
X0024613Y0086784D01*
X0024478Y0086845D01*
X0024345Y0086909D01*
X0024214Y0086977D01*
X0024085Y0087049D01*
X0023958Y0087124D01*
X0023833Y0087202D01*
X0023710Y0087284D01*
X0023590Y0087369D01*
X0023471Y0087457D01*
X0023355Y0087548D01*
X0023242Y0087643D01*
X0023131Y0087740D01*
X0023023Y0087840D01*
X0022918Y0087944D01*
X0022815Y0088050D01*
X0022715Y0088159D01*
X0022619Y0088270D01*
X0022525Y0088384D01*
X0022435Y0088501D01*
X0022347Y0088620D01*
X0022263Y0088741D01*
X0022182Y0088864D01*
X0022105Y0088990D01*
X0022031Y0089117D01*
X0021960Y0089247D01*
X0021893Y0089378D01*
X0021829Y0089512D01*
X0021770Y0089646D01*
X0021713Y0089783D01*
X0021661Y0089921D01*
X0021612Y0090060D01*
X0021567Y0090201D01*
X0021526Y0090342D01*
X0021488Y0090485D01*
X0021455Y0090629D01*
X0021425Y0090773D01*
X0021399Y0090918D01*
X0021378Y0091064D01*
X0021360Y0091211D01*
X0021346Y0091358D01*
X0021336Y0091505D01*
X0021330Y0091652D01*
X0021328Y0091800D01*
X0028059Y0098099D02*
X0028208Y0098068D01*
X0028356Y0098033D01*
X0028503Y0097994D01*
X0028648Y0097952D01*
X0028793Y0097907D01*
X0028937Y0097858D01*
X0029080Y0097805D01*
X0029221Y0097750D01*
X0029361Y0097691D01*
X0029500Y0097629D01*
X0029637Y0097563D01*
X0029772Y0097495D01*
X0029906Y0097423D01*
X0021524Y0095462D02*
X0021435Y0095330D01*
X0021349Y0095196D01*
X0021267Y0095060D01*
X0021188Y0094922D01*
X0021112Y0094782D01*
X0021040Y0094640D01*
X0020972Y0094497D01*
X0020907Y0094352D01*
X0020845Y0094205D01*
X0020788Y0094057D01*
X0020734Y0093907D01*
X0020683Y0093756D01*
X0020637Y0093604D01*
X0020594Y0093451D01*
X0020555Y0093297D01*
X0020520Y0093142D01*
X0020488Y0092986D01*
X0020461Y0092829D01*
X0020437Y0092672D01*
X0020418Y0092514D01*
X0020402Y0092356D01*
X0020390Y0092197D01*
X0020382Y0092038D01*
X0020378Y0091880D01*
X0020378Y0091720D01*
X0020382Y0091562D01*
X0020390Y0091403D01*
X0020402Y0091244D01*
X0020418Y0091086D01*
X0020437Y0090928D01*
X0020461Y0090771D01*
X0020488Y0090614D01*
X0020520Y0090458D01*
X0020555Y0090303D01*
X0020594Y0090149D01*
X0020637Y0089996D01*
X0020683Y0089844D01*
X0020734Y0089693D01*
X0020788Y0089543D01*
X0020845Y0089395D01*
X0020907Y0089248D01*
X0020972Y0089103D01*
X0021040Y0088960D01*
X0021112Y0088818D01*
X0021188Y0088678D01*
X0021267Y0088540D01*
X0021349Y0088404D01*
X0021435Y0088270D01*
X0021524Y0088138D01*
X0024950Y0085619D02*
X0025094Y0085578D01*
X0025240Y0085539D01*
X0025386Y0085505D01*
X0025533Y0085474D01*
X0025681Y0085446D01*
X0025829Y0085421D01*
X0025978Y0085401D01*
X0026127Y0085383D01*
X0026277Y0085369D01*
X0026427Y0085359D01*
X0026577Y0085352D01*
X0026727Y0085348D01*
X0026877Y0085348D01*
X0024950Y0097981D02*
X0025094Y0098023D01*
X0025240Y0098061D01*
X0025386Y0098095D01*
X0025534Y0098126D01*
X0025681Y0098154D01*
X0025830Y0098179D01*
X0025979Y0098200D01*
X0026128Y0098217D01*
X0026278Y0098231D01*
X0026428Y0098241D01*
X0026579Y0098248D01*
X0026729Y0098252D01*
X0026879Y0098252D01*
X0299400Y0256400D02*
X0300801Y0256400D01*
X0300334Y0256867D01*
X0300801Y0257334D01*
X0299400Y0257334D01*
X0299634Y0257873D02*
X0299400Y0258107D01*
X0299400Y0258574D01*
X0299634Y0258807D01*
X0299867Y0259347D02*
X0299867Y0260047D01*
X0300101Y0260281D01*
X0300568Y0260281D01*
X0300801Y0260047D01*
X0300801Y0259347D01*
X0299400Y0259347D01*
X0300568Y0258807D02*
X0300801Y0258574D01*
X0300801Y0258107D01*
X0300568Y0257873D01*
X0299634Y0257873D01*
X0299634Y0260820D02*
X0299400Y0260820D01*
X0299634Y0260820D02*
X0300568Y0261754D01*
X0300801Y0261754D01*
X0300801Y0260820D01*
X0300568Y0262293D02*
X0300801Y0262527D01*
X0300801Y0262994D01*
X0300568Y0263227D01*
X0300334Y0263227D01*
X0300101Y0262994D01*
X0299867Y0263227D01*
X0299634Y0263227D01*
X0299400Y0262994D01*
X0299400Y0262527D01*
X0299634Y0262293D01*
X0300101Y0262760D02*
X0300101Y0262994D01*
X0300334Y0263766D02*
X0300568Y0263766D01*
X0300801Y0264000D01*
X0300801Y0264467D01*
X0300568Y0264700D01*
X0300334Y0264700D01*
X0300101Y0264467D01*
X0300101Y0264000D01*
X0300334Y0263766D01*
X0300101Y0264000D02*
X0299867Y0263766D01*
X0299634Y0263766D01*
X0299400Y0264000D01*
X0299400Y0264467D01*
X0299634Y0264700D01*
X0299867Y0264700D01*
X0300101Y0264467D01*
X0300568Y0265240D02*
X0300801Y0265473D01*
X0300801Y0265940D01*
X0300568Y0266174D01*
X0300334Y0266174D01*
X0300101Y0265940D01*
X0299867Y0266174D01*
X0299634Y0266174D01*
X0299400Y0265940D01*
X0299400Y0265473D01*
X0299634Y0265240D01*
X0300101Y0265707D02*
X0300101Y0265940D01*
X0300334Y0266713D02*
X0300801Y0267180D01*
X0299400Y0267180D01*
X0299400Y0266713D02*
X0299400Y0267647D01*
X0299400Y0268653D02*
X0300801Y0268653D01*
X0300801Y0268186D02*
X0300801Y0269120D01*
X0324900Y0268425D02*
X0327702Y0268425D01*
X0326768Y0268892D02*
X0326768Y0269826D01*
X0326301Y0270293D01*
X0324900Y0270293D01*
X0325367Y0271187D02*
X0324900Y0271654D01*
X0324900Y0272588D01*
X0325367Y0273055D01*
X0326301Y0273055D01*
X0326768Y0272588D01*
X0326768Y0271654D01*
X0326301Y0271187D01*
X0325367Y0271187D01*
X0326768Y0268892D02*
X0326301Y0268425D01*
X0326768Y0267531D02*
X0326768Y0266129D01*
X0326301Y0265662D01*
X0325367Y0265662D01*
X0324900Y0266129D01*
X0324900Y0267531D01*
X0325367Y0264768D02*
X0324900Y0264301D01*
X0324900Y0263367D01*
X0325367Y0262900D01*
X0326301Y0263367D02*
X0326301Y0264301D01*
X0325834Y0264768D01*
X0325367Y0264768D01*
X0326301Y0263367D02*
X0326768Y0262900D01*
X0327235Y0262900D01*
X0327702Y0263367D01*
X0327702Y0264301D01*
X0327235Y0264768D01*
X0326768Y0273949D02*
X0326768Y0274884D01*
X0327235Y0274416D02*
X0325367Y0274416D01*
X0324900Y0274884D01*
X0325367Y0276258D02*
X0324900Y0276725D01*
X0325367Y0276258D02*
X0327235Y0276258D01*
X0326768Y0275791D02*
X0326768Y0276725D01*
X0325834Y0277633D02*
X0326768Y0279034D01*
X0326768Y0279935D02*
X0325367Y0279935D01*
X0324900Y0280402D01*
X0324900Y0281803D01*
X0324433Y0281803D02*
X0323966Y0281336D01*
X0323966Y0280869D01*
X0324433Y0281803D02*
X0326768Y0281803D01*
X0324900Y0279034D02*
X0325834Y0277633D01*
X0324900Y0277633D02*
X0327702Y0277633D01*
D131*
X0337000Y0250378D02*
X0336750Y0250127D01*
X0336750Y0249877D01*
X0337250Y0249627D02*
X0337500Y0249377D01*
X0338251Y0249377D01*
X0338251Y0248900D02*
X0337750Y0248149D01*
X0337250Y0248900D01*
X0337250Y0249627D02*
X0337250Y0250378D01*
X0337000Y0250378D02*
X0338251Y0250378D01*
X0338751Y0248149D02*
X0337250Y0248149D01*
X0337250Y0247667D02*
X0337500Y0247417D01*
X0338501Y0247417D01*
X0338251Y0247167D02*
X0338251Y0247667D01*
X0338251Y0246685D02*
X0338251Y0246185D01*
X0338501Y0246435D02*
X0337500Y0246435D01*
X0337250Y0246685D01*
X0337500Y0245712D02*
X0338001Y0245712D01*
X0338251Y0245462D01*
X0338251Y0244962D01*
X0338001Y0244711D01*
X0337500Y0244711D01*
X0337250Y0244962D01*
X0337250Y0245462D01*
X0337500Y0245712D01*
X0337250Y0244239D02*
X0338001Y0244239D01*
X0338251Y0243989D01*
X0338251Y0243488D01*
X0338001Y0243238D01*
X0338251Y0242766D02*
X0338251Y0242015D01*
X0338001Y0241765D01*
X0337500Y0241765D01*
X0337250Y0242015D01*
X0337250Y0242766D01*
X0337250Y0243238D02*
X0338751Y0243238D01*
X0338501Y0241292D02*
X0338751Y0241042D01*
X0338751Y0240542D01*
X0338501Y0240292D01*
X0338251Y0240292D01*
X0338001Y0240542D01*
X0338001Y0241042D01*
X0337750Y0241292D01*
X0337500Y0241292D01*
X0337250Y0241042D01*
X0337250Y0240542D01*
X0337500Y0240292D01*
X0305558Y0162951D02*
X0305058Y0162951D01*
X0304808Y0162701D01*
X0305058Y0162201D02*
X0304808Y0161950D01*
X0304808Y0161700D01*
X0305058Y0161450D01*
X0305558Y0161450D01*
X0305808Y0161700D01*
X0305558Y0162201D02*
X0305058Y0162201D01*
X0305558Y0162201D02*
X0305808Y0162451D01*
X0305808Y0162701D01*
X0305558Y0162951D01*
X0304335Y0162201D02*
X0304335Y0161700D01*
X0304085Y0161450D01*
X0303334Y0161450D01*
X0302862Y0161450D02*
X0302862Y0162951D01*
X0302612Y0162451D02*
X0302111Y0162451D01*
X0301861Y0162201D01*
X0301861Y0161450D01*
X0301389Y0161700D02*
X0301138Y0161450D01*
X0300638Y0161450D01*
X0300388Y0161700D01*
X0300388Y0162201D01*
X0300638Y0162451D01*
X0301138Y0162451D01*
X0301389Y0162201D01*
X0301389Y0161700D01*
X0302612Y0162451D02*
X0302862Y0162201D01*
X0303334Y0162451D02*
X0304085Y0162451D01*
X0304335Y0162201D01*
X0299915Y0162451D02*
X0299415Y0162451D01*
X0299665Y0162701D02*
X0299665Y0161700D01*
X0299415Y0161450D01*
X0298683Y0161700D02*
X0298433Y0161450D01*
X0298683Y0161700D02*
X0298683Y0162701D01*
X0298933Y0162451D02*
X0298433Y0162451D01*
X0297951Y0162951D02*
X0297951Y0161450D01*
X0297951Y0161950D02*
X0297200Y0162451D01*
X0296723Y0162451D02*
X0296723Y0161700D01*
X0296473Y0161450D01*
X0295722Y0161450D01*
X0295722Y0161200D02*
X0295973Y0160950D01*
X0296223Y0160950D01*
X0295722Y0161200D02*
X0295722Y0162451D01*
X0297200Y0161450D02*
X0297951Y0161950D01*
X0163971Y0133991D02*
X0164691Y0134531D01*
X0164690Y0134530D02*
X0164871Y0134297D01*
X0165057Y0134069D01*
X0165249Y0133845D01*
X0165446Y0133626D01*
X0165648Y0133412D01*
X0165856Y0133203D01*
X0166069Y0133000D01*
X0166286Y0132801D01*
X0166509Y0132608D01*
X0166736Y0132420D01*
X0166967Y0132238D01*
X0167203Y0132061D01*
X0167444Y0131891D01*
X0167688Y0131726D01*
X0167936Y0131568D01*
X0168188Y0131415D01*
X0168444Y0131269D01*
X0168703Y0131129D01*
X0168966Y0130995D01*
X0169231Y0130868D01*
X0169500Y0130747D01*
X0169772Y0130633D01*
X0170046Y0130526D01*
X0170323Y0130425D01*
X0170602Y0130331D01*
X0170884Y0130244D01*
X0171167Y0130164D01*
X0171453Y0130091D01*
X0171740Y0130025D01*
X0172029Y0129966D01*
X0172319Y0129914D01*
X0172610Y0129869D01*
X0172902Y0129831D01*
X0173195Y0129801D01*
X0173489Y0129777D01*
X0173783Y0129761D01*
X0174077Y0129752D01*
X0174372Y0129750D01*
X0174667Y0129756D01*
X0174961Y0129768D01*
X0175255Y0129788D01*
X0175548Y0129815D01*
X0175841Y0129849D01*
X0176133Y0129890D01*
X0176423Y0129939D01*
X0176713Y0129994D01*
X0177000Y0130056D01*
X0177287Y0130126D01*
X0177571Y0130203D01*
X0177854Y0130286D01*
X0178134Y0130376D01*
X0178412Y0130473D01*
X0178688Y0130577D01*
X0178961Y0130688D01*
X0179231Y0130805D01*
X0179499Y0130929D01*
X0179763Y0131059D01*
X0180024Y0131196D01*
X0180281Y0131339D01*
X0180535Y0131489D01*
X0180786Y0131644D01*
X0181032Y0131806D01*
X0181274Y0131973D01*
X0181512Y0132147D01*
X0181746Y0132326D01*
X0181976Y0132511D01*
X0182200Y0132701D01*
X0182421Y0132897D01*
X0182636Y0133098D01*
X0182846Y0133305D01*
X0183051Y0133516D01*
X0183251Y0133733D01*
X0183446Y0133954D01*
X0183635Y0134180D01*
X0183818Y0134410D01*
X0183996Y0134645D01*
X0184168Y0134885D01*
X0184334Y0135128D01*
X0184494Y0135375D01*
X0184648Y0135626D01*
X0184796Y0135881D01*
X0184938Y0136140D01*
X0185073Y0136401D01*
X0185202Y0136666D01*
X0185324Y0136934D01*
X0185440Y0137205D01*
X0185549Y0137479D01*
X0185651Y0137755D01*
X0185746Y0138034D01*
X0185835Y0138315D01*
X0185917Y0138598D01*
X0185992Y0138883D01*
X0186059Y0139170D01*
X0186120Y0139458D01*
X0186174Y0139748D01*
X0186221Y0140039D01*
X0186260Y0140331D01*
X0186292Y0140623D01*
X0186318Y0140917D01*
X0186336Y0141211D01*
X0186346Y0141505D01*
X0186350Y0141800D01*
X0186346Y0142095D01*
X0186336Y0142389D01*
X0186318Y0142683D01*
X0186292Y0142977D01*
X0186260Y0143269D01*
X0186221Y0143561D01*
X0186174Y0143852D01*
X0186120Y0144142D01*
X0186059Y0144430D01*
X0185992Y0144717D01*
X0185917Y0145002D01*
X0185835Y0145285D01*
X0185746Y0145566D01*
X0185651Y0145845D01*
X0185549Y0146121D01*
X0185440Y0146395D01*
X0185324Y0146666D01*
X0185202Y0146934D01*
X0185073Y0147199D01*
X0184938Y0147460D01*
X0184796Y0147719D01*
X0184648Y0147974D01*
X0184494Y0148225D01*
X0184334Y0148472D01*
X0184168Y0148715D01*
X0183996Y0148955D01*
X0183818Y0149190D01*
X0183635Y0149420D01*
X0183446Y0149646D01*
X0183251Y0149867D01*
X0183051Y0150084D01*
X0182846Y0150295D01*
X0182636Y0150502D01*
X0182421Y0150703D01*
X0182200Y0150899D01*
X0181976Y0151089D01*
X0181746Y0151274D01*
X0181512Y0151453D01*
X0181274Y0151627D01*
X0181032Y0151794D01*
X0180786Y0151956D01*
X0180535Y0152111D01*
X0180281Y0152261D01*
X0180024Y0152404D01*
X0179763Y0152541D01*
X0179499Y0152671D01*
X0179231Y0152795D01*
X0178961Y0152912D01*
X0178688Y0153023D01*
X0178412Y0153127D01*
X0178134Y0153224D01*
X0177854Y0153314D01*
X0177571Y0153397D01*
X0177287Y0153474D01*
X0177000Y0153544D01*
X0176713Y0153606D01*
X0176423Y0153661D01*
X0176133Y0153710D01*
X0175841Y0153751D01*
X0175548Y0153785D01*
X0175255Y0153812D01*
X0174961Y0153832D01*
X0174667Y0153844D01*
X0174372Y0153850D01*
X0174077Y0153848D01*
X0173783Y0153839D01*
X0173489Y0153823D01*
X0173195Y0153799D01*
X0172902Y0153769D01*
X0172610Y0153731D01*
X0172319Y0153686D01*
X0172029Y0153634D01*
X0171740Y0153575D01*
X0171453Y0153509D01*
X0171167Y0153436D01*
X0170884Y0153356D01*
X0170602Y0153269D01*
X0170323Y0153175D01*
X0170046Y0153074D01*
X0169772Y0152967D01*
X0169500Y0152853D01*
X0169231Y0152732D01*
X0168966Y0152605D01*
X0168703Y0152471D01*
X0168444Y0152331D01*
X0168188Y0152185D01*
X0167936Y0152032D01*
X0167688Y0151874D01*
X0167444Y0151709D01*
X0167203Y0151539D01*
X0166967Y0151362D01*
X0166736Y0151180D01*
X0166509Y0150992D01*
X0166286Y0150799D01*
X0166069Y0150600D01*
X0165856Y0150397D01*
X0165648Y0150188D01*
X0165446Y0149974D01*
X0165249Y0149755D01*
X0165057Y0149531D01*
X0164871Y0149303D01*
X0164690Y0149070D01*
X0163971Y0149609D01*
X0163970Y0149610D01*
X0164164Y0149860D01*
X0164364Y0150106D01*
X0164570Y0150346D01*
X0164782Y0150581D01*
X0165000Y0150811D01*
X0165223Y0151036D01*
X0165451Y0151255D01*
X0165685Y0151469D01*
X0165924Y0151677D01*
X0166168Y0151879D01*
X0166417Y0152074D01*
X0166671Y0152264D01*
X0166929Y0152447D01*
X0167191Y0152624D01*
X0167458Y0152795D01*
X0167729Y0152959D01*
X0168004Y0153116D01*
X0168282Y0153267D01*
X0168565Y0153411D01*
X0168850Y0153547D01*
X0169139Y0153677D01*
X0169431Y0153800D01*
X0169726Y0153915D01*
X0170023Y0154023D01*
X0170324Y0154124D01*
X0170626Y0154218D01*
X0170931Y0154304D01*
X0171238Y0154383D01*
X0171546Y0154454D01*
X0171856Y0154517D01*
X0172168Y0154573D01*
X0172481Y0154622D01*
X0172795Y0154662D01*
X0173110Y0154695D01*
X0173426Y0154720D01*
X0173742Y0154738D01*
X0174058Y0154748D01*
X0174375Y0154750D01*
X0174692Y0154744D01*
X0175008Y0154731D01*
X0175324Y0154709D01*
X0175639Y0154681D01*
X0175954Y0154644D01*
X0176267Y0154600D01*
X0176580Y0154548D01*
X0176891Y0154488D01*
X0177200Y0154421D01*
X0177508Y0154346D01*
X0177814Y0154264D01*
X0178117Y0154175D01*
X0178419Y0154078D01*
X0178718Y0153973D01*
X0179014Y0153861D01*
X0179308Y0153743D01*
X0179598Y0153617D01*
X0179885Y0153484D01*
X0180170Y0153343D01*
X0180450Y0153196D01*
X0180727Y0153043D01*
X0181000Y0152882D01*
X0181269Y0152715D01*
X0181534Y0152541D01*
X0181794Y0152361D01*
X0182050Y0152175D01*
X0182301Y0151982D01*
X0182548Y0151784D01*
X0182790Y0151579D01*
X0183026Y0151369D01*
X0183258Y0151152D01*
X0183483Y0150930D01*
X0183704Y0150703D01*
X0183919Y0150471D01*
X0184128Y0150233D01*
X0184331Y0149990D01*
X0184529Y0149742D01*
X0184720Y0149490D01*
X0184905Y0149233D01*
X0185083Y0148971D01*
X0185255Y0148705D01*
X0185421Y0148436D01*
X0185580Y0148162D01*
X0185732Y0147884D01*
X0185877Y0147603D01*
X0186016Y0147318D01*
X0186147Y0147030D01*
X0186271Y0146738D01*
X0186389Y0146444D01*
X0186499Y0146147D01*
X0186601Y0145848D01*
X0186696Y0145546D01*
X0186784Y0145242D01*
X0186865Y0144935D01*
X0186938Y0144627D01*
X0187003Y0144317D01*
X0187061Y0144006D01*
X0187111Y0143693D01*
X0187153Y0143379D01*
X0187188Y0143065D01*
X0187215Y0142749D01*
X0187235Y0142433D01*
X0187246Y0142117D01*
X0187250Y0141800D01*
X0187246Y0141483D01*
X0187235Y0141167D01*
X0187215Y0140851D01*
X0187188Y0140535D01*
X0187153Y0140221D01*
X0187111Y0139907D01*
X0187061Y0139594D01*
X0187003Y0139283D01*
X0186938Y0138973D01*
X0186865Y0138665D01*
X0186784Y0138358D01*
X0186696Y0138054D01*
X0186601Y0137752D01*
X0186499Y0137453D01*
X0186389Y0137156D01*
X0186271Y0136862D01*
X0186147Y0136570D01*
X0186016Y0136282D01*
X0185877Y0135997D01*
X0185732Y0135716D01*
X0185580Y0135438D01*
X0185421Y0135164D01*
X0185255Y0134895D01*
X0185083Y0134629D01*
X0184905Y0134367D01*
X0184720Y0134110D01*
X0184529Y0133858D01*
X0184331Y0133610D01*
X0184128Y0133367D01*
X0183919Y0133129D01*
X0183704Y0132897D01*
X0183483Y0132670D01*
X0183258Y0132448D01*
X0183026Y0132231D01*
X0182790Y0132021D01*
X0182548Y0131816D01*
X0182301Y0131618D01*
X0182050Y0131425D01*
X0181794Y0131239D01*
X0181534Y0131059D01*
X0181269Y0130885D01*
X0181000Y0130718D01*
X0180727Y0130557D01*
X0180450Y0130404D01*
X0180170Y0130257D01*
X0179885Y0130116D01*
X0179598Y0129983D01*
X0179308Y0129857D01*
X0179014Y0129739D01*
X0178718Y0129627D01*
X0178419Y0129522D01*
X0178117Y0129425D01*
X0177814Y0129336D01*
X0177508Y0129254D01*
X0177200Y0129179D01*
X0176891Y0129112D01*
X0176580Y0129052D01*
X0176267Y0129000D01*
X0175954Y0128956D01*
X0175639Y0128919D01*
X0175324Y0128891D01*
X0175008Y0128869D01*
X0174692Y0128856D01*
X0174375Y0128850D01*
X0174058Y0128852D01*
X0173742Y0128862D01*
X0173426Y0128880D01*
X0173110Y0128905D01*
X0172795Y0128938D01*
X0172481Y0128978D01*
X0172168Y0129027D01*
X0171856Y0129083D01*
X0171546Y0129146D01*
X0171238Y0129217D01*
X0170931Y0129296D01*
X0170626Y0129382D01*
X0170324Y0129476D01*
X0170023Y0129577D01*
X0169726Y0129685D01*
X0169431Y0129800D01*
X0169139Y0129923D01*
X0168850Y0130053D01*
X0168565Y0130189D01*
X0168282Y0130333D01*
X0168004Y0130484D01*
X0167729Y0130641D01*
X0167458Y0130805D01*
X0167191Y0130976D01*
X0166929Y0131153D01*
X0166671Y0131336D01*
X0166417Y0131526D01*
X0166168Y0131721D01*
X0165924Y0131923D01*
X0165685Y0132131D01*
X0165451Y0132345D01*
X0165223Y0132564D01*
X0165000Y0132789D01*
X0164782Y0133019D01*
X0164570Y0133254D01*
X0164364Y0133494D01*
X0164164Y0133740D01*
X0163970Y0133990D01*
X0164045Y0134046D01*
X0164238Y0133798D01*
X0164437Y0133554D01*
X0164641Y0133316D01*
X0164851Y0133082D01*
X0165067Y0132854D01*
X0165289Y0132631D01*
X0165516Y0132413D01*
X0165748Y0132201D01*
X0165985Y0131995D01*
X0166227Y0131794D01*
X0166475Y0131600D01*
X0166726Y0131412D01*
X0166983Y0131230D01*
X0167243Y0131054D01*
X0167508Y0130885D01*
X0167777Y0130722D01*
X0168050Y0130566D01*
X0168326Y0130416D01*
X0168606Y0130274D01*
X0168890Y0130138D01*
X0169177Y0130009D01*
X0169467Y0129887D01*
X0169759Y0129773D01*
X0170055Y0129665D01*
X0170353Y0129565D01*
X0170653Y0129472D01*
X0170956Y0129387D01*
X0171260Y0129309D01*
X0171566Y0129238D01*
X0171874Y0129175D01*
X0172184Y0129119D01*
X0172494Y0129071D01*
X0172806Y0129031D01*
X0173119Y0128998D01*
X0173432Y0128973D01*
X0173746Y0128956D01*
X0174060Y0128946D01*
X0174375Y0128944D01*
X0174689Y0128950D01*
X0175003Y0128963D01*
X0175317Y0128984D01*
X0175630Y0129013D01*
X0175942Y0129049D01*
X0176253Y0129093D01*
X0176563Y0129145D01*
X0176872Y0129204D01*
X0177179Y0129271D01*
X0177485Y0129345D01*
X0177788Y0129426D01*
X0178090Y0129515D01*
X0178389Y0129612D01*
X0178686Y0129715D01*
X0178980Y0129826D01*
X0179271Y0129944D01*
X0179560Y0130069D01*
X0179845Y0130201D01*
X0180127Y0130340D01*
X0180405Y0130486D01*
X0180680Y0130639D01*
X0180951Y0130798D01*
X0181218Y0130964D01*
X0181481Y0131137D01*
X0181740Y0131315D01*
X0181994Y0131500D01*
X0182243Y0131692D01*
X0182488Y0131889D01*
X0182728Y0132092D01*
X0182963Y0132301D01*
X0183193Y0132516D01*
X0183417Y0132736D01*
X0183636Y0132961D01*
X0183849Y0133192D01*
X0184057Y0133428D01*
X0184259Y0133670D01*
X0184454Y0133915D01*
X0184644Y0134166D01*
X0184828Y0134421D01*
X0185005Y0134681D01*
X0185176Y0134945D01*
X0185340Y0135213D01*
X0185498Y0135485D01*
X0185649Y0135760D01*
X0185793Y0136040D01*
X0185931Y0136322D01*
X0186061Y0136608D01*
X0186185Y0136897D01*
X0186301Y0137190D01*
X0186410Y0137484D01*
X0186512Y0137782D01*
X0186606Y0138081D01*
X0186694Y0138384D01*
X0186774Y0138688D01*
X0186846Y0138993D01*
X0186911Y0139301D01*
X0186968Y0139610D01*
X0187018Y0139921D01*
X0187060Y0140232D01*
X0187095Y0140545D01*
X0187121Y0140858D01*
X0187141Y0141172D01*
X0187152Y0141486D01*
X0187156Y0141800D01*
X0187152Y0142114D01*
X0187141Y0142428D01*
X0187121Y0142742D01*
X0187095Y0143055D01*
X0187060Y0143368D01*
X0187018Y0143679D01*
X0186968Y0143990D01*
X0186911Y0144299D01*
X0186846Y0144607D01*
X0186774Y0144912D01*
X0186694Y0145216D01*
X0186606Y0145519D01*
X0186512Y0145818D01*
X0186410Y0146116D01*
X0186301Y0146410D01*
X0186185Y0146703D01*
X0186061Y0146992D01*
X0185931Y0147278D01*
X0185793Y0147560D01*
X0185649Y0147840D01*
X0185498Y0148115D01*
X0185340Y0148387D01*
X0185176Y0148655D01*
X0185005Y0148919D01*
X0184828Y0149179D01*
X0184644Y0149434D01*
X0184454Y0149685D01*
X0184259Y0149930D01*
X0184057Y0150172D01*
X0183849Y0150408D01*
X0183636Y0150639D01*
X0183417Y0150864D01*
X0183193Y0151084D01*
X0182963Y0151299D01*
X0182728Y0151508D01*
X0182488Y0151711D01*
X0182243Y0151908D01*
X0181994Y0152100D01*
X0181740Y0152285D01*
X0181481Y0152463D01*
X0181218Y0152636D01*
X0180951Y0152802D01*
X0180680Y0152961D01*
X0180405Y0153114D01*
X0180127Y0153260D01*
X0179845Y0153399D01*
X0179560Y0153531D01*
X0179271Y0153656D01*
X0178980Y0153774D01*
X0178686Y0153885D01*
X0178389Y0153988D01*
X0178090Y0154085D01*
X0177788Y0154174D01*
X0177485Y0154255D01*
X0177179Y0154329D01*
X0176872Y0154396D01*
X0176563Y0154455D01*
X0176253Y0154507D01*
X0175942Y0154551D01*
X0175630Y0154587D01*
X0175317Y0154616D01*
X0175003Y0154637D01*
X0174689Y0154650D01*
X0174375Y0154656D01*
X0174060Y0154654D01*
X0173746Y0154644D01*
X0173432Y0154627D01*
X0173119Y0154602D01*
X0172806Y0154569D01*
X0172494Y0154529D01*
X0172184Y0154481D01*
X0171874Y0154425D01*
X0171566Y0154362D01*
X0171260Y0154291D01*
X0170956Y0154213D01*
X0170653Y0154128D01*
X0170353Y0154035D01*
X0170055Y0153935D01*
X0169759Y0153827D01*
X0169467Y0153713D01*
X0169177Y0153591D01*
X0168890Y0153462D01*
X0168606Y0153326D01*
X0168326Y0153184D01*
X0168050Y0153034D01*
X0167777Y0152878D01*
X0167508Y0152715D01*
X0167243Y0152546D01*
X0166983Y0152370D01*
X0166726Y0152188D01*
X0166475Y0152000D01*
X0166227Y0151806D01*
X0165985Y0151605D01*
X0165748Y0151399D01*
X0165516Y0151187D01*
X0165289Y0150969D01*
X0165067Y0150746D01*
X0164851Y0150518D01*
X0164641Y0150284D01*
X0164437Y0150046D01*
X0164238Y0149802D01*
X0164045Y0149554D01*
X0164120Y0149497D01*
X0164312Y0149744D01*
X0164509Y0149986D01*
X0164712Y0150223D01*
X0164921Y0150454D01*
X0165135Y0150681D01*
X0165355Y0150903D01*
X0165580Y0151119D01*
X0165811Y0151329D01*
X0166046Y0151534D01*
X0166287Y0151733D01*
X0166532Y0151926D01*
X0166782Y0152112D01*
X0167036Y0152293D01*
X0167295Y0152468D01*
X0167558Y0152636D01*
X0167825Y0152797D01*
X0168096Y0152952D01*
X0168370Y0153101D01*
X0168648Y0153242D01*
X0168930Y0153377D01*
X0169214Y0153505D01*
X0169502Y0153626D01*
X0169793Y0153740D01*
X0170086Y0153846D01*
X0170382Y0153946D01*
X0170680Y0154038D01*
X0170980Y0154123D01*
X0171283Y0154200D01*
X0171587Y0154270D01*
X0171892Y0154333D01*
X0172199Y0154388D01*
X0172508Y0154436D01*
X0172817Y0154476D01*
X0173128Y0154508D01*
X0173439Y0154533D01*
X0173750Y0154550D01*
X0174062Y0154560D01*
X0174374Y0154562D01*
X0174686Y0154556D01*
X0174998Y0154543D01*
X0175309Y0154522D01*
X0175620Y0154494D01*
X0175930Y0154457D01*
X0176239Y0154414D01*
X0176547Y0154363D01*
X0176854Y0154304D01*
X0177158Y0154238D01*
X0177462Y0154164D01*
X0177763Y0154083D01*
X0178062Y0153995D01*
X0178359Y0153899D01*
X0178654Y0153796D01*
X0178946Y0153686D01*
X0179235Y0153569D01*
X0179522Y0153445D01*
X0179805Y0153314D01*
X0180085Y0153176D01*
X0180361Y0153031D01*
X0180634Y0152879D01*
X0180903Y0152721D01*
X0181168Y0152556D01*
X0181429Y0152385D01*
X0181685Y0152208D01*
X0181938Y0152024D01*
X0182185Y0151834D01*
X0182428Y0151639D01*
X0182667Y0151437D01*
X0182900Y0151229D01*
X0183128Y0151016D01*
X0183350Y0150798D01*
X0183568Y0150574D01*
X0183779Y0150345D01*
X0183985Y0150110D01*
X0184186Y0149871D01*
X0184380Y0149627D01*
X0184568Y0149378D01*
X0184751Y0149125D01*
X0184927Y0148867D01*
X0185096Y0148605D01*
X0185259Y0148339D01*
X0185416Y0148069D01*
X0185566Y0147795D01*
X0185709Y0147518D01*
X0185846Y0147238D01*
X0185975Y0146954D01*
X0186098Y0146667D01*
X0186213Y0146377D01*
X0186321Y0146084D01*
X0186423Y0145789D01*
X0186517Y0145491D01*
X0186603Y0145191D01*
X0186682Y0144890D01*
X0186754Y0144586D01*
X0186819Y0144281D01*
X0186876Y0143974D01*
X0186925Y0143666D01*
X0186967Y0143356D01*
X0187001Y0143046D01*
X0187028Y0142735D01*
X0187047Y0142424D01*
X0187058Y0142112D01*
X0187062Y0141800D01*
X0187058Y0141488D01*
X0187047Y0141176D01*
X0187028Y0140865D01*
X0187001Y0140554D01*
X0186967Y0140244D01*
X0186925Y0139934D01*
X0186876Y0139626D01*
X0186819Y0139319D01*
X0186754Y0139014D01*
X0186682Y0138710D01*
X0186603Y0138409D01*
X0186517Y0138109D01*
X0186423Y0137811D01*
X0186321Y0137516D01*
X0186213Y0137223D01*
X0186098Y0136933D01*
X0185975Y0136646D01*
X0185846Y0136362D01*
X0185709Y0136082D01*
X0185566Y0135805D01*
X0185416Y0135531D01*
X0185259Y0135261D01*
X0185096Y0134995D01*
X0184927Y0134733D01*
X0184751Y0134475D01*
X0184568Y0134222D01*
X0184380Y0133973D01*
X0184186Y0133729D01*
X0183985Y0133490D01*
X0183779Y0133255D01*
X0183568Y0133026D01*
X0183350Y0132802D01*
X0183128Y0132584D01*
X0182900Y0132371D01*
X0182667Y0132163D01*
X0182428Y0131961D01*
X0182185Y0131766D01*
X0181938Y0131576D01*
X0181685Y0131392D01*
X0181429Y0131215D01*
X0181168Y0131044D01*
X0180903Y0130879D01*
X0180634Y0130721D01*
X0180361Y0130569D01*
X0180085Y0130424D01*
X0179805Y0130286D01*
X0179522Y0130155D01*
X0179235Y0130031D01*
X0178946Y0129914D01*
X0178654Y0129804D01*
X0178359Y0129701D01*
X0178062Y0129605D01*
X0177763Y0129517D01*
X0177462Y0129436D01*
X0177158Y0129362D01*
X0176854Y0129296D01*
X0176547Y0129237D01*
X0176239Y0129186D01*
X0175930Y0129143D01*
X0175620Y0129106D01*
X0175309Y0129078D01*
X0174998Y0129057D01*
X0174686Y0129044D01*
X0174374Y0129038D01*
X0174062Y0129040D01*
X0173750Y0129050D01*
X0173439Y0129067D01*
X0173128Y0129092D01*
X0172817Y0129124D01*
X0172508Y0129164D01*
X0172199Y0129212D01*
X0171892Y0129267D01*
X0171587Y0129330D01*
X0171283Y0129400D01*
X0170980Y0129477D01*
X0170680Y0129562D01*
X0170382Y0129654D01*
X0170086Y0129754D01*
X0169793Y0129860D01*
X0169502Y0129974D01*
X0169214Y0130095D01*
X0168930Y0130223D01*
X0168648Y0130358D01*
X0168370Y0130499D01*
X0168096Y0130648D01*
X0167825Y0130803D01*
X0167558Y0130964D01*
X0167295Y0131132D01*
X0167036Y0131307D01*
X0166782Y0131488D01*
X0166532Y0131674D01*
X0166287Y0131867D01*
X0166046Y0132066D01*
X0165811Y0132271D01*
X0165580Y0132481D01*
X0165355Y0132697D01*
X0165135Y0132919D01*
X0164921Y0133146D01*
X0164712Y0133377D01*
X0164509Y0133614D01*
X0164312Y0133856D01*
X0164120Y0134103D01*
X0164196Y0134159D01*
X0164386Y0133914D01*
X0164581Y0133674D01*
X0164783Y0133439D01*
X0164990Y0133209D01*
X0165203Y0132984D01*
X0165421Y0132764D01*
X0165645Y0132550D01*
X0165874Y0132341D01*
X0166107Y0132138D01*
X0166346Y0131940D01*
X0166589Y0131749D01*
X0166838Y0131563D01*
X0167090Y0131384D01*
X0167347Y0131211D01*
X0167608Y0131044D01*
X0167873Y0130883D01*
X0168142Y0130730D01*
X0168414Y0130582D01*
X0168690Y0130442D01*
X0168970Y0130308D01*
X0169252Y0130181D01*
X0169538Y0130061D01*
X0169826Y0129948D01*
X0170117Y0129842D01*
X0170411Y0129744D01*
X0170707Y0129652D01*
X0171005Y0129568D01*
X0171305Y0129491D01*
X0171607Y0129422D01*
X0171910Y0129359D01*
X0172215Y0129305D01*
X0172521Y0129257D01*
X0172829Y0129218D01*
X0173137Y0129186D01*
X0173445Y0129161D01*
X0173755Y0129144D01*
X0174064Y0129134D01*
X0174374Y0129132D01*
X0174684Y0129138D01*
X0174993Y0129151D01*
X0175302Y0129172D01*
X0175611Y0129200D01*
X0175918Y0129236D01*
X0176225Y0129279D01*
X0176531Y0129330D01*
X0176835Y0129388D01*
X0177138Y0129454D01*
X0177439Y0129527D01*
X0177738Y0129607D01*
X0178035Y0129695D01*
X0178330Y0129790D01*
X0178622Y0129892D01*
X0178912Y0130001D01*
X0179199Y0130118D01*
X0179483Y0130241D01*
X0179764Y0130371D01*
X0180042Y0130508D01*
X0180316Y0130652D01*
X0180587Y0130802D01*
X0180854Y0130959D01*
X0181117Y0131123D01*
X0181376Y0131293D01*
X0181631Y0131469D01*
X0181882Y0131651D01*
X0182127Y0131840D01*
X0182369Y0132034D01*
X0182605Y0132234D01*
X0182836Y0132440D01*
X0183063Y0132652D01*
X0183284Y0132869D01*
X0183499Y0133091D01*
X0183710Y0133318D01*
X0183914Y0133551D01*
X0184113Y0133789D01*
X0184306Y0134031D01*
X0184493Y0134278D01*
X0184674Y0134529D01*
X0184848Y0134785D01*
X0185017Y0135045D01*
X0185179Y0135309D01*
X0185334Y0135577D01*
X0185483Y0135849D01*
X0185625Y0136124D01*
X0185761Y0136403D01*
X0185889Y0136684D01*
X0186011Y0136969D01*
X0186125Y0137257D01*
X0186233Y0137548D01*
X0186333Y0137841D01*
X0186427Y0138136D01*
X0186513Y0138434D01*
X0186591Y0138733D01*
X0186662Y0139035D01*
X0186726Y0139338D01*
X0186783Y0139642D01*
X0186832Y0139948D01*
X0186873Y0140255D01*
X0186907Y0140563D01*
X0186934Y0140872D01*
X0186953Y0141181D01*
X0186964Y0141490D01*
X0186968Y0141800D01*
X0186964Y0142110D01*
X0186953Y0142419D01*
X0186934Y0142728D01*
X0186907Y0143037D01*
X0186873Y0143345D01*
X0186832Y0143652D01*
X0186783Y0143958D01*
X0186726Y0144262D01*
X0186662Y0144565D01*
X0186591Y0144867D01*
X0186513Y0145166D01*
X0186427Y0145464D01*
X0186333Y0145759D01*
X0186233Y0146052D01*
X0186125Y0146343D01*
X0186011Y0146631D01*
X0185889Y0146916D01*
X0185761Y0147197D01*
X0185625Y0147476D01*
X0185483Y0147751D01*
X0185334Y0148023D01*
X0185179Y0148291D01*
X0185017Y0148555D01*
X0184848Y0148815D01*
X0184674Y0149071D01*
X0184493Y0149322D01*
X0184306Y0149569D01*
X0184113Y0149811D01*
X0183914Y0150049D01*
X0183710Y0150282D01*
X0183499Y0150509D01*
X0183284Y0150731D01*
X0183063Y0150948D01*
X0182836Y0151160D01*
X0182605Y0151366D01*
X0182369Y0151566D01*
X0182127Y0151760D01*
X0181882Y0151949D01*
X0181631Y0152131D01*
X0181376Y0152307D01*
X0181117Y0152477D01*
X0180854Y0152641D01*
X0180587Y0152798D01*
X0180316Y0152948D01*
X0180042Y0153092D01*
X0179764Y0153229D01*
X0179483Y0153359D01*
X0179199Y0153482D01*
X0178912Y0153599D01*
X0178622Y0153708D01*
X0178330Y0153810D01*
X0178035Y0153905D01*
X0177738Y0153993D01*
X0177439Y0154073D01*
X0177138Y0154146D01*
X0176835Y0154212D01*
X0176531Y0154270D01*
X0176225Y0154321D01*
X0175918Y0154364D01*
X0175611Y0154400D01*
X0175302Y0154428D01*
X0174993Y0154449D01*
X0174684Y0154462D01*
X0174374Y0154468D01*
X0174064Y0154466D01*
X0173755Y0154456D01*
X0173445Y0154439D01*
X0173137Y0154414D01*
X0172829Y0154382D01*
X0172521Y0154343D01*
X0172215Y0154295D01*
X0171910Y0154241D01*
X0171607Y0154178D01*
X0171305Y0154109D01*
X0171005Y0154032D01*
X0170707Y0153948D01*
X0170411Y0153856D01*
X0170117Y0153758D01*
X0169826Y0153652D01*
X0169538Y0153539D01*
X0169252Y0153419D01*
X0168970Y0153292D01*
X0168690Y0153158D01*
X0168414Y0153018D01*
X0168142Y0152870D01*
X0167873Y0152717D01*
X0167608Y0152556D01*
X0167347Y0152389D01*
X0167090Y0152216D01*
X0166838Y0152037D01*
X0166589Y0151851D01*
X0166346Y0151660D01*
X0166107Y0151462D01*
X0165874Y0151259D01*
X0165645Y0151050D01*
X0165421Y0150836D01*
X0165203Y0150616D01*
X0164990Y0150391D01*
X0164783Y0150161D01*
X0164581Y0149926D01*
X0164386Y0149686D01*
X0164196Y0149441D01*
X0164271Y0149384D01*
X0164459Y0149627D01*
X0164654Y0149866D01*
X0164854Y0150099D01*
X0165059Y0150327D01*
X0165271Y0150551D01*
X0165487Y0150769D01*
X0165709Y0150982D01*
X0165936Y0151189D01*
X0166168Y0151391D01*
X0166405Y0151587D01*
X0166647Y0151777D01*
X0166893Y0151961D01*
X0167144Y0152139D01*
X0167399Y0152311D01*
X0167658Y0152476D01*
X0167921Y0152636D01*
X0168188Y0152788D01*
X0168458Y0152935D01*
X0168732Y0153074D01*
X0169009Y0153207D01*
X0169290Y0153333D01*
X0169573Y0153452D01*
X0169860Y0153564D01*
X0170149Y0153669D01*
X0170440Y0153767D01*
X0170734Y0153858D01*
X0171030Y0153941D01*
X0171327Y0154018D01*
X0171627Y0154087D01*
X0171928Y0154148D01*
X0172231Y0154203D01*
X0172535Y0154249D01*
X0172840Y0154289D01*
X0173145Y0154321D01*
X0173452Y0154345D01*
X0173759Y0154362D01*
X0174066Y0154372D01*
X0174374Y0154374D01*
X0174681Y0154368D01*
X0174988Y0154355D01*
X0175295Y0154335D01*
X0175601Y0154306D01*
X0175907Y0154271D01*
X0176211Y0154228D01*
X0176514Y0154177D01*
X0176816Y0154120D01*
X0177117Y0154054D01*
X0177416Y0153982D01*
X0177712Y0153902D01*
X0178007Y0153815D01*
X0178300Y0153721D01*
X0178590Y0153619D01*
X0178878Y0153511D01*
X0179163Y0153396D01*
X0179445Y0153273D01*
X0179724Y0153144D01*
X0180000Y0153008D01*
X0180272Y0152865D01*
X0180541Y0152716D01*
X0180806Y0152560D01*
X0181067Y0152398D01*
X0181324Y0152229D01*
X0181577Y0152054D01*
X0181825Y0151873D01*
X0182069Y0151686D01*
X0182309Y0151493D01*
X0182543Y0151295D01*
X0182773Y0151090D01*
X0182998Y0150880D01*
X0183217Y0150665D01*
X0183431Y0150444D01*
X0183640Y0150219D01*
X0183843Y0149988D01*
X0184040Y0149752D01*
X0184232Y0149511D01*
X0184417Y0149266D01*
X0184597Y0149017D01*
X0184770Y0148763D01*
X0184937Y0148505D01*
X0185098Y0148243D01*
X0185252Y0147977D01*
X0185400Y0147707D01*
X0185541Y0147434D01*
X0185676Y0147157D01*
X0185803Y0146878D01*
X0185924Y0146595D01*
X0186038Y0146309D01*
X0186144Y0146021D01*
X0186244Y0145730D01*
X0186337Y0145437D01*
X0186422Y0145141D01*
X0186500Y0144844D01*
X0186571Y0144545D01*
X0186634Y0144244D01*
X0186690Y0143942D01*
X0186739Y0143638D01*
X0186780Y0143333D01*
X0186814Y0143028D01*
X0186840Y0142722D01*
X0186859Y0142415D01*
X0186870Y0142107D01*
X0186874Y0141800D01*
X0186870Y0141493D01*
X0186859Y0141185D01*
X0186840Y0140878D01*
X0186814Y0140572D01*
X0186780Y0140267D01*
X0186739Y0139962D01*
X0186690Y0139658D01*
X0186634Y0139356D01*
X0186571Y0139055D01*
X0186500Y0138756D01*
X0186422Y0138459D01*
X0186337Y0138163D01*
X0186244Y0137870D01*
X0186144Y0137579D01*
X0186038Y0137291D01*
X0185924Y0137005D01*
X0185803Y0136722D01*
X0185676Y0136443D01*
X0185541Y0136166D01*
X0185400Y0135893D01*
X0185252Y0135623D01*
X0185098Y0135357D01*
X0184937Y0135095D01*
X0184770Y0134837D01*
X0184597Y0134583D01*
X0184417Y0134334D01*
X0184232Y0134089D01*
X0184040Y0133848D01*
X0183843Y0133612D01*
X0183640Y0133381D01*
X0183431Y0133156D01*
X0183217Y0132935D01*
X0182998Y0132720D01*
X0182773Y0132510D01*
X0182543Y0132305D01*
X0182309Y0132107D01*
X0182069Y0131914D01*
X0181825Y0131727D01*
X0181577Y0131546D01*
X0181324Y0131371D01*
X0181067Y0131202D01*
X0180806Y0131040D01*
X0180541Y0130884D01*
X0180272Y0130735D01*
X0180000Y0130592D01*
X0179724Y0130456D01*
X0179445Y0130327D01*
X0179163Y0130204D01*
X0178878Y0130089D01*
X0178590Y0129981D01*
X0178300Y0129879D01*
X0178007Y0129785D01*
X0177712Y0129698D01*
X0177416Y0129618D01*
X0177117Y0129546D01*
X0176816Y0129480D01*
X0176514Y0129423D01*
X0176211Y0129372D01*
X0175907Y0129329D01*
X0175601Y0129294D01*
X0175295Y0129265D01*
X0174988Y0129245D01*
X0174681Y0129232D01*
X0174374Y0129226D01*
X0174066Y0129228D01*
X0173759Y0129238D01*
X0173452Y0129255D01*
X0173145Y0129279D01*
X0172840Y0129311D01*
X0172535Y0129351D01*
X0172231Y0129397D01*
X0171928Y0129452D01*
X0171627Y0129513D01*
X0171327Y0129582D01*
X0171030Y0129659D01*
X0170734Y0129742D01*
X0170440Y0129833D01*
X0170149Y0129931D01*
X0169860Y0130036D01*
X0169573Y0130148D01*
X0169290Y0130267D01*
X0169009Y0130393D01*
X0168732Y0130526D01*
X0168458Y0130665D01*
X0168188Y0130812D01*
X0167921Y0130964D01*
X0167658Y0131124D01*
X0167399Y0131289D01*
X0167144Y0131461D01*
X0166893Y0131639D01*
X0166647Y0131823D01*
X0166405Y0132013D01*
X0166168Y0132209D01*
X0165936Y0132411D01*
X0165709Y0132618D01*
X0165487Y0132831D01*
X0165271Y0133049D01*
X0165059Y0133273D01*
X0164854Y0133501D01*
X0164654Y0133734D01*
X0164459Y0133973D01*
X0164271Y0134216D01*
X0164346Y0134272D01*
X0164533Y0134031D01*
X0164726Y0133794D01*
X0164925Y0133563D01*
X0165129Y0133336D01*
X0165338Y0133114D01*
X0165553Y0132898D01*
X0165774Y0132687D01*
X0165999Y0132481D01*
X0166229Y0132281D01*
X0166465Y0132086D01*
X0166704Y0131898D01*
X0166949Y0131715D01*
X0167198Y0131538D01*
X0167451Y0131368D01*
X0167708Y0131203D01*
X0167969Y0131045D01*
X0168234Y0130894D01*
X0168502Y0130749D01*
X0168774Y0130610D01*
X0169049Y0130478D01*
X0169328Y0130353D01*
X0169609Y0130235D01*
X0169893Y0130124D01*
X0170180Y0130020D01*
X0170469Y0129922D01*
X0170761Y0129832D01*
X0171054Y0129749D01*
X0171350Y0129674D01*
X0171647Y0129605D01*
X0171946Y0129544D01*
X0172247Y0129490D01*
X0172548Y0129444D01*
X0172851Y0129404D01*
X0173154Y0129373D01*
X0173459Y0129348D01*
X0173763Y0129332D01*
X0174068Y0129322D01*
X0174373Y0129320D01*
X0174678Y0129326D01*
X0174983Y0129339D01*
X0175288Y0129359D01*
X0175592Y0129387D01*
X0175895Y0129422D01*
X0176197Y0129465D01*
X0176498Y0129515D01*
X0176798Y0129572D01*
X0177096Y0129637D01*
X0177392Y0129709D01*
X0177687Y0129788D01*
X0177980Y0129875D01*
X0178270Y0129968D01*
X0178558Y0130069D01*
X0178844Y0130177D01*
X0179127Y0130291D01*
X0179407Y0130413D01*
X0179684Y0130541D01*
X0179957Y0130676D01*
X0180227Y0130817D01*
X0180494Y0130966D01*
X0180757Y0131120D01*
X0181016Y0131281D01*
X0181272Y0131449D01*
X0181523Y0131622D01*
X0181769Y0131802D01*
X0182011Y0131988D01*
X0182249Y0132179D01*
X0182482Y0132376D01*
X0182710Y0132579D01*
X0182933Y0132788D01*
X0183151Y0133001D01*
X0183363Y0133220D01*
X0183570Y0133444D01*
X0183772Y0133674D01*
X0183968Y0133908D01*
X0184158Y0134146D01*
X0184342Y0134390D01*
X0184520Y0134637D01*
X0184692Y0134889D01*
X0184858Y0135146D01*
X0185017Y0135406D01*
X0185171Y0135670D01*
X0185317Y0135937D01*
X0185457Y0136208D01*
X0185591Y0136483D01*
X0185717Y0136760D01*
X0185837Y0137041D01*
X0185950Y0137325D01*
X0186056Y0137611D01*
X0186155Y0137899D01*
X0186247Y0138190D01*
X0186331Y0138484D01*
X0186409Y0138779D01*
X0186479Y0139076D01*
X0186542Y0139374D01*
X0186598Y0139674D01*
X0186646Y0139976D01*
X0186687Y0140278D01*
X0186720Y0140581D01*
X0186746Y0140885D01*
X0186765Y0141190D01*
X0186776Y0141495D01*
X0186780Y0141800D01*
X0186776Y0142105D01*
X0186765Y0142410D01*
X0186746Y0142715D01*
X0186720Y0143019D01*
X0186687Y0143322D01*
X0186646Y0143624D01*
X0186598Y0143926D01*
X0186542Y0144226D01*
X0186479Y0144524D01*
X0186409Y0144821D01*
X0186331Y0145116D01*
X0186247Y0145410D01*
X0186155Y0145701D01*
X0186056Y0145989D01*
X0185950Y0146275D01*
X0185837Y0146559D01*
X0185717Y0146840D01*
X0185591Y0147117D01*
X0185457Y0147392D01*
X0185317Y0147663D01*
X0185171Y0147930D01*
X0185017Y0148194D01*
X0184858Y0148454D01*
X0184692Y0148711D01*
X0184520Y0148963D01*
X0184342Y0149210D01*
X0184158Y0149454D01*
X0183968Y0149692D01*
X0183772Y0149926D01*
X0183570Y0150156D01*
X0183363Y0150380D01*
X0183151Y0150599D01*
X0182933Y0150812D01*
X0182710Y0151021D01*
X0182482Y0151224D01*
X0182249Y0151421D01*
X0182011Y0151612D01*
X0181769Y0151798D01*
X0181523Y0151978D01*
X0181272Y0152151D01*
X0181016Y0152319D01*
X0180757Y0152480D01*
X0180494Y0152634D01*
X0180227Y0152783D01*
X0179957Y0152924D01*
X0179684Y0153059D01*
X0179407Y0153187D01*
X0179127Y0153309D01*
X0178844Y0153423D01*
X0178558Y0153531D01*
X0178270Y0153632D01*
X0177980Y0153725D01*
X0177687Y0153812D01*
X0177392Y0153891D01*
X0177096Y0153963D01*
X0176798Y0154028D01*
X0176498Y0154085D01*
X0176197Y0154135D01*
X0175895Y0154178D01*
X0175592Y0154213D01*
X0175288Y0154241D01*
X0174983Y0154261D01*
X0174678Y0154274D01*
X0174373Y0154280D01*
X0174068Y0154278D01*
X0173763Y0154268D01*
X0173459Y0154252D01*
X0173154Y0154227D01*
X0172851Y0154196D01*
X0172548Y0154156D01*
X0172247Y0154110D01*
X0171946Y0154056D01*
X0171647Y0153995D01*
X0171350Y0153926D01*
X0171054Y0153851D01*
X0170761Y0153768D01*
X0170469Y0153678D01*
X0170180Y0153580D01*
X0169893Y0153476D01*
X0169609Y0153365D01*
X0169328Y0153247D01*
X0169049Y0153122D01*
X0168774Y0152990D01*
X0168502Y0152851D01*
X0168234Y0152706D01*
X0167969Y0152555D01*
X0167708Y0152397D01*
X0167451Y0152232D01*
X0167198Y0152062D01*
X0166949Y0151885D01*
X0166704Y0151702D01*
X0166465Y0151514D01*
X0166229Y0151319D01*
X0165999Y0151119D01*
X0165774Y0150913D01*
X0165553Y0150702D01*
X0165338Y0150486D01*
X0165129Y0150264D01*
X0164925Y0150037D01*
X0164726Y0149806D01*
X0164533Y0149569D01*
X0164346Y0149328D01*
X0164421Y0149272D01*
X0164607Y0149511D01*
X0164798Y0149746D01*
X0164995Y0149975D01*
X0165198Y0150200D01*
X0165406Y0150421D01*
X0165620Y0150635D01*
X0165838Y0150845D01*
X0166062Y0151049D01*
X0166290Y0151248D01*
X0166524Y0151441D01*
X0166762Y0151628D01*
X0167004Y0151809D01*
X0167251Y0151985D01*
X0167502Y0152154D01*
X0167758Y0152317D01*
X0168017Y0152474D01*
X0168280Y0152624D01*
X0168546Y0152768D01*
X0168816Y0152906D01*
X0169089Y0153037D01*
X0169365Y0153161D01*
X0169645Y0153278D01*
X0169927Y0153388D01*
X0170211Y0153492D01*
X0170498Y0153588D01*
X0170788Y0153678D01*
X0171079Y0153760D01*
X0171372Y0153835D01*
X0171668Y0153903D01*
X0171964Y0153964D01*
X0172262Y0154017D01*
X0172562Y0154063D01*
X0172862Y0154102D01*
X0173163Y0154134D01*
X0173465Y0154158D01*
X0173768Y0154175D01*
X0174070Y0154184D01*
X0174373Y0154186D01*
X0174676Y0154180D01*
X0174978Y0154167D01*
X0175281Y0154147D01*
X0175582Y0154119D01*
X0175883Y0154084D01*
X0176183Y0154042D01*
X0176482Y0153992D01*
X0176779Y0153935D01*
X0177075Y0153871D01*
X0177369Y0153800D01*
X0177662Y0153721D01*
X0177952Y0153635D01*
X0178241Y0153542D01*
X0178526Y0153443D01*
X0178810Y0153336D01*
X0179090Y0153222D01*
X0179368Y0153102D01*
X0179643Y0152974D01*
X0179915Y0152840D01*
X0180183Y0152700D01*
X0180448Y0152553D01*
X0180709Y0152399D01*
X0180966Y0152239D01*
X0181219Y0152073D01*
X0181468Y0151901D01*
X0181713Y0151723D01*
X0181954Y0151538D01*
X0182189Y0151348D01*
X0182420Y0151153D01*
X0182647Y0150951D01*
X0182868Y0150745D01*
X0183084Y0150532D01*
X0183295Y0150315D01*
X0183500Y0150093D01*
X0183700Y0149865D01*
X0183895Y0149633D01*
X0184083Y0149396D01*
X0184266Y0149154D01*
X0184443Y0148909D01*
X0184614Y0148658D01*
X0184778Y0148404D01*
X0184937Y0148146D01*
X0185089Y0147884D01*
X0185234Y0147619D01*
X0185373Y0147350D01*
X0185506Y0147077D01*
X0185631Y0146802D01*
X0185750Y0146523D01*
X0185862Y0146242D01*
X0185967Y0145958D01*
X0186066Y0145671D01*
X0186157Y0145382D01*
X0186241Y0145091D01*
X0186318Y0144798D01*
X0186387Y0144504D01*
X0186450Y0144207D01*
X0186505Y0143910D01*
X0186553Y0143611D01*
X0186594Y0143311D01*
X0186627Y0143009D01*
X0186653Y0142708D01*
X0186671Y0142405D01*
X0186682Y0142103D01*
X0186686Y0141800D01*
X0186682Y0141497D01*
X0186671Y0141195D01*
X0186653Y0140892D01*
X0186627Y0140591D01*
X0186594Y0140289D01*
X0186553Y0139989D01*
X0186505Y0139690D01*
X0186450Y0139393D01*
X0186387Y0139096D01*
X0186318Y0138802D01*
X0186241Y0138509D01*
X0186157Y0138218D01*
X0186066Y0137929D01*
X0185967Y0137642D01*
X0185862Y0137358D01*
X0185750Y0137077D01*
X0185631Y0136798D01*
X0185506Y0136523D01*
X0185373Y0136250D01*
X0185234Y0135981D01*
X0185089Y0135716D01*
X0184937Y0135454D01*
X0184778Y0135196D01*
X0184614Y0134942D01*
X0184443Y0134691D01*
X0184266Y0134446D01*
X0184083Y0134204D01*
X0183895Y0133967D01*
X0183700Y0133735D01*
X0183500Y0133507D01*
X0183295Y0133285D01*
X0183084Y0133068D01*
X0182868Y0132855D01*
X0182647Y0132649D01*
X0182420Y0132447D01*
X0182189Y0132252D01*
X0181954Y0132062D01*
X0181713Y0131877D01*
X0181468Y0131699D01*
X0181219Y0131527D01*
X0180966Y0131361D01*
X0180709Y0131201D01*
X0180448Y0131047D01*
X0180183Y0130900D01*
X0179915Y0130760D01*
X0179643Y0130626D01*
X0179368Y0130498D01*
X0179090Y0130378D01*
X0178810Y0130264D01*
X0178526Y0130157D01*
X0178241Y0130058D01*
X0177952Y0129965D01*
X0177662Y0129879D01*
X0177369Y0129800D01*
X0177075Y0129729D01*
X0176779Y0129665D01*
X0176482Y0129608D01*
X0176183Y0129558D01*
X0175883Y0129516D01*
X0175582Y0129481D01*
X0175281Y0129453D01*
X0174978Y0129433D01*
X0174676Y0129420D01*
X0174373Y0129414D01*
X0174070Y0129416D01*
X0173768Y0129425D01*
X0173465Y0129442D01*
X0173163Y0129466D01*
X0172862Y0129498D01*
X0172562Y0129537D01*
X0172262Y0129583D01*
X0171964Y0129636D01*
X0171668Y0129697D01*
X0171372Y0129765D01*
X0171079Y0129840D01*
X0170788Y0129922D01*
X0170498Y0130012D01*
X0170211Y0130108D01*
X0169927Y0130212D01*
X0169645Y0130322D01*
X0169365Y0130439D01*
X0169089Y0130563D01*
X0168816Y0130694D01*
X0168546Y0130832D01*
X0168280Y0130976D01*
X0168017Y0131126D01*
X0167758Y0131283D01*
X0167502Y0131446D01*
X0167251Y0131615D01*
X0167004Y0131791D01*
X0166762Y0131972D01*
X0166524Y0132159D01*
X0166290Y0132352D01*
X0166062Y0132551D01*
X0165838Y0132755D01*
X0165620Y0132965D01*
X0165406Y0133179D01*
X0165198Y0133400D01*
X0164995Y0133625D01*
X0164798Y0133854D01*
X0164607Y0134089D01*
X0164421Y0134328D01*
X0164496Y0134385D01*
X0164681Y0134147D01*
X0164871Y0133915D01*
X0165066Y0133686D01*
X0165267Y0133463D01*
X0165474Y0133245D01*
X0165686Y0133031D01*
X0165903Y0132823D01*
X0166125Y0132621D01*
X0166352Y0132424D01*
X0166583Y0132232D01*
X0166819Y0132046D01*
X0167060Y0131866D01*
X0167305Y0131692D01*
X0167554Y0131524D01*
X0167808Y0131362D01*
X0168065Y0131207D01*
X0168326Y0131058D01*
X0168590Y0130915D01*
X0168858Y0130778D01*
X0169129Y0130649D01*
X0169403Y0130526D01*
X0169680Y0130409D01*
X0169960Y0130300D01*
X0170243Y0130197D01*
X0170527Y0130101D01*
X0170815Y0130013D01*
X0171104Y0129931D01*
X0171395Y0129856D01*
X0171688Y0129789D01*
X0171982Y0129728D01*
X0172278Y0129675D01*
X0172575Y0129630D01*
X0172873Y0129591D01*
X0173172Y0129560D01*
X0173472Y0129536D01*
X0173772Y0129519D01*
X0174072Y0129510D01*
X0174373Y0129508D01*
X0174673Y0129514D01*
X0174974Y0129526D01*
X0175273Y0129547D01*
X0175573Y0129574D01*
X0175871Y0129609D01*
X0176169Y0129651D01*
X0176465Y0129700D01*
X0176760Y0129757D01*
X0177054Y0129821D01*
X0177346Y0129891D01*
X0177636Y0129969D01*
X0177925Y0130055D01*
X0178211Y0130147D01*
X0178495Y0130246D01*
X0178776Y0130352D01*
X0179054Y0130465D01*
X0179330Y0130584D01*
X0179603Y0130711D01*
X0179872Y0130844D01*
X0180138Y0130983D01*
X0180401Y0131129D01*
X0180660Y0131281D01*
X0180916Y0131440D01*
X0181167Y0131605D01*
X0181414Y0131776D01*
X0181657Y0131953D01*
X0181896Y0132136D01*
X0182130Y0132324D01*
X0182359Y0132518D01*
X0182583Y0132718D01*
X0182803Y0132923D01*
X0183017Y0133134D01*
X0183227Y0133350D01*
X0183431Y0133570D01*
X0183629Y0133796D01*
X0183822Y0134027D01*
X0184009Y0134262D01*
X0184191Y0134501D01*
X0184366Y0134745D01*
X0184536Y0134994D01*
X0184699Y0135246D01*
X0184856Y0135502D01*
X0185007Y0135762D01*
X0185151Y0136026D01*
X0185289Y0136293D01*
X0185421Y0136563D01*
X0185545Y0136836D01*
X0185663Y0137113D01*
X0185774Y0137392D01*
X0185879Y0137674D01*
X0185976Y0137958D01*
X0186067Y0138245D01*
X0186150Y0138534D01*
X0186226Y0138824D01*
X0186296Y0139117D01*
X0186358Y0139411D01*
X0186412Y0139706D01*
X0186460Y0140003D01*
X0186500Y0140301D01*
X0186533Y0140600D01*
X0186559Y0140899D01*
X0186577Y0141199D01*
X0186588Y0141499D01*
X0186592Y0141800D01*
X0186588Y0142101D01*
X0186577Y0142401D01*
X0186559Y0142701D01*
X0186533Y0143000D01*
X0186500Y0143299D01*
X0186460Y0143597D01*
X0186412Y0143894D01*
X0186358Y0144189D01*
X0186296Y0144483D01*
X0186226Y0144776D01*
X0186150Y0145066D01*
X0186067Y0145355D01*
X0185976Y0145642D01*
X0185879Y0145926D01*
X0185774Y0146208D01*
X0185663Y0146487D01*
X0185545Y0146764D01*
X0185421Y0147037D01*
X0185289Y0147307D01*
X0185151Y0147574D01*
X0185007Y0147838D01*
X0184856Y0148098D01*
X0184699Y0148354D01*
X0184536Y0148606D01*
X0184366Y0148855D01*
X0184191Y0149099D01*
X0184009Y0149338D01*
X0183822Y0149573D01*
X0183629Y0149804D01*
X0183431Y0150030D01*
X0183227Y0150250D01*
X0183017Y0150466D01*
X0182803Y0150677D01*
X0182583Y0150882D01*
X0182359Y0151082D01*
X0182130Y0151276D01*
X0181896Y0151464D01*
X0181657Y0151647D01*
X0181414Y0151824D01*
X0181167Y0151995D01*
X0180916Y0152160D01*
X0180660Y0152319D01*
X0180401Y0152471D01*
X0180138Y0152617D01*
X0179872Y0152756D01*
X0179603Y0152889D01*
X0179330Y0153016D01*
X0179054Y0153135D01*
X0178776Y0153248D01*
X0178495Y0153354D01*
X0178211Y0153453D01*
X0177925Y0153545D01*
X0177636Y0153631D01*
X0177346Y0153709D01*
X0177054Y0153779D01*
X0176760Y0153843D01*
X0176465Y0153900D01*
X0176169Y0153949D01*
X0175871Y0153991D01*
X0175573Y0154026D01*
X0175273Y0154053D01*
X0174974Y0154074D01*
X0174673Y0154086D01*
X0174373Y0154092D01*
X0174072Y0154090D01*
X0173772Y0154081D01*
X0173472Y0154064D01*
X0173172Y0154040D01*
X0172873Y0154009D01*
X0172575Y0153970D01*
X0172278Y0153925D01*
X0171982Y0153872D01*
X0171688Y0153811D01*
X0171395Y0153744D01*
X0171104Y0153669D01*
X0170815Y0153587D01*
X0170527Y0153499D01*
X0170243Y0153403D01*
X0169960Y0153300D01*
X0169680Y0153191D01*
X0169403Y0153074D01*
X0169129Y0152951D01*
X0168858Y0152822D01*
X0168590Y0152685D01*
X0168326Y0152542D01*
X0168065Y0152393D01*
X0167808Y0152238D01*
X0167554Y0152076D01*
X0167305Y0151908D01*
X0167060Y0151734D01*
X0166819Y0151554D01*
X0166583Y0151368D01*
X0166352Y0151176D01*
X0166125Y0150979D01*
X0165903Y0150777D01*
X0165686Y0150569D01*
X0165474Y0150355D01*
X0165267Y0150137D01*
X0165066Y0149914D01*
X0164871Y0149685D01*
X0164681Y0149453D01*
X0164496Y0149215D01*
X0164572Y0149159D01*
X0164754Y0149394D01*
X0164943Y0149625D01*
X0165137Y0149852D01*
X0165337Y0150074D01*
X0165542Y0150290D01*
X0165752Y0150502D01*
X0165967Y0150708D01*
X0166187Y0150909D01*
X0166413Y0151105D01*
X0166642Y0151295D01*
X0166877Y0151479D01*
X0167116Y0151658D01*
X0167359Y0151831D01*
X0167606Y0151997D01*
X0167858Y0152158D01*
X0168113Y0152312D01*
X0168372Y0152460D01*
X0168634Y0152602D01*
X0168900Y0152737D01*
X0169169Y0152866D01*
X0169441Y0152988D01*
X0169716Y0153104D01*
X0169994Y0153213D01*
X0170274Y0153314D01*
X0170557Y0153409D01*
X0170842Y0153497D01*
X0171129Y0153578D01*
X0171417Y0153653D01*
X0171708Y0153719D01*
X0172000Y0153779D01*
X0172294Y0153832D01*
X0172589Y0153877D01*
X0172884Y0153916D01*
X0173181Y0153947D01*
X0173478Y0153970D01*
X0173776Y0153987D01*
X0174074Y0153996D01*
X0174372Y0153998D01*
X0174671Y0153992D01*
X0174969Y0153980D01*
X0175266Y0153960D01*
X0175563Y0153932D01*
X0175859Y0153898D01*
X0176155Y0153856D01*
X0176449Y0153807D01*
X0176742Y0153751D01*
X0177033Y0153688D01*
X0177323Y0153617D01*
X0177611Y0153540D01*
X0177897Y0153456D01*
X0178181Y0153364D01*
X0178463Y0153266D01*
X0178742Y0153161D01*
X0179018Y0153049D01*
X0179292Y0152930D01*
X0179562Y0152805D01*
X0179830Y0152673D01*
X0180094Y0152534D01*
X0180355Y0152389D01*
X0180612Y0152238D01*
X0180865Y0152081D01*
X0181114Y0151917D01*
X0181360Y0151747D01*
X0181601Y0151572D01*
X0181838Y0151390D01*
X0182070Y0151203D01*
X0182297Y0151011D01*
X0182520Y0150812D01*
X0182738Y0150609D01*
X0182951Y0150400D01*
X0183159Y0150186D01*
X0183361Y0149966D01*
X0183558Y0149743D01*
X0183749Y0149514D01*
X0183935Y0149280D01*
X0184115Y0149043D01*
X0184289Y0148801D01*
X0184457Y0148554D01*
X0184619Y0148304D01*
X0184775Y0148050D01*
X0184925Y0147792D01*
X0185068Y0147530D01*
X0185205Y0147265D01*
X0185336Y0146997D01*
X0185459Y0146726D01*
X0185576Y0146451D01*
X0185687Y0146174D01*
X0185790Y0145894D01*
X0185887Y0145612D01*
X0185977Y0145328D01*
X0186059Y0145041D01*
X0186135Y0144753D01*
X0186204Y0144463D01*
X0186265Y0144171D01*
X0186320Y0143878D01*
X0186367Y0143583D01*
X0186407Y0143288D01*
X0186440Y0142991D01*
X0186465Y0142694D01*
X0186483Y0142396D01*
X0186494Y0142098D01*
X0186498Y0141800D01*
X0186494Y0141502D01*
X0186483Y0141204D01*
X0186465Y0140906D01*
X0186440Y0140609D01*
X0186407Y0140312D01*
X0186367Y0140017D01*
X0186320Y0139722D01*
X0186265Y0139429D01*
X0186204Y0139137D01*
X0186135Y0138847D01*
X0186059Y0138559D01*
X0185977Y0138272D01*
X0185887Y0137988D01*
X0185790Y0137706D01*
X0185687Y0137426D01*
X0185576Y0137149D01*
X0185459Y0136874D01*
X0185336Y0136603D01*
X0185205Y0136335D01*
X0185068Y0136070D01*
X0184925Y0135808D01*
X0184775Y0135550D01*
X0184619Y0135296D01*
X0184457Y0135046D01*
X0184289Y0134799D01*
X0184115Y0134557D01*
X0183935Y0134320D01*
X0183749Y0134086D01*
X0183558Y0133857D01*
X0183361Y0133634D01*
X0183159Y0133414D01*
X0182951Y0133200D01*
X0182738Y0132991D01*
X0182520Y0132788D01*
X0182297Y0132589D01*
X0182070Y0132397D01*
X0181838Y0132210D01*
X0181601Y0132028D01*
X0181360Y0131853D01*
X0181114Y0131683D01*
X0180865Y0131519D01*
X0180612Y0131362D01*
X0180355Y0131211D01*
X0180094Y0131066D01*
X0179830Y0130927D01*
X0179562Y0130795D01*
X0179292Y0130670D01*
X0179018Y0130551D01*
X0178742Y0130439D01*
X0178463Y0130334D01*
X0178181Y0130236D01*
X0177897Y0130144D01*
X0177611Y0130060D01*
X0177323Y0129983D01*
X0177033Y0129912D01*
X0176742Y0129849D01*
X0176449Y0129793D01*
X0176155Y0129744D01*
X0175859Y0129702D01*
X0175563Y0129668D01*
X0175266Y0129640D01*
X0174969Y0129620D01*
X0174671Y0129608D01*
X0174372Y0129602D01*
X0174074Y0129604D01*
X0173776Y0129613D01*
X0173478Y0129630D01*
X0173181Y0129653D01*
X0172884Y0129684D01*
X0172589Y0129723D01*
X0172294Y0129768D01*
X0172000Y0129821D01*
X0171708Y0129881D01*
X0171417Y0129947D01*
X0171129Y0130022D01*
X0170842Y0130103D01*
X0170557Y0130191D01*
X0170274Y0130286D01*
X0169994Y0130387D01*
X0169716Y0130496D01*
X0169441Y0130612D01*
X0169169Y0130734D01*
X0168900Y0130863D01*
X0168634Y0130998D01*
X0168372Y0131140D01*
X0168113Y0131288D01*
X0167858Y0131442D01*
X0167606Y0131603D01*
X0167359Y0131769D01*
X0167116Y0131942D01*
X0166877Y0132121D01*
X0166642Y0132305D01*
X0166413Y0132495D01*
X0166187Y0132691D01*
X0165967Y0132892D01*
X0165752Y0133098D01*
X0165542Y0133310D01*
X0165337Y0133526D01*
X0165137Y0133748D01*
X0164943Y0133975D01*
X0164754Y0134206D01*
X0164572Y0134441D01*
X0164647Y0134498D01*
X0164828Y0134264D01*
X0165015Y0134035D01*
X0165208Y0133810D01*
X0165406Y0133590D01*
X0165609Y0133375D01*
X0165818Y0133165D01*
X0166032Y0132960D01*
X0166250Y0132761D01*
X0166474Y0132567D01*
X0166702Y0132378D01*
X0166934Y0132195D01*
X0167171Y0132018D01*
X0167413Y0131847D01*
X0167658Y0131681D01*
X0167907Y0131522D01*
X0168161Y0131369D01*
X0168417Y0131222D01*
X0168678Y0131081D01*
X0168942Y0130947D01*
X0169209Y0130819D01*
X0169479Y0130698D01*
X0169751Y0130583D01*
X0170027Y0130475D01*
X0170305Y0130374D01*
X0170586Y0130280D01*
X0170868Y0130193D01*
X0171153Y0130112D01*
X0171440Y0130039D01*
X0171728Y0129972D01*
X0172018Y0129913D01*
X0172310Y0129861D01*
X0172602Y0129816D01*
X0172896Y0129778D01*
X0173190Y0129747D01*
X0173485Y0129723D01*
X0173780Y0129707D01*
X0174076Y0129698D01*
X0174372Y0129696D01*
X0174668Y0129702D01*
X0174964Y0129714D01*
X0175259Y0129734D01*
X0175554Y0129761D01*
X0175848Y0129795D01*
X0176141Y0129837D01*
X0176433Y0129885D01*
X0176723Y0129941D01*
X0177012Y0130004D01*
X0177300Y0130074D01*
X0177586Y0130151D01*
X0177870Y0130234D01*
X0178151Y0130325D01*
X0178431Y0130423D01*
X0178708Y0130527D01*
X0178982Y0130638D01*
X0179253Y0130756D01*
X0179522Y0130880D01*
X0179787Y0131011D01*
X0180049Y0131149D01*
X0180308Y0131292D01*
X0180563Y0131442D01*
X0180815Y0131599D01*
X0181062Y0131761D01*
X0181305Y0131929D01*
X0181545Y0132104D01*
X0181780Y0132284D01*
X0182010Y0132469D01*
X0182236Y0132661D01*
X0182457Y0132857D01*
X0182673Y0133059D01*
X0182884Y0133267D01*
X0183090Y0133479D01*
X0183291Y0133697D01*
X0183487Y0133919D01*
X0183677Y0134146D01*
X0183861Y0134377D01*
X0184039Y0134613D01*
X0184212Y0134853D01*
X0184379Y0135098D01*
X0184540Y0135346D01*
X0184695Y0135599D01*
X0184843Y0135855D01*
X0184985Y0136114D01*
X0185121Y0136377D01*
X0185251Y0136643D01*
X0185373Y0136912D01*
X0185490Y0137185D01*
X0185599Y0137460D01*
X0185702Y0137737D01*
X0185798Y0138017D01*
X0185887Y0138299D01*
X0185969Y0138584D01*
X0186044Y0138870D01*
X0186112Y0139158D01*
X0186173Y0139447D01*
X0186227Y0139738D01*
X0186274Y0140031D01*
X0186314Y0140324D01*
X0186346Y0140618D01*
X0186371Y0140913D01*
X0186390Y0141208D01*
X0186400Y0141504D01*
X0186404Y0141800D01*
X0186400Y0142096D01*
X0186390Y0142392D01*
X0186371Y0142687D01*
X0186346Y0142982D01*
X0186314Y0143276D01*
X0186274Y0143569D01*
X0186227Y0143862D01*
X0186173Y0144153D01*
X0186112Y0144442D01*
X0186044Y0144730D01*
X0185969Y0145016D01*
X0185887Y0145301D01*
X0185798Y0145583D01*
X0185702Y0145863D01*
X0185599Y0146140D01*
X0185490Y0146415D01*
X0185373Y0146688D01*
X0185251Y0146957D01*
X0185121Y0147223D01*
X0184985Y0147486D01*
X0184843Y0147745D01*
X0184695Y0148001D01*
X0184540Y0148254D01*
X0184379Y0148502D01*
X0184212Y0148747D01*
X0184039Y0148987D01*
X0183861Y0149223D01*
X0183677Y0149454D01*
X0183487Y0149681D01*
X0183291Y0149903D01*
X0183090Y0150121D01*
X0182884Y0150333D01*
X0182673Y0150541D01*
X0182457Y0150743D01*
X0182236Y0150939D01*
X0182010Y0151131D01*
X0181780Y0151316D01*
X0181545Y0151496D01*
X0181305Y0151671D01*
X0181062Y0151839D01*
X0180815Y0152001D01*
X0180563Y0152158D01*
X0180308Y0152308D01*
X0180049Y0152451D01*
X0179787Y0152589D01*
X0179522Y0152720D01*
X0179253Y0152844D01*
X0178982Y0152962D01*
X0178708Y0153073D01*
X0178431Y0153177D01*
X0178151Y0153275D01*
X0177870Y0153366D01*
X0177586Y0153449D01*
X0177300Y0153526D01*
X0177012Y0153596D01*
X0176723Y0153659D01*
X0176433Y0153715D01*
X0176141Y0153763D01*
X0175848Y0153805D01*
X0175554Y0153839D01*
X0175259Y0153866D01*
X0174964Y0153886D01*
X0174668Y0153898D01*
X0174372Y0153904D01*
X0174076Y0153902D01*
X0173780Y0153893D01*
X0173485Y0153877D01*
X0173190Y0153853D01*
X0172896Y0153822D01*
X0172602Y0153784D01*
X0172310Y0153739D01*
X0172018Y0153687D01*
X0171728Y0153628D01*
X0171440Y0153561D01*
X0171153Y0153488D01*
X0170868Y0153407D01*
X0170586Y0153320D01*
X0170305Y0153226D01*
X0170027Y0153125D01*
X0169751Y0153017D01*
X0169479Y0152902D01*
X0169209Y0152781D01*
X0168942Y0152653D01*
X0168678Y0152519D01*
X0168417Y0152378D01*
X0168161Y0152231D01*
X0167907Y0152078D01*
X0167658Y0151919D01*
X0167413Y0151753D01*
X0167171Y0151582D01*
X0166934Y0151405D01*
X0166702Y0151222D01*
X0166474Y0151033D01*
X0166250Y0150839D01*
X0166032Y0150640D01*
X0165818Y0150435D01*
X0165609Y0150225D01*
X0165406Y0150010D01*
X0165208Y0149790D01*
X0165015Y0149565D01*
X0164828Y0149336D01*
X0164647Y0149102D01*
X0106251Y0068352D02*
X0105984Y0068352D01*
X0104917Y0067285D01*
X0104650Y0067285D01*
X0104917Y0066787D02*
X0104650Y0066520D01*
X0104650Y0065986D01*
X0104917Y0065719D01*
X0104650Y0065222D02*
X0104650Y0064154D01*
X0105718Y0065222D01*
X0105984Y0065222D01*
X0106251Y0064955D01*
X0106251Y0064421D01*
X0105984Y0064154D01*
X0104650Y0063656D02*
X0104650Y0062589D01*
X0106251Y0062589D01*
X0105984Y0062091D02*
X0106251Y0061824D01*
X0106251Y0061290D01*
X0105984Y0061023D01*
X0105718Y0061023D01*
X0105451Y0061290D01*
X0105451Y0061824D01*
X0105184Y0062091D01*
X0104917Y0062091D01*
X0104650Y0061824D01*
X0104650Y0061290D01*
X0104917Y0061023D01*
X0104650Y0059992D02*
X0106251Y0059992D01*
X0106251Y0059458D02*
X0106251Y0060526D01*
X0105984Y0065719D02*
X0106251Y0065986D01*
X0106251Y0066520D01*
X0105984Y0066787D01*
X0105718Y0066787D01*
X0105451Y0066520D01*
X0105184Y0066787D01*
X0104917Y0066787D01*
X0105451Y0066520D02*
X0105451Y0066253D01*
X0106251Y0067285D02*
X0106251Y0068352D01*
X0114417Y0059352D02*
X0115484Y0059352D01*
X0115751Y0059085D01*
X0115751Y0058285D01*
X0114150Y0058285D01*
X0114150Y0059085D01*
X0114417Y0059352D01*
X0114150Y0057787D02*
X0115751Y0057787D01*
X0115751Y0056719D02*
X0114150Y0057787D01*
X0114150Y0056719D02*
X0115751Y0056719D01*
X0115484Y0056222D02*
X0115751Y0055955D01*
X0115751Y0055421D01*
X0115484Y0055154D01*
X0114417Y0055154D01*
X0114150Y0055421D01*
X0114150Y0055955D01*
X0114417Y0056222D01*
X0114951Y0056222D01*
X0114951Y0055688D01*
X0114417Y0051352D02*
X0115484Y0051352D01*
X0115751Y0051085D01*
X0115751Y0050285D01*
X0114150Y0050285D01*
X0114150Y0051085D01*
X0114417Y0051352D01*
X0114417Y0049787D02*
X0115484Y0049787D01*
X0115751Y0049520D01*
X0115751Y0048719D01*
X0114150Y0048719D01*
X0114150Y0049520D01*
X0114417Y0049787D01*
X0114684Y0048222D02*
X0115751Y0048222D01*
X0114684Y0048222D02*
X0114150Y0047688D01*
X0114684Y0047154D01*
X0115751Y0047154D01*
X0115751Y0042852D02*
X0115751Y0041785D01*
X0115751Y0041287D02*
X0114417Y0041287D01*
X0114150Y0041020D01*
X0114150Y0040486D01*
X0114417Y0040219D01*
X0115751Y0040219D01*
X0115484Y0039722D02*
X0115751Y0039455D01*
X0115751Y0038921D01*
X0115484Y0038654D01*
X0114417Y0038654D01*
X0114150Y0038921D01*
X0114150Y0039455D01*
X0114417Y0039722D01*
X0115484Y0039722D01*
X0115751Y0042318D02*
X0114150Y0042318D01*
D132*
X0096800Y0049300D03*
D133*
X0018900Y0191800D03*
D134*
X0019650Y0192550D03*
X0019650Y0191050D03*
D135*
X0018100Y0191800D03*
D136*
X0122863Y0053237D03*
M02*
