G75*
%MOIN*%
%OFA0B0*%
%FSLAX25Y25*%
%IPPOS*%
%LPD*%
%AMOC8*
5,1,8,0,0,1.08239X$1,22.5*
%
%ADD10C,0.00600*%
%ADD11C,0.00800*%
%ADD12C,0.00500*%
D10*
X0182050Y0008168D02*
X0183118Y0007100D01*
X0185253Y0007100D01*
X0186320Y0008168D01*
X0186320Y0009235D01*
X0185253Y0010303D01*
X0183118Y0010303D01*
X0182050Y0011370D01*
X0182050Y0012438D01*
X0183118Y0013505D01*
X0185253Y0013505D01*
X0186320Y0012438D01*
X0188495Y0011370D02*
X0189563Y0011370D01*
X0189563Y0007100D01*
X0188495Y0007100D02*
X0190631Y0007100D01*
X0192792Y0007100D02*
X0192792Y0011370D01*
X0193860Y0011370D01*
X0194928Y0010303D01*
X0195995Y0011370D01*
X0197063Y0010303D01*
X0197063Y0007100D01*
X0194928Y0007100D02*
X0194928Y0010303D01*
X0199238Y0011370D02*
X0202441Y0011370D01*
X0203508Y0010303D01*
X0203508Y0008168D01*
X0202441Y0007100D01*
X0199238Y0007100D01*
X0199238Y0004965D02*
X0199238Y0011370D01*
X0205683Y0013505D02*
X0206751Y0013505D01*
X0206751Y0007100D01*
X0205683Y0007100D02*
X0207819Y0007100D01*
X0209980Y0008168D02*
X0209980Y0010303D01*
X0211048Y0011370D01*
X0213183Y0011370D01*
X0214251Y0010303D01*
X0214251Y0009235D01*
X0209980Y0009235D01*
X0209980Y0008168D02*
X0211048Y0007100D01*
X0213183Y0007100D01*
X0222871Y0007100D02*
X0226074Y0007100D01*
X0227142Y0008168D01*
X0226074Y0009235D01*
X0223939Y0009235D01*
X0222871Y0010303D01*
X0223939Y0011370D01*
X0227142Y0011370D01*
X0229317Y0011370D02*
X0232520Y0011370D01*
X0233587Y0010303D01*
X0233587Y0008168D01*
X0232520Y0007100D01*
X0229317Y0007100D01*
X0229317Y0004965D02*
X0229317Y0011370D01*
X0235762Y0010303D02*
X0235762Y0008168D01*
X0236830Y0007100D01*
X0238965Y0007100D01*
X0240033Y0009235D02*
X0235762Y0009235D01*
X0235762Y0010303D02*
X0236830Y0011370D01*
X0238965Y0011370D01*
X0240033Y0010303D01*
X0240033Y0009235D01*
X0242208Y0008168D02*
X0242208Y0010303D01*
X0243276Y0011370D01*
X0246478Y0011370D01*
X0248653Y0011370D02*
X0250789Y0011370D01*
X0249721Y0012438D02*
X0249721Y0008168D01*
X0250789Y0007100D01*
X0252950Y0007100D02*
X0252950Y0011370D01*
X0252950Y0009235D02*
X0255086Y0011370D01*
X0256153Y0011370D01*
X0258322Y0010303D02*
X0258322Y0008168D01*
X0259389Y0007100D01*
X0261524Y0007100D01*
X0262592Y0008168D01*
X0262592Y0010303D01*
X0261524Y0011370D01*
X0259389Y0011370D01*
X0258322Y0010303D01*
X0264767Y0011370D02*
X0264767Y0004965D01*
X0264767Y0007100D02*
X0267970Y0007100D01*
X0269038Y0008168D01*
X0269038Y0010303D01*
X0267970Y0011370D01*
X0264767Y0011370D01*
X0271213Y0010303D02*
X0272280Y0011370D01*
X0274415Y0011370D01*
X0275483Y0010303D01*
X0275483Y0007100D01*
X0277658Y0008168D02*
X0278726Y0007100D01*
X0280861Y0007100D01*
X0281929Y0008168D01*
X0281929Y0010303D01*
X0280861Y0011370D01*
X0278726Y0011370D01*
X0277658Y0010303D01*
X0277658Y0008168D01*
X0271213Y0007100D02*
X0271213Y0013505D01*
X0284104Y0011370D02*
X0286239Y0011370D01*
X0285171Y0012438D02*
X0285171Y0008168D01*
X0286239Y0007100D01*
X0288401Y0008168D02*
X0288401Y0010303D01*
X0289468Y0011370D01*
X0291603Y0011370D01*
X0292671Y0010303D01*
X0292671Y0008168D01*
X0291603Y0007100D01*
X0289468Y0007100D01*
X0288401Y0008168D01*
X0294846Y0007100D02*
X0294846Y0011370D01*
X0295914Y0011370D01*
X0296981Y0010303D01*
X0298049Y0011370D01*
X0299117Y0010303D01*
X0299117Y0007100D01*
X0296981Y0007100D02*
X0296981Y0010303D01*
X0301292Y0010303D02*
X0301292Y0008168D01*
X0302359Y0007100D01*
X0304494Y0007100D01*
X0305562Y0009235D02*
X0301292Y0009235D01*
X0301292Y0010303D02*
X0302359Y0011370D01*
X0304494Y0011370D01*
X0305562Y0010303D01*
X0305562Y0009235D01*
X0307737Y0011370D02*
X0309872Y0011370D01*
X0308805Y0012438D02*
X0308805Y0008168D01*
X0309872Y0007100D01*
X0312034Y0008168D02*
X0312034Y0010303D01*
X0313102Y0011370D01*
X0315237Y0011370D01*
X0316305Y0010303D01*
X0316305Y0009235D01*
X0312034Y0009235D01*
X0312034Y0008168D02*
X0313102Y0007100D01*
X0315237Y0007100D01*
X0318480Y0007100D02*
X0318480Y0011370D01*
X0318480Y0009235D02*
X0320615Y0011370D01*
X0321682Y0011370D01*
X0321750Y0013300D02*
X0321750Y0005300D01*
X0320750Y0004300D01*
X0312750Y0004300D01*
X0311750Y0005300D01*
X0311750Y0013300D01*
X0312750Y0014300D01*
X0311750Y0015300D01*
X0311750Y0023300D01*
X0312750Y0024300D01*
X0320750Y0024300D01*
X0321750Y0023300D01*
X0321750Y0015300D01*
X0320750Y0014300D01*
X0321750Y0013300D01*
X0330296Y0013505D02*
X0330296Y0009235D01*
X0332432Y0007100D01*
X0334567Y0009235D01*
X0334567Y0013505D01*
X0343187Y0011370D02*
X0345323Y0013505D01*
X0345323Y0007100D01*
X0347458Y0007100D02*
X0343187Y0007100D01*
X0349633Y0007100D02*
X0350700Y0007100D01*
X0350700Y0008168D01*
X0349633Y0008168D01*
X0349633Y0007100D01*
X0352856Y0007100D02*
X0357126Y0007100D01*
X0354991Y0007100D02*
X0354991Y0013505D01*
X0352856Y0011370D01*
X0359301Y0008168D02*
X0360369Y0008168D01*
X0360369Y0007100D01*
X0359301Y0007100D01*
X0359301Y0008168D01*
X0362524Y0008168D02*
X0366794Y0012438D01*
X0366794Y0008168D01*
X0365727Y0007100D01*
X0363591Y0007100D01*
X0362524Y0008168D01*
X0362524Y0012438D01*
X0363591Y0013505D01*
X0365727Y0013505D01*
X0366794Y0012438D01*
X0246478Y0007100D02*
X0243276Y0007100D01*
X0242208Y0008168D01*
X0189563Y0013505D02*
X0189563Y0014573D01*
X0285250Y0144300D02*
X0293250Y0144300D01*
X0294250Y0145300D01*
X0295250Y0144300D01*
X0303250Y0144300D01*
X0304250Y0145300D01*
X0304250Y0153300D01*
X0303250Y0154300D01*
X0295250Y0154300D01*
X0294250Y0153300D01*
X0293250Y0154300D01*
X0285250Y0154300D01*
X0284250Y0153300D01*
X0284250Y0145300D01*
X0285250Y0144300D01*
X0268250Y0269300D02*
X0260250Y0269300D01*
X0259250Y0270300D01*
X0258250Y0269300D01*
X0250250Y0269300D01*
X0249250Y0270300D01*
X0249250Y0278300D01*
X0250250Y0279300D01*
X0258250Y0279300D01*
X0259250Y0278300D01*
X0260250Y0279300D01*
X0268250Y0279300D01*
X0269250Y0278300D01*
X0269250Y0270300D01*
X0268250Y0269300D01*
D11*
X0339604Y0263572D02*
X0339604Y0160028D01*
X0058896Y0160028D01*
X0058896Y0263572D01*
X0339604Y0263572D01*
X0356730Y0282666D02*
X0356730Y0140934D01*
X0041770Y0140934D01*
X0041770Y0282666D01*
X0356730Y0282666D01*
D12*
X0261710Y0267554D02*
X0258708Y0267554D01*
X0260209Y0267554D02*
X0260209Y0263050D01*
X0257106Y0263050D02*
X0257106Y0266053D01*
X0255605Y0267554D01*
X0254104Y0266053D01*
X0254104Y0263050D01*
X0252503Y0263801D02*
X0251752Y0263050D01*
X0249500Y0263050D01*
X0249500Y0267554D01*
X0251752Y0267554D01*
X0252503Y0266803D01*
X0252503Y0266053D01*
X0251752Y0265302D01*
X0249500Y0265302D01*
X0251752Y0265302D02*
X0252503Y0264551D01*
X0252503Y0263801D01*
X0254104Y0265302D02*
X0257106Y0265302D01*
X0301397Y0160554D02*
X0302899Y0159053D01*
X0302899Y0156050D01*
X0302899Y0158302D02*
X0299896Y0158302D01*
X0299896Y0159053D02*
X0299896Y0156050D01*
X0299896Y0159053D02*
X0301397Y0160554D01*
M02*
