G75*
%MOIN*%
%OFA0B0*%
%FSLAX25Y25*%
%IPPOS*%
%LPD*%
%AMOC8*
5,1,8,0,0,1.08239X$1,22.5*
%
%ADD10C,0.00600*%
%ADD11R,0.00400X0.00200*%
%ADD12R,0.02400X0.00200*%
%ADD13R,0.02800X0.00200*%
%ADD14R,0.00600X0.00200*%
%ADD15R,0.02600X0.00200*%
%ADD16R,0.00800X0.00200*%
%ADD17R,0.03200X0.00200*%
%ADD18R,0.03600X0.00200*%
%ADD19R,0.01000X0.00200*%
%ADD20R,0.03400X0.00200*%
%ADD21R,0.04000X0.00200*%
%ADD22R,0.04200X0.00200*%
%ADD23R,0.03800X0.00200*%
%ADD24R,0.04400X0.00200*%
%ADD25R,0.04600X0.00200*%
%ADD26R,0.05400X0.00200*%
%ADD27R,0.01400X0.00200*%
%ADD28R,0.02200X0.00200*%
%ADD29R,0.01200X0.00200*%
%ADD30R,0.01800X0.00200*%
%ADD31R,0.02000X0.00200*%
%ADD32R,0.01600X0.00200*%
%ADD33R,0.05200X0.00200*%
%ADD34R,0.05000X0.00200*%
%ADD35R,0.04800X0.00200*%
%ADD36R,0.06000X0.00200*%
%ADD37R,0.03000X0.00200*%
%ADD38R,0.00200X0.00200*%
%ADD39R,0.12800X0.00200*%
%ADD40R,0.12200X0.00200*%
%ADD41R,0.14600X0.00200*%
%ADD42R,0.14200X0.00200*%
%ADD43R,0.15400X0.00200*%
%ADD44R,0.15200X0.00200*%
%ADD45R,0.16200X0.00200*%
%ADD46R,0.15800X0.00200*%
%ADD47R,0.16800X0.00200*%
%ADD48R,0.16400X0.00200*%
%ADD49R,0.17200X0.00200*%
%ADD50R,0.17000X0.00200*%
%ADD51R,0.17800X0.00200*%
%ADD52R,0.17600X0.00200*%
%ADD53R,0.18000X0.00200*%
%ADD54R,0.18600X0.00200*%
%ADD55R,0.18200X0.00200*%
%ADD56R,0.18800X0.00200*%
%ADD57R,0.05600X0.00200*%
%ADD58R,0.19200X0.00200*%
%ADD59R,0.05800X0.00200*%
%ADD60R,0.19000X0.00200*%
%ADD61R,0.19400X0.00200*%
%ADD62R,0.19600X0.00200*%
%ADD63R,0.19800X0.00200*%
%ADD64R,0.20200X0.00200*%
%ADD65R,0.20000X0.00200*%
%ADD66R,0.20400X0.00200*%
%ADD67R,0.20600X0.00200*%
%ADD68R,0.20800X0.00200*%
%ADD69R,0.18400X0.00200*%
%ADD70R,0.07200X0.00200*%
%ADD71R,0.06800X0.00200*%
%ADD72R,0.07000X0.00200*%
%ADD73R,0.06600X0.00200*%
%ADD74R,0.06400X0.00200*%
%ADD75R,0.06200X0.00200*%
%ADD76R,0.36800X0.00200*%
%ADD77R,0.08800X0.00200*%
%ADD78R,0.13200X0.00200*%
%ADD79R,0.09000X0.00200*%
%ADD80R,0.08000X0.00200*%
%ADD81R,0.11600X0.00200*%
%ADD82R,0.08200X0.00200*%
%ADD83R,0.07400X0.00200*%
%ADD84R,0.10400X0.00200*%
%ADD85R,0.07600X0.00200*%
%ADD86R,0.09600X0.00200*%
%ADD87R,0.07800X0.00200*%
%ADD88R,0.08400X0.00200*%
%ADD89R,0.08600X0.00200*%
%ADD90R,0.33600X0.00200*%
%ADD91R,0.33200X0.00200*%
%ADD92R,0.32800X0.00200*%
%ADD93R,0.32400X0.00200*%
%ADD94R,0.32000X0.00200*%
%ADD95R,0.31600X0.00200*%
%ADD96R,0.31200X0.00200*%
%ADD97R,0.30800X0.00200*%
%ADD98R,0.30400X0.00200*%
%ADD99R,0.30000X0.00200*%
%ADD100R,0.29600X0.00200*%
%ADD101R,0.29400X0.00200*%
%ADD102R,0.29200X0.00200*%
%ADD103R,0.28800X0.00200*%
%ADD104R,0.28400X0.00200*%
%ADD105R,0.28000X0.00200*%
%ADD106R,0.27800X0.00200*%
%ADD107R,0.27600X0.00200*%
%ADD108R,0.27200X0.00200*%
%ADD109R,0.26800X0.00200*%
%ADD110R,0.26400X0.00200*%
%ADD111R,0.26000X0.00200*%
%ADD112R,0.25600X0.00200*%
%ADD113R,0.25200X0.00200*%
%ADD114R,0.24800X0.00200*%
%ADD115R,0.24200X0.00200*%
%ADD116R,0.23600X0.00200*%
%ADD117R,0.23200X0.00200*%
%ADD118R,0.22800X0.00200*%
%ADD119R,0.22400X0.00200*%
%ADD120R,0.21600X0.00200*%
%ADD121R,0.21200X0.00200*%
%ADD122R,0.15600X0.00200*%
%ADD123R,0.14800X0.00200*%
%ADD124R,0.13800X0.00200*%
%ADD125C,0.00800*%
D10*
X0029600Y0009235D02*
X0031735Y0007100D01*
X0033870Y0009235D01*
X0033870Y0013505D01*
X0032803Y0017600D02*
X0030668Y0017600D01*
X0029600Y0018668D01*
X0030668Y0020803D02*
X0032803Y0020803D01*
X0033870Y0019735D01*
X0033870Y0018668D01*
X0032803Y0017600D01*
X0036045Y0017600D02*
X0038181Y0017600D01*
X0037113Y0017600D02*
X0037113Y0021870D01*
X0036045Y0021870D01*
X0037113Y0024005D02*
X0037113Y0025073D01*
X0033870Y0022938D02*
X0032803Y0024005D01*
X0030668Y0024005D01*
X0029600Y0022938D01*
X0029600Y0021870D01*
X0030668Y0020803D01*
X0029600Y0013505D02*
X0029600Y0009235D01*
X0042491Y0007100D02*
X0046761Y0007100D01*
X0044626Y0007100D02*
X0044626Y0013505D01*
X0042491Y0011370D01*
X0046788Y0015465D02*
X0046788Y0021870D01*
X0049991Y0021870D01*
X0051058Y0020803D01*
X0051058Y0018668D01*
X0049991Y0017600D01*
X0046788Y0017600D01*
X0044613Y0017600D02*
X0044613Y0020803D01*
X0043545Y0021870D01*
X0042478Y0020803D01*
X0042478Y0017600D01*
X0040342Y0017600D02*
X0040342Y0021870D01*
X0041410Y0021870D01*
X0042478Y0020803D01*
X0053233Y0024005D02*
X0054301Y0024005D01*
X0054301Y0017600D01*
X0053233Y0017600D02*
X0055369Y0017600D01*
X0057530Y0018668D02*
X0057530Y0020803D01*
X0058598Y0021870D01*
X0060733Y0021870D01*
X0061801Y0020803D01*
X0061801Y0019735D01*
X0057530Y0019735D01*
X0057530Y0018668D02*
X0058598Y0017600D01*
X0060733Y0017600D01*
X0062895Y0013505D02*
X0065030Y0013505D01*
X0066098Y0012438D01*
X0061827Y0008168D01*
X0062895Y0007100D01*
X0065030Y0007100D01*
X0066098Y0008168D01*
X0066098Y0012438D01*
X0062895Y0013505D02*
X0061827Y0012438D01*
X0061827Y0008168D01*
X0059672Y0008168D02*
X0059672Y0007100D01*
X0058605Y0007100D01*
X0058605Y0008168D01*
X0059672Y0008168D01*
X0056430Y0008168D02*
X0056430Y0009235D01*
X0055362Y0010303D01*
X0052159Y0010303D01*
X0052159Y0008168D01*
X0053227Y0007100D01*
X0055362Y0007100D01*
X0056430Y0008168D01*
X0054294Y0012438D02*
X0052159Y0010303D01*
X0054294Y0012438D02*
X0056430Y0013505D01*
X0050004Y0008168D02*
X0050004Y0007100D01*
X0048936Y0007100D01*
X0048936Y0008168D01*
X0050004Y0008168D01*
X0070421Y0017600D02*
X0073624Y0017600D01*
X0074692Y0018668D01*
X0073624Y0019735D01*
X0071489Y0019735D01*
X0070421Y0020803D01*
X0071489Y0021870D01*
X0074692Y0021870D01*
X0076867Y0021870D02*
X0080070Y0021870D01*
X0081137Y0020803D01*
X0081137Y0018668D01*
X0080070Y0017600D01*
X0076867Y0017600D01*
X0076867Y0015465D02*
X0076867Y0021870D01*
X0083312Y0020803D02*
X0083312Y0018668D01*
X0084380Y0017600D01*
X0086515Y0017600D01*
X0087583Y0019735D02*
X0083312Y0019735D01*
X0083312Y0020803D02*
X0084380Y0021870D01*
X0086515Y0021870D01*
X0087583Y0020803D01*
X0087583Y0019735D01*
X0089758Y0018668D02*
X0090826Y0017600D01*
X0094028Y0017600D01*
X0097271Y0018668D02*
X0098339Y0017600D01*
X0097271Y0018668D02*
X0097271Y0022938D01*
X0096203Y0021870D02*
X0098339Y0021870D01*
X0100500Y0021870D02*
X0100500Y0017600D01*
X0100500Y0019735D02*
X0102636Y0021870D01*
X0103703Y0021870D01*
X0105872Y0020803D02*
X0105872Y0018668D01*
X0106939Y0017600D01*
X0109074Y0017600D01*
X0110142Y0018668D01*
X0110142Y0020803D01*
X0109074Y0021870D01*
X0106939Y0021870D01*
X0105872Y0020803D01*
X0094028Y0021870D02*
X0090826Y0021870D01*
X0089758Y0020803D01*
X0089758Y0018668D01*
D11*
X0086100Y0037000D03*
X0075500Y0037000D03*
X0064900Y0044200D03*
X0068100Y0047000D03*
X0046500Y0045200D03*
X0038300Y0042400D03*
X0038300Y0039800D03*
X0039900Y0037000D03*
X0031300Y0037000D03*
X0024300Y0037000D03*
X0019100Y0037000D03*
X0060700Y0082600D03*
X0070900Y0086400D03*
X0045900Y0090800D03*
D12*
X0048500Y0090000D03*
X0048900Y0088800D03*
X0048500Y0086200D03*
X0048100Y0085200D03*
X0052700Y0085200D03*
X0056700Y0086400D03*
X0056500Y0087400D03*
X0056700Y0089800D03*
X0056700Y0090000D03*
X0064700Y0086200D03*
X0069700Y0090000D03*
X0041100Y0085200D03*
X0040700Y0086400D03*
X0040500Y0087200D03*
X0040300Y0087400D03*
X0040500Y0089000D03*
X0040700Y0089800D03*
X0035500Y0090000D03*
X0067300Y0045200D03*
X0072700Y0037000D03*
X0058100Y0037800D03*
X0055900Y0037000D03*
X0051100Y0037800D03*
X0028500Y0037000D03*
D13*
X0035700Y0037000D03*
X0045100Y0058800D03*
X0052700Y0058800D03*
X0060300Y0058800D03*
X0083900Y0045000D03*
X0060700Y0082800D03*
X0056700Y0086600D03*
X0056700Y0086800D03*
X0056700Y0087000D03*
X0056700Y0089400D03*
X0060700Y0093400D03*
X0064700Y0089200D03*
X0064700Y0087200D03*
X0064700Y0087000D03*
X0064500Y0086800D03*
X0069500Y0090200D03*
X0048700Y0089000D03*
X0048500Y0089400D03*
X0048500Y0089600D03*
X0048700Y0087200D03*
X0048500Y0086800D03*
X0048500Y0086600D03*
X0044700Y0093400D03*
X0035900Y0090400D03*
D14*
X0034600Y0086200D03*
X0043200Y0090800D03*
X0059200Y0090800D03*
X0062000Y0090800D03*
X0060600Y0087200D03*
X0060600Y0087000D03*
X0070800Y0089600D03*
X0040000Y0048000D03*
X0045200Y0045200D03*
X0051800Y0045200D03*
X0060400Y0045200D03*
X0070200Y0045200D03*
X0075600Y0045200D03*
X0077200Y0045200D03*
X0077200Y0037000D03*
X0081600Y0037000D03*
X0068200Y0037000D03*
X0060400Y0037000D03*
X0058800Y0037000D03*
X0051800Y0037000D03*
X0045200Y0037000D03*
X0024400Y0047200D03*
X0019000Y0047200D03*
D15*
X0035800Y0045200D03*
X0049000Y0037000D03*
X0063200Y0045200D03*
X0067400Y0045000D03*
X0067400Y0044800D03*
X0067400Y0044600D03*
X0052600Y0084800D03*
X0052600Y0085000D03*
X0048600Y0086400D03*
X0048800Y0087400D03*
X0048600Y0089200D03*
X0048600Y0089800D03*
X0040600Y0089600D03*
X0040600Y0089400D03*
X0040600Y0089200D03*
X0040600Y0087000D03*
X0040600Y0086800D03*
X0040600Y0086600D03*
X0035800Y0090200D03*
X0035600Y0086000D03*
X0056600Y0087200D03*
X0056600Y0089000D03*
X0056600Y0089200D03*
X0056800Y0089600D03*
X0064600Y0089600D03*
X0064600Y0089800D03*
X0064600Y0089400D03*
X0064800Y0089000D03*
X0064800Y0087400D03*
X0064600Y0086600D03*
X0064600Y0086400D03*
X0069800Y0086000D03*
D16*
X0070700Y0086200D03*
X0070500Y0089800D03*
X0060700Y0089000D03*
X0052700Y0088400D03*
X0044500Y0089000D03*
X0044500Y0087200D03*
X0044500Y0087000D03*
X0034700Y0089800D03*
X0039900Y0047800D03*
X0039900Y0047600D03*
X0039900Y0047400D03*
X0039900Y0047200D03*
X0039900Y0047000D03*
X0039900Y0046800D03*
X0039900Y0046600D03*
X0039900Y0046400D03*
X0039900Y0046200D03*
X0039900Y0046000D03*
X0039900Y0045800D03*
X0039900Y0045600D03*
X0039900Y0045400D03*
X0039900Y0045200D03*
X0039900Y0045000D03*
X0039900Y0044800D03*
X0039900Y0044600D03*
X0039900Y0044400D03*
X0039900Y0044200D03*
X0039900Y0044000D03*
X0039900Y0043800D03*
X0039900Y0043600D03*
X0039900Y0043400D03*
X0039900Y0043200D03*
X0039900Y0043000D03*
X0039900Y0042800D03*
X0039900Y0042600D03*
X0039900Y0042400D03*
X0039900Y0042200D03*
X0039900Y0042000D03*
X0039900Y0041800D03*
X0039900Y0041600D03*
X0039900Y0041400D03*
X0039900Y0041200D03*
X0039900Y0041000D03*
X0039900Y0040800D03*
X0039900Y0040600D03*
X0039900Y0040400D03*
X0039900Y0038800D03*
X0039900Y0038600D03*
X0039900Y0038400D03*
X0039900Y0038200D03*
X0039900Y0038000D03*
X0039900Y0037800D03*
X0039900Y0037600D03*
X0039900Y0037400D03*
X0039900Y0037200D03*
X0038100Y0038600D03*
X0038300Y0039200D03*
X0038300Y0039400D03*
X0038300Y0039600D03*
X0038300Y0042600D03*
X0038300Y0042800D03*
X0038300Y0043000D03*
X0038100Y0043600D03*
X0033100Y0043200D03*
X0033100Y0043000D03*
X0032900Y0042400D03*
X0032900Y0042200D03*
X0032900Y0042000D03*
X0032900Y0041800D03*
X0032900Y0041600D03*
X0032900Y0041400D03*
X0032900Y0041200D03*
X0032900Y0041000D03*
X0032900Y0040800D03*
X0032900Y0040600D03*
X0032900Y0040400D03*
X0032900Y0040200D03*
X0032900Y0040000D03*
X0032900Y0039800D03*
X0032900Y0039600D03*
X0032900Y0039400D03*
X0033100Y0038800D03*
X0031300Y0039400D03*
X0031300Y0039600D03*
X0031300Y0039800D03*
X0031300Y0040000D03*
X0031300Y0040200D03*
X0031300Y0040400D03*
X0031300Y0040600D03*
X0031300Y0040800D03*
X0031300Y0041000D03*
X0031300Y0041200D03*
X0031300Y0042200D03*
X0031300Y0042400D03*
X0031300Y0042600D03*
X0031300Y0042800D03*
X0031300Y0043000D03*
X0031300Y0043200D03*
X0031100Y0043600D03*
X0026100Y0040200D03*
X0026100Y0040000D03*
X0026100Y0039800D03*
X0026100Y0039600D03*
X0026100Y0039400D03*
X0026100Y0039200D03*
X0026100Y0039000D03*
X0026100Y0038800D03*
X0026300Y0038400D03*
X0024300Y0038400D03*
X0024300Y0038600D03*
X0024300Y0038800D03*
X0024300Y0039000D03*
X0024300Y0039200D03*
X0024300Y0039400D03*
X0024300Y0039600D03*
X0024300Y0039800D03*
X0024300Y0040000D03*
X0024300Y0040200D03*
X0024300Y0040400D03*
X0024300Y0040600D03*
X0024300Y0040800D03*
X0024300Y0041000D03*
X0024300Y0041200D03*
X0024300Y0041400D03*
X0024300Y0041600D03*
X0024300Y0041800D03*
X0024300Y0042000D03*
X0024300Y0043000D03*
X0024300Y0043200D03*
X0024300Y0043400D03*
X0024300Y0043600D03*
X0024300Y0043800D03*
X0024300Y0044000D03*
X0024300Y0044200D03*
X0024300Y0044400D03*
X0024300Y0044600D03*
X0024300Y0044800D03*
X0024300Y0045000D03*
X0024300Y0045200D03*
X0024300Y0045400D03*
X0024300Y0045600D03*
X0024300Y0045800D03*
X0024300Y0046000D03*
X0024300Y0046200D03*
X0024300Y0046400D03*
X0024300Y0046600D03*
X0024300Y0046800D03*
X0024300Y0047000D03*
X0019100Y0047000D03*
X0019100Y0046800D03*
X0019100Y0046600D03*
X0019100Y0046400D03*
X0019100Y0046200D03*
X0019100Y0046000D03*
X0019100Y0045800D03*
X0019100Y0045600D03*
X0019100Y0045400D03*
X0019100Y0045200D03*
X0019100Y0045000D03*
X0019100Y0044800D03*
X0019100Y0044600D03*
X0019100Y0044400D03*
X0019100Y0044200D03*
X0019100Y0044000D03*
X0019100Y0043800D03*
X0019100Y0043600D03*
X0019100Y0043400D03*
X0019100Y0043200D03*
X0019100Y0043000D03*
X0019100Y0042000D03*
X0019100Y0041800D03*
X0019100Y0041600D03*
X0019100Y0041400D03*
X0019100Y0041200D03*
X0019100Y0041000D03*
X0019100Y0040800D03*
X0019100Y0040600D03*
X0019100Y0040400D03*
X0019100Y0040200D03*
X0019100Y0040000D03*
X0019100Y0039800D03*
X0019100Y0039600D03*
X0019100Y0039400D03*
X0019100Y0039200D03*
X0019100Y0039000D03*
X0019100Y0038800D03*
X0019100Y0038600D03*
X0019100Y0038400D03*
X0019100Y0038200D03*
X0019100Y0038000D03*
X0019100Y0037800D03*
X0019100Y0037600D03*
X0019100Y0037400D03*
X0019100Y0037200D03*
X0024300Y0037200D03*
X0024300Y0037400D03*
X0024300Y0037600D03*
X0024300Y0037800D03*
X0024300Y0038000D03*
X0024300Y0038200D03*
X0031300Y0037600D03*
X0031300Y0037400D03*
X0031300Y0037200D03*
X0046500Y0039200D03*
X0046500Y0039400D03*
X0046500Y0039600D03*
X0046500Y0039800D03*
X0046500Y0040000D03*
X0046500Y0040200D03*
X0046500Y0040400D03*
X0046500Y0040600D03*
X0046500Y0040800D03*
X0046500Y0041000D03*
X0046500Y0041200D03*
X0046500Y0041400D03*
X0046500Y0041600D03*
X0046500Y0041800D03*
X0046500Y0042000D03*
X0046500Y0042200D03*
X0046500Y0042400D03*
X0046500Y0042600D03*
X0046500Y0042800D03*
X0046500Y0043000D03*
X0046500Y0043200D03*
X0046500Y0043400D03*
X0046500Y0043600D03*
X0046500Y0043800D03*
X0046500Y0044000D03*
X0046500Y0044200D03*
X0046500Y0044400D03*
X0046500Y0044600D03*
X0046500Y0044800D03*
X0046500Y0045000D03*
X0051900Y0045000D03*
X0058700Y0043400D03*
X0058700Y0043200D03*
X0058700Y0043000D03*
X0060500Y0043000D03*
X0060500Y0042800D03*
X0060500Y0042600D03*
X0060500Y0042400D03*
X0060500Y0042200D03*
X0060500Y0042000D03*
X0060500Y0041800D03*
X0060500Y0041600D03*
X0060500Y0041400D03*
X0060500Y0041200D03*
X0060500Y0041000D03*
X0060500Y0040800D03*
X0060500Y0040600D03*
X0060500Y0040400D03*
X0060500Y0040200D03*
X0060500Y0040000D03*
X0060500Y0039800D03*
X0060500Y0039600D03*
X0060500Y0039400D03*
X0060500Y0039200D03*
X0060500Y0039000D03*
X0060500Y0038800D03*
X0060500Y0038600D03*
X0060500Y0038400D03*
X0060500Y0038200D03*
X0060500Y0038000D03*
X0060500Y0037800D03*
X0060500Y0037600D03*
X0060500Y0037400D03*
X0060500Y0037200D03*
X0058700Y0037200D03*
X0053700Y0038600D03*
X0053500Y0039000D03*
X0053500Y0039200D03*
X0053500Y0039400D03*
X0053500Y0039600D03*
X0053500Y0039800D03*
X0053500Y0040000D03*
X0053700Y0040400D03*
X0051900Y0037200D03*
X0046700Y0038600D03*
X0060500Y0044800D03*
X0060500Y0045000D03*
X0068100Y0048000D03*
X0070300Y0045000D03*
X0070300Y0044800D03*
X0075500Y0044800D03*
X0075500Y0045000D03*
X0075500Y0044600D03*
X0075500Y0044400D03*
X0075500Y0044200D03*
X0075500Y0044000D03*
X0075500Y0043800D03*
X0075500Y0043600D03*
X0075500Y0043400D03*
X0075500Y0043200D03*
X0075500Y0043000D03*
X0075500Y0042800D03*
X0075500Y0042600D03*
X0075500Y0042400D03*
X0075500Y0042200D03*
X0075500Y0042000D03*
X0075500Y0041800D03*
X0075500Y0041600D03*
X0075500Y0041400D03*
X0075500Y0041200D03*
X0075500Y0041000D03*
X0075500Y0040800D03*
X0075500Y0040600D03*
X0075500Y0040400D03*
X0075500Y0040200D03*
X0075500Y0040000D03*
X0075500Y0039800D03*
X0075500Y0039600D03*
X0075500Y0039400D03*
X0077100Y0039400D03*
X0077100Y0039600D03*
X0077100Y0039800D03*
X0077100Y0040000D03*
X0077100Y0040200D03*
X0077100Y0040400D03*
X0077100Y0040600D03*
X0077100Y0040800D03*
X0077100Y0041000D03*
X0077100Y0041200D03*
X0077100Y0041400D03*
X0077100Y0041600D03*
X0077100Y0041800D03*
X0077100Y0042000D03*
X0077100Y0042200D03*
X0077100Y0042400D03*
X0077100Y0042600D03*
X0077100Y0042800D03*
X0077100Y0045000D03*
X0081700Y0042800D03*
X0081700Y0042600D03*
X0081700Y0042400D03*
X0081700Y0042200D03*
X0081700Y0042000D03*
X0081700Y0041800D03*
X0081700Y0041600D03*
X0081700Y0041400D03*
X0081700Y0041200D03*
X0081700Y0041000D03*
X0081700Y0040800D03*
X0081700Y0040600D03*
X0081700Y0040400D03*
X0081700Y0040200D03*
X0081700Y0040000D03*
X0081700Y0039800D03*
X0081700Y0039600D03*
X0081700Y0039400D03*
X0081700Y0039200D03*
X0081700Y0039000D03*
X0081700Y0038800D03*
X0081700Y0038600D03*
X0081700Y0038400D03*
X0081700Y0038200D03*
X0081700Y0038000D03*
X0081700Y0037800D03*
X0081700Y0037600D03*
X0081700Y0037400D03*
X0081700Y0037200D03*
X0086100Y0037200D03*
X0086100Y0037400D03*
X0086100Y0037600D03*
X0086100Y0037800D03*
X0086100Y0038000D03*
X0086100Y0038200D03*
X0086100Y0038400D03*
X0086100Y0038600D03*
X0086100Y0038800D03*
X0086100Y0039000D03*
X0086100Y0039200D03*
X0086100Y0039400D03*
X0086100Y0039600D03*
X0086100Y0039800D03*
X0086100Y0040000D03*
X0086100Y0040200D03*
X0086100Y0040400D03*
X0086100Y0040600D03*
X0086100Y0040800D03*
X0086100Y0041000D03*
X0086100Y0041200D03*
X0086100Y0041400D03*
X0086100Y0041600D03*
X0086100Y0041800D03*
X0086100Y0042000D03*
X0086100Y0042200D03*
X0086100Y0042400D03*
X0086100Y0042600D03*
X0086100Y0042800D03*
X0086100Y0043000D03*
X0086100Y0043200D03*
X0085900Y0043600D03*
X0083900Y0045400D03*
X0077100Y0039200D03*
X0077100Y0039000D03*
X0077100Y0038800D03*
X0077100Y0038600D03*
X0077100Y0038400D03*
X0077100Y0038200D03*
X0077100Y0038000D03*
X0077100Y0037800D03*
X0077100Y0037600D03*
X0077100Y0037400D03*
X0077100Y0037200D03*
X0075500Y0037200D03*
X0075500Y0037400D03*
X0075500Y0037600D03*
X0070500Y0038400D03*
X0070300Y0038800D03*
X0070300Y0039000D03*
X0070300Y0039200D03*
X0070300Y0039400D03*
X0068300Y0037200D03*
D17*
X0072700Y0037200D03*
X0028500Y0037200D03*
X0028100Y0045200D03*
X0035900Y0085600D03*
X0036100Y0090800D03*
X0036100Y0091000D03*
X0036300Y0091400D03*
X0069100Y0091200D03*
X0069300Y0090800D03*
X0069300Y0090600D03*
X0069500Y0085800D03*
D18*
X0069300Y0085200D03*
X0069300Y0085000D03*
X0060700Y0085400D03*
X0063100Y0091400D03*
X0063100Y0091600D03*
X0062900Y0091800D03*
X0058100Y0091400D03*
X0052700Y0084000D03*
X0044500Y0085400D03*
X0042100Y0091400D03*
X0046900Y0091600D03*
X0046900Y0091800D03*
X0047100Y0091400D03*
X0036700Y0092400D03*
X0036500Y0092000D03*
X0036100Y0085000D03*
X0036100Y0084800D03*
X0045100Y0059000D03*
X0060300Y0059000D03*
X0035700Y0037200D03*
X0068900Y0091800D03*
X0068700Y0092200D03*
D19*
X0062000Y0091000D03*
X0060600Y0086800D03*
X0060600Y0086600D03*
X0052600Y0088000D03*
X0052600Y0088200D03*
X0044600Y0086800D03*
X0044600Y0086600D03*
X0068000Y0047800D03*
X0068000Y0047200D03*
X0068200Y0044400D03*
X0068200Y0044200D03*
X0068200Y0044000D03*
X0068200Y0043800D03*
X0068200Y0043600D03*
X0068200Y0043400D03*
X0068200Y0043200D03*
X0068200Y0043000D03*
X0068200Y0042800D03*
X0068200Y0042600D03*
X0068200Y0042400D03*
X0068200Y0042200D03*
X0068200Y0042000D03*
X0068200Y0041800D03*
X0068200Y0041600D03*
X0068200Y0041400D03*
X0068200Y0041200D03*
X0068200Y0041000D03*
X0068200Y0040800D03*
X0068200Y0040600D03*
X0068200Y0040400D03*
X0068200Y0040200D03*
X0068200Y0040000D03*
X0068200Y0039800D03*
X0068200Y0039600D03*
X0068200Y0039400D03*
X0068200Y0039200D03*
X0068200Y0039000D03*
X0068200Y0038800D03*
X0068200Y0038600D03*
X0068200Y0038400D03*
X0068200Y0038200D03*
X0068200Y0038000D03*
X0068200Y0037800D03*
X0068200Y0037600D03*
X0068200Y0037400D03*
X0070400Y0038600D03*
X0070600Y0038200D03*
X0070800Y0038000D03*
X0070200Y0039600D03*
X0070200Y0039800D03*
X0070200Y0040000D03*
X0070200Y0040200D03*
X0070200Y0040400D03*
X0070200Y0040600D03*
X0070200Y0040800D03*
X0070200Y0041000D03*
X0070200Y0041200D03*
X0070200Y0041400D03*
X0070200Y0041600D03*
X0070200Y0041800D03*
X0070200Y0042000D03*
X0070200Y0042200D03*
X0070200Y0042400D03*
X0070200Y0042600D03*
X0070200Y0042800D03*
X0070200Y0043000D03*
X0070200Y0043200D03*
X0070200Y0043400D03*
X0070200Y0043600D03*
X0070200Y0043800D03*
X0070200Y0044000D03*
X0070200Y0044200D03*
X0070200Y0044400D03*
X0070200Y0044600D03*
X0064800Y0044400D03*
X0060600Y0043400D03*
X0060600Y0043200D03*
X0058800Y0042800D03*
X0058800Y0042600D03*
X0058800Y0042400D03*
X0058800Y0042200D03*
X0058800Y0041200D03*
X0058800Y0041000D03*
X0058800Y0040800D03*
X0058800Y0040600D03*
X0058800Y0040400D03*
X0058800Y0040200D03*
X0058800Y0040000D03*
X0058800Y0039800D03*
X0058800Y0039600D03*
X0058800Y0039400D03*
X0058800Y0039200D03*
X0058800Y0037600D03*
X0058800Y0037400D03*
X0053800Y0038400D03*
X0053600Y0038800D03*
X0053600Y0040200D03*
X0053800Y0040600D03*
X0054000Y0040800D03*
X0051800Y0040800D03*
X0051800Y0041000D03*
X0051800Y0041200D03*
X0051800Y0041400D03*
X0051800Y0041600D03*
X0051800Y0041800D03*
X0051800Y0042000D03*
X0051800Y0042200D03*
X0051800Y0042400D03*
X0051800Y0042600D03*
X0051800Y0042800D03*
X0051800Y0043000D03*
X0051800Y0043200D03*
X0051800Y0043400D03*
X0051800Y0043600D03*
X0051800Y0043800D03*
X0051800Y0044000D03*
X0051800Y0044200D03*
X0051800Y0044400D03*
X0051800Y0044600D03*
X0051800Y0044800D03*
X0058400Y0043800D03*
X0058600Y0043600D03*
X0051800Y0040600D03*
X0051800Y0040400D03*
X0051800Y0040200D03*
X0051800Y0040000D03*
X0051800Y0039800D03*
X0051800Y0039600D03*
X0051800Y0039400D03*
X0051800Y0039200D03*
X0051800Y0039000D03*
X0051800Y0037400D03*
X0047000Y0038200D03*
X0046800Y0038400D03*
X0046600Y0038800D03*
X0046600Y0039000D03*
X0045000Y0037600D03*
X0044800Y0037800D03*
X0044600Y0038200D03*
X0044400Y0038400D03*
X0044200Y0038800D03*
X0044000Y0039000D03*
X0043800Y0039400D03*
X0043600Y0039600D03*
X0043400Y0039800D03*
X0043400Y0040000D03*
X0043200Y0040200D03*
X0043000Y0040400D03*
X0043000Y0040600D03*
X0042800Y0040800D03*
X0043200Y0042800D03*
X0043400Y0043000D03*
X0043600Y0043200D03*
X0045000Y0044800D03*
X0045200Y0045000D03*
X0038200Y0043400D03*
X0038200Y0043200D03*
X0038000Y0043800D03*
X0037800Y0044000D03*
X0033600Y0044000D03*
X0033400Y0043800D03*
X0033200Y0043600D03*
X0033200Y0043400D03*
X0033000Y0042800D03*
X0033000Y0042600D03*
X0031200Y0043400D03*
X0031000Y0043800D03*
X0031200Y0039200D03*
X0031200Y0039000D03*
X0033000Y0039000D03*
X0033000Y0039200D03*
X0033200Y0038600D03*
X0033200Y0038400D03*
X0033400Y0038200D03*
X0037800Y0038200D03*
X0038000Y0038400D03*
X0038200Y0038800D03*
X0038200Y0039000D03*
X0040000Y0039000D03*
X0040000Y0039200D03*
X0045200Y0037400D03*
X0045200Y0037200D03*
X0026600Y0038000D03*
X0026400Y0038200D03*
X0026200Y0038600D03*
X0026200Y0040400D03*
X0026400Y0040600D03*
X0075400Y0039200D03*
X0075400Y0039000D03*
X0075400Y0038800D03*
X0077200Y0043000D03*
X0077200Y0043200D03*
X0077200Y0043400D03*
X0079400Y0045400D03*
X0081600Y0043400D03*
X0081600Y0043200D03*
X0081600Y0043000D03*
X0085800Y0043800D03*
X0086000Y0043400D03*
D20*
X0083800Y0044800D03*
X0063200Y0045000D03*
X0056000Y0037200D03*
X0049000Y0037200D03*
X0035800Y0045000D03*
X0052800Y0059000D03*
X0052600Y0084200D03*
X0058200Y0091600D03*
X0058400Y0091800D03*
X0069000Y0091600D03*
X0069000Y0091400D03*
X0069200Y0091000D03*
X0069400Y0085600D03*
X0069400Y0085400D03*
X0042400Y0091800D03*
X0042200Y0091600D03*
X0036400Y0091600D03*
X0036400Y0091800D03*
X0036200Y0091200D03*
X0036000Y0085400D03*
X0036000Y0085200D03*
D21*
X0036300Y0084200D03*
X0036300Y0084000D03*
X0044700Y0083000D03*
X0044700Y0093200D03*
X0037100Y0093000D03*
X0036900Y0092800D03*
X0060700Y0093200D03*
X0068300Y0093000D03*
X0068500Y0092600D03*
X0069100Y0084400D03*
X0060700Y0083000D03*
X0060300Y0059200D03*
X0052700Y0059200D03*
X0045100Y0059200D03*
X0035700Y0044800D03*
X0028500Y0037400D03*
X0072700Y0037400D03*
D22*
X0056000Y0037600D03*
X0056000Y0044800D03*
X0035600Y0037400D03*
X0029600Y0042000D03*
X0028600Y0044800D03*
X0036400Y0083800D03*
X0044600Y0085200D03*
X0052600Y0083600D03*
X0060600Y0085200D03*
X0069000Y0084200D03*
X0069000Y0084000D03*
X0068400Y0092800D03*
X0068200Y0093200D03*
X0037200Y0093200D03*
D23*
X0036800Y0092600D03*
X0036600Y0092200D03*
X0042000Y0091200D03*
X0047200Y0091200D03*
X0052600Y0083800D03*
X0058000Y0091200D03*
X0063200Y0091200D03*
X0068600Y0092400D03*
X0068800Y0092000D03*
X0069200Y0084800D03*
X0069200Y0084600D03*
X0036200Y0084600D03*
X0036200Y0084400D03*
X0028400Y0045000D03*
X0049000Y0037400D03*
X0056000Y0037400D03*
X0055800Y0045000D03*
X0063200Y0044800D03*
X0083800Y0044600D03*
D24*
X0078900Y0044800D03*
X0072700Y0037600D03*
X0057100Y0042000D03*
X0056100Y0044600D03*
X0052700Y0059400D03*
X0045100Y0059400D03*
X0060300Y0059400D03*
X0035700Y0044600D03*
X0028700Y0044600D03*
X0028500Y0037600D03*
X0036500Y0083600D03*
X0037300Y0093400D03*
X0067900Y0093600D03*
X0068100Y0093400D03*
X0068900Y0083800D03*
D25*
X0068800Y0083600D03*
X0068800Y0083400D03*
X0052600Y0083400D03*
X0036600Y0083400D03*
X0037400Y0093600D03*
X0037600Y0093800D03*
X0079000Y0044600D03*
X0035600Y0037600D03*
X0029400Y0041800D03*
D26*
X0049600Y0037600D03*
X0056600Y0041400D03*
X0052800Y0060200D03*
X0068400Y0082600D03*
X0067200Y0094400D03*
X0037000Y0082600D03*
D27*
X0044600Y0086200D03*
X0044600Y0088800D03*
X0052600Y0087200D03*
X0052600Y0087000D03*
X0052600Y0086800D03*
X0052600Y0086600D03*
X0060600Y0086200D03*
X0060600Y0087600D03*
X0060600Y0088800D03*
X0080800Y0044400D03*
X0081600Y0043800D03*
X0082400Y0044400D03*
X0077400Y0044000D03*
X0075200Y0038400D03*
X0071000Y0037800D03*
X0060800Y0043800D03*
X0058600Y0038600D03*
X0051600Y0038600D03*
X0051600Y0038400D03*
X0047400Y0037800D03*
X0040200Y0039600D03*
X0042200Y0041400D03*
X0037400Y0037800D03*
X0033800Y0037800D03*
X0031000Y0038400D03*
X0026800Y0037800D03*
X0027000Y0041200D03*
X0030600Y0044200D03*
X0034000Y0044400D03*
D28*
X0030600Y0037800D03*
X0061200Y0044400D03*
X0074800Y0037800D03*
X0079400Y0045200D03*
X0081600Y0044200D03*
X0083800Y0045200D03*
X0064200Y0085200D03*
X0064400Y0085400D03*
X0064400Y0085600D03*
X0064600Y0085800D03*
X0064600Y0086000D03*
X0065000Y0088800D03*
X0064600Y0090000D03*
X0064600Y0090200D03*
X0064600Y0090400D03*
X0064400Y0090800D03*
X0064200Y0091000D03*
X0060600Y0085600D03*
X0057200Y0085200D03*
X0056600Y0086200D03*
X0056400Y0088800D03*
X0052600Y0085400D03*
X0048600Y0086000D03*
X0048400Y0085600D03*
X0048200Y0085400D03*
X0044600Y0085600D03*
X0040600Y0086200D03*
X0040200Y0088800D03*
X0040600Y0090000D03*
X0040600Y0090200D03*
X0048200Y0091000D03*
X0048600Y0090200D03*
D29*
X0045900Y0091000D03*
X0043100Y0091000D03*
X0044500Y0087400D03*
X0044500Y0086400D03*
X0052700Y0087400D03*
X0052700Y0087600D03*
X0052700Y0087800D03*
X0059300Y0091000D03*
X0060700Y0087400D03*
X0060700Y0086400D03*
X0068100Y0047600D03*
X0068100Y0047400D03*
X0063300Y0045400D03*
X0060700Y0043600D03*
X0058300Y0044000D03*
X0058100Y0044200D03*
X0054100Y0041000D03*
X0053900Y0038200D03*
X0054100Y0038000D03*
X0054300Y0037800D03*
X0051700Y0038800D03*
X0058700Y0038800D03*
X0058700Y0039000D03*
X0047100Y0038000D03*
X0044700Y0038000D03*
X0044300Y0038600D03*
X0043900Y0039200D03*
X0041500Y0040800D03*
X0041300Y0040600D03*
X0041100Y0040400D03*
X0040100Y0039400D03*
X0037700Y0038000D03*
X0033500Y0038000D03*
X0031100Y0038600D03*
X0031100Y0038800D03*
X0026700Y0041000D03*
X0026500Y0040800D03*
X0030900Y0044000D03*
X0033700Y0044200D03*
X0035900Y0045400D03*
X0037500Y0044400D03*
X0037700Y0044200D03*
X0042100Y0041600D03*
X0042300Y0041800D03*
X0042500Y0042000D03*
X0042700Y0042200D03*
X0042900Y0042400D03*
X0043100Y0042600D03*
X0043700Y0043400D03*
X0043900Y0043600D03*
X0044100Y0043800D03*
X0044300Y0044000D03*
X0044500Y0044200D03*
X0044700Y0044400D03*
X0044900Y0044600D03*
X0075300Y0038600D03*
X0077300Y0043600D03*
X0077300Y0043800D03*
X0081700Y0043600D03*
X0085300Y0044400D03*
X0085500Y0044200D03*
X0085700Y0044000D03*
D30*
X0081600Y0044000D03*
X0075000Y0038000D03*
X0061000Y0044200D03*
X0058400Y0038200D03*
X0042200Y0041200D03*
X0040400Y0040000D03*
X0030800Y0038000D03*
X0040600Y0085800D03*
X0040000Y0087600D03*
X0040000Y0087800D03*
X0040000Y0088000D03*
X0040000Y0088200D03*
X0040000Y0088400D03*
X0040000Y0088600D03*
X0040600Y0090400D03*
X0040600Y0090600D03*
X0040800Y0090800D03*
X0044600Y0088600D03*
X0044600Y0088400D03*
X0044600Y0088000D03*
X0044600Y0087800D03*
X0044600Y0085800D03*
X0049200Y0087600D03*
X0049200Y0087800D03*
X0049200Y0088000D03*
X0049200Y0088200D03*
X0049200Y0088400D03*
X0049200Y0088600D03*
X0052600Y0086000D03*
X0056000Y0087800D03*
X0056000Y0088000D03*
X0056000Y0088200D03*
X0056000Y0088400D03*
X0056600Y0090400D03*
X0060600Y0088600D03*
X0060600Y0088400D03*
X0060600Y0088200D03*
X0060600Y0088000D03*
X0060600Y0087800D03*
X0060600Y0085800D03*
X0065200Y0087600D03*
X0065200Y0087800D03*
X0065200Y0088000D03*
X0065200Y0088200D03*
X0065200Y0088400D03*
X0065200Y0088600D03*
D31*
X0064500Y0090600D03*
X0057100Y0091000D03*
X0056900Y0090800D03*
X0056700Y0090600D03*
X0056700Y0090200D03*
X0056700Y0086000D03*
X0056700Y0085800D03*
X0056700Y0085600D03*
X0056900Y0085400D03*
X0052700Y0085600D03*
X0052700Y0085800D03*
X0048500Y0085800D03*
X0048500Y0090400D03*
X0048500Y0090600D03*
X0048300Y0090800D03*
X0044500Y0088200D03*
X0040900Y0085400D03*
X0040700Y0085600D03*
X0040500Y0086000D03*
X0040900Y0091000D03*
X0045100Y0058600D03*
X0052700Y0058600D03*
X0060300Y0058600D03*
X0077700Y0044400D03*
X0058300Y0038000D03*
X0051300Y0038000D03*
X0042100Y0041000D03*
X0040500Y0040200D03*
D32*
X0040300Y0039800D03*
X0051500Y0038200D03*
X0054500Y0041200D03*
X0057700Y0044400D03*
X0060900Y0044000D03*
X0058500Y0038400D03*
X0075100Y0038200D03*
X0077500Y0044200D03*
X0030900Y0038200D03*
X0030300Y0044400D03*
X0044500Y0086000D03*
X0044500Y0087600D03*
X0052700Y0086400D03*
X0052700Y0086200D03*
X0056100Y0087600D03*
X0056100Y0088600D03*
X0060700Y0086000D03*
D33*
X0068500Y0082800D03*
X0052700Y0083000D03*
X0036900Y0082800D03*
X0037900Y0094200D03*
X0038100Y0094400D03*
X0045100Y0060000D03*
X0052700Y0060000D03*
X0060300Y0060000D03*
X0062700Y0044600D03*
X0056700Y0041600D03*
X0029100Y0041400D03*
D34*
X0029200Y0041600D03*
X0045000Y0059800D03*
X0052800Y0059800D03*
X0060400Y0059800D03*
X0060600Y0083200D03*
X0068600Y0083000D03*
X0067600Y0094000D03*
X0067400Y0094200D03*
X0044600Y0083200D03*
X0036800Y0083000D03*
D35*
X0036700Y0083200D03*
X0044700Y0093000D03*
X0037700Y0094000D03*
X0052700Y0083200D03*
X0060700Y0093000D03*
X0067700Y0093800D03*
X0068700Y0083200D03*
X0060300Y0059600D03*
X0052700Y0059600D03*
X0045100Y0059600D03*
X0056900Y0041800D03*
X0052700Y0106200D03*
D36*
X0052700Y0082600D03*
X0068100Y0082200D03*
X0060300Y0069400D03*
X0060300Y0069200D03*
X0060300Y0069000D03*
X0060300Y0068800D03*
X0060300Y0068600D03*
X0060300Y0068400D03*
X0060300Y0068200D03*
X0060300Y0068000D03*
X0060300Y0067800D03*
X0060300Y0067600D03*
X0060300Y0067400D03*
X0060300Y0067200D03*
X0060300Y0067000D03*
X0060300Y0066800D03*
X0060300Y0066600D03*
X0060300Y0066400D03*
X0060300Y0066200D03*
X0060300Y0066000D03*
X0060300Y0065800D03*
X0060300Y0065600D03*
X0060300Y0065400D03*
X0060300Y0065200D03*
X0060300Y0065000D03*
X0060300Y0064800D03*
X0060300Y0064600D03*
X0060300Y0064400D03*
X0060300Y0064200D03*
X0060300Y0064000D03*
X0060300Y0063800D03*
X0060300Y0063600D03*
X0060300Y0063400D03*
X0060300Y0063200D03*
X0060300Y0063000D03*
X0060300Y0062800D03*
X0060300Y0062600D03*
X0060300Y0062400D03*
X0060300Y0062200D03*
X0060300Y0062000D03*
X0060300Y0061800D03*
X0060300Y0061600D03*
X0060300Y0061400D03*
X0060300Y0061200D03*
X0060300Y0061000D03*
X0052700Y0061600D03*
X0052700Y0061800D03*
X0052700Y0062000D03*
X0052700Y0062200D03*
X0052700Y0062400D03*
X0052700Y0062600D03*
X0052700Y0062800D03*
X0052700Y0063000D03*
X0052700Y0063200D03*
X0052700Y0063400D03*
X0052700Y0063600D03*
X0052700Y0063800D03*
X0052700Y0064000D03*
X0052700Y0064200D03*
X0052700Y0064400D03*
X0052700Y0064600D03*
X0052700Y0064800D03*
X0052700Y0065000D03*
X0052700Y0065200D03*
X0052700Y0065400D03*
X0052700Y0065600D03*
X0052700Y0065800D03*
X0052700Y0066000D03*
X0052700Y0066200D03*
X0052700Y0066400D03*
X0052700Y0066600D03*
X0052700Y0066800D03*
X0052700Y0067000D03*
X0052700Y0067200D03*
X0052700Y0067400D03*
X0052700Y0067600D03*
X0052700Y0067800D03*
X0052700Y0068000D03*
X0052700Y0068200D03*
X0052700Y0068400D03*
X0052700Y0068600D03*
X0045100Y0068600D03*
X0045100Y0068400D03*
X0045100Y0068200D03*
X0045100Y0068000D03*
X0045100Y0067800D03*
X0045100Y0067600D03*
X0045100Y0067400D03*
X0045100Y0067200D03*
X0045100Y0067000D03*
X0045100Y0066800D03*
X0045100Y0066600D03*
X0045100Y0066400D03*
X0045100Y0066200D03*
X0045100Y0066000D03*
X0045100Y0065800D03*
X0045100Y0065600D03*
X0045100Y0065400D03*
X0045100Y0065200D03*
X0045100Y0065000D03*
X0045100Y0064800D03*
X0045100Y0064600D03*
X0045100Y0064400D03*
X0045100Y0064200D03*
X0045100Y0064000D03*
X0045100Y0063800D03*
X0045100Y0063600D03*
X0045100Y0063400D03*
X0045100Y0063200D03*
X0045100Y0063000D03*
X0045100Y0062800D03*
X0045100Y0062600D03*
X0045100Y0062400D03*
X0045100Y0062200D03*
X0045100Y0062000D03*
X0045100Y0061800D03*
X0045100Y0061600D03*
X0045100Y0061400D03*
X0021700Y0042800D03*
X0021700Y0042600D03*
X0021700Y0042400D03*
X0021700Y0042200D03*
X0037300Y0082000D03*
D37*
X0035800Y0085800D03*
X0036000Y0090600D03*
X0044600Y0082800D03*
X0048600Y0087000D03*
X0052600Y0084600D03*
X0052600Y0084400D03*
X0069400Y0090400D03*
X0079400Y0045000D03*
X0055600Y0045200D03*
D38*
X0045200Y0045400D03*
X0034400Y0086400D03*
X0034400Y0089600D03*
X0052600Y0088600D03*
X0071000Y0086600D03*
D39*
X0052700Y0105200D03*
X0027300Y0058400D03*
D40*
X0078000Y0058400D03*
D41*
X0027600Y0058600D03*
D42*
X0077800Y0058600D03*
D43*
X0027600Y0058800D03*
D44*
X0077700Y0058800D03*
D45*
X0027800Y0059000D03*
D46*
X0077600Y0059000D03*
D47*
X0027900Y0059200D03*
D48*
X0077500Y0059200D03*
X0052700Y0104400D03*
D49*
X0052700Y0104200D03*
X0027900Y0059400D03*
D50*
X0077400Y0059400D03*
D51*
X0077200Y0059800D03*
X0028000Y0059600D03*
D52*
X0077300Y0059600D03*
D53*
X0028100Y0059800D03*
X0052700Y0104000D03*
D54*
X0052600Y0103800D03*
X0031000Y0064400D03*
X0028200Y0060000D03*
X0077000Y0060200D03*
D55*
X0077200Y0060000D03*
D56*
X0028300Y0060200D03*
D57*
X0045100Y0060200D03*
X0052700Y0060400D03*
X0060300Y0060400D03*
X0060300Y0060200D03*
X0068300Y0082400D03*
X0060700Y0092800D03*
X0067100Y0094600D03*
X0052700Y0082800D03*
X0044700Y0083400D03*
X0037100Y0082400D03*
X0044700Y0092800D03*
X0038300Y0094600D03*
D58*
X0052700Y0103600D03*
X0076900Y0060600D03*
X0028300Y0060400D03*
D59*
X0045000Y0060400D03*
X0045000Y0060600D03*
X0045000Y0060800D03*
X0045000Y0061000D03*
X0045000Y0061200D03*
X0052800Y0061200D03*
X0052800Y0061400D03*
X0052800Y0061000D03*
X0052800Y0060800D03*
X0052800Y0060600D03*
X0060200Y0060600D03*
X0060200Y0060800D03*
X0037200Y0082200D03*
X0038600Y0094800D03*
X0060600Y0083400D03*
X0066800Y0094800D03*
D60*
X0077000Y0060400D03*
D61*
X0076800Y0060800D03*
X0028400Y0060600D03*
D62*
X0028500Y0060800D03*
X0076700Y0061000D03*
D63*
X0076600Y0061200D03*
X0075000Y0064200D03*
X0030200Y0064200D03*
X0028600Y0061000D03*
D64*
X0028600Y0061200D03*
X0028600Y0061400D03*
X0030000Y0064000D03*
X0075400Y0063800D03*
X0076400Y0061800D03*
D65*
X0076500Y0061600D03*
X0076700Y0061400D03*
X0075300Y0064000D03*
X0052700Y0103400D03*
D66*
X0029900Y0063800D03*
X0029700Y0063600D03*
X0028900Y0061800D03*
X0028700Y0061600D03*
X0075500Y0063600D03*
X0075700Y0063400D03*
X0075900Y0063000D03*
X0076100Y0062600D03*
X0076300Y0062200D03*
X0076300Y0062000D03*
D67*
X0076200Y0062400D03*
X0076000Y0062800D03*
X0075800Y0063200D03*
X0029600Y0063400D03*
X0029400Y0063000D03*
X0029200Y0062600D03*
X0029000Y0062200D03*
X0029000Y0062000D03*
X0052600Y0103200D03*
D68*
X0029500Y0063200D03*
X0029300Y0062800D03*
X0029100Y0062400D03*
D69*
X0074300Y0064400D03*
D70*
X0068700Y0064600D03*
X0060300Y0070000D03*
X0052700Y0070000D03*
X0045100Y0070000D03*
X0036700Y0064600D03*
X0044700Y0084000D03*
X0044700Y0092200D03*
X0060700Y0092200D03*
X0065900Y0095400D03*
X0060700Y0084000D03*
X0067500Y0081400D03*
X0052700Y0106000D03*
D71*
X0039100Y0095200D03*
X0044700Y0083800D03*
X0060700Y0083800D03*
X0067700Y0081600D03*
X0067700Y0070000D03*
X0060700Y0092400D03*
X0037700Y0070000D03*
X0036900Y0064800D03*
D72*
X0037800Y0081400D03*
X0052600Y0082200D03*
X0068600Y0064800D03*
D73*
X0068400Y0065000D03*
X0068200Y0065400D03*
X0052600Y0069800D03*
X0045000Y0069800D03*
X0037200Y0065400D03*
X0037000Y0065000D03*
X0037600Y0081600D03*
X0044600Y0092400D03*
X0066200Y0095200D03*
D74*
X0066500Y0095000D03*
X0052700Y0082400D03*
X0037500Y0081800D03*
X0037500Y0069800D03*
X0037500Y0069600D03*
X0037300Y0066800D03*
X0037300Y0066600D03*
X0037300Y0066400D03*
X0037300Y0066200D03*
X0037300Y0066000D03*
X0037300Y0065800D03*
X0037300Y0065600D03*
X0037100Y0065200D03*
X0045100Y0069600D03*
X0052700Y0069600D03*
X0052700Y0069400D03*
X0052700Y0069200D03*
X0052700Y0069000D03*
X0060300Y0069600D03*
X0060300Y0069800D03*
X0067900Y0069800D03*
X0067900Y0069600D03*
X0068100Y0065600D03*
X0068300Y0065200D03*
X0067900Y0081800D03*
D75*
X0068000Y0082000D03*
X0060600Y0083600D03*
X0060600Y0092600D03*
X0044600Y0092600D03*
X0038800Y0095000D03*
X0044600Y0083600D03*
X0045200Y0069400D03*
X0045200Y0069200D03*
X0045200Y0069000D03*
X0045200Y0068800D03*
X0052800Y0068800D03*
X0068000Y0068800D03*
X0068000Y0069000D03*
X0068000Y0069200D03*
X0068000Y0069400D03*
X0068000Y0068600D03*
X0068000Y0068400D03*
X0068000Y0068200D03*
X0068000Y0068000D03*
X0068000Y0067800D03*
X0068000Y0067600D03*
X0068000Y0067400D03*
X0068000Y0067200D03*
X0068000Y0067000D03*
X0068000Y0066800D03*
X0068000Y0066600D03*
X0068000Y0066400D03*
X0068000Y0066200D03*
X0068000Y0066000D03*
X0068000Y0065800D03*
X0037400Y0067000D03*
X0037400Y0067200D03*
X0037400Y0067400D03*
X0037400Y0067600D03*
X0037400Y0067800D03*
X0037400Y0068000D03*
X0037400Y0068200D03*
X0037400Y0068400D03*
X0037400Y0068600D03*
X0037400Y0068800D03*
X0037400Y0069000D03*
X0037400Y0069200D03*
X0037400Y0069400D03*
D76*
X0052700Y0070200D03*
X0052700Y0070400D03*
X0052700Y0070600D03*
X0052700Y0070800D03*
X0052700Y0071000D03*
X0052700Y0071200D03*
X0052700Y0071400D03*
X0052700Y0071600D03*
X0052700Y0071800D03*
X0052700Y0072000D03*
X0052700Y0072200D03*
X0052700Y0072400D03*
X0052700Y0072600D03*
X0052700Y0072800D03*
X0052700Y0073000D03*
X0052700Y0073200D03*
X0052700Y0073400D03*
X0052700Y0073600D03*
X0052700Y0073800D03*
X0052700Y0074000D03*
X0052700Y0074200D03*
X0052700Y0074400D03*
X0052700Y0074600D03*
X0052700Y0074800D03*
X0052700Y0075000D03*
X0052700Y0075200D03*
X0052700Y0075400D03*
X0052700Y0075600D03*
X0052700Y0075800D03*
X0052700Y0076000D03*
X0052700Y0076200D03*
X0052700Y0076400D03*
X0052700Y0076600D03*
X0052700Y0076800D03*
X0052700Y0077000D03*
X0052700Y0077200D03*
X0052700Y0077400D03*
X0052700Y0077600D03*
X0052700Y0077800D03*
X0052700Y0078000D03*
X0052700Y0078200D03*
X0052700Y0078400D03*
X0052700Y0078600D03*
X0052700Y0078800D03*
X0052700Y0079000D03*
X0052700Y0079200D03*
X0052700Y0079400D03*
X0052700Y0079600D03*
X0052700Y0079800D03*
X0052700Y0080000D03*
X0052700Y0080200D03*
X0052700Y0080400D03*
X0052700Y0080600D03*
D77*
X0052700Y0081600D03*
X0060700Y0084800D03*
X0038700Y0080800D03*
X0052700Y0105800D03*
D78*
X0052700Y0080800D03*
D79*
X0060600Y0085000D03*
X0066600Y0080800D03*
X0044600Y0085000D03*
D80*
X0038300Y0081000D03*
X0060700Y0084400D03*
D81*
X0052700Y0081000D03*
X0052700Y0105400D03*
D82*
X0044600Y0084400D03*
X0052600Y0081800D03*
X0067000Y0081000D03*
D83*
X0052600Y0082000D03*
X0038000Y0081200D03*
D84*
X0052700Y0081200D03*
X0052700Y0105600D03*
D85*
X0039700Y0095400D03*
X0044700Y0092000D03*
X0060700Y0092000D03*
X0067300Y0081200D03*
D86*
X0052700Y0081400D03*
D87*
X0060600Y0084200D03*
X0044600Y0084200D03*
D88*
X0044700Y0084600D03*
X0060700Y0084600D03*
D89*
X0044600Y0084800D03*
D90*
X0052700Y0095600D03*
D91*
X0052700Y0095800D03*
X0052700Y0096000D03*
D92*
X0052700Y0096200D03*
X0052700Y0096400D03*
D93*
X0052700Y0096600D03*
X0052700Y0096800D03*
D94*
X0052700Y0097000D03*
D95*
X0052700Y0097200D03*
X0052700Y0097400D03*
D96*
X0052700Y0097600D03*
X0052700Y0097800D03*
D97*
X0052700Y0098000D03*
D98*
X0052700Y0098200D03*
X0052700Y0098400D03*
D99*
X0052700Y0098600D03*
D100*
X0052700Y0098800D03*
D101*
X0052600Y0099000D03*
D102*
X0052700Y0099200D03*
D103*
X0052700Y0099400D03*
D104*
X0052700Y0099600D03*
D105*
X0052700Y0099800D03*
D106*
X0052600Y0100000D03*
D107*
X0052700Y0100200D03*
D108*
X0052700Y0100400D03*
D109*
X0052700Y0100600D03*
D110*
X0052700Y0100800D03*
D111*
X0052700Y0101000D03*
D112*
X0052700Y0101200D03*
D113*
X0052700Y0101400D03*
D114*
X0052700Y0101600D03*
D115*
X0052600Y0101800D03*
D116*
X0052700Y0102000D03*
D117*
X0052700Y0102200D03*
D118*
X0052700Y0102400D03*
D119*
X0052700Y0102600D03*
D120*
X0052700Y0102800D03*
D121*
X0052700Y0103000D03*
D122*
X0052700Y0104600D03*
D123*
X0052700Y0104800D03*
D124*
X0052600Y0105000D03*
D125*
X0039320Y0140934D02*
X0039320Y0282666D01*
X0354280Y0282666D01*
X0354280Y0140934D01*
X0039320Y0140934D01*
X0056446Y0160028D02*
X0056446Y0263572D01*
X0337154Y0263572D01*
X0337154Y0160028D01*
X0056446Y0160028D01*
M02*
