G75*
%MOIN*%
%OFA0B0*%
%FSLAX25Y25*%
%IPPOS*%
%LPD*%
%AMOC8*
5,1,8,0,0,1.08239X$1,22.5*
%
%ADD10C,0.12998*%
%ADD11C,0.03900*%
%ADD12C,0.03943*%
%ADD13R,0.15424X0.15424*%
%ADD14R,0.07487X0.07487*%
%ADD15C,0.04534*%
%ADD16R,0.06400X0.06400*%
%ADD17C,0.06400*%
%ADD18C,0.07800*%
%ADD19R,0.06306X0.06306*%
%ADD20C,0.05800*%
%ADD21OC8,0.05800*%
%ADD22C,0.05124*%
%ADD23C,0.05800*%
%ADD24R,0.04534X0.04534*%
D10*
X0016800Y0016800D03*
X0048769Y0150776D03*
X0048769Y0272824D03*
X0016800Y0276800D03*
X0344831Y0272824D03*
X0376800Y0276800D03*
X0344831Y0150776D03*
X0376800Y0016800D03*
D11*
X0124300Y0146800D03*
X0104300Y0142800D03*
X0104300Y0150800D03*
D12*
X0371800Y0163139D03*
X0371800Y0180461D03*
D13*
X0336328Y0076406D03*
X0336328Y0027194D03*
D14*
X0363887Y0041957D03*
X0363887Y0061643D03*
X0306800Y0061643D03*
X0306800Y0051800D03*
X0306800Y0041957D03*
D15*
X0273867Y0040739D02*
X0269733Y0040739D01*
X0269733Y0046363D02*
X0273867Y0046363D01*
X0273867Y0051987D02*
X0269733Y0051987D01*
X0269733Y0057611D02*
X0273867Y0057611D01*
D16*
X0070816Y0272824D03*
D17*
X0080816Y0272824D03*
X0090816Y0272824D03*
X0100816Y0272824D03*
X0110816Y0272824D03*
X0120816Y0272824D03*
X0130816Y0272824D03*
X0140816Y0272824D03*
X0150816Y0272824D03*
X0160816Y0272824D03*
X0170816Y0272824D03*
X0180816Y0272824D03*
X0190816Y0272824D03*
X0200816Y0272824D03*
X0210816Y0272824D03*
X0220816Y0272824D03*
D18*
X0179300Y0144300D03*
X0169300Y0144300D03*
D19*
X0114300Y0057300D03*
X0114300Y0049300D03*
X0114300Y0041300D03*
D20*
X0024300Y0191800D03*
D21*
X0034300Y0191800D03*
X0034300Y0201800D03*
X0024300Y0201800D03*
X0024300Y0211800D03*
X0034300Y0211800D03*
D22*
X0025580Y0239300D03*
X0036800Y0249300D03*
X0025580Y0259300D03*
D23*
X0251800Y0266600D02*
X0251800Y0272000D01*
X0261800Y0272000D02*
X0261800Y0266600D01*
D24*
X0284300Y0276800D03*
X0311800Y0276800D03*
X0281800Y0241800D03*
X0236800Y0256800D03*
X0284300Y0196800D03*
X0255540Y0173517D03*
X0256800Y0151800D03*
X0376800Y0136800D03*
X0079300Y0176800D03*
M02*
