  0
SECTION
  2
HEADER
  9
$ACADVER
  1
AC1009
  9
$FILLMODE
 70
0
  9
$EXTMIN
 10
-0.8255
 20
-0.2032
 30
0.0000
  9
$EXTMAX
 10
100.0316
 20
73.8632
 30
0.0000
  0
ENDSEC
  0
SECTION
  2
TABLES
  0
TABLE
  2
LTYPE
 70
1
  0
LTYPE
  2
CONTINUOUS
 70
64
  3
Solid line
 72
65
 73
0
 40
0
  0
ENDTAB
  0
TABLE
  2
LAYER
 70
255
  0
LAYER
  2
20
 70
64
 62
178
  6
CONTINUOUS
  0
LAYER
  2
44
 70
64
 62
251
  6
CONTINUOUS
  0
LAYER
  2
45
 70
64
 62
251
  6
CONTINUOUS
  0
LAYER
  2
46
 70
64
 62
134
  6
CONTINUOUS
  0
LAYER
  2
51
 70
64
 62
251
  6
CONTINUOUS
  0
LAYER
  2
248
 70
64
 62
251
  6
CONTINUOUS
  0
LAYER
  2
249
 70
64
 62
251
  6
CONTINUOUS
  0
LAYER
  2
254
 70
64
 62
251
  6
CONTINUOUS
  0
LAYER
  2
255
 70
64
 62
251
  6
CONTINUOUS
  0
ENDTAB
  0
ENDSEC
  0
SECTION
  2
BLOCKS
  0
BLOCK
  8
0
  2
RECT
 70
64
 10
0.0000
 20
0.0000
 30
0.0000
  3
RECT
  0
SOLID
  8
0
 10
-0.5000
 20
-0.5000
 30
0.0000
 11
0.5000
 21
-0.5000
 31
0.0000
 12
-0.5000
 22
0.5000
 32
0.0000
 13
0.5000
 23
0.5000
 33
0.0000
  0
ENDBLK
  8
0
  0
BLOCK
  8
0
  2
PIE
 70
64
 10
0.0000
 20
0.0000
 30
0.0000
  3
PIE
  0
CIRCLE
  8
0
 10
0.0000
 20
0.0000
 30
0.0000
 40
0.5000
  0
ENDBLK
  8
0
  0
BLOCK
  8
0
  2
OCTAGONP
 70
64
 10
0.0000
 20
0.0000
 30
0.0000
  3
OCTAGONP
  0
POLYLINE
  8
0
 66
1
 10
0.0000
 20
0.0000
 30
0.0000
 40
0.0000
 41
0.0000
 70
1
  0
VERTEX
  8
0
 10
-0.5000
 20
-0.2071
 30
0.0000
  0
VERTEX
  8
0
 10
-0.5000
 20
0.2071
 30
0.0000
  0
VERTEX
  8
0
 10
-0.2071
 20
0.5000
 30
0.0000
  0
VERTEX
  8
0
 10
0.2071
 20
0.5000
 30
0.0000
  0
VERTEX
  8
0
 10
0.5000
 20
0.2071
 30
0.0000
  0
VERTEX
  8
0
 10
0.5000
 20
-0.2071
 30
0.0000
  0
VERTEX
  8
0
 10
0.2071
 20
-0.5000
 30
0.0000
  0
VERTEX
  8
0
 10
-0.2071
 20
-0.5000
 30
0.0000
  0
SEQEND
  8
0
  0
ENDBLK
  8
0
  0
BLOCK
  8
0
  2
SQUAREP
 70
64
 10
0.0000
 20
0.0000
 30
0.0000
  3
SQUAREP
  0
SOLID
  8
0
 10
-0.5000
 20
-0.5000
 30
0.0000
 11
0.5000
 21
-0.5000
 31
0.0000
 12
-0.5000
 22
0.5000
 32
0.0000
 13
0.5000
 23
0.5000
 33
0.0000
  0
ENDBLK
  8
0
  0
BLOCK
  8
0
  2
ROUNDP
 70
64
 10
0.0000
 20
0.0000
 30
0.0000
  3
ROUNDP
  0
CIRCLE
  8
0
 10
0.0000
 20
0.0000
 30
0.0000
 40
0.5000
  0
ENDBLK
  8
0
  0
BLOCK
  8
0
  2
ANNULUSP
 70
64
 10
0.0000
 20
0.0000
 30
0.0000
  3
ANNULUSP
  0
CIRCLE
  8
0
 10
0.0000
 20
0.0000
 30
0.0000
 40
0.5000
  0
ENDBLK
  8
0
  0
BLOCK
  8
0
  2
THERMALP
 70
64
 10
0.0000
 20
0.0000
 30
0.0000
  3
THERMALP
  0
POLYLINE
  8
0
 66
1
 10
0.0000
 20
0.0000
 30
0.0000
 40
0.0000
 41
0.0000
 70
1
  0
VERTEX
  8
0
 10
-0.2379
 20
0.4000
 30
0.0000
  0
VERTEX
  8
0
 10
0.2379
 20
0.4000
 30
0.0000
 42
1.0000
  0
VERTEX
  8
0
 10
0.2379
 20
0.5000
 30
0.0000
  0
VERTEX
  8
0
 10
-0.2379
 20
0.5000
 30
0.0000
 42
1.0000
  0
SEQEND
  8
0
  0
POLYLINE
  8
0
 66
1
 10
0.0000
 20
0.0000
 30
0.0000
 40
0.0000
 41
0.0000
 70
1
  0
VERTEX
  8
0
 10
0.4000
 20
0.2379
 30
0.0000
  0
VERTEX
  8
0
 10
0.4000
 20
-0.2379
 30
0.0000
 42
1.0000
  0
VERTEX
  8
0
 10
0.5000
 20
-0.2379
 30
0.0000
  0
VERTEX
  8
0
 10
0.5000
 20
0.2379
 30
0.0000
 42
1.0000
  0
SEQEND
  8
0
  0
POLYLINE
  8
0
 66
1
 10
0.0000
 20
0.0000
 30
0.0000
 40
0.0000
 41
0.0000
 70
1
  0
VERTEX
  8
0
 10
0.2379
 20
-0.4000
 30
0.0000
  0
VERTEX
  8
0
 10
-0.2379
 20
-0.4000
 30
0.0000
 42
1.0000
  0
VERTEX
  8
0
 10
-0.2379
 20
-0.5000
 30
0.0000
  0
VERTEX
  8
0
 10
0.2379
 20
-0.5000
 30
0.0000
 42
1.0000
  0
SEQEND
  8
0
  0
POLYLINE
  8
0
 66
1
 10
0.0000
 20
0.0000
 30
0.0000
 40
0.0000
 41
0.0000
 70
1
  0
VERTEX
  8
0
 10
-0.4000
 20
-0.2379
 30
0.0000
  0
VERTEX
  8
0
 10
-0.4000
 20
0.2379
 30
0.0000
 42
1.0000
  0
VERTEX
  8
0
 10
-0.5000
 20
0.2379
 30
0.0000
  0
VERTEX
  8
0
 10
-0.5000
 20
-0.2379
 30
0.0000
 42
1.0000
  0
SEQEND
  8
0
  0
ENDBLK
  8
0
  0
BLOCK
  8
0
  2
OCTAGONV
 70
64
 10
0.0000
 20
0.0000
 30
0.0000
  3
OCTAGONV
  0
POLYLINE
  8
0
 66
1
 10
0.0000
 20
0.0000
 30
0.0000
 40
0.0000
 41
0.0000
 70
1
  0
VERTEX
  8
0
 10
-0.5000
 20
-0.2071
 30
0.0000
  0
VERTEX
  8
0
 10
-0.5000
 20
0.2071
 30
0.0000
  0
VERTEX
  8
0
 10
-0.2071
 20
0.5000
 30
0.0000
  0
VERTEX
  8
0
 10
0.2071
 20
0.5000
 30
0.0000
  0
VERTEX
  8
0
 10
0.5000
 20
0.2071
 30
0.0000
  0
VERTEX
  8
0
 10
0.5000
 20
-0.2071
 30
0.0000
  0
VERTEX
  8
0
 10
0.2071
 20
-0.5000
 30
0.0000
  0
VERTEX
  8
0
 10
-0.2071
 20
-0.5000
 30
0.0000
  0
SEQEND
  8
0
  0
ENDBLK
  8
0
  0
BLOCK
  8
0
  2
SQUAREV
 70
64
 10
0.0000
 20
0.0000
 30
0.0000
  3
SQUAREV
  0
SOLID
  8
0
 10
-0.5000
 20
-0.5000
 30
0.0000
 11
0.5000
 21
-0.5000
 31
0.0000
 12
-0.5000
 22
0.5000
 32
0.0000
 13
0.5000
 23
0.5000
 33
0.0000
  0
ENDBLK
  8
0
  0
BLOCK
  8
0
  2
ROUNDV
 70
64
 10
0.0000
 20
0.0000
 30
0.0000
  3
ROUNDV
  0
CIRCLE
  8
0
 10
0.0000
 20
0.0000
 30
0.0000
 40
0.5000
  0
ENDBLK
  8
0
  0
BLOCK
  8
0
  2
ANNULUSV
 70
64
 10
0.0000
 20
0.0000
 30
0.0000
  3
ANNULUSV
  0
CIRCLE
  8
0
 10
0.0000
 20
0.0000
 30
0.0000
 40
0.5000
  0
ENDBLK
  8
0
  0
BLOCK
  8
0
  2
THERMALV
 70
64
 10
0.0000
 20
0.0000
 30
0.0000
  3
THERMALV
  0
POLYLINE
  8
0
 66
1
 10
0.0000
 20
0.0000
 30
0.0000
 40
0.0000
 41
0.0000
 70
1
  0
VERTEX
  8
0
 10
-0.2379
 20
0.4000
 30
0.0000
  0
VERTEX
  8
0
 10
0.2379
 20
0.4000
 30
0.0000
 42
1.0000
  0
VERTEX
  8
0
 10
0.2379
 20
0.5000
 30
0.0000
  0
VERTEX
  8
0
 10
-0.2379
 20
0.5000
 30
0.0000
 42
1.0000
  0
SEQEND
  8
0
  0
POLYLINE
  8
0
 66
1
 10
0.0000
 20
0.0000
 30
0.0000
 40
0.0000
 41
0.0000
 70
1
  0
VERTEX
  8
0
 10
0.4000
 20
0.2379
 30
0.0000
  0
VERTEX
  8
0
 10
0.4000
 20
-0.2379
 30
0.0000
 42
1.0000
  0
VERTEX
  8
0
 10
0.5000
 20
-0.2379
 30
0.0000
  0
VERTEX
  8
0
 10
0.5000
 20
0.2379
 30
0.0000
 42
1.0000
  0
SEQEND
  8
0
  0
POLYLINE
  8
0
 66
1
 10
0.0000
 20
0.0000
 30
0.0000
 40
0.0000
 41
0.0000
 70
1
  0
VERTEX
  8
0
 10
0.2379
 20
-0.4000
 30
0.0000
  0
VERTEX
  8
0
 10
-0.2379
 20
-0.4000
 30
0.0000
 42
1.0000
  0
VERTEX
  8
0
 10
-0.2379
 20
-0.5000
 30
0.0000
  0
VERTEX
  8
0
 10
0.2379
 20
-0.5000
 30
0.0000
 42
1.0000
  0
SEQEND
  8
0
  0
POLYLINE
  8
0
 66
1
 10
0.0000
 20
0.0000
 30
0.0000
 40
0.0000
 41
0.0000
 70
1
  0
VERTEX
  8
0
 10
-0.4000
 20
-0.2379
 30
0.0000
  0
VERTEX
  8
0
 10
-0.4000
 20
0.2379
 30
0.0000
 42
1.0000
  0
VERTEX
  8
0
 10
-0.5000
 20
0.2379
 30
0.0000
  0
VERTEX
  8
0
 10
-0.5000
 20
-0.2379
 30
0.0000
 42
1.0000
  0
SEQEND
  8
0
  0
ENDBLK
  8
0
  0
BLOCK
  8
0
  2
LONGP100
 70
64
 10
0.0000
 20
0.0000
 30
0.0000
  3
LONGP100
  0
POLYLINE
  8
0
 66
1
 10
0.0000
 20
0.0000
 30
0.0000
 40
0.0000
 41
0.0000
 70
1
  0
VERTEX
  8
0
 10
-0.5000
 20
-0.5000
 30
0.0000
  0
VERTEX
  8
0
 10
0.5000
 20
-0.5000
 30
0.0000
 42
1.0000
  0
VERTEX
  8
0
 10
0.5000
 20
0.5000
 30
0.0000
  0
VERTEX
  8
0
 10
-0.5000
 20
0.5000
 30
0.0000
 42
1.0000
  0
SEQEND
  8
0
  0
ENDBLK
  8
0
  0
ENDSEC
  0
SECTION
  2
ENTITIES
  0
POLYLINE
  8
20
 66
1
 10
0.0000
 20
0.0000
 30
0.0000
 40
0.0000
 41
0.0000
 70
1
  0
VERTEX
  8
20
 10
-0.2032
 20
73.6600
 30
0.0000
  0
VERTEX
  8
20
 10
-0.2032
 20
0.0000
 30
0.0000
 42
1.0000
  0
VERTEX
  8
20
 10
0.2032
 20
0.0000
 30
0.0000
  0
VERTEX
  8
20
 10
0.2032
 20
73.6600
 30
0.0000
 42
1.0000
  0
SEQEND
  8
0
  0
POLYLINE
  8
20
 66
1
 10
0.0000
 20
0.0000
 30
0.0000
 40
0.0000
 41
0.0000
 70
1
  0
VERTEX
  8
20
 10
0.0000
 20
-0.2032
 30
0.0000
  0
VERTEX
  8
20
 10
99.0600
 20
-0.2032
 30
0.0000
 42
1.0000
  0
VERTEX
  8
20
 10
99.0600
 20
0.2032
 30
0.0000
  0
VERTEX
  8
20
 10
0.0000
 20
0.2032
 30
0.0000
 42
1.0000
  0
SEQEND
  8
0
  0
POLYLINE
  8
20
 66
1
 10
0.0000
 20
0.0000
 30
0.0000
 40
0.0000
 41
0.0000
 70
1
  0
VERTEX
  8
20
 10
99.2632
 20
0.0000
 30
0.0000
  0
VERTEX
  8
20
 10
99.2632
 20
73.6600
 30
0.0000
 42
1.0000
  0
VERTEX
  8
20
 10
98.8568
 20
73.6600
 30
0.0000
  0
VERTEX
  8
20
 10
98.8568
 20
0.0000
 30
0.0000
 42
1.0000
  0
SEQEND
  8
0
  0
POLYLINE
  8
20
 66
1
 10
0.0000
 20
0.0000
 30
0.0000
 40
0.0000
 41
0.0000
 70
1
  0
VERTEX
  8
20
 10
99.0600
 20
73.8632
 30
0.0000
  0
VERTEX
  8
20
 10
0.0000
 20
73.8632
 30
0.0000
 42
1.0000
  0
VERTEX
  8
20
 10
0.0000
 20
73.4568
 30
0.0000
  0
VERTEX
  8
20
 10
99.0600
 20
73.4568
 30
0.0000
 42
1.0000
  0
SEQEND
  8
0
  0
POLYLINE
  8
20
 66
1
 10
0.0000
 20
0.0000
 30
0.0000
 40
0.0000
 41
0.0000
 70
1
  0
VERTEX
  8
20
 10
35.5600
 20
20.1168
 30
0.0000
  0
VERTEX
  8
20
 10
52.0700
 20
20.1168
 30
0.0000
 42
1.0000
  0
VERTEX
  8
20
 10
52.0700
 20
20.5232
 30
0.0000
  0
VERTEX
  8
20
 10
35.5600
 20
20.5232
 30
0.0000
 42
1.0000
  0
SEQEND
  8
0
  0
POLYLINE
  8
20
 66
1
 10
0.0000
 20
0.0000
 30
0.0000
 40
0.0000
 41
0.0000
 70
1
  0
VERTEX
  8
20
 10
51.8668
 20
20.3200
 30
0.0000
  0
VERTEX
  8
20
 10
51.8668
 20
3.8100
 30
0.0000
 42
1.0000
  0
VERTEX
  8
20
 10
52.2732
 20
3.8100
 30
0.0000
  0
VERTEX
  8
20
 10
52.2732
 20
20.3200
 30
0.0000
 42
1.0000
  0
SEQEND
  8
0
  0
POLYLINE
  8
20
 66
1
 10
0.0000
 20
0.0000
 30
0.0000
 40
0.0000
 41
0.0000
 70
1
  0
VERTEX
  8
20
 10
52.0700
 20
4.0132
 30
0.0000
  0
VERTEX
  8
20
 10
35.5600
 20
4.0132
 30
0.0000
 42
1.0000
  0
VERTEX
  8
20
 10
35.5600
 20
3.6068
 30
0.0000
  0
VERTEX
  8
20
 10
52.0700
 20
3.6068
 30
0.0000
 42
1.0000
  0
SEQEND
  8
0
  0
POLYLINE
  8
20
 66
1
 10
0.0000
 20
0.0000
 30
0.0000
 40
0.0000
 41
0.0000
 70
1
  0
VERTEX
  8
20
 10
35.7632
 20
3.8100
 30
0.0000
  0
VERTEX
  8
20
 10
35.7632
 20
20.3200
 30
0.0000
 42
1.0000
  0
VERTEX
  8
20
 10
35.3568
 20
20.3200
 30
0.0000
  0
VERTEX
  8
20
 10
35.3568
 20
3.8100
 30
0.0000
 42
1.0000
  0
SEQEND
  8
0
  0
CIRCLE
  8
20
 10
3.8100
 20
69.8500
 30
0.0000
 40
1.6000
  0
CIRCLE
  8
20
 10
3.8100
 20
3.8100
 30
0.0000
 40
1.6000
  0
CIRCLE
  8
20
 10
95.2500
 20
69.8500
 30
0.0000
 40
1.6000
  0
CIRCLE
  8
20
 10
95.2500
 20
3.8100
 30
0.0000
 40
1.6000
  0
CIRCLE
  8
20
 10
31.1150
 20
38.7350
 30
0.0000
 40
0.4445
  0
CIRCLE
  8
20
 10
26.0350
 20
37.7190
 30
0.0000
 40
0.4445
  0
CIRCLE
  8
20
 10
26.0350
 20
39.7510
 30
0.0000
 40
0.4445
  0
CIRCLE
  8
20
 10
93.9800
 20
64.4200
 30
0.0000
 40
1.1800
  0
CIRCLE
  8
20
 10
93.9800
 20
52.4200
 30
0.0000
 40
1.1800
  0
INSERT
  8
51
  2
RECT
 10
66.0400
 20
69.2150
 30
0.0000
 41
0.6096
 42
0.6096
 43
1.0000
 50
270.0000
  0
INSERT
  8
51
  2
RECT
 10
63.5000
 20
69.2150
 30
0.0000
 41
0.6096
 42
0.6096
 43
1.0000
 50
270.0000
  0
INSERT
  8
51
  2
RECT
 10
72.3900
 20
37.4650
 30
0.0000
 41
0.6096
 42
0.6096
 43
1.0000
 50
90.0000
  0
INSERT
  8
51
  2
RECT
 10
74.9300
 20
37.4650
 30
0.0000
 41
0.6096
 42
0.6096
 43
1.0000
 50
90.0000
  0
INSERT
  8
51
  2
RECT
 10
79.3750
 20
4.4450
 30
0.0000
 41
0.6096
 42
0.6096
 43
1.0000
 50
0.0000
  0
INSERT
  8
51
  2
RECT
 10
79.3750
 20
1.9050
 30
0.0000
 41
0.6096
 42
0.6096
 43
1.0000
 50
0.0000
  0
POLYLINE
  8
51
 66
1
 10
0.0000
 20
0.0000
 30
0.0000
 40
0.0000
 41
0.0000
 70
1
  0
VERTEX
  8
51
 10
17.5300
 20
61.2765
 30
0.0000
  0
VERTEX
  8
51
 10
81.5300
 20
61.2765
 30
0.0000
 42
1.0000
  0
VERTEX
  8
51
 10
81.5300
 20
61.4035
 30
0.0000
  0
VERTEX
  8
51
 10
17.5300
 20
61.4035
 30
0.0000
 42
1.0000
  0
SEQEND
  8
0
  0
POLYLINE
  8
51
 66
1
 10
0.0000
 20
0.0000
 30
0.0000
 40
0.0000
 41
0.0000
 70
1
  0
VERTEX
  8
51
 10
81.4665
 20
61.3400
 30
0.0000
  0
VERTEX
  8
51
 10
81.4665
 20
45.3400
 30
0.0000
 42
1.0000
  0
VERTEX
  8
51
 10
81.5935
 20
45.3400
 30
0.0000
  0
VERTEX
  8
51
 10
81.5935
 20
61.3400
 30
0.0000
 42
1.0000
  0
SEQEND
  8
0
  0
POLYLINE
  8
51
 66
1
 10
0.0000
 20
0.0000
 30
0.0000
 40
0.0000
 41
0.0000
 70
1
  0
VERTEX
  8
51
 10
81.5300
 20
45.4035
 30
0.0000
  0
VERTEX
  8
51
 10
17.5300
 20
45.4035
 30
0.0000
 42
1.0000
  0
VERTEX
  8
51
 10
17.5300
 20
45.2765
 30
0.0000
  0
VERTEX
  8
51
 10
81.5300
 20
45.2765
 30
0.0000
 42
1.0000
  0
SEQEND
  8
0
  0
POLYLINE
  8
51
 66
1
 10
0.0000
 20
0.0000
 30
0.0000
 40
0.0000
 41
0.0000
 70
1
  0
VERTEX
  8
51
 10
17.5935
 20
45.3400
 30
0.0000
  0
VERTEX
  8
51
 10
17.5935
 20
61.3400
 30
0.0000
 42
1.0000
  0
VERTEX
  8
51
 10
17.4665
 20
61.3400
 30
0.0000
  0
VERTEX
  8
51
 10
17.4665
 20
45.3400
 30
0.0000
 42
1.0000
  0
SEQEND
  8
0
  0
TEXT
  7
ISOCP
  8
51
 10
15.2400
 20
68.5800
 30
0.0000
 40
1.0160
  1
1
  0
CIRCLE
  8
20
 10
11.9300
 20
68.8400
 30
0.0000
 40
1.6000
  0
CIRCLE
  8
20
 10
11.9300
 20
37.8400
 30
0.0000
 40
1.6000
  0
CIRCLE
  8
20
 10
87.1300
 20
37.8400
 30
0.0000
 40
1.6000
  0
CIRCLE
  8
20
 10
87.1300
 20
68.8400
 30
0.0000
 40
1.6000
  0
CIRCLE
  8
20
 10
93.9800
 20
45.3800
 30
0.0000
 40
0.4500
  0
CIRCLE
  8
20
 10
93.9800
 20
40.9800
 30
0.0000
 40
0.4500
  0
ENDSEC
  0
EOF
