G75*
%MOIN*%
%OFA0B0*%
%FSLAX25Y25*%
%IPPOS*%
%LPD*%
%AMOC8*
5,1,8,0,0,1.08239X$1,22.5*
%
%ADD10C,0.03100*%
%ADD11R,0.07874X0.06299*%
%ADD12R,0.09843X0.07874*%
%ADD13R,0.12992X0.07874*%
%ADD14R,0.12205X0.01969*%
%ADD15R,0.06299X0.07874*%
%ADD16R,0.06299X0.07087*%
%ADD17R,0.01969X0.05906*%
%ADD18R,0.05906X0.01969*%
%ADD19R,0.07087X0.06299*%
%ADD20R,0.11811X0.09843*%
%ADD21R,0.05512X0.04724*%
%ADD22R,0.15024X0.15024*%
%ADD23R,0.07087X0.07087*%
%ADD24R,0.04724X0.02165*%
%ADD25R,0.04724X0.05512*%
%ADD26R,0.06299X0.07098*%
%ADD27R,0.07098X0.06299*%
%ADD28C,0.04134*%
%ADD29R,0.06000X0.06000*%
%ADD30C,0.06000*%
%ADD31R,0.04800X0.08800*%
%ADD32R,0.14173X0.08661*%
%ADD33R,0.03937X0.05512*%
%ADD34C,0.07400*%
%ADD35R,0.05906X0.05906*%
%ADD36C,0.05400*%
%ADD37OC8,0.05400*%
%ADD38C,0.04724*%
%ADD39C,0.05400*%
%ADD40C,0.01600*%
%ADD41R,0.02400X0.02400*%
%ADD42R,0.03562X0.03562*%
%ADD43C,0.05000*%
%ADD44R,0.04134X0.04134*%
%ADD45C,0.03200*%
D10*
X0109300Y0144300D03*
X0109300Y0149300D03*
X0114300Y0149300D03*
X0114300Y0144300D03*
X0119300Y0144300D03*
X0119300Y0149300D03*
D11*
X0096800Y0169463D03*
X0096800Y0180487D03*
X0086800Y0196288D03*
X0086800Y0207312D03*
X0191800Y0124812D03*
X0191800Y0113788D03*
X0244300Y0089812D03*
X0256800Y0089812D03*
X0269300Y0089812D03*
X0269300Y0078788D03*
X0256800Y0078788D03*
X0244300Y0078788D03*
X0246800Y0136288D03*
X0246800Y0147312D03*
X0211800Y0251288D03*
X0211800Y0262312D03*
X0319300Y0266288D03*
X0319300Y0277312D03*
D12*
X0383611Y0189320D03*
X0383611Y0154280D03*
D13*
X0360383Y0154280D03*
X0360383Y0189320D03*
D14*
X0359989Y0178099D03*
X0359989Y0174950D03*
X0359989Y0171800D03*
X0359989Y0168650D03*
X0359989Y0165501D03*
D15*
X0339812Y0164300D03*
X0328788Y0164300D03*
X0328788Y0181800D03*
X0339812Y0181800D03*
X0269812Y0236800D03*
X0258788Y0236800D03*
X0258788Y0249300D03*
X0269812Y0249300D03*
X0298788Y0244300D03*
X0309812Y0244300D03*
X0182312Y0229300D03*
X0171288Y0229300D03*
D16*
X0183788Y0189300D03*
X0194812Y0189300D03*
X0194812Y0176800D03*
X0183788Y0176800D03*
X0246288Y0166800D03*
X0257312Y0166800D03*
X0257312Y0156800D03*
X0246288Y0156800D03*
X0271288Y0166800D03*
X0282312Y0166800D03*
D17*
X0162548Y0178965D03*
X0159398Y0178965D03*
X0156249Y0178965D03*
X0153099Y0178965D03*
X0149950Y0178965D03*
X0146800Y0178965D03*
X0143650Y0178965D03*
X0140501Y0178965D03*
X0137351Y0178965D03*
X0134202Y0178965D03*
X0131052Y0178965D03*
X0131052Y0224635D03*
X0134202Y0224635D03*
X0137351Y0224635D03*
X0140501Y0224635D03*
X0143650Y0224635D03*
X0146800Y0224635D03*
X0149950Y0224635D03*
X0153099Y0224635D03*
X0156249Y0224635D03*
X0159398Y0224635D03*
X0162548Y0224635D03*
D18*
X0169635Y0217548D03*
X0169635Y0214398D03*
X0169635Y0211249D03*
X0169635Y0208099D03*
X0169635Y0204950D03*
X0169635Y0201800D03*
X0169635Y0198650D03*
X0169635Y0195501D03*
X0169635Y0192351D03*
X0169635Y0189202D03*
X0169635Y0186052D03*
X0123965Y0186052D03*
X0123965Y0189202D03*
X0123965Y0192351D03*
X0123965Y0195501D03*
X0123965Y0198650D03*
X0123965Y0201800D03*
X0123965Y0204950D03*
X0123965Y0208099D03*
X0123965Y0211249D03*
X0123965Y0214398D03*
X0123965Y0217548D03*
D19*
X0074300Y0222312D03*
X0074300Y0211288D03*
X0074300Y0197312D03*
X0074300Y0186288D03*
X0143050Y0162312D03*
X0143050Y0151288D03*
D20*
X0101800Y0191308D03*
X0101800Y0211898D03*
D21*
X0264300Y0147706D03*
X0264300Y0135894D03*
X0331800Y0240894D03*
X0331800Y0252706D03*
X0331800Y0268394D03*
X0331800Y0280206D03*
D22*
X0336328Y0076406D03*
X0336328Y0027194D03*
D23*
X0363887Y0041957D03*
X0363887Y0061643D03*
X0306800Y0061643D03*
X0306800Y0051800D03*
X0306800Y0041957D03*
D24*
X0304419Y0258060D03*
X0294181Y0258060D03*
X0294181Y0261800D03*
X0294181Y0265540D03*
X0304419Y0265540D03*
D25*
X0250206Y0249300D03*
X0238394Y0249300D03*
X0238394Y0236800D03*
X0250206Y0236800D03*
X0293394Y0164300D03*
X0305206Y0164300D03*
D26*
X0304898Y0276800D03*
X0293702Y0276800D03*
D27*
X0281800Y0259898D03*
X0281800Y0248702D03*
D28*
X0273867Y0057611D02*
X0269733Y0057611D01*
X0269733Y0051987D02*
X0273867Y0051987D01*
X0273867Y0046363D02*
X0269733Y0046363D01*
X0269733Y0040739D02*
X0273867Y0040739D01*
D29*
X0070816Y0272824D03*
D30*
X0080816Y0272824D03*
X0090816Y0272824D03*
X0100816Y0272824D03*
X0110816Y0272824D03*
X0120816Y0272824D03*
X0130816Y0272824D03*
X0140816Y0272824D03*
X0150816Y0272824D03*
X0160816Y0272824D03*
X0170816Y0272824D03*
X0180816Y0272824D03*
X0190816Y0272824D03*
X0200816Y0272824D03*
X0210816Y0272824D03*
X0220816Y0272824D03*
D31*
X0247700Y0182100D03*
X0256800Y0182100D03*
X0265900Y0182100D03*
D32*
X0256800Y0206501D03*
D33*
X0295560Y0177469D03*
X0303040Y0177469D03*
X0299300Y0186131D03*
D34*
X0179300Y0144300D03*
X0169300Y0144300D03*
D35*
X0114300Y0057300D03*
X0114300Y0049300D03*
X0114300Y0041300D03*
D36*
X0024300Y0191800D03*
D37*
X0034300Y0191800D03*
X0034300Y0201800D03*
X0024300Y0201800D03*
X0024300Y0211800D03*
X0034300Y0211800D03*
D38*
X0025580Y0239300D03*
X0036800Y0249300D03*
X0025580Y0259300D03*
D39*
X0251800Y0266600D02*
X0251800Y0272000D01*
X0261800Y0272000D02*
X0261800Y0266600D01*
D40*
X0281800Y0265540D02*
X0281800Y0259300D01*
X0281800Y0265540D02*
X0294181Y0265540D01*
X0294181Y0261800D02*
X0299623Y0261800D01*
X0299623Y0244300D01*
X0301800Y0244300D01*
X0301800Y0236600D01*
X0299623Y0244300D02*
X0298788Y0244300D01*
X0309812Y0244300D02*
X0309790Y0258060D01*
X0304419Y0258060D01*
X0294181Y0258060D02*
X0289950Y0258060D01*
X0289950Y0236800D01*
X0269812Y0236800D01*
X0269812Y0249300D01*
X0258788Y0249300D02*
X0250206Y0249300D01*
X0250206Y0236800D02*
X0258788Y0236800D01*
X0238394Y0236800D02*
X0236800Y0236800D01*
X0236800Y0229975D01*
X0319300Y0229975D01*
X0339300Y0240500D02*
X0339300Y0240894D01*
X0304898Y0276800D02*
X0304419Y0276800D01*
X0239300Y0211249D02*
X0239300Y0108000D01*
X0269300Y0108000D01*
X0269300Y0089812D01*
X0256800Y0089812D02*
X0256800Y0104300D01*
X0235700Y0104300D01*
X0235700Y0208099D01*
X0169635Y0208099D01*
X0169635Y0204950D02*
X0231800Y0204950D01*
X0231800Y0100600D01*
X0244300Y0100600D01*
X0244300Y0089812D01*
X0244300Y0078788D02*
X0244300Y0040739D01*
X0271800Y0040739D01*
X0271800Y0046363D02*
X0256800Y0046363D01*
X0256800Y0078788D01*
X0269300Y0078788D02*
X0269300Y0067611D01*
X0271800Y0057611D01*
X0224300Y0109300D02*
X0196288Y0109300D01*
X0191800Y0113788D01*
X0204300Y0119000D02*
X0204300Y0150850D01*
X0153250Y0150850D01*
X0153250Y0178965D01*
X0153099Y0178965D01*
X0149950Y0178965D02*
X0149950Y0151288D01*
X0149300Y0151288D01*
X0149300Y0151800D01*
X0149300Y0151288D02*
X0143050Y0151288D01*
X0134300Y0161250D02*
X0134202Y0161348D01*
X0134202Y0178965D01*
X0137351Y0178965D02*
X0137351Y0136150D01*
X0114300Y0136150D01*
X0114300Y0119300D01*
X0011800Y0119300D01*
X0011800Y0201800D01*
X0024300Y0201800D01*
X0024300Y0191800D02*
X0024300Y0123000D01*
X0109300Y0123000D01*
X0109300Y0131800D01*
X0109300Y0136800D02*
X0096800Y0136800D01*
X0096800Y0169463D01*
X0066125Y0169410D01*
X0066800Y0224300D01*
X0074300Y0222312D02*
X0084300Y0221800D01*
X0086800Y0211898D02*
X0086190Y0211288D01*
X0074300Y0211288D01*
X0086800Y0211898D02*
X0086800Y0207312D01*
X0086800Y0211898D02*
X0101800Y0211898D01*
X0101800Y0211800D01*
X0111800Y0211800D01*
X0111800Y0201800D01*
X0123965Y0201800D01*
X0123965Y0198650D02*
X0111800Y0198650D01*
X0111800Y0191800D01*
X0101800Y0191800D01*
X0101800Y0191308D01*
X0101800Y0191800D02*
X0086800Y0191800D01*
X0086800Y0196288D01*
X0086800Y0197312D01*
X0074300Y0197312D01*
X0074300Y0186288D02*
X0084300Y0186800D01*
X0096800Y0180487D02*
X0114950Y0180540D01*
X0114950Y0192351D01*
X0123965Y0192351D01*
X0123965Y0189202D02*
X0118100Y0189202D01*
X0118100Y0169410D01*
X0096800Y0169463D01*
X0089300Y0161125D02*
X0044300Y0161125D01*
X0034300Y0191800D02*
X0034300Y0126800D01*
X0101800Y0126800D01*
X0109300Y0136800D02*
X0109300Y0144300D01*
X0109300Y0149300D02*
X0109300Y0154600D01*
X0108400Y0155500D01*
X0114300Y0161250D02*
X0114300Y0149300D01*
X0114300Y0144300D02*
X0114300Y0136150D01*
X0119300Y0139300D02*
X0121800Y0139300D01*
X0131052Y0139300D01*
X0131052Y0178965D01*
X0123965Y0179300D02*
X0123965Y0186052D01*
X0123965Y0179300D02*
X0121800Y0179300D01*
X0123965Y0195501D02*
X0116850Y0195501D01*
X0116850Y0195500D01*
X0123965Y0211249D02*
X0136050Y0211249D01*
X0136050Y0211300D01*
X0141250Y0214300D02*
X0123965Y0214398D01*
X0134300Y0217450D02*
X0144400Y0217450D01*
X0144400Y0214300D01*
X0162450Y0214300D01*
X0162450Y0217548D01*
X0169635Y0217548D01*
X0169635Y0214398D02*
X0188040Y0214398D01*
X0186800Y0229300D02*
X0182312Y0229300D01*
X0186800Y0229300D02*
X0186800Y0236800D01*
X0171288Y0229300D02*
X0164300Y0229300D01*
X0164300Y0224635D01*
X0162548Y0224635D01*
X0159398Y0224635D02*
X0159300Y0224635D01*
X0159300Y0244300D01*
X0211800Y0244300D01*
X0211800Y0251288D01*
X0210816Y0258040D02*
X0211800Y0262312D01*
X0210816Y0258040D02*
X0210816Y0272824D01*
X0200816Y0272824D02*
X0200816Y0247875D01*
X0156249Y0247875D01*
X0156249Y0224635D01*
X0156300Y0224635D01*
X0153099Y0224635D02*
X0153099Y0251800D01*
X0190816Y0251800D01*
X0190816Y0272824D01*
X0180816Y0272824D02*
X0180816Y0255550D01*
X0149950Y0255550D01*
X0149950Y0224635D01*
X0146800Y0224635D02*
X0146800Y0259300D01*
X0170816Y0259300D01*
X0170816Y0272824D01*
X0143650Y0258050D02*
X0120816Y0258050D01*
X0120816Y0272824D01*
X0115975Y0279300D02*
X0115975Y0254300D01*
X0137351Y0254300D01*
X0137351Y0224635D01*
X0134300Y0224635D02*
X0134300Y0217450D01*
X0134202Y0224635D02*
X0134300Y0224635D01*
X0131150Y0224635D02*
X0131150Y0231900D01*
X0110816Y0231900D01*
X0110816Y0272824D01*
X0100816Y0272824D02*
X0100550Y0272824D01*
X0100550Y0279300D01*
X0115975Y0279300D01*
X0090816Y0272824D02*
X0090800Y0272824D01*
X0044300Y0264300D02*
X0044300Y0201800D01*
X0119300Y0154300D02*
X0119300Y0149300D01*
X0119300Y0144300D02*
X0119300Y0139300D01*
X0119300Y0154300D02*
X0126800Y0154300D01*
X0143050Y0162312D02*
X0146800Y0162312D01*
X0146800Y0178965D01*
X0143650Y0178965D02*
X0143650Y0186800D01*
X0159300Y0186800D01*
X0159300Y0178965D01*
X0159300Y0156800D01*
X0214300Y0156800D01*
X0214300Y0126800D01*
X0219300Y0126800D01*
X0219300Y0122900D02*
X0209300Y0122900D01*
X0209300Y0153825D01*
X0156500Y0153825D01*
X0156500Y0178965D01*
X0156249Y0178965D01*
X0159300Y0178965D02*
X0159398Y0178965D01*
X0162548Y0178965D02*
X0163050Y0178965D01*
X0163050Y0169300D01*
X0180300Y0169300D01*
X0180300Y0169050D01*
X0183788Y0176800D02*
X0169300Y0176800D01*
X0169300Y0186052D01*
X0169635Y0186052D01*
X0163125Y0186052D01*
X0162450Y0214300D01*
X0169635Y0211249D02*
X0239300Y0211249D01*
X0224300Y0198650D02*
X0224300Y0109300D01*
X0219300Y0119000D02*
X0204300Y0119000D01*
X0191800Y0124812D02*
X0191800Y0136800D01*
X0184300Y0144300D01*
X0179300Y0144300D01*
X0194812Y0176800D02*
X0194812Y0183050D01*
X0204300Y0183050D01*
X0204300Y0184300D01*
X0194812Y0183050D02*
X0194812Y0189300D01*
X0194812Y0189202D01*
X0194812Y0183050D02*
X0176800Y0183050D01*
X0176800Y0189202D01*
X0169635Y0189202D01*
X0169635Y0192351D02*
X0183788Y0192351D01*
X0183788Y0189300D01*
X0169635Y0198650D02*
X0224300Y0198650D01*
X0265900Y0182100D02*
X0266800Y0176800D01*
X0266800Y0179600D02*
X0265900Y0182100D01*
X0257312Y0166800D02*
X0256800Y0166800D01*
X0256800Y0156800D02*
X0257312Y0156800D01*
X0264300Y0136288D02*
X0246800Y0136288D01*
X0244250Y0126800D02*
X0314300Y0126800D01*
X0314300Y0189300D01*
X0349300Y0189300D01*
X0349300Y0178099D01*
X0359989Y0178099D01*
X0359989Y0174950D02*
X0345500Y0174950D01*
X0345500Y0181800D01*
X0339812Y0181800D01*
X0328788Y0181800D02*
X0318050Y0181800D01*
X0318050Y0122900D01*
X0244250Y0122900D01*
X0244250Y0119000D02*
X0321800Y0119000D01*
X0321800Y0164300D01*
X0328788Y0164300D01*
X0339812Y0164300D02*
X0345500Y0164300D01*
X0345500Y0171800D01*
X0359989Y0171800D01*
X0359989Y0165501D02*
X0349300Y0165501D01*
X0349300Y0161800D01*
X0305206Y0177469D02*
X0305200Y0177469D01*
X0303040Y0177469D01*
X0264300Y0136288D02*
X0264300Y0135894D01*
X0169635Y0198650D02*
X0169635Y0198800D01*
X0143650Y0224635D02*
X0143650Y0258050D01*
X0140350Y0232550D02*
X0140350Y0232135D01*
X0140550Y0232135D01*
X0140501Y0224635D01*
X0131150Y0224635D02*
X0131052Y0224635D01*
X0025580Y0259300D02*
X0006800Y0259300D01*
X0006125Y0115175D01*
X0086125Y0115175D01*
X0085450Y0114300D01*
X0363887Y0061643D02*
X0363887Y0060560D01*
D41*
X0244250Y0119000D03*
X0244250Y0122900D03*
X0244250Y0126800D03*
X0219300Y0126800D03*
X0219300Y0122900D03*
X0219300Y0119000D03*
X0180300Y0169050D03*
X0204300Y0184300D03*
X0188040Y0214398D03*
X0141250Y0214300D03*
X0136050Y0211300D03*
X0116850Y0195500D03*
X0121800Y0179300D03*
X0114300Y0161250D03*
X0108400Y0155500D03*
X0126800Y0154300D03*
X0134300Y0161250D03*
X0121800Y0139300D03*
X0109300Y0131800D03*
X0101800Y0126800D03*
X0085450Y0114300D03*
X0089300Y0161125D03*
X0084300Y0186800D03*
X0044300Y0201800D03*
X0066800Y0224300D03*
X0084300Y0221800D03*
X0140350Y0232550D03*
X0044300Y0264300D03*
X0044300Y0161125D03*
X0301800Y0236600D03*
X0349300Y0161800D03*
D42*
X0186800Y0236800D03*
X0149300Y0151800D03*
D43*
X0096800Y0051800D02*
X0099300Y0049300D01*
X0114300Y0049300D01*
X0096800Y0051800D02*
X0096800Y0096800D01*
X0101800Y0101800D01*
X0221800Y0101800D01*
X0226800Y0096800D01*
X0226800Y0039300D01*
X0239300Y0026800D01*
X0279300Y0026800D01*
X0284300Y0031800D01*
X0284300Y0101800D01*
X0376800Y0101800D01*
X0376800Y0136800D01*
X0349300Y0189300D02*
X0349300Y0240500D01*
X0339300Y0240500D01*
X0339300Y0240894D02*
X0331800Y0240894D01*
X0331800Y0252706D02*
X0331800Y0268394D01*
X0331800Y0268060D01*
X0319300Y0266288D01*
X0319300Y0265540D01*
X0311879Y0265540D01*
X0319300Y0265461D01*
X0319300Y0229975D01*
X0319300Y0201800D01*
X0306800Y0201800D01*
X0306800Y0177469D01*
X0305200Y0177469D01*
X0305206Y0177469D02*
X0305206Y0164300D01*
X0293394Y0164300D02*
X0290894Y0166800D01*
X0282312Y0166800D01*
X0281800Y0176800D01*
X0266800Y0176800D01*
X0256800Y0182100D02*
X0255540Y0179600D01*
X0255540Y0182100D02*
X0255540Y0173517D01*
X0257312Y0166800D01*
X0257312Y0156800D01*
X0256800Y0156800D02*
X0256800Y0151800D01*
X0264300Y0147706D01*
X0246800Y0147312D02*
X0246800Y0156800D01*
X0246288Y0156800D01*
X0246288Y0166800D01*
X0247700Y0166800D01*
X0247700Y0182100D01*
X0244800Y0179600D01*
X0244800Y0218250D01*
X0284300Y0218250D01*
X0284300Y0196800D01*
X0293475Y0186075D02*
X0299300Y0186075D01*
X0299300Y0186131D01*
X0293475Y0186075D02*
X0293475Y0224975D01*
X0229300Y0224975D01*
X0229300Y0269300D01*
X0251800Y0269300D01*
X0251800Y0259300D01*
X0281800Y0259300D01*
X0281800Y0259898D01*
X0281800Y0248702D02*
X0281800Y0241800D01*
X0304419Y0265540D02*
X0311879Y0265540D01*
X0304419Y0265540D02*
X0304419Y0276800D01*
X0311800Y0276800D02*
X0312312Y0277312D01*
X0319300Y0277312D01*
X0331800Y0280206D02*
X0331800Y0284300D01*
X0059300Y0284300D01*
X0059300Y0191800D01*
X0034300Y0191800D01*
X0079300Y0176800D02*
X0096800Y0176800D01*
X0096800Y0180487D01*
X0236800Y0249300D02*
X0236800Y0256800D01*
X0236800Y0249300D02*
X0238394Y0249300D01*
X0284300Y0276800D02*
X0293702Y0276800D01*
X0256800Y0182100D02*
X0255540Y0182100D01*
X0257312Y0166800D02*
X0271288Y0166800D01*
X0293394Y0164300D02*
X0293394Y0177469D01*
X0295560Y0177469D01*
D44*
X0284300Y0196800D03*
X0255540Y0173517D03*
X0256800Y0151800D03*
X0281800Y0241800D03*
X0284300Y0276800D03*
X0311800Y0276800D03*
X0236800Y0256800D03*
X0079300Y0176800D03*
X0376800Y0136800D03*
D45*
X0247700Y0182100D02*
X0246800Y0179600D01*
X0244800Y0218250D02*
X0163125Y0218250D01*
X0163125Y0186052D01*
M02*
