%
M48
M72
T01C0.01200
T02C0.01378
T03C0.02362
T04C0.02756
T05C0.03150
T06C0.03200
T07C0.03500
T08C0.03543
T09C0.03600
T10C0.03937
T11C0.04000
T12C0.04724
T13C0.11024
T14C0.12598
%
T01
X85450Y114300
X101800Y126800
X109300Y131800
X121800Y139300
X126800Y154300
X129300Y161250
X114300Y161250
X108400Y155500
X89300Y161125
X121800Y179300
X116850Y195500
X84300Y186800
X44300Y201800
X66800Y224300
X84300Y221800
X140350Y232550
X153750Y214300
X148550Y211300
X188040Y214398
X204300Y184300
X180300Y169050
X219300Y126800
X219300Y122900
X219300Y119000
X244250Y119000
X244250Y122900
X244250Y126800
X349300Y161800
X301800Y236600
X44300Y264300
X44300Y161125
T02
X134300Y189300
X139300Y189300
X209300Y201800
X219300Y194300
X227373Y194300
X209300Y227638
X311800Y211800
X129300Y94300
X119300Y79300
X121800Y36800
T03
X149300Y151800
X166800Y234300
T04
X236800Y256800
X284300Y216800
X255540Y173517
X264225Y156525
X376800Y136800
X271800Y57611
X271800Y51987
X271800Y46363
X271800Y40739
X79300Y179300
X311800Y276800
T05
X36800Y91800
X25580Y101800
X25580Y81800
T06
X169300Y141800
X179300Y141800
T07
X124300Y146800
X104300Y142800
X104300Y150800
T08
X371800Y163139
X371800Y180461
T09
X261800Y269300
X251800Y269300
X34300Y211800
X24300Y211800
X24300Y201800
X34300Y201800
X34300Y191800
X24300Y191800
X91800Y21800
X101800Y21800
T10
X109300Y41300
X109300Y49300
X109300Y57300
T11
X110816Y272824
X100816Y272824
X90816Y272824
X80816Y272824
X70816Y272824
X120816Y272824
X130816Y272824
X140816Y272824
X150816Y272824
X160816Y272824
X170816Y272824
X180816Y272824
X190816Y272824
X200816Y272824
X210816Y272824
X220816Y272824
T12
X306800Y61643
X306800Y51800
X306800Y41957
X363887Y41957
X363887Y61643
T13
X336328Y76406
X336328Y27194
T14
X16800Y16800
X48769Y150776
X48769Y272824
X16800Y276800
X344831Y272824
X376800Y276800
X344831Y150776
X376800Y16800
M30
