G75*
%MOIN*%
%OFA0B0*%
%FSLAX25Y25*%
%IPPOS*%
%LPD*%
%AMOC8*
5,1,8,0,0,1.08239X$1,22.5*
%
%ADD10C,0.12998*%
%ADD11C,0.03500*%
%ADD12C,0.03900*%
%ADD13R,0.06306X0.05518*%
%ADD14R,0.10243X0.08274*%
%ADD15R,0.13392X0.08274*%
%ADD16R,0.12605X0.02369*%
%ADD17C,0.03943*%
%ADD18R,0.05518X0.06306*%
%ADD19R,0.05518X0.06699*%
%ADD20R,0.02369X0.06306*%
%ADD21R,0.06306X0.02369*%
%ADD22R,0.06699X0.05518*%
%ADD23R,0.12211X0.10243*%
%ADD24R,0.05912X0.05124*%
%ADD25R,0.15424X0.15424*%
%ADD26R,0.07487X0.07487*%
%ADD27R,0.05124X0.02565*%
%ADD28R,0.05124X0.05912*%
%ADD29C,0.04534*%
%ADD30R,0.06400X0.06400*%
%ADD31C,0.06400*%
%ADD32R,0.04337X0.05912*%
%ADD33R,0.05912X0.05912*%
%ADD34C,0.07800*%
%ADD35R,0.06306X0.06306*%
%ADD36C,0.05800*%
%ADD37OC8,0.05800*%
%ADD38C,0.05124*%
%ADD39C,0.05800*%
%ADD40R,0.02172X0.04337*%
%ADD41R,0.05912X0.14180*%
%ADD42R,0.06300X0.08300*%
%ADD43R,0.15400X0.08300*%
%ADD44R,0.04534X0.04534*%
D10*
X0016800Y0016800D03*
X0048769Y0150776D03*
X0048769Y0272824D03*
X0016800Y0276800D03*
X0344831Y0272824D03*
X0376800Y0276800D03*
X0344831Y0150776D03*
X0376800Y0016800D03*
D11*
X0119300Y0144300D03*
X0119300Y0149300D03*
X0114300Y0149300D03*
X0114300Y0144300D03*
X0109300Y0144300D03*
X0109300Y0149300D03*
D12*
X0104300Y0150800D03*
X0104300Y0142800D03*
X0124300Y0146800D03*
D13*
X0096800Y0171910D03*
X0096800Y0179390D03*
X0086800Y0198060D03*
X0086800Y0205540D03*
X0201800Y0228060D03*
X0201800Y0235540D03*
X0216800Y0235540D03*
X0216800Y0228060D03*
X0211800Y0253060D03*
X0211800Y0260540D03*
X0319300Y0268060D03*
X0319300Y0275540D03*
X0246800Y0145540D03*
X0246800Y0138060D03*
X0191800Y0123040D03*
X0191800Y0115560D03*
X0244300Y0088040D03*
X0244300Y0080560D03*
X0256800Y0080560D03*
X0256800Y0088040D03*
X0269300Y0088040D03*
X0269300Y0080560D03*
D14*
X0383611Y0154280D03*
X0383611Y0189320D03*
D15*
X0360383Y0189320D03*
X0360383Y0154280D03*
D16*
X0359989Y0165501D03*
X0359989Y0168650D03*
X0359989Y0171800D03*
X0359989Y0174950D03*
X0359989Y0178099D03*
D17*
X0371800Y0180461D03*
X0371800Y0163139D03*
D18*
X0338040Y0164300D03*
X0330560Y0164300D03*
X0330560Y0176800D03*
X0338040Y0176800D03*
X0268040Y0236800D03*
X0260560Y0236800D03*
X0260560Y0249300D03*
X0268040Y0249300D03*
X0300560Y0244300D03*
X0308040Y0244300D03*
X0180540Y0229300D03*
X0173060Y0229300D03*
X0115540Y0089300D03*
X0108060Y0089300D03*
X0108060Y0074300D03*
X0115540Y0074300D03*
X0035540Y0034300D03*
X0028060Y0034300D03*
D19*
X0185363Y0176800D03*
X0193237Y0176800D03*
X0193237Y0189300D03*
X0185363Y0189300D03*
X0247863Y0166800D03*
X0255737Y0166800D03*
X0255737Y0156800D03*
X0247863Y0156800D03*
X0272863Y0166800D03*
X0280737Y0166800D03*
X0302863Y0219300D03*
X0310737Y0219300D03*
X0293237Y0274300D03*
X0285363Y0274300D03*
D20*
X0162548Y0224635D03*
X0159398Y0224635D03*
X0156249Y0224635D03*
X0153099Y0224635D03*
X0149950Y0224635D03*
X0146800Y0224635D03*
X0143650Y0224635D03*
X0140501Y0224635D03*
X0137351Y0224635D03*
X0134202Y0224635D03*
X0131052Y0224635D03*
X0131052Y0178965D03*
X0134202Y0178965D03*
X0137351Y0178965D03*
X0140501Y0178965D03*
X0143650Y0178965D03*
X0146800Y0178965D03*
X0149950Y0178965D03*
X0153099Y0178965D03*
X0156249Y0178965D03*
X0159398Y0178965D03*
X0162548Y0178965D03*
D21*
X0169635Y0186052D03*
X0169635Y0189202D03*
X0169635Y0192351D03*
X0169635Y0195501D03*
X0169635Y0198650D03*
X0169635Y0201800D03*
X0169635Y0204950D03*
X0169635Y0208099D03*
X0169635Y0211249D03*
X0169635Y0214398D03*
X0169635Y0217548D03*
X0123965Y0217548D03*
X0123965Y0214398D03*
X0123965Y0211249D03*
X0123965Y0208099D03*
X0123965Y0204950D03*
X0123965Y0201800D03*
X0123965Y0198650D03*
X0123965Y0195501D03*
X0123965Y0192351D03*
X0123965Y0189202D03*
X0123965Y0186052D03*
D22*
X0143050Y0160737D03*
X0143050Y0152863D03*
X0074300Y0187863D03*
X0074300Y0195737D03*
X0074300Y0212863D03*
X0074300Y0220737D03*
D23*
X0101800Y0211898D03*
X0101800Y0191308D03*
D24*
X0264300Y0147706D03*
X0264300Y0135894D03*
X0076501Y0030898D03*
X0076501Y0021800D03*
X0076501Y0012702D03*
D25*
X0336328Y0027194D03*
X0336328Y0076406D03*
D26*
X0363887Y0061643D03*
X0363887Y0041957D03*
X0306800Y0041957D03*
X0306800Y0051800D03*
X0306800Y0061643D03*
D27*
X0304419Y0258060D03*
X0294181Y0258060D03*
X0294181Y0261800D03*
X0294181Y0265540D03*
X0304419Y0265540D03*
D28*
X0250206Y0249300D03*
X0238394Y0249300D03*
X0238394Y0236800D03*
X0250206Y0236800D03*
D29*
X0269733Y0057611D02*
X0273867Y0057611D01*
X0273867Y0051987D02*
X0269733Y0051987D01*
X0269733Y0046363D02*
X0273867Y0046363D01*
X0273867Y0040739D02*
X0269733Y0040739D01*
D30*
X0070816Y0272824D03*
D31*
X0080816Y0272824D03*
X0090816Y0272824D03*
X0100816Y0272824D03*
X0110816Y0272824D03*
X0120816Y0272824D03*
X0130816Y0272824D03*
X0140816Y0272824D03*
X0150816Y0272824D03*
X0160816Y0272824D03*
X0170816Y0272824D03*
X0180816Y0272824D03*
X0190816Y0272824D03*
X0200816Y0272824D03*
X0210816Y0272824D03*
X0220816Y0272824D03*
D32*
X0299300Y0186131D03*
X0295560Y0177469D03*
X0303040Y0177469D03*
D33*
X0306780Y0166800D03*
X0291820Y0166800D03*
X0331800Y0239320D03*
X0331800Y0254280D03*
X0331800Y0266820D03*
X0331800Y0281780D03*
D34*
X0179300Y0144300D03*
X0169300Y0144300D03*
D35*
X0109300Y0057300D03*
X0109300Y0049300D03*
X0109300Y0041300D03*
D36*
X0024300Y0191800D03*
D37*
X0034300Y0191800D03*
X0034300Y0201800D03*
X0024300Y0201800D03*
X0024300Y0211800D03*
X0034300Y0211800D03*
D38*
X0025580Y0239300D03*
X0036800Y0249300D03*
X0025580Y0259300D03*
D39*
X0251800Y0266600D02*
X0251800Y0272000D01*
X0261800Y0272000D02*
X0261800Y0266600D01*
X0101800Y0024500D02*
X0101800Y0019100D01*
X0091800Y0019100D02*
X0091800Y0024500D01*
D40*
X0122961Y0041229D03*
X0125520Y0041229D03*
X0128080Y0041229D03*
X0130639Y0041229D03*
X0130639Y0057371D03*
X0128080Y0057371D03*
X0125520Y0057371D03*
X0122961Y0057371D03*
D41*
X0052099Y0021800D03*
D42*
X0255400Y0206700D03*
X0264400Y0206700D03*
X0273400Y0206700D03*
D43*
X0264300Y0181900D03*
D44*
X0255540Y0173517D03*
X0256800Y0151800D03*
X0284300Y0216800D03*
X0236800Y0256800D03*
X0311800Y0276800D03*
X0376800Y0136800D03*
X0079300Y0179300D03*
M02*
