G75*
%MOIN*%
%OFA0B0*%
%FSLAX25Y25*%
%IPPOS*%
%LPD*%
%AMOC8*
5,1,8,0,0,1.08239X$1,22.5*
%
%ADD10C,0.00600*%
%ADD11R,0.00400X0.00200*%
%ADD12R,0.00600X0.00200*%
%ADD13R,0.02400X0.00200*%
%ADD14R,0.02600X0.00200*%
%ADD15R,0.02800X0.00200*%
%ADD16R,0.00800X0.00200*%
%ADD17R,0.03200X0.00200*%
%ADD18R,0.03400X0.00200*%
%ADD19R,0.01000X0.00200*%
%ADD20R,0.03600X0.00200*%
%ADD21R,0.04000X0.00200*%
%ADD22R,0.03800X0.00200*%
%ADD23R,0.04200X0.00200*%
%ADD24R,0.04400X0.00200*%
%ADD25R,0.05400X0.00200*%
%ADD26R,0.04600X0.00200*%
%ADD27R,0.02200X0.00200*%
%ADD28R,0.01400X0.00200*%
%ADD29R,0.01200X0.00200*%
%ADD30R,0.01800X0.00200*%
%ADD31R,0.02000X0.00200*%
%ADD32R,0.01600X0.00200*%
%ADD33R,0.05200X0.00200*%
%ADD34R,0.05000X0.00200*%
%ADD35R,0.04800X0.00200*%
%ADD36R,0.06000X0.00200*%
%ADD37R,0.03000X0.00200*%
%ADD38R,0.00200X0.00200*%
%ADD39R,0.12200X0.00200*%
%ADD40R,0.12800X0.00200*%
%ADD41R,0.14200X0.00200*%
%ADD42R,0.14600X0.00200*%
%ADD43R,0.15200X0.00200*%
%ADD44R,0.15400X0.00200*%
%ADD45R,0.15800X0.00200*%
%ADD46R,0.16200X0.00200*%
%ADD47R,0.16400X0.00200*%
%ADD48R,0.16800X0.00200*%
%ADD49R,0.17000X0.00200*%
%ADD50R,0.17200X0.00200*%
%ADD51R,0.17600X0.00200*%
%ADD52R,0.17800X0.00200*%
%ADD53R,0.18000X0.00200*%
%ADD54R,0.18200X0.00200*%
%ADD55R,0.18600X0.00200*%
%ADD56R,0.05600X0.00200*%
%ADD57R,0.18800X0.00200*%
%ADD58R,0.19000X0.00200*%
%ADD59R,0.05800X0.00200*%
%ADD60R,0.19200X0.00200*%
%ADD61R,0.19400X0.00200*%
%ADD62R,0.19600X0.00200*%
%ADD63R,0.19800X0.00200*%
%ADD64R,0.20200X0.00200*%
%ADD65R,0.20000X0.00200*%
%ADD66R,0.20400X0.00200*%
%ADD67R,0.20600X0.00200*%
%ADD68R,0.20800X0.00200*%
%ADD69R,0.18400X0.00200*%
%ADD70R,0.07200X0.00200*%
%ADD71R,0.07000X0.00200*%
%ADD72R,0.06800X0.00200*%
%ADD73R,0.06600X0.00200*%
%ADD74R,0.06400X0.00200*%
%ADD75R,0.06200X0.00200*%
%ADD76R,0.36800X0.00200*%
%ADD77R,0.09000X0.00200*%
%ADD78R,0.13200X0.00200*%
%ADD79R,0.08800X0.00200*%
%ADD80R,0.08200X0.00200*%
%ADD81R,0.11600X0.00200*%
%ADD82R,0.08000X0.00200*%
%ADD83R,0.07600X0.00200*%
%ADD84R,0.10400X0.00200*%
%ADD85R,0.07400X0.00200*%
%ADD86R,0.09600X0.00200*%
%ADD87R,0.07800X0.00200*%
%ADD88R,0.08400X0.00200*%
%ADD89R,0.08600X0.00200*%
%ADD90R,0.33600X0.00200*%
%ADD91R,0.33200X0.00200*%
%ADD92R,0.32800X0.00200*%
%ADD93R,0.32400X0.00200*%
%ADD94R,0.32000X0.00200*%
%ADD95R,0.31600X0.00200*%
%ADD96R,0.31200X0.00200*%
%ADD97R,0.30800X0.00200*%
%ADD98R,0.30400X0.00200*%
%ADD99R,0.30000X0.00200*%
%ADD100R,0.29600X0.00200*%
%ADD101R,0.29400X0.00200*%
%ADD102R,0.29200X0.00200*%
%ADD103R,0.28800X0.00200*%
%ADD104R,0.28400X0.00200*%
%ADD105R,0.28000X0.00200*%
%ADD106R,0.27800X0.00200*%
%ADD107R,0.27600X0.00200*%
%ADD108R,0.27200X0.00200*%
%ADD109R,0.26800X0.00200*%
%ADD110R,0.26400X0.00200*%
%ADD111R,0.26000X0.00200*%
%ADD112R,0.25600X0.00200*%
%ADD113R,0.25200X0.00200*%
%ADD114R,0.24800X0.00200*%
%ADD115R,0.24200X0.00200*%
%ADD116R,0.23600X0.00200*%
%ADD117R,0.23200X0.00200*%
%ADD118R,0.22800X0.00200*%
%ADD119R,0.22400X0.00200*%
%ADD120R,0.21600X0.00200*%
%ADD121R,0.21200X0.00200*%
%ADD122R,0.15600X0.00200*%
%ADD123R,0.14800X0.00200*%
%ADD124R,0.13800X0.00200*%
%ADD125C,0.00400*%
%ADD126C,0.00300*%
%ADD127C,0.00800*%
%ADD128C,0.01000*%
%ADD129C,0.00500*%
%ADD130C,0.00200*%
%ADD131C,0.00100*%
%ADD132R,0.05000X0.30000*%
%ADD133R,0.01000X0.02000*%
%ADD134R,0.00500X0.01500*%
%ADD135R,0.01000X0.01000*%
%ADD136C,0.01575*%
D10*
X0086800Y0017800D02*
X0086800Y0025800D01*
X0087800Y0026800D01*
X0095800Y0026800D01*
X0096800Y0025800D01*
X0097800Y0026800D01*
X0105800Y0026800D01*
X0106800Y0025800D01*
X0106800Y0017800D01*
X0105800Y0016800D01*
X0097800Y0016800D01*
X0096800Y0017800D01*
X0095800Y0016800D01*
X0087800Y0016800D01*
X0086800Y0017800D01*
X0230958Y0021168D02*
X0232026Y0020100D01*
X0234161Y0020100D01*
X0235228Y0021168D01*
X0235228Y0023303D01*
X0234161Y0024370D01*
X0232026Y0024370D01*
X0230958Y0023303D01*
X0230958Y0021168D01*
X0237397Y0024370D02*
X0238464Y0024370D01*
X0240600Y0022235D01*
X0240600Y0020100D02*
X0240600Y0024370D01*
X0242761Y0024370D02*
X0244897Y0024370D01*
X0243829Y0025438D02*
X0243829Y0021168D01*
X0242761Y0020100D01*
X0247072Y0020100D02*
X0250274Y0020100D01*
X0251342Y0021168D01*
X0251342Y0023303D01*
X0250274Y0024370D01*
X0247072Y0024370D01*
X0253517Y0023303D02*
X0253517Y0022235D01*
X0257788Y0022235D01*
X0257788Y0021168D02*
X0257788Y0023303D01*
X0256720Y0024370D01*
X0254585Y0024370D01*
X0253517Y0023303D01*
X0254585Y0020100D02*
X0256720Y0020100D01*
X0257788Y0021168D01*
X0259963Y0021168D02*
X0261030Y0020100D01*
X0264233Y0020100D01*
X0264233Y0017965D02*
X0264233Y0024370D01*
X0261030Y0024370D01*
X0259963Y0023303D01*
X0259963Y0021168D01*
X0266408Y0021168D02*
X0267476Y0020100D01*
X0270679Y0020100D01*
X0269611Y0022235D02*
X0267476Y0022235D01*
X0266408Y0021168D01*
X0266408Y0024370D02*
X0269611Y0024370D01*
X0270679Y0023303D01*
X0269611Y0022235D01*
X0279299Y0022235D02*
X0283570Y0022235D01*
X0283570Y0021168D02*
X0283570Y0023303D01*
X0282502Y0024370D01*
X0280367Y0024370D01*
X0279299Y0023303D01*
X0279299Y0022235D01*
X0280367Y0020100D02*
X0282502Y0020100D01*
X0283570Y0021168D01*
X0285731Y0020100D02*
X0287867Y0020100D01*
X0286799Y0020100D02*
X0286799Y0026505D01*
X0287867Y0026505D01*
X0290042Y0023303D02*
X0291109Y0024370D01*
X0294312Y0024370D01*
X0294312Y0017965D01*
X0294312Y0020100D02*
X0291109Y0020100D01*
X0290042Y0021168D01*
X0290042Y0023303D01*
X0296487Y0023303D02*
X0296487Y0020100D01*
X0298622Y0020100D02*
X0298622Y0023303D01*
X0297555Y0024370D01*
X0296487Y0023303D01*
X0298622Y0023303D02*
X0299690Y0024370D01*
X0300758Y0024370D01*
X0300758Y0020100D01*
X0302919Y0020100D02*
X0305055Y0020100D01*
X0303987Y0020100D02*
X0303987Y0024370D01*
X0305055Y0024370D01*
X0303987Y0026505D02*
X0303987Y0027573D01*
X0307230Y0025438D02*
X0308297Y0026505D01*
X0310432Y0026505D01*
X0311500Y0025438D01*
X0311500Y0024370D01*
X0310432Y0023303D01*
X0308297Y0023303D01*
X0307230Y0022235D01*
X0307230Y0021168D01*
X0308297Y0020100D01*
X0310432Y0020100D01*
X0311500Y0021168D01*
X0311500Y0016005D02*
X0311500Y0011735D01*
X0309365Y0009600D01*
X0307230Y0011735D01*
X0307230Y0016005D01*
X0305055Y0013870D02*
X0302919Y0016005D01*
X0302919Y0009600D01*
X0300784Y0009600D02*
X0305055Y0009600D01*
X0298609Y0009600D02*
X0297541Y0009600D01*
X0297541Y0010668D01*
X0298609Y0010668D01*
X0298609Y0009600D01*
X0295386Y0012803D02*
X0291116Y0012803D01*
X0288941Y0010668D02*
X0287873Y0010668D01*
X0287873Y0009600D01*
X0288941Y0009600D01*
X0288941Y0010668D01*
X0285718Y0010668D02*
X0281448Y0014938D01*
X0281448Y0010668D01*
X0282515Y0009600D01*
X0284650Y0009600D01*
X0285718Y0010668D01*
X0285718Y0014938D01*
X0284650Y0016005D01*
X0282515Y0016005D01*
X0281448Y0014938D01*
X0292184Y0016005D02*
X0292184Y0009600D01*
X0295386Y0012803D02*
X0292184Y0016005D01*
X0164300Y0144300D02*
X0164303Y0144545D01*
X0164312Y0144791D01*
X0164327Y0145036D01*
X0164348Y0145280D01*
X0164375Y0145524D01*
X0164408Y0145767D01*
X0164447Y0146010D01*
X0164492Y0146251D01*
X0164543Y0146491D01*
X0164600Y0146730D01*
X0164662Y0146967D01*
X0164731Y0147203D01*
X0164805Y0147437D01*
X0164885Y0147669D01*
X0164970Y0147899D01*
X0165061Y0148127D01*
X0165158Y0148352D01*
X0165260Y0148576D01*
X0165368Y0148796D01*
X0165481Y0149014D01*
X0165599Y0149229D01*
X0165723Y0149441D01*
X0165851Y0149650D01*
X0165985Y0149856D01*
X0166124Y0150058D01*
X0166268Y0150257D01*
X0166417Y0150452D01*
X0166570Y0150644D01*
X0166728Y0150832D01*
X0166890Y0151016D01*
X0167058Y0151195D01*
X0167229Y0151371D01*
X0167405Y0151542D01*
X0167584Y0151710D01*
X0167768Y0151872D01*
X0167956Y0152030D01*
X0168148Y0152183D01*
X0168343Y0152332D01*
X0168542Y0152476D01*
X0168744Y0152615D01*
X0168950Y0152749D01*
X0169159Y0152877D01*
X0169371Y0153001D01*
X0169586Y0153119D01*
X0169804Y0153232D01*
X0170024Y0153340D01*
X0170248Y0153442D01*
X0170473Y0153539D01*
X0170701Y0153630D01*
X0170931Y0153715D01*
X0171163Y0153795D01*
X0171397Y0153869D01*
X0171633Y0153938D01*
X0171870Y0154000D01*
X0172109Y0154057D01*
X0172349Y0154108D01*
X0172590Y0154153D01*
X0172833Y0154192D01*
X0173076Y0154225D01*
X0173320Y0154252D01*
X0173564Y0154273D01*
X0173809Y0154288D01*
X0174055Y0154297D01*
X0174300Y0154300D01*
X0174545Y0154297D01*
X0174791Y0154288D01*
X0175036Y0154273D01*
X0175280Y0154252D01*
X0175524Y0154225D01*
X0175767Y0154192D01*
X0176010Y0154153D01*
X0176251Y0154108D01*
X0176491Y0154057D01*
X0176730Y0154000D01*
X0176967Y0153938D01*
X0177203Y0153869D01*
X0177437Y0153795D01*
X0177669Y0153715D01*
X0177899Y0153630D01*
X0178127Y0153539D01*
X0178352Y0153442D01*
X0178576Y0153340D01*
X0178796Y0153232D01*
X0179014Y0153119D01*
X0179229Y0153001D01*
X0179441Y0152877D01*
X0179650Y0152749D01*
X0179856Y0152615D01*
X0180058Y0152476D01*
X0180257Y0152332D01*
X0180452Y0152183D01*
X0180644Y0152030D01*
X0180832Y0151872D01*
X0181016Y0151710D01*
X0181195Y0151542D01*
X0181371Y0151371D01*
X0181542Y0151195D01*
X0181710Y0151016D01*
X0181872Y0150832D01*
X0182030Y0150644D01*
X0182183Y0150452D01*
X0182332Y0150257D01*
X0182476Y0150058D01*
X0182615Y0149856D01*
X0182749Y0149650D01*
X0182877Y0149441D01*
X0183001Y0149229D01*
X0183119Y0149014D01*
X0183232Y0148796D01*
X0183340Y0148576D01*
X0183442Y0148352D01*
X0183539Y0148127D01*
X0183630Y0147899D01*
X0183715Y0147669D01*
X0183795Y0147437D01*
X0183869Y0147203D01*
X0183938Y0146967D01*
X0184000Y0146730D01*
X0184057Y0146491D01*
X0184108Y0146251D01*
X0184153Y0146010D01*
X0184192Y0145767D01*
X0184225Y0145524D01*
X0184252Y0145280D01*
X0184273Y0145036D01*
X0184288Y0144791D01*
X0184297Y0144545D01*
X0184300Y0144300D01*
X0184297Y0144055D01*
X0184288Y0143809D01*
X0184273Y0143564D01*
X0184252Y0143320D01*
X0184225Y0143076D01*
X0184192Y0142833D01*
X0184153Y0142590D01*
X0184108Y0142349D01*
X0184057Y0142109D01*
X0184000Y0141870D01*
X0183938Y0141633D01*
X0183869Y0141397D01*
X0183795Y0141163D01*
X0183715Y0140931D01*
X0183630Y0140701D01*
X0183539Y0140473D01*
X0183442Y0140248D01*
X0183340Y0140024D01*
X0183232Y0139804D01*
X0183119Y0139586D01*
X0183001Y0139371D01*
X0182877Y0139159D01*
X0182749Y0138950D01*
X0182615Y0138744D01*
X0182476Y0138542D01*
X0182332Y0138343D01*
X0182183Y0138148D01*
X0182030Y0137956D01*
X0181872Y0137768D01*
X0181710Y0137584D01*
X0181542Y0137405D01*
X0181371Y0137229D01*
X0181195Y0137058D01*
X0181016Y0136890D01*
X0180832Y0136728D01*
X0180644Y0136570D01*
X0180452Y0136417D01*
X0180257Y0136268D01*
X0180058Y0136124D01*
X0179856Y0135985D01*
X0179650Y0135851D01*
X0179441Y0135723D01*
X0179229Y0135599D01*
X0179014Y0135481D01*
X0178796Y0135368D01*
X0178576Y0135260D01*
X0178352Y0135158D01*
X0178127Y0135061D01*
X0177899Y0134970D01*
X0177669Y0134885D01*
X0177437Y0134805D01*
X0177203Y0134731D01*
X0176967Y0134662D01*
X0176730Y0134600D01*
X0176491Y0134543D01*
X0176251Y0134492D01*
X0176010Y0134447D01*
X0175767Y0134408D01*
X0175524Y0134375D01*
X0175280Y0134348D01*
X0175036Y0134327D01*
X0174791Y0134312D01*
X0174545Y0134303D01*
X0174300Y0134300D01*
X0174055Y0134303D01*
X0173809Y0134312D01*
X0173564Y0134327D01*
X0173320Y0134348D01*
X0173076Y0134375D01*
X0172833Y0134408D01*
X0172590Y0134447D01*
X0172349Y0134492D01*
X0172109Y0134543D01*
X0171870Y0134600D01*
X0171633Y0134662D01*
X0171397Y0134731D01*
X0171163Y0134805D01*
X0170931Y0134885D01*
X0170701Y0134970D01*
X0170473Y0135061D01*
X0170248Y0135158D01*
X0170024Y0135260D01*
X0169804Y0135368D01*
X0169586Y0135481D01*
X0169371Y0135599D01*
X0169159Y0135723D01*
X0168950Y0135851D01*
X0168744Y0135985D01*
X0168542Y0136124D01*
X0168343Y0136268D01*
X0168148Y0136417D01*
X0167956Y0136570D01*
X0167768Y0136728D01*
X0167584Y0136890D01*
X0167405Y0137058D01*
X0167229Y0137229D01*
X0167058Y0137405D01*
X0166890Y0137584D01*
X0166728Y0137768D01*
X0166570Y0137956D01*
X0166417Y0138148D01*
X0166268Y0138343D01*
X0166124Y0138542D01*
X0165985Y0138744D01*
X0165851Y0138950D01*
X0165723Y0139159D01*
X0165599Y0139371D01*
X0165481Y0139586D01*
X0165368Y0139804D01*
X0165260Y0140024D01*
X0165158Y0140248D01*
X0165061Y0140473D01*
X0164970Y0140701D01*
X0164885Y0140931D01*
X0164805Y0141163D01*
X0164731Y0141397D01*
X0164662Y0141633D01*
X0164600Y0141870D01*
X0164543Y0142109D01*
X0164492Y0142349D01*
X0164447Y0142590D01*
X0164408Y0142833D01*
X0164375Y0143076D01*
X0164348Y0143320D01*
X0164327Y0143564D01*
X0164312Y0143809D01*
X0164303Y0144055D01*
X0164300Y0144300D01*
X0137570Y0189233D02*
X0138637Y0190301D01*
X0138637Y0192436D01*
X0137570Y0193503D01*
X0136502Y0193503D01*
X0135435Y0192436D01*
X0134367Y0193503D01*
X0133300Y0193503D01*
X0132232Y0192436D01*
X0132232Y0190301D01*
X0133300Y0189233D01*
X0135435Y0191368D02*
X0135435Y0192436D01*
X0137570Y0195679D02*
X0138637Y0196746D01*
X0138637Y0198881D01*
X0137570Y0199949D01*
X0136502Y0199949D01*
X0132232Y0195679D01*
X0132232Y0199949D01*
X0133300Y0202124D02*
X0132232Y0203192D01*
X0132232Y0205327D01*
X0133300Y0206394D01*
X0138637Y0206394D01*
X0135435Y0208570D02*
X0135435Y0212840D01*
X0138637Y0211772D02*
X0135435Y0208570D01*
X0138637Y0211772D02*
X0132232Y0211772D01*
X0133300Y0202124D02*
X0138637Y0202124D01*
X0066800Y0216800D02*
X0061800Y0201800D01*
X0066800Y0186800D01*
X0043100Y0186800D01*
X0043100Y0180300D01*
X0043100Y0176800D01*
X0037800Y0176800D01*
X0031800Y0176800D01*
X0026800Y0176800D01*
X0020800Y0176800D01*
X0015600Y0176800D01*
X0015600Y0180300D01*
X0015600Y0186800D01*
X0015600Y0216800D01*
X0015600Y0223300D01*
X0015600Y0226700D01*
X0020800Y0226700D01*
X0026800Y0226700D01*
X0031800Y0226700D01*
X0037800Y0226700D01*
X0043100Y0226700D01*
X0043100Y0223300D01*
X0043100Y0216800D01*
X0043100Y0186800D01*
X0043100Y0180300D02*
X0037800Y0180300D01*
X0037800Y0176800D01*
X0031800Y0176800D02*
X0031800Y0180300D01*
X0026800Y0180300D01*
X0026800Y0176800D01*
X0020800Y0176800D02*
X0020800Y0180300D01*
X0015600Y0180300D01*
X0015600Y0186800D02*
X0012900Y0186800D01*
X0012900Y0216800D01*
X0015600Y0216800D01*
X0015600Y0223300D02*
X0020800Y0223300D01*
X0020800Y0226700D01*
X0026800Y0226700D02*
X0026800Y0223300D01*
X0031800Y0223300D01*
X0031800Y0226700D01*
X0037800Y0226700D02*
X0037800Y0223300D01*
X0043100Y0223300D01*
X0043100Y0216800D02*
X0066800Y0216800D01*
X0039202Y0236308D02*
X0011682Y0236308D01*
X0011682Y0262292D01*
X0039202Y0262292D01*
X0039202Y0236308D01*
X0020100Y0193500D02*
X0016800Y0191800D01*
X0017800Y0191800D01*
X0016800Y0191800D02*
X0020100Y0190100D01*
X0020100Y0193500D01*
X0022100Y0186203D02*
X0022100Y0182600D01*
X0022100Y0184402D02*
X0027505Y0184402D01*
X0025703Y0182600D01*
X0252001Y0187485D02*
X0276599Y0187485D01*
X0276599Y0201107D01*
X0252001Y0201107D01*
X0252001Y0187485D01*
X0293700Y0184400D02*
X0293700Y0181200D01*
X0293700Y0184400D02*
X0295900Y0184400D01*
X0302700Y0184400D02*
X0304900Y0184400D01*
X0304900Y0181200D01*
D11*
X0090400Y0046700D03*
X0085200Y0046700D03*
X0078200Y0046700D03*
X0071200Y0049500D03*
X0071200Y0052100D03*
X0069600Y0046700D03*
X0063000Y0054900D03*
X0044600Y0053900D03*
X0041400Y0056700D03*
X0034000Y0046700D03*
X0023400Y0046700D03*
X0048800Y0092300D03*
X0038600Y0096100D03*
X0063600Y0100500D03*
D12*
X0066300Y0100500D03*
X0074900Y0095900D03*
X0050300Y0100500D03*
X0047500Y0100500D03*
X0048900Y0096900D03*
X0048900Y0096700D03*
X0038700Y0099300D03*
X0069500Y0057700D03*
X0064300Y0054900D03*
X0057700Y0054900D03*
X0049100Y0054900D03*
X0049100Y0046700D03*
X0050700Y0046700D03*
X0057700Y0046700D03*
X0064300Y0046700D03*
X0085100Y0056900D03*
X0090500Y0056900D03*
X0041300Y0046700D03*
X0032300Y0046700D03*
X0027900Y0046700D03*
X0032300Y0054900D03*
X0033900Y0054900D03*
X0039300Y0054900D03*
D13*
X0042200Y0054900D03*
X0051400Y0047500D03*
X0053600Y0046700D03*
X0058400Y0047500D03*
X0036800Y0046700D03*
X0081000Y0046700D03*
X0068400Y0094900D03*
X0068800Y0096100D03*
X0069000Y0096900D03*
X0069200Y0097100D03*
X0069000Y0098700D03*
X0068800Y0099500D03*
X0074000Y0099700D03*
X0061000Y0099700D03*
X0060600Y0098500D03*
X0061000Y0095900D03*
X0061400Y0094900D03*
X0056800Y0094900D03*
X0052800Y0096100D03*
X0053000Y0097100D03*
X0052800Y0099500D03*
X0052800Y0099700D03*
X0044800Y0095900D03*
X0039800Y0099700D03*
D14*
X0039700Y0095700D03*
X0044700Y0097100D03*
X0044900Y0096300D03*
X0044900Y0096100D03*
X0044700Y0098700D03*
X0044900Y0099100D03*
X0044900Y0099300D03*
X0044900Y0099500D03*
X0052700Y0099300D03*
X0052900Y0098900D03*
X0052900Y0098700D03*
X0052900Y0096900D03*
X0056900Y0094700D03*
X0056900Y0094500D03*
X0060900Y0096100D03*
X0060700Y0097100D03*
X0060900Y0098900D03*
X0060900Y0099500D03*
X0068900Y0099300D03*
X0068900Y0099100D03*
X0068900Y0098900D03*
X0068900Y0096700D03*
X0068900Y0096500D03*
X0068900Y0096300D03*
X0073900Y0095700D03*
X0073700Y0099900D03*
X0073700Y0054900D03*
X0060500Y0046700D03*
X0046300Y0054900D03*
X0042100Y0054700D03*
X0042100Y0054500D03*
X0042100Y0054300D03*
D15*
X0025600Y0054700D03*
X0049200Y0068500D03*
X0056800Y0068500D03*
X0064400Y0068500D03*
X0073800Y0046700D03*
X0048800Y0092500D03*
X0045000Y0096500D03*
X0044800Y0096700D03*
X0044800Y0096900D03*
X0044800Y0098900D03*
X0040000Y0099900D03*
X0048800Y0103100D03*
X0052800Y0099100D03*
X0052800Y0096700D03*
X0052800Y0096500D03*
X0052800Y0096300D03*
X0060800Y0096900D03*
X0061000Y0096500D03*
X0061000Y0096300D03*
X0060800Y0098700D03*
X0061000Y0099100D03*
X0061000Y0099300D03*
X0064800Y0103100D03*
X0073600Y0100100D03*
D16*
X0074800Y0099500D03*
X0065000Y0098700D03*
X0065000Y0096900D03*
X0065000Y0096700D03*
X0056800Y0098100D03*
X0048800Y0098700D03*
X0039000Y0099500D03*
X0038800Y0095900D03*
X0041400Y0057700D03*
X0039200Y0054700D03*
X0039200Y0054500D03*
X0034000Y0054500D03*
X0034000Y0054700D03*
X0034000Y0054300D03*
X0034000Y0054100D03*
X0034000Y0053900D03*
X0034000Y0053700D03*
X0034000Y0053500D03*
X0034000Y0053300D03*
X0034000Y0053100D03*
X0034000Y0052900D03*
X0034000Y0052700D03*
X0034000Y0052500D03*
X0034000Y0052300D03*
X0034000Y0052100D03*
X0034000Y0051900D03*
X0034000Y0051700D03*
X0034000Y0051500D03*
X0034000Y0051300D03*
X0034000Y0051100D03*
X0034000Y0050900D03*
X0034000Y0050700D03*
X0034000Y0050500D03*
X0034000Y0050300D03*
X0034000Y0050100D03*
X0034000Y0049900D03*
X0034000Y0049700D03*
X0034000Y0049500D03*
X0034000Y0049300D03*
X0034000Y0049100D03*
X0032400Y0049100D03*
X0032400Y0049300D03*
X0032400Y0049500D03*
X0032400Y0049700D03*
X0032400Y0049900D03*
X0032400Y0050100D03*
X0032400Y0050300D03*
X0032400Y0050500D03*
X0032400Y0050700D03*
X0032400Y0050900D03*
X0032400Y0051100D03*
X0032400Y0051300D03*
X0032400Y0051500D03*
X0032400Y0051700D03*
X0032400Y0051900D03*
X0032400Y0052100D03*
X0032400Y0052300D03*
X0032400Y0052500D03*
X0032400Y0054700D03*
X0027800Y0052500D03*
X0027800Y0052300D03*
X0027800Y0052100D03*
X0027800Y0051900D03*
X0027800Y0051700D03*
X0027800Y0051500D03*
X0027800Y0051300D03*
X0027800Y0051100D03*
X0027800Y0050900D03*
X0027800Y0050700D03*
X0027800Y0050500D03*
X0027800Y0050300D03*
X0027800Y0050100D03*
X0027800Y0049900D03*
X0027800Y0049700D03*
X0027800Y0049500D03*
X0027800Y0049300D03*
X0027800Y0049100D03*
X0027800Y0048900D03*
X0027800Y0048700D03*
X0027800Y0048500D03*
X0027800Y0048300D03*
X0027800Y0048100D03*
X0027800Y0047900D03*
X0027800Y0047700D03*
X0027800Y0047500D03*
X0027800Y0047300D03*
X0027800Y0047100D03*
X0027800Y0046900D03*
X0032400Y0046900D03*
X0032400Y0047100D03*
X0032400Y0047300D03*
X0032400Y0047500D03*
X0032400Y0047700D03*
X0032400Y0047900D03*
X0032400Y0048100D03*
X0032400Y0048300D03*
X0032400Y0048500D03*
X0032400Y0048700D03*
X0032400Y0048900D03*
X0034000Y0047300D03*
X0034000Y0047100D03*
X0034000Y0046900D03*
X0039000Y0048100D03*
X0039200Y0048500D03*
X0039200Y0048700D03*
X0039200Y0048900D03*
X0039200Y0049100D03*
X0041200Y0046900D03*
X0049000Y0046900D03*
X0049000Y0047100D03*
X0049000Y0047300D03*
X0049000Y0047500D03*
X0049000Y0047700D03*
X0049000Y0047900D03*
X0049000Y0048100D03*
X0049000Y0048300D03*
X0049000Y0048500D03*
X0049000Y0048700D03*
X0049000Y0048900D03*
X0049000Y0049100D03*
X0049000Y0049300D03*
X0049000Y0049500D03*
X0049000Y0049700D03*
X0049000Y0049900D03*
X0049000Y0050100D03*
X0049000Y0050300D03*
X0049000Y0050500D03*
X0049000Y0050700D03*
X0049000Y0050900D03*
X0049000Y0051100D03*
X0049000Y0051300D03*
X0049000Y0051500D03*
X0049000Y0051700D03*
X0049000Y0051900D03*
X0049000Y0052100D03*
X0049000Y0052300D03*
X0049000Y0052500D03*
X0049000Y0052700D03*
X0050800Y0052700D03*
X0050800Y0052900D03*
X0050800Y0053100D03*
X0049000Y0054500D03*
X0049000Y0054700D03*
X0055800Y0050100D03*
X0056000Y0049700D03*
X0056000Y0049500D03*
X0056000Y0049300D03*
X0056000Y0049100D03*
X0056000Y0048900D03*
X0056000Y0048700D03*
X0055800Y0048300D03*
X0057600Y0046900D03*
X0062800Y0048300D03*
X0063000Y0048900D03*
X0063000Y0049100D03*
X0063000Y0049300D03*
X0063000Y0049500D03*
X0063000Y0049700D03*
X0063000Y0049900D03*
X0063000Y0050100D03*
X0063000Y0050300D03*
X0063000Y0050500D03*
X0063000Y0050700D03*
X0063000Y0050900D03*
X0063000Y0051100D03*
X0063000Y0051300D03*
X0063000Y0051500D03*
X0063000Y0051700D03*
X0063000Y0051900D03*
X0063000Y0052100D03*
X0063000Y0052300D03*
X0063000Y0052500D03*
X0063000Y0052700D03*
X0063000Y0052900D03*
X0063000Y0053100D03*
X0063000Y0053300D03*
X0063000Y0053500D03*
X0063000Y0053700D03*
X0063000Y0053900D03*
X0063000Y0054100D03*
X0063000Y0054300D03*
X0063000Y0054500D03*
X0063000Y0054700D03*
X0057600Y0054700D03*
X0050800Y0046900D03*
X0069600Y0046900D03*
X0069600Y0047100D03*
X0069600Y0047300D03*
X0069600Y0047500D03*
X0069600Y0047700D03*
X0069600Y0047900D03*
X0069600Y0048100D03*
X0069600Y0048300D03*
X0069600Y0048500D03*
X0069600Y0050100D03*
X0069600Y0050300D03*
X0069600Y0050500D03*
X0069600Y0050700D03*
X0069600Y0050900D03*
X0069600Y0051100D03*
X0069600Y0051300D03*
X0069600Y0051500D03*
X0069600Y0051700D03*
X0069600Y0051900D03*
X0069600Y0052100D03*
X0069600Y0052300D03*
X0069600Y0052500D03*
X0069600Y0052700D03*
X0069600Y0052900D03*
X0069600Y0053100D03*
X0069600Y0053300D03*
X0069600Y0053500D03*
X0069600Y0053700D03*
X0069600Y0053900D03*
X0069600Y0054100D03*
X0069600Y0054300D03*
X0069600Y0054500D03*
X0069600Y0054700D03*
X0069600Y0054900D03*
X0069600Y0055100D03*
X0069600Y0055300D03*
X0069600Y0055500D03*
X0069600Y0055700D03*
X0069600Y0055900D03*
X0069600Y0056100D03*
X0069600Y0056300D03*
X0069600Y0056500D03*
X0069600Y0056700D03*
X0069600Y0056900D03*
X0069600Y0057100D03*
X0069600Y0057300D03*
X0069600Y0057500D03*
X0071400Y0053300D03*
X0071200Y0052700D03*
X0071200Y0052500D03*
X0071200Y0052300D03*
X0071200Y0049300D03*
X0071200Y0049100D03*
X0071200Y0048900D03*
X0071400Y0048300D03*
X0076400Y0048500D03*
X0076600Y0049100D03*
X0076600Y0049300D03*
X0076600Y0049500D03*
X0076600Y0049700D03*
X0076600Y0049900D03*
X0076600Y0050100D03*
X0076600Y0050300D03*
X0076600Y0050500D03*
X0076600Y0050700D03*
X0076600Y0050900D03*
X0076600Y0051100D03*
X0076600Y0051300D03*
X0076600Y0051500D03*
X0076600Y0051700D03*
X0076600Y0051900D03*
X0076600Y0052100D03*
X0076400Y0052700D03*
X0076400Y0052900D03*
X0078200Y0052900D03*
X0078200Y0052700D03*
X0078200Y0052500D03*
X0078200Y0052300D03*
X0078200Y0052100D03*
X0078200Y0051900D03*
X0078200Y0050900D03*
X0078200Y0050700D03*
X0078200Y0050500D03*
X0078200Y0050300D03*
X0078200Y0050100D03*
X0078200Y0049900D03*
X0078200Y0049700D03*
X0078200Y0049500D03*
X0078200Y0049300D03*
X0078200Y0049100D03*
X0078200Y0047300D03*
X0078200Y0047100D03*
X0078200Y0046900D03*
X0083200Y0048100D03*
X0083400Y0048500D03*
X0083400Y0048700D03*
X0083400Y0048900D03*
X0083400Y0049100D03*
X0083400Y0049300D03*
X0083400Y0049500D03*
X0083400Y0049700D03*
X0083400Y0049900D03*
X0085200Y0049900D03*
X0085200Y0049700D03*
X0085200Y0049500D03*
X0085200Y0049300D03*
X0085200Y0049100D03*
X0085200Y0048900D03*
X0085200Y0048700D03*
X0085200Y0048500D03*
X0085200Y0048300D03*
X0085200Y0048100D03*
X0085200Y0047900D03*
X0085200Y0047700D03*
X0085200Y0047500D03*
X0085200Y0047300D03*
X0085200Y0047100D03*
X0085200Y0046900D03*
X0090400Y0046900D03*
X0090400Y0047100D03*
X0090400Y0047300D03*
X0090400Y0047500D03*
X0090400Y0047700D03*
X0090400Y0047900D03*
X0090400Y0048100D03*
X0090400Y0048300D03*
X0090400Y0048500D03*
X0090400Y0048700D03*
X0090400Y0048900D03*
X0090400Y0049100D03*
X0090400Y0049300D03*
X0090400Y0049500D03*
X0090400Y0049700D03*
X0090400Y0049900D03*
X0090400Y0050100D03*
X0090400Y0050300D03*
X0090400Y0050500D03*
X0090400Y0050700D03*
X0090400Y0050900D03*
X0090400Y0051100D03*
X0090400Y0051300D03*
X0090400Y0051500D03*
X0090400Y0051700D03*
X0090400Y0052700D03*
X0090400Y0052900D03*
X0090400Y0053100D03*
X0090400Y0053300D03*
X0090400Y0053500D03*
X0090400Y0053700D03*
X0090400Y0053900D03*
X0090400Y0054100D03*
X0090400Y0054300D03*
X0090400Y0054500D03*
X0090400Y0054700D03*
X0090400Y0054900D03*
X0090400Y0055100D03*
X0090400Y0055300D03*
X0090400Y0055500D03*
X0090400Y0055700D03*
X0090400Y0055900D03*
X0090400Y0056100D03*
X0090400Y0056300D03*
X0090400Y0056500D03*
X0090400Y0056700D03*
X0085200Y0056700D03*
X0085200Y0056500D03*
X0085200Y0056300D03*
X0085200Y0056100D03*
X0085200Y0055900D03*
X0085200Y0055700D03*
X0085200Y0055500D03*
X0085200Y0055300D03*
X0085200Y0055100D03*
X0085200Y0054900D03*
X0085200Y0054700D03*
X0085200Y0054500D03*
X0085200Y0054300D03*
X0085200Y0054100D03*
X0085200Y0053900D03*
X0085200Y0053700D03*
X0085200Y0053500D03*
X0085200Y0053300D03*
X0085200Y0053100D03*
X0085200Y0052900D03*
X0085200Y0052700D03*
X0085200Y0051700D03*
X0085200Y0051500D03*
X0085200Y0051300D03*
X0085200Y0051100D03*
X0085200Y0050900D03*
X0085200Y0050700D03*
X0085200Y0050500D03*
X0085200Y0050300D03*
X0085200Y0050100D03*
X0078400Y0053300D03*
X0025600Y0055100D03*
X0023600Y0053300D03*
X0023400Y0052900D03*
X0023400Y0052700D03*
X0023400Y0052500D03*
X0023400Y0052300D03*
X0023400Y0052100D03*
X0023400Y0051900D03*
X0023400Y0051700D03*
X0023400Y0051500D03*
X0023400Y0051300D03*
X0023400Y0051100D03*
X0023400Y0050900D03*
X0023400Y0050700D03*
X0023400Y0050500D03*
X0023400Y0050300D03*
X0023400Y0050100D03*
X0023400Y0049900D03*
X0023400Y0049700D03*
X0023400Y0049500D03*
X0023400Y0049300D03*
X0023400Y0049100D03*
X0023400Y0048900D03*
X0023400Y0048700D03*
X0023400Y0048500D03*
X0023400Y0048300D03*
X0023400Y0048100D03*
X0023400Y0047900D03*
X0023400Y0047700D03*
X0023400Y0047500D03*
X0023400Y0047300D03*
X0023400Y0047100D03*
X0023400Y0046900D03*
D17*
X0036800Y0046900D03*
X0081000Y0046900D03*
X0081400Y0054900D03*
X0073600Y0095300D03*
X0073400Y0100500D03*
X0073400Y0100700D03*
X0073200Y0101100D03*
X0040400Y0100900D03*
X0040200Y0100500D03*
X0040200Y0100300D03*
X0040000Y0095500D03*
D18*
X0040100Y0095300D03*
X0040100Y0095100D03*
X0040300Y0100700D03*
X0040500Y0101100D03*
X0040500Y0101300D03*
X0051100Y0101500D03*
X0051300Y0101300D03*
X0056900Y0093900D03*
X0067100Y0101500D03*
X0067300Y0101300D03*
X0073100Y0101300D03*
X0073100Y0101500D03*
X0073300Y0100900D03*
X0073500Y0095100D03*
X0073500Y0094900D03*
X0056700Y0068700D03*
X0046300Y0054700D03*
X0053500Y0046900D03*
X0060500Y0046900D03*
X0073700Y0054700D03*
X0025700Y0054500D03*
D19*
X0023700Y0053500D03*
X0023500Y0053100D03*
X0027900Y0053100D03*
X0027900Y0052900D03*
X0027900Y0052700D03*
X0030100Y0055100D03*
X0032300Y0053100D03*
X0032300Y0052900D03*
X0032300Y0052700D03*
X0034100Y0048900D03*
X0034100Y0048700D03*
X0034100Y0048500D03*
X0038700Y0047700D03*
X0038900Y0047900D03*
X0039100Y0048300D03*
X0039300Y0049300D03*
X0039300Y0049500D03*
X0039300Y0049700D03*
X0039300Y0049900D03*
X0039300Y0050100D03*
X0039300Y0050300D03*
X0039300Y0050500D03*
X0039300Y0050700D03*
X0039300Y0050900D03*
X0039300Y0051100D03*
X0039300Y0051300D03*
X0039300Y0051500D03*
X0039300Y0051700D03*
X0039300Y0051900D03*
X0039300Y0052100D03*
X0039300Y0052300D03*
X0039300Y0052500D03*
X0039300Y0052700D03*
X0039300Y0052900D03*
X0039300Y0053100D03*
X0039300Y0053300D03*
X0039300Y0053500D03*
X0039300Y0053700D03*
X0039300Y0053900D03*
X0039300Y0054100D03*
X0039300Y0054300D03*
X0041300Y0054100D03*
X0041300Y0053900D03*
X0041300Y0053700D03*
X0041300Y0053500D03*
X0041300Y0053300D03*
X0041300Y0053100D03*
X0041300Y0052900D03*
X0041300Y0052700D03*
X0041300Y0052500D03*
X0041300Y0052300D03*
X0041300Y0052100D03*
X0041300Y0051900D03*
X0041300Y0051700D03*
X0041300Y0051500D03*
X0041300Y0051300D03*
X0041300Y0051100D03*
X0041300Y0050900D03*
X0041300Y0050700D03*
X0041300Y0050500D03*
X0041300Y0050300D03*
X0041300Y0050100D03*
X0041300Y0049900D03*
X0041300Y0049700D03*
X0041300Y0049500D03*
X0041300Y0049300D03*
X0041300Y0049100D03*
X0041300Y0048900D03*
X0041300Y0048700D03*
X0041300Y0048500D03*
X0041300Y0048300D03*
X0041300Y0048100D03*
X0041300Y0047900D03*
X0041300Y0047700D03*
X0041300Y0047500D03*
X0041300Y0047300D03*
X0041300Y0047100D03*
X0044700Y0054100D03*
X0041500Y0056900D03*
X0041500Y0057500D03*
X0048900Y0053100D03*
X0048900Y0052900D03*
X0050700Y0052500D03*
X0050700Y0052300D03*
X0050700Y0052100D03*
X0050700Y0051900D03*
X0050700Y0050900D03*
X0050700Y0050700D03*
X0050700Y0050500D03*
X0050700Y0050300D03*
X0050700Y0050100D03*
X0050700Y0049900D03*
X0050700Y0049700D03*
X0050700Y0049500D03*
X0050700Y0049300D03*
X0050700Y0049100D03*
X0050700Y0048900D03*
X0050700Y0047300D03*
X0050700Y0047100D03*
X0055700Y0048100D03*
X0055900Y0048500D03*
X0055900Y0049900D03*
X0055700Y0050300D03*
X0055500Y0050500D03*
X0057700Y0050500D03*
X0057700Y0050700D03*
X0057700Y0050900D03*
X0057700Y0051100D03*
X0057700Y0051300D03*
X0057700Y0051500D03*
X0057700Y0051700D03*
X0057700Y0051900D03*
X0057700Y0052100D03*
X0057700Y0052300D03*
X0057700Y0052500D03*
X0057700Y0052700D03*
X0057700Y0052900D03*
X0057700Y0053100D03*
X0057700Y0053300D03*
X0057700Y0053500D03*
X0057700Y0053700D03*
X0057700Y0053900D03*
X0057700Y0054100D03*
X0057700Y0054300D03*
X0057700Y0054500D03*
X0057700Y0050300D03*
X0057700Y0050100D03*
X0057700Y0049900D03*
X0057700Y0049700D03*
X0057700Y0049500D03*
X0057700Y0049300D03*
X0057700Y0049100D03*
X0057700Y0048900D03*
X0057700Y0048700D03*
X0057700Y0047100D03*
X0062500Y0047900D03*
X0062700Y0048100D03*
X0062900Y0048500D03*
X0062900Y0048700D03*
X0064500Y0047300D03*
X0064700Y0047500D03*
X0064900Y0047900D03*
X0065100Y0048100D03*
X0065300Y0048500D03*
X0065500Y0048700D03*
X0065700Y0049100D03*
X0065900Y0049300D03*
X0066100Y0049500D03*
X0066100Y0049700D03*
X0066300Y0049900D03*
X0066500Y0050100D03*
X0066500Y0050300D03*
X0066700Y0050500D03*
X0066300Y0052500D03*
X0066100Y0052700D03*
X0065900Y0052900D03*
X0064500Y0054500D03*
X0064300Y0054700D03*
X0071300Y0053100D03*
X0071300Y0052900D03*
X0071500Y0053500D03*
X0071700Y0053700D03*
X0075900Y0053700D03*
X0076100Y0053500D03*
X0076300Y0053300D03*
X0076300Y0053100D03*
X0076500Y0052500D03*
X0076500Y0052300D03*
X0078300Y0053100D03*
X0078500Y0053500D03*
X0083100Y0050300D03*
X0083300Y0050100D03*
X0083300Y0048300D03*
X0083100Y0047900D03*
X0082900Y0047700D03*
X0078300Y0048700D03*
X0078300Y0048900D03*
X0076500Y0048900D03*
X0076500Y0048700D03*
X0076300Y0048300D03*
X0076300Y0048100D03*
X0076100Y0047900D03*
X0071700Y0047900D03*
X0071500Y0048100D03*
X0071300Y0048500D03*
X0071300Y0048700D03*
X0069500Y0048700D03*
X0069500Y0048900D03*
X0064300Y0047100D03*
X0064300Y0046900D03*
X0051100Y0053500D03*
X0050900Y0053300D03*
X0048900Y0096300D03*
X0048900Y0096500D03*
X0047500Y0100700D03*
X0056900Y0097900D03*
X0056900Y0097700D03*
X0064900Y0096500D03*
X0064900Y0096300D03*
D20*
X0065000Y0095100D03*
X0067400Y0101100D03*
X0072800Y0102100D03*
X0073000Y0101700D03*
X0073400Y0094700D03*
X0073400Y0094500D03*
X0062600Y0101300D03*
X0062600Y0101500D03*
X0062400Y0101100D03*
X0056800Y0093700D03*
X0048800Y0095100D03*
X0046400Y0101100D03*
X0046400Y0101300D03*
X0046600Y0101500D03*
X0051400Y0101100D03*
X0040800Y0101900D03*
X0040600Y0101500D03*
X0040200Y0094900D03*
X0040200Y0094700D03*
X0049200Y0068700D03*
X0064400Y0068700D03*
X0073800Y0046900D03*
D21*
X0081000Y0047100D03*
X0073800Y0054500D03*
X0064400Y0068900D03*
X0056800Y0068900D03*
X0049200Y0068900D03*
X0036800Y0047100D03*
X0048800Y0092700D03*
X0040400Y0094100D03*
X0041000Y0102300D03*
X0041200Y0102700D03*
X0048800Y0102900D03*
X0064800Y0102900D03*
X0072400Y0102700D03*
X0072600Y0102500D03*
X0073200Y0093900D03*
X0073200Y0093700D03*
X0064800Y0092700D03*
D22*
X0056900Y0093500D03*
X0051500Y0100900D03*
X0046300Y0100900D03*
X0040900Y0102100D03*
X0040700Y0101700D03*
X0040300Y0094500D03*
X0040300Y0094300D03*
X0062300Y0100900D03*
X0067500Y0100900D03*
X0072700Y0102300D03*
X0072900Y0101900D03*
X0073300Y0094300D03*
X0073300Y0094100D03*
X0081100Y0054700D03*
X0060500Y0047100D03*
X0053500Y0047100D03*
X0053700Y0054700D03*
X0046300Y0054500D03*
X0025700Y0054300D03*
D23*
X0053500Y0054500D03*
X0053500Y0047300D03*
X0073900Y0047100D03*
X0079900Y0051700D03*
X0080900Y0054500D03*
X0073100Y0093500D03*
X0064900Y0094900D03*
X0056900Y0093300D03*
X0048900Y0094900D03*
X0040500Y0093900D03*
X0040500Y0093700D03*
X0041100Y0102500D03*
X0041300Y0102900D03*
X0072300Y0102900D03*
D24*
X0072200Y0103100D03*
X0073000Y0093300D03*
X0064400Y0069100D03*
X0056800Y0069100D03*
X0049200Y0069100D03*
X0053400Y0054300D03*
X0052400Y0051700D03*
X0036800Y0047300D03*
X0030600Y0054500D03*
X0073800Y0054300D03*
X0080800Y0054300D03*
X0081000Y0047300D03*
X0040600Y0093500D03*
X0041400Y0103100D03*
X0041600Y0103300D03*
D25*
X0042300Y0104100D03*
X0041100Y0092300D03*
X0056700Y0069900D03*
X0052900Y0051100D03*
X0059900Y0047300D03*
X0072500Y0092300D03*
D26*
X0072900Y0093100D03*
X0072100Y0103300D03*
X0071900Y0103500D03*
X0056900Y0093100D03*
X0040700Y0093100D03*
X0040700Y0093300D03*
X0030500Y0054300D03*
X0073900Y0047300D03*
X0080100Y0051500D03*
D27*
X0078900Y0047500D03*
X0048300Y0054100D03*
X0034700Y0047500D03*
X0030100Y0054900D03*
X0027900Y0053900D03*
X0025700Y0054900D03*
X0045300Y0094900D03*
X0045100Y0095100D03*
X0045100Y0095300D03*
X0044900Y0095500D03*
X0044900Y0095700D03*
X0044500Y0098500D03*
X0044900Y0099700D03*
X0044900Y0099900D03*
X0044900Y0100100D03*
X0045100Y0100500D03*
X0045300Y0100700D03*
X0048900Y0095300D03*
X0052300Y0094900D03*
X0052900Y0095900D03*
X0053100Y0098500D03*
X0056900Y0095100D03*
X0060900Y0095700D03*
X0061100Y0095300D03*
X0061300Y0095100D03*
X0064900Y0095300D03*
X0068900Y0095900D03*
X0069300Y0098500D03*
X0068900Y0099700D03*
X0068900Y0099900D03*
X0061300Y0100700D03*
X0060900Y0099900D03*
D28*
X0064900Y0098500D03*
X0064900Y0095900D03*
X0056900Y0096300D03*
X0056900Y0096500D03*
X0056900Y0096700D03*
X0056900Y0096900D03*
X0048900Y0097300D03*
X0048900Y0098500D03*
X0048900Y0095900D03*
X0048700Y0053500D03*
X0050900Y0048300D03*
X0057900Y0048300D03*
X0057900Y0048100D03*
X0062100Y0047500D03*
X0067300Y0051100D03*
X0069300Y0049300D03*
X0072100Y0047500D03*
X0075700Y0047500D03*
X0078500Y0048100D03*
X0082700Y0047500D03*
X0082500Y0050900D03*
X0078900Y0053900D03*
X0075500Y0054100D03*
X0038500Y0047500D03*
X0034300Y0048100D03*
X0032100Y0053700D03*
X0028700Y0054100D03*
X0027900Y0053500D03*
X0027100Y0054100D03*
D29*
X0027800Y0053300D03*
X0024200Y0054100D03*
X0024000Y0053900D03*
X0023800Y0053700D03*
X0032200Y0053500D03*
X0032200Y0053300D03*
X0034200Y0048300D03*
X0041400Y0057100D03*
X0041400Y0057300D03*
X0046200Y0055100D03*
X0048800Y0053300D03*
X0051200Y0053700D03*
X0051400Y0053900D03*
X0055400Y0050700D03*
X0055600Y0047900D03*
X0055400Y0047700D03*
X0055200Y0047500D03*
X0057800Y0048500D03*
X0062400Y0047700D03*
X0064800Y0047700D03*
X0065200Y0048300D03*
X0065600Y0048900D03*
X0068000Y0050500D03*
X0068200Y0050300D03*
X0068400Y0050100D03*
X0069400Y0049100D03*
X0071800Y0047700D03*
X0076000Y0047700D03*
X0078400Y0048300D03*
X0078400Y0048500D03*
X0082800Y0050700D03*
X0083000Y0050500D03*
X0078600Y0053700D03*
X0075800Y0053900D03*
X0073600Y0055100D03*
X0072000Y0054100D03*
X0071800Y0053900D03*
X0067400Y0051300D03*
X0067200Y0051500D03*
X0067000Y0051700D03*
X0066800Y0051900D03*
X0066600Y0052100D03*
X0066400Y0052300D03*
X0065800Y0053100D03*
X0065600Y0053300D03*
X0065400Y0053500D03*
X0065200Y0053700D03*
X0065000Y0053900D03*
X0064800Y0054100D03*
X0064600Y0054300D03*
X0050800Y0048700D03*
X0050800Y0048500D03*
X0048800Y0096100D03*
X0048800Y0097100D03*
X0050200Y0100700D03*
X0056800Y0097500D03*
X0056800Y0097300D03*
X0056800Y0097100D03*
X0063600Y0100700D03*
X0066400Y0100700D03*
X0065000Y0097100D03*
X0065000Y0096100D03*
D30*
X0064900Y0095500D03*
X0064900Y0097500D03*
X0064900Y0097700D03*
X0064900Y0098100D03*
X0064900Y0098300D03*
X0068900Y0100100D03*
X0068900Y0100300D03*
X0068700Y0100500D03*
X0069500Y0098300D03*
X0069500Y0098100D03*
X0069500Y0097900D03*
X0069500Y0097700D03*
X0069500Y0097500D03*
X0069500Y0097300D03*
X0068900Y0095500D03*
X0060300Y0097300D03*
X0060300Y0097500D03*
X0060300Y0097700D03*
X0060300Y0097900D03*
X0060300Y0098100D03*
X0060300Y0098300D03*
X0056900Y0095700D03*
X0053500Y0097500D03*
X0053500Y0097700D03*
X0053500Y0097900D03*
X0053500Y0098100D03*
X0052900Y0100100D03*
X0048900Y0098300D03*
X0048900Y0098100D03*
X0048900Y0097900D03*
X0048900Y0097700D03*
X0048900Y0097500D03*
X0048900Y0095500D03*
X0044300Y0097300D03*
X0044300Y0097500D03*
X0044300Y0097700D03*
X0044300Y0097900D03*
X0044300Y0098100D03*
X0044300Y0098300D03*
X0048500Y0053900D03*
X0051100Y0047900D03*
X0067300Y0050900D03*
X0069100Y0049700D03*
X0078700Y0047700D03*
X0034500Y0047700D03*
X0027900Y0053700D03*
D31*
X0031800Y0054100D03*
X0051200Y0047700D03*
X0058200Y0047700D03*
X0067400Y0050700D03*
X0069000Y0049900D03*
X0064400Y0068300D03*
X0056800Y0068300D03*
X0049200Y0068300D03*
X0052600Y0095100D03*
X0052800Y0095300D03*
X0052800Y0095500D03*
X0052800Y0095700D03*
X0056800Y0095500D03*
X0056800Y0095300D03*
X0061000Y0095500D03*
X0065000Y0097900D03*
X0068600Y0095100D03*
X0068800Y0095300D03*
X0069000Y0095700D03*
X0068600Y0100700D03*
X0061200Y0100500D03*
X0061000Y0100300D03*
X0061000Y0100100D03*
X0052800Y0100300D03*
X0052600Y0100500D03*
X0052400Y0100700D03*
X0052800Y0099900D03*
X0045000Y0100300D03*
D32*
X0048800Y0095700D03*
X0053400Y0097300D03*
X0053400Y0098300D03*
X0056800Y0096100D03*
X0056800Y0095900D03*
X0065000Y0095700D03*
X0065000Y0097300D03*
X0051800Y0054100D03*
X0048600Y0053700D03*
X0055000Y0050900D03*
X0058000Y0047900D03*
X0051000Y0048100D03*
X0034400Y0047900D03*
X0032000Y0053900D03*
X0069200Y0049500D03*
X0078600Y0047900D03*
X0079200Y0054100D03*
D33*
X0080400Y0051100D03*
X0064400Y0069700D03*
X0056800Y0069700D03*
X0049200Y0069700D03*
X0046800Y0054300D03*
X0052800Y0051300D03*
X0056800Y0092700D03*
X0041000Y0092500D03*
X0072600Y0092500D03*
X0071600Y0103900D03*
X0071400Y0104100D03*
D34*
X0072700Y0092700D03*
X0064900Y0092900D03*
X0048900Y0092900D03*
X0040900Y0092700D03*
X0041900Y0103700D03*
X0042100Y0103900D03*
X0049100Y0069500D03*
X0056700Y0069500D03*
X0064500Y0069500D03*
X0080300Y0051300D03*
D35*
X0064400Y0069300D03*
X0056800Y0069300D03*
X0049200Y0069300D03*
X0052600Y0051500D03*
X0056800Y0092900D03*
X0048800Y0102700D03*
X0041800Y0103500D03*
X0040800Y0092900D03*
X0064800Y0102700D03*
X0071800Y0103700D03*
X0072800Y0092900D03*
X0056800Y0115900D03*
D36*
X0056800Y0092300D03*
X0041400Y0091900D03*
X0049200Y0079100D03*
X0049200Y0078900D03*
X0049200Y0078700D03*
X0049200Y0078500D03*
X0049200Y0078300D03*
X0049200Y0078100D03*
X0049200Y0077900D03*
X0049200Y0077700D03*
X0049200Y0077500D03*
X0049200Y0077300D03*
X0049200Y0077100D03*
X0049200Y0076900D03*
X0049200Y0076700D03*
X0049200Y0076500D03*
X0049200Y0076300D03*
X0049200Y0076100D03*
X0049200Y0075900D03*
X0049200Y0075700D03*
X0049200Y0075500D03*
X0049200Y0075300D03*
X0049200Y0075100D03*
X0049200Y0074900D03*
X0049200Y0074700D03*
X0049200Y0074500D03*
X0049200Y0074300D03*
X0049200Y0074100D03*
X0049200Y0073900D03*
X0049200Y0073700D03*
X0049200Y0073500D03*
X0049200Y0073300D03*
X0049200Y0073100D03*
X0049200Y0072900D03*
X0049200Y0072700D03*
X0049200Y0072500D03*
X0049200Y0072300D03*
X0049200Y0072100D03*
X0049200Y0071900D03*
X0049200Y0071700D03*
X0049200Y0071500D03*
X0049200Y0071300D03*
X0049200Y0071100D03*
X0049200Y0070900D03*
X0049200Y0070700D03*
X0056800Y0071300D03*
X0056800Y0071500D03*
X0056800Y0071700D03*
X0056800Y0071900D03*
X0056800Y0072100D03*
X0056800Y0072300D03*
X0056800Y0072500D03*
X0056800Y0072700D03*
X0056800Y0072900D03*
X0056800Y0073100D03*
X0056800Y0073300D03*
X0056800Y0073500D03*
X0056800Y0073700D03*
X0056800Y0073900D03*
X0056800Y0074100D03*
X0056800Y0074300D03*
X0056800Y0074500D03*
X0056800Y0074700D03*
X0056800Y0074900D03*
X0056800Y0075100D03*
X0056800Y0075300D03*
X0056800Y0075500D03*
X0056800Y0075700D03*
X0056800Y0075900D03*
X0056800Y0076100D03*
X0056800Y0076300D03*
X0056800Y0076500D03*
X0056800Y0076700D03*
X0056800Y0076900D03*
X0056800Y0077100D03*
X0056800Y0077300D03*
X0056800Y0077500D03*
X0056800Y0077700D03*
X0056800Y0077900D03*
X0056800Y0078100D03*
X0056800Y0078300D03*
X0064400Y0078300D03*
X0064400Y0078100D03*
X0064400Y0077900D03*
X0064400Y0077700D03*
X0064400Y0077500D03*
X0064400Y0077300D03*
X0064400Y0077100D03*
X0064400Y0076900D03*
X0064400Y0076700D03*
X0064400Y0076500D03*
X0064400Y0076300D03*
X0064400Y0076100D03*
X0064400Y0075900D03*
X0064400Y0075700D03*
X0064400Y0075500D03*
X0064400Y0075300D03*
X0064400Y0075100D03*
X0064400Y0074900D03*
X0064400Y0074700D03*
X0064400Y0074500D03*
X0064400Y0074300D03*
X0064400Y0074100D03*
X0064400Y0073900D03*
X0064400Y0073700D03*
X0064400Y0073500D03*
X0064400Y0073300D03*
X0064400Y0073100D03*
X0064400Y0072900D03*
X0064400Y0072700D03*
X0064400Y0072500D03*
X0064400Y0072300D03*
X0064400Y0072100D03*
X0064400Y0071900D03*
X0064400Y0071700D03*
X0064400Y0071500D03*
X0064400Y0071300D03*
X0064400Y0071100D03*
X0072200Y0091700D03*
X0087800Y0052500D03*
X0087800Y0052300D03*
X0087800Y0052100D03*
X0087800Y0051900D03*
D37*
X0053900Y0054900D03*
X0030100Y0054700D03*
X0064900Y0092500D03*
X0060900Y0096700D03*
X0056900Y0094300D03*
X0056900Y0094100D03*
X0073700Y0095500D03*
X0073500Y0100300D03*
X0040100Y0100100D03*
D38*
X0038500Y0096300D03*
X0056900Y0098300D03*
X0075100Y0099300D03*
X0075100Y0096100D03*
X0064300Y0055100D03*
D39*
X0031500Y0068100D03*
D40*
X0082200Y0068100D03*
X0056800Y0114900D03*
D41*
X0031700Y0068300D03*
D42*
X0081900Y0068300D03*
D43*
X0031800Y0068500D03*
D44*
X0081900Y0068500D03*
D45*
X0031900Y0068700D03*
D46*
X0081700Y0068700D03*
D47*
X0032000Y0068900D03*
X0056800Y0114100D03*
D48*
X0081600Y0068900D03*
D49*
X0032100Y0069100D03*
D50*
X0081600Y0069100D03*
X0056800Y0113900D03*
D51*
X0032200Y0069300D03*
D52*
X0032300Y0069500D03*
X0081500Y0069300D03*
D53*
X0081400Y0069500D03*
X0056800Y0113700D03*
D54*
X0032300Y0069700D03*
D55*
X0032500Y0069900D03*
X0078500Y0074100D03*
X0081300Y0069700D03*
X0056900Y0113500D03*
D56*
X0071200Y0104300D03*
X0064800Y0102500D03*
X0064800Y0093100D03*
X0072400Y0092100D03*
X0056800Y0092500D03*
X0048800Y0102500D03*
X0042400Y0104300D03*
X0041200Y0092100D03*
X0049200Y0070100D03*
X0049200Y0069900D03*
X0056800Y0070100D03*
X0064400Y0069900D03*
D57*
X0081200Y0069900D03*
D58*
X0032500Y0070100D03*
D59*
X0049300Y0070300D03*
X0049300Y0070500D03*
X0056700Y0070500D03*
X0056700Y0070700D03*
X0056700Y0070900D03*
X0056700Y0071100D03*
X0056700Y0070300D03*
X0064500Y0070300D03*
X0064500Y0070100D03*
X0064500Y0070500D03*
X0064500Y0070700D03*
X0064500Y0070900D03*
X0072300Y0091900D03*
X0070900Y0104500D03*
X0048900Y0093100D03*
X0042700Y0104500D03*
D60*
X0056800Y0113300D03*
X0032600Y0070300D03*
X0081200Y0070100D03*
D61*
X0081100Y0070300D03*
X0032700Y0070500D03*
D62*
X0032800Y0070700D03*
X0081000Y0070500D03*
D63*
X0080900Y0070700D03*
X0079300Y0073900D03*
X0034500Y0073900D03*
X0032900Y0070900D03*
D64*
X0033100Y0071500D03*
X0034100Y0073500D03*
X0079500Y0073700D03*
X0080900Y0071100D03*
X0080900Y0070900D03*
D65*
X0034200Y0073700D03*
X0033000Y0071300D03*
X0032800Y0071100D03*
X0056800Y0113100D03*
D66*
X0079600Y0073500D03*
X0079800Y0073300D03*
X0080600Y0071500D03*
X0080800Y0071300D03*
X0034000Y0073300D03*
X0033800Y0073100D03*
X0033600Y0072700D03*
X0033400Y0072300D03*
X0033200Y0071900D03*
X0033200Y0071700D03*
D67*
X0033300Y0072100D03*
X0033500Y0072500D03*
X0033700Y0072900D03*
X0079900Y0073100D03*
X0080100Y0072700D03*
X0080300Y0072300D03*
X0080500Y0071900D03*
X0080500Y0071700D03*
X0056900Y0112900D03*
D68*
X0080000Y0072900D03*
X0080200Y0072500D03*
X0080400Y0072100D03*
D69*
X0035200Y0074100D03*
D70*
X0040800Y0074300D03*
X0049200Y0079700D03*
X0056800Y0079700D03*
X0064400Y0079700D03*
X0072800Y0074300D03*
X0064800Y0093700D03*
X0064800Y0101900D03*
X0048800Y0101900D03*
X0043600Y0105100D03*
X0048800Y0093700D03*
X0042000Y0091100D03*
X0056800Y0115700D03*
D71*
X0056900Y0091900D03*
X0071700Y0091100D03*
X0040900Y0074500D03*
D72*
X0041800Y0079700D03*
X0041800Y0091300D03*
X0048800Y0093500D03*
X0048800Y0102100D03*
X0064800Y0093500D03*
X0070400Y0104900D03*
X0071800Y0079700D03*
X0072600Y0074500D03*
D73*
X0072500Y0074700D03*
X0072300Y0075100D03*
X0064500Y0079500D03*
X0056900Y0079500D03*
X0041300Y0075100D03*
X0041100Y0074700D03*
X0071900Y0091300D03*
X0064900Y0102100D03*
X0043300Y0104900D03*
D74*
X0043000Y0104700D03*
X0041600Y0091500D03*
X0041600Y0079500D03*
X0041600Y0079300D03*
X0041400Y0075300D03*
X0041200Y0074900D03*
X0049200Y0079300D03*
X0049200Y0079500D03*
X0056800Y0079300D03*
X0056800Y0079100D03*
X0056800Y0078900D03*
X0056800Y0078700D03*
X0064400Y0079300D03*
X0072000Y0079300D03*
X0072000Y0079500D03*
X0072200Y0076500D03*
X0072200Y0076300D03*
X0072200Y0076100D03*
X0072200Y0075900D03*
X0072200Y0075700D03*
X0072200Y0075500D03*
X0072200Y0075300D03*
X0072400Y0074900D03*
X0072000Y0091500D03*
X0056800Y0092100D03*
D75*
X0048900Y0093300D03*
X0041500Y0091700D03*
X0048900Y0102300D03*
X0064900Y0102300D03*
X0070700Y0104700D03*
X0064900Y0093300D03*
X0064300Y0079100D03*
X0064300Y0078900D03*
X0064300Y0078700D03*
X0064300Y0078500D03*
X0056700Y0078500D03*
X0041500Y0078500D03*
X0041500Y0078700D03*
X0041500Y0078900D03*
X0041500Y0079100D03*
X0041500Y0078300D03*
X0041500Y0078100D03*
X0041500Y0077900D03*
X0041500Y0077700D03*
X0041500Y0077500D03*
X0041500Y0077300D03*
X0041500Y0077100D03*
X0041500Y0076900D03*
X0041500Y0076700D03*
X0041500Y0076500D03*
X0041500Y0076300D03*
X0041500Y0076100D03*
X0041500Y0075900D03*
X0041500Y0075700D03*
X0041500Y0075500D03*
X0072100Y0076700D03*
X0072100Y0076900D03*
X0072100Y0077100D03*
X0072100Y0077300D03*
X0072100Y0077500D03*
X0072100Y0077700D03*
X0072100Y0077900D03*
X0072100Y0078100D03*
X0072100Y0078300D03*
X0072100Y0078500D03*
X0072100Y0078700D03*
X0072100Y0078900D03*
X0072100Y0079100D03*
D76*
X0056800Y0079900D03*
X0056800Y0080100D03*
X0056800Y0080300D03*
X0056800Y0080500D03*
X0056800Y0080700D03*
X0056800Y0080900D03*
X0056800Y0081100D03*
X0056800Y0081300D03*
X0056800Y0081500D03*
X0056800Y0081700D03*
X0056800Y0081900D03*
X0056800Y0082100D03*
X0056800Y0082300D03*
X0056800Y0082500D03*
X0056800Y0082700D03*
X0056800Y0082900D03*
X0056800Y0083100D03*
X0056800Y0083300D03*
X0056800Y0083500D03*
X0056800Y0083700D03*
X0056800Y0083900D03*
X0056800Y0084100D03*
X0056800Y0084300D03*
X0056800Y0084500D03*
X0056800Y0084700D03*
X0056800Y0084900D03*
X0056800Y0085100D03*
X0056800Y0085300D03*
X0056800Y0085500D03*
X0056800Y0085700D03*
X0056800Y0085900D03*
X0056800Y0086100D03*
X0056800Y0086300D03*
X0056800Y0086500D03*
X0056800Y0086700D03*
X0056800Y0086900D03*
X0056800Y0087100D03*
X0056800Y0087300D03*
X0056800Y0087500D03*
X0056800Y0087700D03*
X0056800Y0087900D03*
X0056800Y0088100D03*
X0056800Y0088300D03*
X0056800Y0088500D03*
X0056800Y0088700D03*
X0056800Y0088900D03*
X0056800Y0089100D03*
X0056800Y0089300D03*
X0056800Y0089500D03*
X0056800Y0089700D03*
X0056800Y0089900D03*
X0056800Y0090100D03*
X0056800Y0090300D03*
D77*
X0048900Y0094700D03*
X0042900Y0090500D03*
X0064900Y0094700D03*
D78*
X0056800Y0090500D03*
D79*
X0056800Y0091300D03*
X0048800Y0094500D03*
X0070800Y0090500D03*
X0056800Y0115500D03*
D80*
X0064900Y0094100D03*
X0056900Y0091500D03*
X0042500Y0090700D03*
D81*
X0056800Y0090700D03*
X0056800Y0115100D03*
D82*
X0048800Y0094100D03*
X0071200Y0090700D03*
D83*
X0064800Y0101700D03*
X0069800Y0105100D03*
X0048800Y0101700D03*
X0042200Y0090900D03*
D84*
X0056800Y0090900D03*
X0056800Y0115300D03*
D85*
X0056900Y0091700D03*
X0071500Y0090900D03*
D86*
X0056800Y0091100D03*
D87*
X0048900Y0093900D03*
X0064900Y0093900D03*
D88*
X0064800Y0094300D03*
X0048800Y0094300D03*
D89*
X0064900Y0094500D03*
D90*
X0056800Y0105300D03*
D91*
X0056800Y0105500D03*
X0056800Y0105700D03*
D92*
X0056800Y0105900D03*
X0056800Y0106100D03*
D93*
X0056800Y0106300D03*
X0056800Y0106500D03*
D94*
X0056800Y0106700D03*
D95*
X0056800Y0106900D03*
X0056800Y0107100D03*
D96*
X0056800Y0107300D03*
X0056800Y0107500D03*
D97*
X0056800Y0107700D03*
D98*
X0056800Y0107900D03*
X0056800Y0108100D03*
D99*
X0056800Y0108300D03*
D100*
X0056800Y0108500D03*
D101*
X0056900Y0108700D03*
D102*
X0056800Y0108900D03*
D103*
X0056800Y0109100D03*
D104*
X0056800Y0109300D03*
D105*
X0056800Y0109500D03*
D106*
X0056900Y0109700D03*
D107*
X0056800Y0109900D03*
D108*
X0056800Y0110100D03*
D109*
X0056800Y0110300D03*
D110*
X0056800Y0110500D03*
D111*
X0056800Y0110700D03*
D112*
X0056800Y0110900D03*
D113*
X0056800Y0111100D03*
D114*
X0056800Y0111300D03*
D115*
X0056900Y0111500D03*
D116*
X0056800Y0111700D03*
D117*
X0056800Y0111900D03*
D118*
X0056800Y0112100D03*
D119*
X0056800Y0112300D03*
D120*
X0056800Y0112500D03*
D121*
X0056800Y0112700D03*
D122*
X0056800Y0114300D03*
D123*
X0056800Y0114500D03*
D124*
X0056900Y0114700D03*
D125*
X0032937Y0041035D02*
X0030635Y0039500D01*
X0032937Y0039500D02*
X0032937Y0044104D01*
X0030635Y0042569D02*
X0032937Y0041035D01*
X0034471Y0039500D02*
X0037541Y0039500D01*
X0036006Y0039500D02*
X0036006Y0044104D01*
X0037541Y0042569D01*
X0064700Y0029698D02*
X0064700Y0028163D01*
X0065467Y0027396D01*
X0067002Y0027396D02*
X0067769Y0028931D01*
X0067769Y0029698D01*
X0067002Y0030465D01*
X0065467Y0030465D01*
X0064700Y0029698D01*
X0067002Y0027396D02*
X0069304Y0027396D01*
X0069304Y0030465D01*
X0069304Y0025861D02*
X0068537Y0025861D01*
X0065467Y0022792D01*
X0064700Y0022792D01*
X0067002Y0021257D02*
X0066235Y0020490D01*
X0066235Y0018188D01*
X0066235Y0016654D02*
X0065467Y0016654D01*
X0064700Y0015886D01*
X0064700Y0014352D01*
X0065467Y0013584D01*
X0065467Y0012050D02*
X0064700Y0011282D01*
X0064700Y0008980D01*
X0069304Y0008980D01*
X0069304Y0011282D01*
X0068537Y0012050D01*
X0067769Y0012050D01*
X0067002Y0011282D01*
X0067002Y0008980D01*
X0067002Y0011282D02*
X0066235Y0012050D01*
X0065467Y0012050D01*
X0067002Y0014352D02*
X0067002Y0015886D01*
X0066235Y0016654D01*
X0064700Y0018188D02*
X0069304Y0018188D01*
X0069304Y0020490D01*
X0068537Y0021257D01*
X0067002Y0021257D01*
X0069304Y0022792D02*
X0069304Y0025861D01*
X0068537Y0016654D02*
X0069304Y0015886D01*
X0069304Y0014352D01*
X0068537Y0013584D01*
X0067769Y0013584D01*
X0067002Y0014352D01*
X0101823Y0064500D02*
X0104125Y0066802D01*
X0104892Y0066035D02*
X0101823Y0069104D01*
X0104892Y0069104D02*
X0104892Y0064500D01*
X0106427Y0065267D02*
X0107194Y0064500D01*
X0108729Y0064500D01*
X0109496Y0065267D01*
X0106427Y0068337D01*
X0106427Y0065267D01*
X0109496Y0065267D02*
X0109496Y0068337D01*
X0108729Y0069104D01*
X0107194Y0069104D01*
X0106427Y0068337D01*
X0111031Y0064500D02*
X0114100Y0064500D01*
X0112565Y0064500D02*
X0112565Y0069104D01*
X0114100Y0067569D01*
X0114100Y0079500D02*
X0111031Y0079500D01*
X0112565Y0079500D02*
X0112565Y0084104D01*
X0114100Y0082569D01*
X0109496Y0083337D02*
X0109496Y0080267D01*
X0106427Y0083337D01*
X0106427Y0080267D01*
X0107194Y0079500D01*
X0108729Y0079500D01*
X0109496Y0080267D01*
X0109496Y0083337D02*
X0108729Y0084104D01*
X0107194Y0084104D01*
X0106427Y0083337D01*
X0104892Y0084104D02*
X0104892Y0079500D01*
X0104892Y0081035D02*
X0101823Y0084104D01*
X0104125Y0081802D02*
X0101823Y0079500D01*
X0148250Y0147000D02*
X0148250Y0150069D01*
X0148250Y0148535D02*
X0152854Y0148535D01*
X0151319Y0147000D01*
X0152087Y0151604D02*
X0149017Y0151604D01*
X0152087Y0154673D01*
X0149017Y0154673D01*
X0148250Y0153906D01*
X0148250Y0152371D01*
X0149017Y0151604D01*
X0152087Y0151604D02*
X0152854Y0152371D01*
X0152854Y0153906D01*
X0152087Y0154673D01*
X0152087Y0156208D02*
X0149017Y0156208D01*
X0152087Y0159277D01*
X0149017Y0159277D01*
X0148250Y0158510D01*
X0148250Y0156975D01*
X0149017Y0156208D01*
X0152087Y0156208D02*
X0152854Y0156975D01*
X0152854Y0158510D01*
X0152087Y0159277D01*
X0151319Y0160812D02*
X0151319Y0163114D01*
X0150552Y0163881D01*
X0148250Y0163881D01*
X0148250Y0165416D02*
X0152854Y0165416D01*
X0152854Y0168485D01*
X0150552Y0166950D02*
X0150552Y0165416D01*
X0151319Y0160812D02*
X0148250Y0160812D01*
X0105019Y0196031D02*
X0105019Y0197566D01*
X0104251Y0198333D01*
X0103484Y0198333D01*
X0102717Y0197566D01*
X0102717Y0196031D01*
X0103484Y0195264D01*
X0104251Y0195264D01*
X0105019Y0196031D01*
X0102717Y0196031D02*
X0101949Y0195264D01*
X0101182Y0195264D01*
X0100415Y0196031D01*
X0100415Y0197566D01*
X0101182Y0198333D01*
X0101949Y0198333D01*
X0102717Y0197566D01*
X0100415Y0199868D02*
X0105019Y0199868D01*
X0103484Y0201402D01*
X0105019Y0202937D01*
X0100415Y0202937D01*
X0100415Y0204472D02*
X0105019Y0204472D01*
X0102717Y0204472D02*
X0102717Y0207541D01*
X0103484Y0209075D02*
X0103484Y0212145D01*
X0100415Y0209075D01*
X0100415Y0212145D01*
X0100415Y0207541D02*
X0105019Y0207541D01*
X0081859Y0205335D02*
X0077255Y0205335D01*
X0077255Y0202266D02*
X0081859Y0202266D01*
X0080325Y0203801D01*
X0081859Y0205335D01*
X0077255Y0200731D02*
X0077255Y0197662D01*
X0077255Y0199197D02*
X0081859Y0199197D01*
X0080325Y0197662D01*
X0069827Y0198674D02*
X0069827Y0201743D01*
X0067525Y0200209D02*
X0067525Y0198674D01*
X0067525Y0197139D02*
X0065991Y0197139D01*
X0065223Y0196372D01*
X0065223Y0194070D01*
X0063689Y0194070D02*
X0068293Y0194070D01*
X0068293Y0196372D01*
X0067525Y0197139D01*
X0065223Y0198674D02*
X0069827Y0198674D01*
X0069060Y0192535D02*
X0068293Y0192535D01*
X0067525Y0191768D01*
X0067525Y0190233D01*
X0068293Y0189466D01*
X0069060Y0189466D01*
X0069827Y0190233D01*
X0069827Y0191768D01*
X0069060Y0192535D01*
X0067525Y0191768D02*
X0066758Y0192535D01*
X0065991Y0192535D01*
X0065223Y0191768D01*
X0065223Y0190233D01*
X0065991Y0189466D01*
X0066758Y0189466D01*
X0067525Y0190233D01*
X0065223Y0187932D02*
X0065223Y0184862D01*
X0065223Y0186397D02*
X0069827Y0186397D01*
X0068293Y0184862D01*
X0087000Y0184860D02*
X0087000Y0183325D01*
X0087767Y0182558D01*
X0090837Y0185627D01*
X0087767Y0185627D01*
X0087000Y0184860D01*
X0087000Y0187162D02*
X0091604Y0187162D01*
X0090837Y0185627D02*
X0091604Y0184860D01*
X0091604Y0183325D01*
X0090837Y0182558D01*
X0087767Y0182558D01*
X0087767Y0181023D02*
X0087000Y0180256D01*
X0087000Y0178721D01*
X0087767Y0177954D01*
X0090837Y0181023D01*
X0087767Y0181023D01*
X0087767Y0177954D02*
X0090837Y0177954D01*
X0091604Y0178721D01*
X0091604Y0180256D01*
X0090837Y0181023D01*
X0087000Y0176419D02*
X0087000Y0173350D01*
X0087000Y0174885D02*
X0091604Y0174885D01*
X0090069Y0173350D01*
X0088535Y0187162D02*
X0090069Y0189464D01*
X0088535Y0187162D02*
X0087000Y0189464D01*
X0067702Y0208188D02*
X0069236Y0209722D01*
X0064632Y0209722D01*
X0064632Y0208188D02*
X0064632Y0211257D01*
X0065400Y0212792D02*
X0066167Y0212792D01*
X0066934Y0213559D01*
X0066934Y0215094D01*
X0066167Y0215861D01*
X0065400Y0215861D01*
X0064632Y0215094D01*
X0064632Y0213559D01*
X0065400Y0212792D01*
X0066934Y0213559D02*
X0067702Y0212792D01*
X0068469Y0212792D01*
X0069236Y0213559D01*
X0069236Y0215094D01*
X0068469Y0215861D01*
X0067702Y0215861D01*
X0066934Y0215094D01*
X0067702Y0217396D02*
X0063098Y0217396D01*
X0064632Y0217396D02*
X0064632Y0219698D01*
X0065400Y0220465D01*
X0066934Y0220465D01*
X0067702Y0219698D01*
X0067702Y0217396D01*
X0066934Y0222000D02*
X0066934Y0223534D01*
X0064632Y0222000D02*
X0069236Y0222000D01*
X0069236Y0225069D01*
X0011604Y0197742D02*
X0011604Y0196208D01*
X0011604Y0196975D02*
X0007000Y0196975D01*
X0007000Y0196208D02*
X0007000Y0197742D01*
X0009302Y0194673D02*
X0008535Y0193906D01*
X0008535Y0191604D01*
X0008535Y0190069D02*
X0007767Y0190069D01*
X0007000Y0189302D01*
X0007000Y0187767D01*
X0007767Y0187000D01*
X0009302Y0187767D02*
X0009302Y0189302D01*
X0008535Y0190069D01*
X0007000Y0191604D02*
X0011604Y0191604D01*
X0011604Y0193906D01*
X0010837Y0194673D01*
X0009302Y0194673D01*
X0010837Y0190069D02*
X0011604Y0189302D01*
X0011604Y0187767D01*
X0010837Y0187000D01*
X0010069Y0187000D01*
X0009302Y0187767D01*
X0167590Y0219500D02*
X0169892Y0221035D01*
X0167590Y0222569D01*
X0169892Y0224104D02*
X0169892Y0219500D01*
X0171427Y0220267D02*
X0172194Y0219500D01*
X0173729Y0219500D01*
X0174496Y0220267D01*
X0171427Y0223337D01*
X0171427Y0220267D01*
X0174496Y0220267D02*
X0174496Y0223337D01*
X0173729Y0224104D01*
X0172194Y0224104D01*
X0171427Y0223337D01*
X0177565Y0224104D02*
X0177565Y0219500D01*
X0176031Y0219500D02*
X0179100Y0219500D01*
X0179100Y0222569D02*
X0177565Y0224104D01*
X0192000Y0227038D02*
X0192000Y0230107D01*
X0192000Y0228573D02*
X0196604Y0228573D01*
X0195069Y0227038D01*
X0195837Y0231642D02*
X0192767Y0231642D01*
X0195837Y0234711D01*
X0192767Y0234711D01*
X0192000Y0233944D01*
X0192000Y0232409D01*
X0192767Y0231642D01*
X0195837Y0231642D02*
X0196604Y0232409D01*
X0196604Y0233944D01*
X0195837Y0234711D01*
X0196604Y0236246D02*
X0192000Y0236246D01*
X0193535Y0236246D02*
X0196604Y0239315D01*
X0194302Y0237013D02*
X0192000Y0239315D01*
X0207000Y0239277D02*
X0209302Y0236975D01*
X0208535Y0236208D02*
X0211604Y0239277D01*
X0211604Y0236208D02*
X0207000Y0236208D01*
X0207767Y0234673D02*
X0207000Y0233906D01*
X0207000Y0232371D01*
X0207767Y0231604D01*
X0210837Y0234673D01*
X0207767Y0234673D01*
X0207767Y0231604D02*
X0210837Y0231604D01*
X0211604Y0232371D01*
X0211604Y0233906D01*
X0210837Y0234673D01*
X0207000Y0230069D02*
X0207000Y0227000D01*
X0207000Y0228535D02*
X0211604Y0228535D01*
X0210069Y0227000D01*
X0216622Y0251820D02*
X0219691Y0254889D01*
X0220459Y0254889D01*
X0221226Y0254122D01*
X0221226Y0252588D01*
X0220459Y0251820D01*
X0216622Y0251820D02*
X0216622Y0254889D01*
X0216622Y0256424D02*
X0219691Y0259493D01*
X0220459Y0259493D01*
X0221226Y0258726D01*
X0221226Y0257191D01*
X0220459Y0256424D01*
X0216622Y0256424D02*
X0216622Y0259493D01*
X0217389Y0261028D02*
X0220459Y0264097D01*
X0217389Y0264097D01*
X0216622Y0263330D01*
X0216622Y0261795D01*
X0217389Y0261028D01*
X0220459Y0261028D01*
X0221226Y0261795D01*
X0221226Y0263330D01*
X0220459Y0264097D01*
X0260868Y0243402D02*
X0262669Y0242201D01*
X0260868Y0241000D01*
X0262669Y0241000D02*
X0262669Y0244603D01*
X0265151Y0244603D02*
X0265151Y0241000D01*
X0266352Y0241000D02*
X0263950Y0241000D01*
X0266352Y0243402D02*
X0265151Y0244603D01*
X0265151Y0232103D02*
X0265151Y0228500D01*
X0266352Y0228500D02*
X0263950Y0228500D01*
X0262669Y0228500D02*
X0262669Y0232103D01*
X0260868Y0230902D02*
X0262669Y0229701D01*
X0260868Y0228500D01*
X0265151Y0232103D02*
X0266352Y0230902D01*
X0298832Y0236500D02*
X0300633Y0238302D01*
X0301234Y0237701D02*
X0298832Y0240103D01*
X0301234Y0240103D02*
X0301234Y0236500D01*
X0302515Y0237101D02*
X0303115Y0236500D01*
X0304316Y0236500D01*
X0304917Y0237101D01*
X0302515Y0239503D01*
X0302515Y0237101D01*
X0302515Y0239503D02*
X0303115Y0240103D01*
X0304316Y0240103D01*
X0304917Y0239503D01*
X0304917Y0237101D01*
X0306198Y0236500D02*
X0308600Y0236500D01*
X0307399Y0236500D02*
X0307399Y0240103D01*
X0308600Y0238902D01*
X0323500Y0264881D02*
X0323500Y0267283D01*
X0323500Y0266082D02*
X0327103Y0266082D01*
X0325902Y0264881D01*
X0326503Y0268564D02*
X0324101Y0268564D01*
X0326503Y0270966D01*
X0324101Y0270966D01*
X0323500Y0270366D01*
X0323500Y0269165D01*
X0324101Y0268564D01*
X0326503Y0268564D02*
X0327103Y0269165D01*
X0327103Y0270366D01*
X0326503Y0270966D01*
X0326503Y0272248D02*
X0327103Y0272848D01*
X0327103Y0274049D01*
X0326503Y0274650D01*
X0324101Y0272248D01*
X0323500Y0272848D01*
X0323500Y0274049D01*
X0324101Y0274650D01*
X0326503Y0274650D01*
X0327103Y0275931D02*
X0323500Y0275931D01*
X0324701Y0275931D02*
X0325902Y0277732D01*
X0324701Y0275931D02*
X0323500Y0277732D01*
X0324101Y0272248D02*
X0326503Y0272248D01*
X0369757Y0188355D02*
X0369757Y0187742D01*
X0369756Y0187742D02*
X0369754Y0187686D01*
X0369748Y0187631D01*
X0369739Y0187576D01*
X0369726Y0187522D01*
X0369709Y0187468D01*
X0369688Y0187417D01*
X0369664Y0187366D01*
X0369637Y0187317D01*
X0369606Y0187271D01*
X0369573Y0187226D01*
X0369536Y0187184D01*
X0369497Y0187145D01*
X0369455Y0187108D01*
X0369410Y0187075D01*
X0369364Y0187044D01*
X0369315Y0187017D01*
X0369264Y0186993D01*
X0369213Y0186972D01*
X0369159Y0186955D01*
X0369105Y0186942D01*
X0369050Y0186933D01*
X0368995Y0186927D01*
X0368939Y0186925D01*
X0368939Y0186924D02*
X0378030Y0186924D01*
X0378954Y0183450D02*
X0378954Y0182632D01*
X0388356Y0181611D01*
X0388356Y0179567D01*
X0378954Y0178545D01*
X0378954Y0177727D01*
X0389786Y0178749D01*
X0389852Y0178756D01*
X0389917Y0178767D01*
X0389982Y0178781D01*
X0390045Y0178799D01*
X0390108Y0178821D01*
X0390169Y0178846D01*
X0390229Y0178874D01*
X0390287Y0178906D01*
X0390343Y0178942D01*
X0390397Y0178980D01*
X0390448Y0179021D01*
X0390497Y0179065D01*
X0390544Y0179112D01*
X0390588Y0179162D01*
X0390629Y0179214D01*
X0390667Y0179268D01*
X0390702Y0179324D01*
X0390733Y0179382D01*
X0390761Y0179442D01*
X0390786Y0179504D01*
X0390807Y0179566D01*
X0390807Y0181815D02*
X0390786Y0181877D01*
X0390761Y0181939D01*
X0390733Y0181999D01*
X0390702Y0182057D01*
X0390667Y0182113D01*
X0390629Y0182167D01*
X0390588Y0182219D01*
X0390544Y0182269D01*
X0390497Y0182316D01*
X0390448Y0182360D01*
X0390397Y0182401D01*
X0390343Y0182439D01*
X0390287Y0182475D01*
X0390229Y0182507D01*
X0390169Y0182535D01*
X0390108Y0182560D01*
X0390045Y0182582D01*
X0389982Y0182600D01*
X0389917Y0182614D01*
X0389852Y0182625D01*
X0389786Y0182632D01*
X0378954Y0183450D01*
X0390807Y0181815D02*
X0390841Y0181700D01*
X0390871Y0181583D01*
X0390897Y0181466D01*
X0390919Y0181348D01*
X0390938Y0181230D01*
X0390953Y0181110D01*
X0390964Y0180991D01*
X0390972Y0180871D01*
X0390976Y0180751D01*
X0390976Y0180631D01*
X0390972Y0180511D01*
X0390964Y0180391D01*
X0390953Y0180272D01*
X0390938Y0180152D01*
X0390919Y0180034D01*
X0390897Y0179916D01*
X0390871Y0179799D01*
X0390841Y0179682D01*
X0390807Y0179567D01*
X0389786Y0176705D02*
X0373844Y0175888D01*
X0373786Y0175883D01*
X0373730Y0175874D01*
X0373673Y0175861D01*
X0373618Y0175845D01*
X0373564Y0175825D01*
X0373512Y0175802D01*
X0373461Y0175775D01*
X0373412Y0175744D01*
X0373365Y0175711D01*
X0373321Y0175675D01*
X0373278Y0175635D01*
X0373239Y0175593D01*
X0373203Y0175549D01*
X0373169Y0175502D01*
X0373139Y0175453D01*
X0373112Y0175402D01*
X0373089Y0175349D01*
X0373069Y0175295D01*
X0373053Y0175240D01*
X0373040Y0175184D01*
X0373031Y0175127D01*
X0373026Y0175070D01*
X0373027Y0175070D02*
X0373027Y0168531D01*
X0373032Y0168474D01*
X0373041Y0168417D01*
X0373054Y0168361D01*
X0373070Y0168305D01*
X0373090Y0168251D01*
X0373113Y0168199D01*
X0373140Y0168148D01*
X0373170Y0168099D01*
X0373204Y0168052D01*
X0373240Y0168008D01*
X0373279Y0167966D01*
X0373321Y0167926D01*
X0373366Y0167890D01*
X0373413Y0167857D01*
X0373462Y0167826D01*
X0373513Y0167800D01*
X0373565Y0167776D01*
X0373619Y0167756D01*
X0373674Y0167740D01*
X0373730Y0167727D01*
X0373787Y0167718D01*
X0373844Y0167713D01*
X0389786Y0166896D01*
X0389842Y0166898D01*
X0389897Y0166904D01*
X0389952Y0166913D01*
X0390006Y0166926D01*
X0390060Y0166943D01*
X0390111Y0166964D01*
X0390162Y0166988D01*
X0390211Y0167015D01*
X0390257Y0167046D01*
X0390302Y0167079D01*
X0390344Y0167116D01*
X0390383Y0167155D01*
X0390420Y0167197D01*
X0390453Y0167242D01*
X0390484Y0167288D01*
X0390511Y0167337D01*
X0390535Y0167388D01*
X0390556Y0167439D01*
X0390573Y0167493D01*
X0390586Y0167547D01*
X0390595Y0167602D01*
X0390601Y0167657D01*
X0390603Y0167713D01*
X0390601Y0167769D01*
X0390595Y0167824D01*
X0390586Y0167879D01*
X0390573Y0167933D01*
X0390556Y0167987D01*
X0390535Y0168038D01*
X0390511Y0168089D01*
X0390484Y0168138D01*
X0390453Y0168184D01*
X0390420Y0168229D01*
X0390383Y0168271D01*
X0390344Y0168310D01*
X0390302Y0168347D01*
X0390257Y0168380D01*
X0390211Y0168411D01*
X0390162Y0168438D01*
X0390111Y0168462D01*
X0390060Y0168483D01*
X0390006Y0168500D01*
X0389952Y0168513D01*
X0389897Y0168522D01*
X0389842Y0168528D01*
X0389786Y0168530D01*
X0389786Y0168531D02*
X0376297Y0169348D01*
X0376297Y0174254D01*
X0376297Y0174253D02*
X0389786Y0175070D01*
X0389842Y0175072D01*
X0389897Y0175078D01*
X0389952Y0175087D01*
X0390006Y0175100D01*
X0390060Y0175117D01*
X0390111Y0175138D01*
X0390162Y0175162D01*
X0390211Y0175189D01*
X0390257Y0175220D01*
X0390302Y0175253D01*
X0390344Y0175290D01*
X0390383Y0175329D01*
X0390420Y0175371D01*
X0390453Y0175416D01*
X0390484Y0175462D01*
X0390511Y0175511D01*
X0390535Y0175562D01*
X0390556Y0175613D01*
X0390573Y0175667D01*
X0390586Y0175721D01*
X0390595Y0175776D01*
X0390601Y0175831D01*
X0390603Y0175887D01*
X0390604Y0175888D02*
X0390604Y0175887D01*
X0390603Y0175888D02*
X0390601Y0175944D01*
X0390595Y0175999D01*
X0390586Y0176054D01*
X0390573Y0176108D01*
X0390556Y0176162D01*
X0390535Y0176213D01*
X0390511Y0176264D01*
X0390484Y0176313D01*
X0390453Y0176359D01*
X0390420Y0176404D01*
X0390383Y0176446D01*
X0390344Y0176485D01*
X0390302Y0176522D01*
X0390257Y0176555D01*
X0390211Y0176586D01*
X0390162Y0176613D01*
X0390111Y0176637D01*
X0390060Y0176658D01*
X0390006Y0176675D01*
X0389952Y0176688D01*
X0389897Y0176697D01*
X0389842Y0176703D01*
X0389786Y0176705D01*
X0389181Y0186924D02*
X0395100Y0186924D01*
X0395100Y0156676D01*
X0395100Y0156676D01*
X0389180Y0156676D01*
X0389786Y0160969D02*
X0378954Y0160151D01*
X0378954Y0160969D01*
X0388356Y0161990D01*
X0388356Y0164034D01*
X0378954Y0165056D01*
X0378954Y0165874D01*
X0389786Y0164852D01*
X0389786Y0164851D02*
X0389852Y0164844D01*
X0389917Y0164833D01*
X0389982Y0164819D01*
X0390045Y0164801D01*
X0390108Y0164779D01*
X0390169Y0164754D01*
X0390229Y0164726D01*
X0390287Y0164694D01*
X0390343Y0164658D01*
X0390397Y0164620D01*
X0390448Y0164579D01*
X0390497Y0164535D01*
X0390544Y0164488D01*
X0390588Y0164438D01*
X0390629Y0164386D01*
X0390667Y0164332D01*
X0390702Y0164276D01*
X0390733Y0164218D01*
X0390761Y0164158D01*
X0390786Y0164096D01*
X0390807Y0164034D01*
X0390807Y0161786D02*
X0390786Y0161724D01*
X0390761Y0161662D01*
X0390733Y0161602D01*
X0390702Y0161544D01*
X0390667Y0161488D01*
X0390629Y0161434D01*
X0390588Y0161382D01*
X0390544Y0161332D01*
X0390497Y0161285D01*
X0390448Y0161241D01*
X0390397Y0161200D01*
X0390343Y0161162D01*
X0390287Y0161126D01*
X0390229Y0161094D01*
X0390169Y0161066D01*
X0390108Y0161041D01*
X0390045Y0161019D01*
X0389982Y0161001D01*
X0389917Y0160987D01*
X0389852Y0160976D01*
X0389786Y0160969D01*
X0390807Y0161786D02*
X0390841Y0161901D01*
X0390871Y0162018D01*
X0390897Y0162135D01*
X0390919Y0162253D01*
X0390938Y0162371D01*
X0390953Y0162491D01*
X0390964Y0162610D01*
X0390972Y0162730D01*
X0390976Y0162850D01*
X0390976Y0162970D01*
X0390972Y0163090D01*
X0390964Y0163210D01*
X0390953Y0163329D01*
X0390938Y0163449D01*
X0390919Y0163567D01*
X0390897Y0163685D01*
X0390871Y0163802D01*
X0390841Y0163919D01*
X0390807Y0164034D01*
X0378031Y0156676D02*
X0368939Y0156676D01*
X0368995Y0156674D01*
X0369050Y0156668D01*
X0369105Y0156659D01*
X0369159Y0156646D01*
X0369213Y0156629D01*
X0369264Y0156608D01*
X0369315Y0156584D01*
X0369364Y0156557D01*
X0369410Y0156526D01*
X0369455Y0156493D01*
X0369497Y0156456D01*
X0369536Y0156417D01*
X0369573Y0156375D01*
X0369606Y0156330D01*
X0369637Y0156284D01*
X0369664Y0156235D01*
X0369688Y0156184D01*
X0369709Y0156133D01*
X0369726Y0156079D01*
X0369739Y0156025D01*
X0369748Y0155970D01*
X0369754Y0155915D01*
X0369756Y0155859D01*
X0369757Y0155859D02*
X0369757Y0155246D01*
X0369150Y0149104D02*
X0369150Y0145267D01*
X0368382Y0144500D01*
X0366848Y0144500D01*
X0366080Y0145267D01*
X0366080Y0149104D01*
X0364546Y0148337D02*
X0364546Y0147569D01*
X0363778Y0146802D01*
X0362244Y0146802D01*
X0361476Y0146035D01*
X0361476Y0145267D01*
X0362244Y0144500D01*
X0363778Y0144500D01*
X0364546Y0145267D01*
X0364546Y0148337D02*
X0363778Y0149104D01*
X0362244Y0149104D01*
X0361476Y0148337D01*
X0359942Y0149104D02*
X0359942Y0144500D01*
X0357640Y0144500D01*
X0356873Y0145267D01*
X0356873Y0146035D01*
X0357640Y0146802D01*
X0359942Y0146802D01*
X0359942Y0149104D02*
X0357640Y0149104D01*
X0356873Y0148337D01*
X0356873Y0147569D01*
X0357640Y0146802D01*
X0370684Y0146802D02*
X0373754Y0146802D01*
X0375288Y0149104D02*
X0376823Y0149104D01*
X0376056Y0149104D02*
X0376056Y0144500D01*
X0376823Y0144500D02*
X0375288Y0144500D01*
X0378358Y0144500D02*
X0378358Y0149104D01*
X0381427Y0149104D02*
X0378358Y0144500D01*
X0381427Y0144500D02*
X0381427Y0149104D01*
X0382961Y0149104D02*
X0384496Y0149104D01*
X0383729Y0149104D02*
X0383729Y0144500D01*
X0384496Y0144500D02*
X0382961Y0144500D01*
X0386031Y0144500D02*
X0386031Y0149104D01*
X0387565Y0147569D01*
X0389100Y0149104D01*
X0389100Y0144500D01*
X0365669Y0163829D02*
X0358311Y0163829D01*
X0358107Y0163830D02*
X0358107Y0159946D01*
X0358311Y0159946D02*
X0359742Y0159946D01*
X0367713Y0164647D02*
X0367713Y0178954D01*
X0367715Y0179009D01*
X0367721Y0179065D01*
X0367730Y0179120D01*
X0367743Y0179174D01*
X0367760Y0179227D01*
X0367781Y0179279D01*
X0367805Y0179330D01*
X0367832Y0179378D01*
X0367862Y0179425D01*
X0367896Y0179470D01*
X0367933Y0179512D01*
X0367972Y0179551D01*
X0368014Y0179588D01*
X0368059Y0179622D01*
X0368106Y0179652D01*
X0368154Y0179679D01*
X0368205Y0179703D01*
X0368257Y0179724D01*
X0368310Y0179741D01*
X0368364Y0179754D01*
X0368419Y0179763D01*
X0368475Y0179769D01*
X0368530Y0179771D01*
X0368531Y0179771D01*
X0368530Y0179771D02*
X0368592Y0179769D01*
X0368654Y0179764D01*
X0368715Y0179754D01*
X0368775Y0179741D01*
X0368834Y0179725D01*
X0368893Y0179705D01*
X0368950Y0179681D01*
X0369005Y0179654D01*
X0369059Y0179624D01*
X0369111Y0179590D01*
X0369160Y0179553D01*
X0369208Y0179514D01*
X0369253Y0179472D01*
X0369295Y0179427D01*
X0369334Y0179379D01*
X0369371Y0179330D01*
X0369405Y0179278D01*
X0369435Y0179224D01*
X0369462Y0179169D01*
X0369486Y0179112D01*
X0369506Y0179053D01*
X0369522Y0178994D01*
X0369535Y0178934D01*
X0369545Y0178873D01*
X0369550Y0178811D01*
X0369552Y0178749D01*
X0369552Y0164851D01*
X0369553Y0164852D02*
X0369551Y0164790D01*
X0369545Y0164729D01*
X0369536Y0164668D01*
X0369523Y0164607D01*
X0369506Y0164548D01*
X0369486Y0164490D01*
X0369463Y0164433D01*
X0369436Y0164377D01*
X0369405Y0164323D01*
X0369372Y0164272D01*
X0369335Y0164222D01*
X0369296Y0164175D01*
X0369253Y0164130D01*
X0369208Y0164087D01*
X0369161Y0164048D01*
X0369111Y0164011D01*
X0369060Y0163978D01*
X0369006Y0163947D01*
X0368950Y0163920D01*
X0368893Y0163897D01*
X0368835Y0163877D01*
X0368776Y0163860D01*
X0368715Y0163847D01*
X0368654Y0163838D01*
X0368593Y0163832D01*
X0368531Y0163830D01*
X0368530Y0163830D02*
X0368475Y0163832D01*
X0368419Y0163838D01*
X0368364Y0163847D01*
X0368310Y0163860D01*
X0368257Y0163877D01*
X0368205Y0163898D01*
X0368154Y0163922D01*
X0368106Y0163949D01*
X0368059Y0163979D01*
X0368014Y0164013D01*
X0367972Y0164050D01*
X0367933Y0164089D01*
X0367896Y0164131D01*
X0367862Y0164176D01*
X0367832Y0164223D01*
X0367805Y0164271D01*
X0367781Y0164322D01*
X0367760Y0164374D01*
X0367743Y0164427D01*
X0367730Y0164481D01*
X0367721Y0164536D01*
X0367715Y0164592D01*
X0367713Y0164647D01*
X0365669Y0179772D02*
X0358311Y0179772D01*
X0358106Y0179771D02*
X0358106Y0183654D01*
X0358311Y0183654D02*
X0359742Y0183654D01*
X0338164Y0182511D02*
X0335095Y0185581D01*
X0335095Y0186348D01*
X0335862Y0187115D01*
X0337396Y0187115D01*
X0338164Y0186348D01*
X0338164Y0182511D02*
X0335095Y0182511D01*
X0333560Y0182511D02*
X0330491Y0185581D01*
X0330491Y0186348D01*
X0331258Y0187115D01*
X0332793Y0187115D01*
X0333560Y0186348D01*
X0333560Y0182511D02*
X0330491Y0182511D01*
X0331844Y0158184D02*
X0333379Y0158184D01*
X0334146Y0157416D01*
X0335681Y0157416D02*
X0336448Y0158184D01*
X0337983Y0158184D01*
X0338750Y0157416D01*
X0335681Y0157416D02*
X0335681Y0156649D01*
X0338750Y0153580D01*
X0335681Y0153580D01*
X0334146Y0153580D02*
X0331077Y0156649D01*
X0331077Y0157416D01*
X0331844Y0158184D01*
X0331077Y0153580D02*
X0334146Y0153580D01*
X0284100Y0157000D02*
X0281031Y0157000D01*
X0282565Y0157000D02*
X0282565Y0161604D01*
X0284100Y0160069D01*
X0279496Y0160837D02*
X0279496Y0157767D01*
X0276427Y0160837D01*
X0276427Y0157767D01*
X0277194Y0157000D01*
X0278729Y0157000D01*
X0279496Y0157767D01*
X0279496Y0160837D02*
X0278729Y0161604D01*
X0277194Y0161604D01*
X0276427Y0160837D01*
X0274892Y0160069D02*
X0274892Y0157767D01*
X0274125Y0157000D01*
X0271823Y0157000D01*
X0271823Y0160069D01*
X0245412Y0164500D02*
X0242343Y0164500D01*
X0243877Y0164500D02*
X0243877Y0169104D01*
X0245412Y0167569D01*
X0240808Y0168337D02*
X0240808Y0165267D01*
X0237739Y0168337D01*
X0237739Y0165267D01*
X0238506Y0164500D01*
X0240041Y0164500D01*
X0240808Y0165267D01*
X0240808Y0168337D02*
X0240041Y0169104D01*
X0238506Y0169104D01*
X0237739Y0168337D01*
X0236204Y0167569D02*
X0236204Y0165267D01*
X0235437Y0164500D01*
X0233135Y0164500D01*
X0233135Y0167569D01*
X0233110Y0159104D02*
X0232343Y0158337D01*
X0235412Y0155267D01*
X0234645Y0154500D01*
X0233110Y0154500D01*
X0232343Y0155267D01*
X0232343Y0158337D01*
X0233110Y0159104D02*
X0234645Y0159104D01*
X0235412Y0158337D01*
X0235412Y0155267D01*
X0236946Y0155267D02*
X0237714Y0154500D01*
X0239248Y0154500D01*
X0240016Y0155267D01*
X0236946Y0158337D01*
X0236946Y0155267D01*
X0236946Y0158337D02*
X0237714Y0159104D01*
X0239248Y0159104D01*
X0240016Y0158337D01*
X0240016Y0155267D01*
X0241550Y0154500D02*
X0244620Y0154500D01*
X0243085Y0154500D02*
X0243085Y0159104D01*
X0244620Y0157569D01*
X0230808Y0157569D02*
X0230808Y0154500D01*
X0230808Y0157569D02*
X0228506Y0157569D01*
X0227739Y0156802D01*
X0227739Y0154500D01*
X0226204Y0154500D02*
X0226204Y0159104D01*
X0223135Y0159104D01*
X0224669Y0156802D02*
X0226204Y0156802D01*
X0236607Y0143884D02*
X0238142Y0141582D01*
X0239677Y0143884D01*
X0241211Y0141582D02*
X0236607Y0141582D01*
X0236607Y0140047D02*
X0236607Y0136978D01*
X0236607Y0138513D02*
X0241211Y0138513D01*
X0239677Y0136978D01*
X0258135Y0136604D02*
X0258135Y0132000D01*
X0259669Y0133535D01*
X0261204Y0132000D01*
X0261204Y0136604D01*
X0262739Y0135837D02*
X0262739Y0132767D01*
X0263506Y0132000D01*
X0265041Y0132000D01*
X0265808Y0132767D01*
X0265808Y0135837D01*
X0265041Y0136604D01*
X0263506Y0136604D01*
X0262739Y0135837D01*
X0267343Y0132000D02*
X0270412Y0132000D01*
X0270412Y0136604D01*
X0275016Y0136604D02*
X0275016Y0132000D01*
X0271946Y0132000D01*
X0276550Y0132000D02*
X0279620Y0132000D01*
X0279620Y0136604D01*
X0276550Y0136604D01*
X0278085Y0134302D02*
X0279620Y0134302D01*
X0281154Y0135837D02*
X0281154Y0136604D01*
X0281154Y0135837D02*
X0282689Y0134302D01*
X0282689Y0132000D01*
X0282689Y0134302D02*
X0284224Y0135837D01*
X0284224Y0136604D01*
X0270069Y0101406D02*
X0268535Y0099104D01*
X0267000Y0101406D01*
X0267000Y0099104D02*
X0271604Y0099104D01*
X0271604Y0096035D02*
X0267000Y0096035D01*
X0267000Y0097569D02*
X0267000Y0094500D01*
X0270069Y0094500D02*
X0271604Y0096035D01*
X0259129Y0095819D02*
X0254525Y0095819D01*
X0254525Y0094284D02*
X0254525Y0097354D01*
X0254525Y0098888D02*
X0259129Y0098888D01*
X0257594Y0101190D02*
X0256060Y0098888D01*
X0254525Y0101190D01*
X0259129Y0095819D02*
X0257594Y0094284D01*
X0246604Y0096035D02*
X0242000Y0096035D01*
X0242000Y0097569D02*
X0242000Y0094500D01*
X0245069Y0094500D02*
X0246604Y0096035D01*
X0246604Y0099104D02*
X0242000Y0099104D01*
X0243535Y0099104D02*
X0245069Y0101406D01*
X0243535Y0099104D02*
X0242000Y0101406D01*
X0201604Y0118535D02*
X0200069Y0117000D01*
X0201604Y0118535D02*
X0197000Y0118535D01*
X0197000Y0120069D02*
X0197000Y0117000D01*
X0197767Y0121604D02*
X0200837Y0124673D01*
X0197767Y0124673D01*
X0197000Y0123906D01*
X0197000Y0122371D01*
X0197767Y0121604D01*
X0200837Y0121604D01*
X0201604Y0122371D01*
X0201604Y0123906D01*
X0200837Y0124673D01*
X0200837Y0126208D02*
X0201604Y0126975D01*
X0201604Y0128510D01*
X0200837Y0129277D01*
X0197767Y0126208D01*
X0197000Y0126975D01*
X0197000Y0128510D01*
X0197767Y0129277D01*
X0200837Y0129277D01*
X0200837Y0126208D02*
X0197767Y0126208D01*
D126*
X0197662Y0169067D02*
X0195193Y0169067D01*
X0196427Y0169067D02*
X0196427Y0172770D01*
X0197662Y0171535D01*
X0193978Y0172153D02*
X0193978Y0169684D01*
X0191510Y0172153D01*
X0191510Y0169684D01*
X0192127Y0169067D01*
X0193361Y0169067D01*
X0193978Y0169684D01*
X0193978Y0172153D02*
X0193361Y0172770D01*
X0192127Y0172770D01*
X0191510Y0172153D01*
X0190295Y0172153D02*
X0189678Y0172770D01*
X0188444Y0172770D01*
X0187827Y0172153D01*
X0190295Y0169684D01*
X0189678Y0169067D01*
X0188444Y0169067D01*
X0187827Y0169684D01*
X0187827Y0172153D01*
X0186612Y0171535D02*
X0184761Y0171535D01*
X0184143Y0170918D01*
X0184143Y0169067D01*
X0182929Y0169067D02*
X0182929Y0172770D01*
X0180460Y0172770D01*
X0181695Y0170918D02*
X0182929Y0170918D01*
X0186612Y0171535D02*
X0186612Y0169067D01*
X0190295Y0169684D02*
X0190295Y0172153D01*
X0189906Y0194557D02*
X0190523Y0195174D01*
X0188054Y0197643D01*
X0188054Y0195174D01*
X0188672Y0194557D01*
X0189906Y0194557D01*
X0190523Y0195174D02*
X0190523Y0197643D01*
X0189906Y0198260D01*
X0188672Y0198260D01*
X0188054Y0197643D01*
X0186840Y0197026D02*
X0184988Y0197026D01*
X0184371Y0196409D01*
X0184371Y0194557D01*
X0183157Y0194557D02*
X0183157Y0198260D01*
X0180688Y0198260D01*
X0181922Y0196409D02*
X0183157Y0196409D01*
X0186840Y0197026D02*
X0186840Y0194557D01*
X0191738Y0195174D02*
X0191738Y0197643D01*
X0194206Y0195174D01*
X0193589Y0194557D01*
X0192355Y0194557D01*
X0191738Y0195174D01*
X0194206Y0195174D02*
X0194206Y0197643D01*
X0193589Y0198260D01*
X0192355Y0198260D01*
X0191738Y0197643D01*
X0195421Y0194557D02*
X0197889Y0194557D01*
X0196655Y0194557D02*
X0196655Y0198260D01*
X0197889Y0197026D01*
X0283252Y0266970D02*
X0283252Y0269438D01*
X0283252Y0266970D02*
X0285104Y0266970D01*
X0285721Y0267587D01*
X0285721Y0269438D01*
X0286935Y0270056D02*
X0289404Y0267587D01*
X0288787Y0266970D01*
X0287552Y0266970D01*
X0286935Y0267587D01*
X0286935Y0270056D01*
X0287552Y0270673D01*
X0288787Y0270673D01*
X0289404Y0270056D01*
X0289404Y0267587D01*
X0290618Y0266970D02*
X0293087Y0266970D01*
X0291853Y0266970D02*
X0291853Y0270673D01*
X0293087Y0269438D01*
X0308228Y0226633D02*
X0307611Y0226016D01*
X0310079Y0223548D01*
X0309462Y0222930D01*
X0308228Y0222930D01*
X0307611Y0223548D01*
X0307611Y0226016D01*
X0308228Y0226633D02*
X0309462Y0226633D01*
X0310079Y0226016D01*
X0310079Y0223548D01*
X0311294Y0222930D02*
X0313762Y0222930D01*
X0312528Y0222930D02*
X0312528Y0226633D01*
X0313762Y0225399D01*
X0306396Y0225399D02*
X0306396Y0223548D01*
X0305779Y0222930D01*
X0303927Y0222930D01*
X0303927Y0225399D01*
X0153556Y0053287D02*
X0151087Y0053287D01*
X0149873Y0053287D02*
X0148639Y0052053D01*
X0147404Y0053287D01*
X0147404Y0049584D01*
X0146190Y0049584D02*
X0146190Y0053287D01*
X0144338Y0053287D01*
X0143721Y0052670D01*
X0143721Y0051435D01*
X0144338Y0050818D01*
X0146190Y0050818D01*
X0142507Y0050201D02*
X0142507Y0049584D01*
X0142507Y0050201D02*
X0140038Y0052670D01*
X0140038Y0053287D01*
X0142507Y0053287D01*
X0138824Y0053287D02*
X0138824Y0051435D01*
X0137589Y0052053D01*
X0136972Y0052053D01*
X0136355Y0051435D01*
X0136355Y0050201D01*
X0136972Y0049584D01*
X0138206Y0049584D01*
X0138824Y0050201D01*
X0138824Y0053287D02*
X0136355Y0053287D01*
X0135140Y0053287D02*
X0133289Y0053287D01*
X0132672Y0052670D01*
X0132672Y0050201D01*
X0133289Y0049584D01*
X0135140Y0049584D01*
X0135140Y0053287D01*
X0131457Y0052670D02*
X0131457Y0050201D01*
X0130840Y0049584D01*
X0129606Y0049584D01*
X0128988Y0050201D01*
X0128988Y0051435D01*
X0130223Y0051435D01*
X0131457Y0052670D02*
X0130840Y0053287D01*
X0129606Y0053287D01*
X0128988Y0052670D01*
X0127774Y0053287D02*
X0127774Y0049584D01*
X0127774Y0050818D02*
X0125305Y0053287D01*
X0127157Y0051435D02*
X0125305Y0049584D01*
X0149873Y0049584D02*
X0149873Y0053287D01*
X0152322Y0053287D02*
X0152322Y0049584D01*
D127*
X0132312Y0054812D02*
X0132312Y0043788D01*
X0121288Y0043788D01*
X0121288Y0054812D01*
X0132312Y0054812D01*
X0071300Y0034702D02*
X0071300Y0008898D01*
X0057300Y0008898D01*
X0057300Y0034702D01*
X0071300Y0034702D01*
X0164300Y0136800D02*
X0164300Y0151800D01*
X0164123Y0182902D02*
X0129477Y0182902D01*
X0127902Y0184477D01*
X0127902Y0219123D01*
X0129477Y0220698D01*
X0164123Y0220698D01*
X0165698Y0219123D01*
X0165698Y0184477D01*
X0164123Y0182902D01*
X0234851Y0232863D02*
X0234851Y0240737D01*
X0240363Y0240737D01*
X0243119Y0239162D02*
X0245481Y0236800D01*
X0243119Y0234438D01*
X0243119Y0239162D01*
X0245481Y0239556D02*
X0245481Y0236800D01*
X0245481Y0234044D01*
X0248237Y0232863D02*
X0253749Y0232863D01*
X0253749Y0240737D01*
X0248237Y0240737D01*
X0248237Y0245363D02*
X0253749Y0245363D01*
X0253749Y0253237D01*
X0248237Y0253237D01*
X0245481Y0251662D02*
X0245481Y0246938D01*
X0243119Y0249300D01*
X0245481Y0251662D01*
X0243119Y0252056D02*
X0243119Y0249300D01*
X0243119Y0246544D01*
X0240363Y0245363D02*
X0234851Y0245363D01*
X0234851Y0253237D01*
X0240363Y0253237D01*
X0240363Y0232863D02*
X0234851Y0232863D01*
X0296150Y0256091D02*
X0302450Y0256091D01*
X0302450Y0260028D02*
X0302450Y0263572D01*
X0302450Y0267509D02*
X0296150Y0267509D01*
X0268237Y0151249D02*
X0260363Y0151249D01*
X0260363Y0145737D01*
X0261544Y0142981D02*
X0264300Y0142981D01*
X0261938Y0140619D01*
X0266662Y0140619D01*
X0264300Y0142981D01*
X0267056Y0142981D01*
X0268237Y0145737D02*
X0268237Y0151249D01*
X0268237Y0137863D02*
X0268237Y0132351D01*
X0260363Y0132351D01*
X0260363Y0137863D01*
D128*
X0161435Y0186052D02*
X0161437Y0186119D01*
X0161443Y0186185D01*
X0161453Y0186251D01*
X0161467Y0186316D01*
X0161484Y0186380D01*
X0161506Y0186443D01*
X0161531Y0186505D01*
X0161560Y0186565D01*
X0161593Y0186623D01*
X0161628Y0186679D01*
X0161668Y0186733D01*
X0161710Y0186784D01*
X0161755Y0186833D01*
X0161803Y0186879D01*
X0161854Y0186922D01*
X0161907Y0186962D01*
X0161963Y0186999D01*
X0162021Y0187032D01*
X0162080Y0187062D01*
X0162141Y0187088D01*
X0162204Y0187111D01*
X0162268Y0187129D01*
X0162333Y0187144D01*
X0162399Y0187155D01*
X0162465Y0187162D01*
X0162531Y0187165D01*
X0162598Y0187164D01*
X0162664Y0187159D01*
X0162730Y0187150D01*
X0162796Y0187137D01*
X0162860Y0187120D01*
X0162923Y0187100D01*
X0162985Y0187075D01*
X0163046Y0187047D01*
X0163105Y0187016D01*
X0163161Y0186981D01*
X0163216Y0186943D01*
X0163268Y0186901D01*
X0163317Y0186856D01*
X0163364Y0186809D01*
X0163408Y0186759D01*
X0163448Y0186706D01*
X0163486Y0186651D01*
X0163520Y0186594D01*
X0163551Y0186535D01*
X0163578Y0186474D01*
X0163601Y0186412D01*
X0163621Y0186348D01*
X0163637Y0186283D01*
X0163649Y0186218D01*
X0163657Y0186152D01*
X0163661Y0186085D01*
X0163661Y0186019D01*
X0163657Y0185952D01*
X0163649Y0185886D01*
X0163637Y0185821D01*
X0163621Y0185756D01*
X0163601Y0185692D01*
X0163578Y0185630D01*
X0163551Y0185569D01*
X0163520Y0185510D01*
X0163486Y0185453D01*
X0163448Y0185398D01*
X0163408Y0185345D01*
X0163364Y0185295D01*
X0163317Y0185248D01*
X0163268Y0185203D01*
X0163216Y0185161D01*
X0163161Y0185123D01*
X0163104Y0185088D01*
X0163046Y0185057D01*
X0162985Y0185029D01*
X0162923Y0185004D01*
X0162860Y0184984D01*
X0162796Y0184967D01*
X0162730Y0184954D01*
X0162664Y0184945D01*
X0162598Y0184940D01*
X0162531Y0184939D01*
X0162465Y0184942D01*
X0162399Y0184949D01*
X0162333Y0184960D01*
X0162268Y0184975D01*
X0162204Y0184993D01*
X0162141Y0185016D01*
X0162080Y0185042D01*
X0162021Y0185072D01*
X0161963Y0185105D01*
X0161907Y0185142D01*
X0161854Y0185182D01*
X0161803Y0185225D01*
X0161755Y0185271D01*
X0161710Y0185320D01*
X0161668Y0185371D01*
X0161628Y0185425D01*
X0161593Y0185481D01*
X0161560Y0185539D01*
X0161531Y0185599D01*
X0161506Y0185661D01*
X0161484Y0185724D01*
X0161467Y0185788D01*
X0161453Y0185853D01*
X0161443Y0185919D01*
X0161437Y0185985D01*
X0161435Y0186052D01*
D129*
X0107961Y0190915D02*
X0107961Y0212685D01*
X0107959Y0212750D01*
X0107953Y0212814D01*
X0107944Y0212878D01*
X0107931Y0212942D01*
X0107914Y0213004D01*
X0107894Y0213066D01*
X0107870Y0213126D01*
X0107843Y0213185D01*
X0107812Y0213242D01*
X0107778Y0213297D01*
X0107741Y0213350D01*
X0107701Y0213400D01*
X0107658Y0213449D01*
X0107612Y0213495D01*
X0107563Y0213538D01*
X0107513Y0213578D01*
X0107460Y0213615D01*
X0107405Y0213649D01*
X0107348Y0213680D01*
X0107289Y0213707D01*
X0107229Y0213731D01*
X0107167Y0213751D01*
X0107105Y0213768D01*
X0107041Y0213781D01*
X0106977Y0213790D01*
X0106913Y0213796D01*
X0106848Y0213798D01*
X0096519Y0213798D01*
X0096461Y0213796D01*
X0096404Y0213790D01*
X0096347Y0213781D01*
X0096291Y0213768D01*
X0096236Y0213751D01*
X0096182Y0213731D01*
X0096130Y0213707D01*
X0096079Y0213680D01*
X0096030Y0213650D01*
X0095983Y0213616D01*
X0095939Y0213580D01*
X0095897Y0213540D01*
X0095857Y0213498D01*
X0095821Y0213454D01*
X0095787Y0213407D01*
X0095757Y0213358D01*
X0095730Y0213307D01*
X0095706Y0213255D01*
X0095686Y0213201D01*
X0095669Y0213146D01*
X0095656Y0213090D01*
X0095647Y0213033D01*
X0095641Y0212976D01*
X0095639Y0212918D01*
X0095639Y0191047D01*
X0095638Y0191047D02*
X0095640Y0190977D01*
X0095646Y0190908D01*
X0095656Y0190838D01*
X0095669Y0190770D01*
X0095687Y0190702D01*
X0095708Y0190636D01*
X0095733Y0190571D01*
X0095761Y0190507D01*
X0095793Y0190445D01*
X0095829Y0190385D01*
X0095868Y0190327D01*
X0095910Y0190271D01*
X0095955Y0190217D01*
X0096003Y0190167D01*
X0096053Y0190119D01*
X0096107Y0190074D01*
X0096163Y0190032D01*
X0096221Y0189993D01*
X0096281Y0189957D01*
X0096343Y0189925D01*
X0096407Y0189897D01*
X0096472Y0189872D01*
X0096538Y0189851D01*
X0096606Y0189833D01*
X0096674Y0189820D01*
X0096744Y0189810D01*
X0096813Y0189804D01*
X0096883Y0189802D01*
X0106848Y0189802D01*
X0106913Y0189804D01*
X0106977Y0189810D01*
X0107041Y0189819D01*
X0107105Y0189832D01*
X0107167Y0189849D01*
X0107229Y0189869D01*
X0107289Y0189893D01*
X0107348Y0189920D01*
X0107405Y0189951D01*
X0107460Y0189985D01*
X0107513Y0190022D01*
X0107563Y0190062D01*
X0107612Y0190105D01*
X0107658Y0190151D01*
X0107701Y0190200D01*
X0107741Y0190250D01*
X0107778Y0190303D01*
X0107812Y0190359D01*
X0107843Y0190415D01*
X0107870Y0190474D01*
X0107894Y0190534D01*
X0107914Y0190596D01*
X0107931Y0190658D01*
X0107944Y0190722D01*
X0107953Y0190786D01*
X0107959Y0190850D01*
X0107961Y0190915D01*
X0106387Y0193345D02*
X0106387Y0210255D01*
X0106385Y0210332D01*
X0106379Y0210409D01*
X0106370Y0210486D01*
X0106357Y0210562D01*
X0106340Y0210638D01*
X0106319Y0210712D01*
X0106295Y0210786D01*
X0106267Y0210858D01*
X0106236Y0210928D01*
X0106201Y0210997D01*
X0106163Y0211065D01*
X0106122Y0211130D01*
X0106077Y0211193D01*
X0106029Y0211254D01*
X0105979Y0211313D01*
X0105926Y0211369D01*
X0105870Y0211422D01*
X0105811Y0211472D01*
X0105750Y0211520D01*
X0105687Y0211565D01*
X0105622Y0211606D01*
X0105554Y0211644D01*
X0105485Y0211679D01*
X0105415Y0211710D01*
X0105343Y0211738D01*
X0105269Y0211762D01*
X0105195Y0211783D01*
X0105119Y0211800D01*
X0105043Y0211813D01*
X0104966Y0211822D01*
X0104889Y0211828D01*
X0104812Y0211830D01*
X0098788Y0211830D01*
X0098702Y0211828D01*
X0098616Y0211823D01*
X0098531Y0211813D01*
X0098446Y0211800D01*
X0098362Y0211783D01*
X0098278Y0211763D01*
X0098196Y0211739D01*
X0098115Y0211711D01*
X0098034Y0211680D01*
X0097956Y0211646D01*
X0097879Y0211608D01*
X0097804Y0211566D01*
X0097730Y0211522D01*
X0097659Y0211474D01*
X0097589Y0211423D01*
X0097522Y0211369D01*
X0097458Y0211313D01*
X0097396Y0211253D01*
X0097336Y0211191D01*
X0097280Y0211127D01*
X0097226Y0211060D01*
X0097175Y0210990D01*
X0097127Y0210919D01*
X0097083Y0210846D01*
X0097041Y0210770D01*
X0097003Y0210693D01*
X0096969Y0210615D01*
X0096938Y0210534D01*
X0096910Y0210453D01*
X0096886Y0210371D01*
X0096866Y0210287D01*
X0096849Y0210203D01*
X0096836Y0210118D01*
X0096826Y0210033D01*
X0096821Y0209947D01*
X0096819Y0209861D01*
X0096820Y0209861D02*
X0096820Y0193345D01*
X0096819Y0193345D02*
X0096830Y0193263D01*
X0096845Y0193182D01*
X0096863Y0193102D01*
X0096885Y0193023D01*
X0096911Y0192945D01*
X0096940Y0192868D01*
X0096973Y0192792D01*
X0097010Y0192718D01*
X0097049Y0192646D01*
X0097092Y0192576D01*
X0097139Y0192508D01*
X0097188Y0192442D01*
X0097240Y0192378D01*
X0097295Y0192317D01*
X0097353Y0192258D01*
X0097414Y0192203D01*
X0097477Y0192150D01*
X0097543Y0192100D01*
X0097610Y0192053D01*
X0097680Y0192009D01*
X0097752Y0191969D01*
X0097826Y0191932D01*
X0097901Y0191898D01*
X0097977Y0191868D01*
X0098055Y0191841D01*
X0098134Y0191818D01*
X0098215Y0191799D01*
X0098295Y0191784D01*
X0098377Y0191772D01*
X0098459Y0191764D01*
X0098541Y0191760D01*
X0098624Y0191759D01*
X0098706Y0191763D01*
X0098788Y0191770D01*
X0104812Y0191770D01*
X0104889Y0191772D01*
X0104966Y0191778D01*
X0105043Y0191787D01*
X0105119Y0191800D01*
X0105195Y0191817D01*
X0105269Y0191838D01*
X0105343Y0191862D01*
X0105415Y0191890D01*
X0105485Y0191921D01*
X0105554Y0191956D01*
X0105622Y0191994D01*
X0105687Y0192035D01*
X0105750Y0192080D01*
X0105811Y0192128D01*
X0105870Y0192178D01*
X0105926Y0192231D01*
X0105979Y0192287D01*
X0106029Y0192346D01*
X0106077Y0192407D01*
X0106122Y0192470D01*
X0106163Y0192535D01*
X0106201Y0192603D01*
X0106236Y0192672D01*
X0106267Y0192742D01*
X0106295Y0192814D01*
X0106319Y0192888D01*
X0106340Y0192962D01*
X0106357Y0193038D01*
X0106370Y0193114D01*
X0106379Y0193191D01*
X0106385Y0193268D01*
X0106387Y0193345D01*
X0050554Y0191802D02*
X0050554Y0189550D01*
X0046050Y0189550D01*
X0047551Y0189550D02*
X0047551Y0191802D01*
X0048302Y0192553D01*
X0049803Y0192553D01*
X0050554Y0191802D01*
X0047551Y0191051D02*
X0046050Y0192553D01*
X0048302Y0194154D02*
X0048302Y0197156D01*
X0049803Y0198758D02*
X0046801Y0198758D01*
X0046050Y0199508D01*
X0046050Y0201010D01*
X0046801Y0201760D01*
X0046801Y0203362D02*
X0046050Y0204112D01*
X0046050Y0205614D01*
X0046801Y0206364D01*
X0047551Y0206364D01*
X0048302Y0205614D01*
X0048302Y0203362D01*
X0046801Y0203362D01*
X0048302Y0203362D02*
X0049803Y0204863D01*
X0050554Y0206364D01*
X0050554Y0207966D02*
X0050554Y0210218D01*
X0049803Y0210968D01*
X0048302Y0210968D01*
X0047551Y0210218D01*
X0047551Y0207966D01*
X0046050Y0207966D02*
X0050554Y0207966D01*
X0049803Y0201760D02*
X0050554Y0201010D01*
X0050554Y0199508D01*
X0049803Y0198758D01*
X0010304Y0238551D02*
X0008803Y0237050D01*
X0010304Y0238551D02*
X0005800Y0238551D01*
X0005800Y0237050D02*
X0005800Y0240053D01*
X0006551Y0241654D02*
X0009553Y0244656D01*
X0006551Y0244656D01*
X0005800Y0243906D01*
X0005800Y0242405D01*
X0006551Y0241654D01*
X0009553Y0241654D01*
X0010304Y0242405D01*
X0010304Y0243906D01*
X0009553Y0244656D01*
X0010304Y0246258D02*
X0005800Y0246258D01*
X0007301Y0246258D02*
X0008803Y0248510D01*
X0007301Y0246258D02*
X0005800Y0248510D01*
X0013800Y0242800D02*
X0013800Y0241800D01*
X0013800Y0240800D01*
X0013800Y0241800D02*
X0017800Y0241800D01*
X0016800Y0240800D01*
X0017300Y0256300D02*
X0017800Y0256800D01*
X0017800Y0258300D01*
X0017300Y0258800D01*
X0016300Y0258800D01*
X0015800Y0258300D01*
X0015300Y0258800D01*
X0014300Y0258800D01*
X0013800Y0258300D01*
X0013800Y0256800D01*
X0014300Y0256300D01*
X0015800Y0257300D02*
X0015800Y0258300D01*
X0153844Y0141954D02*
X0153844Y0138951D01*
X0155345Y0137450D01*
X0156846Y0138951D01*
X0156846Y0141954D01*
X0158447Y0141954D02*
X0158447Y0138201D01*
X0159198Y0137450D01*
X0160699Y0137450D01*
X0161450Y0138201D01*
X0161450Y0141954D01*
X0233944Y0170800D02*
X0236947Y0170800D01*
X0233944Y0173803D01*
X0233944Y0174553D01*
X0234695Y0175304D01*
X0236196Y0175304D01*
X0236947Y0174553D01*
X0238548Y0174553D02*
X0241551Y0171551D01*
X0240800Y0170800D01*
X0239299Y0170800D01*
X0238548Y0171551D01*
X0238548Y0174553D01*
X0239299Y0175304D01*
X0240800Y0175304D01*
X0241551Y0174553D01*
X0241551Y0171551D01*
X0243152Y0171551D02*
X0243903Y0170800D01*
X0245404Y0170800D01*
X0246155Y0171551D01*
X0247756Y0170800D02*
X0250758Y0170800D01*
X0247756Y0173803D01*
X0247756Y0174553D01*
X0248507Y0175304D01*
X0250008Y0175304D01*
X0250758Y0174553D01*
X0252360Y0174553D02*
X0253110Y0175304D01*
X0254612Y0175304D01*
X0255362Y0174553D01*
X0255362Y0171551D01*
X0254612Y0170800D01*
X0253110Y0170800D01*
X0252360Y0171551D01*
X0252360Y0173052D01*
X0253861Y0173052D01*
X0256964Y0175304D02*
X0256964Y0170800D01*
X0259966Y0170800D02*
X0259966Y0175304D01*
X0258465Y0173803D01*
X0256964Y0175304D01*
X0261568Y0174553D02*
X0261568Y0171551D01*
X0262318Y0170800D01*
X0264570Y0170800D01*
X0264570Y0175304D01*
X0262318Y0175304D01*
X0261568Y0174553D01*
X0270759Y0173803D02*
X0271509Y0173803D01*
X0273011Y0172301D01*
X0273011Y0170800D02*
X0273011Y0173803D01*
X0274612Y0173052D02*
X0275363Y0173803D01*
X0276864Y0173803D01*
X0277615Y0173052D01*
X0277615Y0171551D01*
X0276864Y0170800D01*
X0275363Y0170800D01*
X0274612Y0171551D01*
X0274612Y0173052D01*
X0283820Y0171551D02*
X0283820Y0175304D01*
X0286823Y0175304D02*
X0286823Y0171551D01*
X0286072Y0170800D01*
X0284571Y0170800D01*
X0283820Y0171551D01*
X0288424Y0171551D02*
X0289175Y0170800D01*
X0290676Y0170800D01*
X0291426Y0171551D01*
X0291426Y0173052D02*
X0289925Y0173803D01*
X0289175Y0173803D01*
X0288424Y0173052D01*
X0288424Y0171551D01*
X0291426Y0173052D02*
X0291426Y0175304D01*
X0288424Y0175304D01*
X0293028Y0173052D02*
X0296030Y0173052D01*
X0293778Y0175304D01*
X0293778Y0170800D01*
X0297632Y0171551D02*
X0297632Y0174553D01*
X0300634Y0171551D01*
X0299884Y0170800D01*
X0298382Y0170800D01*
X0297632Y0171551D01*
X0297632Y0174553D02*
X0298382Y0175304D01*
X0299884Y0175304D01*
X0300634Y0174553D01*
X0300634Y0171551D01*
X0302236Y0170800D02*
X0305238Y0170800D01*
X0303737Y0170800D02*
X0303737Y0175304D01*
X0305238Y0173803D01*
X0306840Y0174553D02*
X0306840Y0173052D01*
X0307590Y0172301D01*
X0309842Y0172301D01*
X0309842Y0170800D02*
X0309842Y0175304D01*
X0307590Y0175304D01*
X0306840Y0174553D01*
X0311444Y0175304D02*
X0311444Y0170800D01*
X0314446Y0170800D02*
X0314446Y0175304D01*
X0312945Y0173803D01*
X0311444Y0175304D01*
X0316047Y0174553D02*
X0316047Y0171551D01*
X0316798Y0170800D01*
X0319050Y0170800D01*
X0319050Y0175304D01*
X0316798Y0175304D01*
X0316047Y0174553D01*
X0301391Y0212550D02*
X0298389Y0212550D01*
X0296787Y0212550D02*
X0296787Y0217054D01*
X0295286Y0215553D01*
X0293785Y0217054D01*
X0293785Y0212550D01*
X0292183Y0212550D02*
X0289181Y0212550D01*
X0290682Y0212550D02*
X0290682Y0217054D01*
X0292183Y0215553D01*
X0287580Y0215553D02*
X0286078Y0217054D01*
X0286078Y0212550D01*
X0284577Y0212550D02*
X0287580Y0212550D01*
X0282976Y0212550D02*
X0279973Y0212550D01*
X0281474Y0212550D02*
X0281474Y0217054D01*
X0282976Y0215553D01*
X0278372Y0217054D02*
X0275369Y0217054D01*
X0275369Y0216303D01*
X0278372Y0213301D01*
X0278372Y0212550D01*
X0273768Y0213301D02*
X0273017Y0212550D01*
X0271516Y0212550D01*
X0270765Y0213301D01*
X0270765Y0214051D01*
X0271516Y0214802D01*
X0273017Y0214802D01*
X0273768Y0215553D01*
X0273768Y0216303D01*
X0273017Y0217054D01*
X0271516Y0217054D01*
X0270765Y0216303D01*
X0269164Y0214802D02*
X0266161Y0214802D01*
X0264560Y0216303D02*
X0263809Y0217054D01*
X0262308Y0217054D01*
X0261557Y0216303D01*
X0261557Y0215553D01*
X0262308Y0214802D01*
X0261557Y0214051D01*
X0261557Y0213301D01*
X0262308Y0212550D01*
X0263809Y0212550D01*
X0264560Y0213301D01*
X0263059Y0214802D02*
X0262308Y0214802D01*
X0259956Y0213301D02*
X0259205Y0213301D01*
X0259205Y0212550D01*
X0259956Y0212550D01*
X0259956Y0213301D01*
X0257654Y0213301D02*
X0256903Y0212550D01*
X0255402Y0212550D01*
X0254651Y0213301D01*
X0254651Y0214051D01*
X0255402Y0214802D01*
X0256153Y0214802D01*
X0255402Y0214802D02*
X0254651Y0215553D01*
X0254651Y0216303D01*
X0255402Y0217054D01*
X0256903Y0217054D01*
X0257654Y0216303D01*
X0301391Y0217054D02*
X0301391Y0212550D01*
X0246155Y0174553D02*
X0245404Y0175304D01*
X0243903Y0175304D01*
X0243152Y0174553D01*
X0243152Y0173803D01*
X0243903Y0173052D01*
X0243152Y0172301D01*
X0243152Y0171551D01*
X0243903Y0173052D02*
X0244653Y0173052D01*
X0263926Y0062292D02*
X0279674Y0062292D01*
X0279960Y0062096D01*
X0280242Y0061893D01*
X0280518Y0061684D01*
X0280789Y0061467D01*
X0281055Y0061244D01*
X0281315Y0061015D01*
X0281570Y0060779D01*
X0281818Y0060537D01*
X0282061Y0060290D01*
X0282298Y0060036D01*
X0282528Y0059777D01*
X0282752Y0059512D01*
X0282969Y0059242D01*
X0283180Y0058966D01*
X0283384Y0058685D01*
X0283581Y0058400D01*
X0283771Y0058110D01*
X0283954Y0057815D01*
X0284129Y0057516D01*
X0284297Y0057212D01*
X0284458Y0056905D01*
X0284611Y0056594D01*
X0284757Y0056279D01*
X0284895Y0055961D01*
X0285025Y0055639D01*
X0285147Y0055314D01*
X0285261Y0054987D01*
X0285367Y0054657D01*
X0285465Y0054324D01*
X0285555Y0053989D01*
X0285636Y0053652D01*
X0285710Y0053313D01*
X0285775Y0052972D01*
X0285831Y0052630D01*
X0285880Y0052286D01*
X0285920Y0051942D01*
X0285951Y0051596D01*
X0285974Y0051250D01*
X0285989Y0050904D01*
X0285995Y0050557D01*
X0285992Y0050210D01*
X0285982Y0049863D01*
X0285962Y0049517D01*
X0285934Y0049171D01*
X0285898Y0048826D01*
X0285854Y0048482D01*
X0285801Y0048139D01*
X0285739Y0047798D01*
X0285669Y0047458D01*
X0285591Y0047120D01*
X0285505Y0046784D01*
X0285411Y0046451D01*
X0285308Y0046119D01*
X0285198Y0045790D01*
X0285079Y0045465D01*
X0284953Y0045142D01*
X0284818Y0044822D01*
X0284676Y0044505D01*
X0284526Y0044193D01*
X0284369Y0043883D01*
X0284204Y0043578D01*
X0284031Y0043277D01*
X0283852Y0042981D01*
X0283665Y0042688D01*
X0283471Y0042401D01*
X0283270Y0042118D01*
X0283062Y0041840D01*
X0282848Y0041568D01*
X0282627Y0041300D01*
X0282399Y0041039D01*
X0282165Y0040783D01*
X0281925Y0040532D01*
X0281679Y0040288D01*
X0281427Y0040049D01*
X0281169Y0039817D01*
X0280906Y0039592D01*
X0280637Y0039372D01*
X0280363Y0039160D01*
X0280084Y0038954D01*
X0279800Y0038755D01*
X0279511Y0038563D01*
X0279217Y0038378D01*
X0278919Y0038200D01*
X0278617Y0038030D01*
X0278311Y0037867D01*
X0278001Y0037712D01*
X0277687Y0037564D01*
X0277370Y0037424D01*
X0277049Y0037292D01*
X0276725Y0037168D01*
X0276398Y0037051D01*
X0276069Y0036943D01*
X0275737Y0036843D01*
X0275402Y0036751D01*
X0275066Y0036667D01*
X0274727Y0036591D01*
X0274387Y0036524D01*
X0274045Y0036465D01*
X0273702Y0036414D01*
X0273358Y0036372D01*
X0273013Y0036338D01*
X0272667Y0036312D01*
X0272320Y0036296D01*
X0271973Y0036287D01*
X0271627Y0036287D01*
X0271280Y0036296D01*
X0270933Y0036312D01*
X0270587Y0036338D01*
X0270242Y0036372D01*
X0269898Y0036414D01*
X0269555Y0036465D01*
X0269213Y0036524D01*
X0268873Y0036591D01*
X0268534Y0036667D01*
X0268198Y0036751D01*
X0267863Y0036843D01*
X0267531Y0036943D01*
X0267202Y0037051D01*
X0266875Y0037168D01*
X0266551Y0037292D01*
X0266230Y0037424D01*
X0265913Y0037564D01*
X0265599Y0037712D01*
X0265289Y0037867D01*
X0264983Y0038030D01*
X0264681Y0038200D01*
X0264383Y0038378D01*
X0264089Y0038563D01*
X0263800Y0038755D01*
X0263516Y0038954D01*
X0263237Y0039160D01*
X0262963Y0039372D01*
X0262694Y0039592D01*
X0262431Y0039817D01*
X0262173Y0040049D01*
X0261921Y0040288D01*
X0261675Y0040532D01*
X0261435Y0040783D01*
X0261201Y0041039D01*
X0260973Y0041300D01*
X0260752Y0041568D01*
X0260538Y0041840D01*
X0260330Y0042118D01*
X0260129Y0042401D01*
X0259935Y0042688D01*
X0259748Y0042981D01*
X0259569Y0043277D01*
X0259396Y0043578D01*
X0259231Y0043883D01*
X0259074Y0044193D01*
X0258924Y0044505D01*
X0258782Y0044822D01*
X0258647Y0045142D01*
X0258521Y0045465D01*
X0258402Y0045790D01*
X0258292Y0046119D01*
X0258189Y0046451D01*
X0258095Y0046784D01*
X0258009Y0047120D01*
X0257931Y0047458D01*
X0257861Y0047798D01*
X0257799Y0048139D01*
X0257746Y0048482D01*
X0257702Y0048826D01*
X0257666Y0049171D01*
X0257638Y0049517D01*
X0257618Y0049863D01*
X0257608Y0050210D01*
X0257605Y0050557D01*
X0257611Y0050904D01*
X0257626Y0051250D01*
X0257649Y0051596D01*
X0257680Y0051942D01*
X0257720Y0052286D01*
X0257769Y0052630D01*
X0257825Y0052972D01*
X0257890Y0053313D01*
X0257964Y0053652D01*
X0258045Y0053989D01*
X0258135Y0054324D01*
X0258233Y0054657D01*
X0258339Y0054987D01*
X0258453Y0055314D01*
X0258575Y0055639D01*
X0258705Y0055961D01*
X0258843Y0056279D01*
X0258989Y0056594D01*
X0259142Y0056905D01*
X0259303Y0057212D01*
X0259471Y0057516D01*
X0259646Y0057815D01*
X0259829Y0058110D01*
X0260019Y0058400D01*
X0260216Y0058685D01*
X0260420Y0058966D01*
X0260631Y0059242D01*
X0260848Y0059512D01*
X0261072Y0059777D01*
X0261302Y0060036D01*
X0261539Y0060290D01*
X0261782Y0060537D01*
X0262030Y0060779D01*
X0262285Y0061015D01*
X0262545Y0061244D01*
X0262811Y0061467D01*
X0263082Y0061684D01*
X0263358Y0061893D01*
X0263640Y0062096D01*
X0263926Y0062292D01*
X0106550Y0015054D02*
X0106550Y0012051D01*
X0105049Y0010550D01*
X0103547Y0012051D01*
X0103547Y0015054D01*
X0101946Y0015054D02*
X0100445Y0015054D01*
X0101195Y0015054D02*
X0101195Y0010550D01*
X0100445Y0010550D02*
X0101946Y0010550D01*
X0098877Y0010550D02*
X0096625Y0010550D01*
X0095874Y0011301D01*
X0095874Y0012051D01*
X0096625Y0012802D01*
X0098877Y0012802D01*
X0098877Y0010550D02*
X0098877Y0015054D01*
X0096625Y0015054D01*
X0095874Y0014303D01*
X0095874Y0013553D01*
X0096625Y0012802D01*
X0094273Y0012051D02*
X0092021Y0012051D01*
X0091270Y0012802D01*
X0091270Y0014303D01*
X0092021Y0015054D01*
X0094273Y0015054D01*
X0094273Y0010550D01*
X0092772Y0012051D02*
X0091270Y0010550D01*
X0098264Y0045850D02*
X0098382Y0045852D01*
X0098500Y0045858D01*
X0098618Y0045868D01*
X0098735Y0045882D01*
X0098852Y0045899D01*
X0098968Y0045921D01*
X0099084Y0045946D01*
X0099198Y0045976D01*
X0099312Y0046009D01*
X0099424Y0046046D01*
X0099535Y0046086D01*
X0099644Y0046131D01*
X0099752Y0046179D01*
X0099859Y0046230D01*
X0099963Y0046285D01*
X0100066Y0046344D01*
X0100167Y0046406D01*
X0100265Y0046471D01*
X0100361Y0046539D01*
X0100455Y0046611D01*
X0100547Y0046686D01*
X0100636Y0046764D01*
X0100722Y0046844D01*
X0100806Y0046928D01*
X0100886Y0047014D01*
X0100964Y0047103D01*
X0101039Y0047195D01*
X0101111Y0047289D01*
X0101179Y0047385D01*
X0101244Y0047483D01*
X0101306Y0047584D01*
X0101365Y0047687D01*
X0101420Y0047791D01*
X0101471Y0047898D01*
X0101519Y0048006D01*
X0101564Y0048115D01*
X0101604Y0048226D01*
X0101641Y0048338D01*
X0101674Y0048452D01*
X0101704Y0048566D01*
X0101729Y0048682D01*
X0101751Y0048798D01*
X0101768Y0048915D01*
X0101782Y0049032D01*
X0101792Y0049150D01*
X0101798Y0049268D01*
X0101800Y0049386D01*
X0101798Y0049504D01*
X0101792Y0049622D01*
X0101782Y0049740D01*
X0101768Y0049857D01*
X0101751Y0049974D01*
X0101729Y0050090D01*
X0101704Y0050206D01*
X0101674Y0050320D01*
X0101641Y0050434D01*
X0101604Y0050546D01*
X0101564Y0050657D01*
X0101519Y0050766D01*
X0101471Y0050874D01*
X0101420Y0050981D01*
X0101365Y0051085D01*
X0101306Y0051188D01*
X0101244Y0051289D01*
X0101179Y0051387D01*
X0101111Y0051483D01*
X0101039Y0051577D01*
X0100964Y0051669D01*
X0100886Y0051758D01*
X0100806Y0051844D01*
X0100722Y0051928D01*
X0100636Y0052008D01*
X0100547Y0052086D01*
X0100455Y0052161D01*
X0100361Y0052233D01*
X0100265Y0052301D01*
X0100167Y0052366D01*
X0100066Y0052428D01*
X0099963Y0052487D01*
X0099859Y0052542D01*
X0099752Y0052593D01*
X0099644Y0052641D01*
X0099535Y0052686D01*
X0099424Y0052726D01*
X0099312Y0052763D01*
X0099198Y0052796D01*
X0099084Y0052826D01*
X0098968Y0052851D01*
X0098852Y0052873D01*
X0098735Y0052890D01*
X0098618Y0052904D01*
X0098500Y0052914D01*
X0098382Y0052920D01*
X0098264Y0052922D01*
D130*
X0028298Y0240700D02*
X0028298Y0240700D01*
X0028057Y0242987D01*
X0028060Y0243985D02*
X0028060Y0246032D01*
X0025540Y0246032D01*
X0025540Y0243985D01*
X0023851Y0243578D02*
X0022990Y0241446D01*
X0022269Y0244728D02*
X0018746Y0241771D01*
X0017981Y0242686D02*
X0021524Y0245639D01*
X0021485Y0248040D02*
X0023532Y0248040D01*
X0023532Y0250560D01*
X0021485Y0250560D01*
X0023532Y0250560D02*
X0025540Y0250560D01*
X0025540Y0252568D01*
X0028060Y0252568D01*
X0028060Y0254615D01*
X0028057Y0255613D02*
X0028298Y0257900D01*
X0028298Y0257900D01*
X0031181Y0256850D02*
X0029895Y0254944D01*
X0030874Y0254284D02*
X0032160Y0256190D01*
X0034213Y0253910D02*
X0032182Y0252831D01*
X0032737Y0251788D02*
X0034767Y0252867D01*
X0032115Y0250560D02*
X0030068Y0250560D01*
X0030068Y0248040D01*
X0032115Y0248040D01*
X0032737Y0246812D02*
X0034767Y0245733D01*
X0034213Y0244690D02*
X0032182Y0245769D01*
X0030874Y0244316D02*
X0032160Y0242410D01*
X0031181Y0241750D02*
X0029895Y0243656D01*
X0028060Y0246032D02*
X0028060Y0248040D01*
X0030068Y0248040D01*
X0030068Y0250560D02*
X0028060Y0250560D01*
X0028060Y0252568D01*
X0025540Y0252568D02*
X0025540Y0254615D01*
X0023851Y0255022D02*
X0022990Y0257154D01*
X0022272Y0253867D02*
X0018769Y0256820D01*
X0017981Y0255914D02*
X0021524Y0252961D01*
X0023532Y0248040D02*
X0025540Y0248040D01*
X0025540Y0246032D01*
X0034213Y0244689D02*
X0034315Y0244857D01*
X0034413Y0245028D01*
X0034508Y0245201D01*
X0034598Y0245376D01*
X0034685Y0245553D01*
X0034767Y0245732D01*
X0032160Y0256190D02*
X0032003Y0256309D01*
X0031844Y0256425D01*
X0031682Y0256537D01*
X0031517Y0256645D01*
X0031350Y0256749D01*
X0031181Y0256850D01*
X0034213Y0253911D02*
X0034315Y0253743D01*
X0034413Y0253572D01*
X0034508Y0253399D01*
X0034598Y0253224D01*
X0034685Y0253047D01*
X0034767Y0252868D01*
X0032160Y0242410D02*
X0032003Y0242291D01*
X0031844Y0242175D01*
X0031682Y0242063D01*
X0031517Y0241955D01*
X0031350Y0241851D01*
X0031181Y0241750D01*
X0018746Y0241771D02*
X0018587Y0241946D01*
X0018431Y0242123D01*
X0018279Y0242304D01*
X0018131Y0242489D01*
X0017987Y0242676D01*
X0022272Y0253867D02*
X0022380Y0253971D01*
X0022491Y0254073D01*
X0022603Y0254173D01*
X0022718Y0254269D01*
X0022836Y0254363D01*
X0022955Y0254454D01*
X0023077Y0254543D01*
X0023200Y0254628D01*
X0023325Y0254711D01*
X0023453Y0254791D01*
X0023582Y0254867D01*
X0023713Y0254941D01*
X0023846Y0255012D01*
X0018746Y0256829D02*
X0018587Y0256654D01*
X0018431Y0256477D01*
X0018279Y0256296D01*
X0018131Y0256111D01*
X0017987Y0255924D01*
X0022272Y0244733D02*
X0022380Y0244629D01*
X0022491Y0244527D01*
X0022603Y0244427D01*
X0022718Y0244331D01*
X0022836Y0244237D01*
X0022955Y0244146D01*
X0023077Y0244057D01*
X0023200Y0243972D01*
X0023325Y0243889D01*
X0023453Y0243809D01*
X0023582Y0243733D01*
X0023713Y0243659D01*
X0023846Y0243588D01*
X0032181Y0252834D02*
X0032095Y0252961D01*
X0032007Y0253085D01*
X0031916Y0253207D01*
X0031822Y0253328D01*
X0031725Y0253446D01*
X0031625Y0253561D01*
X0031523Y0253674D01*
X0031418Y0253785D01*
X0031310Y0253893D01*
X0031200Y0253999D01*
X0031087Y0254102D01*
X0030972Y0254202D01*
X0030855Y0254299D01*
X0032181Y0245766D02*
X0032095Y0245639D01*
X0032007Y0245515D01*
X0031916Y0245393D01*
X0031822Y0245272D01*
X0031725Y0245154D01*
X0031625Y0245039D01*
X0031523Y0244926D01*
X0031418Y0244815D01*
X0031310Y0244707D01*
X0031200Y0244601D01*
X0031087Y0244498D01*
X0030972Y0244398D01*
X0030855Y0244301D01*
X0033215Y0249891D02*
X0033199Y0250040D01*
X0033180Y0250189D01*
X0033158Y0250338D01*
X0033132Y0250486D01*
X0033102Y0250634D01*
X0033070Y0250780D01*
X0033033Y0250926D01*
X0032994Y0251071D01*
X0032951Y0251216D01*
X0032904Y0251359D01*
X0032854Y0251501D01*
X0032801Y0251641D01*
X0032745Y0251781D01*
X0033215Y0248709D02*
X0033199Y0248560D01*
X0033180Y0248411D01*
X0033158Y0248262D01*
X0033132Y0248114D01*
X0033102Y0247966D01*
X0033070Y0247820D01*
X0033033Y0247674D01*
X0032994Y0247529D01*
X0032951Y0247384D01*
X0032904Y0247241D01*
X0032854Y0247099D01*
X0032801Y0246959D01*
X0032745Y0246819D01*
X0021328Y0249300D02*
X0021330Y0249448D01*
X0021336Y0249595D01*
X0021346Y0249742D01*
X0021360Y0249889D01*
X0021378Y0250036D01*
X0021399Y0250182D01*
X0021425Y0250327D01*
X0021455Y0250471D01*
X0021488Y0250615D01*
X0021526Y0250758D01*
X0021567Y0250899D01*
X0021612Y0251040D01*
X0021661Y0251179D01*
X0021713Y0251317D01*
X0021770Y0251454D01*
X0021829Y0251588D01*
X0021893Y0251722D01*
X0021960Y0251853D01*
X0022031Y0251983D01*
X0022105Y0252110D01*
X0022182Y0252236D01*
X0022263Y0252359D01*
X0022347Y0252480D01*
X0022435Y0252599D01*
X0022525Y0252716D01*
X0022619Y0252830D01*
X0022715Y0252941D01*
X0022815Y0253050D01*
X0022918Y0253156D01*
X0023023Y0253260D01*
X0023131Y0253360D01*
X0023242Y0253457D01*
X0023355Y0253552D01*
X0023471Y0253643D01*
X0023590Y0253731D01*
X0023710Y0253816D01*
X0023833Y0253898D01*
X0023958Y0253976D01*
X0024085Y0254051D01*
X0024214Y0254123D01*
X0024345Y0254191D01*
X0024478Y0254255D01*
X0024613Y0254316D01*
X0024749Y0254373D01*
X0024886Y0254426D01*
X0025025Y0254476D01*
X0025165Y0254522D01*
X0025307Y0254564D01*
X0025449Y0254603D01*
X0025593Y0254637D01*
X0025737Y0254668D01*
X0025882Y0254694D01*
X0026028Y0254717D01*
X0026174Y0254736D01*
X0026321Y0254751D01*
X0026468Y0254762D01*
X0026616Y0254769D01*
X0026763Y0254772D01*
X0026911Y0254771D01*
X0027058Y0254766D01*
X0027205Y0254757D01*
X0027352Y0254744D01*
X0027499Y0254727D01*
X0027645Y0254706D01*
X0027791Y0254682D01*
X0027935Y0254653D01*
X0028079Y0254620D01*
X0028222Y0254584D01*
X0028364Y0254544D01*
X0028505Y0254500D01*
X0028645Y0254452D01*
X0028783Y0254400D01*
X0028920Y0254345D01*
X0029055Y0254286D01*
X0029188Y0254223D01*
X0029320Y0254157D01*
X0029450Y0254087D01*
X0029578Y0254014D01*
X0029705Y0253937D01*
X0029829Y0253857D01*
X0029950Y0253774D01*
X0030070Y0253688D01*
X0030187Y0253598D01*
X0030302Y0253505D01*
X0030414Y0253409D01*
X0030523Y0253310D01*
X0030630Y0253208D01*
X0030734Y0253104D01*
X0030835Y0252996D01*
X0030933Y0252886D01*
X0031028Y0252773D01*
X0031121Y0252658D01*
X0031210Y0252540D01*
X0031295Y0252420D01*
X0031378Y0252298D01*
X0031457Y0252173D01*
X0031533Y0252047D01*
X0031605Y0251918D01*
X0031674Y0251788D01*
X0031739Y0251655D01*
X0031801Y0251521D01*
X0031859Y0251386D01*
X0031913Y0251248D01*
X0031964Y0251110D01*
X0032011Y0250970D01*
X0032054Y0250829D01*
X0032093Y0250687D01*
X0032129Y0250543D01*
X0032160Y0250399D01*
X0032188Y0250254D01*
X0032212Y0250109D01*
X0032232Y0249962D01*
X0032248Y0249816D01*
X0032260Y0249669D01*
X0032268Y0249521D01*
X0032272Y0249374D01*
X0032272Y0249226D01*
X0032268Y0249079D01*
X0032260Y0248931D01*
X0032248Y0248784D01*
X0032232Y0248638D01*
X0032212Y0248491D01*
X0032188Y0248346D01*
X0032160Y0248201D01*
X0032129Y0248057D01*
X0032093Y0247913D01*
X0032054Y0247771D01*
X0032011Y0247630D01*
X0031964Y0247490D01*
X0031913Y0247352D01*
X0031859Y0247214D01*
X0031801Y0247079D01*
X0031739Y0246945D01*
X0031674Y0246812D01*
X0031605Y0246682D01*
X0031533Y0246553D01*
X0031457Y0246427D01*
X0031378Y0246302D01*
X0031295Y0246180D01*
X0031210Y0246060D01*
X0031121Y0245942D01*
X0031028Y0245827D01*
X0030933Y0245714D01*
X0030835Y0245604D01*
X0030734Y0245496D01*
X0030630Y0245392D01*
X0030523Y0245290D01*
X0030414Y0245191D01*
X0030302Y0245095D01*
X0030187Y0245002D01*
X0030070Y0244912D01*
X0029950Y0244826D01*
X0029829Y0244743D01*
X0029705Y0244663D01*
X0029578Y0244586D01*
X0029450Y0244513D01*
X0029320Y0244443D01*
X0029188Y0244377D01*
X0029055Y0244314D01*
X0028920Y0244255D01*
X0028783Y0244200D01*
X0028645Y0244148D01*
X0028505Y0244100D01*
X0028364Y0244056D01*
X0028222Y0244016D01*
X0028079Y0243980D01*
X0027935Y0243947D01*
X0027791Y0243918D01*
X0027645Y0243894D01*
X0027499Y0243873D01*
X0027352Y0243856D01*
X0027205Y0243843D01*
X0027058Y0243834D01*
X0026911Y0243829D01*
X0026763Y0243828D01*
X0026616Y0243831D01*
X0026468Y0243838D01*
X0026321Y0243849D01*
X0026174Y0243864D01*
X0026028Y0243883D01*
X0025882Y0243906D01*
X0025737Y0243932D01*
X0025593Y0243963D01*
X0025449Y0243997D01*
X0025307Y0244036D01*
X0025165Y0244078D01*
X0025025Y0244124D01*
X0024886Y0244174D01*
X0024749Y0244227D01*
X0024613Y0244284D01*
X0024478Y0244345D01*
X0024345Y0244409D01*
X0024214Y0244477D01*
X0024085Y0244549D01*
X0023958Y0244624D01*
X0023833Y0244702D01*
X0023710Y0244784D01*
X0023590Y0244869D01*
X0023471Y0244957D01*
X0023355Y0245048D01*
X0023242Y0245143D01*
X0023131Y0245240D01*
X0023023Y0245340D01*
X0022918Y0245444D01*
X0022815Y0245550D01*
X0022715Y0245659D01*
X0022619Y0245770D01*
X0022525Y0245884D01*
X0022435Y0246001D01*
X0022347Y0246120D01*
X0022263Y0246241D01*
X0022182Y0246364D01*
X0022105Y0246490D01*
X0022031Y0246617D01*
X0021960Y0246747D01*
X0021893Y0246878D01*
X0021829Y0247012D01*
X0021770Y0247146D01*
X0021713Y0247283D01*
X0021661Y0247421D01*
X0021612Y0247560D01*
X0021567Y0247701D01*
X0021526Y0247842D01*
X0021488Y0247985D01*
X0021455Y0248129D01*
X0021425Y0248273D01*
X0021399Y0248418D01*
X0021378Y0248564D01*
X0021360Y0248711D01*
X0021346Y0248858D01*
X0021336Y0249005D01*
X0021330Y0249152D01*
X0021328Y0249300D01*
X0028059Y0243001D02*
X0028208Y0243032D01*
X0028356Y0243067D01*
X0028503Y0243106D01*
X0028648Y0243148D01*
X0028793Y0243193D01*
X0028937Y0243242D01*
X0029080Y0243295D01*
X0029221Y0243350D01*
X0029361Y0243409D01*
X0029500Y0243471D01*
X0029637Y0243537D01*
X0029772Y0243605D01*
X0029906Y0243677D01*
X0021524Y0245638D02*
X0021435Y0245770D01*
X0021349Y0245904D01*
X0021267Y0246040D01*
X0021188Y0246178D01*
X0021112Y0246318D01*
X0021040Y0246460D01*
X0020972Y0246603D01*
X0020907Y0246748D01*
X0020845Y0246895D01*
X0020788Y0247043D01*
X0020734Y0247193D01*
X0020683Y0247344D01*
X0020637Y0247496D01*
X0020594Y0247649D01*
X0020555Y0247803D01*
X0020520Y0247958D01*
X0020488Y0248114D01*
X0020461Y0248271D01*
X0020437Y0248428D01*
X0020418Y0248586D01*
X0020402Y0248744D01*
X0020390Y0248903D01*
X0020382Y0249062D01*
X0020378Y0249220D01*
X0020378Y0249380D01*
X0020382Y0249538D01*
X0020390Y0249697D01*
X0020402Y0249856D01*
X0020418Y0250014D01*
X0020437Y0250172D01*
X0020461Y0250329D01*
X0020488Y0250486D01*
X0020520Y0250642D01*
X0020555Y0250797D01*
X0020594Y0250951D01*
X0020637Y0251104D01*
X0020683Y0251256D01*
X0020734Y0251407D01*
X0020788Y0251557D01*
X0020845Y0251705D01*
X0020907Y0251852D01*
X0020972Y0251997D01*
X0021040Y0252140D01*
X0021112Y0252282D01*
X0021188Y0252422D01*
X0021267Y0252560D01*
X0021349Y0252696D01*
X0021435Y0252830D01*
X0021524Y0252962D01*
X0028059Y0255599D02*
X0028208Y0255568D01*
X0028356Y0255533D01*
X0028503Y0255494D01*
X0028648Y0255452D01*
X0028793Y0255407D01*
X0028937Y0255358D01*
X0029080Y0255305D01*
X0029221Y0255250D01*
X0029361Y0255191D01*
X0029500Y0255129D01*
X0029637Y0255063D01*
X0029772Y0254995D01*
X0029906Y0254923D01*
X0026879Y0255752D02*
X0026729Y0255752D01*
X0026579Y0255748D01*
X0026428Y0255741D01*
X0026278Y0255731D01*
X0026128Y0255717D01*
X0025979Y0255700D01*
X0025830Y0255679D01*
X0025681Y0255654D01*
X0025534Y0255626D01*
X0025386Y0255595D01*
X0025240Y0255561D01*
X0025094Y0255523D01*
X0024950Y0255481D01*
X0024950Y0243119D02*
X0025094Y0243078D01*
X0025240Y0243039D01*
X0025386Y0243005D01*
X0025533Y0242974D01*
X0025681Y0242946D01*
X0025829Y0242921D01*
X0025978Y0242901D01*
X0026127Y0242883D01*
X0026277Y0242869D01*
X0026427Y0242859D01*
X0026577Y0242852D01*
X0026727Y0242848D01*
X0026877Y0242848D01*
X0248300Y0243127D02*
X0248534Y0243361D01*
X0249468Y0243361D01*
X0249701Y0243127D01*
X0249701Y0242427D01*
X0248300Y0242427D01*
X0248300Y0243127D01*
X0248300Y0241888D02*
X0248300Y0240953D01*
X0249701Y0240953D01*
X0249701Y0241888D01*
X0249001Y0241421D02*
X0249001Y0240953D01*
X0249001Y0240414D02*
X0248767Y0240181D01*
X0248767Y0239480D01*
X0248300Y0239480D02*
X0249701Y0239480D01*
X0249701Y0240181D01*
X0249468Y0240414D01*
X0249001Y0240414D01*
X0248767Y0239947D02*
X0248300Y0240414D01*
X0248534Y0249034D02*
X0248300Y0249267D01*
X0248300Y0249734D01*
X0248534Y0249968D01*
X0249001Y0249968D01*
X0249001Y0249501D01*
X0249468Y0249968D02*
X0249701Y0249734D01*
X0249701Y0249267D01*
X0249468Y0249034D01*
X0248534Y0249034D01*
X0248767Y0250507D02*
X0248767Y0251208D01*
X0249001Y0251441D01*
X0249468Y0251441D01*
X0249701Y0251208D01*
X0249701Y0250507D01*
X0248300Y0250507D01*
X0248767Y0250974D02*
X0248300Y0251441D01*
X0248300Y0251980D02*
X0248300Y0252914D01*
X0248300Y0253453D02*
X0248300Y0254388D01*
X0248300Y0254927D02*
X0249701Y0254927D01*
X0248300Y0255861D01*
X0249701Y0255861D01*
X0249701Y0254388D02*
X0249701Y0253453D01*
X0248300Y0253453D01*
X0249001Y0253453D02*
X0249001Y0253921D01*
X0249701Y0252914D02*
X0249701Y0251980D01*
X0248300Y0251980D01*
X0249001Y0251980D02*
X0249001Y0252447D01*
X0291900Y0256400D02*
X0293301Y0256400D01*
X0292834Y0256867D01*
X0293301Y0257334D01*
X0291900Y0257334D01*
X0292134Y0257873D02*
X0291900Y0258107D01*
X0291900Y0258574D01*
X0292134Y0258807D01*
X0292367Y0259347D02*
X0292367Y0260047D01*
X0292601Y0260281D01*
X0293068Y0260281D01*
X0293301Y0260047D01*
X0293301Y0259347D01*
X0291900Y0259347D01*
X0293068Y0258807D02*
X0293301Y0258574D01*
X0293301Y0258107D01*
X0293068Y0257873D01*
X0292134Y0257873D01*
X0292134Y0260820D02*
X0291900Y0260820D01*
X0292134Y0260820D02*
X0293068Y0261754D01*
X0293301Y0261754D01*
X0293301Y0260820D01*
X0293068Y0262293D02*
X0293301Y0262527D01*
X0293301Y0262994D01*
X0293068Y0263227D01*
X0292834Y0263227D01*
X0292601Y0262994D01*
X0292367Y0263227D01*
X0292134Y0263227D01*
X0291900Y0262994D01*
X0291900Y0262527D01*
X0292134Y0262293D01*
X0292601Y0262760D02*
X0292601Y0262994D01*
X0292834Y0263766D02*
X0293068Y0263766D01*
X0293301Y0264000D01*
X0293301Y0264467D01*
X0293068Y0264700D01*
X0292834Y0264700D01*
X0292601Y0264467D01*
X0292601Y0264000D01*
X0292834Y0263766D01*
X0292601Y0264000D02*
X0292367Y0263766D01*
X0292134Y0263766D01*
X0291900Y0264000D01*
X0291900Y0264467D01*
X0292134Y0264700D01*
X0292367Y0264700D01*
X0292601Y0264467D01*
X0293068Y0265240D02*
X0293301Y0265473D01*
X0293301Y0265940D01*
X0293068Y0266174D01*
X0292834Y0266174D01*
X0292601Y0265940D01*
X0292367Y0266174D01*
X0292134Y0266174D01*
X0291900Y0265940D01*
X0291900Y0265473D01*
X0292134Y0265240D01*
X0292601Y0265707D02*
X0292601Y0265940D01*
X0292834Y0266713D02*
X0293301Y0267180D01*
X0291900Y0267180D01*
X0291900Y0266713D02*
X0291900Y0267647D01*
X0291900Y0268653D02*
X0293301Y0268653D01*
X0293301Y0268186D02*
X0293301Y0269120D01*
X0324900Y0269154D02*
X0325367Y0268687D01*
X0326301Y0268687D01*
X0326768Y0269154D01*
X0326768Y0270088D01*
X0326301Y0270555D01*
X0325367Y0270555D01*
X0324900Y0270088D01*
X0324900Y0269154D01*
X0324900Y0267793D02*
X0326301Y0267793D01*
X0326768Y0267326D01*
X0326768Y0266392D01*
X0326301Y0265925D01*
X0326768Y0265031D02*
X0326768Y0263629D01*
X0326301Y0263162D01*
X0325367Y0263162D01*
X0324900Y0263629D01*
X0324900Y0265031D01*
X0324900Y0265925D02*
X0327702Y0265925D01*
X0327235Y0262268D02*
X0327702Y0261801D01*
X0327702Y0260867D01*
X0327235Y0260400D01*
X0326768Y0260400D01*
X0326301Y0260867D01*
X0326301Y0261801D01*
X0325834Y0262268D01*
X0325367Y0262268D01*
X0324900Y0261801D01*
X0324900Y0260867D01*
X0325367Y0260400D01*
X0326768Y0271449D02*
X0326768Y0272384D01*
X0327235Y0271916D02*
X0325367Y0271916D01*
X0324900Y0272384D01*
X0325367Y0273758D02*
X0324900Y0274225D01*
X0325367Y0273758D02*
X0327235Y0273758D01*
X0326768Y0273291D02*
X0326768Y0274225D01*
X0325834Y0275133D02*
X0326768Y0276534D01*
X0326768Y0277435D02*
X0325367Y0277435D01*
X0324900Y0277902D01*
X0324900Y0279303D01*
X0324433Y0279303D02*
X0323966Y0278836D01*
X0323966Y0278369D01*
X0324433Y0279303D02*
X0326768Y0279303D01*
X0324900Y0276534D02*
X0325834Y0275133D01*
X0324900Y0275133D02*
X0327702Y0275133D01*
D131*
X0337000Y0250378D02*
X0336750Y0250127D01*
X0336750Y0249877D01*
X0337250Y0249627D02*
X0337500Y0249377D01*
X0338251Y0249377D01*
X0338251Y0248900D02*
X0337750Y0248149D01*
X0337250Y0248900D01*
X0337250Y0249627D02*
X0337250Y0250378D01*
X0337000Y0250378D02*
X0338251Y0250378D01*
X0338751Y0248149D02*
X0337250Y0248149D01*
X0337250Y0247667D02*
X0337500Y0247417D01*
X0338501Y0247417D01*
X0338251Y0247167D02*
X0338251Y0247667D01*
X0338251Y0246685D02*
X0338251Y0246185D01*
X0338501Y0246435D02*
X0337500Y0246435D01*
X0337250Y0246685D01*
X0337500Y0245712D02*
X0338001Y0245712D01*
X0338251Y0245462D01*
X0338251Y0244962D01*
X0338001Y0244711D01*
X0337500Y0244711D01*
X0337250Y0244962D01*
X0337250Y0245462D01*
X0337500Y0245712D01*
X0337250Y0244239D02*
X0338001Y0244239D01*
X0338251Y0243989D01*
X0338251Y0243488D01*
X0338001Y0243238D01*
X0338251Y0242766D02*
X0338251Y0242015D01*
X0338001Y0241765D01*
X0337500Y0241765D01*
X0337250Y0242015D01*
X0337250Y0242766D01*
X0337250Y0243238D02*
X0338751Y0243238D01*
X0338501Y0241292D02*
X0338751Y0241042D01*
X0338751Y0240542D01*
X0338501Y0240292D01*
X0338251Y0240292D01*
X0338001Y0240542D01*
X0338001Y0241042D01*
X0337750Y0241292D01*
X0337500Y0241292D01*
X0337250Y0241042D01*
X0337250Y0240542D01*
X0337500Y0240292D01*
X0305558Y0173751D02*
X0305058Y0173751D01*
X0304808Y0173501D01*
X0305058Y0173001D02*
X0304808Y0172750D01*
X0304808Y0172500D01*
X0305058Y0172250D01*
X0305558Y0172250D01*
X0305808Y0172500D01*
X0305558Y0173001D02*
X0305058Y0173001D01*
X0305558Y0173001D02*
X0305808Y0173251D01*
X0305808Y0173501D01*
X0305558Y0173751D01*
X0304335Y0173001D02*
X0304335Y0172500D01*
X0304085Y0172250D01*
X0303334Y0172250D01*
X0302862Y0172250D02*
X0302862Y0173751D01*
X0302612Y0173251D02*
X0302111Y0173251D01*
X0301861Y0173001D01*
X0301861Y0172250D01*
X0301389Y0172500D02*
X0301138Y0172250D01*
X0300638Y0172250D01*
X0300388Y0172500D01*
X0300388Y0173001D01*
X0300638Y0173251D01*
X0301138Y0173251D01*
X0301389Y0173001D01*
X0301389Y0172500D01*
X0302612Y0173251D02*
X0302862Y0173001D01*
X0303334Y0173251D02*
X0304085Y0173251D01*
X0304335Y0173001D01*
X0299915Y0173251D02*
X0299415Y0173251D01*
X0299665Y0173501D02*
X0299665Y0172500D01*
X0299415Y0172250D01*
X0298683Y0172500D02*
X0298433Y0172250D01*
X0298683Y0172500D02*
X0298683Y0173501D01*
X0298933Y0173251D02*
X0298433Y0173251D01*
X0297951Y0173751D02*
X0297951Y0172250D01*
X0297951Y0172750D02*
X0297200Y0173251D01*
X0296723Y0173251D02*
X0296723Y0172500D01*
X0296473Y0172250D01*
X0295722Y0172250D01*
X0295722Y0172000D02*
X0295973Y0171750D01*
X0296223Y0171750D01*
X0295722Y0172000D02*
X0295722Y0173251D01*
X0297200Y0172250D02*
X0297951Y0172750D01*
X0163971Y0136491D02*
X0164691Y0137031D01*
X0164690Y0137030D02*
X0164871Y0136797D01*
X0165057Y0136569D01*
X0165249Y0136345D01*
X0165446Y0136126D01*
X0165648Y0135912D01*
X0165856Y0135703D01*
X0166069Y0135500D01*
X0166286Y0135301D01*
X0166509Y0135108D01*
X0166736Y0134920D01*
X0166967Y0134738D01*
X0167203Y0134561D01*
X0167444Y0134391D01*
X0167688Y0134226D01*
X0167936Y0134068D01*
X0168188Y0133915D01*
X0168444Y0133769D01*
X0168703Y0133629D01*
X0168966Y0133495D01*
X0169231Y0133368D01*
X0169500Y0133247D01*
X0169772Y0133133D01*
X0170046Y0133026D01*
X0170323Y0132925D01*
X0170602Y0132831D01*
X0170884Y0132744D01*
X0171167Y0132664D01*
X0171453Y0132591D01*
X0171740Y0132525D01*
X0172029Y0132466D01*
X0172319Y0132414D01*
X0172610Y0132369D01*
X0172902Y0132331D01*
X0173195Y0132301D01*
X0173489Y0132277D01*
X0173783Y0132261D01*
X0174077Y0132252D01*
X0174372Y0132250D01*
X0174667Y0132256D01*
X0174961Y0132268D01*
X0175255Y0132288D01*
X0175548Y0132315D01*
X0175841Y0132349D01*
X0176133Y0132390D01*
X0176423Y0132439D01*
X0176713Y0132494D01*
X0177000Y0132556D01*
X0177287Y0132626D01*
X0177571Y0132703D01*
X0177854Y0132786D01*
X0178134Y0132876D01*
X0178412Y0132973D01*
X0178688Y0133077D01*
X0178961Y0133188D01*
X0179231Y0133305D01*
X0179499Y0133429D01*
X0179763Y0133559D01*
X0180024Y0133696D01*
X0180281Y0133839D01*
X0180535Y0133989D01*
X0180786Y0134144D01*
X0181032Y0134306D01*
X0181274Y0134473D01*
X0181512Y0134647D01*
X0181746Y0134826D01*
X0181976Y0135011D01*
X0182200Y0135201D01*
X0182421Y0135397D01*
X0182636Y0135598D01*
X0182846Y0135805D01*
X0183051Y0136016D01*
X0183251Y0136233D01*
X0183446Y0136454D01*
X0183635Y0136680D01*
X0183818Y0136910D01*
X0183996Y0137145D01*
X0184168Y0137385D01*
X0184334Y0137628D01*
X0184494Y0137875D01*
X0184648Y0138126D01*
X0184796Y0138381D01*
X0184938Y0138640D01*
X0185073Y0138901D01*
X0185202Y0139166D01*
X0185324Y0139434D01*
X0185440Y0139705D01*
X0185549Y0139979D01*
X0185651Y0140255D01*
X0185746Y0140534D01*
X0185835Y0140815D01*
X0185917Y0141098D01*
X0185992Y0141383D01*
X0186059Y0141670D01*
X0186120Y0141958D01*
X0186174Y0142248D01*
X0186221Y0142539D01*
X0186260Y0142831D01*
X0186292Y0143123D01*
X0186318Y0143417D01*
X0186336Y0143711D01*
X0186346Y0144005D01*
X0186350Y0144300D01*
X0186346Y0144595D01*
X0186336Y0144889D01*
X0186318Y0145183D01*
X0186292Y0145477D01*
X0186260Y0145769D01*
X0186221Y0146061D01*
X0186174Y0146352D01*
X0186120Y0146642D01*
X0186059Y0146930D01*
X0185992Y0147217D01*
X0185917Y0147502D01*
X0185835Y0147785D01*
X0185746Y0148066D01*
X0185651Y0148345D01*
X0185549Y0148621D01*
X0185440Y0148895D01*
X0185324Y0149166D01*
X0185202Y0149434D01*
X0185073Y0149699D01*
X0184938Y0149960D01*
X0184796Y0150219D01*
X0184648Y0150474D01*
X0184494Y0150725D01*
X0184334Y0150972D01*
X0184168Y0151215D01*
X0183996Y0151455D01*
X0183818Y0151690D01*
X0183635Y0151920D01*
X0183446Y0152146D01*
X0183251Y0152367D01*
X0183051Y0152584D01*
X0182846Y0152795D01*
X0182636Y0153002D01*
X0182421Y0153203D01*
X0182200Y0153399D01*
X0181976Y0153589D01*
X0181746Y0153774D01*
X0181512Y0153953D01*
X0181274Y0154127D01*
X0181032Y0154294D01*
X0180786Y0154456D01*
X0180535Y0154611D01*
X0180281Y0154761D01*
X0180024Y0154904D01*
X0179763Y0155041D01*
X0179499Y0155171D01*
X0179231Y0155295D01*
X0178961Y0155412D01*
X0178688Y0155523D01*
X0178412Y0155627D01*
X0178134Y0155724D01*
X0177854Y0155814D01*
X0177571Y0155897D01*
X0177287Y0155974D01*
X0177000Y0156044D01*
X0176713Y0156106D01*
X0176423Y0156161D01*
X0176133Y0156210D01*
X0175841Y0156251D01*
X0175548Y0156285D01*
X0175255Y0156312D01*
X0174961Y0156332D01*
X0174667Y0156344D01*
X0174372Y0156350D01*
X0174077Y0156348D01*
X0173783Y0156339D01*
X0173489Y0156323D01*
X0173195Y0156299D01*
X0172902Y0156269D01*
X0172610Y0156231D01*
X0172319Y0156186D01*
X0172029Y0156134D01*
X0171740Y0156075D01*
X0171453Y0156009D01*
X0171167Y0155936D01*
X0170884Y0155856D01*
X0170602Y0155769D01*
X0170323Y0155675D01*
X0170046Y0155574D01*
X0169772Y0155467D01*
X0169500Y0155353D01*
X0169231Y0155232D01*
X0168966Y0155105D01*
X0168703Y0154971D01*
X0168444Y0154831D01*
X0168188Y0154685D01*
X0167936Y0154532D01*
X0167688Y0154374D01*
X0167444Y0154209D01*
X0167203Y0154039D01*
X0166967Y0153862D01*
X0166736Y0153680D01*
X0166509Y0153492D01*
X0166286Y0153299D01*
X0166069Y0153100D01*
X0165856Y0152897D01*
X0165648Y0152688D01*
X0165446Y0152474D01*
X0165249Y0152255D01*
X0165057Y0152031D01*
X0164871Y0151803D01*
X0164690Y0151570D01*
X0163971Y0152109D01*
X0163970Y0152110D01*
X0164164Y0152360D01*
X0164364Y0152606D01*
X0164570Y0152846D01*
X0164782Y0153081D01*
X0165000Y0153311D01*
X0165223Y0153536D01*
X0165451Y0153755D01*
X0165685Y0153969D01*
X0165924Y0154177D01*
X0166168Y0154379D01*
X0166417Y0154574D01*
X0166671Y0154764D01*
X0166929Y0154947D01*
X0167191Y0155124D01*
X0167458Y0155295D01*
X0167729Y0155459D01*
X0168004Y0155616D01*
X0168282Y0155767D01*
X0168565Y0155911D01*
X0168850Y0156047D01*
X0169139Y0156177D01*
X0169431Y0156300D01*
X0169726Y0156415D01*
X0170023Y0156523D01*
X0170324Y0156624D01*
X0170626Y0156718D01*
X0170931Y0156804D01*
X0171238Y0156883D01*
X0171546Y0156954D01*
X0171856Y0157017D01*
X0172168Y0157073D01*
X0172481Y0157122D01*
X0172795Y0157162D01*
X0173110Y0157195D01*
X0173426Y0157220D01*
X0173742Y0157238D01*
X0174058Y0157248D01*
X0174375Y0157250D01*
X0174692Y0157244D01*
X0175008Y0157231D01*
X0175324Y0157209D01*
X0175639Y0157181D01*
X0175954Y0157144D01*
X0176267Y0157100D01*
X0176580Y0157048D01*
X0176891Y0156988D01*
X0177200Y0156921D01*
X0177508Y0156846D01*
X0177814Y0156764D01*
X0178117Y0156675D01*
X0178419Y0156578D01*
X0178718Y0156473D01*
X0179014Y0156361D01*
X0179308Y0156243D01*
X0179598Y0156117D01*
X0179885Y0155984D01*
X0180170Y0155843D01*
X0180450Y0155696D01*
X0180727Y0155543D01*
X0181000Y0155382D01*
X0181269Y0155215D01*
X0181534Y0155041D01*
X0181794Y0154861D01*
X0182050Y0154675D01*
X0182301Y0154482D01*
X0182548Y0154284D01*
X0182790Y0154079D01*
X0183026Y0153869D01*
X0183258Y0153652D01*
X0183483Y0153430D01*
X0183704Y0153203D01*
X0183919Y0152971D01*
X0184128Y0152733D01*
X0184331Y0152490D01*
X0184529Y0152242D01*
X0184720Y0151990D01*
X0184905Y0151733D01*
X0185083Y0151471D01*
X0185255Y0151205D01*
X0185421Y0150936D01*
X0185580Y0150662D01*
X0185732Y0150384D01*
X0185877Y0150103D01*
X0186016Y0149818D01*
X0186147Y0149530D01*
X0186271Y0149238D01*
X0186389Y0148944D01*
X0186499Y0148647D01*
X0186601Y0148348D01*
X0186696Y0148046D01*
X0186784Y0147742D01*
X0186865Y0147435D01*
X0186938Y0147127D01*
X0187003Y0146817D01*
X0187061Y0146506D01*
X0187111Y0146193D01*
X0187153Y0145879D01*
X0187188Y0145565D01*
X0187215Y0145249D01*
X0187235Y0144933D01*
X0187246Y0144617D01*
X0187250Y0144300D01*
X0187246Y0143983D01*
X0187235Y0143667D01*
X0187215Y0143351D01*
X0187188Y0143035D01*
X0187153Y0142721D01*
X0187111Y0142407D01*
X0187061Y0142094D01*
X0187003Y0141783D01*
X0186938Y0141473D01*
X0186865Y0141165D01*
X0186784Y0140858D01*
X0186696Y0140554D01*
X0186601Y0140252D01*
X0186499Y0139953D01*
X0186389Y0139656D01*
X0186271Y0139362D01*
X0186147Y0139070D01*
X0186016Y0138782D01*
X0185877Y0138497D01*
X0185732Y0138216D01*
X0185580Y0137938D01*
X0185421Y0137664D01*
X0185255Y0137395D01*
X0185083Y0137129D01*
X0184905Y0136867D01*
X0184720Y0136610D01*
X0184529Y0136358D01*
X0184331Y0136110D01*
X0184128Y0135867D01*
X0183919Y0135629D01*
X0183704Y0135397D01*
X0183483Y0135170D01*
X0183258Y0134948D01*
X0183026Y0134731D01*
X0182790Y0134521D01*
X0182548Y0134316D01*
X0182301Y0134118D01*
X0182050Y0133925D01*
X0181794Y0133739D01*
X0181534Y0133559D01*
X0181269Y0133385D01*
X0181000Y0133218D01*
X0180727Y0133057D01*
X0180450Y0132904D01*
X0180170Y0132757D01*
X0179885Y0132616D01*
X0179598Y0132483D01*
X0179308Y0132357D01*
X0179014Y0132239D01*
X0178718Y0132127D01*
X0178419Y0132022D01*
X0178117Y0131925D01*
X0177814Y0131836D01*
X0177508Y0131754D01*
X0177200Y0131679D01*
X0176891Y0131612D01*
X0176580Y0131552D01*
X0176267Y0131500D01*
X0175954Y0131456D01*
X0175639Y0131419D01*
X0175324Y0131391D01*
X0175008Y0131369D01*
X0174692Y0131356D01*
X0174375Y0131350D01*
X0174058Y0131352D01*
X0173742Y0131362D01*
X0173426Y0131380D01*
X0173110Y0131405D01*
X0172795Y0131438D01*
X0172481Y0131478D01*
X0172168Y0131527D01*
X0171856Y0131583D01*
X0171546Y0131646D01*
X0171238Y0131717D01*
X0170931Y0131796D01*
X0170626Y0131882D01*
X0170324Y0131976D01*
X0170023Y0132077D01*
X0169726Y0132185D01*
X0169431Y0132300D01*
X0169139Y0132423D01*
X0168850Y0132553D01*
X0168565Y0132689D01*
X0168282Y0132833D01*
X0168004Y0132984D01*
X0167729Y0133141D01*
X0167458Y0133305D01*
X0167191Y0133476D01*
X0166929Y0133653D01*
X0166671Y0133836D01*
X0166417Y0134026D01*
X0166168Y0134221D01*
X0165924Y0134423D01*
X0165685Y0134631D01*
X0165451Y0134845D01*
X0165223Y0135064D01*
X0165000Y0135289D01*
X0164782Y0135519D01*
X0164570Y0135754D01*
X0164364Y0135994D01*
X0164164Y0136240D01*
X0163970Y0136490D01*
X0164045Y0136546D01*
X0164238Y0136298D01*
X0164437Y0136054D01*
X0164641Y0135816D01*
X0164851Y0135582D01*
X0165067Y0135354D01*
X0165289Y0135131D01*
X0165516Y0134913D01*
X0165748Y0134701D01*
X0165985Y0134495D01*
X0166227Y0134294D01*
X0166475Y0134100D01*
X0166726Y0133912D01*
X0166983Y0133730D01*
X0167243Y0133554D01*
X0167508Y0133385D01*
X0167777Y0133222D01*
X0168050Y0133066D01*
X0168326Y0132916D01*
X0168606Y0132774D01*
X0168890Y0132638D01*
X0169177Y0132509D01*
X0169467Y0132387D01*
X0169759Y0132273D01*
X0170055Y0132165D01*
X0170353Y0132065D01*
X0170653Y0131972D01*
X0170956Y0131887D01*
X0171260Y0131809D01*
X0171566Y0131738D01*
X0171874Y0131675D01*
X0172184Y0131619D01*
X0172494Y0131571D01*
X0172806Y0131531D01*
X0173119Y0131498D01*
X0173432Y0131473D01*
X0173746Y0131456D01*
X0174060Y0131446D01*
X0174375Y0131444D01*
X0174689Y0131450D01*
X0175003Y0131463D01*
X0175317Y0131484D01*
X0175630Y0131513D01*
X0175942Y0131549D01*
X0176253Y0131593D01*
X0176563Y0131645D01*
X0176872Y0131704D01*
X0177179Y0131771D01*
X0177485Y0131845D01*
X0177788Y0131926D01*
X0178090Y0132015D01*
X0178389Y0132112D01*
X0178686Y0132215D01*
X0178980Y0132326D01*
X0179271Y0132444D01*
X0179560Y0132569D01*
X0179845Y0132701D01*
X0180127Y0132840D01*
X0180405Y0132986D01*
X0180680Y0133139D01*
X0180951Y0133298D01*
X0181218Y0133464D01*
X0181481Y0133637D01*
X0181740Y0133815D01*
X0181994Y0134000D01*
X0182243Y0134192D01*
X0182488Y0134389D01*
X0182728Y0134592D01*
X0182963Y0134801D01*
X0183193Y0135016D01*
X0183417Y0135236D01*
X0183636Y0135461D01*
X0183849Y0135692D01*
X0184057Y0135928D01*
X0184259Y0136170D01*
X0184454Y0136415D01*
X0184644Y0136666D01*
X0184828Y0136921D01*
X0185005Y0137181D01*
X0185176Y0137445D01*
X0185340Y0137713D01*
X0185498Y0137985D01*
X0185649Y0138260D01*
X0185793Y0138540D01*
X0185931Y0138822D01*
X0186061Y0139108D01*
X0186185Y0139397D01*
X0186301Y0139690D01*
X0186410Y0139984D01*
X0186512Y0140282D01*
X0186606Y0140581D01*
X0186694Y0140884D01*
X0186774Y0141188D01*
X0186846Y0141493D01*
X0186911Y0141801D01*
X0186968Y0142110D01*
X0187018Y0142421D01*
X0187060Y0142732D01*
X0187095Y0143045D01*
X0187121Y0143358D01*
X0187141Y0143672D01*
X0187152Y0143986D01*
X0187156Y0144300D01*
X0187152Y0144614D01*
X0187141Y0144928D01*
X0187121Y0145242D01*
X0187095Y0145555D01*
X0187060Y0145868D01*
X0187018Y0146179D01*
X0186968Y0146490D01*
X0186911Y0146799D01*
X0186846Y0147107D01*
X0186774Y0147412D01*
X0186694Y0147716D01*
X0186606Y0148019D01*
X0186512Y0148318D01*
X0186410Y0148616D01*
X0186301Y0148910D01*
X0186185Y0149203D01*
X0186061Y0149492D01*
X0185931Y0149778D01*
X0185793Y0150060D01*
X0185649Y0150340D01*
X0185498Y0150615D01*
X0185340Y0150887D01*
X0185176Y0151155D01*
X0185005Y0151419D01*
X0184828Y0151679D01*
X0184644Y0151934D01*
X0184454Y0152185D01*
X0184259Y0152430D01*
X0184057Y0152672D01*
X0183849Y0152908D01*
X0183636Y0153139D01*
X0183417Y0153364D01*
X0183193Y0153584D01*
X0182963Y0153799D01*
X0182728Y0154008D01*
X0182488Y0154211D01*
X0182243Y0154408D01*
X0181994Y0154600D01*
X0181740Y0154785D01*
X0181481Y0154963D01*
X0181218Y0155136D01*
X0180951Y0155302D01*
X0180680Y0155461D01*
X0180405Y0155614D01*
X0180127Y0155760D01*
X0179845Y0155899D01*
X0179560Y0156031D01*
X0179271Y0156156D01*
X0178980Y0156274D01*
X0178686Y0156385D01*
X0178389Y0156488D01*
X0178090Y0156585D01*
X0177788Y0156674D01*
X0177485Y0156755D01*
X0177179Y0156829D01*
X0176872Y0156896D01*
X0176563Y0156955D01*
X0176253Y0157007D01*
X0175942Y0157051D01*
X0175630Y0157087D01*
X0175317Y0157116D01*
X0175003Y0157137D01*
X0174689Y0157150D01*
X0174375Y0157156D01*
X0174060Y0157154D01*
X0173746Y0157144D01*
X0173432Y0157127D01*
X0173119Y0157102D01*
X0172806Y0157069D01*
X0172494Y0157029D01*
X0172184Y0156981D01*
X0171874Y0156925D01*
X0171566Y0156862D01*
X0171260Y0156791D01*
X0170956Y0156713D01*
X0170653Y0156628D01*
X0170353Y0156535D01*
X0170055Y0156435D01*
X0169759Y0156327D01*
X0169467Y0156213D01*
X0169177Y0156091D01*
X0168890Y0155962D01*
X0168606Y0155826D01*
X0168326Y0155684D01*
X0168050Y0155534D01*
X0167777Y0155378D01*
X0167508Y0155215D01*
X0167243Y0155046D01*
X0166983Y0154870D01*
X0166726Y0154688D01*
X0166475Y0154500D01*
X0166227Y0154306D01*
X0165985Y0154105D01*
X0165748Y0153899D01*
X0165516Y0153687D01*
X0165289Y0153469D01*
X0165067Y0153246D01*
X0164851Y0153018D01*
X0164641Y0152784D01*
X0164437Y0152546D01*
X0164238Y0152302D01*
X0164045Y0152054D01*
X0164120Y0151997D01*
X0164312Y0152244D01*
X0164509Y0152486D01*
X0164712Y0152723D01*
X0164921Y0152954D01*
X0165135Y0153181D01*
X0165355Y0153403D01*
X0165580Y0153619D01*
X0165811Y0153829D01*
X0166046Y0154034D01*
X0166287Y0154233D01*
X0166532Y0154426D01*
X0166782Y0154612D01*
X0167036Y0154793D01*
X0167295Y0154968D01*
X0167558Y0155136D01*
X0167825Y0155297D01*
X0168096Y0155452D01*
X0168370Y0155601D01*
X0168648Y0155742D01*
X0168930Y0155877D01*
X0169214Y0156005D01*
X0169502Y0156126D01*
X0169793Y0156240D01*
X0170086Y0156346D01*
X0170382Y0156446D01*
X0170680Y0156538D01*
X0170980Y0156623D01*
X0171283Y0156700D01*
X0171587Y0156770D01*
X0171892Y0156833D01*
X0172199Y0156888D01*
X0172508Y0156936D01*
X0172817Y0156976D01*
X0173128Y0157008D01*
X0173439Y0157033D01*
X0173750Y0157050D01*
X0174062Y0157060D01*
X0174374Y0157062D01*
X0174686Y0157056D01*
X0174998Y0157043D01*
X0175309Y0157022D01*
X0175620Y0156994D01*
X0175930Y0156957D01*
X0176239Y0156914D01*
X0176547Y0156863D01*
X0176854Y0156804D01*
X0177158Y0156738D01*
X0177462Y0156664D01*
X0177763Y0156583D01*
X0178062Y0156495D01*
X0178359Y0156399D01*
X0178654Y0156296D01*
X0178946Y0156186D01*
X0179235Y0156069D01*
X0179522Y0155945D01*
X0179805Y0155814D01*
X0180085Y0155676D01*
X0180361Y0155531D01*
X0180634Y0155379D01*
X0180903Y0155221D01*
X0181168Y0155056D01*
X0181429Y0154885D01*
X0181685Y0154708D01*
X0181938Y0154524D01*
X0182185Y0154334D01*
X0182428Y0154139D01*
X0182667Y0153937D01*
X0182900Y0153729D01*
X0183128Y0153516D01*
X0183350Y0153298D01*
X0183568Y0153074D01*
X0183779Y0152845D01*
X0183985Y0152610D01*
X0184186Y0152371D01*
X0184380Y0152127D01*
X0184568Y0151878D01*
X0184751Y0151625D01*
X0184927Y0151367D01*
X0185096Y0151105D01*
X0185259Y0150839D01*
X0185416Y0150569D01*
X0185566Y0150295D01*
X0185709Y0150018D01*
X0185846Y0149738D01*
X0185975Y0149454D01*
X0186098Y0149167D01*
X0186213Y0148877D01*
X0186321Y0148584D01*
X0186423Y0148289D01*
X0186517Y0147991D01*
X0186603Y0147691D01*
X0186682Y0147390D01*
X0186754Y0147086D01*
X0186819Y0146781D01*
X0186876Y0146474D01*
X0186925Y0146166D01*
X0186967Y0145856D01*
X0187001Y0145546D01*
X0187028Y0145235D01*
X0187047Y0144924D01*
X0187058Y0144612D01*
X0187062Y0144300D01*
X0187058Y0143988D01*
X0187047Y0143676D01*
X0187028Y0143365D01*
X0187001Y0143054D01*
X0186967Y0142744D01*
X0186925Y0142434D01*
X0186876Y0142126D01*
X0186819Y0141819D01*
X0186754Y0141514D01*
X0186682Y0141210D01*
X0186603Y0140909D01*
X0186517Y0140609D01*
X0186423Y0140311D01*
X0186321Y0140016D01*
X0186213Y0139723D01*
X0186098Y0139433D01*
X0185975Y0139146D01*
X0185846Y0138862D01*
X0185709Y0138582D01*
X0185566Y0138305D01*
X0185416Y0138031D01*
X0185259Y0137761D01*
X0185096Y0137495D01*
X0184927Y0137233D01*
X0184751Y0136975D01*
X0184568Y0136722D01*
X0184380Y0136473D01*
X0184186Y0136229D01*
X0183985Y0135990D01*
X0183779Y0135755D01*
X0183568Y0135526D01*
X0183350Y0135302D01*
X0183128Y0135084D01*
X0182900Y0134871D01*
X0182667Y0134663D01*
X0182428Y0134461D01*
X0182185Y0134266D01*
X0181938Y0134076D01*
X0181685Y0133892D01*
X0181429Y0133715D01*
X0181168Y0133544D01*
X0180903Y0133379D01*
X0180634Y0133221D01*
X0180361Y0133069D01*
X0180085Y0132924D01*
X0179805Y0132786D01*
X0179522Y0132655D01*
X0179235Y0132531D01*
X0178946Y0132414D01*
X0178654Y0132304D01*
X0178359Y0132201D01*
X0178062Y0132105D01*
X0177763Y0132017D01*
X0177462Y0131936D01*
X0177158Y0131862D01*
X0176854Y0131796D01*
X0176547Y0131737D01*
X0176239Y0131686D01*
X0175930Y0131643D01*
X0175620Y0131606D01*
X0175309Y0131578D01*
X0174998Y0131557D01*
X0174686Y0131544D01*
X0174374Y0131538D01*
X0174062Y0131540D01*
X0173750Y0131550D01*
X0173439Y0131567D01*
X0173128Y0131592D01*
X0172817Y0131624D01*
X0172508Y0131664D01*
X0172199Y0131712D01*
X0171892Y0131767D01*
X0171587Y0131830D01*
X0171283Y0131900D01*
X0170980Y0131977D01*
X0170680Y0132062D01*
X0170382Y0132154D01*
X0170086Y0132254D01*
X0169793Y0132360D01*
X0169502Y0132474D01*
X0169214Y0132595D01*
X0168930Y0132723D01*
X0168648Y0132858D01*
X0168370Y0132999D01*
X0168096Y0133148D01*
X0167825Y0133303D01*
X0167558Y0133464D01*
X0167295Y0133632D01*
X0167036Y0133807D01*
X0166782Y0133988D01*
X0166532Y0134174D01*
X0166287Y0134367D01*
X0166046Y0134566D01*
X0165811Y0134771D01*
X0165580Y0134981D01*
X0165355Y0135197D01*
X0165135Y0135419D01*
X0164921Y0135646D01*
X0164712Y0135877D01*
X0164509Y0136114D01*
X0164312Y0136356D01*
X0164120Y0136603D01*
X0164196Y0136659D01*
X0164386Y0136414D01*
X0164581Y0136174D01*
X0164783Y0135939D01*
X0164990Y0135709D01*
X0165203Y0135484D01*
X0165421Y0135264D01*
X0165645Y0135050D01*
X0165874Y0134841D01*
X0166107Y0134638D01*
X0166346Y0134440D01*
X0166589Y0134249D01*
X0166838Y0134063D01*
X0167090Y0133884D01*
X0167347Y0133711D01*
X0167608Y0133544D01*
X0167873Y0133383D01*
X0168142Y0133230D01*
X0168414Y0133082D01*
X0168690Y0132942D01*
X0168970Y0132808D01*
X0169252Y0132681D01*
X0169538Y0132561D01*
X0169826Y0132448D01*
X0170117Y0132342D01*
X0170411Y0132244D01*
X0170707Y0132152D01*
X0171005Y0132068D01*
X0171305Y0131991D01*
X0171607Y0131922D01*
X0171910Y0131859D01*
X0172215Y0131805D01*
X0172521Y0131757D01*
X0172829Y0131718D01*
X0173137Y0131686D01*
X0173445Y0131661D01*
X0173755Y0131644D01*
X0174064Y0131634D01*
X0174374Y0131632D01*
X0174684Y0131638D01*
X0174993Y0131651D01*
X0175302Y0131672D01*
X0175611Y0131700D01*
X0175918Y0131736D01*
X0176225Y0131779D01*
X0176531Y0131830D01*
X0176835Y0131888D01*
X0177138Y0131954D01*
X0177439Y0132027D01*
X0177738Y0132107D01*
X0178035Y0132195D01*
X0178330Y0132290D01*
X0178622Y0132392D01*
X0178912Y0132501D01*
X0179199Y0132618D01*
X0179483Y0132741D01*
X0179764Y0132871D01*
X0180042Y0133008D01*
X0180316Y0133152D01*
X0180587Y0133302D01*
X0180854Y0133459D01*
X0181117Y0133623D01*
X0181376Y0133793D01*
X0181631Y0133969D01*
X0181882Y0134151D01*
X0182127Y0134340D01*
X0182369Y0134534D01*
X0182605Y0134734D01*
X0182836Y0134940D01*
X0183063Y0135152D01*
X0183284Y0135369D01*
X0183499Y0135591D01*
X0183710Y0135818D01*
X0183914Y0136051D01*
X0184113Y0136289D01*
X0184306Y0136531D01*
X0184493Y0136778D01*
X0184674Y0137029D01*
X0184848Y0137285D01*
X0185017Y0137545D01*
X0185179Y0137809D01*
X0185334Y0138077D01*
X0185483Y0138349D01*
X0185625Y0138624D01*
X0185761Y0138903D01*
X0185889Y0139184D01*
X0186011Y0139469D01*
X0186125Y0139757D01*
X0186233Y0140048D01*
X0186333Y0140341D01*
X0186427Y0140636D01*
X0186513Y0140934D01*
X0186591Y0141233D01*
X0186662Y0141535D01*
X0186726Y0141838D01*
X0186783Y0142142D01*
X0186832Y0142448D01*
X0186873Y0142755D01*
X0186907Y0143063D01*
X0186934Y0143372D01*
X0186953Y0143681D01*
X0186964Y0143990D01*
X0186968Y0144300D01*
X0186964Y0144610D01*
X0186953Y0144919D01*
X0186934Y0145228D01*
X0186907Y0145537D01*
X0186873Y0145845D01*
X0186832Y0146152D01*
X0186783Y0146458D01*
X0186726Y0146762D01*
X0186662Y0147065D01*
X0186591Y0147367D01*
X0186513Y0147666D01*
X0186427Y0147964D01*
X0186333Y0148259D01*
X0186233Y0148552D01*
X0186125Y0148843D01*
X0186011Y0149131D01*
X0185889Y0149416D01*
X0185761Y0149697D01*
X0185625Y0149976D01*
X0185483Y0150251D01*
X0185334Y0150523D01*
X0185179Y0150791D01*
X0185017Y0151055D01*
X0184848Y0151315D01*
X0184674Y0151571D01*
X0184493Y0151822D01*
X0184306Y0152069D01*
X0184113Y0152311D01*
X0183914Y0152549D01*
X0183710Y0152782D01*
X0183499Y0153009D01*
X0183284Y0153231D01*
X0183063Y0153448D01*
X0182836Y0153660D01*
X0182605Y0153866D01*
X0182369Y0154066D01*
X0182127Y0154260D01*
X0181882Y0154449D01*
X0181631Y0154631D01*
X0181376Y0154807D01*
X0181117Y0154977D01*
X0180854Y0155141D01*
X0180587Y0155298D01*
X0180316Y0155448D01*
X0180042Y0155592D01*
X0179764Y0155729D01*
X0179483Y0155859D01*
X0179199Y0155982D01*
X0178912Y0156099D01*
X0178622Y0156208D01*
X0178330Y0156310D01*
X0178035Y0156405D01*
X0177738Y0156493D01*
X0177439Y0156573D01*
X0177138Y0156646D01*
X0176835Y0156712D01*
X0176531Y0156770D01*
X0176225Y0156821D01*
X0175918Y0156864D01*
X0175611Y0156900D01*
X0175302Y0156928D01*
X0174993Y0156949D01*
X0174684Y0156962D01*
X0174374Y0156968D01*
X0174064Y0156966D01*
X0173755Y0156956D01*
X0173445Y0156939D01*
X0173137Y0156914D01*
X0172829Y0156882D01*
X0172521Y0156843D01*
X0172215Y0156795D01*
X0171910Y0156741D01*
X0171607Y0156678D01*
X0171305Y0156609D01*
X0171005Y0156532D01*
X0170707Y0156448D01*
X0170411Y0156356D01*
X0170117Y0156258D01*
X0169826Y0156152D01*
X0169538Y0156039D01*
X0169252Y0155919D01*
X0168970Y0155792D01*
X0168690Y0155658D01*
X0168414Y0155518D01*
X0168142Y0155370D01*
X0167873Y0155217D01*
X0167608Y0155056D01*
X0167347Y0154889D01*
X0167090Y0154716D01*
X0166838Y0154537D01*
X0166589Y0154351D01*
X0166346Y0154160D01*
X0166107Y0153962D01*
X0165874Y0153759D01*
X0165645Y0153550D01*
X0165421Y0153336D01*
X0165203Y0153116D01*
X0164990Y0152891D01*
X0164783Y0152661D01*
X0164581Y0152426D01*
X0164386Y0152186D01*
X0164196Y0151941D01*
X0164271Y0151884D01*
X0164459Y0152127D01*
X0164654Y0152366D01*
X0164854Y0152599D01*
X0165059Y0152827D01*
X0165271Y0153051D01*
X0165487Y0153269D01*
X0165709Y0153482D01*
X0165936Y0153689D01*
X0166168Y0153891D01*
X0166405Y0154087D01*
X0166647Y0154277D01*
X0166893Y0154461D01*
X0167144Y0154639D01*
X0167399Y0154811D01*
X0167658Y0154976D01*
X0167921Y0155136D01*
X0168188Y0155288D01*
X0168458Y0155435D01*
X0168732Y0155574D01*
X0169009Y0155707D01*
X0169290Y0155833D01*
X0169573Y0155952D01*
X0169860Y0156064D01*
X0170149Y0156169D01*
X0170440Y0156267D01*
X0170734Y0156358D01*
X0171030Y0156441D01*
X0171327Y0156518D01*
X0171627Y0156587D01*
X0171928Y0156648D01*
X0172231Y0156703D01*
X0172535Y0156749D01*
X0172840Y0156789D01*
X0173145Y0156821D01*
X0173452Y0156845D01*
X0173759Y0156862D01*
X0174066Y0156872D01*
X0174374Y0156874D01*
X0174681Y0156868D01*
X0174988Y0156855D01*
X0175295Y0156835D01*
X0175601Y0156806D01*
X0175907Y0156771D01*
X0176211Y0156728D01*
X0176514Y0156677D01*
X0176816Y0156620D01*
X0177117Y0156554D01*
X0177416Y0156482D01*
X0177712Y0156402D01*
X0178007Y0156315D01*
X0178300Y0156221D01*
X0178590Y0156119D01*
X0178878Y0156011D01*
X0179163Y0155896D01*
X0179445Y0155773D01*
X0179724Y0155644D01*
X0180000Y0155508D01*
X0180272Y0155365D01*
X0180541Y0155216D01*
X0180806Y0155060D01*
X0181067Y0154898D01*
X0181324Y0154729D01*
X0181577Y0154554D01*
X0181825Y0154373D01*
X0182069Y0154186D01*
X0182309Y0153993D01*
X0182543Y0153795D01*
X0182773Y0153590D01*
X0182998Y0153380D01*
X0183217Y0153165D01*
X0183431Y0152944D01*
X0183640Y0152719D01*
X0183843Y0152488D01*
X0184040Y0152252D01*
X0184232Y0152011D01*
X0184417Y0151766D01*
X0184597Y0151517D01*
X0184770Y0151263D01*
X0184937Y0151005D01*
X0185098Y0150743D01*
X0185252Y0150477D01*
X0185400Y0150207D01*
X0185541Y0149934D01*
X0185676Y0149657D01*
X0185803Y0149378D01*
X0185924Y0149095D01*
X0186038Y0148809D01*
X0186144Y0148521D01*
X0186244Y0148230D01*
X0186337Y0147937D01*
X0186422Y0147641D01*
X0186500Y0147344D01*
X0186571Y0147045D01*
X0186634Y0146744D01*
X0186690Y0146442D01*
X0186739Y0146138D01*
X0186780Y0145833D01*
X0186814Y0145528D01*
X0186840Y0145222D01*
X0186859Y0144915D01*
X0186870Y0144607D01*
X0186874Y0144300D01*
X0186870Y0143993D01*
X0186859Y0143685D01*
X0186840Y0143378D01*
X0186814Y0143072D01*
X0186780Y0142767D01*
X0186739Y0142462D01*
X0186690Y0142158D01*
X0186634Y0141856D01*
X0186571Y0141555D01*
X0186500Y0141256D01*
X0186422Y0140959D01*
X0186337Y0140663D01*
X0186244Y0140370D01*
X0186144Y0140079D01*
X0186038Y0139791D01*
X0185924Y0139505D01*
X0185803Y0139222D01*
X0185676Y0138943D01*
X0185541Y0138666D01*
X0185400Y0138393D01*
X0185252Y0138123D01*
X0185098Y0137857D01*
X0184937Y0137595D01*
X0184770Y0137337D01*
X0184597Y0137083D01*
X0184417Y0136834D01*
X0184232Y0136589D01*
X0184040Y0136348D01*
X0183843Y0136112D01*
X0183640Y0135881D01*
X0183431Y0135656D01*
X0183217Y0135435D01*
X0182998Y0135220D01*
X0182773Y0135010D01*
X0182543Y0134805D01*
X0182309Y0134607D01*
X0182069Y0134414D01*
X0181825Y0134227D01*
X0181577Y0134046D01*
X0181324Y0133871D01*
X0181067Y0133702D01*
X0180806Y0133540D01*
X0180541Y0133384D01*
X0180272Y0133235D01*
X0180000Y0133092D01*
X0179724Y0132956D01*
X0179445Y0132827D01*
X0179163Y0132704D01*
X0178878Y0132589D01*
X0178590Y0132481D01*
X0178300Y0132379D01*
X0178007Y0132285D01*
X0177712Y0132198D01*
X0177416Y0132118D01*
X0177117Y0132046D01*
X0176816Y0131980D01*
X0176514Y0131923D01*
X0176211Y0131872D01*
X0175907Y0131829D01*
X0175601Y0131794D01*
X0175295Y0131765D01*
X0174988Y0131745D01*
X0174681Y0131732D01*
X0174374Y0131726D01*
X0174066Y0131728D01*
X0173759Y0131738D01*
X0173452Y0131755D01*
X0173145Y0131779D01*
X0172840Y0131811D01*
X0172535Y0131851D01*
X0172231Y0131897D01*
X0171928Y0131952D01*
X0171627Y0132013D01*
X0171327Y0132082D01*
X0171030Y0132159D01*
X0170734Y0132242D01*
X0170440Y0132333D01*
X0170149Y0132431D01*
X0169860Y0132536D01*
X0169573Y0132648D01*
X0169290Y0132767D01*
X0169009Y0132893D01*
X0168732Y0133026D01*
X0168458Y0133165D01*
X0168188Y0133312D01*
X0167921Y0133464D01*
X0167658Y0133624D01*
X0167399Y0133789D01*
X0167144Y0133961D01*
X0166893Y0134139D01*
X0166647Y0134323D01*
X0166405Y0134513D01*
X0166168Y0134709D01*
X0165936Y0134911D01*
X0165709Y0135118D01*
X0165487Y0135331D01*
X0165271Y0135549D01*
X0165059Y0135773D01*
X0164854Y0136001D01*
X0164654Y0136234D01*
X0164459Y0136473D01*
X0164271Y0136716D01*
X0164346Y0136772D01*
X0164533Y0136531D01*
X0164726Y0136294D01*
X0164925Y0136063D01*
X0165129Y0135836D01*
X0165338Y0135614D01*
X0165553Y0135398D01*
X0165774Y0135187D01*
X0165999Y0134981D01*
X0166229Y0134781D01*
X0166465Y0134586D01*
X0166704Y0134398D01*
X0166949Y0134215D01*
X0167198Y0134038D01*
X0167451Y0133868D01*
X0167708Y0133703D01*
X0167969Y0133545D01*
X0168234Y0133394D01*
X0168502Y0133249D01*
X0168774Y0133110D01*
X0169049Y0132978D01*
X0169328Y0132853D01*
X0169609Y0132735D01*
X0169893Y0132624D01*
X0170180Y0132520D01*
X0170469Y0132422D01*
X0170761Y0132332D01*
X0171054Y0132249D01*
X0171350Y0132174D01*
X0171647Y0132105D01*
X0171946Y0132044D01*
X0172247Y0131990D01*
X0172548Y0131944D01*
X0172851Y0131904D01*
X0173154Y0131873D01*
X0173459Y0131848D01*
X0173763Y0131832D01*
X0174068Y0131822D01*
X0174373Y0131820D01*
X0174678Y0131826D01*
X0174983Y0131839D01*
X0175288Y0131859D01*
X0175592Y0131887D01*
X0175895Y0131922D01*
X0176197Y0131965D01*
X0176498Y0132015D01*
X0176798Y0132072D01*
X0177096Y0132137D01*
X0177392Y0132209D01*
X0177687Y0132288D01*
X0177980Y0132375D01*
X0178270Y0132468D01*
X0178558Y0132569D01*
X0178844Y0132677D01*
X0179127Y0132791D01*
X0179407Y0132913D01*
X0179684Y0133041D01*
X0179957Y0133176D01*
X0180227Y0133317D01*
X0180494Y0133466D01*
X0180757Y0133620D01*
X0181016Y0133781D01*
X0181272Y0133949D01*
X0181523Y0134122D01*
X0181769Y0134302D01*
X0182011Y0134488D01*
X0182249Y0134679D01*
X0182482Y0134876D01*
X0182710Y0135079D01*
X0182933Y0135288D01*
X0183151Y0135501D01*
X0183363Y0135720D01*
X0183570Y0135944D01*
X0183772Y0136174D01*
X0183968Y0136408D01*
X0184158Y0136646D01*
X0184342Y0136890D01*
X0184520Y0137137D01*
X0184692Y0137389D01*
X0184858Y0137646D01*
X0185017Y0137906D01*
X0185171Y0138170D01*
X0185317Y0138437D01*
X0185457Y0138708D01*
X0185591Y0138983D01*
X0185717Y0139260D01*
X0185837Y0139541D01*
X0185950Y0139825D01*
X0186056Y0140111D01*
X0186155Y0140399D01*
X0186247Y0140690D01*
X0186331Y0140984D01*
X0186409Y0141279D01*
X0186479Y0141576D01*
X0186542Y0141874D01*
X0186598Y0142174D01*
X0186646Y0142476D01*
X0186687Y0142778D01*
X0186720Y0143081D01*
X0186746Y0143385D01*
X0186765Y0143690D01*
X0186776Y0143995D01*
X0186780Y0144300D01*
X0186776Y0144605D01*
X0186765Y0144910D01*
X0186746Y0145215D01*
X0186720Y0145519D01*
X0186687Y0145822D01*
X0186646Y0146124D01*
X0186598Y0146426D01*
X0186542Y0146726D01*
X0186479Y0147024D01*
X0186409Y0147321D01*
X0186331Y0147616D01*
X0186247Y0147910D01*
X0186155Y0148201D01*
X0186056Y0148489D01*
X0185950Y0148775D01*
X0185837Y0149059D01*
X0185717Y0149340D01*
X0185591Y0149617D01*
X0185457Y0149892D01*
X0185317Y0150163D01*
X0185171Y0150430D01*
X0185017Y0150694D01*
X0184858Y0150954D01*
X0184692Y0151211D01*
X0184520Y0151463D01*
X0184342Y0151710D01*
X0184158Y0151954D01*
X0183968Y0152192D01*
X0183772Y0152426D01*
X0183570Y0152656D01*
X0183363Y0152880D01*
X0183151Y0153099D01*
X0182933Y0153312D01*
X0182710Y0153521D01*
X0182482Y0153724D01*
X0182249Y0153921D01*
X0182011Y0154112D01*
X0181769Y0154298D01*
X0181523Y0154478D01*
X0181272Y0154651D01*
X0181016Y0154819D01*
X0180757Y0154980D01*
X0180494Y0155134D01*
X0180227Y0155283D01*
X0179957Y0155424D01*
X0179684Y0155559D01*
X0179407Y0155687D01*
X0179127Y0155809D01*
X0178844Y0155923D01*
X0178558Y0156031D01*
X0178270Y0156132D01*
X0177980Y0156225D01*
X0177687Y0156312D01*
X0177392Y0156391D01*
X0177096Y0156463D01*
X0176798Y0156528D01*
X0176498Y0156585D01*
X0176197Y0156635D01*
X0175895Y0156678D01*
X0175592Y0156713D01*
X0175288Y0156741D01*
X0174983Y0156761D01*
X0174678Y0156774D01*
X0174373Y0156780D01*
X0174068Y0156778D01*
X0173763Y0156768D01*
X0173459Y0156752D01*
X0173154Y0156727D01*
X0172851Y0156696D01*
X0172548Y0156656D01*
X0172247Y0156610D01*
X0171946Y0156556D01*
X0171647Y0156495D01*
X0171350Y0156426D01*
X0171054Y0156351D01*
X0170761Y0156268D01*
X0170469Y0156178D01*
X0170180Y0156080D01*
X0169893Y0155976D01*
X0169609Y0155865D01*
X0169328Y0155747D01*
X0169049Y0155622D01*
X0168774Y0155490D01*
X0168502Y0155351D01*
X0168234Y0155206D01*
X0167969Y0155055D01*
X0167708Y0154897D01*
X0167451Y0154732D01*
X0167198Y0154562D01*
X0166949Y0154385D01*
X0166704Y0154202D01*
X0166465Y0154014D01*
X0166229Y0153819D01*
X0165999Y0153619D01*
X0165774Y0153413D01*
X0165553Y0153202D01*
X0165338Y0152986D01*
X0165129Y0152764D01*
X0164925Y0152537D01*
X0164726Y0152306D01*
X0164533Y0152069D01*
X0164346Y0151828D01*
X0164421Y0151772D01*
X0164607Y0152011D01*
X0164798Y0152246D01*
X0164995Y0152475D01*
X0165198Y0152700D01*
X0165406Y0152921D01*
X0165620Y0153135D01*
X0165838Y0153345D01*
X0166062Y0153549D01*
X0166290Y0153748D01*
X0166524Y0153941D01*
X0166762Y0154128D01*
X0167004Y0154309D01*
X0167251Y0154485D01*
X0167502Y0154654D01*
X0167758Y0154817D01*
X0168017Y0154974D01*
X0168280Y0155124D01*
X0168546Y0155268D01*
X0168816Y0155406D01*
X0169089Y0155537D01*
X0169365Y0155661D01*
X0169645Y0155778D01*
X0169927Y0155888D01*
X0170211Y0155992D01*
X0170498Y0156088D01*
X0170788Y0156178D01*
X0171079Y0156260D01*
X0171372Y0156335D01*
X0171668Y0156403D01*
X0171964Y0156464D01*
X0172262Y0156517D01*
X0172562Y0156563D01*
X0172862Y0156602D01*
X0173163Y0156634D01*
X0173465Y0156658D01*
X0173768Y0156675D01*
X0174070Y0156684D01*
X0174373Y0156686D01*
X0174676Y0156680D01*
X0174978Y0156667D01*
X0175281Y0156647D01*
X0175582Y0156619D01*
X0175883Y0156584D01*
X0176183Y0156542D01*
X0176482Y0156492D01*
X0176779Y0156435D01*
X0177075Y0156371D01*
X0177369Y0156300D01*
X0177662Y0156221D01*
X0177952Y0156135D01*
X0178241Y0156042D01*
X0178526Y0155943D01*
X0178810Y0155836D01*
X0179090Y0155722D01*
X0179368Y0155602D01*
X0179643Y0155474D01*
X0179915Y0155340D01*
X0180183Y0155200D01*
X0180448Y0155053D01*
X0180709Y0154899D01*
X0180966Y0154739D01*
X0181219Y0154573D01*
X0181468Y0154401D01*
X0181713Y0154223D01*
X0181954Y0154038D01*
X0182189Y0153848D01*
X0182420Y0153653D01*
X0182647Y0153451D01*
X0182868Y0153245D01*
X0183084Y0153032D01*
X0183295Y0152815D01*
X0183500Y0152593D01*
X0183700Y0152365D01*
X0183895Y0152133D01*
X0184083Y0151896D01*
X0184266Y0151654D01*
X0184443Y0151409D01*
X0184614Y0151158D01*
X0184778Y0150904D01*
X0184937Y0150646D01*
X0185089Y0150384D01*
X0185234Y0150119D01*
X0185373Y0149850D01*
X0185506Y0149577D01*
X0185631Y0149302D01*
X0185750Y0149023D01*
X0185862Y0148742D01*
X0185967Y0148458D01*
X0186066Y0148171D01*
X0186157Y0147882D01*
X0186241Y0147591D01*
X0186318Y0147298D01*
X0186387Y0147004D01*
X0186450Y0146707D01*
X0186505Y0146410D01*
X0186553Y0146111D01*
X0186594Y0145811D01*
X0186627Y0145509D01*
X0186653Y0145208D01*
X0186671Y0144905D01*
X0186682Y0144603D01*
X0186686Y0144300D01*
X0186682Y0143997D01*
X0186671Y0143695D01*
X0186653Y0143392D01*
X0186627Y0143091D01*
X0186594Y0142789D01*
X0186553Y0142489D01*
X0186505Y0142190D01*
X0186450Y0141893D01*
X0186387Y0141596D01*
X0186318Y0141302D01*
X0186241Y0141009D01*
X0186157Y0140718D01*
X0186066Y0140429D01*
X0185967Y0140142D01*
X0185862Y0139858D01*
X0185750Y0139577D01*
X0185631Y0139298D01*
X0185506Y0139023D01*
X0185373Y0138750D01*
X0185234Y0138481D01*
X0185089Y0138216D01*
X0184937Y0137954D01*
X0184778Y0137696D01*
X0184614Y0137442D01*
X0184443Y0137191D01*
X0184266Y0136946D01*
X0184083Y0136704D01*
X0183895Y0136467D01*
X0183700Y0136235D01*
X0183500Y0136007D01*
X0183295Y0135785D01*
X0183084Y0135568D01*
X0182868Y0135355D01*
X0182647Y0135149D01*
X0182420Y0134947D01*
X0182189Y0134752D01*
X0181954Y0134562D01*
X0181713Y0134377D01*
X0181468Y0134199D01*
X0181219Y0134027D01*
X0180966Y0133861D01*
X0180709Y0133701D01*
X0180448Y0133547D01*
X0180183Y0133400D01*
X0179915Y0133260D01*
X0179643Y0133126D01*
X0179368Y0132998D01*
X0179090Y0132878D01*
X0178810Y0132764D01*
X0178526Y0132657D01*
X0178241Y0132558D01*
X0177952Y0132465D01*
X0177662Y0132379D01*
X0177369Y0132300D01*
X0177075Y0132229D01*
X0176779Y0132165D01*
X0176482Y0132108D01*
X0176183Y0132058D01*
X0175883Y0132016D01*
X0175582Y0131981D01*
X0175281Y0131953D01*
X0174978Y0131933D01*
X0174676Y0131920D01*
X0174373Y0131914D01*
X0174070Y0131916D01*
X0173768Y0131925D01*
X0173465Y0131942D01*
X0173163Y0131966D01*
X0172862Y0131998D01*
X0172562Y0132037D01*
X0172262Y0132083D01*
X0171964Y0132136D01*
X0171668Y0132197D01*
X0171372Y0132265D01*
X0171079Y0132340D01*
X0170788Y0132422D01*
X0170498Y0132512D01*
X0170211Y0132608D01*
X0169927Y0132712D01*
X0169645Y0132822D01*
X0169365Y0132939D01*
X0169089Y0133063D01*
X0168816Y0133194D01*
X0168546Y0133332D01*
X0168280Y0133476D01*
X0168017Y0133626D01*
X0167758Y0133783D01*
X0167502Y0133946D01*
X0167251Y0134115D01*
X0167004Y0134291D01*
X0166762Y0134472D01*
X0166524Y0134659D01*
X0166290Y0134852D01*
X0166062Y0135051D01*
X0165838Y0135255D01*
X0165620Y0135465D01*
X0165406Y0135679D01*
X0165198Y0135900D01*
X0164995Y0136125D01*
X0164798Y0136354D01*
X0164607Y0136589D01*
X0164421Y0136828D01*
X0164496Y0136885D01*
X0164681Y0136647D01*
X0164871Y0136415D01*
X0165066Y0136186D01*
X0165267Y0135963D01*
X0165474Y0135745D01*
X0165686Y0135531D01*
X0165903Y0135323D01*
X0166125Y0135121D01*
X0166352Y0134924D01*
X0166583Y0134732D01*
X0166819Y0134546D01*
X0167060Y0134366D01*
X0167305Y0134192D01*
X0167554Y0134024D01*
X0167808Y0133862D01*
X0168065Y0133707D01*
X0168326Y0133558D01*
X0168590Y0133415D01*
X0168858Y0133278D01*
X0169129Y0133149D01*
X0169403Y0133026D01*
X0169680Y0132909D01*
X0169960Y0132800D01*
X0170243Y0132697D01*
X0170527Y0132601D01*
X0170815Y0132513D01*
X0171104Y0132431D01*
X0171395Y0132356D01*
X0171688Y0132289D01*
X0171982Y0132228D01*
X0172278Y0132175D01*
X0172575Y0132130D01*
X0172873Y0132091D01*
X0173172Y0132060D01*
X0173472Y0132036D01*
X0173772Y0132019D01*
X0174072Y0132010D01*
X0174373Y0132008D01*
X0174673Y0132014D01*
X0174974Y0132026D01*
X0175273Y0132047D01*
X0175573Y0132074D01*
X0175871Y0132109D01*
X0176169Y0132151D01*
X0176465Y0132200D01*
X0176760Y0132257D01*
X0177054Y0132321D01*
X0177346Y0132391D01*
X0177636Y0132469D01*
X0177925Y0132555D01*
X0178211Y0132647D01*
X0178495Y0132746D01*
X0178776Y0132852D01*
X0179054Y0132965D01*
X0179330Y0133084D01*
X0179603Y0133211D01*
X0179872Y0133344D01*
X0180138Y0133483D01*
X0180401Y0133629D01*
X0180660Y0133781D01*
X0180916Y0133940D01*
X0181167Y0134105D01*
X0181414Y0134276D01*
X0181657Y0134453D01*
X0181896Y0134636D01*
X0182130Y0134824D01*
X0182359Y0135018D01*
X0182583Y0135218D01*
X0182803Y0135423D01*
X0183017Y0135634D01*
X0183227Y0135850D01*
X0183431Y0136070D01*
X0183629Y0136296D01*
X0183822Y0136527D01*
X0184009Y0136762D01*
X0184191Y0137001D01*
X0184366Y0137245D01*
X0184536Y0137494D01*
X0184699Y0137746D01*
X0184856Y0138002D01*
X0185007Y0138262D01*
X0185151Y0138526D01*
X0185289Y0138793D01*
X0185421Y0139063D01*
X0185545Y0139336D01*
X0185663Y0139613D01*
X0185774Y0139892D01*
X0185879Y0140174D01*
X0185976Y0140458D01*
X0186067Y0140745D01*
X0186150Y0141034D01*
X0186226Y0141324D01*
X0186296Y0141617D01*
X0186358Y0141911D01*
X0186412Y0142206D01*
X0186460Y0142503D01*
X0186500Y0142801D01*
X0186533Y0143100D01*
X0186559Y0143399D01*
X0186577Y0143699D01*
X0186588Y0143999D01*
X0186592Y0144300D01*
X0186588Y0144601D01*
X0186577Y0144901D01*
X0186559Y0145201D01*
X0186533Y0145500D01*
X0186500Y0145799D01*
X0186460Y0146097D01*
X0186412Y0146394D01*
X0186358Y0146689D01*
X0186296Y0146983D01*
X0186226Y0147276D01*
X0186150Y0147566D01*
X0186067Y0147855D01*
X0185976Y0148142D01*
X0185879Y0148426D01*
X0185774Y0148708D01*
X0185663Y0148987D01*
X0185545Y0149264D01*
X0185421Y0149537D01*
X0185289Y0149807D01*
X0185151Y0150074D01*
X0185007Y0150338D01*
X0184856Y0150598D01*
X0184699Y0150854D01*
X0184536Y0151106D01*
X0184366Y0151355D01*
X0184191Y0151599D01*
X0184009Y0151838D01*
X0183822Y0152073D01*
X0183629Y0152304D01*
X0183431Y0152530D01*
X0183227Y0152750D01*
X0183017Y0152966D01*
X0182803Y0153177D01*
X0182583Y0153382D01*
X0182359Y0153582D01*
X0182130Y0153776D01*
X0181896Y0153964D01*
X0181657Y0154147D01*
X0181414Y0154324D01*
X0181167Y0154495D01*
X0180916Y0154660D01*
X0180660Y0154819D01*
X0180401Y0154971D01*
X0180138Y0155117D01*
X0179872Y0155256D01*
X0179603Y0155389D01*
X0179330Y0155516D01*
X0179054Y0155635D01*
X0178776Y0155748D01*
X0178495Y0155854D01*
X0178211Y0155953D01*
X0177925Y0156045D01*
X0177636Y0156131D01*
X0177346Y0156209D01*
X0177054Y0156279D01*
X0176760Y0156343D01*
X0176465Y0156400D01*
X0176169Y0156449D01*
X0175871Y0156491D01*
X0175573Y0156526D01*
X0175273Y0156553D01*
X0174974Y0156574D01*
X0174673Y0156586D01*
X0174373Y0156592D01*
X0174072Y0156590D01*
X0173772Y0156581D01*
X0173472Y0156564D01*
X0173172Y0156540D01*
X0172873Y0156509D01*
X0172575Y0156470D01*
X0172278Y0156425D01*
X0171982Y0156372D01*
X0171688Y0156311D01*
X0171395Y0156244D01*
X0171104Y0156169D01*
X0170815Y0156087D01*
X0170527Y0155999D01*
X0170243Y0155903D01*
X0169960Y0155800D01*
X0169680Y0155691D01*
X0169403Y0155574D01*
X0169129Y0155451D01*
X0168858Y0155322D01*
X0168590Y0155185D01*
X0168326Y0155042D01*
X0168065Y0154893D01*
X0167808Y0154738D01*
X0167554Y0154576D01*
X0167305Y0154408D01*
X0167060Y0154234D01*
X0166819Y0154054D01*
X0166583Y0153868D01*
X0166352Y0153676D01*
X0166125Y0153479D01*
X0165903Y0153277D01*
X0165686Y0153069D01*
X0165474Y0152855D01*
X0165267Y0152637D01*
X0165066Y0152414D01*
X0164871Y0152185D01*
X0164681Y0151953D01*
X0164496Y0151715D01*
X0164572Y0151659D01*
X0164754Y0151894D01*
X0164943Y0152125D01*
X0165137Y0152352D01*
X0165337Y0152574D01*
X0165542Y0152790D01*
X0165752Y0153002D01*
X0165967Y0153208D01*
X0166187Y0153409D01*
X0166413Y0153605D01*
X0166642Y0153795D01*
X0166877Y0153979D01*
X0167116Y0154158D01*
X0167359Y0154331D01*
X0167606Y0154497D01*
X0167858Y0154658D01*
X0168113Y0154812D01*
X0168372Y0154960D01*
X0168634Y0155102D01*
X0168900Y0155237D01*
X0169169Y0155366D01*
X0169441Y0155488D01*
X0169716Y0155604D01*
X0169994Y0155713D01*
X0170274Y0155814D01*
X0170557Y0155909D01*
X0170842Y0155997D01*
X0171129Y0156078D01*
X0171417Y0156153D01*
X0171708Y0156219D01*
X0172000Y0156279D01*
X0172294Y0156332D01*
X0172589Y0156377D01*
X0172884Y0156416D01*
X0173181Y0156447D01*
X0173478Y0156470D01*
X0173776Y0156487D01*
X0174074Y0156496D01*
X0174372Y0156498D01*
X0174671Y0156492D01*
X0174969Y0156480D01*
X0175266Y0156460D01*
X0175563Y0156432D01*
X0175859Y0156398D01*
X0176155Y0156356D01*
X0176449Y0156307D01*
X0176742Y0156251D01*
X0177033Y0156188D01*
X0177323Y0156117D01*
X0177611Y0156040D01*
X0177897Y0155956D01*
X0178181Y0155864D01*
X0178463Y0155766D01*
X0178742Y0155661D01*
X0179018Y0155549D01*
X0179292Y0155430D01*
X0179562Y0155305D01*
X0179830Y0155173D01*
X0180094Y0155034D01*
X0180355Y0154889D01*
X0180612Y0154738D01*
X0180865Y0154581D01*
X0181114Y0154417D01*
X0181360Y0154247D01*
X0181601Y0154072D01*
X0181838Y0153890D01*
X0182070Y0153703D01*
X0182297Y0153511D01*
X0182520Y0153312D01*
X0182738Y0153109D01*
X0182951Y0152900D01*
X0183159Y0152686D01*
X0183361Y0152466D01*
X0183558Y0152243D01*
X0183749Y0152014D01*
X0183935Y0151780D01*
X0184115Y0151543D01*
X0184289Y0151301D01*
X0184457Y0151054D01*
X0184619Y0150804D01*
X0184775Y0150550D01*
X0184925Y0150292D01*
X0185068Y0150030D01*
X0185205Y0149765D01*
X0185336Y0149497D01*
X0185459Y0149226D01*
X0185576Y0148951D01*
X0185687Y0148674D01*
X0185790Y0148394D01*
X0185887Y0148112D01*
X0185977Y0147828D01*
X0186059Y0147541D01*
X0186135Y0147253D01*
X0186204Y0146963D01*
X0186265Y0146671D01*
X0186320Y0146378D01*
X0186367Y0146083D01*
X0186407Y0145788D01*
X0186440Y0145491D01*
X0186465Y0145194D01*
X0186483Y0144896D01*
X0186494Y0144598D01*
X0186498Y0144300D01*
X0186494Y0144002D01*
X0186483Y0143704D01*
X0186465Y0143406D01*
X0186440Y0143109D01*
X0186407Y0142812D01*
X0186367Y0142517D01*
X0186320Y0142222D01*
X0186265Y0141929D01*
X0186204Y0141637D01*
X0186135Y0141347D01*
X0186059Y0141059D01*
X0185977Y0140772D01*
X0185887Y0140488D01*
X0185790Y0140206D01*
X0185687Y0139926D01*
X0185576Y0139649D01*
X0185459Y0139374D01*
X0185336Y0139103D01*
X0185205Y0138835D01*
X0185068Y0138570D01*
X0184925Y0138308D01*
X0184775Y0138050D01*
X0184619Y0137796D01*
X0184457Y0137546D01*
X0184289Y0137299D01*
X0184115Y0137057D01*
X0183935Y0136820D01*
X0183749Y0136586D01*
X0183558Y0136357D01*
X0183361Y0136134D01*
X0183159Y0135914D01*
X0182951Y0135700D01*
X0182738Y0135491D01*
X0182520Y0135288D01*
X0182297Y0135089D01*
X0182070Y0134897D01*
X0181838Y0134710D01*
X0181601Y0134528D01*
X0181360Y0134353D01*
X0181114Y0134183D01*
X0180865Y0134019D01*
X0180612Y0133862D01*
X0180355Y0133711D01*
X0180094Y0133566D01*
X0179830Y0133427D01*
X0179562Y0133295D01*
X0179292Y0133170D01*
X0179018Y0133051D01*
X0178742Y0132939D01*
X0178463Y0132834D01*
X0178181Y0132736D01*
X0177897Y0132644D01*
X0177611Y0132560D01*
X0177323Y0132483D01*
X0177033Y0132412D01*
X0176742Y0132349D01*
X0176449Y0132293D01*
X0176155Y0132244D01*
X0175859Y0132202D01*
X0175563Y0132168D01*
X0175266Y0132140D01*
X0174969Y0132120D01*
X0174671Y0132108D01*
X0174372Y0132102D01*
X0174074Y0132104D01*
X0173776Y0132113D01*
X0173478Y0132130D01*
X0173181Y0132153D01*
X0172884Y0132184D01*
X0172589Y0132223D01*
X0172294Y0132268D01*
X0172000Y0132321D01*
X0171708Y0132381D01*
X0171417Y0132447D01*
X0171129Y0132522D01*
X0170842Y0132603D01*
X0170557Y0132691D01*
X0170274Y0132786D01*
X0169994Y0132887D01*
X0169716Y0132996D01*
X0169441Y0133112D01*
X0169169Y0133234D01*
X0168900Y0133363D01*
X0168634Y0133498D01*
X0168372Y0133640D01*
X0168113Y0133788D01*
X0167858Y0133942D01*
X0167606Y0134103D01*
X0167359Y0134269D01*
X0167116Y0134442D01*
X0166877Y0134621D01*
X0166642Y0134805D01*
X0166413Y0134995D01*
X0166187Y0135191D01*
X0165967Y0135392D01*
X0165752Y0135598D01*
X0165542Y0135810D01*
X0165337Y0136026D01*
X0165137Y0136248D01*
X0164943Y0136475D01*
X0164754Y0136706D01*
X0164572Y0136941D01*
X0164647Y0136998D01*
X0164828Y0136764D01*
X0165015Y0136535D01*
X0165208Y0136310D01*
X0165406Y0136090D01*
X0165609Y0135875D01*
X0165818Y0135665D01*
X0166032Y0135460D01*
X0166250Y0135261D01*
X0166474Y0135067D01*
X0166702Y0134878D01*
X0166934Y0134695D01*
X0167171Y0134518D01*
X0167413Y0134347D01*
X0167658Y0134181D01*
X0167907Y0134022D01*
X0168161Y0133869D01*
X0168417Y0133722D01*
X0168678Y0133581D01*
X0168942Y0133447D01*
X0169209Y0133319D01*
X0169479Y0133198D01*
X0169751Y0133083D01*
X0170027Y0132975D01*
X0170305Y0132874D01*
X0170586Y0132780D01*
X0170868Y0132693D01*
X0171153Y0132612D01*
X0171440Y0132539D01*
X0171728Y0132472D01*
X0172018Y0132413D01*
X0172310Y0132361D01*
X0172602Y0132316D01*
X0172896Y0132278D01*
X0173190Y0132247D01*
X0173485Y0132223D01*
X0173780Y0132207D01*
X0174076Y0132198D01*
X0174372Y0132196D01*
X0174668Y0132202D01*
X0174964Y0132214D01*
X0175259Y0132234D01*
X0175554Y0132261D01*
X0175848Y0132295D01*
X0176141Y0132337D01*
X0176433Y0132385D01*
X0176723Y0132441D01*
X0177012Y0132504D01*
X0177300Y0132574D01*
X0177586Y0132651D01*
X0177870Y0132734D01*
X0178151Y0132825D01*
X0178431Y0132923D01*
X0178708Y0133027D01*
X0178982Y0133138D01*
X0179253Y0133256D01*
X0179522Y0133380D01*
X0179787Y0133511D01*
X0180049Y0133649D01*
X0180308Y0133792D01*
X0180563Y0133942D01*
X0180815Y0134099D01*
X0181062Y0134261D01*
X0181305Y0134429D01*
X0181545Y0134604D01*
X0181780Y0134784D01*
X0182010Y0134969D01*
X0182236Y0135161D01*
X0182457Y0135357D01*
X0182673Y0135559D01*
X0182884Y0135767D01*
X0183090Y0135979D01*
X0183291Y0136197D01*
X0183487Y0136419D01*
X0183677Y0136646D01*
X0183861Y0136877D01*
X0184039Y0137113D01*
X0184212Y0137353D01*
X0184379Y0137598D01*
X0184540Y0137846D01*
X0184695Y0138099D01*
X0184843Y0138355D01*
X0184985Y0138614D01*
X0185121Y0138877D01*
X0185251Y0139143D01*
X0185373Y0139412D01*
X0185490Y0139685D01*
X0185599Y0139960D01*
X0185702Y0140237D01*
X0185798Y0140517D01*
X0185887Y0140799D01*
X0185969Y0141084D01*
X0186044Y0141370D01*
X0186112Y0141658D01*
X0186173Y0141947D01*
X0186227Y0142238D01*
X0186274Y0142531D01*
X0186314Y0142824D01*
X0186346Y0143118D01*
X0186371Y0143413D01*
X0186390Y0143708D01*
X0186400Y0144004D01*
X0186404Y0144300D01*
X0186400Y0144596D01*
X0186390Y0144892D01*
X0186371Y0145187D01*
X0186346Y0145482D01*
X0186314Y0145776D01*
X0186274Y0146069D01*
X0186227Y0146362D01*
X0186173Y0146653D01*
X0186112Y0146942D01*
X0186044Y0147230D01*
X0185969Y0147516D01*
X0185887Y0147801D01*
X0185798Y0148083D01*
X0185702Y0148363D01*
X0185599Y0148640D01*
X0185490Y0148915D01*
X0185373Y0149188D01*
X0185251Y0149457D01*
X0185121Y0149723D01*
X0184985Y0149986D01*
X0184843Y0150245D01*
X0184695Y0150501D01*
X0184540Y0150754D01*
X0184379Y0151002D01*
X0184212Y0151247D01*
X0184039Y0151487D01*
X0183861Y0151723D01*
X0183677Y0151954D01*
X0183487Y0152181D01*
X0183291Y0152403D01*
X0183090Y0152621D01*
X0182884Y0152833D01*
X0182673Y0153041D01*
X0182457Y0153243D01*
X0182236Y0153439D01*
X0182010Y0153631D01*
X0181780Y0153816D01*
X0181545Y0153996D01*
X0181305Y0154171D01*
X0181062Y0154339D01*
X0180815Y0154501D01*
X0180563Y0154658D01*
X0180308Y0154808D01*
X0180049Y0154951D01*
X0179787Y0155089D01*
X0179522Y0155220D01*
X0179253Y0155344D01*
X0178982Y0155462D01*
X0178708Y0155573D01*
X0178431Y0155677D01*
X0178151Y0155775D01*
X0177870Y0155866D01*
X0177586Y0155949D01*
X0177300Y0156026D01*
X0177012Y0156096D01*
X0176723Y0156159D01*
X0176433Y0156215D01*
X0176141Y0156263D01*
X0175848Y0156305D01*
X0175554Y0156339D01*
X0175259Y0156366D01*
X0174964Y0156386D01*
X0174668Y0156398D01*
X0174372Y0156404D01*
X0174076Y0156402D01*
X0173780Y0156393D01*
X0173485Y0156377D01*
X0173190Y0156353D01*
X0172896Y0156322D01*
X0172602Y0156284D01*
X0172310Y0156239D01*
X0172018Y0156187D01*
X0171728Y0156128D01*
X0171440Y0156061D01*
X0171153Y0155988D01*
X0170868Y0155907D01*
X0170586Y0155820D01*
X0170305Y0155726D01*
X0170027Y0155625D01*
X0169751Y0155517D01*
X0169479Y0155402D01*
X0169209Y0155281D01*
X0168942Y0155153D01*
X0168678Y0155019D01*
X0168417Y0154878D01*
X0168161Y0154731D01*
X0167907Y0154578D01*
X0167658Y0154419D01*
X0167413Y0154253D01*
X0167171Y0154082D01*
X0166934Y0153905D01*
X0166702Y0153722D01*
X0166474Y0153533D01*
X0166250Y0153339D01*
X0166032Y0153140D01*
X0165818Y0152935D01*
X0165609Y0152725D01*
X0165406Y0152510D01*
X0165208Y0152290D01*
X0165015Y0152065D01*
X0164828Y0151836D01*
X0164647Y0151602D01*
X0106251Y0068352D02*
X0105984Y0068352D01*
X0104917Y0067285D01*
X0104650Y0067285D01*
X0104917Y0066787D02*
X0104650Y0066520D01*
X0104650Y0065986D01*
X0104917Y0065719D01*
X0104650Y0065222D02*
X0104650Y0064154D01*
X0105718Y0065222D01*
X0105984Y0065222D01*
X0106251Y0064955D01*
X0106251Y0064421D01*
X0105984Y0064154D01*
X0104650Y0063656D02*
X0104650Y0062589D01*
X0106251Y0062589D01*
X0105984Y0062091D02*
X0106251Y0061824D01*
X0106251Y0061290D01*
X0105984Y0061023D01*
X0105718Y0061023D01*
X0105451Y0061290D01*
X0105451Y0061824D01*
X0105184Y0062091D01*
X0104917Y0062091D01*
X0104650Y0061824D01*
X0104650Y0061290D01*
X0104917Y0061023D01*
X0104650Y0059992D02*
X0106251Y0059992D01*
X0106251Y0059458D02*
X0106251Y0060526D01*
X0105984Y0065719D02*
X0106251Y0065986D01*
X0106251Y0066520D01*
X0105984Y0066787D01*
X0105718Y0066787D01*
X0105451Y0066520D01*
X0105184Y0066787D01*
X0104917Y0066787D01*
X0105451Y0066520D02*
X0105451Y0066253D01*
X0106251Y0067285D02*
X0106251Y0068352D01*
X0114417Y0059352D02*
X0115484Y0059352D01*
X0115751Y0059085D01*
X0115751Y0058285D01*
X0114150Y0058285D01*
X0114150Y0059085D01*
X0114417Y0059352D01*
X0114150Y0057787D02*
X0115751Y0057787D01*
X0115751Y0056719D02*
X0114150Y0057787D01*
X0114150Y0056719D02*
X0115751Y0056719D01*
X0115484Y0056222D02*
X0115751Y0055955D01*
X0115751Y0055421D01*
X0115484Y0055154D01*
X0114417Y0055154D01*
X0114150Y0055421D01*
X0114150Y0055955D01*
X0114417Y0056222D01*
X0114951Y0056222D01*
X0114951Y0055688D01*
X0114417Y0051352D02*
X0115484Y0051352D01*
X0115751Y0051085D01*
X0115751Y0050285D01*
X0114150Y0050285D01*
X0114150Y0051085D01*
X0114417Y0051352D01*
X0114417Y0049787D02*
X0115484Y0049787D01*
X0115751Y0049520D01*
X0115751Y0048719D01*
X0114150Y0048719D01*
X0114150Y0049520D01*
X0114417Y0049787D01*
X0114684Y0048222D02*
X0115751Y0048222D01*
X0114684Y0048222D02*
X0114150Y0047688D01*
X0114684Y0047154D01*
X0115751Y0047154D01*
X0115751Y0042852D02*
X0115751Y0041785D01*
X0115751Y0041287D02*
X0114417Y0041287D01*
X0114150Y0041020D01*
X0114150Y0040486D01*
X0114417Y0040219D01*
X0115751Y0040219D01*
X0115484Y0039722D02*
X0115751Y0039455D01*
X0115751Y0038921D01*
X0115484Y0038654D01*
X0114417Y0038654D01*
X0114150Y0038921D01*
X0114150Y0039455D01*
X0114417Y0039722D01*
X0115484Y0039722D01*
X0115751Y0042318D02*
X0114150Y0042318D01*
D132*
X0096800Y0049300D03*
D133*
X0018900Y0191800D03*
D134*
X0019650Y0192550D03*
X0019650Y0191050D03*
D135*
X0018100Y0191800D03*
D136*
X0122863Y0053237D03*
M02*
