%
M48
M72
T01C0.01200
T02C0.02362
T03C0.02756
T04C0.03150
T05C0.03200
T06C0.03500
T07C0.03543
T08C0.03600
T09C0.03937
T10C0.04000
T11C0.04724
T12C0.11024
T13C0.12598
%
T01
X85450Y114300
X101800Y126800
X109300Y131800
X121800Y139300
X126800Y154300
X134300Y161250
X114300Y161250
X108400Y155500
X89300Y161125
X121800Y179300
X116850Y195500
X136050Y211300
X141250Y214300
X140350Y232550
X188040Y214398
X204300Y184300
X180300Y169050
X219300Y126800
X219300Y122900
X219300Y119000
X244250Y119000
X244250Y122900
X244250Y126800
X349300Y161800
X301800Y236600
X84300Y221800
X66800Y224300
X44300Y201800
X84300Y186800
X44300Y161125
X44300Y264300
T02
X186800Y236800
X149300Y151800
T03
X79300Y176800
X236800Y256800
X281800Y241800
X284300Y276800
X311800Y276800
X284300Y196800
X255540Y173517
X256800Y151800
X376800Y136800
X271800Y57611
X271800Y51987
X271800Y46363
X271800Y40739
T04
X25580Y239300
X36800Y249300
X25580Y259300
T05
X169300Y144300
X179300Y144300
T06
X124300Y146800
X104300Y142800
X104300Y150800
T07
X371800Y163139
X371800Y180461
T08
X261800Y269300
X251800Y269300
X34300Y211800
X24300Y211800
X24300Y201800
X34300Y201800
X34300Y191800
X24300Y191800
T09
X114300Y57300
X114300Y49300
X114300Y41300
T10
X110816Y272824
X100816Y272824
X90816Y272824
X80816Y272824
X70816Y272824
X120816Y272824
X130816Y272824
X140816Y272824
X150816Y272824
X160816Y272824
X170816Y272824
X180816Y272824
X190816Y272824
X200816Y272824
X210816Y272824
X220816Y272824
T11
X306800Y61643
X306800Y51800
X306800Y41957
X363887Y41957
X363887Y61643
T12
X336328Y76406
X336328Y27194
T13
X16800Y16800
X48769Y150776
X48769Y272824
X16800Y276800
X344831Y272824
X376800Y276800
X344831Y150776
X376800Y16800
M30
