<?xml version="1.0" encoding="UTF-8" standalone="no"?>
<svg
   xmlns:dc="http://purl.org/dc/elements/1.1/"
   xmlns:cc="http://creativecommons.org/ns#"
   xmlns:rdf="http://www.w3.org/1999/02/22-rdf-syntax-ns#"
   xmlns:svg="http://www.w3.org/2000/svg"
   xmlns="http://www.w3.org/2000/svg"
   viewBox="0 0 358.75 263.75"
   height="263.75"
   width="358.75"
   xml:space="preserve"
   version="1.1"
   id="svg2"><metadata
     id="metadata8"><rdf:RDF><cc:Work
         rdf:about=""><dc:format>image/svg+xml</dc:format><dc:type
           rdf:resource="http://purl.org/dc/dcmitype/StillImage" /></cc:Work></rdf:RDF></metadata><defs
     id="defs6" /><g
     transform="matrix(1.25,0,0,-1.25,0,263.75)"
     id="g10"><g
       transform="scale(0.1,0.1)"
       id="g12"><path
         id="path14"
         style="fill:none;stroke:#000000;stroke-width:11.52000046;stroke-linecap:round;stroke-linejoin:round;stroke-miterlimit:10;stroke-dasharray:none;stroke-opacity:1"
         d="m 30.6016,2100.96 0,-2087.9991" /><path
         id="path16"
         style="fill:none;stroke:#000000;stroke-width:11.52000046;stroke-linecap:round;stroke-linejoin:round;stroke-miterlimit:10;stroke-dasharray:none;stroke-opacity:1"
         d="m 30.6016,12.9609 2807.9984,0" /><path
         id="path18"
         style="fill:none;stroke:#000000;stroke-width:11.52000046;stroke-linecap:round;stroke-linejoin:round;stroke-miterlimit:10;stroke-dasharray:none;stroke-opacity:1"
         d="m 2838.6,12.9609 0,2087.9991" /><path
         id="path20"
         style="fill:none;stroke:#000000;stroke-width:11.52000046;stroke-linecap:round;stroke-linejoin:round;stroke-miterlimit:10;stroke-dasharray:none;stroke-opacity:1"
         d="m 2838.6,2100.96 -2807.9984,0" /><path
         id="path22"
         style="fill:none;stroke:#000000;stroke-width:11.52000046;stroke-linecap:round;stroke-linejoin:round;stroke-miterlimit:10;stroke-dasharray:none;stroke-opacity:1"
         d="m 1038.6,588.961 468,0" /><path
         id="path24"
         style="fill:none;stroke:#000000;stroke-width:11.52000046;stroke-linecap:round;stroke-linejoin:round;stroke-miterlimit:10;stroke-dasharray:none;stroke-opacity:1"
         d="m 1506.6,588.961 0,-468" /><path
         id="path26"
         style="fill:none;stroke:#000000;stroke-width:11.52000046;stroke-linecap:round;stroke-linejoin:round;stroke-miterlimit:10;stroke-dasharray:none;stroke-opacity:1"
         d="m 1506.6,120.961 -468,0" /><path
         id="path28"
         style="fill:none;stroke:#000000;stroke-width:11.52000046;stroke-linecap:round;stroke-linejoin:round;stroke-miterlimit:10;stroke-dasharray:none;stroke-opacity:1"
         d="m 1038.6,120.961 0,468" /><path
         id="path30"
         style="fill:none;stroke:#000000;stroke-width:8;stroke-linecap:round;stroke-linejoin:round;stroke-miterlimit:10;stroke-dasharray:none;stroke-opacity:1"
         d="m 183.953,1992.96 c 0,25.05 -20.305,45.35 -45.351,45.35 -25.047,0 -45.3559,-20.3 -45.3559,-45.35 0,-25.05 20.3089,-45.35 45.3559,-45.35 25.046,0 45.351,20.3 45.351,45.35" /><path
         id="path32"
         style="fill:none;stroke:#000000;stroke-width:0.72000003;stroke-linecap:round;stroke-linejoin:round;stroke-miterlimit:10;stroke-dasharray:none;stroke-opacity:1"
         d="m 109.801,1992.96 57.597,0" /><path
         id="path34"
         style="fill:none;stroke:#000000;stroke-width:0.72000003;stroke-linecap:round;stroke-linejoin:round;stroke-miterlimit:10;stroke-dasharray:none;stroke-opacity:1"
         d="m 138.602,1964.16 0,57.6" /><path
         id="path36"
         style="fill:none;stroke:#000000;stroke-width:0.72000003;stroke-linecap:round;stroke-linejoin:round;stroke-miterlimit:10;stroke-dasharray:none;stroke-opacity:1"
         d="m 166.68,1992.96 c 0,15.51 -12.571,28.08 -28.078,28.08 -15.508,0 -28.082,-12.57 -28.082,-28.08 0,-15.51 12.574,-28.08 28.082,-28.08 15.507,0 28.078,12.57 28.078,28.08" /><path
         id="path38"
         style="fill:none;stroke:#000000;stroke-width:0.72000003;stroke-linecap:round;stroke-linejoin:round;stroke-miterlimit:10;stroke-dasharray:none;stroke-opacity:1"
         d="m 152.641,1992.96 c 0,7.75 -6.286,14.04 -14.039,14.04 -7.754,0 -14.043,-6.29 -14.043,-14.04 0,-7.75 6.289,-14.04 14.043,-14.04 7.753,0 14.039,6.29 14.039,14.04" /><path
         id="path40"
         style="fill:none;stroke:#000000;stroke-width:8;stroke-linecap:round;stroke-linejoin:round;stroke-miterlimit:10;stroke-dasharray:none;stroke-opacity:1"
         d="m 183.953,120.961 c 0,25.047 -20.305,45.352 -45.351,45.352 -25.047,0 -45.3559,-20.305 -45.3559,-45.352 0,-25.0469 20.3089,-45.3555 45.3559,-45.3555 25.046,0 45.351,20.3086 45.351,45.3555" /><path
         id="path42"
         style="fill:none;stroke:#000000;stroke-width:0.72000003;stroke-linecap:round;stroke-linejoin:round;stroke-miterlimit:10;stroke-dasharray:none;stroke-opacity:1"
         d="m 109.801,120.961 57.597,0" /><path
         id="path44"
         style="fill:none;stroke:#000000;stroke-width:0.72000003;stroke-linecap:round;stroke-linejoin:round;stroke-miterlimit:10;stroke-dasharray:none;stroke-opacity:1"
         d="m 138.602,92.1602 0,57.6018" /><path
         id="path46"
         style="fill:none;stroke:#000000;stroke-width:0.72000003;stroke-linecap:round;stroke-linejoin:round;stroke-miterlimit:10;stroke-dasharray:none;stroke-opacity:1"
         d="m 166.68,120.961 c 0,15.508 -12.571,28.078 -28.078,28.078 -15.508,0 -28.082,-12.57 -28.082,-28.078 0,-15.508 12.574,-28.0821 28.082,-28.0821 15.507,0 28.078,12.5741 28.078,28.0821" /><path
         id="path48"
         style="fill:none;stroke:#000000;stroke-width:0.72000003;stroke-linecap:round;stroke-linejoin:round;stroke-miterlimit:10;stroke-dasharray:none;stroke-opacity:1"
         d="m 152.641,120.961 c 0,7.754 -6.286,14.039 -14.039,14.039 -7.754,0 -14.043,-6.285 -14.043,-14.039 0,-7.754 6.289,-14.039 14.043,-14.039 7.753,0 14.039,6.285 14.039,14.039" /><path
         id="path50"
         style="fill:none;stroke:#000000;stroke-width:8;stroke-linecap:round;stroke-linejoin:round;stroke-miterlimit:10;stroke-dasharray:none;stroke-opacity:1"
         d="m 2775.95,1992.96 c 0,25.05 -20.3,45.35 -45.35,45.35 -25.05,0 -45.35,-20.3 -45.35,-45.35 0,-25.05 20.3,-45.35 45.35,-45.35 25.05,0 45.35,20.3 45.35,45.35" /><path
         id="path52"
         style="fill:none;stroke:#000000;stroke-width:0.72000003;stroke-linecap:round;stroke-linejoin:round;stroke-miterlimit:10;stroke-dasharray:none;stroke-opacity:1"
         d="m 2701.8,1992.96 57.6,0" /><path
         id="path54"
         style="fill:none;stroke:#000000;stroke-width:0.72000003;stroke-linecap:round;stroke-linejoin:round;stroke-miterlimit:10;stroke-dasharray:none;stroke-opacity:1"
         d="m 2730.6,1964.16 0,57.6" /><path
         id="path56"
         style="fill:none;stroke:#000000;stroke-width:0.72000003;stroke-linecap:round;stroke-linejoin:round;stroke-miterlimit:10;stroke-dasharray:none;stroke-opacity:1"
         d="m 2758.68,1992.96 c 0,15.51 -12.57,28.08 -28.08,28.08 -15.51,0 -28.08,-12.57 -28.08,-28.08 0,-15.51 12.57,-28.08 28.08,-28.08 15.51,0 28.08,12.57 28.08,28.08" /><path
         id="path58"
         style="fill:none;stroke:#000000;stroke-width:0.72000003;stroke-linecap:round;stroke-linejoin:round;stroke-miterlimit:10;stroke-dasharray:none;stroke-opacity:1"
         d="m 2744.64,1992.96 c 0,7.75 -6.28,14.04 -14.04,14.04 -7.75,0 -14.04,-6.29 -14.04,-14.04 0,-7.75 6.29,-14.04 14.04,-14.04 7.76,0 14.04,6.29 14.04,14.04" /><path
         id="path60"
         style="fill:none;stroke:#000000;stroke-width:8;stroke-linecap:round;stroke-linejoin:round;stroke-miterlimit:10;stroke-dasharray:none;stroke-opacity:1"
         d="m 2775.95,120.961 c 0,25.047 -20.3,45.352 -45.35,45.352 -25.05,0 -45.35,-20.305 -45.35,-45.352 0,-25.0469 20.3,-45.3555 45.35,-45.3555 25.05,0 45.35,20.3086 45.35,45.3555" /><path
         id="path62"
         style="fill:none;stroke:#000000;stroke-width:0.72000003;stroke-linecap:round;stroke-linejoin:round;stroke-miterlimit:10;stroke-dasharray:none;stroke-opacity:1"
         d="m 2701.8,120.961 57.6,0" /><path
         id="path64"
         style="fill:none;stroke:#000000;stroke-width:0.72000003;stroke-linecap:round;stroke-linejoin:round;stroke-miterlimit:10;stroke-dasharray:none;stroke-opacity:1"
         d="m 2730.6,92.1602 0,57.6018" /><path
         id="path66"
         style="fill:none;stroke:#000000;stroke-width:0.72000003;stroke-linecap:round;stroke-linejoin:round;stroke-miterlimit:10;stroke-dasharray:none;stroke-opacity:1"
         d="m 2758.68,120.961 c 0,15.508 -12.57,28.078 -28.08,28.078 -15.51,0 -28.08,-12.57 -28.08,-28.078 0,-15.508 12.57,-28.0821 28.08,-28.0821 15.51,0 28.08,12.5741 28.08,28.0821" /><path
         id="path68"
         style="fill:none;stroke:#000000;stroke-width:0.72000003;stroke-linecap:round;stroke-linejoin:round;stroke-miterlimit:10;stroke-dasharray:none;stroke-opacity:1"
         d="m 2744.64,120.961 c 0,7.754 -6.28,14.039 -14.04,14.039 -7.75,0 -14.04,-6.285 -14.04,-14.039 0,-7.754 6.29,-14.039 14.04,-14.039 7.76,0 14.04,6.285 14.04,14.039" /><path
         id="path70"
         style="fill:none;stroke:#000000;stroke-width:8;stroke-linecap:round;stroke-linejoin:round;stroke-miterlimit:10;stroke-dasharray:none;stroke-opacity:1"
         d="m 925.199,1110.96 c 0,6.96 -5.64,12.6 -12.597,12.6 -6.957,0 -12.602,-5.64 -12.602,-12.6 0,-6.96 5.645,-12.6 12.602,-12.6 6.957,0 12.597,5.64 12.597,12.6" /><path
         id="path72"
         style="fill:none;stroke:#000000;stroke-width:0.72000003;stroke-linecap:round;stroke-linejoin:round;stroke-miterlimit:10;stroke-dasharray:none;stroke-opacity:1"
         d="m 940.68,1110.96 c 0,15.51 -12.571,28.08 -28.078,28.08 -15.508,0 -28.082,-12.57 -28.082,-28.08 0,-15.51 12.574,-28.08 28.082,-28.08 15.507,0 28.078,12.57 28.078,28.08" /><path
         id="path74"
         style="fill:none;stroke:#000000;stroke-width:0.72000003;stroke-linecap:round;stroke-linejoin:round;stroke-miterlimit:10;stroke-dasharray:none;stroke-opacity:1"
         d="m 883.801,1082.16 57.597,57.6" /><path
         id="path76"
         style="fill:none;stroke:#000000;stroke-width:8;stroke-linecap:round;stroke-linejoin:round;stroke-miterlimit:10;stroke-dasharray:none;stroke-opacity:1"
         d="m 781.199,1082.16 c 0,6.96 -5.64,12.6 -12.597,12.6 -6.957,0 -12.602,-5.64 -12.602,-12.6 0,-6.96 5.645,-12.6 12.602,-12.6 6.957,0 12.597,5.64 12.597,12.6" /><path
         id="path78"
         style="fill:none;stroke:#000000;stroke-width:0.72000003;stroke-linecap:round;stroke-linejoin:round;stroke-miterlimit:10;stroke-dasharray:none;stroke-opacity:1"
         d="m 796.68,1082.16 c 0,15.51 -12.571,28.08 -28.078,28.08 -15.508,0 -28.082,-12.57 -28.082,-28.08 0,-15.51 12.574,-28.08 28.082,-28.08 15.507,0 28.078,12.57 28.078,28.08" /><path
         id="path80"
         style="fill:none;stroke:#000000;stroke-width:0.72000003;stroke-linecap:round;stroke-linejoin:round;stroke-miterlimit:10;stroke-dasharray:none;stroke-opacity:1"
         d="m 739.801,1053.36 57.597,57.6" /><path
         id="path82"
         style="fill:none;stroke:#000000;stroke-width:8;stroke-linecap:round;stroke-linejoin:round;stroke-miterlimit:10;stroke-dasharray:none;stroke-opacity:1"
         d="m 781.199,1139.76 c 0,6.96 -5.64,12.6 -12.597,12.6 -6.957,0 -12.602,-5.64 -12.602,-12.6 0,-6.96 5.645,-12.6 12.602,-12.6 6.957,0 12.597,5.64 12.597,12.6" /><path
         id="path84"
         style="fill:none;stroke:#000000;stroke-width:0.72000003;stroke-linecap:round;stroke-linejoin:round;stroke-miterlimit:10;stroke-dasharray:none;stroke-opacity:1"
         d="m 796.68,1139.76 c 0,15.51 -12.571,28.08 -28.078,28.08 -15.508,0 -28.082,-12.57 -28.082,-28.08 0,-15.51 12.574,-28.08 28.082,-28.08 15.507,0 28.078,12.57 28.078,28.08" /><path
         id="path86"
         style="fill:none;stroke:#000000;stroke-width:0.72000003;stroke-linecap:round;stroke-linejoin:round;stroke-miterlimit:10;stroke-dasharray:none;stroke-opacity:1"
         d="m 739.801,1110.96 57.597,57.6" /><path
         id="path88"
         style="fill:none;stroke:#000000;stroke-width:8;stroke-linecap:round;stroke-linejoin:round;stroke-miterlimit:10;stroke-dasharray:none;stroke-opacity:1"
         d="m 2707.36,1299.32 c 0,7.04 -5.72,12.76 -12.76,12.76 -7.04,0 -12.76,-5.72 -12.76,-12.76 0,-7.04 5.72,-12.75 12.76,-12.75 7.04,0 12.76,5.71 12.76,12.75" /><path
         id="path90"
         style="fill:none;stroke:#000000;stroke-width:0.72000003;stroke-linecap:round;stroke-linejoin:round;stroke-miterlimit:10;stroke-dasharray:none;stroke-opacity:1"
         d="m 2665.8,1270.52 57.6,57.6" /><path
         id="path92"
         style="fill:none;stroke:#000000;stroke-width:0.72000003;stroke-linecap:round;stroke-linejoin:round;stroke-miterlimit:10;stroke-dasharray:none;stroke-opacity:1"
         d="m 2723.4,1328.12 -57.6,0" /><path
         id="path94"
         style="fill:none;stroke:#000000;stroke-width:0.72000003;stroke-linecap:round;stroke-linejoin:round;stroke-miterlimit:10;stroke-dasharray:none;stroke-opacity:1"
         d="m 2665.8,1328.12 57.6,-57.6" /><path
         id="path96"
         style="fill:none;stroke:#000000;stroke-width:0.72000003;stroke-linecap:round;stroke-linejoin:round;stroke-miterlimit:10;stroke-dasharray:none;stroke-opacity:1"
         d="m 2723.4,1270.52 -57.6,0" /><path
         id="path98"
         style="fill:none;stroke:#000000;stroke-width:8;stroke-linecap:round;stroke-linejoin:round;stroke-miterlimit:10;stroke-dasharray:none;stroke-opacity:1"
         d="m 2707.36,1174.6 c 0,7.04 -5.72,12.76 -12.76,12.76 -7.04,0 -12.76,-5.72 -12.76,-12.76 0,-7.05 5.72,-12.76 12.76,-12.76 7.04,0 12.76,5.71 12.76,12.76" /><path
         id="path100"
         style="fill:none;stroke:#000000;stroke-width:0.72000003;stroke-linecap:round;stroke-linejoin:round;stroke-miterlimit:10;stroke-dasharray:none;stroke-opacity:1"
         d="m 2665.8,1145.8 57.6,57.6" /><path
         id="path102"
         style="fill:none;stroke:#000000;stroke-width:0.72000003;stroke-linecap:round;stroke-linejoin:round;stroke-miterlimit:10;stroke-dasharray:none;stroke-opacity:1"
         d="m 2723.4,1203.4 -57.6,0" /><path
         id="path104"
         style="fill:none;stroke:#000000;stroke-width:0.72000003;stroke-linecap:round;stroke-linejoin:round;stroke-miterlimit:10;stroke-dasharray:none;stroke-opacity:1"
         d="m 2665.8,1203.4 57.6,-57.6" /><path
         id="path106"
         style="fill:none;stroke:#000000;stroke-width:0.72000003;stroke-linecap:round;stroke-linejoin:round;stroke-miterlimit:10;stroke-dasharray:none;stroke-opacity:1"
         d="m 2723.4,1145.8 -57.6,0" /><path
         id="path108"
         style="fill:none;stroke:#000000;stroke-width:8;stroke-linecap:round;stroke-linejoin:round;stroke-miterlimit:10;stroke-dasharray:none;stroke-opacity:1"
         d="m 414.129,1964.33 c 0,25.05 -20.309,45.35 -45.356,45.35 -25.046,0 -45.355,-20.3 -45.355,-45.35 0,-25.04 20.309,-45.35 45.355,-45.35 25.047,0 45.356,20.31 45.356,45.35" /><path
         id="path110"
         style="fill:none;stroke:#000000;stroke-width:0.72000003;stroke-linecap:round;stroke-linejoin:round;stroke-miterlimit:10;stroke-dasharray:none;stroke-opacity:1"
         d="m 339.973,1964.33 57.601,0" /><path
         id="path112"
         style="fill:none;stroke:#000000;stroke-width:0.72000003;stroke-linecap:round;stroke-linejoin:round;stroke-miterlimit:10;stroke-dasharray:none;stroke-opacity:1"
         d="m 368.773,1935.53 0,57.6" /><path
         id="path114"
         style="fill:none;stroke:#000000;stroke-width:0.72000003;stroke-linecap:round;stroke-linejoin:round;stroke-miterlimit:10;stroke-dasharray:none;stroke-opacity:1"
         d="m 396.852,1964.33 c 0,15.51 -12.571,28.08 -28.079,28.08 -15.507,0 -28.082,-12.57 -28.082,-28.08 0,-15.51 12.575,-28.08 28.082,-28.08 15.508,0 28.079,12.57 28.079,28.08" /><path
         id="path116"
         style="fill:none;stroke:#000000;stroke-width:0.72000003;stroke-linecap:round;stroke-linejoin:round;stroke-miterlimit:10;stroke-dasharray:none;stroke-opacity:1"
         d="m 382.813,1964.33 c 0,7.76 -6.286,14.04 -14.04,14.04 -7.753,0 -14.039,-6.28 -14.039,-14.04 0,-7.75 6.286,-14.04 14.039,-14.04 7.754,0 14.04,6.29 14.04,14.04" /><path
         id="path118"
         style="fill:none;stroke:#000000;stroke-width:8;stroke-linecap:round;stroke-linejoin:round;stroke-miterlimit:10;stroke-dasharray:none;stroke-opacity:1"
         d="m 414.129,1085.59 c 0,25.05 -20.309,45.36 -45.356,45.36 -25.046,0 -45.355,-20.31 -45.355,-45.36 0,-25.05 20.309,-45.36 45.355,-45.36 25.047,0 45.356,20.31 45.356,45.36" /><path
         id="path120"
         style="fill:none;stroke:#000000;stroke-width:0.72000003;stroke-linecap:round;stroke-linejoin:round;stroke-miterlimit:10;stroke-dasharray:none;stroke-opacity:1"
         d="m 339.973,1085.59 57.601,0" /><path
         id="path122"
         style="fill:none;stroke:#000000;stroke-width:0.72000003;stroke-linecap:round;stroke-linejoin:round;stroke-miterlimit:10;stroke-dasharray:none;stroke-opacity:1"
         d="m 368.773,1056.79 0,57.6" /><path
         id="path124"
         style="fill:none;stroke:#000000;stroke-width:0.72000003;stroke-linecap:round;stroke-linejoin:round;stroke-miterlimit:10;stroke-dasharray:none;stroke-opacity:1"
         d="m 396.852,1085.59 c 0,15.51 -12.571,28.08 -28.079,28.08 -15.507,0 -28.082,-12.57 -28.082,-28.08 0,-15.51 12.575,-28.08 28.082,-28.08 15.508,0 28.079,12.57 28.079,28.08" /><path
         id="path126"
         style="fill:none;stroke:#000000;stroke-width:0.72000003;stroke-linecap:round;stroke-linejoin:round;stroke-miterlimit:10;stroke-dasharray:none;stroke-opacity:1"
         d="m 382.813,1085.59 c 0,7.75 -6.286,14.04 -14.04,14.04 -7.753,0 -14.039,-6.29 -14.039,-14.04 0,-7.75 6.286,-14.04 14.039,-14.04 7.754,0 14.04,6.29 14.04,14.04" /><path
         id="path128"
         style="fill:none;stroke:#000000;stroke-width:8;stroke-linecap:round;stroke-linejoin:round;stroke-miterlimit:10;stroke-dasharray:none;stroke-opacity:1"
         d="m 2545.78,1085.59 c 0,25.05 -20.31,45.36 -45.35,45.36 -25.05,0 -45.36,-20.31 -45.36,-45.36 0,-25.05 20.31,-45.36 45.36,-45.36 25.04,0 45.35,20.31 45.35,45.36" /><path
         id="path130"
         style="fill:none;stroke:#000000;stroke-width:0.72000003;stroke-linecap:round;stroke-linejoin:round;stroke-miterlimit:10;stroke-dasharray:none;stroke-opacity:1"
         d="m 2471.63,1085.59 57.6,0" /><path
         id="path132"
         style="fill:none;stroke:#000000;stroke-width:0.72000003;stroke-linecap:round;stroke-linejoin:round;stroke-miterlimit:10;stroke-dasharray:none;stroke-opacity:1"
         d="m 2500.43,1056.79 0,57.6" /><path
         id="path134"
         style="fill:none;stroke:#000000;stroke-width:0.72000003;stroke-linecap:round;stroke-linejoin:round;stroke-miterlimit:10;stroke-dasharray:none;stroke-opacity:1"
         d="m 2528.51,1085.59 c 0,15.51 -12.58,28.08 -28.08,28.08 -15.51,0 -28.08,-12.57 -28.08,-28.08 0,-15.51 12.57,-28.08 28.08,-28.08 15.5,0 28.08,12.57 28.08,28.08" /><path
         id="path136"
         style="fill:none;stroke:#000000;stroke-width:0.72000003;stroke-linecap:round;stroke-linejoin:round;stroke-miterlimit:10;stroke-dasharray:none;stroke-opacity:1"
         d="m 2514.46,1085.59 c 0,7.75 -6.28,14.04 -14.03,14.04 -7.76,0 -14.04,-6.29 -14.04,-14.04 0,-7.75 6.28,-14.04 14.04,-14.04 7.75,0 14.03,6.29 14.03,14.04" /><path
         id="path138"
         style="fill:none;stroke:#000000;stroke-width:8;stroke-linecap:round;stroke-linejoin:round;stroke-miterlimit:10;stroke-dasharray:none;stroke-opacity:1"
         d="m 2545.78,1964.33 c 0,25.05 -20.31,45.35 -45.35,45.35 -25.05,0 -45.36,-20.3 -45.36,-45.35 0,-25.04 20.31,-45.35 45.36,-45.35 25.04,0 45.35,20.31 45.35,45.35" /><path
         id="path140"
         style="fill:none;stroke:#000000;stroke-width:0.72000003;stroke-linecap:round;stroke-linejoin:round;stroke-miterlimit:10;stroke-dasharray:none;stroke-opacity:1"
         d="m 2471.63,1964.33 57.6,0" /><path
         id="path142"
         style="fill:none;stroke:#000000;stroke-width:0.72000003;stroke-linecap:round;stroke-linejoin:round;stroke-miterlimit:10;stroke-dasharray:none;stroke-opacity:1"
         d="m 2500.43,1935.53 0,57.6" /><path
         id="path144"
         style="fill:none;stroke:#000000;stroke-width:0.72000003;stroke-linecap:round;stroke-linejoin:round;stroke-miterlimit:10;stroke-dasharray:none;stroke-opacity:1"
         d="m 2528.51,1964.33 c 0,15.51 -12.58,28.08 -28.08,28.08 -15.51,0 -28.08,-12.57 -28.08,-28.08 0,-15.51 12.57,-28.08 28.08,-28.08 15.5,0 28.08,12.57 28.08,28.08" /><path
         id="path146"
         style="fill:none;stroke:#000000;stroke-width:0.72000003;stroke-linecap:round;stroke-linejoin:round;stroke-miterlimit:10;stroke-dasharray:none;stroke-opacity:1"
         d="m 2514.46,1964.33 c 0,7.76 -6.28,14.04 -14.03,14.04 -7.76,0 -14.04,-6.28 -14.04,-14.04 0,-7.75 6.28,-14.04 14.04,-14.04 7.75,0 14.03,6.29 14.03,14.04" /><path
         id="path148"
         style="fill:none;stroke:#000000;stroke-width:8;stroke-linecap:round;stroke-linejoin:round;stroke-miterlimit:10;stroke-dasharray:none;stroke-opacity:1"
         d="m 2728.05,1839.04 c 0,18.47 -14.98,33.45 -33.45,33.45 -18.47,0 -33.45,-14.98 -33.45,-33.45 0,-18.47 14.98,-33.45 33.45,-33.45 18.47,0 33.45,14.98 33.45,33.45" /><path
         id="path150"
         style="fill:none;stroke:#000000;stroke-width:0.72000003;stroke-linecap:round;stroke-linejoin:round;stroke-miterlimit:10;stroke-dasharray:none;stroke-opacity:1"
         d="m 2722.68,1839.04 c 0,15.51 -12.57,28.08 -28.08,28.08 -15.51,0 -28.08,-12.57 -28.08,-28.08 0,-15.51 12.57,-28.08 28.08,-28.08 15.51,0 28.08,12.57 28.08,28.08" /><path
         id="path152"
         style="fill:none;stroke:#000000;stroke-width:0.72000003;stroke-linecap:round;stroke-linejoin:round;stroke-miterlimit:10;stroke-dasharray:none;stroke-opacity:1"
         d="m 2665.8,1810.24 57.6,57.6" /><path
         id="path154"
         style="fill:none;stroke:#000000;stroke-width:8;stroke-linecap:round;stroke-linejoin:round;stroke-miterlimit:10;stroke-dasharray:none;stroke-opacity:1"
         d="m 2728.05,1498.88 c 0,18.48 -14.98,33.45 -33.45,33.45 -18.47,0 -33.45,-14.97 -33.45,-33.45 0,-18.47 14.98,-33.45 33.45,-33.45 18.47,0 33.45,14.98 33.45,33.45" /><path
         id="path156"
         style="fill:none;stroke:#000000;stroke-width:0.72000003;stroke-linecap:round;stroke-linejoin:round;stroke-miterlimit:10;stroke-dasharray:none;stroke-opacity:1"
         d="m 2722.68,1498.88 c 0,15.51 -12.57,28.08 -28.08,28.08 -15.51,0 -28.08,-12.57 -28.08,-28.08 0,-15.5 12.57,-28.08 28.08,-28.08 15.51,0 28.08,12.58 28.08,28.08" /><path
         id="path158"
         style="fill:none;stroke:#000000;stroke-width:0.72000003;stroke-linecap:round;stroke-linejoin:round;stroke-miterlimit:10;stroke-dasharray:none;stroke-opacity:1"
         d="m 2665.8,1470.08 57.6,57.6" /></g></g></svg>