G75*
%MOIN*%
%OFA0B0*%
%FSLAX25Y25*%
%IPPOS*%
%LPD*%
%AMOC8*
5,1,8,0,0,1.08239X$1,22.5*
%
%ADD10R,0.15024X0.15024*%
%ADD11R,0.07087X0.07087*%
%ADD12C,0.04134*%
%ADD13R,0.06000X0.06000*%
%ADD14C,0.06000*%
%ADD15C,0.05118*%
%ADD16C,0.07400*%
%ADD17R,0.05906X0.05906*%
%ADD18OC8,0.04800*%
%ADD19C,0.05400*%
%ADD20OC8,0.05400*%
%ADD21C,0.04724*%
%ADD22C,0.05400*%
%ADD23C,0.01600*%
%ADD24R,0.02400X0.02400*%
%ADD25R,0.03562X0.03562*%
%ADD26R,0.04134X0.04134*%
%ADD27C,0.05000*%
D10*
X0338778Y0027194D03*
X0338778Y0076406D03*
D11*
X0366337Y0061643D03*
X0366337Y0041957D03*
X0309250Y0041957D03*
X0309250Y0051800D03*
X0309250Y0061643D03*
D12*
X0261317Y0057611D02*
X0257183Y0057611D01*
X0257183Y0051987D02*
X0261317Y0051987D01*
X0261317Y0046363D02*
X0257183Y0046363D01*
X0257183Y0040739D02*
X0261317Y0040739D01*
D13*
X0073266Y0272824D03*
D14*
X0083266Y0272824D03*
X0093266Y0272824D03*
X0103266Y0272824D03*
X0113266Y0272824D03*
X0123266Y0272824D03*
X0133266Y0272824D03*
X0143266Y0272824D03*
X0153266Y0272824D03*
X0163266Y0272824D03*
X0173266Y0272824D03*
X0183266Y0272824D03*
X0193266Y0272824D03*
X0203266Y0272824D03*
X0213266Y0272824D03*
X0223266Y0272824D03*
D15*
X0355195Y0237863D03*
X0365195Y0241800D03*
X0365195Y0233769D03*
X0355195Y0229831D03*
X0365195Y0225737D03*
X0355195Y0221800D03*
D16*
X0181750Y0136800D03*
X0171750Y0136800D03*
D17*
X0084250Y0057300D03*
X0084250Y0049300D03*
X0084250Y0041300D03*
D18*
X0171750Y0124300D03*
X0181750Y0124300D03*
D19*
X0021750Y0191800D03*
D20*
X0031750Y0191800D03*
X0031750Y0201800D03*
X0021750Y0201800D03*
X0021750Y0211800D03*
X0031750Y0211800D03*
D21*
X0023030Y0239300D03*
X0034250Y0249300D03*
X0023030Y0259300D03*
D22*
X0254250Y0271600D02*
X0254250Y0277000D01*
X0264250Y0277000D02*
X0264250Y0271600D01*
X0289250Y0152000D02*
X0289250Y0146600D01*
X0299250Y0146600D02*
X0299250Y0152000D01*
X0314050Y0019300D02*
X0319450Y0019300D01*
X0319450Y0009300D02*
X0314050Y0009300D01*
D23*
X0391650Y0004400D02*
X0006850Y0004400D01*
X0006850Y0289200D01*
X0391650Y0289200D01*
X0391650Y0004400D01*
X0391650Y0004997D02*
X0320780Y0004997D01*
X0320342Y0004816D02*
X0321990Y0005498D01*
X0323252Y0006760D01*
X0323934Y0008408D01*
X0323934Y0010192D01*
X0323252Y0011840D01*
X0321990Y0013102D01*
X0320342Y0013784D01*
X0313158Y0013784D01*
X0311510Y0013102D01*
X0310248Y0011840D01*
X0309566Y0010192D01*
X0309566Y0008408D01*
X0310248Y0006760D01*
X0311510Y0005498D01*
X0313158Y0004816D01*
X0320342Y0004816D01*
X0323087Y0006596D02*
X0391650Y0006596D01*
X0391650Y0008194D02*
X0323846Y0008194D01*
X0323934Y0009793D02*
X0375003Y0009793D01*
X0374662Y0009934D02*
X0377639Y0008701D01*
X0380861Y0008701D01*
X0383838Y0009934D01*
X0386116Y0012212D01*
X0387349Y0015189D01*
X0387349Y0018411D01*
X0386116Y0021388D01*
X0383838Y0023666D01*
X0380861Y0024899D01*
X0377639Y0024899D01*
X0374662Y0023666D01*
X0372384Y0021388D01*
X0371151Y0018411D01*
X0371151Y0015189D01*
X0372384Y0012212D01*
X0374662Y0009934D01*
X0373205Y0011391D02*
X0323438Y0011391D01*
X0322102Y0012990D02*
X0372062Y0012990D01*
X0371400Y0014588D02*
X0210704Y0014588D01*
X0210723Y0014596D02*
X0211454Y0015327D01*
X0211850Y0016283D01*
X0211850Y0082317D01*
X0211454Y0083273D01*
X0210723Y0084004D01*
X0209767Y0084400D01*
X0143733Y0084400D01*
X0142777Y0084004D01*
X0142046Y0083273D01*
X0141650Y0082317D01*
X0141650Y0016283D01*
X0142046Y0015327D01*
X0142777Y0014596D01*
X0143733Y0014200D01*
X0144767Y0014200D01*
X0209767Y0014200D01*
X0210723Y0014596D01*
X0211810Y0016187D02*
X0310799Y0016187D01*
X0310618Y0016368D02*
X0311118Y0015868D01*
X0311691Y0015451D01*
X0312323Y0015130D01*
X0312996Y0014911D01*
X0313696Y0014800D01*
X0316650Y0014800D01*
X0316650Y0019200D01*
X0316850Y0019200D01*
X0316850Y0019400D01*
X0316650Y0019400D01*
X0316650Y0023800D01*
X0313696Y0023800D01*
X0312996Y0023689D01*
X0312323Y0023470D01*
X0311691Y0023149D01*
X0311118Y0022732D01*
X0310618Y0022232D01*
X0310201Y0021659D01*
X0309880Y0021027D01*
X0309661Y0020354D01*
X0309550Y0019654D01*
X0309550Y0019400D01*
X0316650Y0019400D01*
X0316650Y0019200D01*
X0309550Y0019200D01*
X0309550Y0018946D01*
X0309661Y0018246D01*
X0309880Y0017573D01*
X0310201Y0016941D01*
X0310618Y0016368D01*
X0309811Y0017785D02*
X0211850Y0017785D01*
X0211850Y0019384D02*
X0316650Y0019384D01*
X0316850Y0019384D02*
X0329481Y0019384D01*
X0329481Y0018943D02*
X0330527Y0017898D01*
X0347028Y0017898D01*
X0348074Y0018943D01*
X0348074Y0035445D01*
X0347028Y0036490D01*
X0330527Y0036490D01*
X0329481Y0035445D01*
X0329481Y0018943D01*
X0329481Y0020982D02*
X0323635Y0020982D01*
X0323620Y0021027D02*
X0323299Y0021659D01*
X0322882Y0022232D01*
X0322382Y0022732D01*
X0321809Y0023149D01*
X0321177Y0023470D01*
X0320504Y0023689D01*
X0319804Y0023800D01*
X0316850Y0023800D01*
X0316850Y0019400D01*
X0323950Y0019400D01*
X0323950Y0019654D01*
X0323839Y0020354D01*
X0323620Y0021027D01*
X0323950Y0019200D02*
X0316850Y0019200D01*
X0316850Y0014800D01*
X0319804Y0014800D01*
X0320504Y0014911D01*
X0321177Y0015130D01*
X0321809Y0015451D01*
X0322382Y0015868D01*
X0322882Y0016368D01*
X0323299Y0016941D01*
X0323620Y0017573D01*
X0323839Y0018246D01*
X0323950Y0018946D01*
X0323950Y0019200D01*
X0323689Y0017785D02*
X0371151Y0017785D01*
X0371151Y0016187D02*
X0322701Y0016187D01*
X0316850Y0016187D02*
X0316650Y0016187D01*
X0316650Y0017785D02*
X0316850Y0017785D01*
X0316850Y0020982D02*
X0316650Y0020982D01*
X0316650Y0022581D02*
X0316850Y0022581D01*
X0322533Y0022581D02*
X0329481Y0022581D01*
X0329481Y0024179D02*
X0211850Y0024179D01*
X0211850Y0022581D02*
X0310967Y0022581D01*
X0309865Y0020982D02*
X0211850Y0020982D01*
X0211850Y0025778D02*
X0329481Y0025778D01*
X0329481Y0027376D02*
X0211850Y0027376D01*
X0211850Y0028975D02*
X0329481Y0028975D01*
X0329481Y0030573D02*
X0211850Y0030573D01*
X0211850Y0032172D02*
X0329481Y0032172D01*
X0329481Y0033770D02*
X0211850Y0033770D01*
X0211850Y0035369D02*
X0329481Y0035369D01*
X0314593Y0038177D02*
X0314471Y0037719D01*
X0314234Y0037309D01*
X0313899Y0036974D01*
X0313488Y0036737D01*
X0313030Y0036614D01*
X0309631Y0036614D01*
X0309631Y0041576D01*
X0308869Y0041576D01*
X0308869Y0036614D01*
X0305470Y0036614D01*
X0305012Y0036737D01*
X0304601Y0036974D01*
X0304266Y0037309D01*
X0304029Y0037719D01*
X0303907Y0038177D01*
X0303907Y0041576D01*
X0308869Y0041576D01*
X0308869Y0042339D01*
X0303907Y0042339D01*
X0303907Y0045738D01*
X0304029Y0046196D01*
X0304266Y0046606D01*
X0304550Y0046890D01*
X0303922Y0047518D01*
X0303922Y0049216D01*
X0301236Y0049216D01*
X0300286Y0049609D01*
X0299559Y0050336D01*
X0299166Y0051286D01*
X0299166Y0104216D01*
X0205036Y0104216D01*
X0204086Y0104609D01*
X0203359Y0105336D01*
X0202966Y0106286D01*
X0202966Y0158350D01*
X0141205Y0151224D01*
X0141064Y0151166D01*
X0140699Y0151166D01*
X0140336Y0151124D01*
X0140189Y0151166D01*
X0140036Y0151166D01*
X0139698Y0151306D01*
X0139347Y0151406D01*
X0139227Y0151501D01*
X0139086Y0151559D01*
X0138828Y0151818D01*
X0138541Y0152045D01*
X0138467Y0152178D01*
X0138359Y0152286D01*
X0138219Y0152624D01*
X0138042Y0152943D01*
X0138024Y0153095D01*
X0137966Y0153236D01*
X0137966Y0153601D01*
X0137924Y0153964D01*
X0137966Y0154111D01*
X0137966Y0155766D01*
X0134811Y0155766D01*
X0134411Y0156166D01*
X0133539Y0156166D01*
X0133941Y0155764D01*
X0134334Y0154814D01*
X0134334Y0126286D01*
X0133941Y0125336D01*
X0133214Y0124609D01*
X0132264Y0124216D01*
X0106589Y0124216D01*
X0106189Y0123816D01*
X0102311Y0123816D01*
X0101266Y0124861D01*
X0101266Y0128739D01*
X0102311Y0129784D01*
X0106189Y0129784D01*
X0106589Y0129384D01*
X0109242Y0129384D01*
X0108766Y0129861D01*
X0108766Y0133739D01*
X0109811Y0134784D01*
X0113689Y0134784D01*
X0114089Y0134384D01*
X0121666Y0134384D01*
X0121666Y0136961D01*
X0121266Y0137361D01*
X0121266Y0141239D01*
X0122311Y0142284D01*
X0126189Y0142284D01*
X0127234Y0141239D01*
X0127234Y0137361D01*
X0126834Y0136961D01*
X0126834Y0131286D01*
X0126441Y0130336D01*
X0125714Y0129609D01*
X0125171Y0129384D01*
X0129166Y0129384D01*
X0129166Y0144195D01*
X0128761Y0143790D01*
X0127456Y0143250D01*
X0126044Y0143250D01*
X0124739Y0143790D01*
X0123740Y0144789D01*
X0123200Y0146094D01*
X0123200Y0147506D01*
X0123740Y0148811D01*
X0124739Y0149810D01*
X0126044Y0150350D01*
X0127456Y0150350D01*
X0128761Y0149810D01*
X0129166Y0149405D01*
X0129166Y0151316D01*
X0127311Y0151316D01*
X0126266Y0152361D01*
X0126266Y0156166D01*
X0119089Y0156166D01*
X0118689Y0155766D01*
X0114811Y0155766D01*
X0114411Y0156166D01*
X0094214Y0156166D01*
X0093689Y0155641D01*
X0090484Y0155641D01*
X0090484Y0116639D01*
X0090884Y0116239D01*
X0090884Y0112361D01*
X0089839Y0111316D01*
X0086034Y0111316D01*
X0086034Y0098448D01*
X0085382Y0096873D01*
X0084177Y0095668D01*
X0082602Y0095016D01*
X0061034Y0095016D01*
X0061034Y0053584D01*
X0079659Y0053584D01*
X0079620Y0053652D01*
X0079497Y0054110D01*
X0079497Y0057116D01*
X0084066Y0057116D01*
X0084066Y0057484D01*
X0079497Y0057484D01*
X0079497Y0060490D01*
X0079620Y0060948D01*
X0079857Y0061358D01*
X0080192Y0061693D01*
X0080602Y0061930D01*
X0081060Y0062053D01*
X0084066Y0062053D01*
X0084066Y0057484D01*
X0084434Y0057484D01*
X0084434Y0062053D01*
X0087440Y0062053D01*
X0087898Y0061930D01*
X0088308Y0061693D01*
X0088643Y0061358D01*
X0088880Y0060948D01*
X0089003Y0060490D01*
X0089003Y0057484D01*
X0084434Y0057484D01*
X0084434Y0057116D01*
X0089003Y0057116D01*
X0089003Y0054110D01*
X0088880Y0053652D01*
X0088677Y0053301D01*
X0088987Y0052992D01*
X0088987Y0045608D01*
X0088679Y0045300D01*
X0088987Y0044992D01*
X0088987Y0037608D01*
X0087942Y0036563D01*
X0080558Y0036563D01*
X0079513Y0037608D01*
X0079513Y0038716D01*
X0048736Y0038716D01*
X0047786Y0039109D01*
X0047059Y0039836D01*
X0046666Y0040786D01*
X0046666Y0107814D01*
X0047059Y0108764D01*
X0047786Y0109491D01*
X0048736Y0109884D01*
X0071666Y0109884D01*
X0071666Y0221792D01*
X0071189Y0221316D01*
X0067311Y0221316D01*
X0066911Y0221716D01*
X0024334Y0221716D01*
X0024334Y0215557D01*
X0026234Y0213657D01*
X0026234Y0209943D01*
X0023607Y0207316D01*
X0019893Y0207316D01*
X0017266Y0209943D01*
X0017266Y0213657D01*
X0019166Y0215557D01*
X0019166Y0224814D01*
X0019559Y0225764D01*
X0020286Y0226491D01*
X0021236Y0226884D01*
X0066911Y0226884D01*
X0067311Y0227284D01*
X0071189Y0227284D01*
X0071666Y0226808D01*
X0071666Y0233064D01*
X0072059Y0234014D01*
X0072786Y0234741D01*
X0073736Y0235134D01*
X0140461Y0235134D01*
X0140861Y0235534D01*
X0144739Y0235534D01*
X0145784Y0234489D01*
X0145784Y0230611D01*
X0144739Y0229566D01*
X0140861Y0229566D01*
X0140461Y0229966D01*
X0076834Y0229966D01*
X0076834Y0106786D01*
X0076441Y0105836D01*
X0075714Y0105109D01*
X0074764Y0104716D01*
X0051834Y0104716D01*
X0051834Y0043884D01*
X0079513Y0043884D01*
X0079513Y0044992D01*
X0079537Y0045016D01*
X0055898Y0045016D01*
X0054323Y0045668D01*
X0053118Y0046873D01*
X0052466Y0048448D01*
X0052466Y0100152D01*
X0053118Y0101727D01*
X0054323Y0102932D01*
X0055898Y0103584D01*
X0077466Y0103584D01*
X0077466Y0177652D01*
X0077899Y0178698D01*
X0077899Y0179606D01*
X0078944Y0180651D01*
X0079852Y0180651D01*
X0080898Y0181084D01*
X0082602Y0181084D01*
X0083648Y0180651D01*
X0084556Y0180651D01*
X0085338Y0179869D01*
X0085709Y0180764D01*
X0086436Y0181491D01*
X0087386Y0181884D01*
X0121911Y0181884D01*
X0122311Y0182284D01*
X0126189Y0182284D01*
X0127234Y0181239D01*
X0127234Y0177361D01*
X0126189Y0176316D01*
X0122311Y0176316D01*
X0121911Y0176716D01*
X0090484Y0176716D01*
X0090484Y0161609D01*
X0093689Y0161609D01*
X0093964Y0161334D01*
X0114411Y0161334D01*
X0114811Y0161734D01*
X0118689Y0161734D01*
X0119089Y0161334D01*
X0134411Y0161334D01*
X0134811Y0161734D01*
X0137966Y0161734D01*
X0137966Y0208316D01*
X0136561Y0208316D01*
X0135516Y0209361D01*
X0135516Y0213239D01*
X0136561Y0214284D01*
X0140439Y0214284D01*
X0140716Y0214008D01*
X0140716Y0216239D01*
X0141761Y0217284D01*
X0145639Y0217284D01*
X0146684Y0216239D01*
X0146684Y0212361D01*
X0146284Y0211961D01*
X0146284Y0166884D01*
X0179992Y0166884D01*
X0179766Y0167111D01*
X0179766Y0170989D01*
X0180811Y0172034D01*
X0184689Y0172034D01*
X0185734Y0170989D01*
X0185734Y0170684D01*
X0214114Y0170684D01*
X0215064Y0170291D01*
X0215791Y0169564D01*
X0216184Y0168614D01*
X0216184Y0116884D01*
X0317264Y0116884D01*
X0318214Y0116491D01*
X0318941Y0115764D01*
X0319334Y0114814D01*
X0319334Y0064227D01*
X0361009Y0064227D01*
X0361009Y0065925D01*
X0362054Y0066970D01*
X0370619Y0066970D01*
X0371664Y0065925D01*
X0371664Y0057360D01*
X0370619Y0056315D01*
X0362054Y0056315D01*
X0361009Y0057360D01*
X0361009Y0059058D01*
X0316236Y0059058D01*
X0315286Y0059452D01*
X0314578Y0060160D01*
X0314578Y0057360D01*
X0313939Y0056721D01*
X0314578Y0056082D01*
X0314578Y0047518D01*
X0313950Y0046890D01*
X0314234Y0046606D01*
X0314471Y0046196D01*
X0314593Y0045738D01*
X0314593Y0042339D01*
X0309631Y0042339D01*
X0309631Y0041576D01*
X0314593Y0041576D01*
X0314593Y0038177D01*
X0314593Y0038566D02*
X0360993Y0038566D01*
X0360993Y0038177D02*
X0361116Y0037719D01*
X0361353Y0037309D01*
X0361688Y0036974D01*
X0362099Y0036737D01*
X0362556Y0036614D01*
X0365955Y0036614D01*
X0365955Y0041576D01*
X0360993Y0041576D01*
X0360993Y0038177D01*
X0361699Y0036967D02*
X0313887Y0036967D01*
X0314593Y0040164D02*
X0360993Y0040164D01*
X0360993Y0042339D02*
X0365955Y0042339D01*
X0365955Y0041576D01*
X0366718Y0041576D01*
X0366718Y0036614D01*
X0370117Y0036614D01*
X0370575Y0036737D01*
X0370985Y0036974D01*
X0371320Y0037309D01*
X0371557Y0037719D01*
X0371680Y0038177D01*
X0371680Y0041576D01*
X0366718Y0041576D01*
X0366718Y0042339D01*
X0365955Y0042339D01*
X0365955Y0047301D01*
X0362556Y0047301D01*
X0362099Y0047178D01*
X0361688Y0046941D01*
X0361353Y0046606D01*
X0361116Y0046196D01*
X0360993Y0045738D01*
X0360993Y0042339D01*
X0360993Y0043361D02*
X0314593Y0043361D01*
X0314593Y0044960D02*
X0360993Y0044960D01*
X0361325Y0046558D02*
X0314261Y0046558D01*
X0314578Y0048157D02*
X0391650Y0048157D01*
X0391650Y0049755D02*
X0314578Y0049755D01*
X0314578Y0051354D02*
X0391650Y0051354D01*
X0391650Y0052952D02*
X0314578Y0052952D01*
X0314578Y0054551D02*
X0391650Y0054551D01*
X0391650Y0056149D02*
X0314511Y0056149D01*
X0314578Y0057748D02*
X0361009Y0057748D01*
X0366337Y0061643D02*
X0316750Y0061643D01*
X0316750Y0114300D01*
X0213600Y0114300D01*
X0213600Y0168100D01*
X0182750Y0168100D01*
X0182750Y0169050D01*
X0179766Y0169644D02*
X0146284Y0169644D01*
X0146284Y0171242D02*
X0180019Y0171242D01*
X0179766Y0168045D02*
X0146284Y0168045D01*
X0146284Y0172841D02*
X0274966Y0172841D01*
X0274966Y0174439D02*
X0146284Y0174439D01*
X0146284Y0176038D02*
X0274966Y0176038D01*
X0274966Y0177636D02*
X0146284Y0177636D01*
X0146284Y0179235D02*
X0274966Y0179235D01*
X0274966Y0180833D02*
X0146284Y0180833D01*
X0146284Y0182432D02*
X0274966Y0182432D01*
X0274966Y0184030D02*
X0146284Y0184030D01*
X0146284Y0185629D02*
X0274966Y0185629D01*
X0274966Y0187227D02*
X0146284Y0187227D01*
X0146284Y0188826D02*
X0274966Y0188826D01*
X0274966Y0190424D02*
X0146284Y0190424D01*
X0146284Y0192023D02*
X0274966Y0192023D01*
X0274966Y0193621D02*
X0146284Y0193621D01*
X0146284Y0195220D02*
X0274966Y0195220D01*
X0274966Y0196818D02*
X0146284Y0196818D01*
X0146284Y0198417D02*
X0275283Y0198417D01*
X0275399Y0198698D02*
X0274966Y0197652D01*
X0274966Y0135948D01*
X0275618Y0134373D01*
X0276823Y0133168D01*
X0278398Y0132516D01*
X0380102Y0132516D01*
X0381148Y0132949D01*
X0382056Y0132949D01*
X0383101Y0133994D01*
X0383101Y0134902D01*
X0383534Y0135948D01*
X0383534Y0137652D01*
X0383101Y0138698D01*
X0383101Y0139606D01*
X0382056Y0140651D01*
X0381148Y0140651D01*
X0380102Y0141084D01*
X0283534Y0141084D01*
X0283534Y0197652D01*
X0283101Y0198698D01*
X0283101Y0199606D01*
X0282056Y0200651D01*
X0281148Y0200651D01*
X0280102Y0201084D01*
X0278398Y0201084D01*
X0277352Y0200651D01*
X0276444Y0200651D01*
X0275399Y0199606D01*
X0275399Y0198698D01*
X0275808Y0200015D02*
X0146284Y0200015D01*
X0146284Y0201614D02*
X0365950Y0201614D01*
X0365950Y0203212D02*
X0163634Y0203212D01*
X0163634Y0203011D02*
X0163634Y0206889D01*
X0163234Y0207289D01*
X0163234Y0224216D01*
X0344166Y0224216D01*
X0344166Y0213786D01*
X0344559Y0212836D01*
X0345286Y0212109D01*
X0346236Y0211716D01*
X0365709Y0211716D01*
X0365950Y0211816D01*
X0365950Y0198969D01*
X0366419Y0198500D01*
X0382081Y0198500D01*
X0382550Y0198969D01*
X0382550Y0214631D01*
X0382081Y0215100D01*
X0367779Y0215100D01*
X0367779Y0222179D01*
X0368877Y0223277D01*
X0369538Y0224873D01*
X0369538Y0226601D01*
X0368877Y0228197D01*
X0367655Y0229419D01*
X0366886Y0229738D01*
X0367480Y0230040D01*
X0368035Y0230444D01*
X0368520Y0230929D01*
X0368923Y0231484D01*
X0369235Y0232095D01*
X0369447Y0232748D01*
X0369554Y0233425D01*
X0369554Y0233768D01*
X0365195Y0233768D01*
X0365195Y0233769D01*
X0365195Y0233769D01*
X0365195Y0241800D01*
X0369554Y0241800D01*
X0369554Y0242143D01*
X0369447Y0242821D01*
X0369235Y0243473D01*
X0368923Y0244085D01*
X0368520Y0244640D01*
X0368035Y0245125D01*
X0367480Y0245528D01*
X0366868Y0245840D01*
X0366216Y0246052D01*
X0365538Y0246159D01*
X0365195Y0246159D01*
X0365195Y0241800D01*
X0365195Y0241800D01*
X0369554Y0241800D01*
X0369554Y0241457D01*
X0369447Y0240779D01*
X0369235Y0240127D01*
X0368923Y0239515D01*
X0368520Y0238960D01*
X0368035Y0238475D01*
X0367480Y0238072D01*
X0366915Y0237784D01*
X0367480Y0237497D01*
X0368035Y0237093D01*
X0368520Y0236608D01*
X0368923Y0236053D01*
X0369235Y0235442D01*
X0369447Y0234789D01*
X0369554Y0234112D01*
X0369554Y0233769D01*
X0365195Y0233769D01*
X0365195Y0237441D01*
X0365195Y0241800D01*
X0365195Y0241800D01*
X0365195Y0241800D01*
X0365195Y0246159D01*
X0364852Y0246159D01*
X0364174Y0246052D01*
X0363522Y0245840D01*
X0362910Y0245528D01*
X0362355Y0245125D01*
X0361870Y0244640D01*
X0361467Y0244085D01*
X0361155Y0243473D01*
X0360943Y0242821D01*
X0360836Y0242143D01*
X0360836Y0241800D01*
X0365195Y0241800D01*
X0360836Y0241800D01*
X0360836Y0241457D01*
X0360943Y0240779D01*
X0361155Y0240127D01*
X0361467Y0239515D01*
X0361870Y0238960D01*
X0362355Y0238475D01*
X0362910Y0238072D01*
X0363475Y0237784D01*
X0362910Y0237497D01*
X0362355Y0237093D01*
X0361870Y0236608D01*
X0361467Y0236053D01*
X0361155Y0235442D01*
X0360943Y0234789D01*
X0360836Y0234112D01*
X0360836Y0233769D01*
X0365195Y0233769D01*
X0365195Y0233768D01*
X0360836Y0233768D01*
X0360836Y0233425D01*
X0360943Y0232748D01*
X0361155Y0232095D01*
X0361467Y0231484D01*
X0361870Y0230929D01*
X0362355Y0230444D01*
X0362910Y0230040D01*
X0363504Y0229738D01*
X0362735Y0229419D01*
X0361513Y0228197D01*
X0360852Y0226601D01*
X0360852Y0224873D01*
X0361513Y0223277D01*
X0362611Y0222179D01*
X0362611Y0216884D01*
X0349334Y0216884D01*
X0349334Y0227247D01*
X0351637Y0227247D01*
X0352735Y0226149D01*
X0353540Y0225816D01*
X0352735Y0225482D01*
X0351513Y0224260D01*
X0350852Y0222664D01*
X0350852Y0220936D01*
X0351513Y0219340D01*
X0352735Y0218118D01*
X0354331Y0217457D01*
X0356059Y0217457D01*
X0357655Y0218118D01*
X0358877Y0219340D01*
X0359538Y0220936D01*
X0359538Y0222664D01*
X0358877Y0224260D01*
X0357655Y0225482D01*
X0356850Y0225816D01*
X0357655Y0226149D01*
X0358877Y0227371D01*
X0359538Y0228968D01*
X0359538Y0230695D01*
X0358877Y0232292D01*
X0357655Y0233514D01*
X0356850Y0233847D01*
X0357655Y0234181D01*
X0358877Y0235403D01*
X0359538Y0236999D01*
X0359538Y0238727D01*
X0358877Y0240323D01*
X0357655Y0241545D01*
X0356059Y0242206D01*
X0354331Y0242206D01*
X0352735Y0241545D01*
X0351513Y0240323D01*
X0350852Y0238727D01*
X0350852Y0236999D01*
X0351513Y0235403D01*
X0352735Y0234181D01*
X0353540Y0233847D01*
X0352735Y0233514D01*
X0351637Y0232416D01*
X0156336Y0232416D01*
X0155386Y0232022D01*
X0154659Y0231295D01*
X0154266Y0230346D01*
X0154266Y0211639D01*
X0153866Y0211239D01*
X0153866Y0207361D01*
X0154911Y0206316D01*
X0157666Y0206316D01*
X0157666Y0203011D01*
X0158711Y0201966D01*
X0162589Y0201966D01*
X0163634Y0203011D01*
X0163634Y0204811D02*
X0365950Y0204811D01*
X0365950Y0206409D02*
X0163634Y0206409D01*
X0163234Y0208008D02*
X0365950Y0208008D01*
X0365950Y0209606D02*
X0163234Y0209606D01*
X0163234Y0211205D02*
X0365950Y0211205D01*
X0365195Y0214300D02*
X0346750Y0214300D01*
X0346750Y0226800D01*
X0160650Y0226800D01*
X0160650Y0204950D01*
X0157666Y0204811D02*
X0146284Y0204811D01*
X0146284Y0206409D02*
X0154817Y0206409D01*
X0153866Y0208008D02*
X0146284Y0208008D01*
X0146284Y0209606D02*
X0153866Y0209606D01*
X0153866Y0211205D02*
X0146284Y0211205D01*
X0146684Y0212803D02*
X0154266Y0212803D01*
X0154266Y0214402D02*
X0146684Y0214402D01*
X0146684Y0216001D02*
X0154266Y0216001D01*
X0154266Y0217599D02*
X0076834Y0217599D01*
X0076834Y0216001D02*
X0140716Y0216001D01*
X0140716Y0214402D02*
X0076834Y0214402D01*
X0076834Y0212803D02*
X0135516Y0212803D01*
X0135516Y0211205D02*
X0076834Y0211205D01*
X0076834Y0209606D02*
X0135516Y0209606D01*
X0137966Y0208008D02*
X0076834Y0208008D01*
X0076834Y0206409D02*
X0137966Y0206409D01*
X0137966Y0204811D02*
X0076834Y0204811D01*
X0076834Y0203212D02*
X0137966Y0203212D01*
X0137966Y0201614D02*
X0076834Y0201614D01*
X0076834Y0200015D02*
X0137966Y0200015D01*
X0137966Y0198417D02*
X0076834Y0198417D01*
X0076834Y0196818D02*
X0137966Y0196818D01*
X0137966Y0195220D02*
X0076834Y0195220D01*
X0076834Y0193621D02*
X0137966Y0193621D01*
X0137966Y0192023D02*
X0076834Y0192023D01*
X0076834Y0190424D02*
X0137966Y0190424D01*
X0137966Y0188826D02*
X0076834Y0188826D01*
X0076834Y0187227D02*
X0137966Y0187227D01*
X0137966Y0185629D02*
X0076834Y0185629D01*
X0076834Y0184030D02*
X0137966Y0184030D01*
X0137966Y0182432D02*
X0076834Y0182432D01*
X0076834Y0180833D02*
X0080292Y0180833D01*
X0077899Y0179235D02*
X0076834Y0179235D01*
X0076834Y0177636D02*
X0077466Y0177636D01*
X0077466Y0176038D02*
X0076834Y0176038D01*
X0076834Y0174439D02*
X0077466Y0174439D01*
X0077466Y0172841D02*
X0076834Y0172841D01*
X0076834Y0171242D02*
X0077466Y0171242D01*
X0077466Y0169644D02*
X0076834Y0169644D01*
X0076834Y0168045D02*
X0077466Y0168045D01*
X0077466Y0166447D02*
X0076834Y0166447D01*
X0076834Y0164848D02*
X0077466Y0164848D01*
X0077466Y0163250D02*
X0076834Y0163250D01*
X0076834Y0161651D02*
X0077466Y0161651D01*
X0077466Y0160053D02*
X0076834Y0160053D01*
X0076834Y0158454D02*
X0077466Y0158454D01*
X0077466Y0156856D02*
X0076834Y0156856D01*
X0076834Y0155257D02*
X0077466Y0155257D01*
X0077466Y0153659D02*
X0076834Y0153659D01*
X0076834Y0152060D02*
X0077466Y0152060D01*
X0077466Y0150462D02*
X0076834Y0150462D01*
X0076834Y0148863D02*
X0077466Y0148863D01*
X0077466Y0147265D02*
X0076834Y0147265D01*
X0076834Y0145666D02*
X0077466Y0145666D01*
X0077466Y0144068D02*
X0076834Y0144068D01*
X0076834Y0142469D02*
X0077466Y0142469D01*
X0077466Y0140870D02*
X0076834Y0140870D01*
X0076834Y0139272D02*
X0077466Y0139272D01*
X0077466Y0137673D02*
X0076834Y0137673D01*
X0076834Y0136075D02*
X0077466Y0136075D01*
X0077466Y0134476D02*
X0076834Y0134476D01*
X0076834Y0132878D02*
X0077466Y0132878D01*
X0077466Y0131279D02*
X0076834Y0131279D01*
X0076834Y0129681D02*
X0077466Y0129681D01*
X0077466Y0128082D02*
X0076834Y0128082D01*
X0076834Y0126484D02*
X0077466Y0126484D01*
X0077466Y0124885D02*
X0076834Y0124885D01*
X0076834Y0123287D02*
X0077466Y0123287D01*
X0077466Y0121688D02*
X0076834Y0121688D01*
X0076834Y0120090D02*
X0077466Y0120090D01*
X0077466Y0118491D02*
X0076834Y0118491D01*
X0076834Y0116893D02*
X0077466Y0116893D01*
X0077466Y0115294D02*
X0076834Y0115294D01*
X0076834Y0113696D02*
X0077466Y0113696D01*
X0077466Y0112097D02*
X0076834Y0112097D01*
X0076834Y0110499D02*
X0077466Y0110499D01*
X0077466Y0108900D02*
X0076834Y0108900D01*
X0076834Y0107302D02*
X0077466Y0107302D01*
X0077466Y0105703D02*
X0076308Y0105703D01*
X0077466Y0104105D02*
X0051834Y0104105D01*
X0051834Y0102506D02*
X0053897Y0102506D01*
X0052779Y0100908D02*
X0051834Y0100908D01*
X0051834Y0099309D02*
X0052466Y0099309D01*
X0052466Y0097711D02*
X0051834Y0097711D01*
X0051834Y0096112D02*
X0052466Y0096112D01*
X0052466Y0094514D02*
X0051834Y0094514D01*
X0051834Y0092915D02*
X0052466Y0092915D01*
X0052466Y0091317D02*
X0051834Y0091317D01*
X0051834Y0089718D02*
X0052466Y0089718D01*
X0052466Y0088120D02*
X0051834Y0088120D01*
X0051834Y0086521D02*
X0052466Y0086521D01*
X0052466Y0084923D02*
X0051834Y0084923D01*
X0051834Y0083324D02*
X0052466Y0083324D01*
X0052466Y0081726D02*
X0051834Y0081726D01*
X0051834Y0080127D02*
X0052466Y0080127D01*
X0052466Y0078529D02*
X0051834Y0078529D01*
X0051834Y0076930D02*
X0052466Y0076930D01*
X0052466Y0075332D02*
X0051834Y0075332D01*
X0051834Y0073733D02*
X0052466Y0073733D01*
X0052466Y0072134D02*
X0051834Y0072134D01*
X0051834Y0070536D02*
X0052466Y0070536D01*
X0052466Y0068937D02*
X0051834Y0068937D01*
X0051834Y0067339D02*
X0052466Y0067339D01*
X0052466Y0065740D02*
X0051834Y0065740D01*
X0051834Y0064142D02*
X0052466Y0064142D01*
X0052466Y0062543D02*
X0051834Y0062543D01*
X0051834Y0060945D02*
X0052466Y0060945D01*
X0052466Y0059346D02*
X0051834Y0059346D01*
X0051834Y0057748D02*
X0052466Y0057748D01*
X0052466Y0056149D02*
X0051834Y0056149D01*
X0051834Y0054551D02*
X0052466Y0054551D01*
X0052466Y0052952D02*
X0051834Y0052952D01*
X0051834Y0051354D02*
X0052466Y0051354D01*
X0052466Y0049755D02*
X0051834Y0049755D01*
X0051834Y0048157D02*
X0052586Y0048157D01*
X0051834Y0046558D02*
X0053433Y0046558D01*
X0051834Y0044960D02*
X0079513Y0044960D01*
X0084250Y0041300D02*
X0049250Y0041300D01*
X0049250Y0107300D01*
X0074250Y0107300D01*
X0074250Y0232550D01*
X0142800Y0232550D01*
X0145784Y0231986D02*
X0155349Y0231986D01*
X0154283Y0230387D02*
X0145560Y0230387D01*
X0145784Y0233584D02*
X0352905Y0233584D01*
X0351733Y0235183D02*
X0145091Y0235183D01*
X0140509Y0235183D02*
X0023640Y0235183D01*
X0023357Y0235138D02*
X0024004Y0235240D01*
X0024627Y0235443D01*
X0025211Y0235740D01*
X0025741Y0236125D01*
X0026204Y0236588D01*
X0026589Y0237119D01*
X0026887Y0237702D01*
X0027089Y0238325D01*
X0027192Y0238972D01*
X0027192Y0239300D01*
X0027192Y0239628D01*
X0027089Y0240275D01*
X0026887Y0240898D01*
X0026589Y0241481D01*
X0026204Y0242011D01*
X0025741Y0242475D01*
X0025211Y0242860D01*
X0024627Y0243157D01*
X0024004Y0243360D01*
X0023357Y0243462D01*
X0023030Y0243462D01*
X0023030Y0239300D01*
X0027192Y0239300D01*
X0023030Y0239300D01*
X0023030Y0239300D01*
X0023029Y0239300D01*
X0018867Y0239300D01*
X0018867Y0238972D01*
X0018970Y0238325D01*
X0019172Y0237702D01*
X0019470Y0237119D01*
X0019855Y0236588D01*
X0020318Y0236125D01*
X0020848Y0235740D01*
X0021432Y0235443D01*
X0022055Y0235240D01*
X0022702Y0235138D01*
X0023029Y0235138D01*
X0023029Y0239300D01*
X0023029Y0239300D01*
X0018867Y0239300D01*
X0018867Y0239628D01*
X0018970Y0240275D01*
X0019172Y0240898D01*
X0019470Y0241481D01*
X0019855Y0242011D01*
X0020318Y0242475D01*
X0020848Y0242860D01*
X0021432Y0243157D01*
X0022055Y0243360D01*
X0022702Y0243462D01*
X0023029Y0243462D01*
X0023029Y0239300D01*
X0023030Y0239300D01*
X0023030Y0235138D01*
X0023357Y0235138D01*
X0023030Y0235183D02*
X0023029Y0235183D01*
X0022419Y0235183D02*
X0006850Y0235183D01*
X0006850Y0236781D02*
X0019715Y0236781D01*
X0018961Y0238380D02*
X0006850Y0238380D01*
X0006850Y0239978D02*
X0018923Y0239978D01*
X0019539Y0241577D02*
X0006850Y0241577D01*
X0006850Y0243175D02*
X0021487Y0243175D01*
X0023029Y0243175D02*
X0023030Y0243175D01*
X0024572Y0243175D02*
X0361058Y0243175D01*
X0360836Y0241577D02*
X0357579Y0241577D01*
X0359020Y0239978D02*
X0361231Y0239978D01*
X0362486Y0238380D02*
X0359538Y0238380D01*
X0359448Y0236781D02*
X0362043Y0236781D01*
X0361071Y0235183D02*
X0358657Y0235183D01*
X0357485Y0233584D02*
X0360836Y0233584D01*
X0361211Y0231986D02*
X0359004Y0231986D01*
X0359538Y0230387D02*
X0362433Y0230387D01*
X0362104Y0228789D02*
X0359464Y0228789D01*
X0358696Y0227190D02*
X0361096Y0227190D01*
X0360852Y0225592D02*
X0357391Y0225592D01*
X0358988Y0223993D02*
X0361216Y0223993D01*
X0362395Y0222395D02*
X0359538Y0222395D01*
X0359480Y0220796D02*
X0362611Y0220796D01*
X0362611Y0219198D02*
X0358735Y0219198D01*
X0356402Y0217599D02*
X0362611Y0217599D01*
X0365195Y0214300D02*
X0365195Y0225737D01*
X0368286Y0228789D02*
X0391650Y0228789D01*
X0391650Y0230387D02*
X0367957Y0230387D01*
X0369179Y0231986D02*
X0391650Y0231986D01*
X0391650Y0233584D02*
X0369554Y0233584D01*
X0369319Y0235183D02*
X0391650Y0235183D01*
X0391650Y0236781D02*
X0368347Y0236781D01*
X0367903Y0238380D02*
X0391650Y0238380D01*
X0391650Y0239978D02*
X0369159Y0239978D01*
X0369554Y0241577D02*
X0391650Y0241577D01*
X0391650Y0243175D02*
X0369331Y0243175D01*
X0368386Y0244774D02*
X0391650Y0244774D01*
X0391650Y0246372D02*
X0037186Y0246372D01*
X0037765Y0246951D02*
X0036599Y0245785D01*
X0035075Y0245154D01*
X0033425Y0245154D01*
X0031901Y0245785D01*
X0030735Y0246951D01*
X0030104Y0248475D01*
X0030104Y0250125D01*
X0030735Y0251649D01*
X0031666Y0252580D01*
X0031666Y0257314D01*
X0032059Y0258264D01*
X0032786Y0258991D01*
X0033736Y0259384D01*
X0090681Y0259384D01*
X0090681Y0268716D01*
X0090556Y0268768D01*
X0089210Y0270114D01*
X0088481Y0271872D01*
X0088481Y0273775D01*
X0089210Y0275534D01*
X0090556Y0276880D01*
X0092314Y0277608D01*
X0094217Y0277608D01*
X0095976Y0276880D01*
X0097322Y0275534D01*
X0098050Y0273775D01*
X0098050Y0271872D01*
X0097322Y0270114D01*
X0095976Y0268768D01*
X0095850Y0268716D01*
X0095850Y0256286D01*
X0095457Y0255336D01*
X0094730Y0254609D01*
X0093780Y0254216D01*
X0036834Y0254216D01*
X0036834Y0252580D01*
X0037765Y0251649D01*
X0038396Y0250125D01*
X0038396Y0248475D01*
X0037765Y0246951D01*
X0038187Y0247971D02*
X0391650Y0247971D01*
X0391650Y0249569D02*
X0382550Y0249569D01*
X0382550Y0248969D02*
X0382550Y0264631D01*
X0382081Y0265100D01*
X0366419Y0265100D01*
X0365950Y0264631D01*
X0365950Y0248969D01*
X0366419Y0248500D01*
X0382081Y0248500D01*
X0382550Y0248969D01*
X0382550Y0251168D02*
X0391650Y0251168D01*
X0391650Y0252766D02*
X0382550Y0252766D01*
X0382550Y0254365D02*
X0391650Y0254365D01*
X0391650Y0255963D02*
X0382550Y0255963D01*
X0382550Y0257562D02*
X0391650Y0257562D01*
X0391650Y0259160D02*
X0382550Y0259160D01*
X0382550Y0260759D02*
X0391650Y0260759D01*
X0391650Y0262357D02*
X0382550Y0262357D01*
X0382550Y0263956D02*
X0391650Y0263956D01*
X0391650Y0265554D02*
X0350896Y0265554D01*
X0351869Y0265957D02*
X0348893Y0264724D01*
X0345670Y0264724D01*
X0342694Y0265957D01*
X0340415Y0268236D01*
X0339182Y0271213D01*
X0339182Y0274435D01*
X0340415Y0277411D01*
X0342694Y0279690D01*
X0345670Y0280923D01*
X0348893Y0280923D01*
X0351869Y0279690D01*
X0354148Y0277411D01*
X0355381Y0274435D01*
X0355381Y0271213D01*
X0354148Y0268236D01*
X0351869Y0265957D01*
X0353065Y0267153D02*
X0391650Y0267153D01*
X0391650Y0268751D02*
X0380983Y0268751D01*
X0380861Y0268701D02*
X0383838Y0269934D01*
X0386116Y0272212D01*
X0387349Y0275189D01*
X0387349Y0278411D01*
X0386116Y0281388D01*
X0383838Y0283666D01*
X0380861Y0284899D01*
X0377639Y0284899D01*
X0374662Y0283666D01*
X0372384Y0281388D01*
X0371151Y0278411D01*
X0371151Y0275189D01*
X0372384Y0272212D01*
X0374662Y0269934D01*
X0377639Y0268701D01*
X0380861Y0268701D01*
X0377517Y0268751D02*
X0354361Y0268751D01*
X0355023Y0270350D02*
X0374246Y0270350D01*
X0372648Y0271948D02*
X0355381Y0271948D01*
X0355381Y0273547D02*
X0371831Y0273547D01*
X0371169Y0275145D02*
X0355086Y0275145D01*
X0354424Y0276744D02*
X0371151Y0276744D01*
X0371151Y0278342D02*
X0353217Y0278342D01*
X0351263Y0279941D02*
X0371785Y0279941D01*
X0372535Y0281539D02*
X0025965Y0281539D01*
X0026116Y0281388D02*
X0023838Y0283666D01*
X0020861Y0284899D01*
X0017639Y0284899D01*
X0014662Y0283666D01*
X0012384Y0281388D01*
X0011151Y0278411D01*
X0011151Y0275189D01*
X0012384Y0272212D01*
X0014662Y0269934D01*
X0017639Y0268701D01*
X0020861Y0268701D01*
X0023838Y0269934D01*
X0026116Y0272212D01*
X0027349Y0275189D01*
X0027349Y0278411D01*
X0026116Y0281388D01*
X0026715Y0279941D02*
X0047237Y0279941D01*
X0046631Y0279690D02*
X0044352Y0277411D01*
X0043119Y0274435D01*
X0043119Y0271213D01*
X0044352Y0268236D01*
X0045304Y0267284D01*
X0044811Y0267284D01*
X0043766Y0266239D01*
X0043766Y0262361D01*
X0044811Y0261316D01*
X0048689Y0261316D01*
X0049089Y0261716D01*
X0083780Y0261716D01*
X0084730Y0262109D01*
X0085457Y0262836D01*
X0085850Y0263786D01*
X0085850Y0268716D01*
X0085976Y0268768D01*
X0087322Y0270114D01*
X0088050Y0271872D01*
X0088050Y0273775D01*
X0087322Y0275534D01*
X0085976Y0276880D01*
X0084217Y0277608D01*
X0082314Y0277608D01*
X0080556Y0276880D01*
X0079210Y0275534D01*
X0078481Y0273775D01*
X0078481Y0271872D01*
X0079210Y0270114D01*
X0080556Y0268768D01*
X0080681Y0268716D01*
X0080681Y0266884D01*
X0056733Y0266884D01*
X0058085Y0268236D01*
X0059318Y0271213D01*
X0059318Y0274435D01*
X0058085Y0277411D01*
X0055806Y0279690D01*
X0052830Y0280923D01*
X0049607Y0280923D01*
X0046631Y0279690D01*
X0045283Y0278342D02*
X0027349Y0278342D01*
X0027349Y0276744D02*
X0044076Y0276744D01*
X0043414Y0275145D02*
X0027331Y0275145D01*
X0026669Y0273547D02*
X0043119Y0273547D01*
X0043119Y0271948D02*
X0025852Y0271948D01*
X0024254Y0270350D02*
X0043477Y0270350D01*
X0044139Y0268751D02*
X0020983Y0268751D01*
X0017517Y0268751D02*
X0006850Y0268751D01*
X0006850Y0267153D02*
X0044680Y0267153D01*
X0043766Y0265554D02*
X0006850Y0265554D01*
X0006850Y0263956D02*
X0043766Y0263956D01*
X0043769Y0262357D02*
X0025836Y0262357D01*
X0025378Y0262815D02*
X0023854Y0263446D01*
X0022205Y0263446D01*
X0020681Y0262815D01*
X0019514Y0261649D01*
X0018883Y0260125D01*
X0018883Y0258475D01*
X0019514Y0256951D01*
X0020681Y0255785D01*
X0022205Y0255154D01*
X0023854Y0255154D01*
X0025378Y0255785D01*
X0026545Y0256951D01*
X0027176Y0258475D01*
X0027176Y0260125D01*
X0026545Y0261649D01*
X0025378Y0262815D01*
X0026913Y0260759D02*
X0090681Y0260759D01*
X0090681Y0262357D02*
X0084978Y0262357D01*
X0085850Y0263956D02*
X0090681Y0263956D01*
X0090681Y0265554D02*
X0085850Y0265554D01*
X0085850Y0267153D02*
X0090681Y0267153D01*
X0090595Y0268751D02*
X0085936Y0268751D01*
X0087420Y0270350D02*
X0089112Y0270350D01*
X0088481Y0271948D02*
X0088050Y0271948D01*
X0088050Y0273547D02*
X0088481Y0273547D01*
X0089049Y0275145D02*
X0087482Y0275145D01*
X0086111Y0276744D02*
X0090420Y0276744D01*
X0093266Y0272824D02*
X0093266Y0256800D01*
X0034250Y0256800D01*
X0034250Y0249300D01*
X0031314Y0246372D02*
X0006850Y0246372D01*
X0006850Y0244774D02*
X0362004Y0244774D01*
X0365195Y0244774D02*
X0365195Y0244774D01*
X0365195Y0243175D02*
X0365195Y0243175D01*
X0365195Y0241800D02*
X0365195Y0241800D01*
X0365195Y0241577D02*
X0365195Y0241577D01*
X0365195Y0239978D02*
X0365195Y0239978D01*
X0365195Y0238380D02*
X0365195Y0238380D01*
X0365195Y0236781D02*
X0365195Y0236781D01*
X0365195Y0235183D02*
X0365195Y0235183D01*
X0355195Y0229831D02*
X0156850Y0229831D01*
X0156850Y0209300D01*
X0163234Y0212803D02*
X0344592Y0212803D01*
X0344166Y0214402D02*
X0163234Y0214402D01*
X0163234Y0216001D02*
X0344166Y0216001D01*
X0344166Y0217599D02*
X0163234Y0217599D01*
X0163234Y0219198D02*
X0344166Y0219198D01*
X0344166Y0220796D02*
X0163234Y0220796D01*
X0163234Y0222395D02*
X0344166Y0222395D01*
X0344166Y0223993D02*
X0163234Y0223993D01*
X0154266Y0223993D02*
X0076834Y0223993D01*
X0076834Y0222395D02*
X0154266Y0222395D01*
X0154266Y0220796D02*
X0076834Y0220796D01*
X0076834Y0219198D02*
X0154266Y0219198D01*
X0154266Y0225592D02*
X0076834Y0225592D01*
X0076834Y0227190D02*
X0154266Y0227190D01*
X0154266Y0228789D02*
X0076834Y0228789D01*
X0071666Y0228789D02*
X0006850Y0228789D01*
X0006850Y0230387D02*
X0071666Y0230387D01*
X0071666Y0231986D02*
X0006850Y0231986D01*
X0006850Y0233584D02*
X0071881Y0233584D01*
X0071666Y0227190D02*
X0071283Y0227190D01*
X0069250Y0224300D02*
X0021750Y0224300D01*
X0021750Y0211800D01*
X0026234Y0211205D02*
X0027250Y0211205D01*
X0027250Y0211700D02*
X0027250Y0209936D01*
X0029886Y0207300D01*
X0031650Y0207300D01*
X0031650Y0211700D01*
X0027250Y0211700D01*
X0027250Y0211900D02*
X0031650Y0211900D01*
X0031650Y0216300D01*
X0029886Y0216300D01*
X0027250Y0213664D01*
X0027250Y0211900D01*
X0027250Y0212803D02*
X0026234Y0212803D01*
X0025490Y0214402D02*
X0027988Y0214402D01*
X0029587Y0216001D02*
X0024334Y0216001D01*
X0024334Y0217599D02*
X0071666Y0217599D01*
X0071666Y0216001D02*
X0033913Y0216001D01*
X0033614Y0216300D02*
X0031850Y0216300D01*
X0031850Y0211900D01*
X0031650Y0211900D01*
X0031650Y0211700D01*
X0031850Y0211700D01*
X0031850Y0211900D01*
X0036250Y0211900D01*
X0036250Y0213664D01*
X0033614Y0216300D01*
X0031850Y0216001D02*
X0031650Y0216001D01*
X0031650Y0214402D02*
X0031850Y0214402D01*
X0031850Y0212803D02*
X0031650Y0212803D01*
X0031850Y0211700D02*
X0036250Y0211700D01*
X0036250Y0209936D01*
X0033614Y0207300D01*
X0031850Y0207300D01*
X0031850Y0211700D01*
X0031850Y0211205D02*
X0031650Y0211205D01*
X0031650Y0209606D02*
X0031850Y0209606D01*
X0031850Y0208008D02*
X0031650Y0208008D01*
X0029893Y0206284D02*
X0027266Y0203657D01*
X0027266Y0199943D01*
X0029893Y0197316D01*
X0033607Y0197316D01*
X0035507Y0199216D01*
X0044166Y0199216D01*
X0044166Y0160964D01*
X0043766Y0160564D01*
X0043766Y0156686D01*
X0044720Y0155732D01*
X0044352Y0155364D01*
X0043119Y0152387D01*
X0043119Y0149165D01*
X0044352Y0146189D01*
X0046631Y0143910D01*
X0049607Y0142677D01*
X0052830Y0142677D01*
X0055806Y0143910D01*
X0058085Y0146189D01*
X0059318Y0149165D01*
X0059318Y0152387D01*
X0058085Y0155364D01*
X0055806Y0157643D01*
X0052830Y0158876D01*
X0049734Y0158876D01*
X0049734Y0160564D01*
X0049334Y0160964D01*
X0049334Y0199461D01*
X0049734Y0199861D01*
X0049734Y0203739D01*
X0048689Y0204784D01*
X0044811Y0204784D01*
X0044411Y0204384D01*
X0035507Y0204384D01*
X0033607Y0206284D01*
X0029893Y0206284D01*
X0029178Y0208008D02*
X0024300Y0208008D01*
X0023607Y0206284D02*
X0026234Y0203657D01*
X0026234Y0199943D01*
X0023607Y0197316D01*
X0019893Y0197316D01*
X0017266Y0199943D01*
X0017266Y0203657D01*
X0019893Y0206284D01*
X0023607Y0206284D01*
X0025081Y0204811D02*
X0028419Y0204811D01*
X0027266Y0203212D02*
X0026234Y0203212D01*
X0026234Y0201614D02*
X0027266Y0201614D01*
X0027266Y0200015D02*
X0026234Y0200015D01*
X0024709Y0198417D02*
X0028791Y0198417D01*
X0029893Y0196284D02*
X0027266Y0193657D01*
X0027266Y0189943D01*
X0029893Y0187316D01*
X0033607Y0187316D01*
X0036234Y0189943D01*
X0036234Y0193657D01*
X0033607Y0196284D01*
X0029893Y0196284D01*
X0028828Y0195220D02*
X0024672Y0195220D01*
X0024290Y0195602D02*
X0022642Y0196284D01*
X0020858Y0196284D01*
X0019210Y0195602D01*
X0017948Y0194340D01*
X0017266Y0192692D01*
X0017266Y0190908D01*
X0017948Y0189260D01*
X0019210Y0187998D01*
X0020858Y0187316D01*
X0022642Y0187316D01*
X0024290Y0187998D01*
X0025552Y0189260D01*
X0026234Y0190908D01*
X0026234Y0192692D01*
X0025552Y0194340D01*
X0024290Y0195602D01*
X0025849Y0193621D02*
X0027266Y0193621D01*
X0027266Y0192023D02*
X0026234Y0192023D01*
X0026034Y0190424D02*
X0027266Y0190424D01*
X0028382Y0188826D02*
X0025118Y0188826D01*
X0018382Y0188826D02*
X0006850Y0188826D01*
X0006850Y0190424D02*
X0017466Y0190424D01*
X0017266Y0192023D02*
X0006850Y0192023D01*
X0006850Y0193621D02*
X0017651Y0193621D01*
X0018828Y0195220D02*
X0006850Y0195220D01*
X0006850Y0196818D02*
X0044166Y0196818D01*
X0044166Y0195220D02*
X0034672Y0195220D01*
X0036234Y0193621D02*
X0044166Y0193621D01*
X0044166Y0192023D02*
X0036234Y0192023D01*
X0036234Y0190424D02*
X0044166Y0190424D01*
X0044166Y0188826D02*
X0035118Y0188826D01*
X0044166Y0187227D02*
X0006850Y0187227D01*
X0006850Y0185629D02*
X0044166Y0185629D01*
X0044166Y0184030D02*
X0006850Y0184030D01*
X0006850Y0182432D02*
X0044166Y0182432D01*
X0044166Y0180833D02*
X0006850Y0180833D01*
X0006850Y0179235D02*
X0044166Y0179235D01*
X0044166Y0177636D02*
X0006850Y0177636D01*
X0006850Y0176038D02*
X0044166Y0176038D01*
X0044166Y0174439D02*
X0006850Y0174439D01*
X0006850Y0172841D02*
X0044166Y0172841D01*
X0044166Y0171242D02*
X0006850Y0171242D01*
X0006850Y0169644D02*
X0044166Y0169644D01*
X0044166Y0168045D02*
X0006850Y0168045D01*
X0006850Y0166447D02*
X0044166Y0166447D01*
X0044166Y0164848D02*
X0006850Y0164848D01*
X0006850Y0163250D02*
X0044166Y0163250D01*
X0044166Y0161651D02*
X0006850Y0161651D01*
X0006850Y0160053D02*
X0043766Y0160053D01*
X0043766Y0158454D02*
X0006850Y0158454D01*
X0006850Y0156856D02*
X0043766Y0156856D01*
X0044308Y0155257D02*
X0006850Y0155257D01*
X0006850Y0153659D02*
X0043646Y0153659D01*
X0043119Y0152060D02*
X0006850Y0152060D01*
X0006850Y0150462D02*
X0043119Y0150462D01*
X0043245Y0148863D02*
X0006850Y0148863D01*
X0006850Y0147265D02*
X0043907Y0147265D01*
X0044875Y0145666D02*
X0006850Y0145666D01*
X0006850Y0144068D02*
X0046473Y0144068D01*
X0055964Y0144068D02*
X0071666Y0144068D01*
X0071666Y0145666D02*
X0057562Y0145666D01*
X0058530Y0147265D02*
X0071666Y0147265D01*
X0071666Y0148863D02*
X0059192Y0148863D01*
X0059318Y0150462D02*
X0071666Y0150462D01*
X0071666Y0152060D02*
X0059318Y0152060D01*
X0058791Y0153659D02*
X0071666Y0153659D01*
X0071666Y0155257D02*
X0058129Y0155257D01*
X0056593Y0156856D02*
X0071666Y0156856D01*
X0071666Y0158454D02*
X0053847Y0158454D01*
X0049734Y0160053D02*
X0071666Y0160053D01*
X0071666Y0161651D02*
X0049334Y0161651D01*
X0049334Y0163250D02*
X0071666Y0163250D01*
X0071666Y0164848D02*
X0049334Y0164848D01*
X0049334Y0166447D02*
X0071666Y0166447D01*
X0071666Y0168045D02*
X0049334Y0168045D01*
X0049334Y0169644D02*
X0071666Y0169644D01*
X0071666Y0171242D02*
X0049334Y0171242D01*
X0049334Y0172841D02*
X0071666Y0172841D01*
X0071666Y0174439D02*
X0049334Y0174439D01*
X0049334Y0176038D02*
X0071666Y0176038D01*
X0071666Y0177636D02*
X0049334Y0177636D01*
X0049334Y0179235D02*
X0071666Y0179235D01*
X0071666Y0180833D02*
X0049334Y0180833D01*
X0049334Y0182432D02*
X0071666Y0182432D01*
X0071666Y0184030D02*
X0049334Y0184030D01*
X0049334Y0185629D02*
X0071666Y0185629D01*
X0071666Y0187227D02*
X0049334Y0187227D01*
X0049334Y0188826D02*
X0071666Y0188826D01*
X0071666Y0190424D02*
X0049334Y0190424D01*
X0049334Y0192023D02*
X0071666Y0192023D01*
X0071666Y0193621D02*
X0049334Y0193621D01*
X0049334Y0195220D02*
X0071666Y0195220D01*
X0071666Y0196818D02*
X0049334Y0196818D01*
X0049334Y0198417D02*
X0071666Y0198417D01*
X0071666Y0200015D02*
X0049734Y0200015D01*
X0049734Y0201614D02*
X0071666Y0201614D01*
X0071666Y0203212D02*
X0049734Y0203212D01*
X0046750Y0201800D02*
X0046750Y0158625D01*
X0071666Y0142469D02*
X0006850Y0142469D01*
X0006850Y0140870D02*
X0071666Y0140870D01*
X0071666Y0139272D02*
X0006850Y0139272D01*
X0006850Y0137673D02*
X0071666Y0137673D01*
X0071666Y0136075D02*
X0006850Y0136075D01*
X0006850Y0134476D02*
X0071666Y0134476D01*
X0071666Y0132878D02*
X0006850Y0132878D01*
X0006850Y0131279D02*
X0071666Y0131279D01*
X0071666Y0129681D02*
X0006850Y0129681D01*
X0006850Y0128082D02*
X0071666Y0128082D01*
X0071666Y0126484D02*
X0006850Y0126484D01*
X0006850Y0124885D02*
X0071666Y0124885D01*
X0071666Y0123287D02*
X0006850Y0123287D01*
X0006850Y0121688D02*
X0071666Y0121688D01*
X0071666Y0120090D02*
X0006850Y0120090D01*
X0006850Y0118491D02*
X0071666Y0118491D01*
X0071666Y0116893D02*
X0006850Y0116893D01*
X0006850Y0115294D02*
X0071666Y0115294D01*
X0071666Y0113696D02*
X0006850Y0113696D01*
X0006850Y0112097D02*
X0071666Y0112097D01*
X0071666Y0110499D02*
X0006850Y0110499D01*
X0006850Y0108900D02*
X0047196Y0108900D01*
X0046666Y0107302D02*
X0006850Y0107302D01*
X0006850Y0105703D02*
X0046666Y0105703D01*
X0046666Y0104105D02*
X0006850Y0104105D01*
X0006850Y0102506D02*
X0046666Y0102506D01*
X0046666Y0100908D02*
X0006850Y0100908D01*
X0006850Y0099309D02*
X0046666Y0099309D01*
X0046666Y0097711D02*
X0006850Y0097711D01*
X0006850Y0096112D02*
X0046666Y0096112D01*
X0046666Y0094514D02*
X0006850Y0094514D01*
X0006850Y0092915D02*
X0046666Y0092915D01*
X0046666Y0091317D02*
X0006850Y0091317D01*
X0006850Y0089718D02*
X0046666Y0089718D01*
X0046666Y0088120D02*
X0006850Y0088120D01*
X0006850Y0086521D02*
X0046666Y0086521D01*
X0046666Y0084923D02*
X0006850Y0084923D01*
X0006850Y0083324D02*
X0046666Y0083324D01*
X0046666Y0081726D02*
X0006850Y0081726D01*
X0006850Y0080127D02*
X0046666Y0080127D01*
X0046666Y0078529D02*
X0006850Y0078529D01*
X0006850Y0076930D02*
X0046666Y0076930D01*
X0046666Y0075332D02*
X0006850Y0075332D01*
X0006850Y0073733D02*
X0046666Y0073733D01*
X0046666Y0072134D02*
X0006850Y0072134D01*
X0006850Y0070536D02*
X0046666Y0070536D01*
X0046666Y0068937D02*
X0006850Y0068937D01*
X0006850Y0067339D02*
X0046666Y0067339D01*
X0046666Y0065740D02*
X0006850Y0065740D01*
X0006850Y0064142D02*
X0046666Y0064142D01*
X0046666Y0062543D02*
X0006850Y0062543D01*
X0006850Y0060945D02*
X0046666Y0060945D01*
X0046666Y0059346D02*
X0006850Y0059346D01*
X0006850Y0057748D02*
X0046666Y0057748D01*
X0046666Y0056149D02*
X0006850Y0056149D01*
X0006850Y0054551D02*
X0046666Y0054551D01*
X0046666Y0052952D02*
X0006850Y0052952D01*
X0006850Y0051354D02*
X0046666Y0051354D01*
X0046666Y0049755D02*
X0006850Y0049755D01*
X0006850Y0048157D02*
X0046666Y0048157D01*
X0046666Y0046558D02*
X0006850Y0046558D01*
X0006850Y0044960D02*
X0046666Y0044960D01*
X0046666Y0043361D02*
X0006850Y0043361D01*
X0006850Y0041763D02*
X0046666Y0041763D01*
X0046923Y0040164D02*
X0006850Y0040164D01*
X0006850Y0038566D02*
X0079513Y0038566D01*
X0080154Y0036967D02*
X0006850Y0036967D01*
X0006850Y0035369D02*
X0141650Y0035369D01*
X0141650Y0036967D02*
X0088346Y0036967D01*
X0088987Y0038566D02*
X0141650Y0038566D01*
X0141650Y0040164D02*
X0088987Y0040164D01*
X0088987Y0041763D02*
X0141650Y0041763D01*
X0141650Y0043361D02*
X0088987Y0043361D01*
X0088987Y0044960D02*
X0141650Y0044960D01*
X0141650Y0046558D02*
X0088987Y0046558D01*
X0088987Y0048157D02*
X0141650Y0048157D01*
X0141650Y0049755D02*
X0088987Y0049755D01*
X0088987Y0051354D02*
X0141650Y0051354D01*
X0141650Y0052952D02*
X0088987Y0052952D01*
X0089003Y0054551D02*
X0141650Y0054551D01*
X0141650Y0056149D02*
X0089003Y0056149D01*
X0089003Y0057748D02*
X0141650Y0057748D01*
X0141650Y0059346D02*
X0089003Y0059346D01*
X0088881Y0060945D02*
X0141650Y0060945D01*
X0141650Y0062543D02*
X0061034Y0062543D01*
X0061034Y0060945D02*
X0079619Y0060945D01*
X0079497Y0059346D02*
X0061034Y0059346D01*
X0061034Y0057748D02*
X0079497Y0057748D01*
X0079497Y0056149D02*
X0061034Y0056149D01*
X0061034Y0054551D02*
X0079497Y0054551D01*
X0084066Y0057748D02*
X0084434Y0057748D01*
X0084434Y0059346D02*
X0084066Y0059346D01*
X0084066Y0060945D02*
X0084434Y0060945D01*
X0061034Y0064142D02*
X0141650Y0064142D01*
X0141650Y0065740D02*
X0061034Y0065740D01*
X0061034Y0067339D02*
X0141650Y0067339D01*
X0141650Y0068937D02*
X0061034Y0068937D01*
X0061034Y0070536D02*
X0141650Y0070536D01*
X0141650Y0072134D02*
X0061034Y0072134D01*
X0061034Y0073733D02*
X0141650Y0073733D01*
X0141650Y0075332D02*
X0061034Y0075332D01*
X0061034Y0076930D02*
X0141650Y0076930D01*
X0141650Y0078529D02*
X0061034Y0078529D01*
X0061034Y0080127D02*
X0141650Y0080127D01*
X0141650Y0081726D02*
X0061034Y0081726D01*
X0061034Y0083324D02*
X0142097Y0083324D01*
X0170010Y0120100D02*
X0171750Y0120100D01*
X0173490Y0120100D01*
X0175950Y0122560D01*
X0175950Y0124300D01*
X0175950Y0126040D01*
X0173490Y0128500D01*
X0171750Y0128500D01*
X0171750Y0124300D01*
X0175950Y0124300D01*
X0171750Y0124300D01*
X0171750Y0124300D01*
X0171750Y0124300D01*
X0171750Y0120100D01*
X0171750Y0124300D01*
X0171750Y0124300D01*
X0171750Y0124300D01*
X0167550Y0124300D01*
X0167550Y0126040D01*
X0170010Y0128500D01*
X0171750Y0128500D01*
X0171750Y0124300D01*
X0167550Y0124300D01*
X0167550Y0122560D01*
X0170010Y0120100D01*
X0168422Y0121688D02*
X0090484Y0121688D01*
X0090484Y0120090D02*
X0202966Y0120090D01*
X0202966Y0121688D02*
X0185056Y0121688D01*
X0185934Y0122567D02*
X0183483Y0120116D01*
X0180017Y0120116D01*
X0177566Y0122567D01*
X0177566Y0126033D01*
X0180017Y0128484D01*
X0183483Y0128484D01*
X0185934Y0126033D01*
X0185934Y0122567D01*
X0185934Y0123287D02*
X0202966Y0123287D01*
X0202966Y0124885D02*
X0185934Y0124885D01*
X0185484Y0126484D02*
X0202966Y0126484D01*
X0202966Y0128082D02*
X0183885Y0128082D01*
X0182841Y0131316D02*
X0184857Y0132151D01*
X0186399Y0133693D01*
X0187234Y0135709D01*
X0187234Y0137891D01*
X0186399Y0139907D01*
X0184857Y0141449D01*
X0182841Y0142284D01*
X0180659Y0142284D01*
X0178643Y0141449D01*
X0177101Y0139907D01*
X0176760Y0139083D01*
X0176454Y0139683D01*
X0175945Y0140383D01*
X0175333Y0140995D01*
X0174633Y0141504D01*
X0173861Y0141897D01*
X0173038Y0142165D01*
X0172183Y0142300D01*
X0171750Y0142300D01*
X0171750Y0136800D01*
X0171750Y0136800D01*
X0171750Y0142300D01*
X0171317Y0142300D01*
X0170462Y0142165D01*
X0169639Y0141897D01*
X0168867Y0141504D01*
X0168167Y0140995D01*
X0167555Y0140383D01*
X0167046Y0139683D01*
X0166653Y0138911D01*
X0166385Y0138088D01*
X0166250Y0137233D01*
X0166250Y0136800D01*
X0171750Y0136800D01*
X0171750Y0131300D01*
X0172183Y0131300D01*
X0173038Y0131435D01*
X0173861Y0131703D01*
X0174633Y0132096D01*
X0175333Y0132605D01*
X0175945Y0133217D01*
X0176454Y0133917D01*
X0176760Y0134517D01*
X0177101Y0133693D01*
X0178643Y0132151D01*
X0180659Y0131316D01*
X0182841Y0131316D01*
X0185584Y0132878D02*
X0202966Y0132878D01*
X0202966Y0134476D02*
X0186724Y0134476D01*
X0187234Y0136075D02*
X0202966Y0136075D01*
X0202966Y0137673D02*
X0187234Y0137673D01*
X0186662Y0139272D02*
X0202966Y0139272D01*
X0202966Y0140870D02*
X0185435Y0140870D01*
X0178065Y0140870D02*
X0175458Y0140870D01*
X0176663Y0139272D02*
X0176838Y0139272D01*
X0171750Y0139272D02*
X0171750Y0139272D01*
X0171750Y0140870D02*
X0171750Y0140870D01*
X0171750Y0137673D02*
X0171750Y0137673D01*
X0171750Y0136800D02*
X0171750Y0136800D01*
X0171750Y0136800D01*
X0171750Y0131300D01*
X0171317Y0131300D01*
X0170462Y0131435D01*
X0169639Y0131703D01*
X0168867Y0132096D01*
X0168167Y0132605D01*
X0167555Y0133217D01*
X0167046Y0133917D01*
X0166653Y0134689D01*
X0166385Y0135512D01*
X0166250Y0136367D01*
X0166250Y0136800D01*
X0171750Y0136800D01*
X0171750Y0136075D02*
X0171750Y0136075D01*
X0171750Y0134476D02*
X0171750Y0134476D01*
X0171750Y0132878D02*
X0171750Y0132878D01*
X0175606Y0132878D02*
X0177916Y0132878D01*
X0176776Y0134476D02*
X0176739Y0134476D01*
X0173907Y0128082D02*
X0179615Y0128082D01*
X0178016Y0126484D02*
X0175506Y0126484D01*
X0175950Y0124885D02*
X0177566Y0124885D01*
X0177566Y0123287D02*
X0175950Y0123287D01*
X0175078Y0121688D02*
X0178444Y0121688D01*
X0171750Y0121688D02*
X0171750Y0121688D01*
X0171750Y0123287D02*
X0171750Y0123287D01*
X0171750Y0124885D02*
X0171750Y0124885D01*
X0171750Y0126484D02*
X0171750Y0126484D01*
X0171750Y0128082D02*
X0171750Y0128082D01*
X0169593Y0128082D02*
X0134334Y0128082D01*
X0134334Y0126484D02*
X0167994Y0126484D01*
X0167550Y0124885D02*
X0133490Y0124885D01*
X0131750Y0126800D02*
X0104250Y0126800D01*
X0101266Y0126484D02*
X0090484Y0126484D01*
X0090484Y0128082D02*
X0101266Y0128082D01*
X0102208Y0129681D02*
X0090484Y0129681D01*
X0090484Y0131279D02*
X0108766Y0131279D01*
X0108766Y0132878D02*
X0090484Y0132878D01*
X0090484Y0134476D02*
X0109503Y0134476D01*
X0111750Y0131800D02*
X0124250Y0131800D01*
X0124250Y0139300D01*
X0127234Y0139272D02*
X0129166Y0139272D01*
X0129166Y0140870D02*
X0127234Y0140870D01*
X0129166Y0142469D02*
X0110300Y0142469D01*
X0110300Y0142094D02*
X0109760Y0140789D01*
X0108761Y0139790D01*
X0107456Y0139250D01*
X0106044Y0139250D01*
X0104739Y0139790D01*
X0103740Y0140789D01*
X0103200Y0142094D01*
X0103200Y0143506D01*
X0103740Y0144811D01*
X0104739Y0145810D01*
X0106044Y0146350D01*
X0107456Y0146350D01*
X0108761Y0145810D01*
X0109760Y0144811D01*
X0110300Y0143506D01*
X0110300Y0142094D01*
X0109793Y0140870D02*
X0121266Y0140870D01*
X0121266Y0139272D02*
X0107509Y0139272D01*
X0105991Y0139272D02*
X0090484Y0139272D01*
X0090484Y0140870D02*
X0103707Y0140870D01*
X0103200Y0142469D02*
X0090484Y0142469D01*
X0090484Y0144068D02*
X0103433Y0144068D01*
X0104596Y0145666D02*
X0090484Y0145666D01*
X0090484Y0147265D02*
X0106009Y0147265D01*
X0106044Y0147250D02*
X0107456Y0147250D01*
X0108761Y0147790D01*
X0109760Y0148789D01*
X0110300Y0150094D01*
X0110300Y0151506D01*
X0109760Y0152811D01*
X0108761Y0153810D01*
X0107456Y0154350D01*
X0106044Y0154350D01*
X0104739Y0153810D01*
X0103740Y0152811D01*
X0103200Y0151506D01*
X0103200Y0150094D01*
X0103740Y0148789D01*
X0104739Y0147790D01*
X0106044Y0147250D01*
X0107491Y0147265D02*
X0123200Y0147265D01*
X0123377Y0145666D02*
X0108904Y0145666D01*
X0110067Y0144068D02*
X0124462Y0144068D01*
X0129038Y0144068D02*
X0129166Y0144068D01*
X0134334Y0144068D02*
X0202966Y0144068D01*
X0202966Y0145666D02*
X0134334Y0145666D01*
X0134334Y0147265D02*
X0202966Y0147265D01*
X0202966Y0148863D02*
X0134334Y0148863D01*
X0134334Y0150462D02*
X0202966Y0150462D01*
X0202966Y0152060D02*
X0148449Y0152060D01*
X0140550Y0153750D02*
X0205550Y0161250D01*
X0205550Y0106800D01*
X0301750Y0106800D01*
X0301750Y0051800D01*
X0309250Y0051800D01*
X0303922Y0048157D02*
X0264742Y0048157D01*
X0264582Y0048545D02*
X0263498Y0049628D01*
X0262083Y0050214D01*
X0256417Y0050214D01*
X0255002Y0049628D01*
X0253918Y0048545D01*
X0253332Y0047129D01*
X0253332Y0045597D01*
X0253918Y0044181D01*
X0254549Y0043551D01*
X0253918Y0042920D01*
X0253332Y0041505D01*
X0253332Y0039973D01*
X0253918Y0038557D01*
X0255002Y0037474D01*
X0256417Y0036888D01*
X0262083Y0036888D01*
X0263498Y0037474D01*
X0264582Y0038557D01*
X0265168Y0039973D01*
X0265168Y0041505D01*
X0264582Y0042920D01*
X0263951Y0043551D01*
X0264582Y0044181D01*
X0265168Y0045597D01*
X0265168Y0047129D01*
X0264582Y0048545D01*
X0263191Y0049755D02*
X0300140Y0049755D01*
X0299166Y0051354D02*
X0211850Y0051354D01*
X0211850Y0052952D02*
X0299166Y0052952D01*
X0299166Y0054551D02*
X0263703Y0054551D01*
X0263498Y0054346D02*
X0264582Y0055430D01*
X0265168Y0056845D01*
X0265168Y0058377D01*
X0264582Y0059793D01*
X0263498Y0060876D01*
X0262083Y0061462D01*
X0256417Y0061462D01*
X0255002Y0060876D01*
X0253918Y0059793D01*
X0253332Y0058377D01*
X0253332Y0056845D01*
X0253918Y0055430D01*
X0255002Y0054346D01*
X0256417Y0053760D01*
X0262083Y0053760D01*
X0263498Y0054346D01*
X0264880Y0056149D02*
X0299166Y0056149D01*
X0299166Y0057748D02*
X0265168Y0057748D01*
X0264767Y0059346D02*
X0299166Y0059346D01*
X0299166Y0060945D02*
X0263332Y0060945D01*
X0255168Y0060945D02*
X0211850Y0060945D01*
X0211850Y0062543D02*
X0299166Y0062543D01*
X0299166Y0064142D02*
X0211850Y0064142D01*
X0211850Y0065740D02*
X0299166Y0065740D01*
X0299166Y0067339D02*
X0211850Y0067339D01*
X0211850Y0068937D02*
X0299166Y0068937D01*
X0299166Y0070536D02*
X0211850Y0070536D01*
X0211850Y0072134D02*
X0299166Y0072134D01*
X0299166Y0073733D02*
X0211850Y0073733D01*
X0211850Y0075332D02*
X0299166Y0075332D01*
X0299166Y0076930D02*
X0211850Y0076930D01*
X0211850Y0078529D02*
X0299166Y0078529D01*
X0299166Y0080127D02*
X0211850Y0080127D01*
X0211850Y0081726D02*
X0299166Y0081726D01*
X0299166Y0083324D02*
X0211403Y0083324D01*
X0203207Y0105703D02*
X0086034Y0105703D01*
X0086034Y0104105D02*
X0299166Y0104105D01*
X0299166Y0102506D02*
X0086034Y0102506D01*
X0086034Y0100908D02*
X0299166Y0100908D01*
X0299166Y0099309D02*
X0086034Y0099309D01*
X0085729Y0097711D02*
X0299166Y0097711D01*
X0299166Y0096112D02*
X0084621Y0096112D01*
X0086034Y0107302D02*
X0202966Y0107302D01*
X0202966Y0108900D02*
X0086034Y0108900D01*
X0086034Y0110499D02*
X0202966Y0110499D01*
X0202966Y0112097D02*
X0090621Y0112097D01*
X0090884Y0113696D02*
X0202966Y0113696D01*
X0202966Y0115294D02*
X0090884Y0115294D01*
X0090484Y0116893D02*
X0202966Y0116893D01*
X0202966Y0118491D02*
X0090484Y0118491D01*
X0090484Y0123287D02*
X0167550Y0123287D01*
X0167894Y0132878D02*
X0134334Y0132878D01*
X0134334Y0134476D02*
X0166761Y0134476D01*
X0166296Y0136075D02*
X0134334Y0136075D01*
X0134334Y0137673D02*
X0166320Y0137673D01*
X0166837Y0139272D02*
X0134334Y0139272D01*
X0134334Y0140870D02*
X0168042Y0140870D01*
X0162303Y0153659D02*
X0202966Y0153659D01*
X0202966Y0155257D02*
X0176157Y0155257D01*
X0190011Y0156856D02*
X0202966Y0156856D01*
X0209250Y0164300D02*
X0209250Y0110600D01*
X0309250Y0110600D01*
X0309250Y0061643D01*
X0314578Y0059346D02*
X0315540Y0059346D01*
X0319334Y0065740D02*
X0361009Y0065740D01*
X0371664Y0065740D02*
X0391650Y0065740D01*
X0391650Y0064142D02*
X0371664Y0064142D01*
X0371664Y0062543D02*
X0391650Y0062543D01*
X0391650Y0060945D02*
X0371664Y0060945D01*
X0371664Y0059346D02*
X0391650Y0059346D01*
X0391650Y0057748D02*
X0371664Y0057748D01*
X0370117Y0047301D02*
X0366718Y0047301D01*
X0366718Y0042339D01*
X0371680Y0042339D01*
X0371680Y0045738D01*
X0371557Y0046196D01*
X0371320Y0046606D01*
X0370985Y0046941D01*
X0370575Y0047178D01*
X0370117Y0047301D01*
X0371348Y0046558D02*
X0391650Y0046558D01*
X0391650Y0044960D02*
X0371680Y0044960D01*
X0371680Y0043361D02*
X0391650Y0043361D01*
X0391650Y0041763D02*
X0366718Y0041763D01*
X0365955Y0041763D02*
X0309631Y0041763D01*
X0308869Y0041763D02*
X0265061Y0041763D01*
X0265168Y0040164D02*
X0303907Y0040164D01*
X0303907Y0038566D02*
X0264585Y0038566D01*
X0262275Y0036967D02*
X0304613Y0036967D01*
X0308869Y0036967D02*
X0309631Y0036967D01*
X0309631Y0038566D02*
X0308869Y0038566D01*
X0308869Y0040164D02*
X0309631Y0040164D01*
X0303907Y0043361D02*
X0264141Y0043361D01*
X0264904Y0044960D02*
X0303907Y0044960D01*
X0304239Y0046558D02*
X0265168Y0046558D01*
X0255309Y0049755D02*
X0211850Y0049755D01*
X0211850Y0048157D02*
X0253758Y0048157D01*
X0253332Y0046558D02*
X0211850Y0046558D01*
X0211850Y0044960D02*
X0253596Y0044960D01*
X0254359Y0043361D02*
X0211850Y0043361D01*
X0211850Y0041763D02*
X0253439Y0041763D01*
X0253332Y0040164D02*
X0211850Y0040164D01*
X0211850Y0038566D02*
X0253915Y0038566D01*
X0256225Y0036967D02*
X0211850Y0036967D01*
X0211850Y0054551D02*
X0254797Y0054551D01*
X0253620Y0056149D02*
X0211850Y0056149D01*
X0211850Y0057748D02*
X0253332Y0057748D01*
X0253733Y0059346D02*
X0211850Y0059346D01*
X0141650Y0033770D02*
X0006850Y0033770D01*
X0006850Y0032172D02*
X0141650Y0032172D01*
X0141650Y0030573D02*
X0006850Y0030573D01*
X0006850Y0028975D02*
X0141650Y0028975D01*
X0141650Y0027376D02*
X0006850Y0027376D01*
X0006850Y0025778D02*
X0141650Y0025778D01*
X0141650Y0024179D02*
X0022599Y0024179D01*
X0023838Y0023666D02*
X0020861Y0024899D01*
X0017639Y0024899D01*
X0014662Y0023666D01*
X0012384Y0021388D01*
X0011151Y0018411D01*
X0011151Y0015189D01*
X0012384Y0012212D01*
X0014662Y0009934D01*
X0017639Y0008701D01*
X0020861Y0008701D01*
X0023838Y0009934D01*
X0026116Y0012212D01*
X0027349Y0015189D01*
X0027349Y0018411D01*
X0026116Y0021388D01*
X0023838Y0023666D01*
X0024923Y0022581D02*
X0141650Y0022581D01*
X0141650Y0020982D02*
X0026284Y0020982D01*
X0026946Y0019384D02*
X0141650Y0019384D01*
X0141650Y0017785D02*
X0027349Y0017785D01*
X0027349Y0016187D02*
X0141690Y0016187D01*
X0142796Y0014588D02*
X0027100Y0014588D01*
X0026438Y0012990D02*
X0311398Y0012990D01*
X0310062Y0011391D02*
X0025295Y0011391D01*
X0023497Y0009793D02*
X0309566Y0009793D01*
X0309654Y0008194D02*
X0006850Y0008194D01*
X0006850Y0006596D02*
X0310413Y0006596D01*
X0312720Y0004997D02*
X0006850Y0004997D01*
X0006850Y0009793D02*
X0015003Y0009793D01*
X0013205Y0011391D02*
X0006850Y0011391D01*
X0006850Y0012990D02*
X0012062Y0012990D01*
X0011400Y0014588D02*
X0006850Y0014588D01*
X0006850Y0016187D02*
X0011151Y0016187D01*
X0011151Y0017785D02*
X0006850Y0017785D01*
X0006850Y0019384D02*
X0011554Y0019384D01*
X0012216Y0020982D02*
X0006850Y0020982D01*
X0006850Y0022581D02*
X0013577Y0022581D01*
X0015901Y0024179D02*
X0006850Y0024179D01*
X0061034Y0084923D02*
X0299166Y0084923D01*
X0299166Y0086521D02*
X0061034Y0086521D01*
X0061034Y0088120D02*
X0299166Y0088120D01*
X0299166Y0089718D02*
X0061034Y0089718D01*
X0061034Y0091317D02*
X0299166Y0091317D01*
X0299166Y0092915D02*
X0061034Y0092915D01*
X0061034Y0094514D02*
X0299166Y0094514D01*
X0319334Y0094514D02*
X0391650Y0094514D01*
X0391650Y0096112D02*
X0319334Y0096112D01*
X0319334Y0097711D02*
X0391650Y0097711D01*
X0391650Y0099309D02*
X0319334Y0099309D01*
X0319334Y0100908D02*
X0391650Y0100908D01*
X0391650Y0102506D02*
X0319334Y0102506D01*
X0319334Y0104105D02*
X0391650Y0104105D01*
X0391650Y0105703D02*
X0319334Y0105703D01*
X0319334Y0107302D02*
X0391650Y0107302D01*
X0391650Y0108900D02*
X0319334Y0108900D01*
X0319334Y0110499D02*
X0391650Y0110499D01*
X0391650Y0112097D02*
X0319334Y0112097D01*
X0319334Y0113696D02*
X0391650Y0113696D01*
X0391650Y0115294D02*
X0319135Y0115294D01*
X0319334Y0092915D02*
X0391650Y0092915D01*
X0391650Y0091317D02*
X0319334Y0091317D01*
X0319334Y0089718D02*
X0391650Y0089718D01*
X0391650Y0088120D02*
X0319334Y0088120D01*
X0319334Y0086521D02*
X0391650Y0086521D01*
X0391650Y0084923D02*
X0347808Y0084923D01*
X0348074Y0084657D02*
X0347028Y0085702D01*
X0330527Y0085702D01*
X0329481Y0084657D01*
X0329481Y0068155D01*
X0330527Y0067110D01*
X0347028Y0067110D01*
X0348074Y0068155D01*
X0348074Y0084657D01*
X0348074Y0083324D02*
X0391650Y0083324D01*
X0391650Y0081726D02*
X0348074Y0081726D01*
X0348074Y0080127D02*
X0391650Y0080127D01*
X0391650Y0078529D02*
X0348074Y0078529D01*
X0348074Y0076930D02*
X0391650Y0076930D01*
X0391650Y0075332D02*
X0348074Y0075332D01*
X0348074Y0073733D02*
X0391650Y0073733D01*
X0391650Y0072134D02*
X0348074Y0072134D01*
X0348074Y0070536D02*
X0391650Y0070536D01*
X0391650Y0068937D02*
X0348074Y0068937D01*
X0347257Y0067339D02*
X0391650Y0067339D01*
X0366718Y0046558D02*
X0365955Y0046558D01*
X0365955Y0044960D02*
X0366718Y0044960D01*
X0366718Y0043361D02*
X0365955Y0043361D01*
X0365955Y0040164D02*
X0366718Y0040164D01*
X0366718Y0038566D02*
X0365955Y0038566D01*
X0365955Y0036967D02*
X0366718Y0036967D01*
X0370974Y0036967D02*
X0391650Y0036967D01*
X0391650Y0035369D02*
X0348074Y0035369D01*
X0348074Y0033770D02*
X0391650Y0033770D01*
X0391650Y0032172D02*
X0348074Y0032172D01*
X0348074Y0030573D02*
X0391650Y0030573D01*
X0391650Y0028975D02*
X0348074Y0028975D01*
X0348074Y0027376D02*
X0391650Y0027376D01*
X0391650Y0025778D02*
X0348074Y0025778D01*
X0348074Y0024179D02*
X0375901Y0024179D01*
X0373577Y0022581D02*
X0348074Y0022581D01*
X0348074Y0020982D02*
X0372216Y0020982D01*
X0371554Y0019384D02*
X0348074Y0019384D01*
X0371680Y0038566D02*
X0391650Y0038566D01*
X0391650Y0040164D02*
X0371680Y0040164D01*
X0382599Y0024179D02*
X0391650Y0024179D01*
X0391650Y0022581D02*
X0384923Y0022581D01*
X0386284Y0020982D02*
X0391650Y0020982D01*
X0391650Y0019384D02*
X0386946Y0019384D01*
X0387349Y0017785D02*
X0391650Y0017785D01*
X0391650Y0016187D02*
X0387349Y0016187D01*
X0387100Y0014588D02*
X0391650Y0014588D01*
X0391650Y0012990D02*
X0386438Y0012990D01*
X0385295Y0011391D02*
X0391650Y0011391D01*
X0391650Y0009793D02*
X0383497Y0009793D01*
X0330298Y0067339D02*
X0319334Y0067339D01*
X0319334Y0068937D02*
X0329481Y0068937D01*
X0329481Y0070536D02*
X0319334Y0070536D01*
X0319334Y0072134D02*
X0329481Y0072134D01*
X0329481Y0073733D02*
X0319334Y0073733D01*
X0319334Y0075332D02*
X0329481Y0075332D01*
X0329481Y0076930D02*
X0319334Y0076930D01*
X0319334Y0078529D02*
X0329481Y0078529D01*
X0329481Y0080127D02*
X0319334Y0080127D01*
X0319334Y0081726D02*
X0329481Y0081726D01*
X0329481Y0083324D02*
X0319334Y0083324D01*
X0319334Y0084923D02*
X0329747Y0084923D01*
X0391650Y0116893D02*
X0216184Y0116893D01*
X0216184Y0118491D02*
X0391650Y0118491D01*
X0391650Y0120090D02*
X0216184Y0120090D01*
X0216184Y0121688D02*
X0219138Y0121688D01*
X0218766Y0122061D02*
X0219811Y0121016D01*
X0223689Y0121016D01*
X0224089Y0121416D01*
X0244361Y0121416D01*
X0244761Y0121016D01*
X0248639Y0121016D01*
X0249684Y0122061D01*
X0249684Y0125939D01*
X0249673Y0125950D01*
X0249684Y0125961D01*
X0249684Y0129839D01*
X0249673Y0129850D01*
X0249684Y0129861D01*
X0249684Y0133739D01*
X0248639Y0134784D01*
X0244761Y0134784D01*
X0244361Y0134384D01*
X0224089Y0134384D01*
X0223689Y0134784D01*
X0219811Y0134784D01*
X0218766Y0133739D01*
X0218766Y0129861D01*
X0218777Y0129850D01*
X0218766Y0129839D01*
X0218766Y0125961D01*
X0218777Y0125950D01*
X0218766Y0125939D01*
X0218766Y0122061D01*
X0218766Y0123287D02*
X0216184Y0123287D01*
X0216184Y0124885D02*
X0218766Y0124885D01*
X0218766Y0126484D02*
X0216184Y0126484D01*
X0216184Y0128082D02*
X0218766Y0128082D01*
X0218766Y0129681D02*
X0216184Y0129681D01*
X0216184Y0131279D02*
X0218766Y0131279D01*
X0218766Y0132878D02*
X0216184Y0132878D01*
X0216184Y0134476D02*
X0219503Y0134476D01*
X0221750Y0131800D02*
X0246700Y0131800D01*
X0249684Y0131279D02*
X0391650Y0131279D01*
X0391650Y0129681D02*
X0249684Y0129681D01*
X0249684Y0128082D02*
X0391650Y0128082D01*
X0391650Y0126484D02*
X0249684Y0126484D01*
X0249684Y0124885D02*
X0391650Y0124885D01*
X0391650Y0123287D02*
X0249684Y0123287D01*
X0249312Y0121688D02*
X0391650Y0121688D01*
X0391650Y0132878D02*
X0380977Y0132878D01*
X0383101Y0134476D02*
X0391650Y0134476D01*
X0391650Y0136075D02*
X0383534Y0136075D01*
X0383525Y0137673D02*
X0391650Y0137673D01*
X0391650Y0139272D02*
X0383101Y0139272D01*
X0380618Y0140870D02*
X0391650Y0140870D01*
X0391650Y0142469D02*
X0300995Y0142469D01*
X0301790Y0142798D02*
X0303052Y0144060D01*
X0303734Y0145708D01*
X0303734Y0152892D01*
X0303052Y0154540D01*
X0301790Y0155802D01*
X0300142Y0156484D01*
X0298358Y0156484D01*
X0296710Y0155802D01*
X0295448Y0154540D01*
X0294766Y0152892D01*
X0294766Y0145708D01*
X0295448Y0144060D01*
X0296710Y0142798D01*
X0298358Y0142116D01*
X0300142Y0142116D01*
X0301790Y0142798D01*
X0303055Y0144068D02*
X0342536Y0144068D01*
X0342694Y0143910D02*
X0345670Y0142677D01*
X0348893Y0142677D01*
X0351869Y0143910D01*
X0354148Y0146189D01*
X0355381Y0149165D01*
X0355381Y0152387D01*
X0354148Y0155364D01*
X0351869Y0157643D01*
X0348893Y0158876D01*
X0345670Y0158876D01*
X0342694Y0157643D01*
X0340415Y0155364D01*
X0339182Y0152387D01*
X0339182Y0149165D01*
X0340415Y0146189D01*
X0342694Y0143910D01*
X0340938Y0145666D02*
X0303717Y0145666D01*
X0303734Y0147265D02*
X0339970Y0147265D01*
X0339307Y0148863D02*
X0303734Y0148863D01*
X0303734Y0150462D02*
X0339182Y0150462D01*
X0339182Y0152060D02*
X0303734Y0152060D01*
X0303417Y0153659D02*
X0339709Y0153659D01*
X0340371Y0155257D02*
X0302335Y0155257D01*
X0296165Y0155257D02*
X0292335Y0155257D01*
X0291790Y0155802D02*
X0293052Y0154540D01*
X0293734Y0152892D01*
X0293734Y0145708D01*
X0293052Y0144060D01*
X0291790Y0142798D01*
X0290142Y0142116D01*
X0288358Y0142116D01*
X0286710Y0142798D01*
X0285448Y0144060D01*
X0284766Y0145708D01*
X0284766Y0152892D01*
X0285448Y0154540D01*
X0286710Y0155802D01*
X0288358Y0156484D01*
X0290142Y0156484D01*
X0291790Y0155802D01*
X0293417Y0153659D02*
X0295083Y0153659D01*
X0294766Y0152060D02*
X0293734Y0152060D01*
X0293734Y0150462D02*
X0294766Y0150462D01*
X0294766Y0148863D02*
X0293734Y0148863D01*
X0293734Y0147265D02*
X0294766Y0147265D01*
X0294783Y0145666D02*
X0293717Y0145666D01*
X0293055Y0144068D02*
X0295445Y0144068D01*
X0297505Y0142469D02*
X0290995Y0142469D01*
X0287505Y0142469D02*
X0283534Y0142469D01*
X0283534Y0144068D02*
X0285445Y0144068D01*
X0284783Y0145666D02*
X0283534Y0145666D01*
X0283534Y0147265D02*
X0284766Y0147265D01*
X0284766Y0148863D02*
X0283534Y0148863D01*
X0283534Y0150462D02*
X0284766Y0150462D01*
X0284766Y0152060D02*
X0283534Y0152060D01*
X0283534Y0153659D02*
X0285083Y0153659D01*
X0286165Y0155257D02*
X0283534Y0155257D01*
X0283534Y0156856D02*
X0341907Y0156856D01*
X0344653Y0158454D02*
X0283534Y0158454D01*
X0283534Y0160053D02*
X0372367Y0160053D01*
X0372227Y0160111D02*
X0373540Y0159567D01*
X0374960Y0159567D01*
X0376273Y0160111D01*
X0377278Y0161115D01*
X0377822Y0162428D01*
X0377822Y0163849D01*
X0377278Y0165162D01*
X0376273Y0166166D01*
X0374960Y0166710D01*
X0373540Y0166710D01*
X0372227Y0166166D01*
X0371222Y0165162D01*
X0370678Y0163849D01*
X0370678Y0162428D01*
X0371222Y0161115D01*
X0372227Y0160111D01*
X0371000Y0161651D02*
X0283534Y0161651D01*
X0283534Y0163250D02*
X0370678Y0163250D01*
X0371092Y0164848D02*
X0283534Y0164848D01*
X0283534Y0166447D02*
X0372903Y0166447D01*
X0375597Y0166447D02*
X0391650Y0166447D01*
X0391650Y0168045D02*
X0283534Y0168045D01*
X0283534Y0169644D02*
X0391650Y0169644D01*
X0391650Y0171242D02*
X0283534Y0171242D01*
X0283534Y0172841D02*
X0391650Y0172841D01*
X0391650Y0174439D02*
X0283534Y0174439D01*
X0283534Y0176038D02*
X0391650Y0176038D01*
X0391650Y0177636D02*
X0376476Y0177636D01*
X0376273Y0177434D02*
X0377278Y0178438D01*
X0377822Y0179751D01*
X0377822Y0181172D01*
X0377278Y0182485D01*
X0376273Y0183489D01*
X0374960Y0184033D01*
X0373540Y0184033D01*
X0372227Y0183489D01*
X0371222Y0182485D01*
X0370678Y0181172D01*
X0370678Y0179751D01*
X0371222Y0178438D01*
X0372227Y0177434D01*
X0373540Y0176890D01*
X0374960Y0176890D01*
X0376273Y0177434D01*
X0377608Y0179235D02*
X0391650Y0179235D01*
X0391650Y0180833D02*
X0377822Y0180833D01*
X0377300Y0182432D02*
X0391650Y0182432D01*
X0391650Y0184030D02*
X0374967Y0184030D01*
X0373533Y0184030D02*
X0283534Y0184030D01*
X0283534Y0182432D02*
X0371200Y0182432D01*
X0370678Y0180833D02*
X0283534Y0180833D01*
X0283534Y0179235D02*
X0370892Y0179235D01*
X0372024Y0177636D02*
X0283534Y0177636D01*
X0283534Y0185629D02*
X0391650Y0185629D01*
X0391650Y0187227D02*
X0283534Y0187227D01*
X0283534Y0188826D02*
X0391650Y0188826D01*
X0391650Y0190424D02*
X0283534Y0190424D01*
X0283534Y0192023D02*
X0391650Y0192023D01*
X0391650Y0193621D02*
X0283534Y0193621D01*
X0283534Y0195220D02*
X0391650Y0195220D01*
X0391650Y0196818D02*
X0283534Y0196818D01*
X0283217Y0198417D02*
X0391650Y0198417D01*
X0391650Y0200015D02*
X0382550Y0200015D01*
X0382550Y0201614D02*
X0391650Y0201614D01*
X0391650Y0203212D02*
X0382550Y0203212D01*
X0382550Y0204811D02*
X0391650Y0204811D01*
X0391650Y0206409D02*
X0382550Y0206409D01*
X0382550Y0208008D02*
X0391650Y0208008D01*
X0391650Y0209606D02*
X0382550Y0209606D01*
X0382550Y0211205D02*
X0391650Y0211205D01*
X0391650Y0212803D02*
X0382550Y0212803D01*
X0382550Y0214402D02*
X0391650Y0214402D01*
X0391650Y0216001D02*
X0367779Y0216001D01*
X0367779Y0217599D02*
X0391650Y0217599D01*
X0391650Y0219198D02*
X0367779Y0219198D01*
X0367779Y0220796D02*
X0391650Y0220796D01*
X0391650Y0222395D02*
X0367995Y0222395D01*
X0369174Y0223993D02*
X0391650Y0223993D01*
X0391650Y0225592D02*
X0369538Y0225592D01*
X0369294Y0227190D02*
X0391650Y0227190D01*
X0365950Y0249569D02*
X0038396Y0249569D01*
X0037964Y0251168D02*
X0365950Y0251168D01*
X0365950Y0252766D02*
X0036834Y0252766D01*
X0031666Y0252766D02*
X0006850Y0252766D01*
X0006850Y0251168D02*
X0030536Y0251168D01*
X0030104Y0249569D02*
X0006850Y0249569D01*
X0006850Y0247971D02*
X0030312Y0247971D01*
X0031666Y0254365D02*
X0006850Y0254365D01*
X0006850Y0255963D02*
X0020502Y0255963D01*
X0019261Y0257562D02*
X0006850Y0257562D01*
X0006850Y0259160D02*
X0018883Y0259160D01*
X0019146Y0260759D02*
X0006850Y0260759D01*
X0006850Y0262357D02*
X0020223Y0262357D01*
X0027176Y0259160D02*
X0033195Y0259160D01*
X0031768Y0257562D02*
X0026798Y0257562D01*
X0025557Y0255963D02*
X0031666Y0255963D01*
X0046750Y0264300D02*
X0083266Y0264300D01*
X0083266Y0272824D01*
X0079049Y0275145D02*
X0078066Y0275145D01*
X0078066Y0276061D02*
X0078066Y0273024D01*
X0073466Y0273024D01*
X0073066Y0273024D01*
X0073066Y0277624D01*
X0070029Y0277624D01*
X0069571Y0277501D01*
X0069161Y0277264D01*
X0068825Y0276929D01*
X0068588Y0276518D01*
X0068466Y0276061D01*
X0068466Y0273024D01*
X0073066Y0273024D01*
X0073066Y0272624D01*
X0068466Y0272624D01*
X0068466Y0269587D01*
X0068588Y0269129D01*
X0068825Y0268718D01*
X0069161Y0268383D01*
X0069571Y0268146D01*
X0070029Y0268024D01*
X0073066Y0268024D01*
X0073066Y0272624D01*
X0073466Y0272624D01*
X0073466Y0273024D01*
X0073466Y0277624D01*
X0076503Y0277624D01*
X0076961Y0277501D01*
X0077371Y0277264D01*
X0077706Y0276929D01*
X0077943Y0276518D01*
X0078066Y0276061D01*
X0077813Y0276744D02*
X0080420Y0276744D01*
X0078481Y0273547D02*
X0078066Y0273547D01*
X0078066Y0272624D02*
X0073466Y0272624D01*
X0073466Y0268024D01*
X0076503Y0268024D01*
X0076961Y0268146D01*
X0077371Y0268383D01*
X0077706Y0268718D01*
X0077943Y0269129D01*
X0078066Y0269587D01*
X0078066Y0272624D01*
X0078066Y0271948D02*
X0078481Y0271948D01*
X0078066Y0270350D02*
X0079112Y0270350D01*
X0077725Y0268751D02*
X0080595Y0268751D01*
X0080681Y0267153D02*
X0057002Y0267153D01*
X0058298Y0268751D02*
X0068806Y0268751D01*
X0068466Y0270350D02*
X0058960Y0270350D01*
X0059318Y0271948D02*
X0068466Y0271948D01*
X0068466Y0273547D02*
X0059318Y0273547D01*
X0059023Y0275145D02*
X0068466Y0275145D01*
X0068719Y0276744D02*
X0058361Y0276744D01*
X0057154Y0278342D02*
X0249952Y0278342D01*
X0249766Y0277892D02*
X0249766Y0270708D01*
X0250448Y0269060D01*
X0251710Y0267798D01*
X0253358Y0267116D01*
X0255142Y0267116D01*
X0256790Y0267798D01*
X0258052Y0269060D01*
X0258734Y0270708D01*
X0258734Y0277892D01*
X0258052Y0279540D01*
X0256790Y0280802D01*
X0255142Y0281484D01*
X0253358Y0281484D01*
X0251710Y0280802D01*
X0250448Y0279540D01*
X0249766Y0277892D01*
X0249766Y0276744D02*
X0226036Y0276744D01*
X0225781Y0276929D02*
X0225108Y0277272D01*
X0224390Y0277505D01*
X0223644Y0277624D01*
X0223466Y0277624D01*
X0223466Y0273024D01*
X0223066Y0273024D01*
X0223066Y0277624D01*
X0222888Y0277624D01*
X0222142Y0277505D01*
X0221423Y0277272D01*
X0220750Y0276929D01*
X0220139Y0276485D01*
X0219605Y0275951D01*
X0219160Y0275339D01*
X0218817Y0274666D01*
X0218584Y0273948D01*
X0218466Y0273201D01*
X0218466Y0273024D01*
X0223066Y0273024D01*
X0223066Y0272624D01*
X0218466Y0272624D01*
X0218466Y0272446D01*
X0218584Y0271700D01*
X0218817Y0270981D01*
X0219160Y0270308D01*
X0219605Y0269697D01*
X0220139Y0269162D01*
X0220750Y0268718D01*
X0221423Y0268375D01*
X0222142Y0268142D01*
X0222888Y0268024D01*
X0223066Y0268024D01*
X0223066Y0272624D01*
X0223466Y0272624D01*
X0223466Y0273024D01*
X0228066Y0273024D01*
X0228066Y0273201D01*
X0227948Y0273948D01*
X0227714Y0274666D01*
X0227371Y0275339D01*
X0226927Y0275951D01*
X0226393Y0276485D01*
X0225781Y0276929D01*
X0223466Y0276744D02*
X0223066Y0276744D01*
X0223066Y0275145D02*
X0223466Y0275145D01*
X0223466Y0273547D02*
X0223066Y0273547D01*
X0223466Y0272624D02*
X0228066Y0272624D01*
X0228066Y0272446D01*
X0227948Y0271700D01*
X0227714Y0270981D01*
X0227371Y0270308D01*
X0226927Y0269697D01*
X0226393Y0269162D01*
X0225781Y0268718D01*
X0225108Y0268375D01*
X0224390Y0268142D01*
X0223644Y0268024D01*
X0223466Y0268024D01*
X0223466Y0272624D01*
X0223466Y0271948D02*
X0223066Y0271948D01*
X0223066Y0270350D02*
X0223466Y0270350D01*
X0223466Y0268751D02*
X0223066Y0268751D01*
X0220704Y0268751D02*
X0215936Y0268751D01*
X0215976Y0268768D02*
X0217322Y0270114D01*
X0218050Y0271872D01*
X0218050Y0273775D01*
X0217322Y0275534D01*
X0215976Y0276880D01*
X0214217Y0277608D01*
X0212314Y0277608D01*
X0210556Y0276880D01*
X0209210Y0275534D01*
X0208481Y0273775D01*
X0208481Y0271872D01*
X0209210Y0270114D01*
X0210556Y0268768D01*
X0212314Y0268039D01*
X0214217Y0268039D01*
X0215976Y0268768D01*
X0217420Y0270350D02*
X0219139Y0270350D01*
X0218545Y0271948D02*
X0218050Y0271948D01*
X0218050Y0273547D02*
X0218520Y0273547D01*
X0219062Y0275145D02*
X0217482Y0275145D01*
X0216111Y0276744D02*
X0220495Y0276744D01*
X0227470Y0275145D02*
X0249766Y0275145D01*
X0249766Y0273547D02*
X0228011Y0273547D01*
X0227987Y0271948D02*
X0249766Y0271948D01*
X0249914Y0270350D02*
X0227392Y0270350D01*
X0225827Y0268751D02*
X0250757Y0268751D01*
X0253268Y0267153D02*
X0095850Y0267153D01*
X0095850Y0265554D02*
X0343667Y0265554D01*
X0341498Y0267153D02*
X0264938Y0267153D01*
X0264604Y0267100D02*
X0265304Y0267211D01*
X0265977Y0267430D01*
X0266609Y0267751D01*
X0267182Y0268168D01*
X0267682Y0268668D01*
X0268099Y0269241D01*
X0268420Y0269873D01*
X0268639Y0270546D01*
X0268750Y0271246D01*
X0268750Y0274200D01*
X0264350Y0274200D01*
X0264350Y0274400D01*
X0264150Y0274400D01*
X0264150Y0281500D01*
X0263896Y0281500D01*
X0263196Y0281389D01*
X0262523Y0281170D01*
X0261891Y0280849D01*
X0261318Y0280432D01*
X0260818Y0279932D01*
X0260401Y0279359D01*
X0260080Y0278727D01*
X0259861Y0278054D01*
X0259750Y0277354D01*
X0259750Y0274400D01*
X0264150Y0274400D01*
X0264150Y0274200D01*
X0259750Y0274200D01*
X0259750Y0271246D01*
X0259861Y0270546D01*
X0260080Y0269873D01*
X0260401Y0269241D01*
X0260818Y0268668D01*
X0261318Y0268168D01*
X0261891Y0267751D01*
X0262523Y0267430D01*
X0263196Y0267211D01*
X0263896Y0267100D01*
X0264150Y0267100D01*
X0264150Y0274200D01*
X0264350Y0274200D01*
X0264350Y0267100D01*
X0264604Y0267100D01*
X0264350Y0267153D02*
X0264150Y0267153D01*
X0263562Y0267153D02*
X0255232Y0267153D01*
X0257743Y0268751D02*
X0260757Y0268751D01*
X0259925Y0270350D02*
X0258586Y0270350D01*
X0258734Y0271948D02*
X0259750Y0271948D01*
X0259750Y0273547D02*
X0258734Y0273547D01*
X0258734Y0275145D02*
X0259750Y0275145D01*
X0259750Y0276744D02*
X0258734Y0276744D01*
X0258548Y0278342D02*
X0259955Y0278342D01*
X0260827Y0279941D02*
X0257651Y0279941D01*
X0264150Y0279941D02*
X0264350Y0279941D01*
X0264350Y0281500D02*
X0264350Y0274400D01*
X0268750Y0274400D01*
X0268750Y0277354D01*
X0268639Y0278054D01*
X0268420Y0278727D01*
X0268099Y0279359D01*
X0267682Y0279932D01*
X0267182Y0280432D01*
X0266609Y0280849D01*
X0265977Y0281170D01*
X0265304Y0281389D01*
X0264604Y0281500D01*
X0264350Y0281500D01*
X0264350Y0278342D02*
X0264150Y0278342D01*
X0264150Y0276744D02*
X0264350Y0276744D01*
X0264350Y0275145D02*
X0264150Y0275145D01*
X0264150Y0273547D02*
X0264350Y0273547D01*
X0264350Y0271948D02*
X0264150Y0271948D01*
X0264150Y0270350D02*
X0264350Y0270350D01*
X0264350Y0268751D02*
X0264150Y0268751D01*
X0267743Y0268751D02*
X0340202Y0268751D01*
X0339540Y0270350D02*
X0268575Y0270350D01*
X0268750Y0271948D02*
X0339182Y0271948D01*
X0339182Y0273547D02*
X0268750Y0273547D01*
X0268750Y0275145D02*
X0339477Y0275145D01*
X0340139Y0276744D02*
X0268750Y0276744D01*
X0268545Y0278342D02*
X0341346Y0278342D01*
X0343300Y0279941D02*
X0267673Y0279941D01*
X0250849Y0279941D02*
X0055200Y0279941D01*
X0073066Y0276744D02*
X0073466Y0276744D01*
X0073466Y0275145D02*
X0073066Y0275145D01*
X0073066Y0273547D02*
X0073466Y0273547D01*
X0073466Y0271948D02*
X0073066Y0271948D01*
X0073066Y0270350D02*
X0073466Y0270350D01*
X0073466Y0268751D02*
X0073066Y0268751D01*
X0094140Y0254365D02*
X0365950Y0254365D01*
X0365950Y0255963D02*
X0095716Y0255963D01*
X0095850Y0257562D02*
X0365950Y0257562D01*
X0365950Y0259160D02*
X0095850Y0259160D01*
X0095850Y0260759D02*
X0365950Y0260759D01*
X0365950Y0262357D02*
X0095850Y0262357D01*
X0095850Y0263956D02*
X0365950Y0263956D01*
X0384254Y0270350D02*
X0391650Y0270350D01*
X0391650Y0271948D02*
X0385852Y0271948D01*
X0386669Y0273547D02*
X0391650Y0273547D01*
X0391650Y0275145D02*
X0387331Y0275145D01*
X0387349Y0276744D02*
X0391650Y0276744D01*
X0391650Y0278342D02*
X0387349Y0278342D01*
X0386715Y0279941D02*
X0391650Y0279941D01*
X0391650Y0281539D02*
X0385965Y0281539D01*
X0384366Y0283138D02*
X0391650Y0283138D01*
X0391650Y0284737D02*
X0381254Y0284737D01*
X0377246Y0284737D02*
X0021254Y0284737D01*
X0024366Y0283138D02*
X0374134Y0283138D01*
X0391650Y0286335D02*
X0006850Y0286335D01*
X0006850Y0284737D02*
X0017246Y0284737D01*
X0014134Y0283138D02*
X0006850Y0283138D01*
X0006850Y0281539D02*
X0012535Y0281539D01*
X0011785Y0279941D02*
X0006850Y0279941D01*
X0006850Y0278342D02*
X0011151Y0278342D01*
X0011151Y0276744D02*
X0006850Y0276744D01*
X0006850Y0275145D02*
X0011169Y0275145D01*
X0011831Y0273547D02*
X0006850Y0273547D01*
X0006850Y0271948D02*
X0012648Y0271948D01*
X0014246Y0270350D02*
X0006850Y0270350D01*
X0006850Y0287934D02*
X0391650Y0287934D01*
X0352811Y0241577D02*
X0026520Y0241577D01*
X0027136Y0239978D02*
X0351370Y0239978D01*
X0350852Y0238380D02*
X0027098Y0238380D01*
X0026344Y0236781D02*
X0350942Y0236781D01*
X0351694Y0227190D02*
X0349334Y0227190D01*
X0349334Y0225592D02*
X0352999Y0225592D01*
X0351402Y0223993D02*
X0349334Y0223993D01*
X0349334Y0222395D02*
X0350852Y0222395D01*
X0350910Y0220796D02*
X0349334Y0220796D01*
X0349334Y0219198D02*
X0351655Y0219198D01*
X0349334Y0217599D02*
X0353987Y0217599D01*
X0365950Y0200015D02*
X0282692Y0200015D01*
X0274966Y0171242D02*
X0185481Y0171242D01*
X0209250Y0164300D02*
X0143700Y0164300D01*
X0143700Y0214300D01*
X0140550Y0211300D02*
X0140550Y0153750D01*
X0137959Y0153659D02*
X0134334Y0153659D01*
X0134334Y0152060D02*
X0138533Y0152060D01*
X0137966Y0155257D02*
X0134151Y0155257D01*
X0131750Y0154300D02*
X0131750Y0126800D01*
X0129166Y0129681D02*
X0125786Y0129681D01*
X0126832Y0131279D02*
X0129166Y0131279D01*
X0129166Y0132878D02*
X0126834Y0132878D01*
X0126834Y0134476D02*
X0129166Y0134476D01*
X0129166Y0136075D02*
X0126834Y0136075D01*
X0127234Y0137673D02*
X0129166Y0137673D01*
X0134334Y0142469D02*
X0202966Y0142469D01*
X0202966Y0131279D02*
X0134334Y0131279D01*
X0134334Y0129681D02*
X0202966Y0129681D01*
X0216184Y0136075D02*
X0274966Y0136075D01*
X0274966Y0137673D02*
X0216184Y0137673D01*
X0216184Y0139272D02*
X0274966Y0139272D01*
X0274966Y0140870D02*
X0216184Y0140870D01*
X0216184Y0142469D02*
X0274966Y0142469D01*
X0274966Y0144068D02*
X0216184Y0144068D01*
X0216184Y0145666D02*
X0274966Y0145666D01*
X0274966Y0147265D02*
X0216184Y0147265D01*
X0216184Y0148863D02*
X0274966Y0148863D01*
X0274966Y0150462D02*
X0216184Y0150462D01*
X0216184Y0152060D02*
X0274966Y0152060D01*
X0274966Y0153659D02*
X0216184Y0153659D01*
X0216184Y0155257D02*
X0274966Y0155257D01*
X0274966Y0156856D02*
X0216184Y0156856D01*
X0216184Y0158454D02*
X0274966Y0158454D01*
X0274966Y0160053D02*
X0216184Y0160053D01*
X0216184Y0161651D02*
X0274966Y0161651D01*
X0274966Y0163250D02*
X0216184Y0163250D01*
X0216184Y0164848D02*
X0274966Y0164848D01*
X0274966Y0166447D02*
X0216184Y0166447D01*
X0216184Y0168045D02*
X0274966Y0168045D01*
X0274966Y0169644D02*
X0215711Y0169644D01*
X0223997Y0134476D02*
X0244453Y0134476D01*
X0248947Y0134476D02*
X0275575Y0134476D01*
X0277523Y0132878D02*
X0249684Y0132878D01*
X0246700Y0127900D02*
X0221750Y0127900D01*
X0221750Y0124000D02*
X0246700Y0124000D01*
X0349910Y0158454D02*
X0391650Y0158454D01*
X0391650Y0156856D02*
X0352656Y0156856D01*
X0354192Y0155257D02*
X0391650Y0155257D01*
X0391650Y0153659D02*
X0354854Y0153659D01*
X0355381Y0152060D02*
X0391650Y0152060D01*
X0391650Y0150462D02*
X0355381Y0150462D01*
X0355255Y0148863D02*
X0391650Y0148863D01*
X0391650Y0147265D02*
X0354593Y0147265D01*
X0353625Y0145666D02*
X0391650Y0145666D01*
X0391650Y0144068D02*
X0352027Y0144068D01*
X0376133Y0160053D02*
X0391650Y0160053D01*
X0391650Y0161651D02*
X0377500Y0161651D01*
X0377822Y0163250D02*
X0391650Y0163250D01*
X0391650Y0164848D02*
X0377408Y0164848D01*
X0210595Y0268751D02*
X0205936Y0268751D01*
X0205976Y0268768D02*
X0207322Y0270114D01*
X0208050Y0271872D01*
X0208050Y0273775D01*
X0207322Y0275534D01*
X0205976Y0276880D01*
X0204217Y0277608D01*
X0202314Y0277608D01*
X0200556Y0276880D01*
X0199210Y0275534D01*
X0198481Y0273775D01*
X0198481Y0271872D01*
X0199210Y0270114D01*
X0200556Y0268768D01*
X0202314Y0268039D01*
X0204217Y0268039D01*
X0205976Y0268768D01*
X0207420Y0270350D02*
X0209112Y0270350D01*
X0208481Y0271948D02*
X0208050Y0271948D01*
X0208050Y0273547D02*
X0208481Y0273547D01*
X0209049Y0275145D02*
X0207482Y0275145D01*
X0206111Y0276744D02*
X0210420Y0276744D01*
X0200420Y0276744D02*
X0196111Y0276744D01*
X0195976Y0276880D02*
X0194217Y0277608D01*
X0192314Y0277608D01*
X0190556Y0276880D01*
X0189210Y0275534D01*
X0188481Y0273775D01*
X0188481Y0271872D01*
X0189210Y0270114D01*
X0190556Y0268768D01*
X0192314Y0268039D01*
X0194217Y0268039D01*
X0195976Y0268768D01*
X0197322Y0270114D01*
X0198050Y0271872D01*
X0198050Y0273775D01*
X0197322Y0275534D01*
X0195976Y0276880D01*
X0197482Y0275145D02*
X0199049Y0275145D01*
X0198481Y0273547D02*
X0198050Y0273547D01*
X0198050Y0271948D02*
X0198481Y0271948D01*
X0199112Y0270350D02*
X0197420Y0270350D01*
X0195936Y0268751D02*
X0200595Y0268751D01*
X0190595Y0268751D02*
X0185936Y0268751D01*
X0185976Y0268768D02*
X0187322Y0270114D01*
X0188050Y0271872D01*
X0188050Y0273775D01*
X0187322Y0275534D01*
X0185976Y0276880D01*
X0184217Y0277608D01*
X0182314Y0277608D01*
X0180556Y0276880D01*
X0179210Y0275534D01*
X0178481Y0273775D01*
X0178481Y0271872D01*
X0179210Y0270114D01*
X0180556Y0268768D01*
X0182314Y0268039D01*
X0184217Y0268039D01*
X0185976Y0268768D01*
X0187420Y0270350D02*
X0189112Y0270350D01*
X0188481Y0271948D02*
X0188050Y0271948D01*
X0188050Y0273547D02*
X0188481Y0273547D01*
X0189049Y0275145D02*
X0187482Y0275145D01*
X0186111Y0276744D02*
X0190420Y0276744D01*
X0180420Y0276744D02*
X0176111Y0276744D01*
X0175976Y0276880D02*
X0174217Y0277608D01*
X0172314Y0277608D01*
X0170556Y0276880D01*
X0169210Y0275534D01*
X0168481Y0273775D01*
X0168481Y0271872D01*
X0169210Y0270114D01*
X0170556Y0268768D01*
X0172314Y0268039D01*
X0174217Y0268039D01*
X0175976Y0268768D01*
X0177322Y0270114D01*
X0178050Y0271872D01*
X0178050Y0273775D01*
X0177322Y0275534D01*
X0175976Y0276880D01*
X0177482Y0275145D02*
X0179049Y0275145D01*
X0178481Y0273547D02*
X0178050Y0273547D01*
X0178050Y0271948D02*
X0178481Y0271948D01*
X0179112Y0270350D02*
X0177420Y0270350D01*
X0175936Y0268751D02*
X0180595Y0268751D01*
X0170595Y0268751D02*
X0165936Y0268751D01*
X0165976Y0268768D02*
X0167322Y0270114D01*
X0168050Y0271872D01*
X0168050Y0273775D01*
X0167322Y0275534D01*
X0165976Y0276880D01*
X0164217Y0277608D01*
X0162314Y0277608D01*
X0160556Y0276880D01*
X0159210Y0275534D01*
X0158481Y0273775D01*
X0158481Y0271872D01*
X0159210Y0270114D01*
X0160556Y0268768D01*
X0162314Y0268039D01*
X0164217Y0268039D01*
X0165976Y0268768D01*
X0167420Y0270350D02*
X0169112Y0270350D01*
X0168481Y0271948D02*
X0168050Y0271948D01*
X0168050Y0273547D02*
X0168481Y0273547D01*
X0169049Y0275145D02*
X0167482Y0275145D01*
X0166111Y0276744D02*
X0170420Y0276744D01*
X0160420Y0276744D02*
X0156111Y0276744D01*
X0155976Y0276880D02*
X0154217Y0277608D01*
X0152314Y0277608D01*
X0150556Y0276880D01*
X0149210Y0275534D01*
X0148481Y0273775D01*
X0148481Y0271872D01*
X0149210Y0270114D01*
X0150556Y0268768D01*
X0152314Y0268039D01*
X0154217Y0268039D01*
X0155976Y0268768D01*
X0157322Y0270114D01*
X0158050Y0271872D01*
X0158050Y0273775D01*
X0157322Y0275534D01*
X0155976Y0276880D01*
X0157482Y0275145D02*
X0159049Y0275145D01*
X0158481Y0273547D02*
X0158050Y0273547D01*
X0158050Y0271948D02*
X0158481Y0271948D01*
X0159112Y0270350D02*
X0157420Y0270350D01*
X0155936Y0268751D02*
X0160595Y0268751D01*
X0150595Y0268751D02*
X0145936Y0268751D01*
X0145976Y0268768D02*
X0147322Y0270114D01*
X0148050Y0271872D01*
X0148050Y0273775D01*
X0147322Y0275534D01*
X0145976Y0276880D01*
X0144217Y0277608D01*
X0142314Y0277608D01*
X0140556Y0276880D01*
X0139210Y0275534D01*
X0138481Y0273775D01*
X0138481Y0271872D01*
X0139210Y0270114D01*
X0140556Y0268768D01*
X0142314Y0268039D01*
X0144217Y0268039D01*
X0145976Y0268768D01*
X0147420Y0270350D02*
X0149112Y0270350D01*
X0148481Y0271948D02*
X0148050Y0271948D01*
X0148050Y0273547D02*
X0148481Y0273547D01*
X0149049Y0275145D02*
X0147482Y0275145D01*
X0146111Y0276744D02*
X0150420Y0276744D01*
X0140420Y0276744D02*
X0136111Y0276744D01*
X0135976Y0276880D02*
X0134217Y0277608D01*
X0132314Y0277608D01*
X0130556Y0276880D01*
X0129210Y0275534D01*
X0128481Y0273775D01*
X0128481Y0271872D01*
X0129210Y0270114D01*
X0130556Y0268768D01*
X0132314Y0268039D01*
X0134217Y0268039D01*
X0135976Y0268768D01*
X0137322Y0270114D01*
X0138050Y0271872D01*
X0138050Y0273775D01*
X0137322Y0275534D01*
X0135976Y0276880D01*
X0137482Y0275145D02*
X0139049Y0275145D01*
X0138481Y0273547D02*
X0138050Y0273547D01*
X0138050Y0271948D02*
X0138481Y0271948D01*
X0139112Y0270350D02*
X0137420Y0270350D01*
X0135936Y0268751D02*
X0140595Y0268751D01*
X0130595Y0268751D02*
X0125936Y0268751D01*
X0125976Y0268768D02*
X0127322Y0270114D01*
X0128050Y0271872D01*
X0128050Y0273775D01*
X0127322Y0275534D01*
X0125976Y0276880D01*
X0124217Y0277608D01*
X0122314Y0277608D01*
X0120556Y0276880D01*
X0119210Y0275534D01*
X0118481Y0273775D01*
X0118481Y0271872D01*
X0119210Y0270114D01*
X0120556Y0268768D01*
X0122314Y0268039D01*
X0124217Y0268039D01*
X0125976Y0268768D01*
X0127420Y0270350D02*
X0129112Y0270350D01*
X0128481Y0271948D02*
X0128050Y0271948D01*
X0128050Y0273547D02*
X0128481Y0273547D01*
X0129049Y0275145D02*
X0127482Y0275145D01*
X0126111Y0276744D02*
X0130420Y0276744D01*
X0120420Y0276744D02*
X0116036Y0276744D01*
X0115781Y0276929D02*
X0115108Y0277272D01*
X0114390Y0277505D01*
X0113644Y0277624D01*
X0113466Y0277624D01*
X0113466Y0273024D01*
X0113066Y0273024D01*
X0113066Y0277624D01*
X0112888Y0277624D01*
X0112142Y0277505D01*
X0111423Y0277272D01*
X0110750Y0276929D01*
X0110139Y0276485D01*
X0109605Y0275951D01*
X0109160Y0275339D01*
X0108817Y0274666D01*
X0108584Y0273948D01*
X0108466Y0273201D01*
X0108466Y0273024D01*
X0113066Y0273024D01*
X0113066Y0272624D01*
X0108466Y0272624D01*
X0108466Y0272446D01*
X0108584Y0271700D01*
X0108817Y0270981D01*
X0109160Y0270308D01*
X0109605Y0269697D01*
X0110139Y0269162D01*
X0110750Y0268718D01*
X0111423Y0268375D01*
X0112142Y0268142D01*
X0112888Y0268024D01*
X0113066Y0268024D01*
X0113066Y0272624D01*
X0113466Y0272624D01*
X0113466Y0273024D01*
X0118066Y0273024D01*
X0118066Y0273201D01*
X0117948Y0273948D01*
X0117714Y0274666D01*
X0117371Y0275339D01*
X0116927Y0275951D01*
X0116393Y0276485D01*
X0115781Y0276929D01*
X0113466Y0276744D02*
X0113066Y0276744D01*
X0113066Y0275145D02*
X0113466Y0275145D01*
X0113466Y0273547D02*
X0113066Y0273547D01*
X0113466Y0272624D02*
X0118066Y0272624D01*
X0118066Y0272446D01*
X0117948Y0271700D01*
X0117714Y0270981D01*
X0117371Y0270308D01*
X0116927Y0269697D01*
X0116393Y0269162D01*
X0115781Y0268718D01*
X0115108Y0268375D01*
X0114390Y0268142D01*
X0113644Y0268024D01*
X0113466Y0268024D01*
X0113466Y0272624D01*
X0113466Y0271948D02*
X0113066Y0271948D01*
X0113066Y0270350D02*
X0113466Y0270350D01*
X0113466Y0268751D02*
X0113066Y0268751D01*
X0110704Y0268751D02*
X0105936Y0268751D01*
X0105976Y0268768D02*
X0107322Y0270114D01*
X0108050Y0271872D01*
X0108050Y0273775D01*
X0107322Y0275534D01*
X0105976Y0276880D01*
X0104217Y0277608D01*
X0102314Y0277608D01*
X0100556Y0276880D01*
X0099210Y0275534D01*
X0098481Y0273775D01*
X0098481Y0271872D01*
X0099210Y0270114D01*
X0100556Y0268768D01*
X0102314Y0268039D01*
X0104217Y0268039D01*
X0105976Y0268768D01*
X0107420Y0270350D02*
X0109139Y0270350D01*
X0108545Y0271948D02*
X0108050Y0271948D01*
X0108050Y0273547D02*
X0108520Y0273547D01*
X0109062Y0275145D02*
X0107482Y0275145D01*
X0106111Y0276744D02*
X0110495Y0276744D01*
X0117470Y0275145D02*
X0119049Y0275145D01*
X0118481Y0273547D02*
X0118011Y0273547D01*
X0117987Y0271948D02*
X0118481Y0271948D01*
X0119112Y0270350D02*
X0117392Y0270350D01*
X0115827Y0268751D02*
X0120595Y0268751D01*
X0100595Y0268751D02*
X0095936Y0268751D01*
X0097420Y0270350D02*
X0099112Y0270350D01*
X0098481Y0271948D02*
X0098050Y0271948D01*
X0098050Y0273547D02*
X0098481Y0273547D01*
X0099049Y0275145D02*
X0097482Y0275145D01*
X0096111Y0276744D02*
X0100420Y0276744D01*
X0067217Y0227190D02*
X0006850Y0227190D01*
X0006850Y0225592D02*
X0019488Y0225592D01*
X0019166Y0223993D02*
X0006850Y0223993D01*
X0006850Y0222395D02*
X0019166Y0222395D01*
X0019166Y0220796D02*
X0006850Y0220796D01*
X0006850Y0219198D02*
X0019166Y0219198D01*
X0019166Y0217599D02*
X0006850Y0217599D01*
X0006850Y0216001D02*
X0019166Y0216001D01*
X0018010Y0214402D02*
X0006850Y0214402D01*
X0006850Y0212803D02*
X0017266Y0212803D01*
X0017266Y0211205D02*
X0006850Y0211205D01*
X0006850Y0209606D02*
X0017602Y0209606D01*
X0019200Y0208008D02*
X0006850Y0208008D01*
X0006850Y0206409D02*
X0071666Y0206409D01*
X0071666Y0204811D02*
X0035081Y0204811D01*
X0034322Y0208008D02*
X0071666Y0208008D01*
X0071666Y0209606D02*
X0035920Y0209606D01*
X0036250Y0211205D02*
X0071666Y0211205D01*
X0071666Y0212803D02*
X0036250Y0212803D01*
X0035512Y0214402D02*
X0071666Y0214402D01*
X0071666Y0219198D02*
X0024334Y0219198D01*
X0024334Y0220796D02*
X0071666Y0220796D01*
X0046750Y0201800D02*
X0031750Y0201800D01*
X0034709Y0198417D02*
X0044166Y0198417D01*
X0027580Y0209606D02*
X0025898Y0209606D01*
X0018419Y0204811D02*
X0006850Y0204811D01*
X0006850Y0203212D02*
X0017266Y0203212D01*
X0017266Y0201614D02*
X0006850Y0201614D01*
X0006850Y0200015D02*
X0017266Y0200015D01*
X0018791Y0198417D02*
X0006850Y0198417D01*
X0023029Y0236781D02*
X0023030Y0236781D01*
X0023029Y0238380D02*
X0023030Y0238380D01*
X0023029Y0239978D02*
X0023030Y0239978D01*
X0023029Y0241577D02*
X0023030Y0241577D01*
X0083208Y0180833D02*
X0085779Y0180833D01*
X0087900Y0179300D02*
X0124250Y0179300D01*
X0127234Y0179235D02*
X0137966Y0179235D01*
X0137966Y0180833D02*
X0127234Y0180833D01*
X0127234Y0177636D02*
X0137966Y0177636D01*
X0137966Y0176038D02*
X0090484Y0176038D01*
X0090484Y0174439D02*
X0137966Y0174439D01*
X0137966Y0172841D02*
X0090484Y0172841D01*
X0090484Y0171242D02*
X0137966Y0171242D01*
X0137966Y0169644D02*
X0090484Y0169644D01*
X0090484Y0168045D02*
X0137966Y0168045D01*
X0137966Y0166447D02*
X0090484Y0166447D01*
X0090484Y0164848D02*
X0137966Y0164848D01*
X0137966Y0163250D02*
X0090484Y0163250D01*
X0090484Y0161651D02*
X0114728Y0161651D01*
X0116750Y0158750D02*
X0091750Y0158750D01*
X0091750Y0158625D01*
X0090484Y0155257D02*
X0126266Y0155257D01*
X0126266Y0153659D02*
X0108912Y0153659D01*
X0110071Y0152060D02*
X0126567Y0152060D01*
X0129166Y0150462D02*
X0110300Y0150462D01*
X0109790Y0148863D02*
X0123793Y0148863D01*
X0129250Y0154300D02*
X0131750Y0154300D01*
X0136750Y0158750D02*
X0116750Y0158750D01*
X0118772Y0161651D02*
X0134728Y0161651D01*
X0104588Y0153659D02*
X0090484Y0153659D01*
X0090484Y0152060D02*
X0103429Y0152060D01*
X0103200Y0150462D02*
X0090484Y0150462D01*
X0090484Y0148863D02*
X0103710Y0148863D01*
X0090484Y0137673D02*
X0121266Y0137673D01*
X0121666Y0136075D02*
X0090484Y0136075D01*
X0090484Y0124885D02*
X0101266Y0124885D01*
X0106292Y0129681D02*
X0108946Y0129681D01*
X0113997Y0134476D02*
X0121666Y0134476D01*
X0087900Y0114300D02*
X0087900Y0179300D01*
X0138500Y0211300D02*
X0140550Y0211300D01*
X0146284Y0203212D02*
X0157666Y0203212D01*
D24*
X0160650Y0204950D03*
X0156850Y0209300D03*
X0143700Y0214300D03*
X0138500Y0211300D03*
X0119300Y0195500D03*
X0124250Y0179300D03*
X0116750Y0158750D03*
X0110850Y0155500D03*
X0129250Y0154300D03*
X0136750Y0158750D03*
X0124250Y0139300D03*
X0111750Y0131800D03*
X0104250Y0126800D03*
X0087900Y0114300D03*
X0091750Y0158625D03*
X0086750Y0184300D03*
X0046750Y0201800D03*
X0069250Y0224300D03*
X0086750Y0219300D03*
X0142800Y0232550D03*
X0190490Y0214398D03*
X0206750Y0184300D03*
X0182750Y0169050D03*
X0221750Y0131800D03*
X0221750Y0127900D03*
X0221750Y0124000D03*
X0246700Y0124000D03*
X0246700Y0127900D03*
X0246700Y0131800D03*
X0351750Y0161800D03*
X0299250Y0241800D03*
X0046750Y0264300D03*
X0046750Y0158625D03*
D25*
X0151750Y0151800D03*
X0189250Y0236800D03*
X0309250Y0194300D03*
D26*
X0279250Y0196800D03*
X0257990Y0173517D03*
X0259250Y0151800D03*
X0379250Y0136800D03*
X0284250Y0249300D03*
X0291750Y0276800D03*
X0314250Y0276800D03*
X0239250Y0261800D03*
X0081750Y0176800D03*
D27*
X0081750Y0099300D01*
X0056750Y0099300D01*
X0056750Y0049300D01*
X0084250Y0049300D01*
X0279250Y0136800D02*
X0379250Y0136800D01*
X0279250Y0136800D02*
X0279250Y0196800D01*
M02*
