%
M48
M72
T01C0.01200
T02C0.01378
T03C0.01772
T04C0.02362
T05C0.02756
T06C0.03150
T07C0.03200
T08C0.03500
T09C0.03543
T10C0.03600
T11C0.03937
T12C0.04000
T13C0.04724
T14C0.11024
T15C0.12598
%
T01
X101800Y126800
X109300Y131800
X121800Y139300
X126800Y154300
X129300Y161250
X114300Y161250
X108400Y155500
X89300Y161125
X84300Y186800
X116850Y195500
X148550Y211300
X153750Y214300
X140350Y232550
X188040Y214398
X204300Y184300
X180300Y169050
X219300Y126800
X219300Y122900
X219300Y119000
X244250Y119000
X244250Y122900
X244250Y126800
X334300Y139300
X349300Y161800
X334300Y201800
X84300Y221800
X66800Y224300
X44300Y161125
T02
X84300Y109300
X124300Y89300
X119300Y79300
X121800Y36800
X131800Y34300
X111800Y9300
X121800Y179300
X134300Y201800
X139300Y201800
X164300Y231800
X198225Y235540
X209300Y227638
X236800Y236800
X205650Y252900
X209300Y201800
X219300Y194300
X311800Y211800
X286800Y261800
T03
X16800Y51800
T04
X149300Y151800
T05
X255540Y173517
X264225Y156525
X284300Y216800
X311800Y276800
X376800Y129300
X271800Y57611
X271800Y51987
X271800Y46363
X271800Y40739
T06
X36800Y91800
X25580Y101800
X25580Y81800
T07
X169300Y141800
X179300Y141800
T08
X124300Y146800
X104300Y142800
X104300Y150800
T09
X371800Y163139
X371800Y180461
T10
X261800Y269300
X251800Y269300
X34300Y211800
X24300Y211800
X24300Y201800
X34300Y201800
X34300Y191800
X24300Y191800
X91800Y21800
X101800Y21800
T11
X109300Y41300
X109300Y49300
X109300Y57300
T12
X110816Y272824
X100816Y272824
X90816Y272824
X80816Y272824
X70816Y272824
X120816Y272824
X130816Y272824
X140816Y272824
X150816Y272824
X160816Y272824
X170816Y272824
X180816Y272824
X190816Y272824
X200816Y272824
X210816Y272824
X220816Y272824
T13
X306800Y61643
X306800Y51800
X306800Y41957
X363887Y41957
X363887Y61643
T14
X336328Y76406
X336328Y27194
T15
X16800Y16800
X48769Y150776
X48769Y272824
X16800Y276800
X344831Y272824
X376800Y276800
X344831Y150776
X376800Y16800
M30
