G75*
%MOIN*%
%OFA0B0*%
%FSLAX25Y25*%
%IPPOS*%
%LPD*%
%AMOC8*
5,1,8,0,0,1.08239X$1,22.5*
%
%ADD10C,0.00000*%
%ADD11C,0.01600*%
D10*
X0010501Y0016800D02*
X0010503Y0016958D01*
X0010509Y0017116D01*
X0010519Y0017274D01*
X0010533Y0017432D01*
X0010551Y0017589D01*
X0010572Y0017746D01*
X0010598Y0017902D01*
X0010628Y0018058D01*
X0010661Y0018213D01*
X0010699Y0018366D01*
X0010740Y0018519D01*
X0010785Y0018671D01*
X0010834Y0018822D01*
X0010887Y0018971D01*
X0010943Y0019119D01*
X0011003Y0019265D01*
X0011067Y0019410D01*
X0011135Y0019553D01*
X0011206Y0019695D01*
X0011280Y0019835D01*
X0011358Y0019972D01*
X0011440Y0020108D01*
X0011524Y0020242D01*
X0011613Y0020373D01*
X0011704Y0020502D01*
X0011799Y0020629D01*
X0011896Y0020754D01*
X0011997Y0020876D01*
X0012101Y0020995D01*
X0012208Y0021112D01*
X0012318Y0021226D01*
X0012431Y0021337D01*
X0012546Y0021446D01*
X0012664Y0021551D01*
X0012785Y0021653D01*
X0012908Y0021753D01*
X0013034Y0021849D01*
X0013162Y0021942D01*
X0013292Y0022032D01*
X0013425Y0022118D01*
X0013560Y0022202D01*
X0013696Y0022281D01*
X0013835Y0022358D01*
X0013976Y0022430D01*
X0014118Y0022500D01*
X0014262Y0022565D01*
X0014408Y0022627D01*
X0014555Y0022685D01*
X0014704Y0022740D01*
X0014854Y0022791D01*
X0015005Y0022838D01*
X0015157Y0022881D01*
X0015310Y0022920D01*
X0015465Y0022956D01*
X0015620Y0022987D01*
X0015776Y0023015D01*
X0015932Y0023039D01*
X0016089Y0023059D01*
X0016247Y0023075D01*
X0016404Y0023087D01*
X0016563Y0023095D01*
X0016721Y0023099D01*
X0016879Y0023099D01*
X0017037Y0023095D01*
X0017196Y0023087D01*
X0017353Y0023075D01*
X0017511Y0023059D01*
X0017668Y0023039D01*
X0017824Y0023015D01*
X0017980Y0022987D01*
X0018135Y0022956D01*
X0018290Y0022920D01*
X0018443Y0022881D01*
X0018595Y0022838D01*
X0018746Y0022791D01*
X0018896Y0022740D01*
X0019045Y0022685D01*
X0019192Y0022627D01*
X0019338Y0022565D01*
X0019482Y0022500D01*
X0019624Y0022430D01*
X0019765Y0022358D01*
X0019904Y0022281D01*
X0020040Y0022202D01*
X0020175Y0022118D01*
X0020308Y0022032D01*
X0020438Y0021942D01*
X0020566Y0021849D01*
X0020692Y0021753D01*
X0020815Y0021653D01*
X0020936Y0021551D01*
X0021054Y0021446D01*
X0021169Y0021337D01*
X0021282Y0021226D01*
X0021392Y0021112D01*
X0021499Y0020995D01*
X0021603Y0020876D01*
X0021704Y0020754D01*
X0021801Y0020629D01*
X0021896Y0020502D01*
X0021987Y0020373D01*
X0022076Y0020242D01*
X0022160Y0020108D01*
X0022242Y0019972D01*
X0022320Y0019835D01*
X0022394Y0019695D01*
X0022465Y0019553D01*
X0022533Y0019410D01*
X0022597Y0019265D01*
X0022657Y0019119D01*
X0022713Y0018971D01*
X0022766Y0018822D01*
X0022815Y0018671D01*
X0022860Y0018519D01*
X0022901Y0018366D01*
X0022939Y0018213D01*
X0022972Y0018058D01*
X0023002Y0017902D01*
X0023028Y0017746D01*
X0023049Y0017589D01*
X0023067Y0017432D01*
X0023081Y0017274D01*
X0023091Y0017116D01*
X0023097Y0016958D01*
X0023099Y0016800D01*
X0023097Y0016642D01*
X0023091Y0016484D01*
X0023081Y0016326D01*
X0023067Y0016168D01*
X0023049Y0016011D01*
X0023028Y0015854D01*
X0023002Y0015698D01*
X0022972Y0015542D01*
X0022939Y0015387D01*
X0022901Y0015234D01*
X0022860Y0015081D01*
X0022815Y0014929D01*
X0022766Y0014778D01*
X0022713Y0014629D01*
X0022657Y0014481D01*
X0022597Y0014335D01*
X0022533Y0014190D01*
X0022465Y0014047D01*
X0022394Y0013905D01*
X0022320Y0013765D01*
X0022242Y0013628D01*
X0022160Y0013492D01*
X0022076Y0013358D01*
X0021987Y0013227D01*
X0021896Y0013098D01*
X0021801Y0012971D01*
X0021704Y0012846D01*
X0021603Y0012724D01*
X0021499Y0012605D01*
X0021392Y0012488D01*
X0021282Y0012374D01*
X0021169Y0012263D01*
X0021054Y0012154D01*
X0020936Y0012049D01*
X0020815Y0011947D01*
X0020692Y0011847D01*
X0020566Y0011751D01*
X0020438Y0011658D01*
X0020308Y0011568D01*
X0020175Y0011482D01*
X0020040Y0011398D01*
X0019904Y0011319D01*
X0019765Y0011242D01*
X0019624Y0011170D01*
X0019482Y0011100D01*
X0019338Y0011035D01*
X0019192Y0010973D01*
X0019045Y0010915D01*
X0018896Y0010860D01*
X0018746Y0010809D01*
X0018595Y0010762D01*
X0018443Y0010719D01*
X0018290Y0010680D01*
X0018135Y0010644D01*
X0017980Y0010613D01*
X0017824Y0010585D01*
X0017668Y0010561D01*
X0017511Y0010541D01*
X0017353Y0010525D01*
X0017196Y0010513D01*
X0017037Y0010505D01*
X0016879Y0010501D01*
X0016721Y0010501D01*
X0016563Y0010505D01*
X0016404Y0010513D01*
X0016247Y0010525D01*
X0016089Y0010541D01*
X0015932Y0010561D01*
X0015776Y0010585D01*
X0015620Y0010613D01*
X0015465Y0010644D01*
X0015310Y0010680D01*
X0015157Y0010719D01*
X0015005Y0010762D01*
X0014854Y0010809D01*
X0014704Y0010860D01*
X0014555Y0010915D01*
X0014408Y0010973D01*
X0014262Y0011035D01*
X0014118Y0011100D01*
X0013976Y0011170D01*
X0013835Y0011242D01*
X0013696Y0011319D01*
X0013560Y0011398D01*
X0013425Y0011482D01*
X0013292Y0011568D01*
X0013162Y0011658D01*
X0013034Y0011751D01*
X0012908Y0011847D01*
X0012785Y0011947D01*
X0012664Y0012049D01*
X0012546Y0012154D01*
X0012431Y0012263D01*
X0012318Y0012374D01*
X0012208Y0012488D01*
X0012101Y0012605D01*
X0011997Y0012724D01*
X0011896Y0012846D01*
X0011799Y0012971D01*
X0011704Y0013098D01*
X0011613Y0013227D01*
X0011524Y0013358D01*
X0011440Y0013492D01*
X0011358Y0013628D01*
X0011280Y0013765D01*
X0011206Y0013905D01*
X0011135Y0014047D01*
X0011067Y0014190D01*
X0011003Y0014335D01*
X0010943Y0014481D01*
X0010887Y0014629D01*
X0010834Y0014778D01*
X0010785Y0014929D01*
X0010740Y0015081D01*
X0010699Y0015234D01*
X0010661Y0015387D01*
X0010628Y0015542D01*
X0010598Y0015698D01*
X0010572Y0015854D01*
X0010551Y0016011D01*
X0010533Y0016168D01*
X0010519Y0016326D01*
X0010509Y0016484D01*
X0010503Y0016642D01*
X0010501Y0016800D01*
X0102550Y0142800D02*
X0102552Y0142883D01*
X0102558Y0142966D01*
X0102568Y0143049D01*
X0102582Y0143131D01*
X0102599Y0143213D01*
X0102621Y0143293D01*
X0102646Y0143372D01*
X0102675Y0143450D01*
X0102708Y0143527D01*
X0102745Y0143602D01*
X0102784Y0143675D01*
X0102828Y0143746D01*
X0102874Y0143815D01*
X0102924Y0143882D01*
X0102977Y0143946D01*
X0103033Y0144008D01*
X0103092Y0144067D01*
X0103154Y0144123D01*
X0103218Y0144176D01*
X0103285Y0144226D01*
X0103354Y0144272D01*
X0103425Y0144316D01*
X0103498Y0144355D01*
X0103573Y0144392D01*
X0103650Y0144425D01*
X0103728Y0144454D01*
X0103807Y0144479D01*
X0103887Y0144501D01*
X0103969Y0144518D01*
X0104051Y0144532D01*
X0104134Y0144542D01*
X0104217Y0144548D01*
X0104300Y0144550D01*
X0104383Y0144548D01*
X0104466Y0144542D01*
X0104549Y0144532D01*
X0104631Y0144518D01*
X0104713Y0144501D01*
X0104793Y0144479D01*
X0104872Y0144454D01*
X0104950Y0144425D01*
X0105027Y0144392D01*
X0105102Y0144355D01*
X0105175Y0144316D01*
X0105246Y0144272D01*
X0105315Y0144226D01*
X0105382Y0144176D01*
X0105446Y0144123D01*
X0105508Y0144067D01*
X0105567Y0144008D01*
X0105623Y0143946D01*
X0105676Y0143882D01*
X0105726Y0143815D01*
X0105772Y0143746D01*
X0105816Y0143675D01*
X0105855Y0143602D01*
X0105892Y0143527D01*
X0105925Y0143450D01*
X0105954Y0143372D01*
X0105979Y0143293D01*
X0106001Y0143213D01*
X0106018Y0143131D01*
X0106032Y0143049D01*
X0106042Y0142966D01*
X0106048Y0142883D01*
X0106050Y0142800D01*
X0106048Y0142717D01*
X0106042Y0142634D01*
X0106032Y0142551D01*
X0106018Y0142469D01*
X0106001Y0142387D01*
X0105979Y0142307D01*
X0105954Y0142228D01*
X0105925Y0142150D01*
X0105892Y0142073D01*
X0105855Y0141998D01*
X0105816Y0141925D01*
X0105772Y0141854D01*
X0105726Y0141785D01*
X0105676Y0141718D01*
X0105623Y0141654D01*
X0105567Y0141592D01*
X0105508Y0141533D01*
X0105446Y0141477D01*
X0105382Y0141424D01*
X0105315Y0141374D01*
X0105246Y0141328D01*
X0105175Y0141284D01*
X0105102Y0141245D01*
X0105027Y0141208D01*
X0104950Y0141175D01*
X0104872Y0141146D01*
X0104793Y0141121D01*
X0104713Y0141099D01*
X0104631Y0141082D01*
X0104549Y0141068D01*
X0104466Y0141058D01*
X0104383Y0141052D01*
X0104300Y0141050D01*
X0104217Y0141052D01*
X0104134Y0141058D01*
X0104051Y0141068D01*
X0103969Y0141082D01*
X0103887Y0141099D01*
X0103807Y0141121D01*
X0103728Y0141146D01*
X0103650Y0141175D01*
X0103573Y0141208D01*
X0103498Y0141245D01*
X0103425Y0141284D01*
X0103354Y0141328D01*
X0103285Y0141374D01*
X0103218Y0141424D01*
X0103154Y0141477D01*
X0103092Y0141533D01*
X0103033Y0141592D01*
X0102977Y0141654D01*
X0102924Y0141718D01*
X0102874Y0141785D01*
X0102828Y0141854D01*
X0102784Y0141925D01*
X0102745Y0141998D01*
X0102708Y0142073D01*
X0102675Y0142150D01*
X0102646Y0142228D01*
X0102621Y0142307D01*
X0102599Y0142387D01*
X0102582Y0142469D01*
X0102568Y0142551D01*
X0102558Y0142634D01*
X0102552Y0142717D01*
X0102550Y0142800D01*
X0102550Y0150800D02*
X0102552Y0150883D01*
X0102558Y0150966D01*
X0102568Y0151049D01*
X0102582Y0151131D01*
X0102599Y0151213D01*
X0102621Y0151293D01*
X0102646Y0151372D01*
X0102675Y0151450D01*
X0102708Y0151527D01*
X0102745Y0151602D01*
X0102784Y0151675D01*
X0102828Y0151746D01*
X0102874Y0151815D01*
X0102924Y0151882D01*
X0102977Y0151946D01*
X0103033Y0152008D01*
X0103092Y0152067D01*
X0103154Y0152123D01*
X0103218Y0152176D01*
X0103285Y0152226D01*
X0103354Y0152272D01*
X0103425Y0152316D01*
X0103498Y0152355D01*
X0103573Y0152392D01*
X0103650Y0152425D01*
X0103728Y0152454D01*
X0103807Y0152479D01*
X0103887Y0152501D01*
X0103969Y0152518D01*
X0104051Y0152532D01*
X0104134Y0152542D01*
X0104217Y0152548D01*
X0104300Y0152550D01*
X0104383Y0152548D01*
X0104466Y0152542D01*
X0104549Y0152532D01*
X0104631Y0152518D01*
X0104713Y0152501D01*
X0104793Y0152479D01*
X0104872Y0152454D01*
X0104950Y0152425D01*
X0105027Y0152392D01*
X0105102Y0152355D01*
X0105175Y0152316D01*
X0105246Y0152272D01*
X0105315Y0152226D01*
X0105382Y0152176D01*
X0105446Y0152123D01*
X0105508Y0152067D01*
X0105567Y0152008D01*
X0105623Y0151946D01*
X0105676Y0151882D01*
X0105726Y0151815D01*
X0105772Y0151746D01*
X0105816Y0151675D01*
X0105855Y0151602D01*
X0105892Y0151527D01*
X0105925Y0151450D01*
X0105954Y0151372D01*
X0105979Y0151293D01*
X0106001Y0151213D01*
X0106018Y0151131D01*
X0106032Y0151049D01*
X0106042Y0150966D01*
X0106048Y0150883D01*
X0106050Y0150800D01*
X0106048Y0150717D01*
X0106042Y0150634D01*
X0106032Y0150551D01*
X0106018Y0150469D01*
X0106001Y0150387D01*
X0105979Y0150307D01*
X0105954Y0150228D01*
X0105925Y0150150D01*
X0105892Y0150073D01*
X0105855Y0149998D01*
X0105816Y0149925D01*
X0105772Y0149854D01*
X0105726Y0149785D01*
X0105676Y0149718D01*
X0105623Y0149654D01*
X0105567Y0149592D01*
X0105508Y0149533D01*
X0105446Y0149477D01*
X0105382Y0149424D01*
X0105315Y0149374D01*
X0105246Y0149328D01*
X0105175Y0149284D01*
X0105102Y0149245D01*
X0105027Y0149208D01*
X0104950Y0149175D01*
X0104872Y0149146D01*
X0104793Y0149121D01*
X0104713Y0149099D01*
X0104631Y0149082D01*
X0104549Y0149068D01*
X0104466Y0149058D01*
X0104383Y0149052D01*
X0104300Y0149050D01*
X0104217Y0149052D01*
X0104134Y0149058D01*
X0104051Y0149068D01*
X0103969Y0149082D01*
X0103887Y0149099D01*
X0103807Y0149121D01*
X0103728Y0149146D01*
X0103650Y0149175D01*
X0103573Y0149208D01*
X0103498Y0149245D01*
X0103425Y0149284D01*
X0103354Y0149328D01*
X0103285Y0149374D01*
X0103218Y0149424D01*
X0103154Y0149477D01*
X0103092Y0149533D01*
X0103033Y0149592D01*
X0102977Y0149654D01*
X0102924Y0149718D01*
X0102874Y0149785D01*
X0102828Y0149854D01*
X0102784Y0149925D01*
X0102745Y0149998D01*
X0102708Y0150073D01*
X0102675Y0150150D01*
X0102646Y0150228D01*
X0102621Y0150307D01*
X0102599Y0150387D01*
X0102582Y0150469D01*
X0102568Y0150551D01*
X0102558Y0150634D01*
X0102552Y0150717D01*
X0102550Y0150800D01*
X0122550Y0146800D02*
X0122552Y0146883D01*
X0122558Y0146966D01*
X0122568Y0147049D01*
X0122582Y0147131D01*
X0122599Y0147213D01*
X0122621Y0147293D01*
X0122646Y0147372D01*
X0122675Y0147450D01*
X0122708Y0147527D01*
X0122745Y0147602D01*
X0122784Y0147675D01*
X0122828Y0147746D01*
X0122874Y0147815D01*
X0122924Y0147882D01*
X0122977Y0147946D01*
X0123033Y0148008D01*
X0123092Y0148067D01*
X0123154Y0148123D01*
X0123218Y0148176D01*
X0123285Y0148226D01*
X0123354Y0148272D01*
X0123425Y0148316D01*
X0123498Y0148355D01*
X0123573Y0148392D01*
X0123650Y0148425D01*
X0123728Y0148454D01*
X0123807Y0148479D01*
X0123887Y0148501D01*
X0123969Y0148518D01*
X0124051Y0148532D01*
X0124134Y0148542D01*
X0124217Y0148548D01*
X0124300Y0148550D01*
X0124383Y0148548D01*
X0124466Y0148542D01*
X0124549Y0148532D01*
X0124631Y0148518D01*
X0124713Y0148501D01*
X0124793Y0148479D01*
X0124872Y0148454D01*
X0124950Y0148425D01*
X0125027Y0148392D01*
X0125102Y0148355D01*
X0125175Y0148316D01*
X0125246Y0148272D01*
X0125315Y0148226D01*
X0125382Y0148176D01*
X0125446Y0148123D01*
X0125508Y0148067D01*
X0125567Y0148008D01*
X0125623Y0147946D01*
X0125676Y0147882D01*
X0125726Y0147815D01*
X0125772Y0147746D01*
X0125816Y0147675D01*
X0125855Y0147602D01*
X0125892Y0147527D01*
X0125925Y0147450D01*
X0125954Y0147372D01*
X0125979Y0147293D01*
X0126001Y0147213D01*
X0126018Y0147131D01*
X0126032Y0147049D01*
X0126042Y0146966D01*
X0126048Y0146883D01*
X0126050Y0146800D01*
X0126048Y0146717D01*
X0126042Y0146634D01*
X0126032Y0146551D01*
X0126018Y0146469D01*
X0126001Y0146387D01*
X0125979Y0146307D01*
X0125954Y0146228D01*
X0125925Y0146150D01*
X0125892Y0146073D01*
X0125855Y0145998D01*
X0125816Y0145925D01*
X0125772Y0145854D01*
X0125726Y0145785D01*
X0125676Y0145718D01*
X0125623Y0145654D01*
X0125567Y0145592D01*
X0125508Y0145533D01*
X0125446Y0145477D01*
X0125382Y0145424D01*
X0125315Y0145374D01*
X0125246Y0145328D01*
X0125175Y0145284D01*
X0125102Y0145245D01*
X0125027Y0145208D01*
X0124950Y0145175D01*
X0124872Y0145146D01*
X0124793Y0145121D01*
X0124713Y0145099D01*
X0124631Y0145082D01*
X0124549Y0145068D01*
X0124466Y0145058D01*
X0124383Y0145052D01*
X0124300Y0145050D01*
X0124217Y0145052D01*
X0124134Y0145058D01*
X0124051Y0145068D01*
X0123969Y0145082D01*
X0123887Y0145099D01*
X0123807Y0145121D01*
X0123728Y0145146D01*
X0123650Y0145175D01*
X0123573Y0145208D01*
X0123498Y0145245D01*
X0123425Y0145284D01*
X0123354Y0145328D01*
X0123285Y0145374D01*
X0123218Y0145424D01*
X0123154Y0145477D01*
X0123092Y0145533D01*
X0123033Y0145592D01*
X0122977Y0145654D01*
X0122924Y0145718D01*
X0122874Y0145785D01*
X0122828Y0145854D01*
X0122784Y0145925D01*
X0122745Y0145998D01*
X0122708Y0146073D01*
X0122675Y0146150D01*
X0122646Y0146228D01*
X0122621Y0146307D01*
X0122599Y0146387D01*
X0122582Y0146469D01*
X0122568Y0146551D01*
X0122558Y0146634D01*
X0122552Y0146717D01*
X0122550Y0146800D01*
X0042470Y0150776D02*
X0042472Y0150934D01*
X0042478Y0151092D01*
X0042488Y0151250D01*
X0042502Y0151408D01*
X0042520Y0151565D01*
X0042541Y0151722D01*
X0042567Y0151878D01*
X0042597Y0152034D01*
X0042630Y0152189D01*
X0042668Y0152342D01*
X0042709Y0152495D01*
X0042754Y0152647D01*
X0042803Y0152798D01*
X0042856Y0152947D01*
X0042912Y0153095D01*
X0042972Y0153241D01*
X0043036Y0153386D01*
X0043104Y0153529D01*
X0043175Y0153671D01*
X0043249Y0153811D01*
X0043327Y0153948D01*
X0043409Y0154084D01*
X0043493Y0154218D01*
X0043582Y0154349D01*
X0043673Y0154478D01*
X0043768Y0154605D01*
X0043865Y0154730D01*
X0043966Y0154852D01*
X0044070Y0154971D01*
X0044177Y0155088D01*
X0044287Y0155202D01*
X0044400Y0155313D01*
X0044515Y0155422D01*
X0044633Y0155527D01*
X0044754Y0155629D01*
X0044877Y0155729D01*
X0045003Y0155825D01*
X0045131Y0155918D01*
X0045261Y0156008D01*
X0045394Y0156094D01*
X0045529Y0156178D01*
X0045665Y0156257D01*
X0045804Y0156334D01*
X0045945Y0156406D01*
X0046087Y0156476D01*
X0046231Y0156541D01*
X0046377Y0156603D01*
X0046524Y0156661D01*
X0046673Y0156716D01*
X0046823Y0156767D01*
X0046974Y0156814D01*
X0047126Y0156857D01*
X0047279Y0156896D01*
X0047434Y0156932D01*
X0047589Y0156963D01*
X0047745Y0156991D01*
X0047901Y0157015D01*
X0048058Y0157035D01*
X0048216Y0157051D01*
X0048373Y0157063D01*
X0048532Y0157071D01*
X0048690Y0157075D01*
X0048848Y0157075D01*
X0049006Y0157071D01*
X0049165Y0157063D01*
X0049322Y0157051D01*
X0049480Y0157035D01*
X0049637Y0157015D01*
X0049793Y0156991D01*
X0049949Y0156963D01*
X0050104Y0156932D01*
X0050259Y0156896D01*
X0050412Y0156857D01*
X0050564Y0156814D01*
X0050715Y0156767D01*
X0050865Y0156716D01*
X0051014Y0156661D01*
X0051161Y0156603D01*
X0051307Y0156541D01*
X0051451Y0156476D01*
X0051593Y0156406D01*
X0051734Y0156334D01*
X0051873Y0156257D01*
X0052009Y0156178D01*
X0052144Y0156094D01*
X0052277Y0156008D01*
X0052407Y0155918D01*
X0052535Y0155825D01*
X0052661Y0155729D01*
X0052784Y0155629D01*
X0052905Y0155527D01*
X0053023Y0155422D01*
X0053138Y0155313D01*
X0053251Y0155202D01*
X0053361Y0155088D01*
X0053468Y0154971D01*
X0053572Y0154852D01*
X0053673Y0154730D01*
X0053770Y0154605D01*
X0053865Y0154478D01*
X0053956Y0154349D01*
X0054045Y0154218D01*
X0054129Y0154084D01*
X0054211Y0153948D01*
X0054289Y0153811D01*
X0054363Y0153671D01*
X0054434Y0153529D01*
X0054502Y0153386D01*
X0054566Y0153241D01*
X0054626Y0153095D01*
X0054682Y0152947D01*
X0054735Y0152798D01*
X0054784Y0152647D01*
X0054829Y0152495D01*
X0054870Y0152342D01*
X0054908Y0152189D01*
X0054941Y0152034D01*
X0054971Y0151878D01*
X0054997Y0151722D01*
X0055018Y0151565D01*
X0055036Y0151408D01*
X0055050Y0151250D01*
X0055060Y0151092D01*
X0055066Y0150934D01*
X0055068Y0150776D01*
X0055066Y0150618D01*
X0055060Y0150460D01*
X0055050Y0150302D01*
X0055036Y0150144D01*
X0055018Y0149987D01*
X0054997Y0149830D01*
X0054971Y0149674D01*
X0054941Y0149518D01*
X0054908Y0149363D01*
X0054870Y0149210D01*
X0054829Y0149057D01*
X0054784Y0148905D01*
X0054735Y0148754D01*
X0054682Y0148605D01*
X0054626Y0148457D01*
X0054566Y0148311D01*
X0054502Y0148166D01*
X0054434Y0148023D01*
X0054363Y0147881D01*
X0054289Y0147741D01*
X0054211Y0147604D01*
X0054129Y0147468D01*
X0054045Y0147334D01*
X0053956Y0147203D01*
X0053865Y0147074D01*
X0053770Y0146947D01*
X0053673Y0146822D01*
X0053572Y0146700D01*
X0053468Y0146581D01*
X0053361Y0146464D01*
X0053251Y0146350D01*
X0053138Y0146239D01*
X0053023Y0146130D01*
X0052905Y0146025D01*
X0052784Y0145923D01*
X0052661Y0145823D01*
X0052535Y0145727D01*
X0052407Y0145634D01*
X0052277Y0145544D01*
X0052144Y0145458D01*
X0052009Y0145374D01*
X0051873Y0145295D01*
X0051734Y0145218D01*
X0051593Y0145146D01*
X0051451Y0145076D01*
X0051307Y0145011D01*
X0051161Y0144949D01*
X0051014Y0144891D01*
X0050865Y0144836D01*
X0050715Y0144785D01*
X0050564Y0144738D01*
X0050412Y0144695D01*
X0050259Y0144656D01*
X0050104Y0144620D01*
X0049949Y0144589D01*
X0049793Y0144561D01*
X0049637Y0144537D01*
X0049480Y0144517D01*
X0049322Y0144501D01*
X0049165Y0144489D01*
X0049006Y0144481D01*
X0048848Y0144477D01*
X0048690Y0144477D01*
X0048532Y0144481D01*
X0048373Y0144489D01*
X0048216Y0144501D01*
X0048058Y0144517D01*
X0047901Y0144537D01*
X0047745Y0144561D01*
X0047589Y0144589D01*
X0047434Y0144620D01*
X0047279Y0144656D01*
X0047126Y0144695D01*
X0046974Y0144738D01*
X0046823Y0144785D01*
X0046673Y0144836D01*
X0046524Y0144891D01*
X0046377Y0144949D01*
X0046231Y0145011D01*
X0046087Y0145076D01*
X0045945Y0145146D01*
X0045804Y0145218D01*
X0045665Y0145295D01*
X0045529Y0145374D01*
X0045394Y0145458D01*
X0045261Y0145544D01*
X0045131Y0145634D01*
X0045003Y0145727D01*
X0044877Y0145823D01*
X0044754Y0145923D01*
X0044633Y0146025D01*
X0044515Y0146130D01*
X0044400Y0146239D01*
X0044287Y0146350D01*
X0044177Y0146464D01*
X0044070Y0146581D01*
X0043966Y0146700D01*
X0043865Y0146822D01*
X0043768Y0146947D01*
X0043673Y0147074D01*
X0043582Y0147203D01*
X0043493Y0147334D01*
X0043409Y0147468D01*
X0043327Y0147604D01*
X0043249Y0147741D01*
X0043175Y0147881D01*
X0043104Y0148023D01*
X0043036Y0148166D01*
X0042972Y0148311D01*
X0042912Y0148457D01*
X0042856Y0148605D01*
X0042803Y0148754D01*
X0042754Y0148905D01*
X0042709Y0149057D01*
X0042668Y0149210D01*
X0042630Y0149363D01*
X0042597Y0149518D01*
X0042567Y0149674D01*
X0042541Y0149830D01*
X0042520Y0149987D01*
X0042502Y0150144D01*
X0042488Y0150302D01*
X0042478Y0150460D01*
X0042472Y0150618D01*
X0042470Y0150776D01*
X0042470Y0272824D02*
X0042472Y0272982D01*
X0042478Y0273140D01*
X0042488Y0273298D01*
X0042502Y0273456D01*
X0042520Y0273613D01*
X0042541Y0273770D01*
X0042567Y0273926D01*
X0042597Y0274082D01*
X0042630Y0274237D01*
X0042668Y0274390D01*
X0042709Y0274543D01*
X0042754Y0274695D01*
X0042803Y0274846D01*
X0042856Y0274995D01*
X0042912Y0275143D01*
X0042972Y0275289D01*
X0043036Y0275434D01*
X0043104Y0275577D01*
X0043175Y0275719D01*
X0043249Y0275859D01*
X0043327Y0275996D01*
X0043409Y0276132D01*
X0043493Y0276266D01*
X0043582Y0276397D01*
X0043673Y0276526D01*
X0043768Y0276653D01*
X0043865Y0276778D01*
X0043966Y0276900D01*
X0044070Y0277019D01*
X0044177Y0277136D01*
X0044287Y0277250D01*
X0044400Y0277361D01*
X0044515Y0277470D01*
X0044633Y0277575D01*
X0044754Y0277677D01*
X0044877Y0277777D01*
X0045003Y0277873D01*
X0045131Y0277966D01*
X0045261Y0278056D01*
X0045394Y0278142D01*
X0045529Y0278226D01*
X0045665Y0278305D01*
X0045804Y0278382D01*
X0045945Y0278454D01*
X0046087Y0278524D01*
X0046231Y0278589D01*
X0046377Y0278651D01*
X0046524Y0278709D01*
X0046673Y0278764D01*
X0046823Y0278815D01*
X0046974Y0278862D01*
X0047126Y0278905D01*
X0047279Y0278944D01*
X0047434Y0278980D01*
X0047589Y0279011D01*
X0047745Y0279039D01*
X0047901Y0279063D01*
X0048058Y0279083D01*
X0048216Y0279099D01*
X0048373Y0279111D01*
X0048532Y0279119D01*
X0048690Y0279123D01*
X0048848Y0279123D01*
X0049006Y0279119D01*
X0049165Y0279111D01*
X0049322Y0279099D01*
X0049480Y0279083D01*
X0049637Y0279063D01*
X0049793Y0279039D01*
X0049949Y0279011D01*
X0050104Y0278980D01*
X0050259Y0278944D01*
X0050412Y0278905D01*
X0050564Y0278862D01*
X0050715Y0278815D01*
X0050865Y0278764D01*
X0051014Y0278709D01*
X0051161Y0278651D01*
X0051307Y0278589D01*
X0051451Y0278524D01*
X0051593Y0278454D01*
X0051734Y0278382D01*
X0051873Y0278305D01*
X0052009Y0278226D01*
X0052144Y0278142D01*
X0052277Y0278056D01*
X0052407Y0277966D01*
X0052535Y0277873D01*
X0052661Y0277777D01*
X0052784Y0277677D01*
X0052905Y0277575D01*
X0053023Y0277470D01*
X0053138Y0277361D01*
X0053251Y0277250D01*
X0053361Y0277136D01*
X0053468Y0277019D01*
X0053572Y0276900D01*
X0053673Y0276778D01*
X0053770Y0276653D01*
X0053865Y0276526D01*
X0053956Y0276397D01*
X0054045Y0276266D01*
X0054129Y0276132D01*
X0054211Y0275996D01*
X0054289Y0275859D01*
X0054363Y0275719D01*
X0054434Y0275577D01*
X0054502Y0275434D01*
X0054566Y0275289D01*
X0054626Y0275143D01*
X0054682Y0274995D01*
X0054735Y0274846D01*
X0054784Y0274695D01*
X0054829Y0274543D01*
X0054870Y0274390D01*
X0054908Y0274237D01*
X0054941Y0274082D01*
X0054971Y0273926D01*
X0054997Y0273770D01*
X0055018Y0273613D01*
X0055036Y0273456D01*
X0055050Y0273298D01*
X0055060Y0273140D01*
X0055066Y0272982D01*
X0055068Y0272824D01*
X0055066Y0272666D01*
X0055060Y0272508D01*
X0055050Y0272350D01*
X0055036Y0272192D01*
X0055018Y0272035D01*
X0054997Y0271878D01*
X0054971Y0271722D01*
X0054941Y0271566D01*
X0054908Y0271411D01*
X0054870Y0271258D01*
X0054829Y0271105D01*
X0054784Y0270953D01*
X0054735Y0270802D01*
X0054682Y0270653D01*
X0054626Y0270505D01*
X0054566Y0270359D01*
X0054502Y0270214D01*
X0054434Y0270071D01*
X0054363Y0269929D01*
X0054289Y0269789D01*
X0054211Y0269652D01*
X0054129Y0269516D01*
X0054045Y0269382D01*
X0053956Y0269251D01*
X0053865Y0269122D01*
X0053770Y0268995D01*
X0053673Y0268870D01*
X0053572Y0268748D01*
X0053468Y0268629D01*
X0053361Y0268512D01*
X0053251Y0268398D01*
X0053138Y0268287D01*
X0053023Y0268178D01*
X0052905Y0268073D01*
X0052784Y0267971D01*
X0052661Y0267871D01*
X0052535Y0267775D01*
X0052407Y0267682D01*
X0052277Y0267592D01*
X0052144Y0267506D01*
X0052009Y0267422D01*
X0051873Y0267343D01*
X0051734Y0267266D01*
X0051593Y0267194D01*
X0051451Y0267124D01*
X0051307Y0267059D01*
X0051161Y0266997D01*
X0051014Y0266939D01*
X0050865Y0266884D01*
X0050715Y0266833D01*
X0050564Y0266786D01*
X0050412Y0266743D01*
X0050259Y0266704D01*
X0050104Y0266668D01*
X0049949Y0266637D01*
X0049793Y0266609D01*
X0049637Y0266585D01*
X0049480Y0266565D01*
X0049322Y0266549D01*
X0049165Y0266537D01*
X0049006Y0266529D01*
X0048848Y0266525D01*
X0048690Y0266525D01*
X0048532Y0266529D01*
X0048373Y0266537D01*
X0048216Y0266549D01*
X0048058Y0266565D01*
X0047901Y0266585D01*
X0047745Y0266609D01*
X0047589Y0266637D01*
X0047434Y0266668D01*
X0047279Y0266704D01*
X0047126Y0266743D01*
X0046974Y0266786D01*
X0046823Y0266833D01*
X0046673Y0266884D01*
X0046524Y0266939D01*
X0046377Y0266997D01*
X0046231Y0267059D01*
X0046087Y0267124D01*
X0045945Y0267194D01*
X0045804Y0267266D01*
X0045665Y0267343D01*
X0045529Y0267422D01*
X0045394Y0267506D01*
X0045261Y0267592D01*
X0045131Y0267682D01*
X0045003Y0267775D01*
X0044877Y0267871D01*
X0044754Y0267971D01*
X0044633Y0268073D01*
X0044515Y0268178D01*
X0044400Y0268287D01*
X0044287Y0268398D01*
X0044177Y0268512D01*
X0044070Y0268629D01*
X0043966Y0268748D01*
X0043865Y0268870D01*
X0043768Y0268995D01*
X0043673Y0269122D01*
X0043582Y0269251D01*
X0043493Y0269382D01*
X0043409Y0269516D01*
X0043327Y0269652D01*
X0043249Y0269789D01*
X0043175Y0269929D01*
X0043104Y0270071D01*
X0043036Y0270214D01*
X0042972Y0270359D01*
X0042912Y0270505D01*
X0042856Y0270653D01*
X0042803Y0270802D01*
X0042754Y0270953D01*
X0042709Y0271105D01*
X0042668Y0271258D01*
X0042630Y0271411D01*
X0042597Y0271566D01*
X0042567Y0271722D01*
X0042541Y0271878D01*
X0042520Y0272035D01*
X0042502Y0272192D01*
X0042488Y0272350D01*
X0042478Y0272508D01*
X0042472Y0272666D01*
X0042470Y0272824D01*
X0010501Y0276800D02*
X0010503Y0276958D01*
X0010509Y0277116D01*
X0010519Y0277274D01*
X0010533Y0277432D01*
X0010551Y0277589D01*
X0010572Y0277746D01*
X0010598Y0277902D01*
X0010628Y0278058D01*
X0010661Y0278213D01*
X0010699Y0278366D01*
X0010740Y0278519D01*
X0010785Y0278671D01*
X0010834Y0278822D01*
X0010887Y0278971D01*
X0010943Y0279119D01*
X0011003Y0279265D01*
X0011067Y0279410D01*
X0011135Y0279553D01*
X0011206Y0279695D01*
X0011280Y0279835D01*
X0011358Y0279972D01*
X0011440Y0280108D01*
X0011524Y0280242D01*
X0011613Y0280373D01*
X0011704Y0280502D01*
X0011799Y0280629D01*
X0011896Y0280754D01*
X0011997Y0280876D01*
X0012101Y0280995D01*
X0012208Y0281112D01*
X0012318Y0281226D01*
X0012431Y0281337D01*
X0012546Y0281446D01*
X0012664Y0281551D01*
X0012785Y0281653D01*
X0012908Y0281753D01*
X0013034Y0281849D01*
X0013162Y0281942D01*
X0013292Y0282032D01*
X0013425Y0282118D01*
X0013560Y0282202D01*
X0013696Y0282281D01*
X0013835Y0282358D01*
X0013976Y0282430D01*
X0014118Y0282500D01*
X0014262Y0282565D01*
X0014408Y0282627D01*
X0014555Y0282685D01*
X0014704Y0282740D01*
X0014854Y0282791D01*
X0015005Y0282838D01*
X0015157Y0282881D01*
X0015310Y0282920D01*
X0015465Y0282956D01*
X0015620Y0282987D01*
X0015776Y0283015D01*
X0015932Y0283039D01*
X0016089Y0283059D01*
X0016247Y0283075D01*
X0016404Y0283087D01*
X0016563Y0283095D01*
X0016721Y0283099D01*
X0016879Y0283099D01*
X0017037Y0283095D01*
X0017196Y0283087D01*
X0017353Y0283075D01*
X0017511Y0283059D01*
X0017668Y0283039D01*
X0017824Y0283015D01*
X0017980Y0282987D01*
X0018135Y0282956D01*
X0018290Y0282920D01*
X0018443Y0282881D01*
X0018595Y0282838D01*
X0018746Y0282791D01*
X0018896Y0282740D01*
X0019045Y0282685D01*
X0019192Y0282627D01*
X0019338Y0282565D01*
X0019482Y0282500D01*
X0019624Y0282430D01*
X0019765Y0282358D01*
X0019904Y0282281D01*
X0020040Y0282202D01*
X0020175Y0282118D01*
X0020308Y0282032D01*
X0020438Y0281942D01*
X0020566Y0281849D01*
X0020692Y0281753D01*
X0020815Y0281653D01*
X0020936Y0281551D01*
X0021054Y0281446D01*
X0021169Y0281337D01*
X0021282Y0281226D01*
X0021392Y0281112D01*
X0021499Y0280995D01*
X0021603Y0280876D01*
X0021704Y0280754D01*
X0021801Y0280629D01*
X0021896Y0280502D01*
X0021987Y0280373D01*
X0022076Y0280242D01*
X0022160Y0280108D01*
X0022242Y0279972D01*
X0022320Y0279835D01*
X0022394Y0279695D01*
X0022465Y0279553D01*
X0022533Y0279410D01*
X0022597Y0279265D01*
X0022657Y0279119D01*
X0022713Y0278971D01*
X0022766Y0278822D01*
X0022815Y0278671D01*
X0022860Y0278519D01*
X0022901Y0278366D01*
X0022939Y0278213D01*
X0022972Y0278058D01*
X0023002Y0277902D01*
X0023028Y0277746D01*
X0023049Y0277589D01*
X0023067Y0277432D01*
X0023081Y0277274D01*
X0023091Y0277116D01*
X0023097Y0276958D01*
X0023099Y0276800D01*
X0023097Y0276642D01*
X0023091Y0276484D01*
X0023081Y0276326D01*
X0023067Y0276168D01*
X0023049Y0276011D01*
X0023028Y0275854D01*
X0023002Y0275698D01*
X0022972Y0275542D01*
X0022939Y0275387D01*
X0022901Y0275234D01*
X0022860Y0275081D01*
X0022815Y0274929D01*
X0022766Y0274778D01*
X0022713Y0274629D01*
X0022657Y0274481D01*
X0022597Y0274335D01*
X0022533Y0274190D01*
X0022465Y0274047D01*
X0022394Y0273905D01*
X0022320Y0273765D01*
X0022242Y0273628D01*
X0022160Y0273492D01*
X0022076Y0273358D01*
X0021987Y0273227D01*
X0021896Y0273098D01*
X0021801Y0272971D01*
X0021704Y0272846D01*
X0021603Y0272724D01*
X0021499Y0272605D01*
X0021392Y0272488D01*
X0021282Y0272374D01*
X0021169Y0272263D01*
X0021054Y0272154D01*
X0020936Y0272049D01*
X0020815Y0271947D01*
X0020692Y0271847D01*
X0020566Y0271751D01*
X0020438Y0271658D01*
X0020308Y0271568D01*
X0020175Y0271482D01*
X0020040Y0271398D01*
X0019904Y0271319D01*
X0019765Y0271242D01*
X0019624Y0271170D01*
X0019482Y0271100D01*
X0019338Y0271035D01*
X0019192Y0270973D01*
X0019045Y0270915D01*
X0018896Y0270860D01*
X0018746Y0270809D01*
X0018595Y0270762D01*
X0018443Y0270719D01*
X0018290Y0270680D01*
X0018135Y0270644D01*
X0017980Y0270613D01*
X0017824Y0270585D01*
X0017668Y0270561D01*
X0017511Y0270541D01*
X0017353Y0270525D01*
X0017196Y0270513D01*
X0017037Y0270505D01*
X0016879Y0270501D01*
X0016721Y0270501D01*
X0016563Y0270505D01*
X0016404Y0270513D01*
X0016247Y0270525D01*
X0016089Y0270541D01*
X0015932Y0270561D01*
X0015776Y0270585D01*
X0015620Y0270613D01*
X0015465Y0270644D01*
X0015310Y0270680D01*
X0015157Y0270719D01*
X0015005Y0270762D01*
X0014854Y0270809D01*
X0014704Y0270860D01*
X0014555Y0270915D01*
X0014408Y0270973D01*
X0014262Y0271035D01*
X0014118Y0271100D01*
X0013976Y0271170D01*
X0013835Y0271242D01*
X0013696Y0271319D01*
X0013560Y0271398D01*
X0013425Y0271482D01*
X0013292Y0271568D01*
X0013162Y0271658D01*
X0013034Y0271751D01*
X0012908Y0271847D01*
X0012785Y0271947D01*
X0012664Y0272049D01*
X0012546Y0272154D01*
X0012431Y0272263D01*
X0012318Y0272374D01*
X0012208Y0272488D01*
X0012101Y0272605D01*
X0011997Y0272724D01*
X0011896Y0272846D01*
X0011799Y0272971D01*
X0011704Y0273098D01*
X0011613Y0273227D01*
X0011524Y0273358D01*
X0011440Y0273492D01*
X0011358Y0273628D01*
X0011280Y0273765D01*
X0011206Y0273905D01*
X0011135Y0274047D01*
X0011067Y0274190D01*
X0011003Y0274335D01*
X0010943Y0274481D01*
X0010887Y0274629D01*
X0010834Y0274778D01*
X0010785Y0274929D01*
X0010740Y0275081D01*
X0010699Y0275234D01*
X0010661Y0275387D01*
X0010628Y0275542D01*
X0010598Y0275698D01*
X0010572Y0275854D01*
X0010551Y0276011D01*
X0010533Y0276168D01*
X0010519Y0276326D01*
X0010509Y0276484D01*
X0010503Y0276642D01*
X0010501Y0276800D01*
X0338532Y0272824D02*
X0338534Y0272982D01*
X0338540Y0273140D01*
X0338550Y0273298D01*
X0338564Y0273456D01*
X0338582Y0273613D01*
X0338603Y0273770D01*
X0338629Y0273926D01*
X0338659Y0274082D01*
X0338692Y0274237D01*
X0338730Y0274390D01*
X0338771Y0274543D01*
X0338816Y0274695D01*
X0338865Y0274846D01*
X0338918Y0274995D01*
X0338974Y0275143D01*
X0339034Y0275289D01*
X0339098Y0275434D01*
X0339166Y0275577D01*
X0339237Y0275719D01*
X0339311Y0275859D01*
X0339389Y0275996D01*
X0339471Y0276132D01*
X0339555Y0276266D01*
X0339644Y0276397D01*
X0339735Y0276526D01*
X0339830Y0276653D01*
X0339927Y0276778D01*
X0340028Y0276900D01*
X0340132Y0277019D01*
X0340239Y0277136D01*
X0340349Y0277250D01*
X0340462Y0277361D01*
X0340577Y0277470D01*
X0340695Y0277575D01*
X0340816Y0277677D01*
X0340939Y0277777D01*
X0341065Y0277873D01*
X0341193Y0277966D01*
X0341323Y0278056D01*
X0341456Y0278142D01*
X0341591Y0278226D01*
X0341727Y0278305D01*
X0341866Y0278382D01*
X0342007Y0278454D01*
X0342149Y0278524D01*
X0342293Y0278589D01*
X0342439Y0278651D01*
X0342586Y0278709D01*
X0342735Y0278764D01*
X0342885Y0278815D01*
X0343036Y0278862D01*
X0343188Y0278905D01*
X0343341Y0278944D01*
X0343496Y0278980D01*
X0343651Y0279011D01*
X0343807Y0279039D01*
X0343963Y0279063D01*
X0344120Y0279083D01*
X0344278Y0279099D01*
X0344435Y0279111D01*
X0344594Y0279119D01*
X0344752Y0279123D01*
X0344910Y0279123D01*
X0345068Y0279119D01*
X0345227Y0279111D01*
X0345384Y0279099D01*
X0345542Y0279083D01*
X0345699Y0279063D01*
X0345855Y0279039D01*
X0346011Y0279011D01*
X0346166Y0278980D01*
X0346321Y0278944D01*
X0346474Y0278905D01*
X0346626Y0278862D01*
X0346777Y0278815D01*
X0346927Y0278764D01*
X0347076Y0278709D01*
X0347223Y0278651D01*
X0347369Y0278589D01*
X0347513Y0278524D01*
X0347655Y0278454D01*
X0347796Y0278382D01*
X0347935Y0278305D01*
X0348071Y0278226D01*
X0348206Y0278142D01*
X0348339Y0278056D01*
X0348469Y0277966D01*
X0348597Y0277873D01*
X0348723Y0277777D01*
X0348846Y0277677D01*
X0348967Y0277575D01*
X0349085Y0277470D01*
X0349200Y0277361D01*
X0349313Y0277250D01*
X0349423Y0277136D01*
X0349530Y0277019D01*
X0349634Y0276900D01*
X0349735Y0276778D01*
X0349832Y0276653D01*
X0349927Y0276526D01*
X0350018Y0276397D01*
X0350107Y0276266D01*
X0350191Y0276132D01*
X0350273Y0275996D01*
X0350351Y0275859D01*
X0350425Y0275719D01*
X0350496Y0275577D01*
X0350564Y0275434D01*
X0350628Y0275289D01*
X0350688Y0275143D01*
X0350744Y0274995D01*
X0350797Y0274846D01*
X0350846Y0274695D01*
X0350891Y0274543D01*
X0350932Y0274390D01*
X0350970Y0274237D01*
X0351003Y0274082D01*
X0351033Y0273926D01*
X0351059Y0273770D01*
X0351080Y0273613D01*
X0351098Y0273456D01*
X0351112Y0273298D01*
X0351122Y0273140D01*
X0351128Y0272982D01*
X0351130Y0272824D01*
X0351128Y0272666D01*
X0351122Y0272508D01*
X0351112Y0272350D01*
X0351098Y0272192D01*
X0351080Y0272035D01*
X0351059Y0271878D01*
X0351033Y0271722D01*
X0351003Y0271566D01*
X0350970Y0271411D01*
X0350932Y0271258D01*
X0350891Y0271105D01*
X0350846Y0270953D01*
X0350797Y0270802D01*
X0350744Y0270653D01*
X0350688Y0270505D01*
X0350628Y0270359D01*
X0350564Y0270214D01*
X0350496Y0270071D01*
X0350425Y0269929D01*
X0350351Y0269789D01*
X0350273Y0269652D01*
X0350191Y0269516D01*
X0350107Y0269382D01*
X0350018Y0269251D01*
X0349927Y0269122D01*
X0349832Y0268995D01*
X0349735Y0268870D01*
X0349634Y0268748D01*
X0349530Y0268629D01*
X0349423Y0268512D01*
X0349313Y0268398D01*
X0349200Y0268287D01*
X0349085Y0268178D01*
X0348967Y0268073D01*
X0348846Y0267971D01*
X0348723Y0267871D01*
X0348597Y0267775D01*
X0348469Y0267682D01*
X0348339Y0267592D01*
X0348206Y0267506D01*
X0348071Y0267422D01*
X0347935Y0267343D01*
X0347796Y0267266D01*
X0347655Y0267194D01*
X0347513Y0267124D01*
X0347369Y0267059D01*
X0347223Y0266997D01*
X0347076Y0266939D01*
X0346927Y0266884D01*
X0346777Y0266833D01*
X0346626Y0266786D01*
X0346474Y0266743D01*
X0346321Y0266704D01*
X0346166Y0266668D01*
X0346011Y0266637D01*
X0345855Y0266609D01*
X0345699Y0266585D01*
X0345542Y0266565D01*
X0345384Y0266549D01*
X0345227Y0266537D01*
X0345068Y0266529D01*
X0344910Y0266525D01*
X0344752Y0266525D01*
X0344594Y0266529D01*
X0344435Y0266537D01*
X0344278Y0266549D01*
X0344120Y0266565D01*
X0343963Y0266585D01*
X0343807Y0266609D01*
X0343651Y0266637D01*
X0343496Y0266668D01*
X0343341Y0266704D01*
X0343188Y0266743D01*
X0343036Y0266786D01*
X0342885Y0266833D01*
X0342735Y0266884D01*
X0342586Y0266939D01*
X0342439Y0266997D01*
X0342293Y0267059D01*
X0342149Y0267124D01*
X0342007Y0267194D01*
X0341866Y0267266D01*
X0341727Y0267343D01*
X0341591Y0267422D01*
X0341456Y0267506D01*
X0341323Y0267592D01*
X0341193Y0267682D01*
X0341065Y0267775D01*
X0340939Y0267871D01*
X0340816Y0267971D01*
X0340695Y0268073D01*
X0340577Y0268178D01*
X0340462Y0268287D01*
X0340349Y0268398D01*
X0340239Y0268512D01*
X0340132Y0268629D01*
X0340028Y0268748D01*
X0339927Y0268870D01*
X0339830Y0268995D01*
X0339735Y0269122D01*
X0339644Y0269251D01*
X0339555Y0269382D01*
X0339471Y0269516D01*
X0339389Y0269652D01*
X0339311Y0269789D01*
X0339237Y0269929D01*
X0339166Y0270071D01*
X0339098Y0270214D01*
X0339034Y0270359D01*
X0338974Y0270505D01*
X0338918Y0270653D01*
X0338865Y0270802D01*
X0338816Y0270953D01*
X0338771Y0271105D01*
X0338730Y0271258D01*
X0338692Y0271411D01*
X0338659Y0271566D01*
X0338629Y0271722D01*
X0338603Y0271878D01*
X0338582Y0272035D01*
X0338564Y0272192D01*
X0338550Y0272350D01*
X0338540Y0272508D01*
X0338534Y0272666D01*
X0338532Y0272824D01*
X0370501Y0276800D02*
X0370503Y0276958D01*
X0370509Y0277116D01*
X0370519Y0277274D01*
X0370533Y0277432D01*
X0370551Y0277589D01*
X0370572Y0277746D01*
X0370598Y0277902D01*
X0370628Y0278058D01*
X0370661Y0278213D01*
X0370699Y0278366D01*
X0370740Y0278519D01*
X0370785Y0278671D01*
X0370834Y0278822D01*
X0370887Y0278971D01*
X0370943Y0279119D01*
X0371003Y0279265D01*
X0371067Y0279410D01*
X0371135Y0279553D01*
X0371206Y0279695D01*
X0371280Y0279835D01*
X0371358Y0279972D01*
X0371440Y0280108D01*
X0371524Y0280242D01*
X0371613Y0280373D01*
X0371704Y0280502D01*
X0371799Y0280629D01*
X0371896Y0280754D01*
X0371997Y0280876D01*
X0372101Y0280995D01*
X0372208Y0281112D01*
X0372318Y0281226D01*
X0372431Y0281337D01*
X0372546Y0281446D01*
X0372664Y0281551D01*
X0372785Y0281653D01*
X0372908Y0281753D01*
X0373034Y0281849D01*
X0373162Y0281942D01*
X0373292Y0282032D01*
X0373425Y0282118D01*
X0373560Y0282202D01*
X0373696Y0282281D01*
X0373835Y0282358D01*
X0373976Y0282430D01*
X0374118Y0282500D01*
X0374262Y0282565D01*
X0374408Y0282627D01*
X0374555Y0282685D01*
X0374704Y0282740D01*
X0374854Y0282791D01*
X0375005Y0282838D01*
X0375157Y0282881D01*
X0375310Y0282920D01*
X0375465Y0282956D01*
X0375620Y0282987D01*
X0375776Y0283015D01*
X0375932Y0283039D01*
X0376089Y0283059D01*
X0376247Y0283075D01*
X0376404Y0283087D01*
X0376563Y0283095D01*
X0376721Y0283099D01*
X0376879Y0283099D01*
X0377037Y0283095D01*
X0377196Y0283087D01*
X0377353Y0283075D01*
X0377511Y0283059D01*
X0377668Y0283039D01*
X0377824Y0283015D01*
X0377980Y0282987D01*
X0378135Y0282956D01*
X0378290Y0282920D01*
X0378443Y0282881D01*
X0378595Y0282838D01*
X0378746Y0282791D01*
X0378896Y0282740D01*
X0379045Y0282685D01*
X0379192Y0282627D01*
X0379338Y0282565D01*
X0379482Y0282500D01*
X0379624Y0282430D01*
X0379765Y0282358D01*
X0379904Y0282281D01*
X0380040Y0282202D01*
X0380175Y0282118D01*
X0380308Y0282032D01*
X0380438Y0281942D01*
X0380566Y0281849D01*
X0380692Y0281753D01*
X0380815Y0281653D01*
X0380936Y0281551D01*
X0381054Y0281446D01*
X0381169Y0281337D01*
X0381282Y0281226D01*
X0381392Y0281112D01*
X0381499Y0280995D01*
X0381603Y0280876D01*
X0381704Y0280754D01*
X0381801Y0280629D01*
X0381896Y0280502D01*
X0381987Y0280373D01*
X0382076Y0280242D01*
X0382160Y0280108D01*
X0382242Y0279972D01*
X0382320Y0279835D01*
X0382394Y0279695D01*
X0382465Y0279553D01*
X0382533Y0279410D01*
X0382597Y0279265D01*
X0382657Y0279119D01*
X0382713Y0278971D01*
X0382766Y0278822D01*
X0382815Y0278671D01*
X0382860Y0278519D01*
X0382901Y0278366D01*
X0382939Y0278213D01*
X0382972Y0278058D01*
X0383002Y0277902D01*
X0383028Y0277746D01*
X0383049Y0277589D01*
X0383067Y0277432D01*
X0383081Y0277274D01*
X0383091Y0277116D01*
X0383097Y0276958D01*
X0383099Y0276800D01*
X0383097Y0276642D01*
X0383091Y0276484D01*
X0383081Y0276326D01*
X0383067Y0276168D01*
X0383049Y0276011D01*
X0383028Y0275854D01*
X0383002Y0275698D01*
X0382972Y0275542D01*
X0382939Y0275387D01*
X0382901Y0275234D01*
X0382860Y0275081D01*
X0382815Y0274929D01*
X0382766Y0274778D01*
X0382713Y0274629D01*
X0382657Y0274481D01*
X0382597Y0274335D01*
X0382533Y0274190D01*
X0382465Y0274047D01*
X0382394Y0273905D01*
X0382320Y0273765D01*
X0382242Y0273628D01*
X0382160Y0273492D01*
X0382076Y0273358D01*
X0381987Y0273227D01*
X0381896Y0273098D01*
X0381801Y0272971D01*
X0381704Y0272846D01*
X0381603Y0272724D01*
X0381499Y0272605D01*
X0381392Y0272488D01*
X0381282Y0272374D01*
X0381169Y0272263D01*
X0381054Y0272154D01*
X0380936Y0272049D01*
X0380815Y0271947D01*
X0380692Y0271847D01*
X0380566Y0271751D01*
X0380438Y0271658D01*
X0380308Y0271568D01*
X0380175Y0271482D01*
X0380040Y0271398D01*
X0379904Y0271319D01*
X0379765Y0271242D01*
X0379624Y0271170D01*
X0379482Y0271100D01*
X0379338Y0271035D01*
X0379192Y0270973D01*
X0379045Y0270915D01*
X0378896Y0270860D01*
X0378746Y0270809D01*
X0378595Y0270762D01*
X0378443Y0270719D01*
X0378290Y0270680D01*
X0378135Y0270644D01*
X0377980Y0270613D01*
X0377824Y0270585D01*
X0377668Y0270561D01*
X0377511Y0270541D01*
X0377353Y0270525D01*
X0377196Y0270513D01*
X0377037Y0270505D01*
X0376879Y0270501D01*
X0376721Y0270501D01*
X0376563Y0270505D01*
X0376404Y0270513D01*
X0376247Y0270525D01*
X0376089Y0270541D01*
X0375932Y0270561D01*
X0375776Y0270585D01*
X0375620Y0270613D01*
X0375465Y0270644D01*
X0375310Y0270680D01*
X0375157Y0270719D01*
X0375005Y0270762D01*
X0374854Y0270809D01*
X0374704Y0270860D01*
X0374555Y0270915D01*
X0374408Y0270973D01*
X0374262Y0271035D01*
X0374118Y0271100D01*
X0373976Y0271170D01*
X0373835Y0271242D01*
X0373696Y0271319D01*
X0373560Y0271398D01*
X0373425Y0271482D01*
X0373292Y0271568D01*
X0373162Y0271658D01*
X0373034Y0271751D01*
X0372908Y0271847D01*
X0372785Y0271947D01*
X0372664Y0272049D01*
X0372546Y0272154D01*
X0372431Y0272263D01*
X0372318Y0272374D01*
X0372208Y0272488D01*
X0372101Y0272605D01*
X0371997Y0272724D01*
X0371896Y0272846D01*
X0371799Y0272971D01*
X0371704Y0273098D01*
X0371613Y0273227D01*
X0371524Y0273358D01*
X0371440Y0273492D01*
X0371358Y0273628D01*
X0371280Y0273765D01*
X0371206Y0273905D01*
X0371135Y0274047D01*
X0371067Y0274190D01*
X0371003Y0274335D01*
X0370943Y0274481D01*
X0370887Y0274629D01*
X0370834Y0274778D01*
X0370785Y0274929D01*
X0370740Y0275081D01*
X0370699Y0275234D01*
X0370661Y0275387D01*
X0370628Y0275542D01*
X0370598Y0275698D01*
X0370572Y0275854D01*
X0370551Y0276011D01*
X0370533Y0276168D01*
X0370519Y0276326D01*
X0370509Y0276484D01*
X0370503Y0276642D01*
X0370501Y0276800D01*
X0370028Y0180461D02*
X0370030Y0180545D01*
X0370036Y0180628D01*
X0370046Y0180711D01*
X0370060Y0180794D01*
X0370077Y0180876D01*
X0370099Y0180957D01*
X0370124Y0181036D01*
X0370153Y0181115D01*
X0370186Y0181192D01*
X0370222Y0181267D01*
X0370262Y0181341D01*
X0370305Y0181413D01*
X0370352Y0181482D01*
X0370402Y0181549D01*
X0370455Y0181614D01*
X0370511Y0181676D01*
X0370569Y0181736D01*
X0370631Y0181793D01*
X0370695Y0181846D01*
X0370762Y0181897D01*
X0370831Y0181944D01*
X0370902Y0181989D01*
X0370975Y0182029D01*
X0371050Y0182066D01*
X0371127Y0182100D01*
X0371205Y0182130D01*
X0371284Y0182156D01*
X0371365Y0182179D01*
X0371447Y0182197D01*
X0371529Y0182212D01*
X0371612Y0182223D01*
X0371695Y0182230D01*
X0371779Y0182233D01*
X0371863Y0182232D01*
X0371946Y0182227D01*
X0372030Y0182218D01*
X0372112Y0182205D01*
X0372194Y0182189D01*
X0372275Y0182168D01*
X0372356Y0182144D01*
X0372434Y0182116D01*
X0372512Y0182084D01*
X0372588Y0182048D01*
X0372662Y0182009D01*
X0372734Y0181967D01*
X0372804Y0181921D01*
X0372872Y0181872D01*
X0372937Y0181820D01*
X0373000Y0181765D01*
X0373060Y0181707D01*
X0373118Y0181646D01*
X0373172Y0181582D01*
X0373224Y0181516D01*
X0373272Y0181448D01*
X0373317Y0181377D01*
X0373358Y0181304D01*
X0373397Y0181230D01*
X0373431Y0181154D01*
X0373462Y0181076D01*
X0373489Y0180997D01*
X0373513Y0180916D01*
X0373532Y0180835D01*
X0373548Y0180753D01*
X0373560Y0180670D01*
X0373568Y0180586D01*
X0373572Y0180503D01*
X0373572Y0180419D01*
X0373568Y0180336D01*
X0373560Y0180252D01*
X0373548Y0180169D01*
X0373532Y0180087D01*
X0373513Y0180006D01*
X0373489Y0179925D01*
X0373462Y0179846D01*
X0373431Y0179768D01*
X0373397Y0179692D01*
X0373358Y0179618D01*
X0373317Y0179545D01*
X0373272Y0179474D01*
X0373224Y0179406D01*
X0373172Y0179340D01*
X0373118Y0179276D01*
X0373060Y0179215D01*
X0373000Y0179157D01*
X0372937Y0179102D01*
X0372872Y0179050D01*
X0372804Y0179001D01*
X0372734Y0178955D01*
X0372662Y0178913D01*
X0372588Y0178874D01*
X0372512Y0178838D01*
X0372434Y0178806D01*
X0372356Y0178778D01*
X0372275Y0178754D01*
X0372194Y0178733D01*
X0372112Y0178717D01*
X0372030Y0178704D01*
X0371946Y0178695D01*
X0371863Y0178690D01*
X0371779Y0178689D01*
X0371695Y0178692D01*
X0371612Y0178699D01*
X0371529Y0178710D01*
X0371447Y0178725D01*
X0371365Y0178743D01*
X0371284Y0178766D01*
X0371205Y0178792D01*
X0371127Y0178822D01*
X0371050Y0178856D01*
X0370975Y0178893D01*
X0370902Y0178933D01*
X0370831Y0178978D01*
X0370762Y0179025D01*
X0370695Y0179076D01*
X0370631Y0179129D01*
X0370569Y0179186D01*
X0370511Y0179246D01*
X0370455Y0179308D01*
X0370402Y0179373D01*
X0370352Y0179440D01*
X0370305Y0179509D01*
X0370262Y0179581D01*
X0370222Y0179655D01*
X0370186Y0179730D01*
X0370153Y0179807D01*
X0370124Y0179886D01*
X0370099Y0179965D01*
X0370077Y0180046D01*
X0370060Y0180128D01*
X0370046Y0180211D01*
X0370036Y0180294D01*
X0370030Y0180377D01*
X0370028Y0180461D01*
X0370028Y0163139D02*
X0370030Y0163223D01*
X0370036Y0163306D01*
X0370046Y0163389D01*
X0370060Y0163472D01*
X0370077Y0163554D01*
X0370099Y0163635D01*
X0370124Y0163714D01*
X0370153Y0163793D01*
X0370186Y0163870D01*
X0370222Y0163945D01*
X0370262Y0164019D01*
X0370305Y0164091D01*
X0370352Y0164160D01*
X0370402Y0164227D01*
X0370455Y0164292D01*
X0370511Y0164354D01*
X0370569Y0164414D01*
X0370631Y0164471D01*
X0370695Y0164524D01*
X0370762Y0164575D01*
X0370831Y0164622D01*
X0370902Y0164667D01*
X0370975Y0164707D01*
X0371050Y0164744D01*
X0371127Y0164778D01*
X0371205Y0164808D01*
X0371284Y0164834D01*
X0371365Y0164857D01*
X0371447Y0164875D01*
X0371529Y0164890D01*
X0371612Y0164901D01*
X0371695Y0164908D01*
X0371779Y0164911D01*
X0371863Y0164910D01*
X0371946Y0164905D01*
X0372030Y0164896D01*
X0372112Y0164883D01*
X0372194Y0164867D01*
X0372275Y0164846D01*
X0372356Y0164822D01*
X0372434Y0164794D01*
X0372512Y0164762D01*
X0372588Y0164726D01*
X0372662Y0164687D01*
X0372734Y0164645D01*
X0372804Y0164599D01*
X0372872Y0164550D01*
X0372937Y0164498D01*
X0373000Y0164443D01*
X0373060Y0164385D01*
X0373118Y0164324D01*
X0373172Y0164260D01*
X0373224Y0164194D01*
X0373272Y0164126D01*
X0373317Y0164055D01*
X0373358Y0163982D01*
X0373397Y0163908D01*
X0373431Y0163832D01*
X0373462Y0163754D01*
X0373489Y0163675D01*
X0373513Y0163594D01*
X0373532Y0163513D01*
X0373548Y0163431D01*
X0373560Y0163348D01*
X0373568Y0163264D01*
X0373572Y0163181D01*
X0373572Y0163097D01*
X0373568Y0163014D01*
X0373560Y0162930D01*
X0373548Y0162847D01*
X0373532Y0162765D01*
X0373513Y0162684D01*
X0373489Y0162603D01*
X0373462Y0162524D01*
X0373431Y0162446D01*
X0373397Y0162370D01*
X0373358Y0162296D01*
X0373317Y0162223D01*
X0373272Y0162152D01*
X0373224Y0162084D01*
X0373172Y0162018D01*
X0373118Y0161954D01*
X0373060Y0161893D01*
X0373000Y0161835D01*
X0372937Y0161780D01*
X0372872Y0161728D01*
X0372804Y0161679D01*
X0372734Y0161633D01*
X0372662Y0161591D01*
X0372588Y0161552D01*
X0372512Y0161516D01*
X0372434Y0161484D01*
X0372356Y0161456D01*
X0372275Y0161432D01*
X0372194Y0161411D01*
X0372112Y0161395D01*
X0372030Y0161382D01*
X0371946Y0161373D01*
X0371863Y0161368D01*
X0371779Y0161367D01*
X0371695Y0161370D01*
X0371612Y0161377D01*
X0371529Y0161388D01*
X0371447Y0161403D01*
X0371365Y0161421D01*
X0371284Y0161444D01*
X0371205Y0161470D01*
X0371127Y0161500D01*
X0371050Y0161534D01*
X0370975Y0161571D01*
X0370902Y0161611D01*
X0370831Y0161656D01*
X0370762Y0161703D01*
X0370695Y0161754D01*
X0370631Y0161807D01*
X0370569Y0161864D01*
X0370511Y0161924D01*
X0370455Y0161986D01*
X0370402Y0162051D01*
X0370352Y0162118D01*
X0370305Y0162187D01*
X0370262Y0162259D01*
X0370222Y0162333D01*
X0370186Y0162408D01*
X0370153Y0162485D01*
X0370124Y0162564D01*
X0370099Y0162643D01*
X0370077Y0162724D01*
X0370060Y0162806D01*
X0370046Y0162889D01*
X0370036Y0162972D01*
X0370030Y0163055D01*
X0370028Y0163139D01*
X0338532Y0150776D02*
X0338534Y0150934D01*
X0338540Y0151092D01*
X0338550Y0151250D01*
X0338564Y0151408D01*
X0338582Y0151565D01*
X0338603Y0151722D01*
X0338629Y0151878D01*
X0338659Y0152034D01*
X0338692Y0152189D01*
X0338730Y0152342D01*
X0338771Y0152495D01*
X0338816Y0152647D01*
X0338865Y0152798D01*
X0338918Y0152947D01*
X0338974Y0153095D01*
X0339034Y0153241D01*
X0339098Y0153386D01*
X0339166Y0153529D01*
X0339237Y0153671D01*
X0339311Y0153811D01*
X0339389Y0153948D01*
X0339471Y0154084D01*
X0339555Y0154218D01*
X0339644Y0154349D01*
X0339735Y0154478D01*
X0339830Y0154605D01*
X0339927Y0154730D01*
X0340028Y0154852D01*
X0340132Y0154971D01*
X0340239Y0155088D01*
X0340349Y0155202D01*
X0340462Y0155313D01*
X0340577Y0155422D01*
X0340695Y0155527D01*
X0340816Y0155629D01*
X0340939Y0155729D01*
X0341065Y0155825D01*
X0341193Y0155918D01*
X0341323Y0156008D01*
X0341456Y0156094D01*
X0341591Y0156178D01*
X0341727Y0156257D01*
X0341866Y0156334D01*
X0342007Y0156406D01*
X0342149Y0156476D01*
X0342293Y0156541D01*
X0342439Y0156603D01*
X0342586Y0156661D01*
X0342735Y0156716D01*
X0342885Y0156767D01*
X0343036Y0156814D01*
X0343188Y0156857D01*
X0343341Y0156896D01*
X0343496Y0156932D01*
X0343651Y0156963D01*
X0343807Y0156991D01*
X0343963Y0157015D01*
X0344120Y0157035D01*
X0344278Y0157051D01*
X0344435Y0157063D01*
X0344594Y0157071D01*
X0344752Y0157075D01*
X0344910Y0157075D01*
X0345068Y0157071D01*
X0345227Y0157063D01*
X0345384Y0157051D01*
X0345542Y0157035D01*
X0345699Y0157015D01*
X0345855Y0156991D01*
X0346011Y0156963D01*
X0346166Y0156932D01*
X0346321Y0156896D01*
X0346474Y0156857D01*
X0346626Y0156814D01*
X0346777Y0156767D01*
X0346927Y0156716D01*
X0347076Y0156661D01*
X0347223Y0156603D01*
X0347369Y0156541D01*
X0347513Y0156476D01*
X0347655Y0156406D01*
X0347796Y0156334D01*
X0347935Y0156257D01*
X0348071Y0156178D01*
X0348206Y0156094D01*
X0348339Y0156008D01*
X0348469Y0155918D01*
X0348597Y0155825D01*
X0348723Y0155729D01*
X0348846Y0155629D01*
X0348967Y0155527D01*
X0349085Y0155422D01*
X0349200Y0155313D01*
X0349313Y0155202D01*
X0349423Y0155088D01*
X0349530Y0154971D01*
X0349634Y0154852D01*
X0349735Y0154730D01*
X0349832Y0154605D01*
X0349927Y0154478D01*
X0350018Y0154349D01*
X0350107Y0154218D01*
X0350191Y0154084D01*
X0350273Y0153948D01*
X0350351Y0153811D01*
X0350425Y0153671D01*
X0350496Y0153529D01*
X0350564Y0153386D01*
X0350628Y0153241D01*
X0350688Y0153095D01*
X0350744Y0152947D01*
X0350797Y0152798D01*
X0350846Y0152647D01*
X0350891Y0152495D01*
X0350932Y0152342D01*
X0350970Y0152189D01*
X0351003Y0152034D01*
X0351033Y0151878D01*
X0351059Y0151722D01*
X0351080Y0151565D01*
X0351098Y0151408D01*
X0351112Y0151250D01*
X0351122Y0151092D01*
X0351128Y0150934D01*
X0351130Y0150776D01*
X0351128Y0150618D01*
X0351122Y0150460D01*
X0351112Y0150302D01*
X0351098Y0150144D01*
X0351080Y0149987D01*
X0351059Y0149830D01*
X0351033Y0149674D01*
X0351003Y0149518D01*
X0350970Y0149363D01*
X0350932Y0149210D01*
X0350891Y0149057D01*
X0350846Y0148905D01*
X0350797Y0148754D01*
X0350744Y0148605D01*
X0350688Y0148457D01*
X0350628Y0148311D01*
X0350564Y0148166D01*
X0350496Y0148023D01*
X0350425Y0147881D01*
X0350351Y0147741D01*
X0350273Y0147604D01*
X0350191Y0147468D01*
X0350107Y0147334D01*
X0350018Y0147203D01*
X0349927Y0147074D01*
X0349832Y0146947D01*
X0349735Y0146822D01*
X0349634Y0146700D01*
X0349530Y0146581D01*
X0349423Y0146464D01*
X0349313Y0146350D01*
X0349200Y0146239D01*
X0349085Y0146130D01*
X0348967Y0146025D01*
X0348846Y0145923D01*
X0348723Y0145823D01*
X0348597Y0145727D01*
X0348469Y0145634D01*
X0348339Y0145544D01*
X0348206Y0145458D01*
X0348071Y0145374D01*
X0347935Y0145295D01*
X0347796Y0145218D01*
X0347655Y0145146D01*
X0347513Y0145076D01*
X0347369Y0145011D01*
X0347223Y0144949D01*
X0347076Y0144891D01*
X0346927Y0144836D01*
X0346777Y0144785D01*
X0346626Y0144738D01*
X0346474Y0144695D01*
X0346321Y0144656D01*
X0346166Y0144620D01*
X0346011Y0144589D01*
X0345855Y0144561D01*
X0345699Y0144537D01*
X0345542Y0144517D01*
X0345384Y0144501D01*
X0345227Y0144489D01*
X0345068Y0144481D01*
X0344910Y0144477D01*
X0344752Y0144477D01*
X0344594Y0144481D01*
X0344435Y0144489D01*
X0344278Y0144501D01*
X0344120Y0144517D01*
X0343963Y0144537D01*
X0343807Y0144561D01*
X0343651Y0144589D01*
X0343496Y0144620D01*
X0343341Y0144656D01*
X0343188Y0144695D01*
X0343036Y0144738D01*
X0342885Y0144785D01*
X0342735Y0144836D01*
X0342586Y0144891D01*
X0342439Y0144949D01*
X0342293Y0145011D01*
X0342149Y0145076D01*
X0342007Y0145146D01*
X0341866Y0145218D01*
X0341727Y0145295D01*
X0341591Y0145374D01*
X0341456Y0145458D01*
X0341323Y0145544D01*
X0341193Y0145634D01*
X0341065Y0145727D01*
X0340939Y0145823D01*
X0340816Y0145923D01*
X0340695Y0146025D01*
X0340577Y0146130D01*
X0340462Y0146239D01*
X0340349Y0146350D01*
X0340239Y0146464D01*
X0340132Y0146581D01*
X0340028Y0146700D01*
X0339927Y0146822D01*
X0339830Y0146947D01*
X0339735Y0147074D01*
X0339644Y0147203D01*
X0339555Y0147334D01*
X0339471Y0147468D01*
X0339389Y0147604D01*
X0339311Y0147741D01*
X0339237Y0147881D01*
X0339166Y0148023D01*
X0339098Y0148166D01*
X0339034Y0148311D01*
X0338974Y0148457D01*
X0338918Y0148605D01*
X0338865Y0148754D01*
X0338816Y0148905D01*
X0338771Y0149057D01*
X0338730Y0149210D01*
X0338692Y0149363D01*
X0338659Y0149518D01*
X0338629Y0149674D01*
X0338603Y0149830D01*
X0338582Y0149987D01*
X0338564Y0150144D01*
X0338550Y0150302D01*
X0338540Y0150460D01*
X0338534Y0150618D01*
X0338532Y0150776D01*
X0370501Y0016800D02*
X0370503Y0016958D01*
X0370509Y0017116D01*
X0370519Y0017274D01*
X0370533Y0017432D01*
X0370551Y0017589D01*
X0370572Y0017746D01*
X0370598Y0017902D01*
X0370628Y0018058D01*
X0370661Y0018213D01*
X0370699Y0018366D01*
X0370740Y0018519D01*
X0370785Y0018671D01*
X0370834Y0018822D01*
X0370887Y0018971D01*
X0370943Y0019119D01*
X0371003Y0019265D01*
X0371067Y0019410D01*
X0371135Y0019553D01*
X0371206Y0019695D01*
X0371280Y0019835D01*
X0371358Y0019972D01*
X0371440Y0020108D01*
X0371524Y0020242D01*
X0371613Y0020373D01*
X0371704Y0020502D01*
X0371799Y0020629D01*
X0371896Y0020754D01*
X0371997Y0020876D01*
X0372101Y0020995D01*
X0372208Y0021112D01*
X0372318Y0021226D01*
X0372431Y0021337D01*
X0372546Y0021446D01*
X0372664Y0021551D01*
X0372785Y0021653D01*
X0372908Y0021753D01*
X0373034Y0021849D01*
X0373162Y0021942D01*
X0373292Y0022032D01*
X0373425Y0022118D01*
X0373560Y0022202D01*
X0373696Y0022281D01*
X0373835Y0022358D01*
X0373976Y0022430D01*
X0374118Y0022500D01*
X0374262Y0022565D01*
X0374408Y0022627D01*
X0374555Y0022685D01*
X0374704Y0022740D01*
X0374854Y0022791D01*
X0375005Y0022838D01*
X0375157Y0022881D01*
X0375310Y0022920D01*
X0375465Y0022956D01*
X0375620Y0022987D01*
X0375776Y0023015D01*
X0375932Y0023039D01*
X0376089Y0023059D01*
X0376247Y0023075D01*
X0376404Y0023087D01*
X0376563Y0023095D01*
X0376721Y0023099D01*
X0376879Y0023099D01*
X0377037Y0023095D01*
X0377196Y0023087D01*
X0377353Y0023075D01*
X0377511Y0023059D01*
X0377668Y0023039D01*
X0377824Y0023015D01*
X0377980Y0022987D01*
X0378135Y0022956D01*
X0378290Y0022920D01*
X0378443Y0022881D01*
X0378595Y0022838D01*
X0378746Y0022791D01*
X0378896Y0022740D01*
X0379045Y0022685D01*
X0379192Y0022627D01*
X0379338Y0022565D01*
X0379482Y0022500D01*
X0379624Y0022430D01*
X0379765Y0022358D01*
X0379904Y0022281D01*
X0380040Y0022202D01*
X0380175Y0022118D01*
X0380308Y0022032D01*
X0380438Y0021942D01*
X0380566Y0021849D01*
X0380692Y0021753D01*
X0380815Y0021653D01*
X0380936Y0021551D01*
X0381054Y0021446D01*
X0381169Y0021337D01*
X0381282Y0021226D01*
X0381392Y0021112D01*
X0381499Y0020995D01*
X0381603Y0020876D01*
X0381704Y0020754D01*
X0381801Y0020629D01*
X0381896Y0020502D01*
X0381987Y0020373D01*
X0382076Y0020242D01*
X0382160Y0020108D01*
X0382242Y0019972D01*
X0382320Y0019835D01*
X0382394Y0019695D01*
X0382465Y0019553D01*
X0382533Y0019410D01*
X0382597Y0019265D01*
X0382657Y0019119D01*
X0382713Y0018971D01*
X0382766Y0018822D01*
X0382815Y0018671D01*
X0382860Y0018519D01*
X0382901Y0018366D01*
X0382939Y0018213D01*
X0382972Y0018058D01*
X0383002Y0017902D01*
X0383028Y0017746D01*
X0383049Y0017589D01*
X0383067Y0017432D01*
X0383081Y0017274D01*
X0383091Y0017116D01*
X0383097Y0016958D01*
X0383099Y0016800D01*
X0383097Y0016642D01*
X0383091Y0016484D01*
X0383081Y0016326D01*
X0383067Y0016168D01*
X0383049Y0016011D01*
X0383028Y0015854D01*
X0383002Y0015698D01*
X0382972Y0015542D01*
X0382939Y0015387D01*
X0382901Y0015234D01*
X0382860Y0015081D01*
X0382815Y0014929D01*
X0382766Y0014778D01*
X0382713Y0014629D01*
X0382657Y0014481D01*
X0382597Y0014335D01*
X0382533Y0014190D01*
X0382465Y0014047D01*
X0382394Y0013905D01*
X0382320Y0013765D01*
X0382242Y0013628D01*
X0382160Y0013492D01*
X0382076Y0013358D01*
X0381987Y0013227D01*
X0381896Y0013098D01*
X0381801Y0012971D01*
X0381704Y0012846D01*
X0381603Y0012724D01*
X0381499Y0012605D01*
X0381392Y0012488D01*
X0381282Y0012374D01*
X0381169Y0012263D01*
X0381054Y0012154D01*
X0380936Y0012049D01*
X0380815Y0011947D01*
X0380692Y0011847D01*
X0380566Y0011751D01*
X0380438Y0011658D01*
X0380308Y0011568D01*
X0380175Y0011482D01*
X0380040Y0011398D01*
X0379904Y0011319D01*
X0379765Y0011242D01*
X0379624Y0011170D01*
X0379482Y0011100D01*
X0379338Y0011035D01*
X0379192Y0010973D01*
X0379045Y0010915D01*
X0378896Y0010860D01*
X0378746Y0010809D01*
X0378595Y0010762D01*
X0378443Y0010719D01*
X0378290Y0010680D01*
X0378135Y0010644D01*
X0377980Y0010613D01*
X0377824Y0010585D01*
X0377668Y0010561D01*
X0377511Y0010541D01*
X0377353Y0010525D01*
X0377196Y0010513D01*
X0377037Y0010505D01*
X0376879Y0010501D01*
X0376721Y0010501D01*
X0376563Y0010505D01*
X0376404Y0010513D01*
X0376247Y0010525D01*
X0376089Y0010541D01*
X0375932Y0010561D01*
X0375776Y0010585D01*
X0375620Y0010613D01*
X0375465Y0010644D01*
X0375310Y0010680D01*
X0375157Y0010719D01*
X0375005Y0010762D01*
X0374854Y0010809D01*
X0374704Y0010860D01*
X0374555Y0010915D01*
X0374408Y0010973D01*
X0374262Y0011035D01*
X0374118Y0011100D01*
X0373976Y0011170D01*
X0373835Y0011242D01*
X0373696Y0011319D01*
X0373560Y0011398D01*
X0373425Y0011482D01*
X0373292Y0011568D01*
X0373162Y0011658D01*
X0373034Y0011751D01*
X0372908Y0011847D01*
X0372785Y0011947D01*
X0372664Y0012049D01*
X0372546Y0012154D01*
X0372431Y0012263D01*
X0372318Y0012374D01*
X0372208Y0012488D01*
X0372101Y0012605D01*
X0371997Y0012724D01*
X0371896Y0012846D01*
X0371799Y0012971D01*
X0371704Y0013098D01*
X0371613Y0013227D01*
X0371524Y0013358D01*
X0371440Y0013492D01*
X0371358Y0013628D01*
X0371280Y0013765D01*
X0371206Y0013905D01*
X0371135Y0014047D01*
X0371067Y0014190D01*
X0371003Y0014335D01*
X0370943Y0014481D01*
X0370887Y0014629D01*
X0370834Y0014778D01*
X0370785Y0014929D01*
X0370740Y0015081D01*
X0370699Y0015234D01*
X0370661Y0015387D01*
X0370628Y0015542D01*
X0370598Y0015698D01*
X0370572Y0015854D01*
X0370551Y0016011D01*
X0370533Y0016168D01*
X0370519Y0016326D01*
X0370509Y0016484D01*
X0370503Y0016642D01*
X0370501Y0016800D01*
D11*
X0381800Y0001800D02*
X0011800Y0001800D01*
X0001800Y0011800D01*
X0001800Y0281800D01*
X0011800Y0291800D01*
X0381800Y0291800D01*
X0391800Y0281800D01*
X0391800Y0011800D01*
X0381800Y0001800D01*
X0214300Y0011800D02*
X0136800Y0011800D01*
X0136800Y0089300D01*
X0214300Y0089300D01*
X0214300Y0011800D01*
M02*
