G75*
%MOIN*%
%OFA0B0*%
%FSLAX25Y25*%
%IPPOS*%
%LPD*%
%AMOC8*
5,1,8,0,0,1.08239X$1,22.5*
%
%ADD10C,0.12998*%
%ADD11C,0.03500*%
%ADD12C,0.03900*%
%ADD13R,0.08274X0.06699*%
%ADD14R,0.10243X0.08274*%
%ADD15R,0.13392X0.08274*%
%ADD16R,0.12605X0.02369*%
%ADD17C,0.03943*%
%ADD18R,0.06699X0.08274*%
%ADD19R,0.06699X0.07487*%
%ADD20R,0.02369X0.06306*%
%ADD21R,0.06306X0.02369*%
%ADD22R,0.07487X0.06699*%
%ADD23R,0.12211X0.10243*%
%ADD24R,0.05124X0.05124*%
%ADD25R,0.15424X0.15424*%
%ADD26R,0.07487X0.07487*%
%ADD27R,0.05124X0.02565*%
%ADD28R,0.05518X0.06306*%
%ADD29R,0.06306X0.05518*%
%ADD30C,0.04534*%
%ADD31R,0.06400X0.06400*%
%ADD32C,0.06400*%
%ADD33R,0.05200X0.09200*%
%ADD34R,0.14573X0.09061*%
%ADD35C,0.05518*%
%ADD36C,0.09691*%
%ADD37R,0.04337X0.05912*%
%ADD38R,0.05124X0.05912*%
%ADD39R,0.05912X0.05124*%
%ADD40C,0.07800*%
%ADD41R,0.06306X0.06306*%
%ADD42OC8,0.05200*%
%ADD43C,0.05800*%
%ADD44OC8,0.05800*%
%ADD45C,0.05124*%
%ADD46C,0.05800*%
%ADD47R,0.04534X0.04534*%
D10*
X0019250Y0016800D03*
X0051219Y0150776D03*
X0051219Y0272824D03*
X0019250Y0276800D03*
X0347281Y0272824D03*
X0379250Y0276800D03*
X0347281Y0150776D03*
X0379250Y0016800D03*
D11*
X0121750Y0144300D03*
X0121750Y0149300D03*
X0116750Y0149300D03*
X0116750Y0144300D03*
X0111750Y0144300D03*
X0111750Y0149300D03*
D12*
X0106750Y0150800D03*
X0106750Y0142800D03*
X0126750Y0146800D03*
D13*
X0099250Y0168788D03*
X0099250Y0179812D03*
X0091750Y0196288D03*
X0091750Y0207312D03*
X0214250Y0251288D03*
X0214250Y0262312D03*
X0321750Y0266288D03*
X0321750Y0277312D03*
X0249250Y0147312D03*
X0249250Y0136288D03*
X0249250Y0089812D03*
X0259250Y0089812D03*
X0259250Y0078788D03*
X0249250Y0078788D03*
X0239250Y0078788D03*
X0239250Y0089812D03*
D14*
X0386061Y0154280D03*
X0386061Y0189320D03*
D15*
X0362833Y0189320D03*
X0362833Y0154280D03*
D16*
X0362439Y0165501D03*
X0362439Y0168650D03*
X0362439Y0171800D03*
X0362439Y0174950D03*
X0362439Y0178099D03*
D17*
X0374250Y0180461D03*
X0374250Y0163139D03*
D18*
X0339762Y0164300D03*
X0328738Y0164300D03*
X0328738Y0181800D03*
X0339762Y0181800D03*
X0267262Y0241800D03*
X0256238Y0241800D03*
X0256238Y0254300D03*
X0267262Y0254300D03*
X0296238Y0246800D03*
X0307262Y0246800D03*
X0184762Y0229300D03*
X0173738Y0229300D03*
X0201238Y0104300D03*
X0201238Y0094300D03*
X0212262Y0094300D03*
X0212262Y0104300D03*
D19*
X0248738Y0156800D03*
X0248738Y0166800D03*
X0259762Y0166800D03*
X0266238Y0166800D03*
X0277262Y0166800D03*
X0259762Y0156800D03*
X0197262Y0176800D03*
X0186238Y0176800D03*
X0186238Y0189300D03*
X0197262Y0189300D03*
D20*
X0164998Y0178965D03*
X0161848Y0178965D03*
X0158699Y0178965D03*
X0155549Y0178965D03*
X0152400Y0178965D03*
X0149250Y0178965D03*
X0146100Y0178965D03*
X0142951Y0178965D03*
X0139801Y0178965D03*
X0136652Y0178965D03*
X0133502Y0178965D03*
X0133502Y0224635D03*
X0136652Y0224635D03*
X0139801Y0224635D03*
X0142951Y0224635D03*
X0146100Y0224635D03*
X0149250Y0224635D03*
X0152400Y0224635D03*
X0155549Y0224635D03*
X0158699Y0224635D03*
X0161848Y0224635D03*
X0164998Y0224635D03*
D21*
X0172085Y0217548D03*
X0172085Y0214398D03*
X0172085Y0211249D03*
X0172085Y0208099D03*
X0172085Y0204950D03*
X0172085Y0201800D03*
X0172085Y0198650D03*
X0172085Y0195501D03*
X0172085Y0192351D03*
X0172085Y0189202D03*
X0172085Y0186052D03*
X0126415Y0186052D03*
X0126415Y0189202D03*
X0126415Y0192351D03*
X0126415Y0195501D03*
X0126415Y0198650D03*
X0126415Y0201800D03*
X0126415Y0204950D03*
X0126415Y0208099D03*
X0126415Y0211249D03*
X0126415Y0214398D03*
X0126415Y0217548D03*
D22*
X0076750Y0219812D03*
X0076750Y0208788D03*
X0076750Y0194812D03*
X0076750Y0183788D03*
X0145500Y0162312D03*
X0145500Y0151288D03*
D23*
X0104250Y0191308D03*
X0104250Y0211898D03*
D24*
X0212616Y0184300D03*
X0220884Y0184300D03*
X0259250Y0145934D03*
X0259250Y0137666D03*
X0248384Y0241800D03*
X0240116Y0241800D03*
X0240116Y0254300D03*
X0248384Y0254300D03*
D25*
X0338778Y0076406D03*
X0338778Y0027194D03*
D26*
X0366337Y0041957D03*
X0366337Y0061643D03*
X0309250Y0061643D03*
X0309250Y0051800D03*
X0309250Y0041957D03*
D27*
X0306869Y0258060D03*
X0296631Y0258060D03*
X0296631Y0261800D03*
X0296631Y0265540D03*
X0306869Y0265540D03*
D28*
X0305490Y0276800D03*
X0298010Y0276800D03*
X0220490Y0193000D03*
X0213010Y0193000D03*
D29*
X0284250Y0258060D03*
X0284250Y0265540D03*
D30*
X0261317Y0057611D02*
X0257183Y0057611D01*
X0257183Y0051987D02*
X0261317Y0051987D01*
X0261317Y0046363D02*
X0257183Y0046363D01*
X0257183Y0040739D02*
X0261317Y0040739D01*
D31*
X0073266Y0272824D03*
D32*
X0083266Y0272824D03*
X0093266Y0272824D03*
X0103266Y0272824D03*
X0113266Y0272824D03*
X0123266Y0272824D03*
X0133266Y0272824D03*
X0143266Y0272824D03*
X0153266Y0272824D03*
X0163266Y0272824D03*
X0173266Y0272824D03*
X0183266Y0272824D03*
X0193266Y0272824D03*
X0203266Y0272824D03*
X0213266Y0272824D03*
X0223266Y0272824D03*
D33*
X0300150Y0202100D03*
X0309250Y0202100D03*
X0318350Y0202100D03*
X0268350Y0179600D03*
X0259250Y0179600D03*
X0250150Y0179600D03*
D34*
X0259250Y0204001D03*
X0309250Y0226501D03*
D35*
X0355195Y0229831D03*
X0365195Y0233769D03*
X0355195Y0237863D03*
X0365195Y0241800D03*
X0365195Y0225737D03*
X0355195Y0221800D03*
D36*
X0374250Y0208178D03*
X0374250Y0255422D03*
D37*
X0294250Y0186131D03*
X0290510Y0177469D03*
X0297990Y0177469D03*
D38*
X0300156Y0164300D03*
X0288344Y0164300D03*
D39*
X0321750Y0240894D03*
X0334250Y0240894D03*
X0334250Y0252706D03*
X0321750Y0252706D03*
X0334250Y0268394D03*
X0334250Y0280206D03*
D40*
X0181750Y0136800D03*
X0171750Y0136800D03*
D41*
X0084250Y0057300D03*
X0084250Y0049300D03*
X0084250Y0041300D03*
D42*
X0171750Y0124300D03*
X0181750Y0124300D03*
D43*
X0021750Y0191800D03*
D44*
X0031750Y0191800D03*
X0031750Y0201800D03*
X0021750Y0201800D03*
X0021750Y0211800D03*
X0031750Y0211800D03*
D45*
X0023030Y0239300D03*
X0034250Y0249300D03*
X0023030Y0259300D03*
D46*
X0254250Y0271600D02*
X0254250Y0277000D01*
X0264250Y0277000D02*
X0264250Y0271600D01*
X0289250Y0152000D02*
X0289250Y0146600D01*
X0299250Y0146600D02*
X0299250Y0152000D01*
X0314050Y0019300D02*
X0319450Y0019300D01*
X0319450Y0009300D02*
X0314050Y0009300D01*
D47*
X0379250Y0136800D03*
X0279250Y0196800D03*
X0257990Y0173517D03*
X0259250Y0151800D03*
X0284250Y0249300D03*
X0291750Y0276800D03*
X0314250Y0276800D03*
X0239250Y0261800D03*
X0081750Y0176800D03*
M02*
