<?xml version="1.0"?>
<!DOCTYPE svg PUBLIC "-//W3C//DTD SVG 1.1//EN" "http://www.w3.org/Graphics/SVG/1.1/DTD/svg11.dtd">
<svg width="74.97mm" height="181.47mm" viewBox="0 0 74.97 181.47" xmlns="http://www.w3.org/2000/svg" version="1.1">
<g id="Sketch002" transform="translate(-137.765000,0.735000) scale(1,-1)">
<path id="Sketch002_w0000"  d="M 140.5 -139.0 L 198.0 -139.0 A 2 2 0 0 1 200 -137L 200.0 0.0 L 212.0 1.29148723275e-14 L 212.0 -178.0 A 2 2 0 0 0 210 -180L 185.0 -180.0 A 2 2 0 0 0 183 -178L 183.0 -168.0 L 173.0 -165.0 L 173.0 -152.0 A 2 2 0 0 1 171 -150L 151.0 -150.0 A 2 2 0 0 1 149 -152L 149.0 -169.0 A 2 2 0 0 0 147 -171L 140.5 -171.0 A 2 2 0 0 0 138.5 -169L 138.5 -141.0 A 2 2 0 0 0 140.5 -139" stroke="#000000" stroke-width="0.35 px" style="stroke-width:0.35;stroke-miterlimit:4;stroke-dasharray:none;fill:none;fill-rule: evenodd "/>
<title>flat_7.3</title>
</g>
</svg>