<?xml version="1.0"?>
<!DOCTYPE svg PUBLIC "-//W3C//DTD SVG 1.1//EN" "http://www.w3.org/Graphics/SVG/1.1/DTD/svg11.dtd">
<svg width="47.94mm" height="171.94mm" viewBox="0 0 47.94 171.94" xmlns="http://www.w3.org/2000/svg" version="1.1">
<g id="Sketch002" transform="translate(-130.530000,171.470000) scale(1,-1)">
<path id="Sketch002_w0000"  d="M 140.0 13.0 L 140.0 0.0 L 178.0 0.0 L 178.0 171.0 L 164.0 171.0 L 164.0 80.9999999999 L 131.0 80.9999999999 L 131.0 51.9999999999 L 145.0 52.0 L 148.0 42.0 L 166.0 42.0 L 166.0 13.0 L 140.0 13.0 " stroke="#000000" stroke-width="0.35 px" style="stroke-width:0.35;stroke-miterlimit:4;stroke-dasharray:none;fill:none;fill-rule: evenodd "/>
<path id="Sketch002_w0001"  d="M 137.0 71.9899999999 L 141.0 71.9899999999 L 141.0 51.9899999999 L 137.0 51.9899999999 L 137.0 71.9899999999 " stroke="#000000" stroke-width="0.35 px" style="stroke-width:0.35;stroke-miterlimit:4;stroke-dasharray:none;fill:none;fill-rule: evenodd "/>
<path id="Sketch002_w0002"  d="M 152.0 61.99 L 156.0 61.99 L 156.0 41.99 L 152.0 41.99 L 152.0 61.99 " stroke="#000000" stroke-width="0.35 px" style="stroke-width:0.35;stroke-miterlimit:4;stroke-dasharray:none;fill:none;fill-rule: evenodd "/>
<path id="Sketch002_w0003"  d="M 146.0 10.0 L 146.0 5.0 L 170.0 5.0 L 170.0 9.0 L 152.0 9.0 L 152.0 10.0 L 146.0 10.0 " stroke="#000000" stroke-width="0.35 px" style="stroke-width:0.35;stroke-miterlimit:4;stroke-dasharray:none;fill:none;fill-rule: evenodd "/>
<title>SPECTRO_PLONGEUR_6_3_FLAT</title>
</g>
</svg>