<?xml version="1.0"?>
<!DOCTYPE svg PUBLIC "-//W3C//DTD SVG 1.1//EN" "http://www.w3.org/Graphics/SVG/1.1/DTD/svg11.dtd">
<svg width="74.97mm" height="181.47mm" viewBox="0 0 74.97 181.47" xmlns="http://www.w3.org/2000/svg" version="1.1">
<g id="Sketch" transform="translate(-39.265000,0.735000) scale(1,-1)">
<path id="Sketch_w0000"  d="M 52.0 -137.0 L 52.0 0.0 L 40.0 0.0 L 40.0 -178.0 A 2 2 0 0 1 42 -180L 67.0 -180.0 A 2 2 0 0 1 69 -178L 69.0 -168.0 L 79.0 -165.0 L 79.0 -152.0 A 2 2 0 0 0 81 -150L 101.0 -150.0 A 2 2 0 0 0 103 -152L 103.0 -169.0 A 2 2 0 0 1 105 -171L 111.5 -171.0 A 2 2 0 0 1 113.5 -169L 113.5 -141.0 A 2 2 0 0 1 111.5 -139L 54.0 -139.0 A 2 2 0 0 0 52 -137" stroke="#000000" stroke-width="0.35 px" style="stroke-width:0.35;stroke-miterlimit:4;stroke-dasharray:none;fill:none;fill-rule: evenodd "/>
<path id="Sketch_w0001"  d="M 48.5 -140.5 L 48.5 -4.26325641456e-13 L 43.5 -2.10477560307e-15 L 43.5 -174.0 A 2 2 0 0 1 45.5 -176L 69.0 -176.0 L 69.0 -172.0 L 50.5 -172.0 A 2 2 0 0 0 48.5 -170L 48.5 -161.0 L 79.0 -161.0 L 79.0 -157.0 L 50.5 -157.0 A 2 2 0 0 0 48.5 -155L 48.5 -146.5 L 105.0 -146.5 A 2 2 0 0 0 107 -148.5L 107.0 -161.0 L 106.0 -161.0 L 106.0 -167.0 L 110.0 -167.0 L 110.0 -144.5 A 2 2 0 0 1 108 -142.5L 50.5 -142.5 A 2 2 0 0 0 48.5 -140.5" stroke="#000000" stroke-width="0.35 px" style="stroke-width:0.35;stroke-miterlimit:4;stroke-dasharray:none;fill:none;fill-rule: evenodd "/>
<path id="Sketch_w0002"  d="M 57.6 -157.0 L 79.1 -157.0 L 79.1 -161.0 L 57.6 -161.0 L 57.6 -157.0 " stroke="#000000" stroke-width="0.35 px" style="stroke-width:0.35;stroke-miterlimit:4;stroke-dasharray:none;fill:none;fill-rule: evenodd "/>
<path id="Sketch_w0003"  d="M 48.6 -172.0 L 69.1 -172.0 L 69.1 -176.0 L 48.6 -176.0 L 48.6 -172.0 " stroke="#000000" stroke-width="0.35 px" style="stroke-width:0.35;stroke-miterlimit:4;stroke-dasharray:none;fill:none;fill-rule: evenodd "/>
<path id="Sketch_w0004"  d="M 106.05 -161.0 L 106.05 -167.0 L 110.05 -167.0 L 110.05 -147.0 L 107.05 -146.999999983 L 107.05 -161.0 L 106.05 -161.0 " stroke="#000000" stroke-width="0.35 px" style="stroke-width:0.35;stroke-miterlimit:4;stroke-dasharray:none;fill:none;fill-rule: evenodd "/>
<title>flat_7.2</title>
</g>
</svg>