G04 #@! TF.GenerationSoftware,KiCad,Pcbnew,5.1.4-e60b266~84~ubuntu18.04.1*
G04 #@! TF.CreationDate,2019-10-03T16:33:51+02:00*
G04 #@! TF.ProjectId,External_PCB,45787465-726e-4616-9c5f-5043422e6b69,rev?*
G04 #@! TF.SameCoordinates,Original*
G04 #@! TF.FileFunction,Copper,L1,Top*
G04 #@! TF.FilePolarity,Positive*
%FSLAX46Y46*%
G04 Gerber Fmt 4.6, Leading zero omitted, Abs format (unit mm)*
G04 Created by KiCad (PCBNEW 5.1.4-e60b266~84~ubuntu18.04.1) date 2019-10-03 16:33:51*
%MOMM*%
%LPD*%
G04 APERTURE LIST*
%ADD10C,1.524000*%
%ADD11C,0.100000*%
%ADD12C,1.150000*%
%ADD13C,1.397000*%
%ADD14C,0.800000*%
%ADD15C,0.250000*%
G04 APERTURE END LIST*
D10*
X279500000Y-112000000D03*
X279500000Y-110000000D03*
X279500000Y-108000000D03*
D11*
G36*
X292299505Y-109301204D02*
G01*
X292323773Y-109304804D01*
X292347572Y-109310765D01*
X292370671Y-109319030D01*
X292392850Y-109329520D01*
X292413893Y-109342132D01*
X292433599Y-109356747D01*
X292451777Y-109373223D01*
X292468253Y-109391401D01*
X292482868Y-109411107D01*
X292495480Y-109432150D01*
X292505970Y-109454329D01*
X292514235Y-109477428D01*
X292520196Y-109501227D01*
X292523796Y-109525495D01*
X292525000Y-109549999D01*
X292525000Y-110450001D01*
X292523796Y-110474505D01*
X292520196Y-110498773D01*
X292514235Y-110522572D01*
X292505970Y-110545671D01*
X292495480Y-110567850D01*
X292482868Y-110588893D01*
X292468253Y-110608599D01*
X292451777Y-110626777D01*
X292433599Y-110643253D01*
X292413893Y-110657868D01*
X292392850Y-110670480D01*
X292370671Y-110680970D01*
X292347572Y-110689235D01*
X292323773Y-110695196D01*
X292299505Y-110698796D01*
X292275001Y-110700000D01*
X291624999Y-110700000D01*
X291600495Y-110698796D01*
X291576227Y-110695196D01*
X291552428Y-110689235D01*
X291529329Y-110680970D01*
X291507150Y-110670480D01*
X291486107Y-110657868D01*
X291466401Y-110643253D01*
X291448223Y-110626777D01*
X291431747Y-110608599D01*
X291417132Y-110588893D01*
X291404520Y-110567850D01*
X291394030Y-110545671D01*
X291385765Y-110522572D01*
X291379804Y-110498773D01*
X291376204Y-110474505D01*
X291375000Y-110450001D01*
X291375000Y-109549999D01*
X291376204Y-109525495D01*
X291379804Y-109501227D01*
X291385765Y-109477428D01*
X291394030Y-109454329D01*
X291404520Y-109432150D01*
X291417132Y-109411107D01*
X291431747Y-109391401D01*
X291448223Y-109373223D01*
X291466401Y-109356747D01*
X291486107Y-109342132D01*
X291507150Y-109329520D01*
X291529329Y-109319030D01*
X291552428Y-109310765D01*
X291576227Y-109304804D01*
X291600495Y-109301204D01*
X291624999Y-109300000D01*
X292275001Y-109300000D01*
X292299505Y-109301204D01*
X292299505Y-109301204D01*
G37*
D12*
X291950000Y-110000000D03*
D11*
G36*
X294349505Y-109301204D02*
G01*
X294373773Y-109304804D01*
X294397572Y-109310765D01*
X294420671Y-109319030D01*
X294442850Y-109329520D01*
X294463893Y-109342132D01*
X294483599Y-109356747D01*
X294501777Y-109373223D01*
X294518253Y-109391401D01*
X294532868Y-109411107D01*
X294545480Y-109432150D01*
X294555970Y-109454329D01*
X294564235Y-109477428D01*
X294570196Y-109501227D01*
X294573796Y-109525495D01*
X294575000Y-109549999D01*
X294575000Y-110450001D01*
X294573796Y-110474505D01*
X294570196Y-110498773D01*
X294564235Y-110522572D01*
X294555970Y-110545671D01*
X294545480Y-110567850D01*
X294532868Y-110588893D01*
X294518253Y-110608599D01*
X294501777Y-110626777D01*
X294483599Y-110643253D01*
X294463893Y-110657868D01*
X294442850Y-110670480D01*
X294420671Y-110680970D01*
X294397572Y-110689235D01*
X294373773Y-110695196D01*
X294349505Y-110698796D01*
X294325001Y-110700000D01*
X293674999Y-110700000D01*
X293650495Y-110698796D01*
X293626227Y-110695196D01*
X293602428Y-110689235D01*
X293579329Y-110680970D01*
X293557150Y-110670480D01*
X293536107Y-110657868D01*
X293516401Y-110643253D01*
X293498223Y-110626777D01*
X293481747Y-110608599D01*
X293467132Y-110588893D01*
X293454520Y-110567850D01*
X293444030Y-110545671D01*
X293435765Y-110522572D01*
X293429804Y-110498773D01*
X293426204Y-110474505D01*
X293425000Y-110450001D01*
X293425000Y-109549999D01*
X293426204Y-109525495D01*
X293429804Y-109501227D01*
X293435765Y-109477428D01*
X293444030Y-109454329D01*
X293454520Y-109432150D01*
X293467132Y-109411107D01*
X293481747Y-109391401D01*
X293498223Y-109373223D01*
X293516401Y-109356747D01*
X293536107Y-109342132D01*
X293557150Y-109329520D01*
X293579329Y-109319030D01*
X293602428Y-109310765D01*
X293626227Y-109304804D01*
X293650495Y-109301204D01*
X293674999Y-109300000D01*
X294325001Y-109300000D01*
X294349505Y-109301204D01*
X294349505Y-109301204D01*
G37*
D12*
X294000000Y-110000000D03*
D11*
G36*
X294399505Y-104301204D02*
G01*
X294423773Y-104304804D01*
X294447572Y-104310765D01*
X294470671Y-104319030D01*
X294492850Y-104329520D01*
X294513893Y-104342132D01*
X294533599Y-104356747D01*
X294551777Y-104373223D01*
X294568253Y-104391401D01*
X294582868Y-104411107D01*
X294595480Y-104432150D01*
X294605970Y-104454329D01*
X294614235Y-104477428D01*
X294620196Y-104501227D01*
X294623796Y-104525495D01*
X294625000Y-104549999D01*
X294625000Y-105450001D01*
X294623796Y-105474505D01*
X294620196Y-105498773D01*
X294614235Y-105522572D01*
X294605970Y-105545671D01*
X294595480Y-105567850D01*
X294582868Y-105588893D01*
X294568253Y-105608599D01*
X294551777Y-105626777D01*
X294533599Y-105643253D01*
X294513893Y-105657868D01*
X294492850Y-105670480D01*
X294470671Y-105680970D01*
X294447572Y-105689235D01*
X294423773Y-105695196D01*
X294399505Y-105698796D01*
X294375001Y-105700000D01*
X293724999Y-105700000D01*
X293700495Y-105698796D01*
X293676227Y-105695196D01*
X293652428Y-105689235D01*
X293629329Y-105680970D01*
X293607150Y-105670480D01*
X293586107Y-105657868D01*
X293566401Y-105643253D01*
X293548223Y-105626777D01*
X293531747Y-105608599D01*
X293517132Y-105588893D01*
X293504520Y-105567850D01*
X293494030Y-105545671D01*
X293485765Y-105522572D01*
X293479804Y-105498773D01*
X293476204Y-105474505D01*
X293475000Y-105450001D01*
X293475000Y-104549999D01*
X293476204Y-104525495D01*
X293479804Y-104501227D01*
X293485765Y-104477428D01*
X293494030Y-104454329D01*
X293504520Y-104432150D01*
X293517132Y-104411107D01*
X293531747Y-104391401D01*
X293548223Y-104373223D01*
X293566401Y-104356747D01*
X293586107Y-104342132D01*
X293607150Y-104329520D01*
X293629329Y-104319030D01*
X293652428Y-104310765D01*
X293676227Y-104304804D01*
X293700495Y-104301204D01*
X293724999Y-104300000D01*
X294375001Y-104300000D01*
X294399505Y-104301204D01*
X294399505Y-104301204D01*
G37*
D12*
X294050000Y-105000000D03*
D11*
G36*
X292349505Y-104301204D02*
G01*
X292373773Y-104304804D01*
X292397572Y-104310765D01*
X292420671Y-104319030D01*
X292442850Y-104329520D01*
X292463893Y-104342132D01*
X292483599Y-104356747D01*
X292501777Y-104373223D01*
X292518253Y-104391401D01*
X292532868Y-104411107D01*
X292545480Y-104432150D01*
X292555970Y-104454329D01*
X292564235Y-104477428D01*
X292570196Y-104501227D01*
X292573796Y-104525495D01*
X292575000Y-104549999D01*
X292575000Y-105450001D01*
X292573796Y-105474505D01*
X292570196Y-105498773D01*
X292564235Y-105522572D01*
X292555970Y-105545671D01*
X292545480Y-105567850D01*
X292532868Y-105588893D01*
X292518253Y-105608599D01*
X292501777Y-105626777D01*
X292483599Y-105643253D01*
X292463893Y-105657868D01*
X292442850Y-105670480D01*
X292420671Y-105680970D01*
X292397572Y-105689235D01*
X292373773Y-105695196D01*
X292349505Y-105698796D01*
X292325001Y-105700000D01*
X291674999Y-105700000D01*
X291650495Y-105698796D01*
X291626227Y-105695196D01*
X291602428Y-105689235D01*
X291579329Y-105680970D01*
X291557150Y-105670480D01*
X291536107Y-105657868D01*
X291516401Y-105643253D01*
X291498223Y-105626777D01*
X291481747Y-105608599D01*
X291467132Y-105588893D01*
X291454520Y-105567850D01*
X291444030Y-105545671D01*
X291435765Y-105522572D01*
X291429804Y-105498773D01*
X291426204Y-105474505D01*
X291425000Y-105450001D01*
X291425000Y-104549999D01*
X291426204Y-104525495D01*
X291429804Y-104501227D01*
X291435765Y-104477428D01*
X291444030Y-104454329D01*
X291454520Y-104432150D01*
X291467132Y-104411107D01*
X291481747Y-104391401D01*
X291498223Y-104373223D01*
X291516401Y-104356747D01*
X291536107Y-104342132D01*
X291557150Y-104329520D01*
X291579329Y-104319030D01*
X291602428Y-104310765D01*
X291626227Y-104304804D01*
X291650495Y-104301204D01*
X291674999Y-104300000D01*
X292325001Y-104300000D01*
X292349505Y-104301204D01*
X292349505Y-104301204D01*
G37*
D12*
X292000000Y-105000000D03*
D11*
G36*
X292299505Y-114301204D02*
G01*
X292323773Y-114304804D01*
X292347572Y-114310765D01*
X292370671Y-114319030D01*
X292392850Y-114329520D01*
X292413893Y-114342132D01*
X292433599Y-114356747D01*
X292451777Y-114373223D01*
X292468253Y-114391401D01*
X292482868Y-114411107D01*
X292495480Y-114432150D01*
X292505970Y-114454329D01*
X292514235Y-114477428D01*
X292520196Y-114501227D01*
X292523796Y-114525495D01*
X292525000Y-114549999D01*
X292525000Y-115450001D01*
X292523796Y-115474505D01*
X292520196Y-115498773D01*
X292514235Y-115522572D01*
X292505970Y-115545671D01*
X292495480Y-115567850D01*
X292482868Y-115588893D01*
X292468253Y-115608599D01*
X292451777Y-115626777D01*
X292433599Y-115643253D01*
X292413893Y-115657868D01*
X292392850Y-115670480D01*
X292370671Y-115680970D01*
X292347572Y-115689235D01*
X292323773Y-115695196D01*
X292299505Y-115698796D01*
X292275001Y-115700000D01*
X291624999Y-115700000D01*
X291600495Y-115698796D01*
X291576227Y-115695196D01*
X291552428Y-115689235D01*
X291529329Y-115680970D01*
X291507150Y-115670480D01*
X291486107Y-115657868D01*
X291466401Y-115643253D01*
X291448223Y-115626777D01*
X291431747Y-115608599D01*
X291417132Y-115588893D01*
X291404520Y-115567850D01*
X291394030Y-115545671D01*
X291385765Y-115522572D01*
X291379804Y-115498773D01*
X291376204Y-115474505D01*
X291375000Y-115450001D01*
X291375000Y-114549999D01*
X291376204Y-114525495D01*
X291379804Y-114501227D01*
X291385765Y-114477428D01*
X291394030Y-114454329D01*
X291404520Y-114432150D01*
X291417132Y-114411107D01*
X291431747Y-114391401D01*
X291448223Y-114373223D01*
X291466401Y-114356747D01*
X291486107Y-114342132D01*
X291507150Y-114329520D01*
X291529329Y-114319030D01*
X291552428Y-114310765D01*
X291576227Y-114304804D01*
X291600495Y-114301204D01*
X291624999Y-114300000D01*
X292275001Y-114300000D01*
X292299505Y-114301204D01*
X292299505Y-114301204D01*
G37*
D12*
X291950000Y-115000000D03*
D11*
G36*
X294349505Y-114301204D02*
G01*
X294373773Y-114304804D01*
X294397572Y-114310765D01*
X294420671Y-114319030D01*
X294442850Y-114329520D01*
X294463893Y-114342132D01*
X294483599Y-114356747D01*
X294501777Y-114373223D01*
X294518253Y-114391401D01*
X294532868Y-114411107D01*
X294545480Y-114432150D01*
X294555970Y-114454329D01*
X294564235Y-114477428D01*
X294570196Y-114501227D01*
X294573796Y-114525495D01*
X294575000Y-114549999D01*
X294575000Y-115450001D01*
X294573796Y-115474505D01*
X294570196Y-115498773D01*
X294564235Y-115522572D01*
X294555970Y-115545671D01*
X294545480Y-115567850D01*
X294532868Y-115588893D01*
X294518253Y-115608599D01*
X294501777Y-115626777D01*
X294483599Y-115643253D01*
X294463893Y-115657868D01*
X294442850Y-115670480D01*
X294420671Y-115680970D01*
X294397572Y-115689235D01*
X294373773Y-115695196D01*
X294349505Y-115698796D01*
X294325001Y-115700000D01*
X293674999Y-115700000D01*
X293650495Y-115698796D01*
X293626227Y-115695196D01*
X293602428Y-115689235D01*
X293579329Y-115680970D01*
X293557150Y-115670480D01*
X293536107Y-115657868D01*
X293516401Y-115643253D01*
X293498223Y-115626777D01*
X293481747Y-115608599D01*
X293467132Y-115588893D01*
X293454520Y-115567850D01*
X293444030Y-115545671D01*
X293435765Y-115522572D01*
X293429804Y-115498773D01*
X293426204Y-115474505D01*
X293425000Y-115450001D01*
X293425000Y-114549999D01*
X293426204Y-114525495D01*
X293429804Y-114501227D01*
X293435765Y-114477428D01*
X293444030Y-114454329D01*
X293454520Y-114432150D01*
X293467132Y-114411107D01*
X293481747Y-114391401D01*
X293498223Y-114373223D01*
X293516401Y-114356747D01*
X293536107Y-114342132D01*
X293557150Y-114329520D01*
X293579329Y-114319030D01*
X293602428Y-114310765D01*
X293626227Y-114304804D01*
X293650495Y-114301204D01*
X293674999Y-114300000D01*
X294325001Y-114300000D01*
X294349505Y-114301204D01*
X294349505Y-114301204D01*
G37*
D12*
X294000000Y-115000000D03*
D13*
X15500000Y-113000000D03*
X12960000Y-111800000D03*
X15500000Y-110600000D03*
X12960000Y-109400000D03*
X15500000Y-108199999D03*
X12960000Y-106999999D03*
D14*
X296000000Y-117000000D03*
X275500000Y-108000000D03*
X15000000Y-105500000D03*
D15*
X279500000Y-108000000D02*
X275500000Y-108000000D01*
X12960000Y-106999999D02*
X14459999Y-105500000D01*
X14459999Y-105500000D02*
X15000000Y-105500000D01*
X294050000Y-109950000D02*
X294000000Y-110000000D01*
X294050000Y-105000000D02*
X294050000Y-109950000D01*
X294000000Y-110000000D02*
X294000000Y-115000000D01*
X294623372Y-115623372D02*
X296000000Y-117000000D01*
X294000000Y-115000000D02*
X294623372Y-115623372D01*
X291326628Y-110623372D02*
X291950000Y-110000000D01*
X287926499Y-114023501D02*
X291326628Y-110623372D01*
X14195673Y-114023501D02*
X287926499Y-114023501D01*
X12960000Y-112787828D02*
X14195673Y-114023501D01*
X12960000Y-111800000D02*
X12960000Y-112787828D01*
X14801501Y-109901501D02*
X15500000Y-110600000D01*
X14476499Y-109576499D02*
X14801501Y-109901501D01*
X14476499Y-107708718D02*
X14476499Y-109576499D01*
X15960216Y-106225001D02*
X14476499Y-107708718D01*
X290774999Y-106225001D02*
X15960216Y-106225001D01*
X292000000Y-105000000D02*
X290774999Y-106225001D01*
X14801501Y-112126719D02*
X14801501Y-112301501D01*
X13451281Y-110776499D02*
X14801501Y-112126719D01*
X14801501Y-112301501D02*
X15500000Y-113000000D01*
X12468719Y-110776499D02*
X13451281Y-110776499D01*
X11936499Y-111308719D02*
X12468719Y-110776499D01*
X11936499Y-112400737D02*
X11936499Y-111308719D01*
X14535762Y-115000000D02*
X11936499Y-112400737D01*
X291950000Y-115000000D02*
X14535762Y-115000000D01*
X17300001Y-110000000D02*
X15500000Y-108199999D01*
X279500000Y-110000000D02*
X17300001Y-110000000D01*
X13658499Y-110098499D02*
X12960000Y-109400000D01*
X13658499Y-110273281D02*
X13658499Y-110098499D01*
X15361717Y-111976499D02*
X13658499Y-110273281D01*
X278398869Y-111976499D02*
X15361717Y-111976499D01*
X278422370Y-112000000D02*
X278398869Y-111976499D01*
X279500000Y-112000000D02*
X278422370Y-112000000D01*
M02*
