G04 #@! TF.GenerationSoftware,KiCad,Pcbnew,5.1.4-e60b266~84~ubuntu18.04.1*
G04 #@! TF.CreationDate,2019-10-03T16:33:51+02:00*
G04 #@! TF.ProjectId,External_PCB,45787465-726e-4616-9c5f-5043422e6b69,rev?*
G04 #@! TF.SameCoordinates,Original*
G04 #@! TF.FileFunction,Legend,Top*
G04 #@! TF.FilePolarity,Positive*
%FSLAX46Y46*%
G04 Gerber Fmt 4.6, Leading zero omitted, Abs format (unit mm)*
G04 Created by KiCad (PCBNEW 5.1.4-e60b266~84~ubuntu18.04.1) date 2019-10-03 16:33:51*
%MOMM*%
%LPD*%
G04 APERTURE LIST*
%ADD10C,0.120000*%
%ADD11C,0.152400*%
%ADD12C,0.150000*%
G04 APERTURE END LIST*
D10*
X286500000Y-106500000D02*
X286500000Y-113500000D01*
X278000000Y-106500000D02*
X286500000Y-106500000D01*
X278000000Y-113500000D02*
X286500000Y-113500000D01*
X278000000Y-106500000D02*
X278000000Y-113500000D01*
X294835000Y-109040000D02*
X291975000Y-109040000D01*
X294835000Y-110960000D02*
X294835000Y-109040000D01*
X291975000Y-110960000D02*
X294835000Y-110960000D01*
X292025000Y-105960000D02*
X294885000Y-105960000D01*
X294885000Y-105960000D02*
X294885000Y-104040000D01*
X294885000Y-104040000D02*
X292025000Y-104040000D01*
X294835000Y-114040000D02*
X291975000Y-114040000D01*
X294835000Y-115960000D02*
X294835000Y-114040000D01*
X291975000Y-115960000D02*
X294835000Y-115960000D01*
D11*
X17543400Y-116223001D02*
X17543400Y-103777001D01*
X17543400Y-103777001D02*
X11423001Y-103777001D01*
X3776600Y-103777001D02*
X3776600Y-116223001D01*
X3776600Y-116223001D02*
X8377000Y-116223001D01*
X11423001Y-116223001D02*
X17543400Y-116223001D01*
X8377000Y-103777001D02*
X3776600Y-103777001D01*
D12*
X275452380Y-110761904D02*
X276261904Y-110761904D01*
X276357142Y-110714285D01*
X276404761Y-110666666D01*
X276452380Y-110571428D01*
X276452380Y-110380952D01*
X276404761Y-110285714D01*
X276357142Y-110238095D01*
X276261904Y-110190476D01*
X275452380Y-110190476D01*
X276452380Y-109190476D02*
X276452380Y-109761904D01*
X276452380Y-109476190D02*
X275452380Y-109476190D01*
X275595238Y-109571428D01*
X275690476Y-109666666D01*
X275738095Y-109761904D01*
X292236904Y-112102380D02*
X292236904Y-111102380D01*
X292475000Y-111102380D01*
X292617857Y-111150000D01*
X292713095Y-111245238D01*
X292760714Y-111340476D01*
X292808333Y-111530952D01*
X292808333Y-111673809D01*
X292760714Y-111864285D01*
X292713095Y-111959523D01*
X292617857Y-112054761D01*
X292475000Y-112102380D01*
X292236904Y-112102380D01*
X293760714Y-112102380D02*
X293189285Y-112102380D01*
X293475000Y-112102380D02*
X293475000Y-111102380D01*
X293379761Y-111245238D01*
X293284523Y-111340476D01*
X293189285Y-111388095D01*
X292286904Y-107102380D02*
X292286904Y-106102380D01*
X292525000Y-106102380D01*
X292667857Y-106150000D01*
X292763095Y-106245238D01*
X292810714Y-106340476D01*
X292858333Y-106530952D01*
X292858333Y-106673809D01*
X292810714Y-106864285D01*
X292763095Y-106959523D01*
X292667857Y-107054761D01*
X292525000Y-107102380D01*
X292286904Y-107102380D01*
X293239285Y-106197619D02*
X293286904Y-106150000D01*
X293382142Y-106102380D01*
X293620238Y-106102380D01*
X293715476Y-106150000D01*
X293763095Y-106197619D01*
X293810714Y-106292857D01*
X293810714Y-106388095D01*
X293763095Y-106530952D01*
X293191666Y-107102380D01*
X293810714Y-107102380D01*
X292236904Y-117102380D02*
X292236904Y-116102380D01*
X292475000Y-116102380D01*
X292617857Y-116150000D01*
X292713095Y-116245238D01*
X292760714Y-116340476D01*
X292808333Y-116530952D01*
X292808333Y-116673809D01*
X292760714Y-116864285D01*
X292713095Y-116959523D01*
X292617857Y-117054761D01*
X292475000Y-117102380D01*
X292236904Y-117102380D01*
X293141666Y-116102380D02*
X293760714Y-116102380D01*
X293427380Y-116483333D01*
X293570238Y-116483333D01*
X293665476Y-116530952D01*
X293713095Y-116578571D01*
X293760714Y-116673809D01*
X293760714Y-116911904D01*
X293713095Y-117007142D01*
X293665476Y-117054761D01*
X293570238Y-117102380D01*
X293284523Y-117102380D01*
X293189285Y-117054761D01*
X293141666Y-117007142D01*
X6952380Y-110333334D02*
X7666666Y-110333334D01*
X7809523Y-110380953D01*
X7904761Y-110476191D01*
X7952380Y-110619048D01*
X7952380Y-110714286D01*
X7952380Y-109333334D02*
X7952380Y-109904762D01*
X7952380Y-109619048D02*
X6952380Y-109619048D01*
X7095238Y-109714286D01*
X7190476Y-109809524D01*
X7238095Y-109904762D01*
X10588571Y-116619048D02*
X10588571Y-116285715D01*
X11112380Y-116142858D02*
X11112380Y-116619048D01*
X10112380Y-116619048D01*
X10112380Y-116142858D01*
X10112380Y-115238096D02*
X10112380Y-115714286D01*
X10588571Y-115761905D01*
X10540952Y-115714286D01*
X10493333Y-115619048D01*
X10493333Y-115380953D01*
X10540952Y-115285715D01*
X10588571Y-115238096D01*
X10683809Y-115190477D01*
X10921904Y-115190477D01*
X11017142Y-115238096D01*
X11064761Y-115285715D01*
X11112380Y-115380953D01*
X11112380Y-115619048D01*
X11064761Y-115714286D01*
X11017142Y-115761905D01*
X10112380Y-114285715D02*
X10112380Y-114761905D01*
X10588571Y-114809524D01*
X10540952Y-114761905D01*
X10493333Y-114666667D01*
X10493333Y-114428572D01*
X10540952Y-114333334D01*
X10588571Y-114285715D01*
X10683809Y-114238096D01*
X10921904Y-114238096D01*
X11017142Y-114285715D01*
X11064761Y-114333334D01*
X11112380Y-114428572D01*
X11112380Y-114666667D01*
X11064761Y-114761905D01*
X11017142Y-114809524D01*
X10112380Y-113380953D02*
X10112380Y-113571429D01*
X10160000Y-113666667D01*
X10207619Y-113714286D01*
X10350476Y-113809524D01*
X10540952Y-113857143D01*
X10921904Y-113857143D01*
X11017142Y-113809524D01*
X11064761Y-113761905D01*
X11112380Y-113666667D01*
X11112380Y-113476191D01*
X11064761Y-113380953D01*
X11017142Y-113333334D01*
X10921904Y-113285715D01*
X10683809Y-113285715D01*
X10588571Y-113333334D01*
X10540952Y-113380953D01*
X10493333Y-113476191D01*
X10493333Y-113666667D01*
X10540952Y-113761905D01*
X10588571Y-113809524D01*
X10683809Y-113857143D01*
X10112380Y-112428572D02*
X10112380Y-112619048D01*
X10160000Y-112714286D01*
X10207619Y-112761905D01*
X10350476Y-112857143D01*
X10540952Y-112904762D01*
X10921904Y-112904762D01*
X11017142Y-112857143D01*
X11064761Y-112809524D01*
X11112380Y-112714286D01*
X11112380Y-112523810D01*
X11064761Y-112428572D01*
X11017142Y-112380953D01*
X10921904Y-112333334D01*
X10683809Y-112333334D01*
X10588571Y-112380953D01*
X10540952Y-112428572D01*
X10493333Y-112523810D01*
X10493333Y-112714286D01*
X10540952Y-112809524D01*
X10588571Y-112857143D01*
X10683809Y-112904762D01*
X10731428Y-111904762D02*
X10731428Y-111142858D01*
X11207619Y-110000001D02*
X11160000Y-110095239D01*
X11064761Y-110190477D01*
X10921904Y-110333334D01*
X10874285Y-110428572D01*
X10874285Y-110523810D01*
X11112380Y-110476191D02*
X11064761Y-110571429D01*
X10969523Y-110666667D01*
X10779047Y-110714286D01*
X10445714Y-110714286D01*
X10255238Y-110666667D01*
X10160000Y-110571429D01*
X10112380Y-110476191D01*
X10112380Y-110285715D01*
X10160000Y-110190477D01*
X10255238Y-110095239D01*
X10445714Y-110047620D01*
X10779047Y-110047620D01*
X10969523Y-110095239D01*
X11064761Y-110190477D01*
X11112380Y-110285715D01*
X11112380Y-110476191D01*
X10112380Y-109428572D02*
X10112380Y-109333334D01*
X10160000Y-109238096D01*
X10207619Y-109190477D01*
X10302857Y-109142858D01*
X10493333Y-109095239D01*
X10731428Y-109095239D01*
X10921904Y-109142858D01*
X11017142Y-109190477D01*
X11064761Y-109238096D01*
X11112380Y-109333334D01*
X11112380Y-109428572D01*
X11064761Y-109523810D01*
X11017142Y-109571429D01*
X10921904Y-109619048D01*
X10731428Y-109666667D01*
X10493333Y-109666667D01*
X10302857Y-109619048D01*
X10207619Y-109571429D01*
X10160000Y-109523810D01*
X10112380Y-109428572D01*
X11112380Y-108190477D02*
X11112380Y-108666667D01*
X10112380Y-108666667D01*
X11112380Y-107857143D02*
X10112380Y-107857143D01*
X11112380Y-107285715D02*
X10540952Y-107714286D01*
X10112380Y-107285715D02*
X10683809Y-107857143D01*
X10207619Y-106904762D02*
X10160000Y-106857143D01*
X10112380Y-106761905D01*
X10112380Y-106523810D01*
X10160000Y-106428572D01*
X10207619Y-106380953D01*
X10302857Y-106333334D01*
X10398095Y-106333334D01*
X10540952Y-106380953D01*
X11112380Y-106952381D01*
X11112380Y-106333334D01*
X10207619Y-105952381D02*
X10160000Y-105904762D01*
X10112380Y-105809524D01*
X10112380Y-105571429D01*
X10160000Y-105476191D01*
X10207619Y-105428572D01*
X10302857Y-105380953D01*
X10398095Y-105380953D01*
X10540952Y-105428572D01*
X11112380Y-106000001D01*
X11112380Y-105380953D01*
X10731428Y-104952381D02*
X10731428Y-104190477D01*
X11112380Y-103238096D02*
X11112380Y-103714286D01*
X10112380Y-103714286D01*
X14952380Y-113000000D02*
X15190476Y-113000000D01*
X15095238Y-113238095D02*
X15190476Y-113000000D01*
X15095238Y-112761904D01*
X15380952Y-113142857D02*
X15190476Y-113000000D01*
X15380952Y-112857142D01*
M02*
