G04 #@! TF.GenerationSoftware,KiCad,Pcbnew,5.1.4-e60b266~84~ubuntu18.04.1*
G04 #@! TF.CreationDate,2019-10-03T16:33:51+02:00*
G04 #@! TF.ProjectId,External_PCB,45787465-726e-4616-9c5f-5043422e6b69,rev?*
G04 #@! TF.SameCoordinates,Original*
G04 #@! TF.FileFunction,Copper,L2,Bot*
G04 #@! TF.FilePolarity,Positive*
%FSLAX46Y46*%
G04 Gerber Fmt 4.6, Leading zero omitted, Abs format (unit mm)*
G04 Created by KiCad (PCBNEW 5.1.4-e60b266~84~ubuntu18.04.1) date 2019-10-03 16:33:51*
%MOMM*%
%LPD*%
G04 APERTURE LIST*
%ADD10C,1.524000*%
%ADD11C,1.397000*%
%ADD12C,0.800000*%
%ADD13C,0.254000*%
G04 APERTURE END LIST*
D10*
X279500000Y-112000000D03*
X279500000Y-110000000D03*
X279500000Y-108000000D03*
D11*
X15500000Y-113000000D03*
X12960000Y-111800000D03*
X15500000Y-110600000D03*
X12960000Y-109400000D03*
X15500000Y-108199999D03*
X12960000Y-106999999D03*
D12*
X296000000Y-117000000D03*
X275500000Y-108000000D03*
X15000000Y-105500000D03*
D13*
G36*
X298373000Y-118873000D02*
G01*
X1627000Y-118873000D01*
X1627000Y-115818628D01*
X8058500Y-115818628D01*
X8058500Y-116181372D01*
X8129268Y-116537146D01*
X8268084Y-116872277D01*
X8469614Y-117173888D01*
X8726112Y-117430386D01*
X9027723Y-117631916D01*
X9362854Y-117770732D01*
X9718628Y-117841500D01*
X10081372Y-117841500D01*
X10437146Y-117770732D01*
X10772277Y-117631916D01*
X11073888Y-117430386D01*
X11330386Y-117173888D01*
X11531916Y-116872277D01*
X11670732Y-116537146D01*
X11741500Y-116181372D01*
X11741500Y-115818628D01*
X11670732Y-115462854D01*
X11531916Y-115127723D01*
X11330386Y-114826112D01*
X11073888Y-114569614D01*
X10772277Y-114368084D01*
X10437146Y-114229268D01*
X10081372Y-114158500D01*
X9718628Y-114158500D01*
X9362854Y-114229268D01*
X9027723Y-114368084D01*
X8726112Y-114569614D01*
X8469614Y-114826112D01*
X8268084Y-115127723D01*
X8129268Y-115462854D01*
X8058500Y-115818628D01*
X1627000Y-115818628D01*
X1627000Y-109268662D01*
X11626500Y-109268662D01*
X11626500Y-109531338D01*
X11677746Y-109788968D01*
X11778268Y-110031649D01*
X11924203Y-110250057D01*
X12109943Y-110435797D01*
X12328351Y-110581732D01*
X12372454Y-110600000D01*
X12328351Y-110618268D01*
X12109943Y-110764203D01*
X11924203Y-110949943D01*
X11778268Y-111168351D01*
X11677746Y-111411032D01*
X11626500Y-111668662D01*
X11626500Y-111931338D01*
X11677746Y-112188968D01*
X11778268Y-112431649D01*
X11924203Y-112650057D01*
X12109943Y-112835797D01*
X12328351Y-112981732D01*
X12571032Y-113082254D01*
X12828662Y-113133500D01*
X13091338Y-113133500D01*
X13348968Y-113082254D01*
X13591649Y-112981732D01*
X13810057Y-112835797D01*
X13995797Y-112650057D01*
X14141732Y-112431649D01*
X14242254Y-112188968D01*
X14293500Y-111931338D01*
X14293500Y-111668662D01*
X14242254Y-111411032D01*
X14141732Y-111168351D01*
X13995797Y-110949943D01*
X13810057Y-110764203D01*
X13591649Y-110618268D01*
X13547546Y-110600000D01*
X13591649Y-110581732D01*
X13810057Y-110435797D01*
X13995797Y-110250057D01*
X14141732Y-110031649D01*
X14242254Y-109788968D01*
X14293500Y-109531338D01*
X14293500Y-109268662D01*
X14242254Y-109011032D01*
X14141732Y-108768351D01*
X13995797Y-108549943D01*
X13810057Y-108364203D01*
X13591649Y-108218268D01*
X13551688Y-108201716D01*
X13641314Y-108153811D01*
X13662920Y-108068661D01*
X14166500Y-108068661D01*
X14166500Y-108331337D01*
X14217746Y-108588967D01*
X14318268Y-108831648D01*
X14464203Y-109050056D01*
X14649943Y-109235796D01*
X14868351Y-109381731D01*
X14912455Y-109400000D01*
X14868351Y-109418268D01*
X14649943Y-109564203D01*
X14464203Y-109749943D01*
X14318268Y-109968351D01*
X14217746Y-110211032D01*
X14166500Y-110468662D01*
X14166500Y-110731338D01*
X14217746Y-110988968D01*
X14318268Y-111231649D01*
X14464203Y-111450057D01*
X14649943Y-111635797D01*
X14868351Y-111781732D01*
X14912454Y-111800000D01*
X14868351Y-111818268D01*
X14649943Y-111964203D01*
X14464203Y-112149943D01*
X14318268Y-112368351D01*
X14217746Y-112611032D01*
X14166500Y-112868662D01*
X14166500Y-113131338D01*
X14217746Y-113388968D01*
X14318268Y-113631649D01*
X14464203Y-113850057D01*
X14649943Y-114035797D01*
X14868351Y-114181732D01*
X15111032Y-114282254D01*
X15368662Y-114333500D01*
X15631338Y-114333500D01*
X15888968Y-114282254D01*
X16131649Y-114181732D01*
X16350057Y-114035797D01*
X16535797Y-113850057D01*
X16681732Y-113631649D01*
X16782254Y-113388968D01*
X16833500Y-113131338D01*
X16833500Y-112868662D01*
X16782254Y-112611032D01*
X16681732Y-112368351D01*
X16535797Y-112149943D01*
X16350057Y-111964203D01*
X16131649Y-111818268D01*
X16087546Y-111800000D01*
X16131649Y-111781732D01*
X16350057Y-111635797D01*
X16535797Y-111450057D01*
X16681732Y-111231649D01*
X16782254Y-110988968D01*
X16833500Y-110731338D01*
X16833500Y-110468662D01*
X16782254Y-110211032D01*
X16681732Y-109968351D01*
X16610944Y-109862408D01*
X278103000Y-109862408D01*
X278103000Y-110137592D01*
X278156686Y-110407490D01*
X278261995Y-110661727D01*
X278414880Y-110890535D01*
X278524345Y-111000000D01*
X278414880Y-111109465D01*
X278261995Y-111338273D01*
X278156686Y-111592510D01*
X278103000Y-111862408D01*
X278103000Y-112137592D01*
X278156686Y-112407490D01*
X278261995Y-112661727D01*
X278414880Y-112890535D01*
X278609465Y-113085120D01*
X278838273Y-113238005D01*
X279092510Y-113343314D01*
X279362408Y-113397000D01*
X279637592Y-113397000D01*
X279907490Y-113343314D01*
X280161727Y-113238005D01*
X280390535Y-113085120D01*
X280585120Y-112890535D01*
X280738005Y-112661727D01*
X280843314Y-112407490D01*
X280897000Y-112137592D01*
X280897000Y-111862408D01*
X280843314Y-111592510D01*
X280738005Y-111338273D01*
X280585120Y-111109465D01*
X280475655Y-111000000D01*
X280585120Y-110890535D01*
X280738005Y-110661727D01*
X280843314Y-110407490D01*
X280897000Y-110137592D01*
X280897000Y-109862408D01*
X280843314Y-109592510D01*
X280738005Y-109338273D01*
X280585120Y-109109465D01*
X280390535Y-108914880D01*
X280161727Y-108761995D01*
X280026290Y-108705895D01*
X279500000Y-108179605D01*
X278973710Y-108705895D01*
X278838273Y-108761995D01*
X278609465Y-108914880D01*
X278414880Y-109109465D01*
X278261995Y-109338273D01*
X278156686Y-109592510D01*
X278103000Y-109862408D01*
X16610944Y-109862408D01*
X16535797Y-109749943D01*
X16350057Y-109564203D01*
X16131649Y-109418268D01*
X16087545Y-109400000D01*
X16131649Y-109381731D01*
X16350057Y-109235796D01*
X16535797Y-109050056D01*
X16681732Y-108831648D01*
X16782254Y-108588967D01*
X16833500Y-108331337D01*
X16833500Y-108072017D01*
X278098090Y-108072017D01*
X278139078Y-108344133D01*
X278232364Y-108603023D01*
X278294344Y-108718980D01*
X278534435Y-108785960D01*
X279320395Y-108000000D01*
X279679605Y-108000000D01*
X280465565Y-108785960D01*
X280705656Y-108718980D01*
X280822756Y-108469952D01*
X280889023Y-108202865D01*
X280901910Y-107927983D01*
X280860922Y-107655867D01*
X280767636Y-107396977D01*
X280705656Y-107281020D01*
X280465565Y-107214040D01*
X279679605Y-108000000D01*
X279320395Y-108000000D01*
X278534435Y-107214040D01*
X278294344Y-107281020D01*
X278177244Y-107530048D01*
X278110977Y-107797135D01*
X278098090Y-108072017D01*
X16833500Y-108072017D01*
X16833500Y-108068661D01*
X16782254Y-107811031D01*
X16681732Y-107568350D01*
X16535797Y-107349942D01*
X16350057Y-107164202D01*
X16155847Y-107034435D01*
X278714040Y-107034435D01*
X279500000Y-107820395D01*
X280285960Y-107034435D01*
X280218980Y-106794344D01*
X279969952Y-106677244D01*
X279702865Y-106610977D01*
X279427983Y-106598090D01*
X279155867Y-106639078D01*
X278896977Y-106732364D01*
X278781020Y-106794344D01*
X278714040Y-107034435D01*
X16155847Y-107034435D01*
X16131649Y-107018267D01*
X15888968Y-106917745D01*
X15631338Y-106866499D01*
X15368662Y-106866499D01*
X15111032Y-106917745D01*
X14868351Y-107018267D01*
X14649943Y-107164202D01*
X14464203Y-107349942D01*
X14318268Y-107568350D01*
X14217746Y-107811031D01*
X14166500Y-108068661D01*
X13662920Y-108068661D01*
X13700592Y-107920196D01*
X12960000Y-107179604D01*
X12219408Y-107920196D01*
X12278686Y-108153811D01*
X12375401Y-108198779D01*
X12328351Y-108218268D01*
X12109943Y-108364203D01*
X11924203Y-108549943D01*
X11778268Y-108768351D01*
X11677746Y-109011032D01*
X11626500Y-109268662D01*
X1627000Y-109268662D01*
X1627000Y-107074532D01*
X11622124Y-107074532D01*
X11662371Y-107334106D01*
X11752486Y-107580841D01*
X11806188Y-107681313D01*
X12039803Y-107740591D01*
X12780395Y-106999999D01*
X13139605Y-106999999D01*
X13880197Y-107740591D01*
X14113812Y-107681313D01*
X14224559Y-107443124D01*
X14286711Y-107187906D01*
X14297876Y-106925466D01*
X14257629Y-106665892D01*
X14167514Y-106419157D01*
X14113812Y-106318685D01*
X13880197Y-106259407D01*
X13139605Y-106999999D01*
X12780395Y-106999999D01*
X12039803Y-106259407D01*
X11806188Y-106318685D01*
X11695441Y-106556874D01*
X11633289Y-106812092D01*
X11622124Y-107074532D01*
X1627000Y-107074532D01*
X1627000Y-106079802D01*
X12219408Y-106079802D01*
X12960000Y-106820394D01*
X13700592Y-106079802D01*
X13641314Y-105846187D01*
X13403125Y-105735440D01*
X13147907Y-105673288D01*
X12885467Y-105662123D01*
X12625893Y-105702370D01*
X12379158Y-105792485D01*
X12278686Y-105846187D01*
X12219408Y-106079802D01*
X1627000Y-106079802D01*
X1627000Y-103818630D01*
X8058500Y-103818630D01*
X8058500Y-104181374D01*
X8129268Y-104537148D01*
X8268084Y-104872279D01*
X8469614Y-105173890D01*
X8726112Y-105430388D01*
X9027723Y-105631918D01*
X9362854Y-105770734D01*
X9718628Y-105841502D01*
X10081372Y-105841502D01*
X10437146Y-105770734D01*
X10772277Y-105631918D01*
X11073888Y-105430388D01*
X11330386Y-105173890D01*
X11531916Y-104872279D01*
X11670732Y-104537148D01*
X11741500Y-104181374D01*
X11741500Y-103818630D01*
X11670732Y-103462856D01*
X11531916Y-103127725D01*
X11330386Y-102826114D01*
X11073888Y-102569616D01*
X10772277Y-102368086D01*
X10437146Y-102229270D01*
X10081372Y-102158502D01*
X9718628Y-102158502D01*
X9362854Y-102229270D01*
X9027723Y-102368086D01*
X8726112Y-102569616D01*
X8469614Y-102826114D01*
X8268084Y-103127725D01*
X8129268Y-103462856D01*
X8058500Y-103818630D01*
X1627000Y-103818630D01*
X1627000Y-101127000D01*
X298373000Y-101127000D01*
X298373000Y-118873000D01*
X298373000Y-118873000D01*
G37*
X298373000Y-118873000D02*
X1627000Y-118873000D01*
X1627000Y-115818628D01*
X8058500Y-115818628D01*
X8058500Y-116181372D01*
X8129268Y-116537146D01*
X8268084Y-116872277D01*
X8469614Y-117173888D01*
X8726112Y-117430386D01*
X9027723Y-117631916D01*
X9362854Y-117770732D01*
X9718628Y-117841500D01*
X10081372Y-117841500D01*
X10437146Y-117770732D01*
X10772277Y-117631916D01*
X11073888Y-117430386D01*
X11330386Y-117173888D01*
X11531916Y-116872277D01*
X11670732Y-116537146D01*
X11741500Y-116181372D01*
X11741500Y-115818628D01*
X11670732Y-115462854D01*
X11531916Y-115127723D01*
X11330386Y-114826112D01*
X11073888Y-114569614D01*
X10772277Y-114368084D01*
X10437146Y-114229268D01*
X10081372Y-114158500D01*
X9718628Y-114158500D01*
X9362854Y-114229268D01*
X9027723Y-114368084D01*
X8726112Y-114569614D01*
X8469614Y-114826112D01*
X8268084Y-115127723D01*
X8129268Y-115462854D01*
X8058500Y-115818628D01*
X1627000Y-115818628D01*
X1627000Y-109268662D01*
X11626500Y-109268662D01*
X11626500Y-109531338D01*
X11677746Y-109788968D01*
X11778268Y-110031649D01*
X11924203Y-110250057D01*
X12109943Y-110435797D01*
X12328351Y-110581732D01*
X12372454Y-110600000D01*
X12328351Y-110618268D01*
X12109943Y-110764203D01*
X11924203Y-110949943D01*
X11778268Y-111168351D01*
X11677746Y-111411032D01*
X11626500Y-111668662D01*
X11626500Y-111931338D01*
X11677746Y-112188968D01*
X11778268Y-112431649D01*
X11924203Y-112650057D01*
X12109943Y-112835797D01*
X12328351Y-112981732D01*
X12571032Y-113082254D01*
X12828662Y-113133500D01*
X13091338Y-113133500D01*
X13348968Y-113082254D01*
X13591649Y-112981732D01*
X13810057Y-112835797D01*
X13995797Y-112650057D01*
X14141732Y-112431649D01*
X14242254Y-112188968D01*
X14293500Y-111931338D01*
X14293500Y-111668662D01*
X14242254Y-111411032D01*
X14141732Y-111168351D01*
X13995797Y-110949943D01*
X13810057Y-110764203D01*
X13591649Y-110618268D01*
X13547546Y-110600000D01*
X13591649Y-110581732D01*
X13810057Y-110435797D01*
X13995797Y-110250057D01*
X14141732Y-110031649D01*
X14242254Y-109788968D01*
X14293500Y-109531338D01*
X14293500Y-109268662D01*
X14242254Y-109011032D01*
X14141732Y-108768351D01*
X13995797Y-108549943D01*
X13810057Y-108364203D01*
X13591649Y-108218268D01*
X13551688Y-108201716D01*
X13641314Y-108153811D01*
X13662920Y-108068661D01*
X14166500Y-108068661D01*
X14166500Y-108331337D01*
X14217746Y-108588967D01*
X14318268Y-108831648D01*
X14464203Y-109050056D01*
X14649943Y-109235796D01*
X14868351Y-109381731D01*
X14912455Y-109400000D01*
X14868351Y-109418268D01*
X14649943Y-109564203D01*
X14464203Y-109749943D01*
X14318268Y-109968351D01*
X14217746Y-110211032D01*
X14166500Y-110468662D01*
X14166500Y-110731338D01*
X14217746Y-110988968D01*
X14318268Y-111231649D01*
X14464203Y-111450057D01*
X14649943Y-111635797D01*
X14868351Y-111781732D01*
X14912454Y-111800000D01*
X14868351Y-111818268D01*
X14649943Y-111964203D01*
X14464203Y-112149943D01*
X14318268Y-112368351D01*
X14217746Y-112611032D01*
X14166500Y-112868662D01*
X14166500Y-113131338D01*
X14217746Y-113388968D01*
X14318268Y-113631649D01*
X14464203Y-113850057D01*
X14649943Y-114035797D01*
X14868351Y-114181732D01*
X15111032Y-114282254D01*
X15368662Y-114333500D01*
X15631338Y-114333500D01*
X15888968Y-114282254D01*
X16131649Y-114181732D01*
X16350057Y-114035797D01*
X16535797Y-113850057D01*
X16681732Y-113631649D01*
X16782254Y-113388968D01*
X16833500Y-113131338D01*
X16833500Y-112868662D01*
X16782254Y-112611032D01*
X16681732Y-112368351D01*
X16535797Y-112149943D01*
X16350057Y-111964203D01*
X16131649Y-111818268D01*
X16087546Y-111800000D01*
X16131649Y-111781732D01*
X16350057Y-111635797D01*
X16535797Y-111450057D01*
X16681732Y-111231649D01*
X16782254Y-110988968D01*
X16833500Y-110731338D01*
X16833500Y-110468662D01*
X16782254Y-110211032D01*
X16681732Y-109968351D01*
X16610944Y-109862408D01*
X278103000Y-109862408D01*
X278103000Y-110137592D01*
X278156686Y-110407490D01*
X278261995Y-110661727D01*
X278414880Y-110890535D01*
X278524345Y-111000000D01*
X278414880Y-111109465D01*
X278261995Y-111338273D01*
X278156686Y-111592510D01*
X278103000Y-111862408D01*
X278103000Y-112137592D01*
X278156686Y-112407490D01*
X278261995Y-112661727D01*
X278414880Y-112890535D01*
X278609465Y-113085120D01*
X278838273Y-113238005D01*
X279092510Y-113343314D01*
X279362408Y-113397000D01*
X279637592Y-113397000D01*
X279907490Y-113343314D01*
X280161727Y-113238005D01*
X280390535Y-113085120D01*
X280585120Y-112890535D01*
X280738005Y-112661727D01*
X280843314Y-112407490D01*
X280897000Y-112137592D01*
X280897000Y-111862408D01*
X280843314Y-111592510D01*
X280738005Y-111338273D01*
X280585120Y-111109465D01*
X280475655Y-111000000D01*
X280585120Y-110890535D01*
X280738005Y-110661727D01*
X280843314Y-110407490D01*
X280897000Y-110137592D01*
X280897000Y-109862408D01*
X280843314Y-109592510D01*
X280738005Y-109338273D01*
X280585120Y-109109465D01*
X280390535Y-108914880D01*
X280161727Y-108761995D01*
X280026290Y-108705895D01*
X279500000Y-108179605D01*
X278973710Y-108705895D01*
X278838273Y-108761995D01*
X278609465Y-108914880D01*
X278414880Y-109109465D01*
X278261995Y-109338273D01*
X278156686Y-109592510D01*
X278103000Y-109862408D01*
X16610944Y-109862408D01*
X16535797Y-109749943D01*
X16350057Y-109564203D01*
X16131649Y-109418268D01*
X16087545Y-109400000D01*
X16131649Y-109381731D01*
X16350057Y-109235796D01*
X16535797Y-109050056D01*
X16681732Y-108831648D01*
X16782254Y-108588967D01*
X16833500Y-108331337D01*
X16833500Y-108072017D01*
X278098090Y-108072017D01*
X278139078Y-108344133D01*
X278232364Y-108603023D01*
X278294344Y-108718980D01*
X278534435Y-108785960D01*
X279320395Y-108000000D01*
X279679605Y-108000000D01*
X280465565Y-108785960D01*
X280705656Y-108718980D01*
X280822756Y-108469952D01*
X280889023Y-108202865D01*
X280901910Y-107927983D01*
X280860922Y-107655867D01*
X280767636Y-107396977D01*
X280705656Y-107281020D01*
X280465565Y-107214040D01*
X279679605Y-108000000D01*
X279320395Y-108000000D01*
X278534435Y-107214040D01*
X278294344Y-107281020D01*
X278177244Y-107530048D01*
X278110977Y-107797135D01*
X278098090Y-108072017D01*
X16833500Y-108072017D01*
X16833500Y-108068661D01*
X16782254Y-107811031D01*
X16681732Y-107568350D01*
X16535797Y-107349942D01*
X16350057Y-107164202D01*
X16155847Y-107034435D01*
X278714040Y-107034435D01*
X279500000Y-107820395D01*
X280285960Y-107034435D01*
X280218980Y-106794344D01*
X279969952Y-106677244D01*
X279702865Y-106610977D01*
X279427983Y-106598090D01*
X279155867Y-106639078D01*
X278896977Y-106732364D01*
X278781020Y-106794344D01*
X278714040Y-107034435D01*
X16155847Y-107034435D01*
X16131649Y-107018267D01*
X15888968Y-106917745D01*
X15631338Y-106866499D01*
X15368662Y-106866499D01*
X15111032Y-106917745D01*
X14868351Y-107018267D01*
X14649943Y-107164202D01*
X14464203Y-107349942D01*
X14318268Y-107568350D01*
X14217746Y-107811031D01*
X14166500Y-108068661D01*
X13662920Y-108068661D01*
X13700592Y-107920196D01*
X12960000Y-107179604D01*
X12219408Y-107920196D01*
X12278686Y-108153811D01*
X12375401Y-108198779D01*
X12328351Y-108218268D01*
X12109943Y-108364203D01*
X11924203Y-108549943D01*
X11778268Y-108768351D01*
X11677746Y-109011032D01*
X11626500Y-109268662D01*
X1627000Y-109268662D01*
X1627000Y-107074532D01*
X11622124Y-107074532D01*
X11662371Y-107334106D01*
X11752486Y-107580841D01*
X11806188Y-107681313D01*
X12039803Y-107740591D01*
X12780395Y-106999999D01*
X13139605Y-106999999D01*
X13880197Y-107740591D01*
X14113812Y-107681313D01*
X14224559Y-107443124D01*
X14286711Y-107187906D01*
X14297876Y-106925466D01*
X14257629Y-106665892D01*
X14167514Y-106419157D01*
X14113812Y-106318685D01*
X13880197Y-106259407D01*
X13139605Y-106999999D01*
X12780395Y-106999999D01*
X12039803Y-106259407D01*
X11806188Y-106318685D01*
X11695441Y-106556874D01*
X11633289Y-106812092D01*
X11622124Y-107074532D01*
X1627000Y-107074532D01*
X1627000Y-106079802D01*
X12219408Y-106079802D01*
X12960000Y-106820394D01*
X13700592Y-106079802D01*
X13641314Y-105846187D01*
X13403125Y-105735440D01*
X13147907Y-105673288D01*
X12885467Y-105662123D01*
X12625893Y-105702370D01*
X12379158Y-105792485D01*
X12278686Y-105846187D01*
X12219408Y-106079802D01*
X1627000Y-106079802D01*
X1627000Y-103818630D01*
X8058500Y-103818630D01*
X8058500Y-104181374D01*
X8129268Y-104537148D01*
X8268084Y-104872279D01*
X8469614Y-105173890D01*
X8726112Y-105430388D01*
X9027723Y-105631918D01*
X9362854Y-105770734D01*
X9718628Y-105841502D01*
X10081372Y-105841502D01*
X10437146Y-105770734D01*
X10772277Y-105631918D01*
X11073888Y-105430388D01*
X11330386Y-105173890D01*
X11531916Y-104872279D01*
X11670732Y-104537148D01*
X11741500Y-104181374D01*
X11741500Y-103818630D01*
X11670732Y-103462856D01*
X11531916Y-103127725D01*
X11330386Y-102826114D01*
X11073888Y-102569616D01*
X10772277Y-102368086D01*
X10437146Y-102229270D01*
X10081372Y-102158502D01*
X9718628Y-102158502D01*
X9362854Y-102229270D01*
X9027723Y-102368086D01*
X8726112Y-102569616D01*
X8469614Y-102826114D01*
X8268084Y-103127725D01*
X8129268Y-103462856D01*
X8058500Y-103818630D01*
X1627000Y-103818630D01*
X1627000Y-101127000D01*
X298373000Y-101127000D01*
X298373000Y-118873000D01*
M02*
