G04 #@! TF.GenerationSoftware,KiCad,Pcbnew,5.1.4-e60b266~84~ubuntu18.04.1*
G04 #@! TF.CreationDate,2019-10-03T16:33:51+02:00*
G04 #@! TF.ProjectId,External_PCB,45787465-726e-4616-9c5f-5043422e6b69,rev?*
G04 #@! TF.SameCoordinates,Original*
G04 #@! TF.FileFunction,Soldermask,Top*
G04 #@! TF.FilePolarity,Negative*
%FSLAX46Y46*%
G04 Gerber Fmt 4.6, Leading zero omitted, Abs format (unit mm)*
G04 Created by KiCad (PCBNEW 5.1.4-e60b266~84~ubuntu18.04.1) date 2019-10-03 16:33:51*
%MOMM*%
%LPD*%
G04 APERTURE LIST*
%ADD10C,0.100000*%
G04 APERTURE END LIST*
D10*
G36*
X10145326Y-114766663D02*
G01*
X10266799Y-114790825D01*
X10495650Y-114885618D01*
X10701610Y-115023236D01*
X10876764Y-115198390D01*
X11014382Y-115404350D01*
X11109175Y-115633201D01*
X11157500Y-115876147D01*
X11157500Y-116123853D01*
X11109175Y-116366799D01*
X11014382Y-116595650D01*
X10876764Y-116801610D01*
X10701610Y-116976764D01*
X10495650Y-117114382D01*
X10266799Y-117209175D01*
X10145326Y-117233338D01*
X10023854Y-117257500D01*
X9776146Y-117257500D01*
X9654674Y-117233338D01*
X9533201Y-117209175D01*
X9304350Y-117114382D01*
X9098390Y-116976764D01*
X8923236Y-116801610D01*
X8785618Y-116595650D01*
X8690825Y-116366799D01*
X8642500Y-116123853D01*
X8642500Y-115876147D01*
X8690825Y-115633201D01*
X8785618Y-115404350D01*
X8923236Y-115198390D01*
X9098390Y-115023236D01*
X9304350Y-114885618D01*
X9533201Y-114790825D01*
X9654674Y-114766663D01*
X9776146Y-114742500D01*
X10023854Y-114742500D01*
X10145326Y-114766663D01*
X10145326Y-114766663D01*
G37*
G36*
X294463674Y-114253465D02*
G01*
X294501367Y-114264899D01*
X294536103Y-114283466D01*
X294566548Y-114308452D01*
X294591534Y-114338897D01*
X294610101Y-114373633D01*
X294621535Y-114411326D01*
X294626000Y-114456661D01*
X294626000Y-115543339D01*
X294621535Y-115588674D01*
X294610101Y-115626367D01*
X294591534Y-115661103D01*
X294566548Y-115691548D01*
X294536103Y-115716534D01*
X294501367Y-115735101D01*
X294463674Y-115746535D01*
X294418339Y-115751000D01*
X293581661Y-115751000D01*
X293536326Y-115746535D01*
X293498633Y-115735101D01*
X293463897Y-115716534D01*
X293433452Y-115691548D01*
X293408466Y-115661103D01*
X293389899Y-115626367D01*
X293378465Y-115588674D01*
X293374000Y-115543339D01*
X293374000Y-114456661D01*
X293378465Y-114411326D01*
X293389899Y-114373633D01*
X293408466Y-114338897D01*
X293433452Y-114308452D01*
X293463897Y-114283466D01*
X293498633Y-114264899D01*
X293536326Y-114253465D01*
X293581661Y-114249000D01*
X294418339Y-114249000D01*
X294463674Y-114253465D01*
X294463674Y-114253465D01*
G37*
G36*
X292413674Y-114253465D02*
G01*
X292451367Y-114264899D01*
X292486103Y-114283466D01*
X292516548Y-114308452D01*
X292541534Y-114338897D01*
X292560101Y-114373633D01*
X292571535Y-114411326D01*
X292576000Y-114456661D01*
X292576000Y-115543339D01*
X292571535Y-115588674D01*
X292560101Y-115626367D01*
X292541534Y-115661103D01*
X292516548Y-115691548D01*
X292486103Y-115716534D01*
X292451367Y-115735101D01*
X292413674Y-115746535D01*
X292368339Y-115751000D01*
X291531661Y-115751000D01*
X291486326Y-115746535D01*
X291448633Y-115735101D01*
X291413897Y-115716534D01*
X291383452Y-115691548D01*
X291358466Y-115661103D01*
X291339899Y-115626367D01*
X291328465Y-115588674D01*
X291324000Y-115543339D01*
X291324000Y-114456661D01*
X291328465Y-114411326D01*
X291339899Y-114373633D01*
X291358466Y-114338897D01*
X291383452Y-114308452D01*
X291413897Y-114283466D01*
X291448633Y-114264899D01*
X291486326Y-114253465D01*
X291531661Y-114249000D01*
X292368339Y-114249000D01*
X292413674Y-114253465D01*
X292413674Y-114253465D01*
G37*
G36*
X15594425Y-112254599D02*
G01*
X15718621Y-112279302D01*
X15855022Y-112335801D01*
X15977779Y-112417825D01*
X16082175Y-112522221D01*
X16164199Y-112644978D01*
X16220698Y-112781379D01*
X16249500Y-112926181D01*
X16249500Y-113073819D01*
X16220698Y-113218621D01*
X16164199Y-113355022D01*
X16082175Y-113477779D01*
X15977779Y-113582175D01*
X15855022Y-113664199D01*
X15718621Y-113720698D01*
X15594425Y-113745401D01*
X15573820Y-113749500D01*
X15426180Y-113749500D01*
X15405575Y-113745401D01*
X15281379Y-113720698D01*
X15144978Y-113664199D01*
X15022221Y-113582175D01*
X14917825Y-113477779D01*
X14835801Y-113355022D01*
X14779302Y-113218621D01*
X14750500Y-113073819D01*
X14750500Y-112926181D01*
X14779302Y-112781379D01*
X14835801Y-112644978D01*
X14917825Y-112522221D01*
X15022221Y-112417825D01*
X15144978Y-112335801D01*
X15281379Y-112279302D01*
X15405575Y-112254599D01*
X15426180Y-112250500D01*
X15573820Y-112250500D01*
X15594425Y-112254599D01*
X15594425Y-112254599D01*
G37*
G36*
X279737142Y-111218242D02*
G01*
X279885101Y-111279529D01*
X280018255Y-111368499D01*
X280131501Y-111481745D01*
X280220471Y-111614899D01*
X280281758Y-111762858D01*
X280313000Y-111919925D01*
X280313000Y-112080075D01*
X280281758Y-112237142D01*
X280220471Y-112385101D01*
X280131501Y-112518255D01*
X280018255Y-112631501D01*
X279885101Y-112720471D01*
X279737142Y-112781758D01*
X279580075Y-112813000D01*
X279419925Y-112813000D01*
X279262858Y-112781758D01*
X279114899Y-112720471D01*
X278981745Y-112631501D01*
X278868499Y-112518255D01*
X278779529Y-112385101D01*
X278718242Y-112237142D01*
X278687000Y-112080075D01*
X278687000Y-111919925D01*
X278718242Y-111762858D01*
X278779529Y-111614899D01*
X278868499Y-111481745D01*
X278981745Y-111368499D01*
X279114899Y-111279529D01*
X279262858Y-111218242D01*
X279419925Y-111187000D01*
X279580075Y-111187000D01*
X279737142Y-111218242D01*
X279737142Y-111218242D01*
G37*
G36*
X13054425Y-111054599D02*
G01*
X13178621Y-111079302D01*
X13315022Y-111135801D01*
X13437779Y-111217825D01*
X13542175Y-111322221D01*
X13624199Y-111444978D01*
X13680698Y-111581379D01*
X13709500Y-111726181D01*
X13709500Y-111873819D01*
X13680698Y-112018621D01*
X13624199Y-112155022D01*
X13542175Y-112277779D01*
X13437779Y-112382175D01*
X13315022Y-112464199D01*
X13178621Y-112520698D01*
X13054425Y-112545401D01*
X13033820Y-112549500D01*
X12886180Y-112549500D01*
X12865575Y-112545401D01*
X12741379Y-112520698D01*
X12604978Y-112464199D01*
X12482221Y-112382175D01*
X12377825Y-112277779D01*
X12295801Y-112155022D01*
X12239302Y-112018621D01*
X12210500Y-111873819D01*
X12210500Y-111726181D01*
X12239302Y-111581379D01*
X12295801Y-111444978D01*
X12377825Y-111322221D01*
X12482221Y-111217825D01*
X12604978Y-111135801D01*
X12741379Y-111079302D01*
X12865575Y-111054599D01*
X12886180Y-111050500D01*
X13033820Y-111050500D01*
X13054425Y-111054599D01*
X13054425Y-111054599D01*
G37*
G36*
X15594425Y-109854599D02*
G01*
X15718621Y-109879302D01*
X15855022Y-109935801D01*
X15977779Y-110017825D01*
X16082175Y-110122221D01*
X16164199Y-110244978D01*
X16220698Y-110381379D01*
X16240081Y-110478827D01*
X16247924Y-110518255D01*
X16249500Y-110526181D01*
X16249500Y-110673819D01*
X16220698Y-110818621D01*
X16164199Y-110955022D01*
X16082175Y-111077779D01*
X15977779Y-111182175D01*
X15855022Y-111264199D01*
X15718621Y-111320698D01*
X15594425Y-111345401D01*
X15573820Y-111349500D01*
X15426180Y-111349500D01*
X15405575Y-111345401D01*
X15281379Y-111320698D01*
X15144978Y-111264199D01*
X15022221Y-111182175D01*
X14917825Y-111077779D01*
X14835801Y-110955022D01*
X14779302Y-110818621D01*
X14750500Y-110673819D01*
X14750500Y-110526181D01*
X14752077Y-110518255D01*
X14759919Y-110478827D01*
X14779302Y-110381379D01*
X14835801Y-110244978D01*
X14917825Y-110122221D01*
X15022221Y-110017825D01*
X15144978Y-109935801D01*
X15281379Y-109879302D01*
X15405575Y-109854599D01*
X15426180Y-109850500D01*
X15573820Y-109850500D01*
X15594425Y-109854599D01*
X15594425Y-109854599D01*
G37*
G36*
X279737142Y-109218242D02*
G01*
X279885101Y-109279529D01*
X280018255Y-109368499D01*
X280131501Y-109481745D01*
X280220471Y-109614899D01*
X280281758Y-109762858D01*
X280313000Y-109919925D01*
X280313000Y-110080075D01*
X280281758Y-110237142D01*
X280220471Y-110385101D01*
X280131501Y-110518255D01*
X280018255Y-110631501D01*
X279885101Y-110720471D01*
X279737142Y-110781758D01*
X279580075Y-110813000D01*
X279419925Y-110813000D01*
X279262858Y-110781758D01*
X279114899Y-110720471D01*
X278981745Y-110631501D01*
X278868499Y-110518255D01*
X278779529Y-110385101D01*
X278718242Y-110237142D01*
X278687000Y-110080075D01*
X278687000Y-109919925D01*
X278718242Y-109762858D01*
X278779529Y-109614899D01*
X278868499Y-109481745D01*
X278981745Y-109368499D01*
X279114899Y-109279529D01*
X279262858Y-109218242D01*
X279419925Y-109187000D01*
X279580075Y-109187000D01*
X279737142Y-109218242D01*
X279737142Y-109218242D01*
G37*
G36*
X292413674Y-109253465D02*
G01*
X292451367Y-109264899D01*
X292486103Y-109283466D01*
X292516548Y-109308452D01*
X292541534Y-109338897D01*
X292560101Y-109373633D01*
X292571535Y-109411326D01*
X292576000Y-109456661D01*
X292576000Y-110543339D01*
X292571535Y-110588674D01*
X292560101Y-110626367D01*
X292541534Y-110661103D01*
X292516548Y-110691548D01*
X292486103Y-110716534D01*
X292451367Y-110735101D01*
X292413674Y-110746535D01*
X292368339Y-110751000D01*
X291531661Y-110751000D01*
X291486326Y-110746535D01*
X291448633Y-110735101D01*
X291413897Y-110716534D01*
X291383452Y-110691548D01*
X291358466Y-110661103D01*
X291339899Y-110626367D01*
X291328465Y-110588674D01*
X291324000Y-110543339D01*
X291324000Y-109456661D01*
X291328465Y-109411326D01*
X291339899Y-109373633D01*
X291358466Y-109338897D01*
X291383452Y-109308452D01*
X291413897Y-109283466D01*
X291448633Y-109264899D01*
X291486326Y-109253465D01*
X291531661Y-109249000D01*
X292368339Y-109249000D01*
X292413674Y-109253465D01*
X292413674Y-109253465D01*
G37*
G36*
X294463674Y-109253465D02*
G01*
X294501367Y-109264899D01*
X294536103Y-109283466D01*
X294566548Y-109308452D01*
X294591534Y-109338897D01*
X294610101Y-109373633D01*
X294621535Y-109411326D01*
X294626000Y-109456661D01*
X294626000Y-110543339D01*
X294621535Y-110588674D01*
X294610101Y-110626367D01*
X294591534Y-110661103D01*
X294566548Y-110691548D01*
X294536103Y-110716534D01*
X294501367Y-110735101D01*
X294463674Y-110746535D01*
X294418339Y-110751000D01*
X293581661Y-110751000D01*
X293536326Y-110746535D01*
X293498633Y-110735101D01*
X293463897Y-110716534D01*
X293433452Y-110691548D01*
X293408466Y-110661103D01*
X293389899Y-110626367D01*
X293378465Y-110588674D01*
X293374000Y-110543339D01*
X293374000Y-109456661D01*
X293378465Y-109411326D01*
X293389899Y-109373633D01*
X293408466Y-109338897D01*
X293433452Y-109308452D01*
X293463897Y-109283466D01*
X293498633Y-109264899D01*
X293536326Y-109253465D01*
X293581661Y-109249000D01*
X294418339Y-109249000D01*
X294463674Y-109253465D01*
X294463674Y-109253465D01*
G37*
G36*
X13054425Y-108654599D02*
G01*
X13178621Y-108679302D01*
X13315022Y-108735801D01*
X13437779Y-108817825D01*
X13542175Y-108922221D01*
X13624199Y-109044978D01*
X13680698Y-109181379D01*
X13701004Y-109283466D01*
X13709500Y-109326180D01*
X13709500Y-109473820D01*
X13705401Y-109494425D01*
X13680698Y-109618621D01*
X13624199Y-109755022D01*
X13542175Y-109877779D01*
X13437779Y-109982175D01*
X13315022Y-110064199D01*
X13178621Y-110120698D01*
X13054425Y-110145401D01*
X13033820Y-110149500D01*
X12886180Y-110149500D01*
X12865575Y-110145401D01*
X12741379Y-110120698D01*
X12604978Y-110064199D01*
X12482221Y-109982175D01*
X12377825Y-109877779D01*
X12295801Y-109755022D01*
X12239302Y-109618621D01*
X12214599Y-109494425D01*
X12210500Y-109473820D01*
X12210500Y-109326180D01*
X12218996Y-109283466D01*
X12239302Y-109181379D01*
X12295801Y-109044978D01*
X12377825Y-108922221D01*
X12482221Y-108817825D01*
X12604978Y-108735801D01*
X12741379Y-108679302D01*
X12865575Y-108654599D01*
X12886180Y-108650500D01*
X13033820Y-108650500D01*
X13054425Y-108654599D01*
X13054425Y-108654599D01*
G37*
G36*
X15594425Y-107454598D02*
G01*
X15718621Y-107479301D01*
X15855022Y-107535800D01*
X15977779Y-107617824D01*
X16082175Y-107722220D01*
X16164199Y-107844977D01*
X16220698Y-107981378D01*
X16249500Y-108126180D01*
X16249500Y-108273818D01*
X16220698Y-108418620D01*
X16164199Y-108555021D01*
X16082175Y-108677778D01*
X15977779Y-108782174D01*
X15855022Y-108864198D01*
X15718621Y-108920697D01*
X15594425Y-108945400D01*
X15573820Y-108949499D01*
X15426180Y-108949499D01*
X15405575Y-108945400D01*
X15281379Y-108920697D01*
X15144978Y-108864198D01*
X15022221Y-108782174D01*
X14917825Y-108677778D01*
X14835801Y-108555021D01*
X14779302Y-108418620D01*
X14750500Y-108273818D01*
X14750500Y-108126180D01*
X14779302Y-107981378D01*
X14835801Y-107844977D01*
X14917825Y-107722220D01*
X15022221Y-107617824D01*
X15144978Y-107535800D01*
X15281379Y-107479301D01*
X15405575Y-107454598D01*
X15426180Y-107450499D01*
X15573820Y-107450499D01*
X15594425Y-107454598D01*
X15594425Y-107454598D01*
G37*
G36*
X279737142Y-107218242D02*
G01*
X279885101Y-107279529D01*
X280018255Y-107368499D01*
X280131501Y-107481745D01*
X280220471Y-107614899D01*
X280281758Y-107762858D01*
X280313000Y-107919925D01*
X280313000Y-108080075D01*
X280281758Y-108237142D01*
X280220471Y-108385101D01*
X280131501Y-108518255D01*
X280018255Y-108631501D01*
X279885101Y-108720471D01*
X279737142Y-108781758D01*
X279580075Y-108813000D01*
X279419925Y-108813000D01*
X279262858Y-108781758D01*
X279114899Y-108720471D01*
X278981745Y-108631501D01*
X278868499Y-108518255D01*
X278779529Y-108385101D01*
X278718242Y-108237142D01*
X278687000Y-108080075D01*
X278687000Y-107919925D01*
X278718242Y-107762858D01*
X278779529Y-107614899D01*
X278868499Y-107481745D01*
X278981745Y-107368499D01*
X279114899Y-107279529D01*
X279262858Y-107218242D01*
X279419925Y-107187000D01*
X279580075Y-107187000D01*
X279737142Y-107218242D01*
X279737142Y-107218242D01*
G37*
G36*
X13054425Y-106254598D02*
G01*
X13178621Y-106279301D01*
X13315022Y-106335800D01*
X13437779Y-106417824D01*
X13542175Y-106522220D01*
X13624199Y-106644977D01*
X13680698Y-106781378D01*
X13709500Y-106926180D01*
X13709500Y-107073818D01*
X13680698Y-107218620D01*
X13624199Y-107355021D01*
X13542175Y-107477778D01*
X13437779Y-107582174D01*
X13315022Y-107664198D01*
X13178621Y-107720697D01*
X13054425Y-107745400D01*
X13033820Y-107749499D01*
X12886180Y-107749499D01*
X12865575Y-107745400D01*
X12741379Y-107720697D01*
X12604978Y-107664198D01*
X12482221Y-107582174D01*
X12377825Y-107477778D01*
X12295801Y-107355021D01*
X12239302Y-107218620D01*
X12210500Y-107073818D01*
X12210500Y-106926180D01*
X12239302Y-106781378D01*
X12295801Y-106644977D01*
X12377825Y-106522220D01*
X12482221Y-106417824D01*
X12604978Y-106335800D01*
X12741379Y-106279301D01*
X12865575Y-106254598D01*
X12886180Y-106250499D01*
X13033820Y-106250499D01*
X13054425Y-106254598D01*
X13054425Y-106254598D01*
G37*
G36*
X294513674Y-104253465D02*
G01*
X294551367Y-104264899D01*
X294586103Y-104283466D01*
X294616548Y-104308452D01*
X294641534Y-104338897D01*
X294660101Y-104373633D01*
X294671535Y-104411326D01*
X294676000Y-104456661D01*
X294676000Y-105543339D01*
X294671535Y-105588674D01*
X294660101Y-105626367D01*
X294641534Y-105661103D01*
X294616548Y-105691548D01*
X294586103Y-105716534D01*
X294551367Y-105735101D01*
X294513674Y-105746535D01*
X294468339Y-105751000D01*
X293631661Y-105751000D01*
X293586326Y-105746535D01*
X293548633Y-105735101D01*
X293513897Y-105716534D01*
X293483452Y-105691548D01*
X293458466Y-105661103D01*
X293439899Y-105626367D01*
X293428465Y-105588674D01*
X293424000Y-105543339D01*
X293424000Y-104456661D01*
X293428465Y-104411326D01*
X293439899Y-104373633D01*
X293458466Y-104338897D01*
X293483452Y-104308452D01*
X293513897Y-104283466D01*
X293548633Y-104264899D01*
X293586326Y-104253465D01*
X293631661Y-104249000D01*
X294468339Y-104249000D01*
X294513674Y-104253465D01*
X294513674Y-104253465D01*
G37*
G36*
X292463674Y-104253465D02*
G01*
X292501367Y-104264899D01*
X292536103Y-104283466D01*
X292566548Y-104308452D01*
X292591534Y-104338897D01*
X292610101Y-104373633D01*
X292621535Y-104411326D01*
X292626000Y-104456661D01*
X292626000Y-105543339D01*
X292621535Y-105588674D01*
X292610101Y-105626367D01*
X292591534Y-105661103D01*
X292566548Y-105691548D01*
X292536103Y-105716534D01*
X292501367Y-105735101D01*
X292463674Y-105746535D01*
X292418339Y-105751000D01*
X291581661Y-105751000D01*
X291536326Y-105746535D01*
X291498633Y-105735101D01*
X291463897Y-105716534D01*
X291433452Y-105691548D01*
X291408466Y-105661103D01*
X291389899Y-105626367D01*
X291378465Y-105588674D01*
X291374000Y-105543339D01*
X291374000Y-104456661D01*
X291378465Y-104411326D01*
X291389899Y-104373633D01*
X291408466Y-104338897D01*
X291433452Y-104308452D01*
X291463897Y-104283466D01*
X291498633Y-104264899D01*
X291536326Y-104253465D01*
X291581661Y-104249000D01*
X292418339Y-104249000D01*
X292463674Y-104253465D01*
X292463674Y-104253465D01*
G37*
G36*
X10145326Y-102766664D02*
G01*
X10266799Y-102790827D01*
X10495650Y-102885620D01*
X10701610Y-103023238D01*
X10876764Y-103198392D01*
X11014382Y-103404352D01*
X11109175Y-103633203D01*
X11157500Y-103876149D01*
X11157500Y-104123855D01*
X11109175Y-104366801D01*
X11014382Y-104595652D01*
X10876764Y-104801612D01*
X10701610Y-104976766D01*
X10495650Y-105114384D01*
X10266799Y-105209177D01*
X10145326Y-105233340D01*
X10023854Y-105257502D01*
X9776146Y-105257502D01*
X9654674Y-105233340D01*
X9533201Y-105209177D01*
X9304350Y-105114384D01*
X9098390Y-104976766D01*
X8923236Y-104801612D01*
X8785618Y-104595652D01*
X8690825Y-104366801D01*
X8642500Y-104123855D01*
X8642500Y-103876149D01*
X8690825Y-103633203D01*
X8785618Y-103404352D01*
X8923236Y-103198392D01*
X9098390Y-103023238D01*
X9304350Y-102885620D01*
X9533201Y-102790827D01*
X9654674Y-102766664D01*
X9776146Y-102742502D01*
X10023854Y-102742502D01*
X10145326Y-102766664D01*
X10145326Y-102766664D01*
G37*
M02*
