<?xml version="1.0"?>
<!DOCTYPE svg PUBLIC "-//W3C//DTD SVG 1.1//EN" "http://www.w3.org/Graphics/SVG/1.1/DTD/svg11.dtd">
<svg width="74.97mm" height="181.47mm" viewBox="0 0 74.97 181.47" xmlns="http://www.w3.org/2000/svg" version="1.1">
<g id="Sketch001" transform="translate(74.235000,0.735000) scale(1,-1)">
<path id="Sketch001_w0000"  d="M -39.0 -152.0 L -39.0 -165.0 L -29.0 -168.0 L -29.0 -178.0 A 2 2 0 0 1 -27 -180L -2.0 -180.0 A 2 2 0 0 1 0 -178L 0.0 0.0 L -12.0 0.0 L -12.0 -137.0 A 2 2 0 0 0 -14 -139L -71.5 -139.0 A 2 2 0 0 1 -73.5 -141L -73.5 -169.0 A 2 2 0 0 1 -71.5 -171L -65.0 -171.0 A 2 2 0 0 1 -63 -169L -63.0 -152.0 A 2 2 0 0 0 -61 -150L -41.0 -150.0 A 2 2 0 0 0 -39 -152" stroke="#000000" stroke-width="0.35 px" style="stroke-width:0.35;stroke-miterlimit:4;stroke-dasharray:none;fill:none;fill-rule: evenodd "/>
<path id="Sketch001_w0001"  d="M -5.5 -176.0 L -29.0 -176.0 L -29.0 -172.0 L -10.5 -172.0 A 2 2 0 0 1 -8.5 -170L -8.5 -161.0 L -39.1 -161.0 L -39.1 -157.0 L -10.5 -157.0 A 2 2 0 0 1 -8.5 -155L -8.5 -146.5 L -65.0 -146.5 A 2 2 0 0 1 -67 -148.5L -67.0 -161.0 L -66.0 -161.0 L -66.0 -167.0 L -70.0 -167.0 L -70.0 -144.5 A 2 2 0 0 0 -68 -142.5L -10.5 -142.5 A 2 2 0 0 1 -8.5 -140.5L -8.5 0.0 L -3.5 0.0 L -3.5 -174.0 A 2 2 0 0 0 -5.5 -176" stroke="#000000" stroke-width="0.35 px" style="stroke-width:0.35;stroke-miterlimit:4;stroke-dasharray:none;fill:none;fill-rule: evenodd "/>
<title>Sketch001</title>
</g>
</svg>