<?xml version="1.0" standalone="no"?><!DOCTYPE svg PUBLIC "-//W3C//DTD SVG 1.1//EN" "http://www.w3.org/Graphics/SVG/1.1/DTD/svg11.dtd"><svg xmlns:xlink="http://www.w3.org/1999/xlink" xmlns="http://www.w3.org/2000/svg" font-family="Myriad Pro, Helvetica, Arial" font-size="12" data-jsgraph-version="v2.0.100" tabindex="0" width="570" height="346.020834"><defs><clipPath id="_clipplota40b54ac-453b-4e50-9910-9b97ead7ffaf" clipPathUnits="userSpaceOnUse"><rect y="0" x="50.66615867614746" width="479.33384132385254" height="236.8357830356445"/></clipPath><marker xmlns="" viewBox="0 0 10 10" id="arrowa40b54ac-453b-4e50-9910-9b97ead7ffaf" refX="6" refY="5" markerUnits="strokeWidth" markerWidth="8" markerHeight="6" orient="auto"><path xmlns="http://www.w3.org/2000/svg" d="M 0 0 L 10 5 L 0 10 z"/></marker><marker viewBox="0 0 6 8" id="horionzalsplit_a40b54ac-453b-4e50-9910-9b97ead7ffaf" refX="3" refY="4" markerUnits="strokeWidth" markerWidth="6" markerHeight="8"><line x1="0" y1="8" x2="6" y2="0" stroke="black"/></marker><marker viewBox="0 0 8 6" id="verticalsplit_a40b54ac-453b-4e50-9910-9b97ead7ffaf" refX="4" refY="3" markerUnits="strokeWidth" markerWidth="8" markerHeight="6"><line x1="0" y1="0" x2="8" y2="6" stroke="black"/></marker><marker viewBox="0 0 10 10" id="verticallinea40b54ac-453b-4e50-9910-9b97ead7ffaf" refX="0" refY="5" markerUnits="strokeWidth" markerWidth="20" markerHeight="10" orient="auto" stroke-width="1px"><path d="M 0 -10 L 0 10" stroke="black"/></marker></defs><g><rect pointer-events="fill" fill="transparent" y="30" x="70.66615867614746" width="479.33384132385254" height="236.8357830356445"/><text text-anchor="middle" y="20" x="285"/><g transform="translate(20, 30)"><g><g><g><path shape-rendering="crispEdges" stroke="#F0F0F0" stroke-width="1" stroke-opacity="undefined" clip-path="url(#_clipplota40b54ac-453b-4e50-9910-9b97ead7ffaf)" d="M 54.04231265212861 0 L 54.04231265212861 268.8357830356445M 64.39014870437978 0 L 64.39014870437978 268.8357830356445M 74.73798475663096 0 L 74.73798475663096 268.8357830356445M 85.08582080888213 0 L 85.08582080888213 268.8357830356445M 95.4336568611333 0 L 95.4336568611333 268.8357830356445M 105.78149291338448 0 L 105.78149291338448 268.8357830356445M 116.12932896563566 0 L 116.12932896563566 268.8357830356445M 126.47716501788683 0 L 126.47716501788683 268.8357830356445M 136.825001070138 0 L 136.825001070138 268.8357830356445M 157.52067317464036 0 L 157.52067317464036 268.8357830356445M 167.86850922689155 0 L 167.86850922689155 268.8357830356445M 178.21634527914273 0 L 178.21634527914273 268.8357830356445M 188.56418133139388 0 L 188.56418133139388 268.8357830356445M 198.91201738364506 0 L 198.91201738364506 268.8357830356445M 209.25985343589625 0 L 209.25985343589625 268.8357830356445M 219.6076894881474 0 L 219.6076894881474 268.8357830356445M 229.95552554039855 0 L 229.95552554039855 268.8357830356445M 240.30336159264974 0 L 240.30336159264974 268.8357830356445M 260.9990336971521 0 L 260.9990336971521 268.8357830356445M 271.34686974940325 0 L 271.34686974940325 268.8357830356445M 281.69470580165444 0 L 281.69470580165444 268.8357830356445M 292.0425418539056 0 L 292.0425418539056 268.8357830356445M 302.3903779061568 0 L 302.3903779061568 268.8357830356445M 312.738213958408 0 L 312.738213958408 268.8357830356445M 323.08605001065916 0 L 323.08605001065916 268.8357830356445M 333.4338860629103 0 L 333.4338860629103 268.8357830356445M 343.7817221151615 0 L 343.7817221151615 268.8357830356445M 364.47739421966384 0 L 364.47739421966384 268.8357830356445M 374.825230271915 0 L 374.825230271915 268.8357830356445M 385.1730663241662 0 L 385.1730663241662 268.8357830356445M 395.5209023764174 0 L 395.5209023764174 268.8357830356445M 405.86873842866856 0 L 405.86873842866856 268.8357830356445M 416.21657448091975 0 L 416.21657448091975 268.8357830356445M 426.5644105331709 0 L 426.5644105331709 268.8357830356445M 436.9122465854221 0 L 436.9122465854221 268.8357830356445M 447.26008263767324 0 L 447.26008263767324 268.8357830356445M 467.9557547421756 0 L 467.9557547421756 268.8357830356445M 478.30359079442684 0 L 478.30359079442684 268.8357830356445M 488.65142684667796 0 L 488.65142684667796 268.8357830356445M 498.99926289892915 0 L 498.99926289892915 268.8357830356445M 509.3470989511803 0 L 509.3470989511803 268.8357830356445M 519.6949350034315 0 L 519.6949350034315 268.8357830356445"/><path shape-rendering="crispEdges" stroke="#F0F0F0" stroke-width="1" stroke-opacity="undefined" clip-path="url(#_clipplota40b54ac-453b-4e50-9910-9b97ead7ffaf)" d="M 0 235.938379368746 L 530 235.938379368746M 0 229.18486077252587 L 530 229.18486077252587M 0 222.43134217630575 L 530 222.43134217630575M 0 215.67782358008563 L 530 215.67782358008563M 0 208.9243049838655 L 530 208.9243049838655M 0 202.17078638764536 L 530 202.17078638764536M 0 195.41726779142525 L 530 195.41726779142525M 0 188.66374919520513 L 530 188.66374919520513M 0 181.910230598985 L 530 181.910230598985M 0 175.1567120027649 L 530 175.1567120027649M 0 168.40319340654474 L 530 168.40319340654474M 0 161.64967481032463 L 530 161.64967481032463M 0 154.8961562141045 L 530 154.8961562141045M 0 148.1426376178844 L 530 148.1426376178844M 0 141.38911902166427 L 530 141.38911902166427M 0 134.63560042544412 L 530 134.63560042544412M 0 127.88208182922399 L 530 127.88208182922399M 0 121.12856323300386 L 530 121.12856323300386M 0 114.37504463678373 L 530 114.37504463678373M 0 107.6215260405636 L 530 107.6215260405636M 0 94.11448884812339 L 530 94.11448884812339M 0 87.36097025190324 L 530 87.36097025190324M 0 80.60745165568312 L 530 80.60745165568312M 0 73.853933059463 L 530 73.853933059463M 0 67.10041446324286 L 530 67.10041446324286M 0 60.34689586702274 L 530 60.34689586702274M 0 53.59337727080262 L 530 53.59337727080262M 0 46.83985867458247 L 530 46.83985867458247M 0 40.086340078362326 L 530 40.086340078362326M 0 26.579302885922118 L 530 26.579302885922118M 0 19.825784289702 L 530 19.825784289702M 0 13.072265693481853 L 530 13.072265693481853M 0 6.318747097261735 L 530 6.318747097261735"/></g><g><path shape-rendering="crispEdges" stroke="#DADADA" stroke-width="1" stroke-opacity="undefined" clip-path="url(#_clipplota40b54ac-453b-4e50-9910-9b97ead7ffaf)" d="M 147.17283712238918 0 L 147.17283712238918 268.8357830356445M 250.65119764490092 0 L 250.65119764490092 268.8357830356445M 354.12955816741265 0 L 354.12955816741265 268.8357830356445M 457.6079186899244 0 L 457.6079186899244 268.8357830356445"/><path shape-rendering="crispEdges" stroke="#DADADA" stroke-width="1" stroke-opacity="undefined" clip-path="url(#_clipplota40b54ac-453b-4e50-9910-9b97ead7ffaf)" d="M 0 235.93837936874598 L 530 235.93837936874598M 0 168.40319340654474 L 530 168.40319340654474M 0 100.8680074443435 L 530 100.8680074443435M 0 33.332821482142236 L 530 33.332821482142236"/></g></g><g transform="translate(0 236.8357830356445)"><rect pointer-events="fill" fill="transparent"/><g><line y1="0" y2="-2" stroke="black" display="visible" x1="54.04231265212861" x2="54.04231265212861"/><line y1="0" y2="-2" stroke="black" display="visible" x1="64.39014870437978" x2="64.39014870437978"/><line y1="0" y2="-2" stroke="black" display="visible" x1="74.73798475663096" x2="74.73798475663096"/><line y1="0" y2="-2" stroke="black" display="visible" x1="85.08582080888213" x2="85.08582080888213"/><line y1="0" y2="-4" stroke="black" display="visible" x1="95.4336568611333" x2="95.4336568611333"/><line y1="0" y2="-2" stroke="black" display="visible" x1="105.78149291338448" x2="105.78149291338448"/><line y1="0" y2="-2" stroke="black" display="visible" x1="116.12932896563566" x2="116.12932896563566"/><line y1="0" y2="-2" stroke="black" display="visible" x1="126.47716501788683" x2="126.47716501788683"/><line y1="0" y2="-2" stroke="black" display="visible" x1="136.825001070138" x2="136.825001070138"/><line y1="0" y2="-2" stroke="black" display="visible" x1="157.52067317464036" x2="157.52067317464036"/><line y1="0" y2="-2" stroke="black" display="visible" x1="167.86850922689155" x2="167.86850922689155"/><line y1="0" y2="-2" stroke="black" display="visible" x1="178.21634527914273" x2="178.21634527914273"/><line y1="0" y2="-2" stroke="black" display="visible" x1="188.56418133139388" x2="188.56418133139388"/><line y1="0" y2="-4" stroke="black" display="visible" x1="198.91201738364506" x2="198.91201738364506"/><line y1="0" y2="-2" stroke="black" display="visible" x1="209.25985343589625" x2="209.25985343589625"/><line y1="0" y2="-2" stroke="black" display="visible" x1="219.6076894881474" x2="219.6076894881474"/><line y1="0" y2="-2" stroke="black" display="visible" x1="229.95552554039855" x2="229.95552554039855"/><line y1="0" y2="-2" stroke="black" display="visible" x1="240.30336159264974" x2="240.30336159264974"/><line y1="0" y2="-6" stroke="black" display="visible" x1="147.17283712238918" x2="147.17283712238918"/><line y1="0" y2="-2" stroke="black" display="visible" x1="260.9990336971521" x2="260.9990336971521"/><line y1="0" y2="-2" stroke="black" display="visible" x1="271.34686974940325" x2="271.34686974940325"/><line y1="0" y2="-2" stroke="black" display="visible" x1="281.69470580165444" x2="281.69470580165444"/><line y1="0" y2="-2" stroke="black" display="visible" x1="292.0425418539056" x2="292.0425418539056"/><line y1="0" y2="-4" stroke="black" display="visible" x1="302.3903779061568" x2="302.3903779061568"/><line y1="0" y2="-2" stroke="black" display="visible" x1="312.738213958408" x2="312.738213958408"/><line y1="0" y2="-2" stroke="black" display="visible" x1="323.08605001065916" x2="323.08605001065916"/><line y1="0" y2="-2" stroke="black" display="visible" x1="333.4338860629103" x2="333.4338860629103"/><line y1="0" y2="-2" stroke="black" display="visible" x1="343.7817221151615" x2="343.7817221151615"/><line y1="0" y2="-6" stroke="black" display="visible" x1="250.65119764490092" x2="250.65119764490092"/><line y1="0" y2="-2" stroke="black" display="visible" x1="364.47739421966384" x2="364.47739421966384"/><line y1="0" y2="-2" stroke="black" display="visible" x1="374.825230271915" x2="374.825230271915"/><line y1="0" y2="-2" stroke="black" display="visible" x1="385.1730663241662" x2="385.1730663241662"/><line y1="0" y2="-2" stroke="black" display="visible" x1="395.5209023764174" x2="395.5209023764174"/><line y1="0" y2="-4" stroke="black" display="visible" x1="405.86873842866856" x2="405.86873842866856"/><line y1="0" y2="-2" stroke="black" display="visible" x1="416.21657448091975" x2="416.21657448091975"/><line y1="0" y2="-2" stroke="black" display="visible" x1="426.5644105331709" x2="426.5644105331709"/><line y1="0" y2="-2" stroke="black" display="visible" x1="436.9122465854221" x2="436.9122465854221"/><line y1="0" y2="-2" stroke="black" display="visible" x1="447.26008263767324" x2="447.26008263767324"/><line y1="0" y2="-6" stroke="black" display="visible" x1="354.12955816741265" x2="354.12955816741265"/><line y1="0" y2="-2" stroke="black" display="visible" x1="467.9557547421756" x2="467.9557547421756"/><line y1="0" y2="-2" stroke="black" display="visible" x1="478.30359079442684" x2="478.30359079442684"/><line y1="0" y2="-2" stroke="black" display="visible" x1="488.65142684667796" x2="488.65142684667796"/><line y1="0" y2="-2" stroke="black" display="visible" x1="498.99926289892915" x2="498.99926289892915"/><line y1="0" y2="-4" stroke="black" display="visible" x1="509.3470989511803" x2="509.3470989511803"/><line y1="0" y2="-2" stroke="black" display="visible" x1="519.6949350034315" x2="519.6949350034315"/><line y1="0" y2="-6" stroke="black" display="visible" x1="457.6079186899244" x2="457.6079186899244"/><line y1="0" y2="-6" stroke="black" display="none" x1="530" x2="530"/><line y1="0" y2="-2" stroke="black" display="none" x1="529.9099981780485" x2="529.9099981780485"/><line y1="0" y2="-2" stroke="black" display="none" x1="309.95975204938907" x2="309.95975204938907"/><line y1="0" y2="-2" stroke="black" display="none" x1="315.55824195361157" x2="315.55824195361157"/><line y1="0" y2="-2" stroke="black" display="none" x1="321.15673185783413" x2="321.15673185783413"/><line y1="0" y2="-2" stroke="black" display="none" x1="326.75522176205686" x2="326.75522176205686"/><line y1="0" y2="-2" stroke="black" display="none" x1="332.35371166627937" x2="332.35371166627937"/><line y1="0" y2="-2" stroke="black" display="none" x1="337.9522015705019" x2="337.9522015705019"/><line y1="0" y2="-2" stroke="black" display="none" x1="343.55069147472443" x2="343.55069147472443"/><line y1="0" y2="-4" stroke="black" display="none" x1="349.14918137894693" x2="349.14918137894693"/><line y1="0" y2="-2" stroke="black" display="none" x1="354.7476712831695" x2="354.7476712831695"/><line y1="0" y2="-2" stroke="black" display="none" x1="360.346161187392" x2="360.346161187392"/><line y1="0" y2="-2" stroke="black" display="none" x1="365.9446510916145" x2="365.9446510916145"/><line y1="0" y2="-2" stroke="black" display="none" x1="371.54314099583706" x2="371.54314099583706"/><line y1="0" y2="-2" stroke="black" display="none" x1="377.14163090005957" x2="377.14163090005957"/><line y1="0" y2="-2" stroke="black" display="none" x1="382.7401208042823" x2="382.7401208042823"/><line y1="0" y2="-2" stroke="black" display="none" x1="388.33861070850486" x2="388.33861070850486"/><line y1="0" y2="-2" stroke="black" display="none" x1="393.93710061272736" x2="393.93710061272736"/><line y1="0" y2="-2" stroke="black" display="none" x1="399.53559051694987" x2="399.53559051694987"/><line y1="0" y2="-4" stroke="black" display="none" x1="405.1340804211724" x2="405.1340804211724"/><line y1="0" y2="-2" stroke="black" display="none" x1="410.73257032539493" x2="410.73257032539493"/><line y1="0" y2="-2" stroke="black" display="none" x1="416.3310602296175" x2="416.3310602296175"/><line y1="0" y2="-2" stroke="black" display="none" x1="421.92955013384" x2="421.92955013384"/><line y1="0" y2="-2" stroke="black" display="none" x1="427.5280400380625" x2="427.5280400380625"/><line y1="0" y2="-2" stroke="black" display="none" x1="433.12652994228506" x2="433.12652994228506"/><line y1="0" y2="-6" stroke="black" display="none" x1="377.1416309000598" x2="377.1416309000598"/><line y1="0" y2="-2" stroke="black" display="none" x1="438.72501984650773" x2="438.72501984650773"/><line y1="0" y2="-2" stroke="black" display="none" x1="444.32350975073024" x2="444.32350975073024"/><line y1="0" y2="-2" stroke="black" display="none" x1="449.9219996549528" x2="449.9219996549528"/><line y1="0" y2="-2" stroke="black" display="none" x1="455.5204895591753" x2="455.5204895591753"/><line y1="0" y2="-4" stroke="black" display="none" x1="461.1189794633978" x2="461.1189794633978"/><line y1="0" y2="-2" stroke="black" display="none" x1="466.71746936762037" x2="466.71746936762037"/><line y1="0" y2="-2" stroke="black" display="none" x1="472.31595927184287" x2="472.31595927184287"/><line y1="0" y2="-2" stroke="black" display="none" x1="477.9144491760654" x2="477.9144491760654"/><line y1="0" y2="-2" stroke="black" display="none" x1="483.51293908028794" x2="483.51293908028794"/><line y1="0" y2="-2" stroke="black" display="none" x1="489.11142898451044" x2="489.11142898451044"/><line y1="0" y2="-6" stroke="black" display="none" x1="433.1265299422852" x2="433.1265299422852"/><line y1="0" y2="-2" stroke="black" display="none" x1="494.70991888873317" x2="494.70991888873317"/><line y1="0" y2="-2" stroke="black" display="none" x1="500.30840879295573" x2="500.30840879295573"/><line y1="0" y2="-2" stroke="black" display="none" x1="505.90689869717824" x2="505.90689869717824"/><line y1="0" y2="-2" stroke="black" display="none" x1="511.50538860140074" x2="511.50538860140074"/><line y1="0" y2="-4" stroke="black" display="none" x1="517.1038785056232" x2="517.1038785056232"/><line y1="0" y2="-2" stroke="black" display="none" x1="522.7023684098458" x2="522.7023684098458"/><line y1="0" y2="-2" stroke="black" display="none" x1="528.3008583140684" x2="528.3008583140684"/><line y1="0" y2="-6" stroke="black" display="none" x1="489.11142898451067" x2="489.11142898451067"/></g><g><text y="8" text-anchor="middle" display="visible" x="147.17283712238918" style="dominant-baseline: hanging;">5</text><text y="8" text-anchor="middle" display="visible" x="250.65119764490092" style="dominant-baseline: hanging;">10</text><text y="8" text-anchor="middle" display="visible" x="354.12955816741265" style="dominant-baseline: hanging;">15</text><text y="8" text-anchor="middle" display="visible" x="457.6079186899244" style="dominant-baseline: hanging;">20</text><text y="8" text-anchor="middle" display="none" x="530" style="dominant-baseline: hanging;">1.0</text><text y="8" text-anchor="middle" display="none" x="377.1416309000598" style="dominant-baseline: hanging;">12</text><text y="8" text-anchor="middle" display="none" x="433.1265299422852" style="dominant-baseline: hanging;">14</text><text y="8" text-anchor="middle" display="none" x="489.11142898451067" style="dominant-baseline: hanging;">16</text></g><line stroke="black" shape-rendering="crispEdges" stroke-linecap="square" display="block" x1="50.66615867614746" x2="530" y1="0" y2="0" marker-start="" marker-end=""/><text text-anchor="middle" fill="undefined" style="display: initial;" x="290.33307933807373" y="22"><tspan style="dominant-baseline: hanging;">Time [min]</tspan><tspan display="none" style="dominant-baseline: hanging;"/><tspan dx="6" display="none" style="dominant-baseline: hanging;"/><tspan dy="-5" font-size="0.8em" display="none" style="dominant-baseline: hanging;"/></text><g/></g><g transform="translate( 50.66615867614746 0 )"><rect pointer-events="fill" fill="transparent"/><g><line x1="0" x2="2" stroke="black" display="visible" y1="235.938379368746" y2="235.938379368746"/><line x1="0" x2="4" stroke="black" display="visible" y1="202.17078638764536" y2="202.17078638764536"/><line x1="0" x2="4" stroke="black" display="visible" y1="134.63560042544412" y2="134.63560042544412"/><line x1="0" x2="2" stroke="black" display="visible" y1="229.18486077252587" y2="229.18486077252587"/><line x1="0" x2="2" stroke="black" display="visible" y1="222.43134217630575" y2="222.43134217630575"/><line x1="0" x2="2" stroke="black" display="visible" y1="215.67782358008563" y2="215.67782358008563"/><line x1="0" x2="2" stroke="black" display="visible" y1="208.9243049838655" y2="208.9243049838655"/><line x1="0" x2="2" stroke="black" display="visible" y1="195.41726779142525" y2="195.41726779142525"/><line x1="0" x2="2" stroke="black" display="visible" y1="188.66374919520513" y2="188.66374919520513"/><line x1="0" x2="2" stroke="black" display="visible" y1="181.910230598985" y2="181.910230598985"/><line x1="0" x2="2" stroke="black" display="visible" y1="175.1567120027649" y2="175.1567120027649"/><line x1="0" x2="4" stroke="black" display="visible" y1="67.10041446324286" y2="67.10041446324286"/><line x1="0" x2="4" stroke="black" display="none" y1="23.121435292754484" y2="23.121435292754484"/><line x1="0" x2="2" stroke="black" display="visible" y1="168.40319340654474" y2="168.40319340654474"/><line x1="0" x2="2" stroke="black" display="visible" y1="161.64967481032463" y2="161.64967481032463"/><line x1="0" x2="2" stroke="black" display="visible" y1="154.8961562141045" y2="154.8961562141045"/><line x1="0" x2="2" stroke="black" display="visible" y1="148.1426376178844" y2="148.1426376178844"/><line x1="0" x2="6" stroke="black" display="visible" y1="235.93837936874598" y2="235.93837936874598"/><line x1="0" x2="2" stroke="black" display="visible" y1="141.38911902166427" y2="141.38911902166427"/><line x1="0" x2="2" stroke="black" display="visible" y1="127.88208182922399" y2="127.88208182922399"/><line x1="0" x2="2" stroke="black" display="visible" y1="121.12856323300386" y2="121.12856323300386"/><line x1="0" x2="2" stroke="black" display="visible" y1="114.37504463678373" y2="114.37504463678373"/><line x1="0" x2="4" stroke="black" display="none" y1="72.06606092157537" y2="72.06606092157537"/><line x1="0" x2="4" stroke="black" display="none" y1="64.70416112497043" y2="64.70416112497043"/><line x1="0" x2="2" stroke="black" display="visible" y1="107.6215260405636" y2="107.6215260405636"/><line x1="0" x2="2" stroke="black" display="visible" y1="94.11448884812339" y2="94.11448884812339"/><line x1="0" x2="2" stroke="black" display="visible" y1="87.36097025190324" y2="87.36097025190324"/><line x1="0" x2="2" stroke="black" display="visible" y1="80.60745165568312" y2="80.60745165568312"/><line x1="0" x2="6" stroke="black" display="visible" y1="168.40319340654474" y2="168.40319340654474"/><line x1="0" x2="2" stroke="black" display="visible" y1="73.853933059463" y2="73.853933059463"/><line x1="0" x2="2" stroke="black" display="visible" y1="60.34689586702274" y2="60.34689586702274"/><line x1="0" x2="2" stroke="black" display="visible" y1="53.59337727080262" y2="53.59337727080262"/><line x1="0" x2="4" stroke="black" display="none" y1="5.808962752130213" y2="5.808962752130213"/><line x1="0" x2="6" stroke="black" display="visible" y1="100.8680074443435" y2="100.8680074443435"/><line x1="0" x2="2" stroke="black" display="visible" y1="46.83985867458247" y2="46.83985867458247"/><line x1="0" x2="2" stroke="black" display="visible" y1="40.086340078362326" y2="40.086340078362326"/><line x1="0" x2="2" stroke="black" display="visible" y1="26.579302885922118" y2="26.579302885922118"/><line x1="0" x2="2" stroke="black" display="visible" y1="19.825784289702" y2="19.825784289702"/><line x1="0" x2="2" stroke="black" display="visible" y1="13.072265693481853" y2="13.072265693481853"/><line x1="0" x2="2" stroke="black" display="visible" y1="6.318747097261735" y2="6.318747097261735"/><line x1="0" x2="2" stroke="black" display="none" y1="17.02155159038503" y2="17.02155159038503"/><line x1="0" x2="2" stroke="black" display="none" y1="10.921667888015548" y2="10.921667888015548"/><line x1="0" x2="2" stroke="black" display="none" y1="4.821784185646067" y2="4.821784185646067"/><line x1="0" x2="2" stroke="black" display="none" y1="23.99414761003854" y2="23.99414761003854"/><line x1="0" x2="2" stroke="black" display="none" y1="13.099197834133776" y2="13.099197834133776"/><line x1="0" x2="2" stroke="black" display="none" y1="7.651722946181366" y2="7.651722946181366"/><line x1="0" x2="2" stroke="black" display="none" y1="2.204248058228927" y2="2.204248058228927"/><line x1="0" x2="6" stroke="black" display="visible" y1="33.332821482142236" y2="33.332821482142236"/><line x1="0" x2="6" stroke="black" display="none" y1="18.546672722086157" y2="18.546672722086157"/></g><g><text x="-5" text-anchor="end" display="visible" y="235.93837936874598" style="dominant-baseline: central;">0.0</text><text x="-5" text-anchor="end" display="visible" y="168.40319340654474" style="dominant-baseline: central;">0.2</text><text x="-5" text-anchor="end" display="visible" y="100.8680074443435" style="dominant-baseline: central;">0.4</text><text x="-5" text-anchor="end" display="visible" y="33.332821482142236" style="dominant-baseline: central;">0.6</text><text x="-5" text-anchor="end" display="none" y="18.546672722086157" style="dominant-baseline: central;">0.4</text></g><line stroke="black" shape-rendering="crispEdges" stroke-linecap="square" display="block" y1="236.8357830356445" y2="0" x1="0" x2="0" marker-start="" marker-end=""/><text text-anchor="middle" transform="translate(-38.66615867614746, 118.41789151782226) rotate(-90)" fill="undefined" dominant-baseline="auto"><tspan>Absorbance</tspan><tspan display="none"/><tspan dx="6" display="none"/><tspan dy="-5" font-size="0.8em" display="none"/></text><g/></g></g><g><g data-layer="1"><g><g><g><path stroke="rgba(255,1,9,1)" stroke-width="0.0001" fill="none" d="M 50.6 235.20000000000002 L 61 235.20000000000002 L 71.4 235.4 L 81.80000000000001 235.20000000000002 L 92.2 235.4 L 102.60000000000001 234.60000000000002 L 113 235.4 L 123.60000000000001 235 L 134 235.60000000000002 L 144.4 235.60000000000002 L 154.8 235.60000000000002 L 165.20000000000002 235.60000000000002 L 175.60000000000002 235.60000000000002 L 186 235.8 L 196.4 235.8 L 206.8 235.8 L 217.20000000000002 235.8 L 227.8 235.8 L 238.20000000000002 236 L 248.60000000000002 236 L 259 236 L 269.40000000000003 236.20000000000002 L 279.8 236 L 290.2 236.20000000000002 L 300.6 236.20000000000002 L 311 236.20000000000002 L 321.40000000000003 236.20000000000002 L 332 236.20000000000002 L 342.40000000000003 236.4 L 352.8 236.4 L 363.20000000000005 236.4 L 373.6 236.4 L 384 236.4 L 394.40000000000003 236.4 L 404.8 236.60000000000002 L 415.20000000000005 236.4 L 425.6 236.60000000000002 L 436.20000000000005 236.60000000000002 L 446.6 236.60000000000002 L 457 236.60000000000002 L 467.40000000000003 236.60000000000002 L 477.8 236.60000000000002 L 488.20000000000005 236.60000000000002 L 498.6 236.8 L 509 236.60000000000002 L 519.4 236.8 L 529.8000000000001 236.60000000000002 "/></g><circle fill="black" r="3" display="none"/><g/><rect fill="white"/><text/><g><path fill="rgba(255,1,9,1)" stroke="rgba(255,1,9,1)" stroke-width="1" d="M 50.6 235.20000000000002 m -1 -1 l 2 0 l 0 2 l -2 0 z M 61 235.20000000000002 m -1 -1 l 2 0 l 0 2 l -2 0 z M 71.4 235.4 m -1 -1 l 2 0 l 0 2 l -2 0 z M 81.80000000000001 235.20000000000002 m -1 -1 l 2 0 l 0 2 l -2 0 z M 92.2 235.4 m -1 -1 l 2 0 l 0 2 l -2 0 z M 102.60000000000001 234.60000000000002 m -1 -1 l 2 0 l 0 2 l -2 0 z M 113 235.4 m -1 -1 l 2 0 l 0 2 l -2 0 z M 123.60000000000001 235 m -1 -1 l 2 0 l 0 2 l -2 0 z M 134 235.60000000000002 m -1 -1 l 2 0 l 0 2 l -2 0 z M 144.4 235.60000000000002 m -1 -1 l 2 0 l 0 2 l -2 0 z M 154.8 235.60000000000002 m -1 -1 l 2 0 l 0 2 l -2 0 z M 165.20000000000002 235.60000000000002 m -1 -1 l 2 0 l 0 2 l -2 0 z M 175.60000000000002 235.60000000000002 m -1 -1 l 2 0 l 0 2 l -2 0 z M 186 235.8 m -1 -1 l 2 0 l 0 2 l -2 0 z M 196.4 235.8 m -1 -1 l 2 0 l 0 2 l -2 0 z M 206.8 235.8 m -1 -1 l 2 0 l 0 2 l -2 0 z M 217.20000000000002 235.8 m -1 -1 l 2 0 l 0 2 l -2 0 z M 227.8 235.8 m -1 -1 l 2 0 l 0 2 l -2 0 z M 238.20000000000002 236 m -1 -1 l 2 0 l 0 2 l -2 0 z M 248.60000000000002 236 m -1 -1 l 2 0 l 0 2 l -2 0 z M 259 236 m -1 -1 l 2 0 l 0 2 l -2 0 z M 269.40000000000003 236.20000000000002 m -1 -1 l 2 0 l 0 2 l -2 0 z M 279.8 236 m -1 -1 l 2 0 l 0 2 l -2 0 z M 290.2 236.20000000000002 m -1 -1 l 2 0 l 0 2 l -2 0 z M 300.6 236.20000000000002 m -1 -1 l 2 0 l 0 2 l -2 0 z M 311 236.20000000000002 m -1 -1 l 2 0 l 0 2 l -2 0 z M 321.40000000000003 236.20000000000002 m -1 -1 l 2 0 l 0 2 l -2 0 z M 332 236.20000000000002 m -1 -1 l 2 0 l 0 2 l -2 0 z M 342.40000000000003 236.4 m -1 -1 l 2 0 l 0 2 l -2 0 z M 352.8 236.4 m -1 -1 l 2 0 l 0 2 l -2 0 z M 363.20000000000005 236.4 m -1 -1 l 2 0 l 0 2 l -2 0 z M 373.6 236.4 m -1 -1 l 2 0 l 0 2 l -2 0 z M 384 236.4 m -1 -1 l 2 0 l 0 2 l -2 0 z M 394.40000000000003 236.4 m -1 -1 l 2 0 l 0 2 l -2 0 z M 404.8 236.60000000000002 m -1 -1 l 2 0 l 0 2 l -2 0 z M 415.20000000000005 236.4 m -1 -1 l 2 0 l 0 2 l -2 0 z M 425.6 236.60000000000002 m -1 -1 l 2 0 l 0 2 l -2 0 z M 436.20000000000005 236.60000000000002 m -1 -1 l 2 0 l 0 2 l -2 0 z M 446.6 236.60000000000002 m -1 -1 l 2 0 l 0 2 l -2 0 z M 457 236.60000000000002 m -1 -1 l 2 0 l 0 2 l -2 0 z M 467.40000000000003 236.60000000000002 m -1 -1 l 2 0 l 0 2 l -2 0 z M 477.8 236.60000000000002 m -1 -1 l 2 0 l 0 2 l -2 0 z M 488.20000000000005 236.60000000000002 m -1 -1 l 2 0 l 0 2 l -2 0 z M 498.6 236.8 m -1 -1 l 2 0 l 0 2 l -2 0 z M 509 236.60000000000002 m -1 -1 l 2 0 l 0 2 l -2 0 z M 519.4 236.8 m -1 -1 l 2 0 l 0 2 l -2 0 z M 529.8000000000001 236.60000000000002 m -1 -1 l 2 0 l 0 2 l -2 0 z "/></g></g><g><g><path stroke="rgba(5,150,0,1)" stroke-width="0.0001" fill="none" d="M 50.6 0 L 61 6.6000000000000005 L 71.4 13 L 81.80000000000001 19.200000000000003 L 92.2 25 L 102.60000000000001 30.8 L 113 36.4 L 123.60000000000001 41.6 L 134 47 L 144.4 52 L 154.8 56.800000000000004 L 165.20000000000002 61.6 L 175.60000000000002 66.2 L 186 70.60000000000001 L 196.4 74.8 L 206.8 79 L 217.20000000000002 83 L 227.8 86.80000000000001 L 238.20000000000002 90.60000000000001 L 248.60000000000002 94.4 L 259 97.80000000000001 L 269.40000000000003 101.4 L 279.8 104.60000000000001 L 290.2 107.80000000000001 L 300.6 111.2 L 311 114.2 L 321.40000000000003 117.2 L 332 120 L 342.40000000000003 122.80000000000001 L 352.8 125.60000000000001 L 363.20000000000005 128.20000000000002 L 373.6 130.6 L 384 133.20000000000002 L 394.40000000000003 135.6 L 404.8 138 L 415.20000000000005 140.20000000000002 L 425.6 142.4 L 436.20000000000005 144.6 L 446.6 146.6 L 457 148.8 L 467.40000000000003 150.20000000000002 L 477.8 152.6 L 488.20000000000005 154.4 L 498.6 156.20000000000002 L 509 158 L 519.4 159.60000000000002 L 529.8000000000001 161.20000000000002 "/></g><circle fill="black" r="3" display="none"/><g/><rect fill="white"/><text/><g><path fill="rgba(5,150,0,1)" stroke="rgba(5,150,0,1)" stroke-width="1" d="M 50.6 0 m -1 -1 l 2 0 l 0 2 l -2 0 z M 61 6.6000000000000005 m -1 -1 l 2 0 l 0 2 l -2 0 z M 71.4 13 m -1 -1 l 2 0 l 0 2 l -2 0 z M 81.80000000000001 19.200000000000003 m -1 -1 l 2 0 l 0 2 l -2 0 z M 92.2 25 m -1 -1 l 2 0 l 0 2 l -2 0 z M 102.60000000000001 30.8 m -1 -1 l 2 0 l 0 2 l -2 0 z M 113 36.4 m -1 -1 l 2 0 l 0 2 l -2 0 z M 123.60000000000001 41.6 m -1 -1 l 2 0 l 0 2 l -2 0 z M 134 47 m -1 -1 l 2 0 l 0 2 l -2 0 z M 144.4 52 m -1 -1 l 2 0 l 0 2 l -2 0 z M 154.8 56.800000000000004 m -1 -1 l 2 0 l 0 2 l -2 0 z M 165.20000000000002 61.6 m -1 -1 l 2 0 l 0 2 l -2 0 z M 175.60000000000002 66.2 m -1 -1 l 2 0 l 0 2 l -2 0 z M 186 70.60000000000001 m -1 -1 l 2 0 l 0 2 l -2 0 z M 196.4 74.8 m -1 -1 l 2 0 l 0 2 l -2 0 z M 206.8 79 m -1 -1 l 2 0 l 0 2 l -2 0 z M 217.20000000000002 83 m -1 -1 l 2 0 l 0 2 l -2 0 z M 227.8 86.80000000000001 m -1 -1 l 2 0 l 0 2 l -2 0 z M 238.20000000000002 90.60000000000001 m -1 -1 l 2 0 l 0 2 l -2 0 z M 248.60000000000002 94.4 m -1 -1 l 2 0 l 0 2 l -2 0 z M 259 97.80000000000001 m -1 -1 l 2 0 l 0 2 l -2 0 z M 269.40000000000003 101.4 m -1 -1 l 2 0 l 0 2 l -2 0 z M 279.8 104.60000000000001 m -1 -1 l 2 0 l 0 2 l -2 0 z M 290.2 107.80000000000001 m -1 -1 l 2 0 l 0 2 l -2 0 z M 300.6 111.2 m -1 -1 l 2 0 l 0 2 l -2 0 z M 311 114.2 m -1 -1 l 2 0 l 0 2 l -2 0 z M 321.40000000000003 117.2 m -1 -1 l 2 0 l 0 2 l -2 0 z M 332 120 m -1 -1 l 2 0 l 0 2 l -2 0 z M 342.40000000000003 122.80000000000001 m -1 -1 l 2 0 l 0 2 l -2 0 z M 352.8 125.60000000000001 m -1 -1 l 2 0 l 0 2 l -2 0 z M 363.20000000000005 128.20000000000002 m -1 -1 l 2 0 l 0 2 l -2 0 z M 373.6 130.6 m -1 -1 l 2 0 l 0 2 l -2 0 z M 384 133.20000000000002 m -1 -1 l 2 0 l 0 2 l -2 0 z M 394.40000000000003 135.6 m -1 -1 l 2 0 l 0 2 l -2 0 z M 404.8 138 m -1 -1 l 2 0 l 0 2 l -2 0 z M 415.20000000000005 140.20000000000002 m -1 -1 l 2 0 l 0 2 l -2 0 z M 425.6 142.4 m -1 -1 l 2 0 l 0 2 l -2 0 z M 436.20000000000005 144.6 m -1 -1 l 2 0 l 0 2 l -2 0 z M 446.6 146.6 m -1 -1 l 2 0 l 0 2 l -2 0 z M 457 148.8 m -1 -1 l 2 0 l 0 2 l -2 0 z M 467.40000000000003 150.20000000000002 m -1 -1 l 2 0 l 0 2 l -2 0 z M 477.8 152.6 m -1 -1 l 2 0 l 0 2 l -2 0 z M 488.20000000000005 154.4 m -1 -1 l 2 0 l 0 2 l -2 0 z M 498.6 156.20000000000002 m -1 -1 l 2 0 l 0 2 l -2 0 z M 509 158 m -1 -1 l 2 0 l 0 2 l -2 0 z M 519.4 159.60000000000002 m -1 -1 l 2 0 l 0 2 l -2 0 z M 529.8000000000001 161.20000000000002 m -1 -1 l 2 0 l 0 2 l -2 0 z "/></g></g><g><g><path stroke="rgba(2,1,255,1)" stroke-width="0.0001" fill="none" d="M 50.6 182.60000000000002 L 61 184.4 L 71.4 185.8 L 81.80000000000001 187.20000000000002 L 92.2 188.8 L 102.60000000000001 190.20000000000002 L 113 191.4 L 123.60000000000001 192.8 L 134 194 L 144.4 195.20000000000002 L 154.8 196.20000000000002 L 165.20000000000002 197.4 L 175.60000000000002 198.4 L 186 199.4 L 196.4 200.4 L 206.8 201.4 L 217.20000000000002 202.20000000000002 L 227.8 203 L 238.20000000000002 204 L 248.60000000000002 204.8 L 259 205.60000000000002 L 269.40000000000003 206.4 L 279.8 207.20000000000002 L 290.2 207.8 L 300.6 208.60000000000002 L 311 209.20000000000002 L 321.40000000000003 210 L 332 210.60000000000002 L 342.40000000000003 211.20000000000002 L 352.8 211.8 L 363.20000000000005 212.4 L 373.6 213 L 384 213.60000000000002 L 394.40000000000003 214 L 404.8 214.60000000000002 L 415.20000000000005 215 L 425.6 215.60000000000002 L 436.20000000000005 216 L 446.6 216.4 L 457 216.60000000000002 L 467.40000000000003 217.4 L 477.8 217.8 L 488.20000000000005 218.20000000000002 L 498.6 218.60000000000002 L 509 218.8 L 519.4 219.20000000000002 L 529.8000000000001 219.60000000000002 "/></g><circle fill="black" r="3" display="none"/><g/><rect fill="white"/><text/><g><path fill="rgba(2,1,255,1)" stroke="rgba(2,1,255,1)" stroke-width="1" d="M 50.6 182.60000000000002 m -1 -1 l 2 0 l 0 2 l -2 0 z M 61 184.4 m -1 -1 l 2 0 l 0 2 l -2 0 z M 71.4 185.8 m -1 -1 l 2 0 l 0 2 l -2 0 z M 81.80000000000001 187.20000000000002 m -1 -1 l 2 0 l 0 2 l -2 0 z M 92.2 188.8 m -1 -1 l 2 0 l 0 2 l -2 0 z M 102.60000000000001 190.20000000000002 m -1 -1 l 2 0 l 0 2 l -2 0 z M 113 191.4 m -1 -1 l 2 0 l 0 2 l -2 0 z M 123.60000000000001 192.8 m -1 -1 l 2 0 l 0 2 l -2 0 z M 134 194 m -1 -1 l 2 0 l 0 2 l -2 0 z M 144.4 195.20000000000002 m -1 -1 l 2 0 l 0 2 l -2 0 z M 154.8 196.20000000000002 m -1 -1 l 2 0 l 0 2 l -2 0 z M 165.20000000000002 197.4 m -1 -1 l 2 0 l 0 2 l -2 0 z M 175.60000000000002 198.4 m -1 -1 l 2 0 l 0 2 l -2 0 z M 186 199.4 m -1 -1 l 2 0 l 0 2 l -2 0 z M 196.4 200.4 m -1 -1 l 2 0 l 0 2 l -2 0 z M 206.8 201.4 m -1 -1 l 2 0 l 0 2 l -2 0 z M 217.20000000000002 202.20000000000002 m -1 -1 l 2 0 l 0 2 l -2 0 z M 227.8 203 m -1 -1 l 2 0 l 0 2 l -2 0 z M 238.20000000000002 204 m -1 -1 l 2 0 l 0 2 l -2 0 z M 248.60000000000002 204.8 m -1 -1 l 2 0 l 0 2 l -2 0 z M 259 205.60000000000002 m -1 -1 l 2 0 l 0 2 l -2 0 z M 269.40000000000003 206.4 m -1 -1 l 2 0 l 0 2 l -2 0 z M 279.8 207.20000000000002 m -1 -1 l 2 0 l 0 2 l -2 0 z M 290.2 207.8 m -1 -1 l 2 0 l 0 2 l -2 0 z M 300.6 208.60000000000002 m -1 -1 l 2 0 l 0 2 l -2 0 z M 311 209.20000000000002 m -1 -1 l 2 0 l 0 2 l -2 0 z M 321.40000000000003 210 m -1 -1 l 2 0 l 0 2 l -2 0 z M 332 210.60000000000002 m -1 -1 l 2 0 l 0 2 l -2 0 z M 342.40000000000003 211.20000000000002 m -1 -1 l 2 0 l 0 2 l -2 0 z M 352.8 211.8 m -1 -1 l 2 0 l 0 2 l -2 0 z M 363.20000000000005 212.4 m -1 -1 l 2 0 l 0 2 l -2 0 z M 373.6 213 m -1 -1 l 2 0 l 0 2 l -2 0 z M 384 213.60000000000002 m -1 -1 l 2 0 l 0 2 l -2 0 z M 394.40000000000003 214 m -1 -1 l 2 0 l 0 2 l -2 0 z M 404.8 214.60000000000002 m -1 -1 l 2 0 l 0 2 l -2 0 z M 415.20000000000005 215 m -1 -1 l 2 0 l 0 2 l -2 0 z M 425.6 215.60000000000002 m -1 -1 l 2 0 l 0 2 l -2 0 z M 436.20000000000005 216 m -1 -1 l 2 0 l 0 2 l -2 0 z M 446.6 216.4 m -1 -1 l 2 0 l 0 2 l -2 0 z M 457 216.60000000000002 m -1 -1 l 2 0 l 0 2 l -2 0 z M 467.40000000000003 217.4 m -1 -1 l 2 0 l 0 2 l -2 0 z M 477.8 217.8 m -1 -1 l 2 0 l 0 2 l -2 0 z M 488.20000000000005 218.20000000000002 m -1 -1 l 2 0 l 0 2 l -2 0 z M 498.6 218.60000000000002 m -1 -1 l 2 0 l 0 2 l -2 0 z M 509 218.8 m -1 -1 l 2 0 l 0 2 l -2 0 z M 519.4 219.20000000000002 m -1 -1 l 2 0 l 0 2 l -2 0 z M 529.8000000000001 219.60000000000002 m -1 -1 l 2 0 l 0 2 l -2 0 z "/></g></g><g><g><path stroke="rgba(255,253,11,0.4)" stroke-width="3" fill="none" d="M 50.6 3 L 51 3.4000000000000004 L 51.6 3.6 L 52 3.8000000000000003 L 52.400000000000006 4.2 L 53 4.4 L 53.400000000000006 4.6000000000000005 L 54 5 L 54.400000000000006 5.2 L 54.800000000000004 5.4 L 55.400000000000006 5.800000000000001 L 55.800000000000004 6 L 56.400000000000006 6.2 L 56.800000000000004 6.6000000000000005 L 57.2 6.800000000000001 L 57.800000000000004 7 L 58.2 7.2 L 58.800000000000004 7.6000000000000005 L 59.2 7.800000000000001 L 59.6 8 L 60.2 8.4 L 60.6 8.6 L 61.2 8.8 L 61.6 9.200000000000001 L 62 9.4 L 62.6 9.600000000000001 L 63 9.8 L 63.6 10.200000000000001 L 64 10.4 L 64.4 10.600000000000001 L 65 11 L 65.4 11.200000000000001 L 66 11.4 L 66.4 11.600000000000001 L 66.8 12 L 67.4 12.200000000000001 L 67.8 12.4 L 68.4 12.8 L 68.8 13 L 69.2 13.200000000000001 L 69.8 13.4 L 70.2 13.8 L 70.60000000000001 14 L 71.2 14.200000000000001 L 71.60000000000001 14.600000000000001 L 72.2 14.8 L 72.60000000000001 15 L 73 15.200000000000001 L 73.60000000000001 15.600000000000001 L 74 15.8 L 74.60000000000001 16 L 75 16.2 L 75.4 16.6 L 76 16.8 L 76.4 17 L 77 17.2 L 77.4 17.6 L 77.80000000000001 17.8 L 78.4 18 L 78.80000000000001 18.400000000000002 L 79.4 18.6 L 79.80000000000001 18.8 L 80.2 19 L 80.80000000000001 19.400000000000002 L 81.2 19.6 L 81.80000000000001 19.8 L 82.2 20 L 82.60000000000001 20.400000000000002 L 83.2 20.6 L 83.60000000000001 20.8 L 84.2 21 L 84.60000000000001 21.400000000000002 L 85 21.6 L 85.60000000000001 21.8 L 86 22 L 86.60000000000001 22.400000000000002 L 87 22.6 L 87.4 22.8 L 88 23 L 88.4 23.200000000000003 L 89 23.6 L 89.4 23.8 L 89.80000000000001 24 L 90.4 24.200000000000003 L 90.80000000000001 24.6 L 91.4 24.8 L 91.80000000000001 25 L 92.2 25.200000000000003 L 92.80000000000001 25.6 L 93.2 25.8 L 93.80000000000001 26 L 94.2 26.200000000000003 L 94.60000000000001 26.400000000000002 L 95.2 26.8 L 95.60000000000001 27 L 96.2 27.200000000000003 L 96.60000000000001 27.400000000000002 L 97 27.8 L 97.60000000000001 28 L 98 28.200000000000003 L 98.4 28.400000000000002 L 99 28.6 L 99.4 29 L 100 29.200000000000003 L 100.4 29.400000000000002 L 100.80000000000001 29.6 L 101.4 29.8 L 101.80000000000001 30.200000000000003 L 102.4 30.400000000000002 L 102.80000000000001 30.6 L 103.2 30.8 L 103.80000000000001 31 L 104.2 31.400000000000002 L 104.80000000000001 31.6 L 105.2 31.8 L 105.60000000000001 32 L 106.2 32.2 L 106.60000000000001 32.6 L 107.2 32.800000000000004 L 107.60000000000001 33 L 108 33.2 L 108.60000000000001 33.4 L 109 33.800000000000004 L 109.60000000000001 34 L 110 34.2 L 110.4 34.4 L 111 34.6 L 111.4 35 L 112 35.2 L 112.4 35.4 L 112.80000000000001 35.6 L 113.4 35.800000000000004 L 113.80000000000001 36 L 114.4 36.4 L 114.80000000000001 36.6 L 115.2 36.800000000000004 L 115.80000000000001 37 L 116.2 37.2 L 116.80000000000001 37.4 L 117.2 37.800000000000004 L 117.60000000000001 38 L 118.2 38.2 L 118.60000000000001 38.400000000000006 L 119.2 38.6 L 119.60000000000001 39 L 120 39.2 L 120.60000000000001 39.400000000000006 L 121 39.6 L 121.60000000000001 39.800000000000004 L 122 40 L 122.4 40.2 L 123 40.6 L 123.4 40.800000000000004 L 124 41 L 124.4 41.2 L 124.80000000000001 41.400000000000006 L 125.4 41.6 L 125.80000000000001 42 L 126.4 42.2 L 126.80000000000001 42.400000000000006 L 127.2 42.6 L 127.80000000000001 42.800000000000004 L 128.20000000000002 43 L 128.6 43.2 L 129.20000000000002 43.6 L 129.6 43.800000000000004 L 130.20000000000002 44 L 130.6 44.2 L 131 44.400000000000006 L 131.6 44.6 L 132 44.800000000000004 L 132.6 45.2 L 133 45.400000000000006 L 133.4 45.6 L 134 45.800000000000004 L 134.4 46 L 135 46.2 L 135.4 46.400000000000006 L 135.8 46.6 L 136.4 47 L 136.8 47.2 L 137.4 47.400000000000006 L 137.8 47.6 L 138.20000000000002 47.800000000000004 L 138.8 48 L 139.20000000000002 48.2 L 139.8 48.400000000000006 L 140.20000000000002 48.800000000000004 L 140.6 49 L 141.20000000000002 49.2 L 141.6 49.400000000000006 L 142.20000000000002 49.6 L 142.6 49.800000000000004 L 143 50 L 143.6 50.2 L 144 50.6 L 144.6 50.800000000000004 L 145 51 L 145.4 51.2 L 146 51.400000000000006 L 146.4 51.6 L 147 51.800000000000004 L 147.4 52 L 147.8 52.2 L 148.4 52.400000000000006 L 148.8 52.800000000000004 L 149.4 53 L 149.8 53.2 L 150.20000000000002 53.400000000000006 L 150.8 53.6 L 151.20000000000002 53.800000000000004 L 151.8 54 L 152.20000000000002 54.2 L 152.6 54.400000000000006 L 153.20000000000002 54.6 L 153.60000000000002 55 L 154.20000000000002 55.2 L 154.60000000000002 55.400000000000006 L 155 55.6 L 155.60000000000002 55.800000000000004 L 156 56 L 156.4 56.2 L 157 56.400000000000006 L 157.4 56.6 L 158 56.800000000000004 L 158.4 57 L 158.8 57.2 L 159.4 57.400000000000006 L 159.8 57.800000000000004 L 160.4 58 L 160.8 58.2 L 161.20000000000002 58.400000000000006 L 161.8 58.6 L 162.20000000000002 58.800000000000004 L 162.8 59 L 163.20000000000002 59.2 L 163.60000000000002 59.400000000000006 L 164.20000000000002 59.6 L 164.60000000000002 59.800000000000004 L 165.20000000000002 60 L 165.60000000000002 60.2 L 166 60.400000000000006 L 166.60000000000002 60.6 L 167 61 L 167.60000000000002 61.2 L 168 61.400000000000006 L 168.4 61.6 L 169 61.800000000000004 L 169.4 62 L 170 62.2 L 170.4 62.400000000000006 L 170.8 62.6 L 171.4 62.800000000000004 L 171.8 63 L 172.4 63.2 L 172.8 63.400000000000006 L 173.20000000000002 63.6 L 173.8 63.800000000000004 L 174.20000000000002 64 L 174.8 64.2 L 175.20000000000002 64.4 L 175.60000000000002 64.60000000000001 L 176.20000000000002 64.8 L 176.60000000000002 65 L 177.20000000000002 65.4 L 177.60000000000002 65.60000000000001 L 178 65.8 L 178.60000000000002 66 L 179 66.2 L 179.60000000000002 66.4 L 180 66.60000000000001 L 180.4 66.8 L 181 67 L 181.4 67.2 L 182 67.4 L 182.4 67.60000000000001 L 182.8 67.8 L 183.4 68 L 183.8 68.2 L 184.4 68.4 L 184.8 68.60000000000001 L 185.20000000000002 68.8 L 185.8 69 L 186.20000000000002 69.2 L 186.60000000000002 69.4 L 187.20000000000002 69.60000000000001 L 187.60000000000002 69.8 L 188.20000000000002 70 L 188.60000000000002 70.2 L 189 70.4 L 189.60000000000002 70.60000000000001 L 190 70.8 L 190.60000000000002 71 L 191 71.2 L 191.4 71.4 L 192 71.60000000000001 L 192.4 71.8 L 193 72 L 193.4 72.2 L 193.8 72.4 L 194.4 72.60000000000001 L 194.8 72.8 L 195.4 73 L 195.8 73.2 L 196.20000000000002 73.4 L 196.8 73.60000000000001 L 197.20000000000002 73.8 L 197.8 74 L 198.20000000000002 74.2 L 198.60000000000002 74.4 L 199.20000000000002 74.60000000000001 L 199.60000000000002 74.8 L 200.20000000000002 75 L 200.60000000000002 75.2 L 201 75.4 L 201.60000000000002 75.60000000000001 L 202 75.8 L 202.60000000000002 76 L 203 76.2 L 203.4 76.4 L 204 76.60000000000001 L 204.4 76.80000000000001 L 205 77 L 205.4 77.2 L 205.8 77.4 L 206.4 77.60000000000001 L 206.8 77.80000000000001 L 207.4 78 L 207.8 78.2 L 208.20000000000002 78.4 L 208.8 78.4 L 209.20000000000002 78.60000000000001 L 209.8 78.80000000000001 L 210.20000000000002 79 L 210.60000000000002 79.2 L 211.20000000000002 79.4 L 211.60000000000002 79.60000000000001 L 212.20000000000002 79.80000000000001 L 212.60000000000002 80 L 213 80.2 L 213.60000000000002 80.4 L 214 80.60000000000001 L 214.4 80.80000000000001 L 215 81 L 215.4 81.2 L 216 81.4 L 216.4 81.60000000000001 L 216.8 81.80000000000001 L 217.4 82 L 217.8 82.2 L 218.4 82.4 L 218.8 82.4 L 219.20000000000002 82.60000000000001 L 219.8 82.80000000000001 L 220.20000000000002 83 L 220.8 83.2 L 221.20000000000002 83.4 L 221.60000000000002 83.60000000000001 L 222.20000000000002 83.80000000000001 L 222.60000000000002 84 L 223.20000000000002 84.2 L 223.60000000000002 84.4 L 224 84.60000000000001 L 224.60000000000002 84.80000000000001 L 225 85 L 225.60000000000002 85.2 L 226 85.2 L 226.4 85.4 L 227 85.60000000000001 L 227.4 85.80000000000001 L 228 86 L 228.4 86.2 L 228.8 86.4 L 229.4 86.60000000000001 L 229.8 86.80000000000001 L 230.4 87 L 230.8 87.2 L 231.20000000000002 87.4 L 231.8 87.4 L 232.20000000000002 87.60000000000001 L 232.8 87.80000000000001 L 233.20000000000002 88 L 233.60000000000002 88.2 L 234.20000000000002 88.4 L 234.60000000000002 88.60000000000001 L 235.20000000000002 88.80000000000001 L 235.60000000000002 89 L 236 89.2 L 236.60000000000002 89.4 L 237 89.4 L 237.60000000000002 89.60000000000001 L 238 89.80000000000001 L 238.4 90 L 239 90.2 L 239.4 90.4 L 240 90.60000000000001 L 240.4 90.80000000000001 L 240.8 91 L 241.4 91 L 241.8 91.2 L 242.20000000000002 91.4 L 242.8 91.60000000000001 L 243.20000000000002 91.80000000000001 L 243.8 92 L 244.20000000000002 92.2 L 244.60000000000002 92.4 L 245.20000000000002 92.60000000000001 L 245.60000000000002 92.60000000000001 L 246.20000000000002 92.80000000000001 L 246.60000000000002 93 L 247 93.2 L 247.60000000000002 93.4 L 248 93.60000000000001 L 248.60000000000002 93.80000000000001 L 249 94 L 249.4 94 L 250 94.2 L 250.4 94.4 L 251 94.60000000000001 L 251.4 94.80000000000001 L 251.8 95 L 252.4 95.2 L 252.8 95.4 L 253.4 95.4 L 253.8 95.60000000000001 L 254.20000000000002 95.80000000000001 L 254.8 96 L 255.20000000000002 96.2 L 255.8 96.4 L 256.2 96.60000000000001 L 256.6 96.60000000000001 L 257.2 96.80000000000001 L 257.6 97 L 258.2 97.2 L 258.6 97.4 L 259 97.60000000000001 L 259.6 97.60000000000001 L 260 97.80000000000001 L 260.6 98 L 261 98.2 L 261.40000000000003 98.4 L 262 98.60000000000001 L 262.40000000000003 98.80000000000001 L 263 98.80000000000001 L 263.40000000000003 99 L 263.8 99.2 L 264.40000000000003 99.4 L 264.8 99.60000000000001 L 265.40000000000003 99.80000000000001 L 265.8 99.80000000000001 L 266.2 100 L 266.8 100.2 L 267.2 100.4 L 267.8 100.60000000000001 L 268.2 100.80000000000001 L 268.6 100.80000000000001 L 269.2 101 L 269.6 101.2 L 270.2 101.4 L 270.6 101.60000000000001 L 271 101.80000000000001 L 271.6 101.80000000000001 L 272 102 L 272.40000000000003 102.2 L 273 102.4 L 273.40000000000003 102.60000000000001 L 274 102.60000000000001 L 274.40000000000003 102.80000000000001 L 274.8 103 L 275.40000000000003 103.2 L 275.8 103.4 L 276.40000000000003 103.60000000000001 L 276.8 103.60000000000001 L 277.2 103.80000000000001 L 277.8 104 L 278.2 104.2 L 278.8 104.4 L 279.2 104.4 L 279.6 104.60000000000001 L 280.2 104.80000000000001 L 280.6 105 L 281.2 105.2 L 281.6 105.2 L 282 105.4 L 282.6 105.60000000000001 L 283 105.80000000000001 L 283.6 106 L 284 106 L 284.40000000000003 106.2 L 285 106.4 L 285.40000000000003 106.60000000000001 L 286 106.80000000000001 L 286.40000000000003 106.80000000000001 L 286.8 107 L 287.40000000000003 107.2 L 287.8 107.4 L 288.40000000000003 107.4 L 288.8 107.60000000000001 L 289.2 107.80000000000001 L 289.8 108 L 290.2 108.2 L 290.8 108.2 L 291.2 108.4 L 291.6 108.60000000000001 L 292.2 108.80000000000001 L 292.6 108.80000000000001 L 293.2 109 L 293.6 109.2 L 294 109.4 L 294.6 109.60000000000001 L 295 109.60000000000001 L 295.6 109.80000000000001 L 296 110 L 296.40000000000003 110.2 L 297 110.2 L 297.40000000000003 110.4 L 298 110.60000000000001 L 298.40000000000003 110.80000000000001 L 298.8 110.80000000000001 L 299.40000000000003 111 L 299.8 111.2 L 300.2 111.4 L 300.8 111.4 L 301.2 111.60000000000001 L 301.8 111.80000000000001 L 302.2 112 L 302.6 112 L 303.2 112.2 L 303.6 112.4 L 304.2 112.60000000000001 L 304.6 112.60000000000001 L 305 112.80000000000001 L 305.6 113 L 306 113.2 L 306.6 113.2 L 307 113.4 L 307.40000000000003 113.60000000000001 L 308 113.80000000000001 L 308.40000000000003 113.80000000000001 L 309 114 L 309.40000000000003 114.2 L 309.8 114.4 L 310.40000000000003 114.4 L 310.8 114.60000000000001 L 311.40000000000003 114.80000000000001 L 311.8 115 L 312.20000000000005 115 L 312.8 115.2 L 313.20000000000005 115.4 L 313.8 115.4 L 314.20000000000005 115.60000000000001 L 314.6 115.80000000000001 L 315.20000000000005 116 L 315.6 116 L 316.20000000000005 116.2 L 316.6 116.4 L 317 116.4 L 317.6 116.60000000000001 L 318 116.80000000000001 L 318.6 117 L 319 117 L 319.40000000000003 117.2 L 320 117.4 L 320.40000000000003 117.4 L 321 117.60000000000001 L 321.40000000000003 117.80000000000001 L 321.8 118 L 322.40000000000003 118 L 322.8 118.2 L 323.40000000000003 118.4 L 323.8 118.4 L 324.20000000000005 118.60000000000001 L 324.8 118.80000000000001 L 325.20000000000005 119 L 325.8 119 L 326.20000000000005 119.2 L 326.6 119.4 L 327.20000000000005 119.4 L 327.6 119.60000000000001 L 328.20000000000005 119.80000000000001 L 328.6 119.80000000000001 L 329 120 L 329.6 120.2 L 330 120.2 L 330.40000000000003 120.4 L 331 120.60000000000001 L 331.40000000000003 120.80000000000001 L 332 120.80000000000001 L 332.40000000000003 121 L 332.8 121.2 L 333.40000000000003 121.2 L 333.8 121.4 L 334.40000000000003 121.60000000000001 L 334.8 121.60000000000001 L 335.20000000000005 121.80000000000001 L 335.8 122 L 336.20000000000005 122 L 336.8 122.2 L 337.20000000000005 122.4 L 337.6 122.4 L 338.20000000000005 122.60000000000001 L 338.6 122.80000000000001 L 339.20000000000005 122.80000000000001 L 339.6 123 L 340 123.2 L 340.6 123.2 L 341 123.4 L 341.6 123.60000000000001 L 342 123.60000000000001 L 342.40000000000003 123.80000000000001 L 343 124 L 343.40000000000003 124 L 344 124.2 L 344.40000000000003 124.4 L 344.8 124.4 L 345.40000000000003 124.60000000000001 L 345.8 124.80000000000001 L 346.40000000000003 124.80000000000001 L 346.8 125 L 347.20000000000005 125.2 L 347.8 125.2 L 348.20000000000005 125.4 L 348.8 125.60000000000001 L 349.20000000000005 125.60000000000001 L 349.6 125.80000000000001 L 350.20000000000005 125.80000000000001 L 350.6 126 L 351.20000000000005 126.2 L 351.6 126.2 L 352 126.4 L 352.6 126.60000000000001 L 353 126.60000000000001 L 353.6 126.80000000000001 L 354 127 L 354.40000000000003 127 L 355 127.2 L 355.40000000000003 127.2 L 356 127.4 L 356.40000000000003 127.60000000000001 L 356.8 127.60000000000001 L 357.40000000000003 127.80000000000001 L 357.8 128 L 358.20000000000005 128 L 358.8 128.20000000000002 L 359.20000000000005 128.20000000000002 L 359.8 128.4 L 360.20000000000005 128.6 L 360.6 128.6 L 361.20000000000005 128.8 L 361.6 129 L 362.20000000000005 129 L 362.6 129.20000000000002 L 363 129.20000000000002 L 363.6 129.4 L 364 129.6 L 364.6 129.6 L 365 129.8 L 365.40000000000003 129.8 L 366 130 L 366.40000000000003 130.20000000000002 L 367 130.20000000000002 L 367.40000000000003 130.4 L 367.8 130.6 L 368.40000000000003 130.6 L 368.8 130.8 L 369.40000000000003 130.8 L 369.8 131 L 370.20000000000005 131.20000000000002 L 370.8 131.20000000000002 L 371.20000000000005 131.4 L 371.8 131.4 L 372.20000000000005 131.6 L 372.6 131.6 L 373.20000000000005 131.8 L 373.6 132 L 374.20000000000005 132 L 374.6 132.20000000000002 L 375 132.20000000000002 L 375.6 132.4 L 376 132.6 L 376.6 132.6 L 377 132.8 L 377.40000000000003 132.8 L 378 133 L 378.40000000000003 133.20000000000002 L 379 133.20000000000002 L 379.40000000000003 133.4 L 379.8 133.4 L 380.40000000000003 133.6 L 380.8 133.6 L 381.40000000000003 133.8 L 381.8 134 L 382.20000000000005 134 L 382.8 134.20000000000002 L 383.20000000000005 134.20000000000002 L 383.8 134.4 L 384.20000000000005 134.4 L 384.6 134.6 L 385.20000000000005 134.8 L 385.6 134.8 L 386 135 L 386.6 135 L 387 135.20000000000002 L 387.6 135.20000000000002 L 388 135.4 L 388.40000000000003 135.4 L 389 135.6 L 389.40000000000003 135.8 L 390 135.8 L 390.40000000000003 136 L 390.8 136 L 391.40000000000003 136.20000000000002 L 391.8 136.20000000000002 L 392.40000000000003 136.4 L 392.8 136.4 L 393.20000000000005 136.6 L 393.8 136.6 L 394.20000000000005 136.8 L 394.8 137 L 395.20000000000005 137 L 395.6 137.20000000000002 L 396.20000000000005 137.20000000000002 L 396.6 137.4 L 397.20000000000005 137.4 L 397.6 137.6 L 398 137.6 L 398.6 137.8 L 399 137.8 L 399.6 138 L 400 138 L 400.40000000000003 138.20000000000002 L 401 138.4 L 401.40000000000003 138.4 L 402 138.6 L 402.40000000000003 138.6 L 402.8 138.8 L 403.40000000000003 138.8 L 403.8 139 L 404.40000000000003 139 L 404.8 139.20000000000002 L 405.20000000000005 139.20000000000002 L 405.8 139.4 L 406.20000000000005 139.4 L 406.8 139.6 L 407.20000000000005 139.6 L 407.6 139.8 L 408.20000000000005 139.8 L 408.6 140 L 409.20000000000005 140 L 409.6 140.20000000000002 L 410 140.20000000000002 L 410.6 140.4 L 411 140.4 L 411.6 140.6 L 412 140.6 L 412.40000000000003 140.8 L 413 140.8 L 413.40000000000003 141 L 414 141 L 414.40000000000003 141.20000000000002 L 414.8 141.20000000000002 L 415.40000000000003 141.4 L 415.8 141.4 L 416.20000000000005 141.6 L 416.8 141.6 L 417.20000000000005 141.8 L 417.8 141.8 L 418.20000000000005 142 L 418.6 142 L 419.20000000000005 142.20000000000002 L 419.6 142.20000000000002 L 420.20000000000005 142.4 L 420.6 142.4 L 421 142.6 L 421.6 142.6 L 422 142.8 L 422.6 142.8 L 423 143 L 423.40000000000003 143 L 424 143.20000000000002 L 424.40000000000003 143.20000000000002 L 425 143.4 L 425.40000000000003 143.4 L 425.8 143.6 L 426.40000000000003 143.6 L 426.8 143.6 L 427.40000000000003 143.8 L 427.8 143.8 L 428.20000000000005 144 L 428.8 144 L 429.20000000000005 144.20000000000002 L 429.8 144.20000000000002 L 430.20000000000005 144.4 L 430.6 144.4 L 431.20000000000005 144.6 L 431.6 144.6 L 432.20000000000005 144.8 L 432.6 144.8 L 433 144.8 L 433.6 145 L 434 145 L 434.6 145.20000000000002 L 435 145.20000000000002 L 435.40000000000003 145.4 L 436 145.4 L 436.40000000000003 145.6 L 437 145.6 L 437.40000000000003 145.8 L 437.8 145.8 L 438.40000000000003 145.8 L 438.8 146 L 439.40000000000003 146 L 439.8 146.20000000000002 L 440.20000000000005 146.20000000000002 L 440.8 146.4 L 441.20000000000005 146.4 L 441.8 146.4 L 442.20000000000005 146.6 L 442.6 146.6 L 443.20000000000005 146.8 L 443.6 146.8 L 444 147 L 444.6 147 L 445 147.20000000000002 L 445.6 147.20000000000002 L 446 147.20000000000002 L 446.40000000000003 147.4 L 447 147.4 L 447.40000000000003 147.6 L 448 147.6 L 448.40000000000003 147.6 L 448.8 147.8 L 449.40000000000003 147.8 L 449.8 148 L 450.40000000000003 148 L 450.8 148.20000000000002 L 451.20000000000005 148.20000000000002 L 451.8 148.20000000000002 L 452.20000000000005 148.4 L 452.8 148.4 L 453.20000000000005 148.6 L 453.6 148.6 L 454.20000000000005 148.6 L 454.6 148.8 L 455.20000000000005 148.8 L 455.6 149 L 456 149 L 456.6 149 L 457 149.20000000000002 L 457.6 149.20000000000002 L 458 149.4 L 458.40000000000003 149.4 L 459 149.4 L 459.40000000000003 149.6 L 460 149.6 L 460.40000000000003 149.8 L 460.8 149.8 L 461.40000000000003 149.8 L 461.8 150 L 462.40000000000003 150 L 462.8 150.20000000000002 L 463.20000000000005 150.20000000000002 L 463.8 150.20000000000002 L 464.20000000000005 150.4 L 464.8 150.4 L 465.20000000000005 150.6 L 465.6 150.6 L 466.20000000000005 150.6 L 466.6 150.8 L 467.20000000000005 150.8 L 467.6 150.8 L 468 151 L 468.6 151 L 469 151.20000000000002 L 469.6 151.20000000000002 L 470 151.20000000000002 L 470.40000000000003 151.4 L 471 151.4 L 471.40000000000003 151.4 L 472 151.6 L 472.40000000000003 151.6 L 472.8 151.8 L 473.40000000000003 151.8 L 473.8 151.8 L 474.20000000000005 152 L 474.8 152 L 475.20000000000005 152 L 475.8 152.20000000000002 L 476.20000000000005 152.20000000000002 L 476.6 152.20000000000002 L 477.20000000000005 152.4 L 477.6 152.4 L 478.20000000000005 152.4 L 478.6 152.6 L 479 152.6 L 479.6 152.8 L 480 152.8 L 480.6 152.8 L 481 153 L 481.40000000000003 153 L 482 153 L 482.40000000000003 153.20000000000002 L 483 153.20000000000002 L 483.40000000000003 153.20000000000002 L 483.8 153.4 L 484.40000000000003 153.4 L 484.8 153.4 L 485.40000000000003 153.60000000000002 L 485.8 153.60000000000002 L 486.20000000000005 153.60000000000002 L 486.8 153.8 L 487.20000000000005 153.8 L 487.8 153.8 L 488.20000000000005 154 L 488.6 154 L 489.20000000000005 154 L 489.6 154.20000000000002 L 490.20000000000005 154.20000000000002 L 490.6 154.20000000000002 L 491 154.4 L 491.6 154.4 L 492 154.4 L 492.6 154.60000000000002 L 493 154.60000000000002 L 493.40000000000003 154.60000000000002 L 494 154.8 L 494.40000000000003 154.8 L 495 154.8 L 495.40000000000003 155 L 495.8 155 L 496.40000000000003 155 L 496.8 155 L 497.40000000000003 155.20000000000002 L 497.8 155.20000000000002 L 498.20000000000005 155.20000000000002 L 498.8 155.4 L 499.20000000000005 155.4 L 499.8 155.4 L 500.20000000000005 155.60000000000002 L 500.6 155.60000000000002 L 501.20000000000005 155.60000000000002 L 501.6 155.8 L 502 155.8 L 502.6 155.8 L 503 155.8 L 503.6 156 L 504 156 L 504.40000000000003 156 L 505 156.20000000000002 L 505.40000000000003 156.20000000000002 L 506 156.20000000000002 L 506.40000000000003 156.20000000000002 L 506.8 156.4 L 507.40000000000003 156.4 L 507.8 156.4 L 508.40000000000003 156.60000000000002 L 508.8 156.60000000000002 L 509.20000000000005 156.60000000000002 L 509.8 156.60000000000002 L 510.20000000000005 156.8 L 510.8 156.8 L 511.20000000000005 156.8 L 511.6 157 L 512.2 157 L 512.6 157 L 513.2 157 L 513.6 157.20000000000002 L 514 157.20000000000002 L 514.6 157.20000000000002 L 515 157.20000000000002 L 515.6 157.4 L 516 157.4 L 516.4 157.4 L 517 157.60000000000002 L 517.4 157.60000000000002 L 518 157.60000000000002 L 518.4 157.60000000000002 L 518.8000000000001 157.8 L 519.4 157.8 L 519.8000000000001 157.8 L 520.4 157.8 L 520.8000000000001 158 L 521.2 158 L 521.8000000000001 158 L 522.2 158 L 522.8000000000001 158.20000000000002 L 523.2 158.20000000000002 L 523.6 158.20000000000002 L 524.2 158.20000000000002 L 524.6 158.4 L 525.2 158.4 L 525.6 158.4 L 526 158.4 L 526.6 158.60000000000002 L 527 158.60000000000002 L 527.6 158.60000000000002 L 528 158.60000000000002 L 528.4 158.8 L 529 158.8 L 529.4 158.8 "/></g><circle fill="black" r="3" display="none"/><g/><rect fill="white"/><text/><g/></g></g><g><g clip-path="url(#_clipplota40b54ac-453b-4e50-9910-9b97ead7ffaf)"><rect data-label-i="0" display="initial"/><text data-label-i="0" display="initial"/></g><g clip-path="url(#_clipplota40b54ac-453b-4e50-9910-9b97ead7ffaf)"><rect data-label-i="0" display="initial"/><text data-label-i="0" display="initial"/></g><g clip-path="url(#_clipplota40b54ac-453b-4e50-9910-9b97ead7ffaf)"><rect data-label-i="0" display="initial"/><text data-label-i="0" display="initial"/></g><g clip-path="url(#_clipplota40b54ac-453b-4e50-9910-9b97ead7ffaf)"><rect data-label-i="0" display="initial"/><text data-label-i="0" display="initial"/></g></g></g></g><line stroke="black" shape-rendering="crispEdges" stroke-linecap="square" display="none"/><line stroke="black" shape-rendering="crispEdges" stroke-linecap="square" display="none"/><line stroke="black" shape-rendering="crispEdges" stroke-linecap="square" display="none"/><line stroke="black" shape-rendering="crispEdges" stroke-linecap="square" display="none"/></g><g><rect display="none" fill="rgba(171,12,12,0.2)" stroke="rgba(171,12,12,1)" shape-rendering="crispEdges" x="0" y="0" height="0" width="0" pointer-events="none"/></g></g><g display="block" transform="translate(99, 306.92432403564453)"><rect x="-5" y="-8.109375" stroke="rgba( 100, 100, 100, 0.5 )" stroke-width="1px" rx="0" ry="0" fill="rgba( 255, 255, 255, 0.8 )" width="422.578125" height="37.18505096435547"/><symbol id="3fb6c62a-93bf-43d5-8fcb-74fa0812d1b5" viewBox="0 -256 1850 1850"><rect pointer-events="fill" x="-256" y="0" fill="transparent" width="2106" height="1850"/><g transform="matrix(1,0,0,-1,30.372881,1259.8983)"><path d="m 1664,576 q -152,236 -381,353 61,-104 61,-225 0,-185 -131.5,-316.5 Q 1081,256 896,256 711,256 579.5,387.5 448,519 448,704 448,825 509,929 280,812 128,576 261,371 461.5,249.5 662,128 896,128 1130,128 1330.5,249.5 1531,371 1664,576 z M 944,960 q 0,20 -14,34 -14,14 -34,14 -125,0 -214.5,-89.5 Q 592,829 592,704 q 0,-20 14,-34 14,-14 34,-14 20,0 34,14 14,14 14,34 0,86 61,147 61,61 147,61 20,0 34,14 14,14 14,34 z m 848,-384 q 0,-34 -20,-69 Q 1632,277 1395.5,138.5 1159,0 896,0 633,0 396.5,139 160,278 20,507 0,542 0,576 q 0,34 20,69 140,229 376.5,368 236.5,139 499.5,139 263,0 499.5,-139 236.5,-139 376.5,-368 20,-35 20,-69 z" fill="#444444"/></g></symbol><symbol id="a1c79452-2b2c-4f8d-b0ef-5ab9d0107258" viewBox="0 -256 1850 1850"><rect pointer-events="fill" fill="transparent" x="-256" y="0" width="2106" height="1850"/><g transform="matrix(1,0,0,-1,30.372881,1214.339)"><path d="m 555,201 78,141 q -87,63 -136,159 -49,96 -49,203 0,121 61,225 Q 280,812 128,576 295,318 555,201 z m 389,759 q 0,20 -14,34 -14,14 -34,14 -125,0 -214.5,-89.5 Q 592,829 592,704 q 0,-20 14,-34 14,-14 34,-14 20,0 34,14 14,14 14,34 0,86 61,147 61,61 147,61 20,0 34,14 14,14 14,34 z m 363,191 q 0,-7 -1,-9 Q 1201,954 991,576 781,198 675,9 l -49,-89 q -10,-16 -28,-16 -12,0 -134,70 -16,10 -16,28 0,12 44,87 Q 349,154 228.5,262 108,370 20,507 0,538 0,576 q 0,38 20,69 153,235 380,371 227,136 496,136 89,0 180,-17 l 54,97 q 10,16 28,16 5,0 18,-6 13,-6 31,-15.5 18,-9.5 33,-18.5 15,-9 31.5,-18.5 16.5,-9.5 19.5,-11.5 16,-10 16,-27 z m 37,-447 Q 1344,565 1265,450.5 1186,336 1056,286 l 280,502 q 8,-45 8,-84 z m 448,-128 q 0,-35 -20,-69 Q 1733,443 1663,362 1513,190 1315.5,95 1118,0 896,0 l 74,132 q 212,18 392.5,137 180.5,119 301.5,307 -115,179 -282,294 l 63,112 q 95,-64 182.5,-153 87.5,-89 144.5,-184 20,-34 20,-69 z" fill="#c0c0c0"/></g></symbol><g><g transform="translate( 0, 10)"><rect x="5" y="-8.109375" width="67.3125" height="17.18505096435547" fill="none" pointer-events="fill"/><line stroke="rgba(255,1,9,1)" stroke-width="0.0001" fill="none" x1="5" x2="25" y1="0" y2="0" cursor="pointer"/><path fill="rgba(255,1,9,1)" stroke="rgba(255,1,9,1)" stroke-width="1" d="M 14 0 m -1 -1 l 2 0 l 0 2 l -2 0 z"/><use xlink:href="#3fb6c62a-93bf-43d5-8fcb-74fa0812d1b5" width="15" height="15" x="35" y="-8"/><text cursor="pointer" transform="translate(55, 3)" fill="black">red</text></g><g transform="translate( 77.3125, 10)"><rect x="5" y="-8.109375" width="80.65625" height="17.18505096435547" fill="none" pointer-events="fill"/><line stroke="rgba(5,150,0,1)" stroke-width="0.0001" fill="none" x1="5" x2="25" y1="0" y2="0" cursor="pointer"/><path fill="rgba(5,150,0,1)" stroke="rgba(5,150,0,1)" stroke-width="1" d="M 14 0 m -1 -1 l 2 0 l 0 2 l -2 0 z"/><use xlink:href="#3fb6c62a-93bf-43d5-8fcb-74fa0812d1b5" width="15" height="15" x="35" y="-8"/><text cursor="pointer" transform="translate(55, 3)" fill="black">green</text></g><g transform="translate( 167.96875, 10)"><rect x="5" y="-8.109375" width="72.65625" height="17.18505096435547" fill="none" pointer-events="fill"/><line stroke="rgba(2,1,255,1)" stroke-width="0.0001" fill="none" x1="5" x2="25" y1="0" y2="0" cursor="pointer"/><path fill="rgba(2,1,255,1)" stroke="rgba(2,1,255,1)" stroke-width="1" d="M 14 0 m -1 -1 l 2 0 l 0 2 l -2 0 z"/><use xlink:href="#3fb6c62a-93bf-43d5-8fcb-74fa0812d1b5" width="15" height="15" x="35" y="-8"/><text cursor="pointer" transform="translate(55, 3)" fill="black">blue</text></g><g transform="translate( 250.625, 10)"><rect x="5" y="-8.109375" width="151.953125" height="17.18505096435547" fill="none" pointer-events="fill"/><line stroke="rgba(255,253,11,0.4)" stroke-width="3" fill="none" x1="5" x2="25" y1="0" y2="0" cursor="pointer"/><use xlink:href="#3fb6c62a-93bf-43d5-8fcb-74fa0812d1b5" width="15" height="15" x="35" y="-8"/><text cursor="pointer" transform="translate(55, 3)" fill="black">regressionFunction</text></g></g><rect x="0" y="0" width="422.578125" height="37.18505096435547" fill="none" pointer-events="fill" display="none"/></g></svg>