<?xml version="1.0" standalone="no"?><!DOCTYPE svg PUBLIC "-//W3C//DTD SVG 1.1//EN" "http://www.w3.org/Graphics/SVG/1.1/DTD/svg11.dtd"><svg xmlns:xlink="http://www.w3.org/1999/xlink" xmlns="http://www.w3.org/2000/svg" font-family="Myriad Pro, Helvetica, Arial" font-size="12" data-jsgraph-version="v2.0.100" tabindex="0" width="560" height="366.020834"><defs><clipPath id="_clipplota07bbcf7-da7e-4e51-bb44-c548a93486d2" clipPathUnits="userSpaceOnUse"><rect y="0" x="57.333791732788086" width="462.6662082672119" height="299.020834"/></clipPath><marker xmlns="" viewBox="0 0 10 10" id="arrowa07bbcf7-da7e-4e51-bb44-c548a93486d2" refX="6" refY="5" markerUnits="strokeWidth" markerWidth="8" markerHeight="6" orient="auto"><path xmlns="http://www.w3.org/2000/svg" d="M 0 0 L 10 5 L 0 10 z"/></marker><marker viewBox="0 0 6 8" id="horionzalsplit_a07bbcf7-da7e-4e51-bb44-c548a93486d2" refX="3" refY="4" markerUnits="strokeWidth" markerWidth="6" markerHeight="8"><line x1="0" y1="8" x2="6" y2="0" stroke="black"/></marker><marker viewBox="0 0 8 6" id="verticalsplit_a07bbcf7-da7e-4e51-bb44-c548a93486d2" refX="4" refY="3" markerUnits="strokeWidth" markerWidth="8" markerHeight="6"><line x1="0" y1="0" x2="8" y2="6" stroke="black"/></marker><marker viewBox="0 0 10 10" id="verticallinea07bbcf7-da7e-4e51-bb44-c548a93486d2" refX="0" refY="5" markerUnits="strokeWidth" markerWidth="20" markerHeight="10" orient="auto" stroke-width="1px"><path d="M 0 -10 L 0 10" stroke="black"/></marker></defs><g><rect pointer-events="fill" fill="transparent" y="30" x="77.33379173278809" width="462.6662082672119" height="299.020834"/><text text-anchor="middle" y="20" x="280"/><g transform="translate(20, 30)"><g><g><g><path shape-rendering="crispEdges" stroke="#F0F0F0" stroke-width="1" stroke-opacity="undefined" clip-path="url(#_clipplota07bbcf7-da7e-4e51-bb44-c548a93486d2)" d="M 61.61773810563265 0 L 61.61773810563265 331.020834M 70.18563085132175 0 L 70.18563085132175 331.020834M 78.75352359701087 0 L 78.75352359701087 331.020834M 87.32141634269998 0 L 87.32141634269998 331.020834M 95.8893090883891 0 L 95.8893090883891 331.020834M 104.45720183407822 0 L 104.45720183407822 331.020834M 113.02509457976734 0 L 113.02509457976734 331.020834M 121.59298732545645 0 L 121.59298732545645 331.020834M 130.16088007114558 0 L 130.16088007114558 331.020834M 147.29666556252374 0 L 147.29666556252374 331.020834M 155.86455830821288 0 L 155.86455830821288 331.020834M 164.432451053902 0 L 164.432451053902 331.020834M 173.00034379959112 0 L 173.00034379959112 331.020834M 181.56823654528023 0 L 181.56823654528023 331.020834M 190.13612929096934 0 L 190.13612929096934 331.020834M 198.70402203665844 0 L 198.70402203665844 331.020834M 207.27191478234758 0 L 207.27191478234758 331.020834M 215.8398075280367 0 L 215.8398075280367 331.020834M 232.9755930194149 0 L 232.9755930194149 331.020834M 241.54348576510398 0 L 241.54348576510398 331.020834M 250.11137851079312 0 L 250.11137851079312 331.020834M 258.67927125648225 0 L 258.67927125648225 331.020834M 267.24716400217136 0 L 267.24716400217136 331.020834M 275.81505674786047 0 L 275.81505674786047 331.020834M 284.3829494935496 0 L 284.3829494935496 331.020834M 292.9508422392387 0 L 292.9508422392387 331.020834M 301.51873498492785 0 L 301.51873498492785 331.020834M 318.65452047630595 0 L 318.65452047630595 331.020834M 327.22241322199505 0 L 327.22241322199505 331.020834M 335.7903059676842 0 L 335.7903059676842 331.020834M 344.35819871337327 0 L 344.35819871337327 331.020834M 352.9260914590624 0 L 352.9260914590624 331.020834M 361.49398420475154 0 L 361.49398420475154 331.020834M 370.06187695044065 0 L 370.06187695044065 331.020834M 378.62976969612976 0 L 378.62976969612976 331.020834M 387.19766244181886 0 L 387.19766244181886 331.020834M 404.333447933197 0 L 404.333447933197 331.020834M 412.90134067888613 0 L 412.90134067888613 331.020834M 421.4692334245753 0 L 421.4692334245753 331.020834M 430.03712617026434 0 L 430.03712617026434 331.020834M 438.6050189159535 0 L 438.6050189159535 331.020834M 447.1729116616426 0 L 447.1729116616426 331.020834M 455.7408044073317 0 L 455.7408044073317 331.020834M 464.30869715302083 0 L 464.30869715302083 331.020834M 472.87658989870994 0 L 472.87658989870994 331.020834M 490.0123753900881 0 L 490.0123753900881 331.020834M 498.58026813577726 0 L 498.58026813577726 331.020834M 507.1481608814663 0 L 507.1481608814663 331.020834M 515.7160536271554 0 L 515.7160536271554 331.020834"/><path shape-rendering="crispEdges" stroke="#F0F0F0" stroke-width="1" stroke-opacity="undefined" clip-path="url(#_clipplota07bbcf7-da7e-4e51-bb44-c548a93486d2)" d="M 0 293.516165381447 L 520 293.516165381447M 0 281.77161957698206 L 520 281.77161957698206M 0 270.0270737725171 L 520 270.0270737725171M 0 258.28252796805214 L 520 258.28252796805214M 0 246.53798216358715 L 520 246.53798216358715M 0 234.79343635912218 L 520 234.79343635912218M 0 223.04889055465722 L 520 223.04889055465722M 0 211.30434475019229 L 520 211.30434475019229M 0 199.55979894572732 L 520 199.55979894572732M 0 187.81525314126236 L 520 187.81525314126236M 0 176.07070733679737 L 520 176.07070733679737M 0 164.3261615323324 L 520 164.3261615323324M 0 152.58161572786742 L 520 152.58161572786742M 0 140.83706992340245 L 520 140.83706992340245M 0 129.0925241189375 L 520 129.0925241189375M 0 117.3479783144725 L 520 117.3479783144725M 0 105.60343251000751 L 520 105.60343251000751M 0 82.11434090107767 L 520 82.11434090107767M 0 70.36979509661268 L 520 70.36979509661268M 0 58.625249292147686 L 520 58.625249292147686M 0 46.88070348768275 L 520 46.88070348768275M 0 35.13615768321779 L 520 35.13615768321779M 0 23.39161187875277 L 520 23.39161187875277M 0 11.647066074287807 L 520 11.647066074287807"/></g><g><path shape-rendering="crispEdges" stroke="#DADADA" stroke-width="1" stroke-opacity="undefined" clip-path="url(#_clipplota07bbcf7-da7e-4e51-bb44-c548a93486d2)" d="M 138.72877281683463 0 L 138.72877281683463 331.020834M 224.40770027372577 0 L 224.40770027372577 331.020834M 310.0866277306168 0 L 310.0866277306168 331.020834M 395.7655551875079 0 L 395.7655551875079 331.020834M 481.444482644399 0 L 481.444482644399 331.020834"/><path shape-rendering="crispEdges" stroke="#DADADA" stroke-width="1" stroke-opacity="undefined" clip-path="url(#_clipplota07bbcf7-da7e-4e51-bb44-c548a93486d2)" d="M 0 211.30434475019226 L 520 211.30434475019226M 0 93.85888670554263 L 520 93.85888670554263"/></g></g><g transform="translate(0 299.020834)"><rect pointer-events="fill" fill="transparent"/><g><line y1="0" y2="-2" stroke="black" display="visible" x1="61.61773810563265" x2="61.61773810563265"/><line y1="0" y2="-2" stroke="black" display="visible" x1="70.18563085132175" x2="70.18563085132175"/><line y1="0" y2="-2" stroke="black" display="visible" x1="78.75352359701087" x2="78.75352359701087"/><line y1="0" y2="-2" stroke="black" display="visible" x1="87.32141634269998" x2="87.32141634269998"/><line y1="0" y2="-4" stroke="black" display="visible" x1="95.8893090883891" x2="95.8893090883891"/><line y1="0" y2="-2" stroke="black" display="visible" x1="104.45720183407822" x2="104.45720183407822"/><line y1="0" y2="-2" stroke="black" display="visible" x1="113.02509457976734" x2="113.02509457976734"/><line y1="0" y2="-2" stroke="black" display="visible" x1="121.59298732545645" x2="121.59298732545645"/><line y1="0" y2="-2" stroke="black" display="visible" x1="130.16088007114558" x2="130.16088007114558"/><line y1="0" y2="-2" stroke="black" display="visible" x1="147.29666556252374" x2="147.29666556252374"/><line y1="0" y2="-2" stroke="black" display="visible" x1="155.86455830821288" x2="155.86455830821288"/><line y1="0" y2="-2" stroke="black" display="visible" x1="164.432451053902" x2="164.432451053902"/><line y1="0" y2="-2" stroke="black" display="visible" x1="173.00034379959112" x2="173.00034379959112"/><line y1="0" y2="-4" stroke="black" display="visible" x1="181.56823654528023" x2="181.56823654528023"/><line y1="0" y2="-2" stroke="black" display="visible" x1="190.13612929096934" x2="190.13612929096934"/><line y1="0" y2="-2" stroke="black" display="visible" x1="198.70402203665844" x2="198.70402203665844"/><line y1="0" y2="-2" stroke="black" display="visible" x1="207.27191478234758" x2="207.27191478234758"/><line y1="0" y2="-2" stroke="black" display="visible" x1="215.8398075280367" x2="215.8398075280367"/><line y1="0" y2="-6" stroke="black" display="visible" x1="138.72877281683463" x2="138.72877281683463"/><line y1="0" y2="-2" stroke="black" display="visible" x1="232.9755930194149" x2="232.9755930194149"/><line y1="0" y2="-2" stroke="black" display="visible" x1="241.54348576510398" x2="241.54348576510398"/><line y1="0" y2="-2" stroke="black" display="visible" x1="250.11137851079312" x2="250.11137851079312"/><line y1="0" y2="-2" stroke="black" display="visible" x1="258.67927125648225" x2="258.67927125648225"/><line y1="0" y2="-4" stroke="black" display="visible" x1="267.24716400217136" x2="267.24716400217136"/><line y1="0" y2="-2" stroke="black" display="visible" x1="275.81505674786047" x2="275.81505674786047"/><line y1="0" y2="-2" stroke="black" display="visible" x1="284.3829494935496" x2="284.3829494935496"/><line y1="0" y2="-2" stroke="black" display="visible" x1="292.9508422392387" x2="292.9508422392387"/><line y1="0" y2="-2" stroke="black" display="visible" x1="301.51873498492785" x2="301.51873498492785"/><line y1="0" y2="-6" stroke="black" display="visible" x1="224.40770027372577" x2="224.40770027372577"/><line y1="0" y2="-2" stroke="black" display="visible" x1="318.65452047630595" x2="318.65452047630595"/><line y1="0" y2="-2" stroke="black" display="visible" x1="327.22241322199505" x2="327.22241322199505"/><line y1="0" y2="-2" stroke="black" display="visible" x1="335.7903059676842" x2="335.7903059676842"/><line y1="0" y2="-2" stroke="black" display="visible" x1="344.35819871337327" x2="344.35819871337327"/><line y1="0" y2="-4" stroke="black" display="visible" x1="352.9260914590624" x2="352.9260914590624"/><line y1="0" y2="-2" stroke="black" display="visible" x1="361.49398420475154" x2="361.49398420475154"/><line y1="0" y2="-2" stroke="black" display="visible" x1="370.06187695044065" x2="370.06187695044065"/><line y1="0" y2="-2" stroke="black" display="visible" x1="378.62976969612976" x2="378.62976969612976"/><line y1="0" y2="-2" stroke="black" display="visible" x1="387.19766244181886" x2="387.19766244181886"/><line y1="0" y2="-6" stroke="black" display="visible" x1="310.0866277306168" x2="310.0866277306168"/><line y1="0" y2="-2" stroke="black" display="visible" x1="404.333447933197" x2="404.333447933197"/><line y1="0" y2="-2" stroke="black" display="visible" x1="412.90134067888613" x2="412.90134067888613"/><line y1="0" y2="-2" stroke="black" display="visible" x1="421.4692334245753" x2="421.4692334245753"/><line y1="0" y2="-2" stroke="black" display="visible" x1="430.03712617026434" x2="430.03712617026434"/><line y1="0" y2="-4" stroke="black" display="visible" x1="438.6050189159535" x2="438.6050189159535"/><line y1="0" y2="-2" stroke="black" display="visible" x1="447.1729116616426" x2="447.1729116616426"/><line y1="0" y2="-2" stroke="black" display="visible" x1="455.7408044073317" x2="455.7408044073317"/><line y1="0" y2="-2" stroke="black" display="visible" x1="464.30869715302083" x2="464.30869715302083"/><line y1="0" y2="-2" stroke="black" display="visible" x1="472.87658989870994" x2="472.87658989870994"/><line y1="0" y2="-6" stroke="black" display="visible" x1="395.7655551875079" x2="395.7655551875079"/><line y1="0" y2="-2" stroke="black" display="visible" x1="490.0123753900881" x2="490.0123753900881"/><line y1="0" y2="-2" stroke="black" display="visible" x1="498.58026813577726" x2="498.58026813577726"/><line y1="0" y2="-2" stroke="black" display="visible" x1="507.1481608814663" x2="507.1481608814663"/><line y1="0" y2="-2" stroke="black" display="visible" x1="515.7160536271554" x2="515.7160536271554"/><line y1="0" y2="-6" stroke="black" display="visible" x1="481.444482644399" x2="481.444482644399"/></g><g><text y="8" text-anchor="middle" display="visible" x="138.72877281683463" style="dominant-baseline: hanging;">0.10</text><text y="8" text-anchor="middle" display="visible" x="224.40770027372577" style="dominant-baseline: hanging;">0.15</text><text y="8" text-anchor="middle" display="visible" x="310.0866277306168" style="dominant-baseline: hanging;">0.20</text><text y="8" text-anchor="middle" display="visible" x="395.7655551875079" style="dominant-baseline: hanging;">0.25</text><text y="8" text-anchor="middle" display="visible" x="481.444482644399" style="dominant-baseline: hanging;">0.30</text></g><line stroke="black" shape-rendering="crispEdges" stroke-linecap="square" display="block" x1="57.333791732788086" x2="520" y1="0" y2="0" marker-start="" marker-end=""/><text text-anchor="middle" fill="undefined" style="display: initial;" x="288.66689586639404" y="22"><tspan style="dominant-baseline: hanging;">Concentration in NaOH [M]</tspan><tspan display="none" style="dominant-baseline: hanging;"/><tspan dx="6" display="none" style="dominant-baseline: hanging;"/><tspan dy="-5" font-size="0.8em" display="none" style="dominant-baseline: hanging;"/></text><g/></g><g transform="translate( 57.333791732788086 0 )"><rect pointer-events="fill" fill="transparent"/><g><line x1="0" x2="2" stroke="black" display="visible" y1="293.516165381447" y2="293.516165381447"/><line x1="0" x2="2" stroke="black" display="visible" y1="281.77161957698206" y2="281.77161957698206"/><line x1="0" x2="4" stroke="black" display="visible" y1="270.0270737725171" y2="270.0270737725171"/><line x1="0" x2="2" stroke="black" display="visible" y1="258.28252796805214" y2="258.28252796805214"/><line x1="0" x2="2" stroke="black" display="visible" y1="246.53798216358715" y2="246.53798216358715"/><line x1="0" x2="2" stroke="black" display="visible" y1="234.79343635912218" y2="234.79343635912218"/><line x1="0" x2="2" stroke="black" display="visible" y1="223.04889055465722" y2="223.04889055465722"/><line x1="0" x2="2" stroke="black" display="visible" y1="211.30434475019229" y2="211.30434475019229"/><line x1="0" x2="2" stroke="black" display="visible" y1="199.55979894572732" y2="199.55979894572732"/><line x1="0" x2="2" stroke="black" display="visible" y1="187.81525314126236" y2="187.81525314126236"/><line x1="0" x2="2" stroke="black" display="visible" y1="176.07070733679737" y2="176.07070733679737"/><line x1="0" x2="2" stroke="black" display="visible" y1="164.3261615323324" y2="164.3261615323324"/><line x1="0" x2="4" stroke="black" display="visible" y1="152.58161572786742" y2="152.58161572786742"/><line x1="0" x2="2" stroke="black" display="visible" y1="140.83706992340245" y2="140.83706992340245"/><line x1="0" x2="2" stroke="black" display="visible" y1="129.0925241189375" y2="129.0925241189375"/><line x1="0" x2="2" stroke="black" display="visible" y1="117.3479783144725" y2="117.3479783144725"/><line x1="0" x2="2" stroke="black" display="visible" y1="105.60343251000751" y2="105.60343251000751"/><line x1="0" x2="6" stroke="black" display="visible" y1="211.30434475019226" y2="211.30434475019226"/><line x1="0" x2="2" stroke="black" display="visible" y1="82.11434090107767" y2="82.11434090107767"/><line x1="0" x2="2" stroke="black" display="visible" y1="70.36979509661268" y2="70.36979509661268"/><line x1="0" x2="2" stroke="black" display="visible" y1="58.625249292147686" y2="58.625249292147686"/><line x1="0" x2="2" stroke="black" display="visible" y1="46.88070348768275" y2="46.88070348768275"/><line x1="0" x2="4" stroke="black" display="visible" y1="35.13615768321779" y2="35.13615768321779"/><line x1="0" x2="2" stroke="black" display="visible" y1="23.39161187875277" y2="23.39161187875277"/><line x1="0" x2="2" stroke="black" display="visible" y1="11.647066074287807" y2="11.647066074287807"/><line x1="0" x2="6" stroke="black" display="visible" y1="93.85888670554263" y2="93.85888670554263"/></g><g><text x="-5" text-anchor="end" display="visible" y="211.30434475019226" style="dominant-baseline: central;">0.10</text><text x="-5" text-anchor="end" display="visible" y="93.85888670554263" style="dominant-baseline: central;">0.20</text></g><line stroke="black" shape-rendering="crispEdges" stroke-linecap="square" display="block" y1="299.020834" y2="0" x1="0" x2="0" marker-start="" marker-end=""/><text text-anchor="middle" transform="translate(-45.333791732788086, 149.510417) rotate(-90)" fill="undefined" dominant-baseline="auto"><tspan>k</tspan><tspan display="none"/><tspan dx="6" display="none"/><tspan dy="-5" font-size="0.8em" display="none"/></text><g/></g></g><g><g data-layer="1"><g><g><g><path stroke="rgba(1,1,255,1)" stroke-width="0.0001" fill="none" d="M 481.40000000000003 24.8 L 352.8 115.80000000000001 L 224.4 195.4 L 95.80000000000001 270.2 "/></g><circle fill="black" r="3" display="block" cx="554.6" cy="30.6"/><g/><rect fill="white" display="block" x="559.6" y="13.600000000000001" width="2" height="14"/><text display="block" x="559.6" y="25.6"/><g><path fill="rgba(1,1,255,1)" stroke="rgba(1,1,255,1)" stroke-width="1" d="M 481.40000000000003 24.8 m -2 -2 l 4 0 l 0 4 l -4 0 z M 352.8 115.80000000000001 m -2 -2 l 4 0 l 0 4 l -4 0 z M 224.4 195.4 m -2 -2 l 4 0 l 0 4 l -4 0 z M 95.80000000000001 270.2 m -2 -2 l 4 0 l 0 4 l -4 0 z "/></g></g><g><g><path stroke="rgba(245,255,0,0.53)" stroke-width="3" fill="none" d="M 95.80000000000001 274 L 96.2 273.8 L 96.60000000000001 273.6 L 97 273.2 L 97.4 273 L 97.80000000000001 272.8 L 98.2 272.6 L 98.4 272.2 L 98.80000000000001 272 L 99.2 271.8 L 99.60000000000001 271.6 L 100 271.40000000000003 L 100.4 271 L 100.80000000000001 270.8 L 101.2 270.6 L 101.60000000000001 270.40000000000003 L 102 270 L 102.4 269.8 L 102.80000000000001 269.6 L 103.2 269.40000000000003 L 103.60000000000001 269.2 L 103.80000000000001 268.8 L 104.2 268.6 L 104.60000000000001 268.40000000000003 L 105 268.2 L 105.4 267.8 L 105.80000000000001 267.6 L 106.2 267.40000000000003 L 106.60000000000001 267.2 L 107 267 L 107.4 266.6 L 107.80000000000001 266.40000000000003 L 108.2 266.2 L 108.60000000000001 266 L 108.80000000000001 265.6 L 109.2 265.40000000000003 L 109.60000000000001 265.2 L 110 265 L 110.4 264.6 L 110.80000000000001 264.40000000000003 L 111.2 264.2 L 111.60000000000001 264 L 112 263.8 L 112.4 263.40000000000003 L 112.80000000000001 263.2 L 113.2 263 L 113.60000000000001 262.8 L 114 262.40000000000003 L 114.2 262.2 L 114.60000000000001 262 L 115 261.8 L 115.4 261.6 L 115.80000000000001 261.2 L 116.2 261 L 116.60000000000001 260.8 L 117 260.6 L 117.4 260.2 L 117.80000000000001 260 L 118.2 259.8 L 118.60000000000001 259.6 L 119 259.40000000000003 L 119.4 259 L 119.60000000000001 258.8 L 120 258.6 L 120.4 258.40000000000003 L 120.80000000000001 258 L 121.2 257.8 L 121.60000000000001 257.6 L 122 257.40000000000003 L 122.4 257.2 L 122.80000000000001 256.8 L 123.2 256.6 L 123.60000000000001 256.40000000000003 L 124 256.2 L 124.4 255.8 L 124.80000000000001 255.60000000000002 L 125 255.4 L 125.4 255.20000000000002 L 125.80000000000001 255 L 126.2 254.60000000000002 L 126.60000000000001 254.4 L 127 254.20000000000002 L 127.4 254 L 127.80000000000001 253.60000000000002 L 128.20000000000002 253.4 L 128.6 253.20000000000002 L 129 253 L 129.4 252.8 L 129.8 252.4 L 130.20000000000002 252.20000000000002 L 130.4 252 L 130.8 251.8 L 131.20000000000002 251.4 L 131.6 251.20000000000002 L 132 251 L 132.4 250.8 L 132.8 250.60000000000002 L 133.20000000000002 250.20000000000002 L 133.6 250 L 134 249.8 L 134.4 249.60000000000002 L 134.8 249.20000000000002 L 135.20000000000002 249 L 135.6 248.8 L 135.8 248.60000000000002 L 136.20000000000002 248.20000000000002 L 136.6 248 L 137 247.8 L 137.4 247.60000000000002 L 137.8 247.4 L 138.20000000000002 247 L 138.6 246.8 L 139 246.60000000000002 L 139.4 246.4 L 139.8 246 L 140.20000000000002 245.8 L 140.6 245.60000000000002 L 140.8 245.4 L 141.20000000000002 245.20000000000002 L 141.6 244.8 L 142 244.60000000000002 L 142.4 244.4 L 142.8 244.20000000000002 L 143.20000000000002 243.8 L 143.6 243.60000000000002 L 144 243.4 L 144.4 243.20000000000002 L 144.8 243 L 145.20000000000002 242.60000000000002 L 145.6 242.4 L 146 242.20000000000002 L 146.20000000000002 242 L 146.6 241.60000000000002 L 147 241.4 L 147.4 241.20000000000002 L 147.8 241 L 148.20000000000002 240.8 L 148.6 240.4 L 149 240.20000000000002 L 149.4 240 L 149.8 239.8 L 150.20000000000002 239.4 L 150.6 239.20000000000002 L 151 239 L 151.4 238.8 L 151.6 238.60000000000002 L 152 238.20000000000002 L 152.4 238 L 152.8 237.8 L 153.20000000000002 237.60000000000002 L 153.60000000000002 237.20000000000002 L 154 237 L 154.4 236.8 L 154.8 236.60000000000002 L 155.20000000000002 236.4 L 155.60000000000002 236 L 156 235.8 L 156.4 235.60000000000002 L 156.8 235.4 L 157 235 L 157.4 234.8 L 157.8 234.60000000000002 L 158.20000000000002 234.4 L 158.60000000000002 234 L 159 233.8 L 159.4 233.60000000000002 L 159.8 233.4 L 160.20000000000002 233.20000000000002 L 160.60000000000002 232.8 L 161 232.60000000000002 L 161.4 232.4 L 161.8 232.20000000000002 L 162.20000000000002 231.8 L 162.4 231.60000000000002 L 162.8 231.4 L 163.20000000000002 231.20000000000002 L 163.60000000000002 231 L 164 230.60000000000002 L 164.4 230.4 L 164.8 230.20000000000002 L 165.20000000000002 230 L 165.60000000000002 229.60000000000002 L 166 229.4 L 166.4 229.20000000000002 L 166.8 229 L 167.20000000000002 228.8 L 167.60000000000002 228.4 L 167.8 228.20000000000002 L 168.20000000000002 228 L 168.60000000000002 227.8 L 169 227.4 L 169.4 227.20000000000002 L 169.8 227 L 170.20000000000002 226.8 L 170.60000000000002 226.60000000000002 L 171 226.20000000000002 L 171.4 226 L 171.8 225.8 L 172.20000000000002 225.60000000000002 L 172.60000000000002 225.20000000000002 L 173 225 L 173.20000000000002 224.8 L 173.60000000000002 224.60000000000002 L 174 224.4 L 174.4 224 L 174.8 223.8 L 175.20000000000002 223.60000000000002 L 175.60000000000002 223.4 L 176 223 L 176.4 222.8 L 176.8 222.60000000000002 L 177.20000000000002 222.4 L 177.60000000000002 222.20000000000002 L 178 221.8 L 178.20000000000002 221.60000000000002 L 178.60000000000002 221.4 L 179 221.20000000000002 L 179.4 220.8 L 179.8 220.60000000000002 L 180.20000000000002 220.4 L 180.60000000000002 220.20000000000002 L 181 220 L 181.4 219.60000000000002 L 181.8 219.4 L 182.20000000000002 219.20000000000002 L 182.60000000000002 219 L 183 218.60000000000002 L 183.4 218.4 L 183.60000000000002 218.20000000000002 L 184 218 L 184.4 217.60000000000002 L 184.8 217.4 L 185.20000000000002 217.20000000000002 L 185.60000000000002 217 L 186 216.8 L 186.4 216.4 L 186.8 216.20000000000002 L 187.20000000000002 216 L 187.60000000000002 215.8 L 188 215.4 L 188.4 215.20000000000002 L 188.8 215 L 189 214.8 L 189.4 214.60000000000002 L 189.8 214.20000000000002 L 190.20000000000002 214 L 190.60000000000002 213.8 L 191 213.60000000000002 L 191.4 213.20000000000002 L 191.8 213 L 192.20000000000002 212.8 L 192.60000000000002 212.60000000000002 L 193 212.4 L 193.4 212 L 193.8 211.8 L 194.20000000000002 211.60000000000002 L 194.4 211.4 L 194.8 211 L 195.20000000000002 210.8 L 195.60000000000002 210.60000000000002 L 196 210.4 L 196.4 210.20000000000002 L 196.8 209.8 L 197.20000000000002 209.60000000000002 L 197.60000000000002 209.4 L 198 209.20000000000002 L 198.4 208.8 L 198.8 208.60000000000002 L 199.20000000000002 208.4 L 199.60000000000002 208.20000000000002 L 199.8 208 L 200.20000000000002 207.60000000000002 L 200.60000000000002 207.4 L 201 207.20000000000002 L 201.4 207 L 201.8 206.60000000000002 L 202.20000000000002 206.4 L 202.60000000000002 206.20000000000002 L 203 206 L 203.4 205.8 L 203.8 205.4 L 204.20000000000002 205.20000000000002 L 204.60000000000002 205 L 205 204.8 L 205.20000000000002 204.4 L 205.60000000000002 204.20000000000002 L 206 204 L 206.4 203.8 L 206.8 203.4 L 207.20000000000002 203.20000000000002 L 207.60000000000002 203 L 208 202.8 L 208.4 202.60000000000002 L 208.8 202.20000000000002 L 209.20000000000002 202 L 209.60000000000002 201.8 L 210 201.60000000000002 L 210.20000000000002 201.20000000000002 L 210.60000000000002 201 L 211 200.8 L 211.4 200.60000000000002 L 211.8 200.4 L 212.20000000000002 200 L 212.60000000000002 199.8 L 213 199.60000000000002 L 213.4 199.4 L 213.8 199 L 214.20000000000002 198.8 L 214.60000000000002 198.60000000000002 L 215 198.4 L 215.4 198.20000000000002 L 215.60000000000002 197.8 L 216 197.60000000000002 L 216.4 197.4 L 216.8 197.20000000000002 L 217.20000000000002 196.8 L 217.60000000000002 196.60000000000002 L 218 196.4 L 218.4 196.20000000000002 L 218.8 196 L 219.20000000000002 195.60000000000002 L 219.60000000000002 195.4 L 220 195.20000000000002 L 220.4 195 L 220.8 194.60000000000002 L 221 194.4 L 221.4 194.20000000000002 L 221.8 194 L 222.20000000000002 193.8 L 222.60000000000002 193.4 L 223 193.20000000000002 L 223.4 193 L 223.8 192.8 L 224.20000000000002 192.4 L 224.60000000000002 192.20000000000002 L 225 192 L 225.4 191.8 L 225.8 191.60000000000002 L 226.20000000000002 191.20000000000002 L 226.4 191 L 226.8 190.8 L 227.20000000000002 190.60000000000002 L 227.60000000000002 190.20000000000002 L 228 190 L 228.4 189.8 L 228.8 189.60000000000002 L 229.20000000000002 189.4 L 229.60000000000002 189 L 230 188.8 L 230.4 188.60000000000002 L 230.8 188.4 L 231.20000000000002 188 L 231.60000000000002 187.8 L 231.8 187.60000000000002 L 232.20000000000002 187.4 L 232.60000000000002 187 L 233 186.8 L 233.4 186.60000000000002 L 233.8 186.4 L 234.20000000000002 186.20000000000002 L 234.60000000000002 185.8 L 235 185.60000000000002 L 235.4 185.4 L 235.8 185.20000000000002 L 236.20000000000002 184.8 L 236.60000000000002 184.60000000000002 L 237 184.4 L 237.20000000000002 184.20000000000002 L 237.60000000000002 184 L 238 183.60000000000002 L 238.4 183.4 L 238.8 183.20000000000002 L 239.20000000000002 183 L 239.60000000000002 182.60000000000002 L 240 182.4 L 240.4 182.20000000000002 L 240.8 182 L 241.20000000000002 181.8 L 241.60000000000002 181.4 L 242 181.20000000000002 L 242.4 181 L 242.60000000000002 180.8 L 243 180.4 L 243.4 180.20000000000002 L 243.8 180 L 244.20000000000002 179.8 L 244.60000000000002 179.60000000000002 L 245 179.20000000000002 L 245.4 179 L 245.8 178.8 L 246.20000000000002 178.60000000000002 L 246.60000000000002 178.20000000000002 L 247 178 L 247.4 177.8 L 247.60000000000002 177.60000000000002 L 248 177.4 L 248.4 177 L 248.8 176.8 L 249.20000000000002 176.60000000000002 L 249.60000000000002 176.4 L 250 176 L 250.4 175.8 L 250.8 175.60000000000002 L 251.20000000000002 175.4 L 251.60000000000002 175.20000000000002 L 252 174.8 L 252.4 174.60000000000002 L 252.8 174.4 L 253 174.20000000000002 L 253.4 173.8 L 253.8 173.60000000000002 L 254.20000000000002 173.4 L 254.60000000000002 173.20000000000002 L 255 172.8 L 255.4 172.60000000000002 L 255.8 172.4 L 256.2 172.20000000000002 L 256.6 172 L 257 171.60000000000002 L 257.40000000000003 171.4 L 257.8 171.20000000000002 L 258.2 171 L 258.40000000000003 170.60000000000002 L 258.8 170.4 L 259.2 170.20000000000002 L 259.6 170 L 260 169.8 L 260.40000000000003 169.4 L 260.8 169.20000000000002 L 261.2 169 L 261.6 168.8 L 262 168.4 L 262.40000000000003 168.20000000000002 L 262.8 168 L 263.2 167.8 L 263.6 167.60000000000002 L 263.8 167.20000000000002 L 264.2 167 L 264.6 166.8 L 265 166.60000000000002 L 265.40000000000003 166.20000000000002 L 265.8 166 L 266.2 165.8 L 266.6 165.60000000000002 L 267 165.4 L 267.40000000000003 165 L 267.8 164.8 L 268.2 164.60000000000002 L 268.6 164.4 L 269 164 L 269.2 163.8 L 269.6 163.60000000000002 L 270 163.4 L 270.40000000000003 163.20000000000002 L 270.8 162.8 L 271.2 162.60000000000002 L 271.6 162.4 L 272 162.20000000000002 L 272.40000000000003 161.8 L 272.8 161.60000000000002 L 273.2 161.4 L 273.6 161.20000000000002 L 274 161 L 274.40000000000003 160.60000000000002 L 274.6 160.4 L 275 160.20000000000002 L 275.40000000000003 160 L 275.8 159.60000000000002 L 276.2 159.4 L 276.6 159.20000000000002 L 277 159 L 277.40000000000003 158.8 L 277.8 158.4 L 278.2 158.20000000000002 L 278.6 158 L 279 157.8 L 279.40000000000003 157.4 L 279.6 157.20000000000002 L 280 157 L 280.40000000000003 156.8 L 280.8 156.4 L 281.2 156.20000000000002 L 281.6 156 L 282 155.8 L 282.40000000000003 155.60000000000002 L 282.8 155.20000000000002 L 283.2 155 L 283.6 154.8 L 284 154.60000000000002 L 284.40000000000003 154.20000000000002 L 284.8 154 L 285 153.8 L 285.40000000000003 153.60000000000002 L 285.8 153.4 L 286.2 153 L 286.6 152.8 L 287 152.6 L 287.40000000000003 152.4 L 287.8 152 L 288.2 151.8 L 288.6 151.6 L 289 151.4 L 289.40000000000003 151.20000000000002 L 289.8 150.8 L 290.2 150.6 L 290.40000000000003 150.4 L 290.8 150.20000000000002 L 291.2 149.8 L 291.6 149.6 L 292 149.4 L 292.40000000000003 149.20000000000002 L 292.8 149 L 293.2 148.6 L 293.6 148.4 L 294 148.20000000000002 L 294.40000000000003 148 L 294.8 147.6 L 295.2 147.4 L 295.6 147.20000000000002 L 295.8 147 L 296.2 146.8 L 296.6 146.4 L 297 146.20000000000002 L 297.40000000000003 146 L 297.8 145.8 L 298.2 145.4 L 298.6 145.20000000000002 L 299 145 L 299.40000000000003 144.8 L 299.8 144.6 L 300.2 144.20000000000002 L 300.6 144 L 301 143.8 L 301.2 143.6 L 301.6 143.20000000000002 L 302 143 L 302.40000000000003 142.8 L 302.8 142.6 L 303.2 142.20000000000002 L 303.6 142 L 304 141.8 L 304.40000000000003 141.6 L 304.8 141.4 L 305.2 141 L 305.6 140.8 L 306 140.6 L 306.40000000000003 140.4 L 306.6 140 L 307 139.8 L 307.40000000000003 139.6 L 307.8 139.4 L 308.20000000000005 139.20000000000002 L 308.6 138.8 L 309 138.6 L 309.40000000000003 138.4 L 309.8 138.20000000000002 L 310.20000000000005 137.8 L 310.6 137.6 L 311 137.4 L 311.40000000000003 137.20000000000002 L 311.8 137 L 312 136.6 L 312.40000000000003 136.4 L 312.8 136.20000000000002 L 313.20000000000005 136 L 313.6 135.6 L 314 135.4 L 314.40000000000003 135.20000000000002 L 314.8 135 L 315.20000000000005 134.8 L 315.6 134.4 L 316 134.20000000000002 L 316.40000000000003 134 L 316.8 133.8 L 317 133.4 L 317.40000000000003 133.20000000000002 L 317.8 133 L 318.20000000000005 132.8 L 318.6 132.6 L 319 132.20000000000002 L 319.40000000000003 132 L 319.8 131.8 L 320.20000000000005 131.6 L 320.6 131.20000000000002 L 321 131 L 321.40000000000003 130.8 L 321.8 130.6 L 322.20000000000005 130.4 L 322.40000000000003 130 L 322.8 129.8 L 323.20000000000005 129.6 L 323.6 129.4 L 324 129 L 324.40000000000003 128.8 L 324.8 128.6 L 325.20000000000005 128.4 L 325.6 128 L 326 127.80000000000001 L 326.40000000000003 127.60000000000001 L 326.8 127.4 L 327.20000000000005 127.2 L 327.6 126.80000000000001 L 327.8 126.60000000000001 L 328.20000000000005 126.4 L 328.6 126.2 L 329 125.80000000000001 L 329.40000000000003 125.60000000000001 L 329.8 125.4 L 330.20000000000005 125.2 L 330.6 125 L 331 124.60000000000001 L 331.40000000000003 124.4 L 331.8 124.2 L 332.20000000000005 124 L 332.6 123.60000000000001 L 333 123.4 L 333.20000000000005 123.2 L 333.6 123 L 334 122.80000000000001 L 334.40000000000003 122.4 L 334.8 122.2 L 335.20000000000005 122 L 335.6 121.80000000000001 L 336 121.4 L 336.40000000000003 121.2 L 336.8 121 L 337.20000000000005 120.80000000000001 L 337.6 120.60000000000001 L 338 120.2 L 338.40000000000003 120 L 338.6 119.80000000000001 L 339 119.60000000000001 L 339.40000000000003 119.2 L 339.8 119 L 340.20000000000005 118.80000000000001 L 340.6 118.60000000000001 L 341 118.4 L 341.40000000000003 118 L 341.8 117.80000000000001 L 342.20000000000005 117.60000000000001 L 342.6 117.4 L 343 117 L 343.40000000000003 116.80000000000001 L 343.8 116.60000000000001 L 344 116.4 L 344.40000000000003 116.2 L 344.8 115.80000000000001 L 345.20000000000005 115.60000000000001 L 345.6 115.4 L 346 115.2 L 346.40000000000003 114.80000000000001 L 346.8 114.60000000000001 L 347.20000000000005 114.4 L 347.6 114.2 L 348 114 L 348.40000000000003 113.60000000000001 L 348.8 113.4 L 349 113.2 L 349.40000000000003 113 L 349.8 112.60000000000001 L 350.20000000000005 112.4 L 350.6 112.2 L 351 112 L 351.40000000000003 111.60000000000001 L 351.8 111.4 L 352.20000000000005 111.2 L 352.6 111 L 353 110.80000000000001 L 353.40000000000003 110.4 L 353.8 110.2 L 354.20000000000005 110 L 354.40000000000003 109.80000000000001 L 354.8 109.4 L 355.20000000000005 109.2 L 355.6 109 L 356 108.80000000000001 L 356.40000000000003 108.60000000000001 L 356.8 108.2 L 357.20000000000005 108 L 357.6 107.80000000000001 L 358 107.60000000000001 L 358.40000000000003 107.2 L 358.8 107 L 359.20000000000005 106.80000000000001 L 359.6 106.60000000000001 L 359.8 106.4 L 360.20000000000005 106 L 360.6 105.80000000000001 L 361 105.60000000000001 L 361.40000000000003 105.4 L 361.8 105 L 362.20000000000005 104.80000000000001 L 362.6 104.60000000000001 L 363 104.4 L 363.40000000000003 104.2 L 363.8 103.80000000000001 L 364.20000000000005 103.60000000000001 L 364.6 103.4 L 365 103.2 L 365.20000000000005 102.80000000000001 L 365.6 102.60000000000001 L 366 102.4 L 366.40000000000003 102.2 L 366.8 102 L 367.20000000000005 101.60000000000001 L 367.6 101.4 L 368 101.2 L 368.40000000000003 101 L 368.8 100.60000000000001 L 369.20000000000005 100.4 L 369.6 100.2 L 370 100 L 370.40000000000003 99.80000000000001 L 370.6 99.4 L 371 99.2 L 371.40000000000003 99 L 371.8 98.80000000000001 L 372.20000000000005 98.4 L 372.6 98.2 L 373 98 L 373.40000000000003 97.80000000000001 L 373.8 97.4 L 374.20000000000005 97.2 L 374.6 97 L 375 96.80000000000001 L 375.40000000000003 96.60000000000001 L 375.8 96.2 L 376 96 L 376.40000000000003 95.80000000000001 L 376.8 95.60000000000001 L 377.20000000000005 95.2 L 377.6 95 L 378 94.80000000000001 L 378.40000000000003 94.60000000000001 L 378.8 94.4 L 379.20000000000005 94 L 379.6 93.80000000000001 L 380 93.60000000000001 L 380.40000000000003 93.4 L 380.8 93 L 381.20000000000005 92.80000000000001 L 381.40000000000003 92.60000000000001 L 381.8 92.4 L 382.20000000000005 92.2 L 382.6 91.80000000000001 L 383 91.60000000000001 L 383.40000000000003 91.4 L 383.8 91.2 L 384.20000000000005 90.80000000000001 L 384.6 90.60000000000001 L 385 90.4 L 385.40000000000003 90.2 L 385.8 90 L 386.20000000000005 89.60000000000001 L 386.40000000000003 89.4 L 386.8 89.2 L 387.20000000000005 89 L 387.6 88.60000000000001 L 388 88.4 L 388.40000000000003 88.2 L 388.8 88 L 389.20000000000005 87.80000000000001 L 389.6 87.4 L 390 87.2 L 390.40000000000003 87 L 390.8 86.80000000000001 L 391.20000000000005 86.4 L 391.6 86.2 L 391.8 86 L 392.20000000000005 85.80000000000001 L 392.6 85.60000000000001 L 393 85.2 L 393.40000000000003 85 L 393.8 84.80000000000001 L 394.20000000000005 84.60000000000001 L 394.6 84.2 L 395 84 L 395.40000000000003 83.80000000000001 L 395.8 83.60000000000001 L 396.20000000000005 83.4 L 396.6 83 L 397 82.80000000000001 L 397.20000000000005 82.60000000000001 L 397.6 82.4 L 398 82 L 398.40000000000003 81.80000000000001 L 398.8 81.60000000000001 L 399.20000000000005 81.4 L 399.6 81 L 400 80.80000000000001 L 400.40000000000003 80.60000000000001 L 400.8 80.4 L 401.20000000000005 80.2 L 401.6 79.80000000000001 L 402 79.60000000000001 L 402.40000000000003 79.4 L 402.6 79.2 L 403 78.80000000000001 L 403.40000000000003 78.60000000000001 L 403.8 78.4 L 404.20000000000005 78.2 L 404.6 78 L 405 77.60000000000001 L 405.40000000000003 77.4 L 405.8 77.2 L 406.20000000000005 77 L 406.6 76.60000000000001 L 407 76.4 L 407.40000000000003 76.2 L 407.8 76 L 408 75.8 L 408.40000000000003 75.4 L 408.8 75.2 L 409.20000000000005 75 L 409.6 74.8 L 410 74.4 L 410.40000000000003 74.2 L 410.8 74 L 411.20000000000005 73.8 L 411.6 73.60000000000001 L 412 73.2 L 412.40000000000003 73 L 412.8 72.8 L 413.20000000000005 72.60000000000001 L 413.40000000000003 72.2 L 413.8 72 L 414.20000000000005 71.8 L 414.6 71.60000000000001 L 415 71.4 L 415.40000000000003 71 L 415.8 70.8 L 416.20000000000005 70.60000000000001 L 416.6 70.4 L 417 70 L 417.40000000000003 69.8 L 417.8 69.60000000000001 L 418.20000000000005 69.4 L 418.40000000000003 69.2 L 418.8 68.8 L 419.20000000000005 68.60000000000001 L 419.6 68.4 L 420 68.2 L 420.40000000000003 67.8 L 420.8 67.60000000000001 L 421.20000000000005 67.4 L 421.6 67.2 L 422 66.8 L 422.40000000000003 66.60000000000001 L 422.8 66.4 L 423.20000000000005 66.2 L 423.6 66 L 423.8 65.60000000000001 L 424.20000000000005 65.4 L 424.6 65.2 L 425 65 L 425.40000000000003 64.60000000000001 L 425.8 64.4 L 426.20000000000005 64.2 L 426.6 64 L 427 63.800000000000004 L 427.40000000000003 63.400000000000006 L 427.8 63.2 L 428.20000000000005 63 L 428.6 62.800000000000004 L 429 62.400000000000006 L 429.20000000000005 62.2 L 429.6 62 L 430 61.800000000000004 L 430.40000000000003 61.6 L 430.8 61.2 L 431.20000000000005 61 L 431.6 60.800000000000004 L 432 60.6 L 432.40000000000003 60.2 L 432.8 60 L 433.20000000000005 59.800000000000004 L 433.6 59.6 L 434 59.400000000000006 L 434.40000000000003 59 L 434.6 58.800000000000004 L 435 58.6 L 435.40000000000003 58.400000000000006 L 435.8 58 L 436.20000000000005 57.800000000000004 L 436.6 57.6 L 437 57.400000000000006 L 437.40000000000003 57.2 L 437.8 56.800000000000004 L 438.20000000000005 56.6 L 438.6 56.400000000000006 L 439 56.2 L 439.40000000000003 55.800000000000004 L 439.8 55.6 L 440 55.400000000000006 L 440.40000000000003 55.2 L 440.8 55 L 441.20000000000005 54.6 L 441.6 54.400000000000006 L 442 54.2 L 442.40000000000003 54 L 442.8 53.6 L 443.20000000000005 53.400000000000006 L 443.6 53.2 L 444 53 L 444.40000000000003 52.800000000000004 L 444.8 52.400000000000006 L 445.20000000000005 52.2 L 445.40000000000003 52 L 445.8 51.800000000000004 L 446.20000000000005 51.400000000000006 L 446.6 51.2 L 447 51 L 447.40000000000003 50.800000000000004 L 447.8 50.400000000000006 L 448.20000000000005 50.2 L 448.6 50 L 449 49.800000000000004 L 449.40000000000003 49.6 L 449.8 49.2 L 450.20000000000005 49 L 450.6 48.800000000000004 L 450.8 48.6 L 451.20000000000005 48.2 L 451.6 48 L 452 47.800000000000004 L 452.40000000000003 47.6 L 452.8 47.400000000000006 L 453.20000000000005 47 L 453.6 46.800000000000004 L 454 46.6 L 454.40000000000003 46.400000000000006 L 454.8 46 L 455.20000000000005 45.800000000000004 L 455.6 45.6 L 455.8 45.400000000000006 L 456.20000000000005 45.2 L 456.6 44.800000000000004 L 457 44.6 L 457.40000000000003 44.400000000000006 L 457.8 44.2 L 458.20000000000005 43.800000000000004 L 458.6 43.6 L 459 43.400000000000006 L 459.40000000000003 43.2 L 459.8 43 L 460.20000000000005 42.6 L 460.6 42.400000000000006 L 461 42.2 L 461.20000000000005 42 L 461.6 41.6 L 462 41.400000000000006 L 462.40000000000003 41.2 L 462.8 41 L 463.20000000000005 40.800000000000004 L 463.6 40.400000000000006 L 464 40.2 L 464.40000000000003 40 L 464.8 39.800000000000004 L 465.20000000000005 39.400000000000006 L 465.6 39.2 L 466 39 L 466.40000000000003 38.800000000000004 L 466.6 38.6 L 467 38.2 L 467.40000000000003 38 L 467.8 37.800000000000004 L 468.20000000000005 37.6 L 468.6 37.2 L 469 37 L 469.40000000000003 36.800000000000004 L 469.8 36.6 L 470.20000000000005 36.2 L 470.6 36 L 471 35.800000000000004 L 471.40000000000003 35.6 L 471.8 35.4 L 472 35 L 472.40000000000003 34.800000000000004 L 472.8 34.6 L 473.20000000000005 34.4 L 473.6 34 L 474 33.800000000000004 L 474.40000000000003 33.6 L 474.8 33.4 L 475.20000000000005 33.2 L 475.6 32.800000000000004 L 476 32.6 L 476.40000000000003 32.4 L 476.8 32.2 L 477.20000000000005 31.8 L 477.40000000000003 31.6 L 477.8 31.400000000000002 L 478.20000000000005 31.200000000000003 L 478.6 31 L 479 30.6 L 479.40000000000003 30.400000000000002 L 479.8 30.200000000000003 L 480.20000000000005 30 L 480.6 29.6 L 481 29.400000000000002 L 481.40000000000003 29.200000000000003 "/></g><circle fill="black" r="3" display="block" cx="553.8000000000001" cy="36.6"/><g/><rect fill="white" display="block" x="558.8000000000001" y="19.6" width="2" height="14"/><text display="block" x="558.8000000000001" y="31.6"/><g/></g></g><g><g clip-path="url(#_clipplota07bbcf7-da7e-4e51-bb44-c548a93486d2)"><rect data-label-i="0" display="initial"/><text data-label-i="0" display="initial"/></g><g clip-path="url(#_clipplota07bbcf7-da7e-4e51-bb44-c548a93486d2)"><rect data-label-i="0" display="initial"/><text data-label-i="0" display="initial"/></g><g clip-path="url(#_clipplota07bbcf7-da7e-4e51-bb44-c548a93486d2)"><rect data-label-i="0" display="initial"/><text data-label-i="0" display="initial"/></g><g clip-path="url(#_clipplota07bbcf7-da7e-4e51-bb44-c548a93486d2)"><rect data-label-i="0" display="initial"/><text data-label-i="0" display="initial"/></g></g></g></g><line stroke="black" shape-rendering="crispEdges" stroke-linecap="square" display="none"/><line stroke="black" shape-rendering="crispEdges" stroke-linecap="square" display="none"/><line stroke="black" shape-rendering="crispEdges" stroke-linecap="square" display="none"/><line stroke="black" shape-rendering="crispEdges" stroke-linecap="square" display="none"/></g><g><rect display="none" fill="rgba(171,12,12,0.2)" stroke="rgba(171,12,12,1)" shape-rendering="crispEdges" x="0" y="0" height="0" width="0" pointer-events="none"/></g></g></svg>