<?xml version="1.0" standalone="no"?><!DOCTYPE svg PUBLIC "-//W3C//DTD SVG 1.1//EN" "http://www.w3.org/Graphics/SVG/1.1/DTD/svg11.dtd"><svg xmlns:xlink="http://www.w3.org/1999/xlink" xmlns="http://www.w3.org/2000/svg" font-family="Myriad Pro, Helvetica, Arial" font-size="12" data-jsgraph-version="v2.0.100" tabindex="0" width="640" height="436.020834"><defs><clipPath id="_clipplot28aedde0-2675-4d7b-9b9b-9b40310bd7fd" clipPathUnits="userSpaceOnUse"><rect y="0" x="33.333791732788086" width="566.6662082672119" height="381.020834"/></clipPath><marker xmlns="" viewBox="0 0 10 10" id="arrow28aedde0-2675-4d7b-9b9b-9b40310bd7fd" refX="6" refY="5" markerUnits="strokeWidth" markerWidth="8" markerHeight="6" orient="auto"><path xmlns="http://www.w3.org/2000/svg" d="M 0 0 L 10 5 L 0 10 z"/></marker><marker viewBox="0 0 6 8" id="horionzalsplit_28aedde0-2675-4d7b-9b9b-9b40310bd7fd" refX="3" refY="4" markerUnits="strokeWidth" markerWidth="6" markerHeight="8"><line x1="0" y1="8" x2="6" y2="0" stroke="black"/></marker><marker viewBox="0 0 8 6" id="verticalsplit_28aedde0-2675-4d7b-9b9b-9b40310bd7fd" refX="4" refY="3" markerUnits="strokeWidth" markerWidth="8" markerHeight="6"><line x1="0" y1="0" x2="8" y2="6" stroke="black"/></marker><marker viewBox="0 0 10 10" id="verticalline28aedde0-2675-4d7b-9b9b-9b40310bd7fd" refX="0" refY="5" markerUnits="strokeWidth" markerWidth="20" markerHeight="10" orient="auto" stroke-width="1px"><path d="M 0 -10 L 0 10" stroke="black"/></marker></defs><g><rect pointer-events="fill" fill="transparent" y="30" x="53.333791732788086" width="566.6662082672119" height="381.020834"/><text text-anchor="middle" y="20" x="320"/><g transform="translate(20, 30)"><g><g><g><path shape-rendering="crispEdges" stroke="#F0F0F0" stroke-width="1" stroke-opacity="undefined" clip-path="url(#_clipplot28aedde0-2675-4d7b-9b9b-9b40310bd7fd)" d="M 44.502864823272304 0 L 44.502864823272304 401.020834M 52.71541856627539 0 L 52.71541856627539 401.020834M 60.92797230927846 0 L 60.92797230927846 401.020834M 69.14052605228154 0 L 69.14052605228154 401.020834M 77.35307979528463 0 L 77.35307979528463 401.020834M 85.5656335382877 0 L 85.5656335382877 401.020834M 93.77818728129077 0 L 93.77818728129077 401.020834M 101.99074102429385 0 L 101.99074102429385 401.020834M 110.20329476729694 0 L 110.20329476729694 401.020834M 126.628402253303 0 L 126.628402253303 401.020834M 134.84095599630606 0 L 134.84095599630606 401.020834M 143.05350973930916 0 L 143.05350973930916 401.020834M 151.26606348231223 0 L 151.26606348231223 401.020834M 159.4786172253153 0 L 159.4786172253153 401.020834M 167.69117096831837 0 L 167.69117096831837 401.020834M 175.90372471132147 0 L 175.90372471132147 401.020834M 184.11627845432454 0 L 184.11627845432454 401.020834M 192.3288321973276 0 L 192.3288321973276 401.020834M 208.75393968333367 0 L 208.75393968333367 401.020834M 216.96649342633674 0 L 216.96649342633674 401.020834M 225.17904716933984 0 L 225.17904716933984 401.020834M 233.3916009123429 0 L 233.3916009123429 401.020834M 241.60415465534598 0 L 241.60415465534598 401.020834M 249.81670839834905 0 L 249.81670839834905 401.020834M 258.0292621413522 0 L 258.0292621413522 401.020834M 266.2418158843552 0 L 266.2418158843552 401.020834M 274.45436962735835 0 L 274.45436962735835 401.020834M 290.8794771133644 0 L 290.8794771133644 401.020834M 299.09203085636744 0 L 299.09203085636744 401.020834M 307.3045845993705 0 L 307.3045845993705 401.020834M 315.5171383423736 0 L 315.5171383423736 401.020834M 323.7296920853767 0 L 323.7296920853767 401.020834M 331.9422458283798 0 L 331.9422458283798 401.020834M 340.15479957138285 0 L 340.15479957138285 401.020834M 348.3673533143859 0 L 348.3673533143859 401.020834M 356.579907057389 0 L 356.579907057389 401.020834M 373.0050145433952 0 L 373.0050145433952 401.020834M 381.2175682863982 0 L 381.2175682863982 401.020834M 389.43012202940133 0 L 389.43012202940133 401.020834M 397.64267577240435 0 L 397.64267577240435 401.020834M 405.8552295154075 0 L 405.8552295154075 401.020834M 414.06778325841054 0 L 414.06778325841054 401.020834M 422.2803370014136 0 L 422.2803370014136 401.020834M 430.4928907444167 0 L 430.4928907444167 401.020834M 438.70544448741975 0 L 438.70544448741975 401.020834M 455.13055197342595 0 L 455.13055197342595 401.020834M 463.34310571642897 0 L 463.34310571642897 401.020834M 471.5556594594321 0 L 471.5556594594321 401.020834M 479.76821320243516 0 L 479.76821320243516 401.020834M 487.98076694543823 0 L 487.98076694543823 401.020834M 496.19332068844136 0 L 496.19332068844136 401.020834M 504.4058744314444 0 L 504.4058744314444 401.020834M 512.6184281744474 0 L 512.6184281744474 401.020834M 520.8309819174506 0 L 520.8309819174506 401.020834M 537.2560894034567 0 L 537.2560894034567 401.020834M 545.4686431464598 0 L 545.4686431464598 401.020834M 553.6811968894629 0 L 553.6811968894629 401.020834M 561.893750632466 0 L 561.893750632466 401.020834M 570.106304375469 0 L 570.106304375469 401.020834M 578.3188581184721 0 L 578.3188581184721 401.020834M 586.5314118614751 0 L 586.5314118614751 401.020834M 594.7439656044783 0 L 594.7439656044783 401.020834"/><path shape-rendering="crispEdges" stroke="#F0F0F0" stroke-width="1" stroke-opacity="undefined" clip-path="url(#_clipplot28aedde0-2675-4d7b-9b9b-9b40310bd7fd)" d="M 0 380.47391414258374 L 600 380.47391414258374M 0 371.3585831856459 L 600 371.3585831856459M 0 362.2432522287081 L 600 362.2432522287081M 0 353.12792127177033 L 600 353.12792127177033M 0 344.0125903148325 L 600 344.0125903148325M 0 334.8972593578947 L 600 334.8972593578947M 0 325.7819284009569 L 600 325.7819284009569M 0 316.6665974440191 L 600 316.6665974440191M 0 307.5512664870813 L 600 307.5512664870813M 0 298.43593553014347 L 600 298.43593553014347M 0 280.2052736162679 L 600 280.2052736162679M 0 271.08994265933006 L 600 271.08994265933006M 0 261.9746117023923 L 600 261.9746117023923M 0 252.85928074545447 L 600 252.85928074545447M 0 243.74394978851666 L 600 243.74394978851666M 0 234.62861883157885 L 600 234.62861883157885M 0 225.51328787464107 L 600 225.51328787464107M 0 216.39795691770325 L 600 216.39795691770325M 0 207.28262596076542 L 600 207.28262596076542M 0 189.05196404688988 L 600 189.05196404688988M 0 179.93663308995207 L 600 179.93663308995207M 0 170.82130213301429 L 600 170.82130213301429M 0 161.70597117607647 L 600 161.70597117607647M 0 152.59064021913863 L 600 152.59064021913863M 0 143.47530926220082 L 600 143.47530926220082M 0 134.359978305263 L 600 134.359978305263M 0 125.2446473483252 L 600 125.2446473483252M 0 116.12931639138742 L 600 116.12931639138742M 0 97.89865447751191 L 600 97.89865447751191M 0 88.78332352057407 L 600 88.78332352057407M 0 79.66799256363629 L 600 79.66799256363629M 0 70.55266160669845 L 600 70.55266160669845M 0 61.43733064976067 L 600 61.43733064976067M 0 52.321999692822885 L 600 52.321999692822885M 0 43.206668735885046 L 600 43.206668735885046M 0 34.09133777894726 L 600 34.09133777894726M 0 24.97600682200948 L 600 24.97600682200948M 0 6.745344908133916 L 600 6.745344908133916"/></g><g><path shape-rendering="crispEdges" stroke="#DADADA" stroke-width="1" stroke-opacity="undefined" clip-path="url(#_clipplot28aedde0-2675-4d7b-9b9b-9b40310bd7fd)" d="M 36.290311080269234 0 L 36.290311080269234 401.020834M 118.41584851029991 0 L 118.41584851029991 401.020834M 200.5413859403306 0 L 200.5413859403306 401.020834M 282.6669233703613 0 L 282.6669233703613 401.020834M 364.79246080039206 0 L 364.79246080039206 401.020834M 446.9179982304228 0 L 446.9179982304228 401.020834M 529.0435356604537 0 L 529.0435356604537 401.020834"/><path shape-rendering="crispEdges" stroke="#DADADA" stroke-width="1" stroke-opacity="undefined" clip-path="url(#_clipplot28aedde0-2675-4d7b-9b9b-9b40310bd7fd)" d="M 0 380.4739141425837 L 600 380.4739141425837M 0 289.32060457320574 L 600 289.32060457320574M 0 198.1672950038277 L 600 198.1672950038277M 0 107.01398543444975 L 600 107.01398543444975M 0 15.860675865071755 L 600 15.860675865071755"/></g></g><g transform="translate(0 381.020834)"><rect pointer-events="fill" fill="transparent"/><g><line y1="0" y2="-2" stroke="black" display="visible" x1="44.502864823272304" x2="44.502864823272304"/><line y1="0" y2="-2" stroke="black" display="visible" x1="52.71541856627539" x2="52.71541856627539"/><line y1="0" y2="-2" stroke="black" display="visible" x1="60.92797230927846" x2="60.92797230927846"/><line y1="0" y2="-2" stroke="black" display="visible" x1="69.14052605228154" x2="69.14052605228154"/><line y1="0" y2="-4" stroke="black" display="visible" x1="77.35307979528463" x2="77.35307979528463"/><line y1="0" y2="-2" stroke="black" display="visible" x1="85.5656335382877" x2="85.5656335382877"/><line y1="0" y2="-2" stroke="black" display="visible" x1="93.77818728129077" x2="93.77818728129077"/><line y1="0" y2="-2" stroke="black" display="visible" x1="101.99074102429385" x2="101.99074102429385"/><line y1="0" y2="-2" stroke="black" display="visible" x1="110.20329476729694" x2="110.20329476729694"/><line y1="0" y2="-2" stroke="black" display="visible" x1="126.628402253303" x2="126.628402253303"/><line y1="0" y2="-2" stroke="black" display="visible" x1="134.84095599630606" x2="134.84095599630606"/><line y1="0" y2="-2" stroke="black" display="visible" x1="143.05350973930916" x2="143.05350973930916"/><line y1="0" y2="-2" stroke="black" display="visible" x1="151.26606348231223" x2="151.26606348231223"/><line y1="0" y2="-4" stroke="black" display="visible" x1="159.4786172253153" x2="159.4786172253153"/><line y1="0" y2="-2" stroke="black" display="visible" x1="167.69117096831837" x2="167.69117096831837"/><line y1="0" y2="-2" stroke="black" display="visible" x1="175.90372471132147" x2="175.90372471132147"/><line y1="0" y2="-2" stroke="black" display="visible" x1="184.11627845432454" x2="184.11627845432454"/><line y1="0" y2="-2" stroke="black" display="visible" x1="192.3288321973276" x2="192.3288321973276"/><line y1="0" y2="-6" stroke="black" display="visible" x1="36.290311080269234" x2="36.290311080269234"/><line y1="0" y2="-2" stroke="black" display="visible" x1="208.75393968333367" x2="208.75393968333367"/><line y1="0" y2="-2" stroke="black" display="visible" x1="216.96649342633674" x2="216.96649342633674"/><line y1="0" y2="-2" stroke="black" display="visible" x1="225.17904716933984" x2="225.17904716933984"/><line y1="0" y2="-2" stroke="black" display="visible" x1="233.3916009123429" x2="233.3916009123429"/><line y1="0" y2="-4" stroke="black" display="visible" x1="241.60415465534598" x2="241.60415465534598"/><line y1="0" y2="-2" stroke="black" display="visible" x1="249.81670839834905" x2="249.81670839834905"/><line y1="0" y2="-2" stroke="black" display="visible" x1="258.0292621413522" x2="258.0292621413522"/><line y1="0" y2="-2" stroke="black" display="visible" x1="266.2418158843552" x2="266.2418158843552"/><line y1="0" y2="-2" stroke="black" display="visible" x1="274.45436962735835" x2="274.45436962735835"/><line y1="0" y2="-6" stroke="black" display="visible" x1="118.41584851029991" x2="118.41584851029991"/><line y1="0" y2="-2" stroke="black" display="visible" x1="290.8794771133644" x2="290.8794771133644"/><line y1="0" y2="-2" stroke="black" display="visible" x1="299.09203085636744" x2="299.09203085636744"/><line y1="0" y2="-2" stroke="black" display="visible" x1="307.3045845993705" x2="307.3045845993705"/><line y1="0" y2="-2" stroke="black" display="visible" x1="315.5171383423736" x2="315.5171383423736"/><line y1="0" y2="-4" stroke="black" display="visible" x1="323.7296920853767" x2="323.7296920853767"/><line y1="0" y2="-2" stroke="black" display="visible" x1="331.9422458283798" x2="331.9422458283798"/><line y1="0" y2="-2" stroke="black" display="visible" x1="340.15479957138285" x2="340.15479957138285"/><line y1="0" y2="-2" stroke="black" display="visible" x1="348.3673533143859" x2="348.3673533143859"/><line y1="0" y2="-2" stroke="black" display="visible" x1="356.579907057389" x2="356.579907057389"/><line y1="0" y2="-6" stroke="black" display="visible" x1="200.5413859403306" x2="200.5413859403306"/><line y1="0" y2="-2" stroke="black" display="visible" x1="373.0050145433952" x2="373.0050145433952"/><line y1="0" y2="-2" stroke="black" display="visible" x1="381.2175682863982" x2="381.2175682863982"/><line y1="0" y2="-2" stroke="black" display="visible" x1="389.43012202940133" x2="389.43012202940133"/><line y1="0" y2="-2" stroke="black" display="visible" x1="397.64267577240435" x2="397.64267577240435"/><line y1="0" y2="-4" stroke="black" display="visible" x1="405.8552295154075" x2="405.8552295154075"/><line y1="0" y2="-2" stroke="black" display="visible" x1="414.06778325841054" x2="414.06778325841054"/><line y1="0" y2="-2" stroke="black" display="visible" x1="422.2803370014136" x2="422.2803370014136"/><line y1="0" y2="-2" stroke="black" display="visible" x1="430.4928907444167" x2="430.4928907444167"/><line y1="0" y2="-2" stroke="black" display="visible" x1="438.70544448741975" x2="438.70544448741975"/><line y1="0" y2="-6" stroke="black" display="visible" x1="282.6669233703613" x2="282.6669233703613"/><line y1="0" y2="-6" stroke="black" display="visible" x1="364.79246080039206" x2="364.79246080039206"/><line y1="0" y2="-2" stroke="black" display="visible" x1="455.13055197342595" x2="455.13055197342595"/><line y1="0" y2="-2" stroke="black" display="visible" x1="463.34310571642897" x2="463.34310571642897"/><line y1="0" y2="-2" stroke="black" display="visible" x1="471.5556594594321" x2="471.5556594594321"/><line y1="0" y2="-2" stroke="black" display="visible" x1="479.76821320243516" x2="479.76821320243516"/><line y1="0" y2="-4" stroke="black" display="visible" x1="487.98076694543823" x2="487.98076694543823"/><line y1="0" y2="-2" stroke="black" display="visible" x1="496.19332068844136" x2="496.19332068844136"/><line y1="0" y2="-2" stroke="black" display="visible" x1="504.4058744314444" x2="504.4058744314444"/><line y1="0" y2="-2" stroke="black" display="visible" x1="512.6184281744474" x2="512.6184281744474"/><line y1="0" y2="-2" stroke="black" display="visible" x1="520.8309819174506" x2="520.8309819174506"/><line y1="0" y2="-6" stroke="black" display="visible" x1="446.9179982304228" x2="446.9179982304228"/><line y1="0" y2="-2" stroke="black" display="visible" x1="537.2560894034567" x2="537.2560894034567"/><line y1="0" y2="-2" stroke="black" display="visible" x1="545.4686431464598" x2="545.4686431464598"/><line y1="0" y2="-2" stroke="black" display="visible" x1="553.6811968894629" x2="553.6811968894629"/><line y1="0" y2="-2" stroke="black" display="visible" x1="561.893750632466" x2="561.893750632466"/><line y1="0" y2="-4" stroke="black" display="visible" x1="570.106304375469" x2="570.106304375469"/><line y1="0" y2="-2" stroke="black" display="visible" x1="578.3188581184721" x2="578.3188581184721"/><line y1="0" y2="-2" stroke="black" display="visible" x1="586.5314118614751" x2="586.5314118614751"/><line y1="0" y2="-2" stroke="black" display="visible" x1="594.7439656044783" x2="594.7439656044783"/><line y1="0" y2="-6" stroke="black" display="visible" x1="529.0435356604537" x2="529.0435356604537"/></g><g><text y="8" text-anchor="middle" display="visible" x="36.290311080269234" style="dominant-baseline: hanging;">0.35</text><text y="8" text-anchor="middle" display="visible" x="118.41584851029991" style="dominant-baseline: hanging;">0.40</text><text y="8" text-anchor="middle" display="visible" x="200.5413859403306" style="dominant-baseline: hanging;">0.45</text><text y="8" text-anchor="middle" display="visible" x="282.6669233703613" style="dominant-baseline: hanging;">0.50</text><text y="8" text-anchor="middle" display="visible" x="364.79246080039206" style="dominant-baseline: hanging;">0.55</text><text y="8" text-anchor="middle" display="visible" x="446.9179982304228" style="dominant-baseline: hanging;">0.60</text><text y="8" text-anchor="middle" display="visible" x="529.0435356604537" style="dominant-baseline: hanging;">0.65</text></g><line stroke="black" shape-rendering="crispEdges" stroke-linecap="square" display="block" x1="33.333791732788086" x2="600" y1="0" y2="0" marker-start="" marker-end=""/><text text-anchor="middle" fill="undefined" style="display: initial;" x="316.66689586639404" y="22"><tspan style="dominant-baseline: hanging;"/><tspan display="none" style="dominant-baseline: hanging;"/><tspan dx="6" display="none" style="dominant-baseline: hanging;"/><tspan dy="-5" font-size="0.8em" display="none" style="dominant-baseline: hanging;"/></text><g/></g><g transform="translate( 33.333791732788086 0 )"><rect pointer-events="fill" fill="transparent"/><g><line x1="0" x2="2" stroke="black" display="visible" y1="380.47391414258374" y2="380.47391414258374"/><line x1="0" x2="2" stroke="black" display="visible" y1="371.3585831856459" y2="371.3585831856459"/><line x1="0" x2="2" stroke="black" display="visible" y1="362.2432522287081" y2="362.2432522287081"/><line x1="0" x2="2" stroke="black" display="visible" y1="353.12792127177033" y2="353.12792127177033"/><line x1="0" x2="2" stroke="black" display="visible" y1="344.0125903148325" y2="344.0125903148325"/><line x1="0" x2="2" stroke="black" display="visible" y1="325.7819284009569" y2="325.7819284009569"/><line x1="0" x2="2" stroke="black" display="visible" y1="316.6665974440191" y2="316.6665974440191"/><line x1="0" x2="2" stroke="black" display="visible" y1="307.5512664870813" y2="307.5512664870813"/><line x1="0" x2="4" stroke="black" display="visible" y1="334.8972593578947" y2="334.8972593578947"/><line x1="0" x2="2" stroke="black" display="visible" y1="298.43593553014347" y2="298.43593553014347"/><line x1="0" x2="2" stroke="black" display="visible" y1="280.2052736162679" y2="280.2052736162679"/><line x1="0" x2="2" stroke="black" display="visible" y1="271.08994265933006" y2="271.08994265933006"/><line x1="0" x2="2" stroke="black" display="visible" y1="261.9746117023923" y2="261.9746117023923"/><line x1="0" x2="6" stroke="black" display="visible" y1="380.4739141425837" y2="380.4739141425837"/><line x1="0" x2="2" stroke="black" display="visible" y1="252.85928074545447" y2="252.85928074545447"/><line x1="0" x2="2" stroke="black" display="visible" y1="234.62861883157885" y2="234.62861883157885"/><line x1="0" x2="2" stroke="black" display="visible" y1="225.51328787464107" y2="225.51328787464107"/><line x1="0" x2="2" stroke="black" display="visible" y1="216.39795691770325" y2="216.39795691770325"/><line x1="0" x2="4" stroke="black" display="visible" y1="243.74394978851666" y2="243.74394978851666"/><line x1="0" x2="2" stroke="black" display="visible" y1="207.28262596076542" y2="207.28262596076542"/><line x1="0" x2="2" stroke="black" display="visible" y1="189.05196404688988" y2="189.05196404688988"/><line x1="0" x2="2" stroke="black" display="visible" y1="179.93663308995207" y2="179.93663308995207"/><line x1="0" x2="2" stroke="black" display="visible" y1="170.82130213301429" y2="170.82130213301429"/><line x1="0" x2="6" stroke="black" display="visible" y1="289.32060457320574" y2="289.32060457320574"/><line x1="0" x2="2" stroke="black" display="visible" y1="161.70597117607647" y2="161.70597117607647"/><line x1="0" x2="2" stroke="black" display="visible" y1="143.47530926220082" y2="143.47530926220082"/><line x1="0" x2="2" stroke="black" display="visible" y1="134.359978305263" y2="134.359978305263"/><line x1="0" x2="2" stroke="black" display="visible" y1="125.2446473483252" y2="125.2446473483252"/><line x1="0" x2="4" stroke="black" display="visible" y1="152.59064021913863" y2="152.59064021913863"/><line x1="0" x2="2" stroke="black" display="visible" y1="116.12931639138742" y2="116.12931639138742"/><line x1="0" x2="2" stroke="black" display="visible" y1="97.89865447751191" y2="97.89865447751191"/><line x1="0" x2="2" stroke="black" display="visible" y1="88.78332352057407" y2="88.78332352057407"/><line x1="0" x2="2" stroke="black" display="visible" y1="79.66799256363629" y2="79.66799256363629"/><line x1="0" x2="6" stroke="black" display="visible" y1="198.1672950038277" y2="198.1672950038277"/><line x1="0" x2="6" stroke="black" display="visible" y1="107.01398543444975" y2="107.01398543444975"/><line x1="0" x2="2" stroke="black" display="visible" y1="70.55266160669845" y2="70.55266160669845"/><line x1="0" x2="2" stroke="black" display="visible" y1="52.321999692822885" y2="52.321999692822885"/><line x1="0" x2="2" stroke="black" display="visible" y1="43.206668735885046" y2="43.206668735885046"/><line x1="0" x2="2" stroke="black" display="visible" y1="34.09133777894726" y2="34.09133777894726"/><line x1="0" x2="4" stroke="black" display="visible" y1="61.43733064976067" y2="61.43733064976067"/><line x1="0" x2="2" stroke="black" display="visible" y1="24.97600682200948" y2="24.97600682200948"/><line x1="0" x2="2" stroke="black" display="visible" y1="6.745344908133916" y2="6.745344908133916"/><line x1="0" x2="2" stroke="black" display="none" y1="21.27345796865137" y2="21.27345796865137"/><line x1="0" x2="2" stroke="black" display="none" y1="5.74538645868688" y2="5.74538645868688"/><line x1="0" x2="6" stroke="black" display="visible" y1="15.860675865071755" y2="15.860675865071755"/><line x1="0" x2="2" stroke="black" display="none" y1="6.757572864138638" y2="6.757572864138638"/></g><g><text x="-5" text-anchor="end" display="visible" y="380.4739141425837" style="dominant-baseline: central;">0.05</text><text x="-5" text-anchor="end" display="visible" y="289.32060457320574" style="dominant-baseline: central;">0.10</text><text x="-5" text-anchor="end" display="visible" y="198.1672950038277" style="dominant-baseline: central;">0.15</text><text x="-5" text-anchor="end" display="visible" y="107.01398543444975" style="dominant-baseline: central;">0.20</text><text x="-5" text-anchor="end" display="visible" y="15.860675865071755" style="dominant-baseline: central;">0.25</text></g><line stroke="black" shape-rendering="crispEdges" stroke-linecap="square" display="block" y1="381.020834" y2="0" x1="0" x2="0" marker-start="" marker-end=""/><text text-anchor="middle" transform="translate(-33.333791732788086, 190.510417) rotate(-90)" fill="undefined" dominant-baseline="auto"><tspan/><tspan display="none"/><tspan dx="6" display="none"/><tspan dy="-5" font-size="0.8em" display="none"/></text><g/></g></g><g><g data-layer="1"><g><g><g><path stroke="rgba(1,1,255,1)" stroke-width="0.0001" fill="none" d="M 33.2 0 L 219.20000000000002 141.20000000000002 L 436 264.8 L 599.8000000000001 381 "/></g><circle fill="black" r="3" display="block" cx="436" cy="264.8"/><g/><rect fill="white" display="block" x="441" y="247.8" width="2" height="14"/><text display="block" x="441" y="259.8"/><g><path fill="rgba(1,1,255,1)" stroke="rgba(1,1,255,1)" stroke-width="1" d="M 33.2 0 m -2 -2 l 4 0 l 0 4 l -4 0 z M 219.20000000000002 141.20000000000002 m -2 -2 l 4 0 l 0 4 l -4 0 z M 436 264.8 m -2 -2 l 4 0 l 0 4 l -4 0 z M 599.8000000000001 381 m -2 -2 l 4 0 l 0 4 l -4 0 z "/></g></g><g><g><path stroke="rgba(245,255,0,0.53)" stroke-width="3" fill="none" d="M 33.2 6.2 L 33.800000000000004 6.6000000000000005 L 34.4 7 L 35 7.2 L 35.6 7.6000000000000005 L 36 8 L 36.6 8.4 L 37.2 8.8 L 37.800000000000004 9.200000000000001 L 38.400000000000006 9.600000000000001 L 39 10 L 39.400000000000006 10.200000000000001 L 40 10.600000000000001 L 40.6 11 L 41.2 11.4 L 41.800000000000004 11.8 L 42.400000000000006 12.200000000000001 L 42.800000000000004 12.600000000000001 L 43.400000000000006 12.8 L 44 13.200000000000001 L 44.6 13.600000000000001 L 45.2 14 L 45.800000000000004 14.4 L 46.2 14.8 L 46.800000000000004 15.200000000000001 L 47.400000000000006 15.600000000000001 L 48 15.8 L 48.6 16.2 L 49.2 16.6 L 49.6 17 L 50.2 17.400000000000002 L 50.800000000000004 17.8 L 51.400000000000006 18.2 L 52 18.6 L 52.6 18.8 L 53 19.200000000000003 L 53.6 19.6 L 54.2 20 L 54.800000000000004 20.400000000000002 L 55.400000000000006 20.8 L 56 21.200000000000003 L 56.400000000000006 21.400000000000002 L 57 21.8 L 57.6 22.200000000000003 L 58.2 22.6 L 58.800000000000004 23 L 59.400000000000006 23.400000000000002 L 59.800000000000004 23.8 L 60.400000000000006 24.200000000000003 L 61 24.400000000000002 L 61.6 24.8 L 62.2 25.200000000000003 L 62.800000000000004 25.6 L 63.2 26 L 63.800000000000004 26.400000000000002 L 64.4 26.8 L 65 27.200000000000003 L 65.60000000000001 27.400000000000002 L 66.2 27.8 L 66.60000000000001 28.200000000000003 L 67.2 28.6 L 67.8 29 L 68.4 29.400000000000002 L 69 29.8 L 69.60000000000001 30 L 70 30.400000000000002 L 70.60000000000001 30.8 L 71.2 31.200000000000003 L 71.8 31.6 L 72.4 32 L 73 32.4 L 73.4 32.800000000000004 L 74 33 L 74.60000000000001 33.4 L 75.2 33.800000000000004 L 75.8 34.2 L 76.4 34.6 L 76.80000000000001 35 L 77.4 35.4 L 78 35.800000000000004 L 78.60000000000001 36 L 79.2 36.4 L 79.80000000000001 36.800000000000004 L 80.2 37.2 L 80.80000000000001 37.6 L 81.4 38 L 82 38.400000000000006 L 82.60000000000001 38.6 L 83.2 39 L 83.60000000000001 39.400000000000006 L 84.2 39.800000000000004 L 84.80000000000001 40.2 L 85.4 40.6 L 86 41 L 86.60000000000001 41.400000000000006 L 87 41.6 L 87.60000000000001 42 L 88.2 42.400000000000006 L 88.80000000000001 42.800000000000004 L 89.4 43.2 L 90 43.6 L 90.4 44 L 91 44.2 L 91.60000000000001 44.6 L 92.2 45 L 92.80000000000001 45.400000000000006 L 93.4 45.800000000000004 L 93.80000000000001 46.2 L 94.4 46.6 L 95 47 L 95.60000000000001 47.2 L 96.2 47.6 L 96.80000000000001 48 L 97.2 48.400000000000006 L 97.80000000000001 48.800000000000004 L 98.4 49.2 L 99 49.6 L 99.60000000000001 50 L 100.2 50.2 L 100.60000000000001 50.6 L 101.2 51 L 101.80000000000001 51.400000000000006 L 102.4 51.800000000000004 L 103 52.2 L 103.60000000000001 52.6 L 104 52.800000000000004 L 104.60000000000001 53.2 L 105.2 53.6 L 105.80000000000001 54 L 106.4 54.400000000000006 L 107 54.800000000000004 L 107.4 55.2 L 108 55.6 L 108.60000000000001 55.800000000000004 L 109.2 56.2 L 109.80000000000001 56.6 L 110.4 57 L 110.80000000000001 57.400000000000006 L 111.4 57.800000000000004 L 112 58.2 L 112.60000000000001 58.6 L 113.2 58.800000000000004 L 113.80000000000001 59.2 L 114.2 59.6 L 114.80000000000001 60 L 115.4 60.400000000000006 L 116 60.800000000000004 L 116.60000000000001 61.2 L 117.2 61.400000000000006 L 117.60000000000001 61.800000000000004 L 118.2 62.2 L 118.80000000000001 62.6 L 119.4 63 L 120 63.400000000000006 L 120.60000000000001 63.800000000000004 L 121 64.2 L 121.60000000000001 64.4 L 122.2 64.8 L 122.80000000000001 65.2 L 123.4 65.60000000000001 L 124 66 L 124.4 66.4 L 125 66.8 L 125.60000000000001 67.2 L 126.2 67.4 L 126.80000000000001 67.8 L 127.4 68.2 L 127.80000000000001 68.60000000000001 L 128.4 69 L 129 69.4 L 129.6 69.8 L 130.20000000000002 70 L 130.8 70.4 L 131.20000000000002 70.8 L 131.8 71.2 L 132.4 71.60000000000001 L 133 72 L 133.6 72.4 L 134.20000000000002 72.8 L 134.6 73 L 135.20000000000002 73.4 L 135.8 73.8 L 136.4 74.2 L 137 74.60000000000001 L 137.6 75 L 138 75.4 L 138.6 75.60000000000001 L 139.20000000000002 76 L 139.8 76.4 L 140.4 76.80000000000001 L 141 77.2 L 141.4 77.60000000000001 L 142 78 L 142.6 78.4 L 143.20000000000002 78.60000000000001 L 143.8 79 L 144.4 79.4 L 144.8 79.80000000000001 L 145.4 80.2 L 146 80.60000000000001 L 146.6 81 L 147.20000000000002 81.4 L 147.8 81.60000000000001 L 148.20000000000002 82 L 148.8 82.4 L 149.4 82.80000000000001 L 150 83.2 L 150.6 83.60000000000001 L 151.20000000000002 84 L 151.6 84.2 L 152.20000000000002 84.60000000000001 L 152.8 85 L 153.4 85.4 L 154 85.80000000000001 L 154.60000000000002 86.2 L 155 86.60000000000001 L 155.60000000000002 87 L 156.20000000000002 87.2 L 156.8 87.60000000000001 L 157.4 88 L 158 88.4 L 158.4 88.80000000000001 L 159 89.2 L 159.60000000000002 89.60000000000001 L 160.20000000000002 90 L 160.8 90.2 L 161.4 90.60000000000001 L 161.8 91 L 162.4 91.4 L 163 91.80000000000001 L 163.60000000000002 92.2 L 164.20000000000002 92.60000000000001 L 164.8 92.80000000000001 L 165.20000000000002 93.2 L 165.8 93.60000000000001 L 166.4 94 L 167 94.4 L 167.60000000000002 94.80000000000001 L 168.20000000000002 95.2 L 168.60000000000002 95.60000000000001 L 169.20000000000002 95.80000000000001 L 169.8 96.2 L 170.4 96.60000000000001 L 171 97 L 171.60000000000002 97.4 L 172 97.80000000000001 L 172.60000000000002 98.2 L 173.20000000000002 98.4 L 173.8 98.80000000000001 L 174.4 99.2 L 175 99.60000000000001 L 175.4 100 L 176 100.4 L 176.60000000000002 100.80000000000001 L 177.20000000000002 101.2 L 177.8 101.4 L 178.4 101.80000000000001 L 178.8 102.2 L 179.4 102.60000000000001 L 180 103 L 180.60000000000002 103.4 L 181.20000000000002 103.80000000000001 L 181.8 104.2 L 182.20000000000002 104.4 L 182.8 104.80000000000001 L 183.4 105.2 L 184 105.60000000000001 L 184.60000000000002 106 L 185.20000000000002 106.4 L 185.60000000000002 106.80000000000001 L 186.20000000000002 107 L 186.8 107.4 L 187.4 107.80000000000001 L 188 108.2 L 188.60000000000002 108.60000000000001 L 189 109 L 189.60000000000002 109.4 L 190.20000000000002 109.80000000000001 L 190.8 110 L 191.4 110.4 L 192 110.80000000000001 L 192.4 111.2 L 193 111.60000000000001 L 193.60000000000002 112 L 194.20000000000002 112.4 L 194.8 112.80000000000001 L 195.4 113 L 195.8 113.4 L 196.4 113.80000000000001 L 197 114.2 L 197.60000000000002 114.60000000000001 L 198.20000000000002 115 L 198.8 115.4 L 199.20000000000002 115.60000000000001 L 199.8 116 L 200.4 116.4 L 201 116.80000000000001 L 201.60000000000002 117.2 L 202.20000000000002 117.60000000000001 L 202.60000000000002 118 L 203.20000000000002 118.4 L 203.8 118.60000000000001 L 204.4 119 L 205 119.4 L 205.60000000000002 119.80000000000001 L 206 120.2 L 206.60000000000002 120.60000000000001 L 207.20000000000002 121 L 207.8 121.4 L 208.4 121.60000000000001 L 209 122 L 209.4 122.4 L 210 122.80000000000001 L 210.60000000000002 123.2 L 211.20000000000002 123.60000000000001 L 211.8 124 L 212.4 124.2 L 212.8 124.60000000000001 L 213.4 125 L 214 125.4 L 214.60000000000002 125.80000000000001 L 215.20000000000002 126.2 L 215.8 126.60000000000001 L 216.20000000000002 127 L 216.8 127.2 L 217.4 127.60000000000001 L 218 128 L 218.60000000000002 128.4 L 219.20000000000002 128.8 L 219.60000000000002 129.20000000000002 L 220.20000000000002 129.6 L 220.8 129.8 L 221.4 130.20000000000002 L 222 130.6 L 222.60000000000002 131 L 223 131.4 L 223.60000000000002 131.8 L 224.20000000000002 132.20000000000002 L 224.8 132.6 L 225.4 132.8 L 226 133.20000000000002 L 226.4 133.6 L 227 134 L 227.60000000000002 134.4 L 228.20000000000002 134.8 L 228.8 135.20000000000002 L 229.4 135.6 L 229.8 135.8 L 230.4 136.20000000000002 L 231 136.6 L 231.60000000000002 137 L 232.20000000000002 137.4 L 232.8 137.8 L 233.20000000000002 138.20000000000002 L 233.8 138.4 L 234.4 138.8 L 235 139.20000000000002 L 235.60000000000002 139.6 L 236.20000000000002 140 L 236.60000000000002 140.4 L 237.20000000000002 140.8 L 237.8 141.20000000000002 L 238.4 141.4 L 239 141.8 L 239.60000000000002 142.20000000000002 L 240 142.6 L 240.60000000000002 143 L 241.20000000000002 143.4 L 241.8 143.8 L 242.4 144.20000000000002 L 243 144.4 L 243.4 144.8 L 244 145.20000000000002 L 244.60000000000002 145.6 L 245.20000000000002 146 L 245.8 146.4 L 246.4 146.8 L 246.8 147 L 247.4 147.4 L 248 147.8 L 248.60000000000002 148.20000000000002 L 249.20000000000002 148.6 L 249.8 149 L 250.20000000000002 149.4 L 250.8 149.8 L 251.4 150 L 252 150.4 L 252.60000000000002 150.8 L 253.20000000000002 151.20000000000002 L 253.60000000000002 151.6 L 254.20000000000002 152 L 254.8 152.4 L 255.4 152.8 L 256 153 L 256.6 153.4 L 257 153.8 L 257.6 154.20000000000002 L 258.2 154.60000000000002 L 258.8 155 L 259.40000000000003 155.4 L 260 155.60000000000002 L 260.40000000000003 156 L 261 156.4 L 261.6 156.8 L 262.2 157.20000000000002 L 262.8 157.60000000000002 L 263.40000000000003 158 L 263.8 158.4 L 264.40000000000003 158.60000000000002 L 265 159 L 265.6 159.4 L 266.2 159.8 L 266.8 160.20000000000002 L 267.2 160.60000000000002 L 267.8 161 L 268.40000000000003 161.20000000000002 L 269 161.60000000000002 L 269.6 162 L 270.2 162.4 L 270.6 162.8 L 271.2 163.20000000000002 L 271.8 163.60000000000002 L 272.40000000000003 164 L 273 164.20000000000002 L 273.6 164.60000000000002 L 274 165 L 274.6 165.4 L 275.2 165.8 L 275.8 166.20000000000002 L 276.40000000000003 166.60000000000002 L 277 167 L 277.40000000000003 167.20000000000002 L 278 167.60000000000002 L 278.6 168 L 279.2 168.4 L 279.8 168.8 L 280.40000000000003 169.20000000000002 L 280.8 169.60000000000002 L 281.40000000000003 169.8 L 282 170.20000000000002 L 282.6 170.60000000000002 L 283.2 171 L 283.8 171.4 L 284.2 171.8 L 284.8 172.20000000000002 L 285.40000000000003 172.60000000000002 L 286 172.8 L 286.6 173.20000000000002 L 287.2 173.60000000000002 L 287.6 174 L 288.2 174.4 L 288.8 174.8 L 289.40000000000003 175.20000000000002 L 290 175.60000000000002 L 290.6 175.8 L 291 176.20000000000002 L 291.6 176.60000000000002 L 292.2 177 L 292.8 177.4 L 293.40000000000003 177.8 L 294 178.20000000000002 L 294.40000000000003 178.4 L 295 178.8 L 295.6 179.20000000000002 L 296.2 179.60000000000002 L 296.8 180 L 297.40000000000003 180.4 L 297.8 180.8 L 298.40000000000003 181.20000000000002 L 299 181.4 L 299.6 181.8 L 300.2 182.20000000000002 L 300.8 182.60000000000002 L 301.2 183 L 301.8 183.4 L 302.40000000000003 183.8 L 303 184 L 303.6 184.4 L 304.2 184.8 L 304.6 185.20000000000002 L 305.2 185.60000000000002 L 305.8 186 L 306.40000000000003 186.4 L 307 186.8 L 307.6 187 L 308 187.4 L 308.6 187.8 L 309.20000000000005 188.20000000000002 L 309.8 188.60000000000002 L 310.40000000000003 189 L 311 189.4 L 311.40000000000003 189.8 L 312 190 L 312.6 190.4 L 313.20000000000005 190.8 L 313.8 191.20000000000002 L 314.40000000000003 191.60000000000002 L 314.8 192 L 315.40000000000003 192.4 L 316 192.60000000000002 L 316.6 193 L 317.20000000000005 193.4 L 317.8 193.8 L 318.20000000000005 194.20000000000002 L 318.8 194.60000000000002 L 319.40000000000003 195 L 320 195.4 L 320.6 195.60000000000002 L 321.20000000000005 196 L 321.6 196.4 L 322.20000000000005 196.8 L 322.8 197.20000000000002 L 323.40000000000003 197.60000000000002 L 324 198 L 324.6 198.4 L 325 198.60000000000002 L 325.6 199 L 326.20000000000005 199.4 L 326.8 199.8 L 327.40000000000003 200.20000000000002 L 328 200.60000000000002 L 328.40000000000003 201 L 329 201.20000000000002 L 329.6 201.60000000000002 L 330.20000000000005 202 L 330.8 202.4 L 331.40000000000003 202.8 L 331.8 203.20000000000002 L 332.40000000000003 203.60000000000002 L 333 204 L 333.6 204.20000000000002 L 334.20000000000005 204.60000000000002 L 334.8 205 L 335.20000000000005 205.4 L 335.8 205.8 L 336.40000000000003 206.20000000000002 L 337 206.60000000000002 L 337.6 207 L 338.20000000000005 207.20000000000002 L 338.6 207.60000000000002 L 339.20000000000005 208 L 339.8 208.4 L 340.40000000000003 208.8 L 341 209.20000000000002 L 341.6 209.60000000000002 L 342 209.8 L 342.6 210.20000000000002 L 343.20000000000005 210.60000000000002 L 343.8 211 L 344.40000000000003 211.4 L 345 211.8 L 345.40000000000003 212.20000000000002 L 346 212.60000000000002 L 346.6 212.8 L 347.20000000000005 213.20000000000002 L 347.8 213.60000000000002 L 348.40000000000003 214 L 348.8 214.4 L 349.40000000000003 214.8 L 350 215.20000000000002 L 350.6 215.4 L 351.20000000000005 215.8 L 351.8 216.20000000000002 L 352.20000000000005 216.60000000000002 L 352.8 217 L 353.40000000000003 217.4 L 354 217.8 L 354.6 218.20000000000002 L 355.20000000000005 218.4 L 355.6 218.8 L 356.20000000000005 219.20000000000002 L 356.8 219.60000000000002 L 357.40000000000003 220 L 358 220.4 L 358.6 220.8 L 359 221.20000000000002 L 359.6 221.4 L 360.20000000000005 221.8 L 360.8 222.20000000000002 L 361.40000000000003 222.60000000000002 L 362 223 L 362.40000000000003 223.4 L 363 223.8 L 363.6 224 L 364.20000000000005 224.4 L 364.8 224.8 L 365.40000000000003 225.20000000000002 L 365.8 225.60000000000002 L 366.40000000000003 226 L 367 226.4 L 367.6 226.8 L 368.20000000000005 227 L 368.8 227.4 L 369.20000000000005 227.8 L 369.8 228.20000000000002 L 370.40000000000003 228.60000000000002 L 371 229 L 371.6 229.4 L 372.20000000000005 229.8 L 372.6 230 L 373.20000000000005 230.4 L 373.8 230.8 L 374.40000000000003 231.20000000000002 L 375 231.60000000000002 L 375.6 232 L 376 232.4 L 376.6 232.60000000000002 L 377.20000000000005 233 L 377.8 233.4 L 378.40000000000003 233.8 L 379 234.20000000000002 L 379.40000000000003 234.60000000000002 L 380 235 L 380.6 235.4 L 381.20000000000005 235.60000000000002 L 381.8 236 L 382.40000000000003 236.4 L 382.8 236.8 L 383.40000000000003 237.20000000000002 L 384 237.60000000000002 L 384.6 238 L 385.20000000000005 238.4 L 385.8 238.60000000000002 L 386.20000000000005 239 L 386.8 239.4 L 387.40000000000003 239.8 L 388 240.20000000000002 L 388.6 240.60000000000002 L 389.20000000000005 241 L 389.6 241.20000000000002 L 390.20000000000005 241.60000000000002 L 390.8 242 L 391.40000000000003 242.4 L 392 242.8 L 392.6 243.20000000000002 L 393 243.60000000000002 L 393.6 244 L 394.20000000000005 244.20000000000002 L 394.8 244.60000000000002 L 395.40000000000003 245 L 396 245.4 L 396.40000000000003 245.8 L 397 246.20000000000002 L 397.6 246.60000000000002 L 398.20000000000005 246.8 L 398.8 247.20000000000002 L 399.40000000000003 247.60000000000002 L 399.8 248 L 400.40000000000003 248.4 L 401 248.8 L 401.6 249.20000000000002 L 402.20000000000005 249.60000000000002 L 402.8 249.8 L 403.20000000000005 250.20000000000002 L 403.8 250.60000000000002 L 404.40000000000003 251 L 405 251.4 L 405.6 251.8 L 406.20000000000005 252.20000000000002 L 406.6 252.60000000000002 L 407.20000000000005 252.8 L 407.8 253.20000000000002 L 408.40000000000003 253.60000000000002 L 409 254 L 409.6 254.4 L 410 254.8 L 410.6 255.20000000000002 L 411.20000000000005 255.4 L 411.8 255.8 L 412.40000000000003 256.2 L 413 256.6 L 413.40000000000003 257 L 414 257.40000000000003 L 414.6 257.8 L 415.20000000000005 258.2 L 415.8 258.40000000000003 L 416.40000000000003 258.8 L 416.8 259.2 L 417.40000000000003 259.6 L 418 260 L 418.6 260.40000000000003 L 419.20000000000005 260.8 L 419.8 261.2 L 420.20000000000005 261.40000000000003 L 420.8 261.8 L 421.40000000000003 262.2 L 422 262.6 L 422.6 263 L 423.20000000000005 263.40000000000003 L 423.6 263.8 L 424.20000000000005 264 L 424.8 264.40000000000003 L 425.40000000000003 264.8 L 426 265.2 L 426.6 265.6 L 427 266 L 427.6 266.40000000000003 L 428.20000000000005 266.8 L 428.8 267 L 429.40000000000003 267.40000000000003 L 430 267.8 L 430.40000000000003 268.2 L 431 268.6 L 431.6 269 L 432.20000000000005 269.40000000000003 L 432.8 269.6 L 433.40000000000003 270 L 433.8 270.40000000000003 L 434.40000000000003 270.8 L 435 271.2 L 435.6 271.6 L 436.20000000000005 272 L 436.8 272.40000000000003 L 437.20000000000005 272.6 L 437.8 273 L 438.40000000000003 273.40000000000003 L 439 273.8 L 439.6 274.2 L 440.20000000000005 274.6 L 440.6 275 L 441.20000000000005 275.40000000000003 L 441.8 275.6 L 442.40000000000003 276 L 443 276.40000000000003 L 443.6 276.8 L 444 277.2 L 444.6 277.6 L 445.20000000000005 278 L 445.8 278.2 L 446.40000000000003 278.6 L 447 279 L 447.40000000000003 279.40000000000003 L 448 279.8 L 448.6 280.2 L 449.20000000000005 280.6 L 449.8 281 L 450.40000000000003 281.2 L 450.8 281.6 L 451.40000000000003 282 L 452 282.40000000000003 L 452.6 282.8 L 453.20000000000005 283.2 L 453.8 283.6 L 454.20000000000005 284 L 454.8 284.2 L 455.40000000000003 284.6 L 456 285 L 456.6 285.40000000000003 L 457.20000000000005 285.8 L 457.6 286.2 L 458.20000000000005 286.6 L 458.8 286.8 L 459.40000000000003 287.2 L 460 287.6 L 460.6 288 L 461 288.40000000000003 L 461.6 288.8 L 462.20000000000005 289.2 L 462.8 289.6 L 463.40000000000003 289.8 L 464 290.2 L 464.40000000000003 290.6 L 465 291 L 465.6 291.40000000000003 L 466.20000000000005 291.8 L 466.8 292.2 L 467.40000000000003 292.6 L 467.8 292.8 L 468.40000000000003 293.2 L 469 293.6 L 469.6 294 L 470.20000000000005 294.40000000000003 L 470.8 294.8 L 471.20000000000005 295.2 L 471.8 295.40000000000003 L 472.40000000000003 295.8 L 473 296.2 L 473.6 296.6 L 474.20000000000005 297 L 474.6 297.40000000000003 L 475.20000000000005 297.8 L 475.8 298.2 L 476.40000000000003 298.40000000000003 L 477 298.8 L 477.6 299.2 L 478 299.6 L 478.6 300 L 479.20000000000005 300.40000000000003 L 479.8 300.8 L 480.40000000000003 301 L 481 301.40000000000003 L 481.40000000000003 301.8 L 482 302.2 L 482.6 302.6 L 483.20000000000005 303 L 483.8 303.40000000000003 L 484.40000000000003 303.8 L 484.8 304 L 485.40000000000003 304.40000000000003 L 486 304.8 L 486.6 305.2 L 487.20000000000005 305.6 L 487.8 306 L 488.20000000000005 306.40000000000003 L 488.8 306.8 L 489.40000000000003 307 L 490 307.40000000000003 L 490.6 307.8 L 491.20000000000005 308.20000000000005 L 491.6 308.6 L 492.20000000000005 309 L 492.8 309.40000000000003 L 493.40000000000003 309.6 L 494 310 L 494.6 310.40000000000003 L 495 310.8 L 495.6 311.20000000000005 L 496.20000000000005 311.6 L 496.8 312 L 497.40000000000003 312.40000000000003 L 498 312.6 L 498.40000000000003 313 L 499 313.40000000000003 L 499.6 313.8 L 500.20000000000005 314.20000000000005 L 500.8 314.6 L 501.40000000000003 315 L 501.8 315.40000000000003 L 502.40000000000003 315.6 L 503 316 L 503.6 316.40000000000003 L 504.20000000000005 316.8 L 504.8 317.20000000000005 L 505.20000000000005 317.6 L 505.8 318 L 506.40000000000003 318.20000000000005 L 507 318.6 L 507.6 319 L 508.20000000000005 319.40000000000003 L 508.6 319.8 L 509.20000000000005 320.20000000000005 L 509.8 320.6 L 510.40000000000003 321 L 511 321.20000000000005 L 511.6 321.6 L 512 322 L 512.6 322.40000000000003 L 513.2 322.8 L 513.8000000000001 323.20000000000005 L 514.4 323.6 L 515 324 L 515.4 324.20000000000005 L 516 324.6 L 516.6 325 L 517.2 325.40000000000003 L 517.8000000000001 325.8 L 518.4 326.20000000000005 L 518.8000000000001 326.6 L 519.4 326.8 L 520 327.20000000000005 L 520.6 327.6 L 521.2 328 L 521.8000000000001 328.40000000000003 L 522.2 328.8 L 522.8000000000001 329.20000000000005 L 523.4 329.6 L 524 329.8 L 524.6 330.20000000000005 L 525.2 330.6 L 525.6 331 L 526.2 331.40000000000003 L 526.8000000000001 331.8 L 527.4 332.20000000000005 L 528 332.40000000000003 L 528.6 332.8 L 529 333.20000000000005 L 529.6 333.6 L 530.2 334 L 530.8000000000001 334.40000000000003 L 531.4 334.8 L 532 335.20000000000005 L 532.4 335.40000000000003 L 533 335.8 L 533.6 336.20000000000005 L 534.2 336.6 L 534.8000000000001 337 L 535.4 337.40000000000003 L 535.8000000000001 337.8 L 536.4 338.20000000000005 L 537 338.40000000000003 L 537.6 338.8 L 538.2 339.20000000000005 L 538.8000000000001 339.6 L 539.2 340 L 539.8000000000001 340.40000000000003 L 540.4 340.8 L 541 341 L 541.6 341.40000000000003 L 542.2 341.8 L 542.6 342.20000000000005 L 543.2 342.6 L 543.8000000000001 343 L 544.4 343.40000000000003 L 545 343.8 L 545.6 344 L 546 344.40000000000003 L 546.6 344.8 L 547.2 345.20000000000005 L 547.8000000000001 345.6 L 548.4 346 L 549 346.40000000000003 L 549.4 346.8 L 550 347 L 550.6 347.40000000000003 L 551.2 347.8 L 551.8000000000001 348.20000000000005 L 552.4 348.6 L 552.8000000000001 349 L 553.4 349.40000000000003 L 554 349.6 L 554.6 350 L 555.2 350.40000000000003 L 555.8000000000001 350.8 L 556.2 351.20000000000005 L 556.8000000000001 351.6 L 557.4 352 L 558 352.40000000000003 L 558.6 352.6 L 559.2 353 L 559.6 353.40000000000003 L 560.2 353.8 L 560.8000000000001 354.20000000000005 L 561.4 354.6 L 562 355 L 562.6 355.20000000000005 L 563 355.6 L 563.6 356 L 564.2 356.40000000000003 L 564.8000000000001 356.8 L 565.4 357.20000000000005 L 566 357.6 L 566.4 358 L 567 358.20000000000005 L 567.6 358.6 L 568.2 359 L 568.8000000000001 359.40000000000003 L 569.4 359.8 L 569.8000000000001 360.20000000000005 L 570.4 360.6 L 571 361 L 571.6 361.20000000000005 L 572.2 361.6 L 572.8000000000001 362 L 573.2 362.40000000000003 L 573.8000000000001 362.8 L 574.4 363.20000000000005 L 575 363.6 L 575.6 363.8 L 576.2 364.20000000000005 L 576.6 364.6 L 577.2 365 L 577.8000000000001 365.40000000000003 L 578.4 365.8 L 579 366.20000000000005 L 579.6 366.6 L 580 366.8 L 580.6 367.20000000000005 L 581.2 367.6 L 581.8000000000001 368 L 582.4 368.40000000000003 L 583 368.8 L 583.4 369.20000000000005 L 584 369.6 L 584.6 369.8 L 585.2 370.20000000000005 L 585.8000000000001 370.6 L 586.4 371 L 586.8000000000001 371.40000000000003 L 587.4 371.8 L 588 372.20000000000005 L 588.6 372.40000000000003 L 589.2 372.8 L 589.8000000000001 373.20000000000005 L 590.2 373.6 L 590.8000000000001 374 L 591.4 374.40000000000003 L 592 374.8 L 592.6 375.20000000000005 L 593.2 375.40000000000003 L 593.6 375.8 L 594.2 376.20000000000005 L 594.8000000000001 376.6 L 595.4 377 L 596 377.40000000000003 L 596.6 377.8 L 597 378.20000000000005 L 597.6 378.40000000000003 L 598.2 378.8 L 598.8000000000001 379.20000000000005 L 599.4 379.6 "/></g><circle fill="black" r="3" display="block" cx="596.6" cy="377.8"/><g/><rect fill="white" display="block" x="601.6" y="360.8" width="2" height="14"/><text display="block" x="601.6" y="372.8"/><g/></g></g><g><g clip-path="url(#_clipplot28aedde0-2675-4d7b-9b9b-9b40310bd7fd)"><rect data-label-i="0" display="initial"/><text data-label-i="0" display="initial"/></g><g clip-path="url(#_clipplot28aedde0-2675-4d7b-9b9b-9b40310bd7fd)"><rect data-label-i="0" display="initial"/><text data-label-i="0" display="initial"/></g><g clip-path="url(#_clipplot28aedde0-2675-4d7b-9b9b-9b40310bd7fd)"><rect data-label-i="0" display="initial"/><text data-label-i="0" display="initial"/></g><g clip-path="url(#_clipplot28aedde0-2675-4d7b-9b9b-9b40310bd7fd)"><rect data-label-i="0" display="initial"/><text data-label-i="0" display="initial"/></g></g></g></g><line stroke="black" shape-rendering="crispEdges" stroke-linecap="square" display="none"/><line stroke="black" shape-rendering="crispEdges" stroke-linecap="square" display="none"/><line stroke="black" shape-rendering="crispEdges" stroke-linecap="square" display="none"/><line stroke="black" shape-rendering="crispEdges" stroke-linecap="square" display="none"/></g><g><rect display="none" fill="rgba(171,12,12,0.2)" stroke="rgba(171,12,12,1)" shape-rendering="crispEdges" x="0" y="0" height="0" width="0" pointer-events="none"/></g></g></svg>