<?xml version="1.0"?>
<!DOCTYPE svg PUBLIC "-//W3C//DTD SVG 1.1//EN" "http://www.w3.org/Graphics/SVG/1.1/DTD/svg11.dtd">
<svg width="47.94mm" height="171.94mm" viewBox="0 0 47.94 171.94" xmlns="http://www.w3.org/2000/svg" version="1.1">
<g id="Sketch001" transform="translate(-69.530000,171.470000) scale(1,-1)">
<path id="Sketch001_w0000"  d="M 108.0 0.0 L 108.0 13.0 L 82.0 13.0 L 82.0 42.0 L 100.0 42.0 L 103.0 52.0 L 117.0 52.0 L 117.0 81.0 L 84.0 81.0 L 84.0 171.0 L 70.0 171.0 L 70.0 0.0 L 108.0 0.0 " stroke="#000000" stroke-width="0.35 px" style="stroke-width:0.35;stroke-miterlimit:4;stroke-dasharray:none;fill:none;fill-rule: evenodd "/>
<path id="Sketch001_w0001"  d="M 111.0 52.0 L 111.0 77.0 L 80.0 77.0 L 80.0 171.0 L 74.0 171.0 L 74.0 5.0 L 102.0 5.0 L 102.0 10.0 L 96.0 10.0 L 96.0 9.0 L 78.0 9.0 L 78.0 72.0 L 92.0 72.0 L 92.0 42.0 L 96.0 42.0 L 96.0 72.0 L 107.0 72.0 L 107.0 52.0 L 111.0 52.0 " stroke="#000000" stroke-width="0.35 px" style="stroke-width:0.35;stroke-miterlimit:4;stroke-dasharray:none;fill:none;fill-rule: evenodd "/>
<path id="Sketch001_w0002"  d="M 107.0 51.99 L 111.0 51.99 L 111.0 71.99 L 107.0 71.99 L 107.0 51.99 " stroke="#000000" stroke-width="0.35 px" style="stroke-width:0.35;stroke-miterlimit:4;stroke-dasharray:none;fill:none;fill-rule: evenodd "/>
<path id="Sketch001_w0003"  d="M 96.0 61.99 L 92.0 61.99 L 92.0 41.99 L 96.0 41.99 L 96.0 61.99 " stroke="#000000" stroke-width="0.35 px" style="stroke-width:0.35;stroke-miterlimit:4;stroke-dasharray:none;fill:none;fill-rule: evenodd "/>
<path id="Sketch001_w0004"  d="M 78.00000002 8.99 L 78.0 4.99 L 102.0 4.99 L 102.0 9.99 L 96.0 9.99 L 96.00000002 8.99 L 78.00000002 8.99 " stroke="#000000" stroke-width="0.35 px" style="stroke-width:0.35;stroke-miterlimit:4;stroke-dasharray:none;fill:none;fill-rule: evenodd "/>
<title>SPECTRO_PLONGEUR_6_2_FLAT</title>
</g>
</svg>