<?xml version="1.0"?>
<!DOCTYPE svg PUBLIC "-//W3C//DTD SVG 1.1//EN" "http://www.w3.org/Graphics/SVG/1.1/DTD/svg11.dtd">
<svg width="47.94mm" height="171.94mm" viewBox="0 0 47.94 171.94" xmlns="http://www.w3.org/2000/svg" version="1.1">
<g id="Sketch" transform="translate(9.470000,171.470000) scale(1,-1)">
<path id="Sketch_w0000"  d="M 0.0 0.0 L 2.09669696507e-16 13.0 L 26.0 13.0 L 26.0 42.0 L 8.0 42.0 L 5.0 52.0 L -9.0 52.0 L -9.0 81.0 L 24.0 81.0 L 24.0 171.0 L 38.0 171.0 L 38.0 0.0 L 0.0 0.0 " stroke="#000000" stroke-width="0.35 px" style="stroke-width:0.35;stroke-miterlimit:4;stroke-dasharray:none;fill:none;fill-rule: evenodd "/>
<path id="Sketch_w0001"  d="M 6.0 10.0 L 6.0 5.0 L 34.0 5.0 L 34.0 171.0 L 28.0 171.0 L 28.0 77.0 L -3.0 77.0 L -3.0 52.0 L 1.0 52.0 L 1.0 72.0 L 12.0 72.0 L 12.0 42.0 L 16.0 42.0 L 16.0 72.0 L 30.0 72.0 L 30.0 9.0 L 12.0 9.0 L 12.0 10.0 L 6.0 10.0 " stroke="#000000" stroke-width="0.35 px" style="stroke-width:0.35;stroke-miterlimit:4;stroke-dasharray:none;fill:none;fill-rule: evenodd "/>
<title>Sketch</title>
</g>
</svg>