  0
SECTION
  2
HEADER
  9
$ACADVER
  1
AC1009
  9
$INSBASE
 10
0.0
 20
0.0
 30
0.0
  9
$EXTMIN
 10
0.0
 20
0.0
 30
0.0
  9
$EXTMAX
 10
0.0
 20
0.0
 30
0.0
  0
ENDSEC
  0
SECTION
  2
TABLES
  0
TABLE
  2
VPORT
 70
0
  0
ENDTAB
  0
TABLE
  2
LTYPE
 70
1
  0
LTYPE
  2
CONTINUOUS
 70
0
  3
Solid line
 72
65
 73
0
 40
0.0
  0
ENDTAB
  0
TABLE
  2
LAYER
 70
1
  0
LAYER
  2
0
 70
64
 62
7
  6
continuous
  0
ENDTAB
  0
TABLE
  2
STYLE
 70
1
  0
STYLE
  2
STANDARD
 70
0
 40
0
 41
1.0
 50
0.0
 71
0
 42
1
 3
ARIAL.TTF
 4

  0
ENDTAB
  0
TABLE
  2
VIEW
 70
0
  0
ENDTAB
  0
ENDSEC
  0
SECTION
  2
BLOCKS
  0
ENDSEC
  0
SECTION
  2
ENTITIES
  0
POLYLINE
  8
0
 62
7
 70
1
 66
1
 10
0.0
 20
0.0
 30
0.0
  0
VERTEX
  8
0
 10
3.00000048675
 20
47.0
 30
0.0
  0
VERTEX
  8
0
 10
34.333331471
 20
47.0
 30
0.0
  0
VERTEX
  8
0
 10
34.333331471
 20
50.0
 30
0.0
  0
VERTEX
  8
0
 10
65.6666644721
 20
50.0
 30
0.0
  0
VERTEX
  8
0
 10
65.6666644721
 20
47.0
 30
0.0
  0
VERTEX
  8
0
 10
97.0000015087
 20
47.0
 30
0.0
  0
VERTEX
  8
0
 10
97.0000015087
 20
32.3333333333
 30
0.0
  0
VERTEX
  8
0
 10
100.000001
 20
32.3333333333
 30
0.0
  0
VERTEX
  8
0
 10
100.000001
 20
17.6666666667
 30
0.0
  0
VERTEX
  8
0
 10
97.0000210144
 20
17.6666666667
 30
0.0
  0
VERTEX
  8
0
 10
97.0000210144
 20
3.0
 30
0.0
  0
VERTEX
  8
0
 10
65.6666780771
 20
3.0
 30
0.0
  0
VERTEX
  8
0
 10
65.6666780771
 20
2.34150043442e-19
 30
0.0
  0
VERTEX
  8
0
 10
34.3333307187
 20
4.68301713798e-19
 30
0.0
  0
VERTEX
  8
0
 10
34.3333307187
 20
3.0
 30
0.0
  0
VERTEX
  8
0
 10
2.99998128659
 20
3.0
 30
0.0
  0
VERTEX
  8
0
 10
2.99998128659
 20
17.6666666667
 30
0.0
  0
VERTEX
  8
0
 10
8.10662707132e-07
 20
17.6666666667
 30
0.0
  0
VERTEX
  8
0
 10
8.10662707079e-07
 20
32.3333333333
 30
0.0
  0
VERTEX
  8
0
 10
3.00000048675
 20
32.3333333333
 30
0.0
  0
SEQEND
  8
0
  0
POLYLINE
  8
0
 62
7
 70
1
 66
1
 10
0.0
 20
0.0
 30
0.0
  0
VERTEX
  8
0
 10
3.00000048675
 20
82.0
 30
0.0
  0
VERTEX
  8
0
 10
34.333331471
 20
82.0
 30
0.0
  0
VERTEX
  8
0
 10
34.333331471
 20
79.0
 30
0.0
  0
VERTEX
  8
0
 10
65.6666644721
 20
79.0
 30
0.0
  0
VERTEX
  8
0
 10
65.6666644721
 20
82.0
 30
0.0
  0
VERTEX
  8
0
 10
97.0000015087
 20
82.0
 30
0.0
  0
VERTEX
  8
0
 10
97.0000015087
 20
72.0
 30
0.0
  0
VERTEX
  8
0
 10
100.000001
 20
72.0
 30
0.0
  0
VERTEX
  8
0
 10
100.000001
 20
62.0
 30
0.0
  0
VERTEX
  8
0
 10
97.0000210144
 20
62.0
 30
0.0
  0
VERTEX
  8
0
 10
97.0000210144
 20
52.0
 30
0.0
  0
VERTEX
  8
0
 10
65.6666780771
 20
52.0
 30
0.0
  0
VERTEX
  8
0
 10
65.6666780771
 20
55.0
 30
0.0
  0
VERTEX
  8
0
 10
34.3333307187
 20
55.0
 30
0.0
  0
VERTEX
  8
0
 10
34.3333307187
 20
52.0
 30
0.0
  0
VERTEX
  8
0
 10
2.99998128659
 20
52.0
 30
0.0
  0
VERTEX
  8
0
 10
2.99998128659
 20
62.0
 30
0.0
  0
VERTEX
  8
0
 10
8.10662707132e-07
 20
62.0
 30
0.0
  0
VERTEX
  8
0
 10
8.1066270708e-07
 20
72.0
 30
0.0
  0
VERTEX
  8
0
 10
3.00000048675
 20
72.0
 30
0.0
  0
SEQEND
  8
0
  0
POLYLINE
  8
0
 62
7
 70
1
 66
1
 10
0.0
 20
0.0
 30
0.0
  0
VERTEX
  8
0
 10
7.35522753814e-16
 20
114.0
 30
0.0
  0
VERTEX
  8
0
 10
17.6666666667
 20
114.0
 30
0.0
  0
VERTEX
  8
0
 10
17.6666666667
 20
111.0
 30
0.0
  0
VERTEX
  8
0
 10
32.3333333333
 20
111.0
 30
0.0
  0
VERTEX
  8
0
 10
32.3333333333
 20
114.0
 30
0.0
  0
VERTEX
  8
0
 10
50.0
 20
114.0
 30
0.0
  0
VERTEX
  8
0
 10
50.0
 20
104.0
 30
0.0
  0
VERTEX
  8
0
 10
47.0
 20
104.0
 30
0.0
  0
VERTEX
  8
0
 10
47.0
 20
94.0
 30
0.0
  0
VERTEX
  8
0
 10
50.0
 20
94.0
 30
0.0
  0
VERTEX
  8
0
 10
50.0
 20
84.0
 30
0.0
  0
VERTEX
  8
0
 10
32.3333333333
 20
84.0
 30
0.0
  0
VERTEX
  8
0
 10
32.3333333333
 20
87.0
 30
0.0
  0
VERTEX
  8
0
 10
17.6666666667
 20
87.0
 30
0.0
  0
VERTEX
  8
0
 10
17.6666666667
 20
84.0
 30
0.0
  0
VERTEX
  8
0
 10
0.0
 20
84.0
 30
0.0
  0
VERTEX
  8
0
 10
0.0
 20
94.0
 30
0.0
  0
VERTEX
  8
0
 10
3.0
 20
94.0
 30
0.0
  0
VERTEX
  8
0
 10
3.0
 20
104.0
 30
0.0
  0
VERTEX
  8
0
 10
8.11850586757e-16
 20
104.0
 30
0.0
  0
SEQEND
  8
0
  0
POLYLINE
  8
0
 62
7
 70
1
 66
1
 10
0.0
 20
0.0
 30
0.0
  0
VERTEX
  8
0
 10
105.000000487
 20
47.0
 30
0.0
  0
VERTEX
  8
0
 10
136.333331471
 20
47.0
 30
0.0
  0
VERTEX
  8
0
 10
136.333331471
 20
50.0
 30
0.0
  0
VERTEX
  8
0
 10
167.666664472
 20
50.0
 30
0.0
  0
VERTEX
  8
0
 10
167.666664472
 20
47.0
 30
0.0
  0
VERTEX
  8
0
 10
199.000001509
 20
47.0
 30
0.0
  0
VERTEX
  8
0
 10
199.000001509
 20
32.3333333333
 30
0.0
  0
VERTEX
  8
0
 10
202.000001
 20
32.3333333333
 30
0.0
  0
VERTEX
  8
0
 10
202.000001
 20
17.6666666667
 30
0.0
  0
VERTEX
  8
0
 10
199.000021014
 20
17.6666666667
 30
0.0
  0
VERTEX
  8
0
 10
199.000021014
 20
3.0
 30
0.0
  0
VERTEX
  8
0
 10
167.666678077
 20
3.0
 30
0.0
  0
VERTEX
  8
0
 10
167.666678077
 20
2.28515001441e-19
 30
0.0
  0
VERTEX
  8
0
 10
136.333330719
 20
4.57028608742e-19
 30
0.0
  0
VERTEX
  8
0
 10
136.333330719
 20
3.0
 30
0.0
  0
VERTEX
  8
0
 10
104.999981287
 20
3.0
 30
0.0
  0
VERTEX
  8
0
 10
104.999981287
 20
17.6666666667
 30
0.0
  0
VERTEX
  8
0
 10
102.000000811
 20
17.6666666667
 30
0.0
  0
VERTEX
  8
0
 10
102.000000811
 20
32.3333333333
 30
0.0
  0
VERTEX
  8
0
 10
105.000000487
 20
32.3333333333
 30
0.0
  0
SEQEND
  8
0
  0
POLYLINE
  8
0
 62
7
 70
1
 66
1
 10
0.0
 20
0.0
 30
0.0
  0
VERTEX
  8
0
 10
105.000000487
 20
82.0
 30
0.0
  0
VERTEX
  8
0
 10
136.333331471
 20
82.0
 30
0.0
  0
VERTEX
  8
0
 10
136.333331471
 20
79.0
 30
0.0
  0
VERTEX
  8
0
 10
167.666664472
 20
79.0
 30
0.0
  0
VERTEX
  8
0
 10
167.666664472
 20
82.0
 30
0.0
  0
VERTEX
  8
0
 10
199.000001509
 20
82.0
 30
0.0
  0
VERTEX
  8
0
 10
199.000001509
 20
72.0
 30
0.0
  0
VERTEX
  8
0
 10
202.000001
 20
72.0
 30
0.0
  0
VERTEX
  8
0
 10
202.000001
 20
62.0
 30
0.0
  0
VERTEX
  8
0
 10
199.000021014
 20
62.0
 30
0.0
  0
VERTEX
  8
0
 10
199.000021014
 20
52.0
 30
0.0
  0
VERTEX
  8
0
 10
167.666678077
 20
52.0
 30
0.0
  0
VERTEX
  8
0
 10
167.666678077
 20
55.0
 30
0.0
  0
VERTEX
  8
0
 10
136.333330719
 20
55.0
 30
0.0
  0
VERTEX
  8
0
 10
136.333330719
 20
52.0
 30
0.0
  0
VERTEX
  8
0
 10
104.999981287
 20
52.0
 30
0.0
  0
VERTEX
  8
0
 10
104.999981287
 20
62.0
 30
0.0
  0
VERTEX
  8
0
 10
102.000000811
 20
62.0
 30
0.0
  0
VERTEX
  8
0
 10
102.000000811
 20
72.0
 30
0.0
  0
VERTEX
  8
0
 10
105.000000487
 20
72.0
 30
0.0
  0
SEQEND
  8
0
  0
POLYLINE
  8
0
 62
7
 70
1
 66
1
 10
0.0
 20
0.0
 30
0.0
  0
VERTEX
  8
0
 10
52.0
 20
114.0
 30
0.0
  0
VERTEX
  8
0
 10
69.6666666667
 20
114.0
 30
0.0
  0
VERTEX
  8
0
 10
69.6666666667
 20
111.0
 30
0.0
  0
VERTEX
  8
0
 10
84.3333333333
 20
111.0
 30
0.0
  0
VERTEX
  8
0
 10
84.3333333333
 20
114.0
 30
0.0
  0
VERTEX
  8
0
 10
102.0
 20
114.0
 30
0.0
  0
VERTEX
  8
0
 10
102.0
 20
104.0
 30
0.0
  0
VERTEX
  8
0
 10
99.0
 20
104.0
 30
0.0
  0
VERTEX
  8
0
 10
99.0
 20
94.0
 30
0.0
  0
VERTEX
  8
0
 10
102.0
 20
94.0
 30
0.0
  0
VERTEX
  8
0
 10
102.0
 20
84.0
 30
0.0
  0
VERTEX
  8
0
 10
84.3333333333
 20
84.0
 30
0.0
  0
VERTEX
  8
0
 10
84.3333333333
 20
87.0
 30
0.0
  0
VERTEX
  8
0
 10
69.6666666667
 20
87.0
 30
0.0
  0
VERTEX
  8
0
 10
69.6666666667
 20
84.0
 30
0.0
  0
VERTEX
  8
0
 10
52.0
 20
84.0
 30
0.0
  0
VERTEX
  8
0
 10
52.0
 20
94.0
 30
0.0
  0
VERTEX
  8
0
 10
55.0
 20
94.0
 30
0.0
  0
VERTEX
  8
0
 10
55.0
 20
104.0
 30
0.0
  0
VERTEX
  8
0
 10
52.0
 20
104.0
 30
0.0
  0
SEQEND
  8
0
  0
ENDSEC
  0
EOF
