  0
SECTION
  2
HEADER
  9
$ACADVER
  1
AC1009
  9
$INSBASE
 10
0.0
 20
0.0
 30
0.0
  9
$EXTMIN
 10
0.0
 20
0.0
 30
0.0
  9
$EXTMAX
 10
0.0
 20
0.0
 30
0.0
  0
ENDSEC
  0
SECTION
  2
TABLES
  0
TABLE
  2
VPORT
 70
0
  0
ENDTAB
  0
TABLE
  2
LTYPE
 70
1
  0
LTYPE
  2
CONTINUOUS
 70
0
  3
Solid line
 72
65
 73
0
 40
0.0
  0
ENDTAB
  0
TABLE
  2
LAYER
 70
1
  0
LAYER
  2
0
 70
64
 62
7
  6
continuous
  0
ENDTAB
  0
TABLE
  2
STYLE
 70
1
  0
STYLE
  2
STANDARD
 70
0
 40
0
 41
1.0
 50
0.0
 71
0
 42
1
 3
ARIAL.TTF
 4

  0
ENDTAB
  0
TABLE
  2
VIEW
 70
0
  0
ENDTAB
  0
ENDSEC
  0
SECTION
  2
BLOCKS
  0
ENDSEC
  0
SECTION
  2
ENTITIES
  0
POLYLINE
  8
0
 62
7
 70
1
 66
1
 10
0.0
 20
0.0
 30
0.0
  0
VERTEX
  8
0
 10
3.0
 20
47.0
 30
0.0
  0
VERTEX
  8
0
 10
17.6666666667
 20
47.0
 30
0.0
  0
VERTEX
  8
0
 10
17.6666666667
 20
50.0
 30
0.0
  0
VERTEX
  8
0
 10
32.3333333333
 20
50.0
 30
0.0
  0
VERTEX
  8
0
 10
32.3333333333
 20
47.0
 30
0.0
  0
VERTEX
  8
0
 10
47.0
 20
47.0
 30
0.0
  0
VERTEX
  8
0
 10
47.0
 20
32.3333333333
 30
0.0
  0
VERTEX
  8
0
 10
50.0
 20
32.3333333333
 30
0.0
  0
VERTEX
  8
0
 10
50.0
 20
17.6666666667
 30
0.0
  0
VERTEX
  8
0
 10
47.0
 20
17.6666666667
 30
0.0
  0
VERTEX
  8
0
 10
47.0
 20
3.0
 30
0.0
  0
VERTEX
  8
0
 10
32.3333333333
 20
3.0
 30
0.0
  0
VERTEX
  8
0
 10
32.3333333333
 20
0.0
 30
0.0
  0
VERTEX
  8
0
 10
17.6666666667
 20
0.0
 30
0.0
  0
VERTEX
  8
0
 10
17.6666666667
 20
3.0
 30
0.0
  0
VERTEX
  8
0
 10
3.0
 20
3.0
 30
0.0
  0
VERTEX
  8
0
 10
3.0
 20
17.6666666667
 30
0.0
  0
VERTEX
  8
0
 10
0.0
 20
17.6666666667
 30
0.0
  0
VERTEX
  8
0
 10
0.0
 20
32.3333333333
 30
0.0
  0
VERTEX
  8
0
 10
3.0
 20
32.3333333333
 30
0.0
  0
SEQEND
  8
0
  0
POLYLINE
  8
0
 62
7
 70
1
 66
1
 10
0.0
 20
0.0
 30
0.0
  0
VERTEX
  8
0
 10
3.0
 20
92.0
 30
0.0
  0
VERTEX
  8
0
 10
17.6666666667
 20
92.0
 30
0.0
  0
VERTEX
  8
0
 10
17.6666666667
 20
89.0
 30
0.0
  0
VERTEX
  8
0
 10
32.3333333333
 20
89.0
 30
0.0
  0
VERTEX
  8
0
 10
32.3333333333
 20
92.0
 30
0.0
  0
VERTEX
  8
0
 10
47.0
 20
92.0
 30
0.0
  0
VERTEX
  8
0
 10
47.0
 20
78.6666666667
 30
0.0
  0
VERTEX
  8
0
 10
50.0
 20
78.6666666667
 30
0.0
  0
VERTEX
  8
0
 10
50.0
 20
65.3333333333
 30
0.0
  0
VERTEX
  8
0
 10
47.0
 20
65.3333333333
 30
0.0
  0
VERTEX
  8
0
 10
47.0
 20
52.0
 30
0.0
  0
VERTEX
  8
0
 10
32.3333333333
 20
52.0
 30
0.0
  0
VERTEX
  8
0
 10
32.3333333333
 20
55.0
 30
0.0
  0
VERTEX
  8
0
 10
17.6666666667
 20
55.0
 30
0.0
  0
VERTEX
  8
0
 10
17.6666666667
 20
52.0
 30
0.0
  0
VERTEX
  8
0
 10
3.0
 20
52.0
 30
0.0
  0
VERTEX
  8
0
 10
3.0
 20
65.3333333333
 30
0.0
  0
VERTEX
  8
0
 10
-2.05511368828e-19
 20
65.3333333333
 30
0.0
  0
VERTEX
  8
0
 10
-4.11022737655e-19
 20
78.6666666667
 30
0.0
  0
VERTEX
  8
0
 10
3.0
 20
78.6666666667
 30
0.0
  0
SEQEND
  8
0
  0
POLYLINE
  8
0
 62
7
 70
1
 66
1
 10
0.0
 20
0.0
 30
0.0
  0
VERTEX
  8
0
 10
-1.11022302463e-16
 20
134.0
 30
0.0
  0
VERTEX
  8
0
 10
17.6666666667
 20
134.0
 30
0.0
  0
VERTEX
  8
0
 10
17.6666666667
 20
131.0
 30
0.0
  0
VERTEX
  8
0
 10
32.3333333333
 20
131.0
 30
0.0
  0
VERTEX
  8
0
 10
32.3333333333
 20
134.0
 30
0.0
  0
VERTEX
  8
0
 10
50.0
 20
134.0
 30
0.0
  0
VERTEX
  8
0
 10
50.0
 20
120.666666667
 30
0.0
  0
VERTEX
  8
0
 10
47.0
 20
120.666666667
 30
0.0
  0
VERTEX
  8
0
 10
47.0
 20
107.333333333
 30
0.0
  0
VERTEX
  8
0
 10
50.0
 20
107.333333333
 30
0.0
  0
VERTEX
  8
0
 10
50.0
 20
94.0
 30
0.0
  0
VERTEX
  8
0
 10
32.3333333333
 20
94.0
 30
0.0
  0
VERTEX
  8
0
 10
32.3333333333
 20
97.0
 30
0.0
  0
VERTEX
  8
0
 10
17.6666666667
 20
97.0
 30
0.0
  0
VERTEX
  8
0
 10
17.6666666667
 20
94.0
 30
0.0
  0
VERTEX
  8
0
 10
0.0
 20
94.0
 30
0.0
  0
VERTEX
  8
0
 10
0.0
 20
107.333333333
 30
0.0
  0
VERTEX
  8
0
 10
3.0
 20
107.333333333
 30
0.0
  0
VERTEX
  8
0
 10
3.0
 20
120.666666667
 30
0.0
  0
VERTEX
  8
0
 10
-5.55111512313e-17
 20
120.666666667
 30
0.0
  0
SEQEND
  8
0
  0
POLYLINE
  8
0
 62
7
 70
1
 66
1
 10
0.0
 20
0.0
 30
0.0
  0
VERTEX
  8
0
 10
55.0
 20
47.0
 30
0.0
  0
VERTEX
  8
0
 10
69.6666666667
 20
47.0
 30
0.0
  0
VERTEX
  8
0
 10
69.6666666667
 20
50.0
 30
0.0
  0
VERTEX
  8
0
 10
84.3333333333
 20
50.0
 30
0.0
  0
VERTEX
  8
0
 10
84.3333333333
 20
47.0
 30
0.0
  0
VERTEX
  8
0
 10
99.0
 20
47.0
 30
0.0
  0
VERTEX
  8
0
 10
99.0
 20
32.3333333333
 30
0.0
  0
VERTEX
  8
0
 10
102.0
 20
32.3333333333
 30
0.0
  0
VERTEX
  8
0
 10
102.0
 20
17.6666666667
 30
0.0
  0
VERTEX
  8
0
 10
99.0
 20
17.6666666667
 30
0.0
  0
VERTEX
  8
0
 10
99.0
 20
3.0
 30
0.0
  0
VERTEX
  8
0
 10
84.3333333333
 20
3.0
 30
0.0
  0
VERTEX
  8
0
 10
84.3333333333
 20
0.0
 30
0.0
  0
VERTEX
  8
0
 10
69.6666666667
 20
2.92259869061e-31
 30
0.0
  0
VERTEX
  8
0
 10
69.6666666667
 20
3.0
 30
0.0
  0
VERTEX
  8
0
 10
55.0
 20
3.0
 30
0.0
  0
VERTEX
  8
0
 10
55.0
 20
17.6666666667
 30
0.0
  0
VERTEX
  8
0
 10
52.0
 20
17.6666666667
 30
0.0
  0
VERTEX
  8
0
 10
52.0
 20
32.3333333333
 30
0.0
  0
VERTEX
  8
0
 10
55.0
 20
32.3333333333
 30
0.0
  0
SEQEND
  8
0
  0
POLYLINE
  8
0
 62
7
 70
1
 66
1
 10
0.0
 20
0.0
 30
0.0
  0
VERTEX
  8
0
 10
55.0
 20
92.0
 30
0.0
  0
VERTEX
  8
0
 10
69.6666666667
 20
92.0
 30
0.0
  0
VERTEX
  8
0
 10
69.6666666667
 20
89.0
 30
0.0
  0
VERTEX
  8
0
 10
84.3333333333
 20
89.0
 30
0.0
  0
VERTEX
  8
0
 10
84.3333333333
 20
92.0
 30
0.0
  0
VERTEX
  8
0
 10
99.0
 20
92.0
 30
0.0
  0
VERTEX
  8
0
 10
99.0
 20
78.6666666667
 30
0.0
  0
VERTEX
  8
0
 10
102.0
 20
78.6666666667
 30
0.0
  0
VERTEX
  8
0
 10
102.0
 20
65.3333333333
 30
0.0
  0
VERTEX
  8
0
 10
99.0
 20
65.3333333333
 30
0.0
  0
VERTEX
  8
0
 10
99.0
 20
52.0
 30
0.0
  0
VERTEX
  8
0
 10
84.3333333333
 20
52.0
 30
0.0
  0
VERTEX
  8
0
 10
84.3333333333
 20
55.0
 30
0.0
  0
VERTEX
  8
0
 10
69.6666666667
 20
55.0
 30
0.0
  0
VERTEX
  8
0
 10
69.6666666667
 20
52.0
 30
0.0
  0
VERTEX
  8
0
 10
55.0
 20
52.0
 30
0.0
  0
VERTEX
  8
0
 10
55.0
 20
65.3333333333
 30
0.0
  0
VERTEX
  8
0
 10
52.0
 20
65.3333333333
 30
0.0
  0
VERTEX
  8
0
 10
52.0
 20
78.6666666667
 30
0.0
  0
VERTEX
  8
0
 10
55.0
 20
78.6666666667
 30
0.0
  0
SEQEND
  8
0
  0
POLYLINE
  8
0
 62
7
 70
1
 66
1
 10
0.0
 20
0.0
 30
0.0
  0
VERTEX
  8
0
 10
52.0
 20
134.0
 30
0.0
  0
VERTEX
  8
0
 10
69.6666666667
 20
134.0
 30
0.0
  0
VERTEX
  8
0
 10
69.6666666667
 20
131.0
 30
0.0
  0
VERTEX
  8
0
 10
84.3333333333
 20
131.0
 30
0.0
  0
VERTEX
  8
0
 10
84.3333333333
 20
134.0
 30
0.0
  0
VERTEX
  8
0
 10
102.0
 20
134.0
 30
0.0
  0
VERTEX
  8
0
 10
102.0
 20
120.666666667
 30
0.0
  0
VERTEX
  8
0
 10
99.0
 20
120.666666667
 30
0.0
  0
VERTEX
  8
0
 10
99.0
 20
107.333333333
 30
0.0
  0
VERTEX
  8
0
 10
102.0
 20
107.333333333
 30
0.0
  0
VERTEX
  8
0
 10
102.0
 20
94.0
 30
0.0
  0
VERTEX
  8
0
 10
84.3333333333
 20
94.0
 30
0.0
  0
VERTEX
  8
0
 10
84.3333333333
 20
97.0
 30
0.0
  0
VERTEX
  8
0
 10
69.6666666667
 20
97.0
 30
0.0
  0
VERTEX
  8
0
 10
69.6666666667
 20
94.0
 30
0.0
  0
VERTEX
  8
0
 10
52.0
 20
94.0
 30
0.0
  0
VERTEX
  8
0
 10
52.0
 20
107.333333333
 30
0.0
  0
VERTEX
  8
0
 10
55.0
 20
107.333333333
 30
0.0
  0
VERTEX
  8
0
 10
55.0
 20
120.666666667
 30
0.0
  0
VERTEX
  8
0
 10
52.0
 20
120.666666667
 30
0.0
  0
SEQEND
  8
0
  0
ENDSEC
  0
EOF
