  0
SECTION
  2
HEADER
  9
$ACADVER
  1
AC1009
  9
$INSBASE
 10
0.0
 20
0.0
 30
0.0
  9
$EXTMIN
 10
0.0
 20
0.0
 30
0.0
  9
$EXTMAX
 10
0.0
 20
0.0
 30
0.0
  0
ENDSEC
  0
SECTION
  2
TABLES
  0
TABLE
  2
VPORT
 70
0
  0
ENDTAB
  0
TABLE
  2
LTYPE
 70
1
  0
LTYPE
  2
CONTINUOUS
 70
0
  3
Solid line
 72
65
 73
0
 40
0.0
  0
ENDTAB
  0
TABLE
  2
LAYER
 70
1
  0
LAYER
  2
0
 70
64
 62
7
  6
continuous
  0
ENDTAB
  0
TABLE
  2
STYLE
 70
1
  0
STYLE
  2
STANDARD
 70
0
 40
0
 41
1.0
 50
0.0
 71
0
 42
1
 3
ARIAL.TTF
 4

  0
ENDTAB
  0
TABLE
  2
VIEW
 70
0
  0
ENDTAB
  0
ENDSEC
  0
SECTION
  2
BLOCKS
  0
ENDSEC
  0
SECTION
  2
ENTITIES
  0
POLYLINE
  8
0
 62
7
 70
1
 66
1
 10
0.0
 20
0.0
 30
0.0
  0
VERTEX
  8
0
 10
3.00000048675
 20
47.0
 30
0.0
  0
VERTEX
  8
0
 10
17.6666648044
 20
47.0
 30
0.0
  0
VERTEX
  8
0
 10
17.6666648044
 20
50.0
 30
0.0
  0
VERTEX
  8
0
 10
32.3333311388
 20
50.0
 30
0.0
  0
VERTEX
  8
0
 10
32.3333311388
 20
47.0
 30
0.0
  0
VERTEX
  8
0
 10
47.0000015087
 20
47.0
 30
0.0
  0
VERTEX
  8
0
 10
47.0000015087
 20
32.3333333333
 30
0.0
  0
VERTEX
  8
0
 10
50.0000009998
 20
32.3333333333
 30
0.0
  0
VERTEX
  8
0
 10
50.0000009998
 20
17.6666666667
 30
0.0
  0
VERTEX
  8
0
 10
47.0000210145
 20
17.6666666667
 30
0.0
  0
VERTEX
  8
0
 10
47.0000210145
 20
3.0
 30
0.0
  0
VERTEX
  8
0
 10
32.3333447439
 20
3.0
 30
0.0
  0
VERTEX
  8
0
 10
32.3333447439
 20
2.32630348222e-19
 30
0.0
  0
VERTEX
  8
0
 10
17.666664052
 20
4.65260006251e-19
 30
0.0
  0
VERTEX
  8
0
 10
17.666664052
 20
3.0
 30
0.0
  0
VERTEX
  8
0
 10
2.99998128645
 20
3.0
 30
0.0
  0
VERTEX
  8
0
 10
2.99998128645
 20
17.6666666667
 30
0.0
  0
VERTEX
  8
0
 10
8.10668310209e-07
 20
17.6666666667
 30
0.0
  0
VERTEX
  8
0
 10
8.10668310159e-07
 20
32.3333333333
 30
0.0
  0
VERTEX
  8
0
 10
3.00000048675
 20
32.3333333333
 30
0.0
  0
SEQEND
  8
0
  0
POLYLINE
  8
0
 62
7
 70
1
 66
1
 10
0.0
 20
0.0
 30
0.0
  0
VERTEX
  8
0
 10
3.00000048675
 20
82.0
 30
0.0
  0
VERTEX
  8
0
 10
17.6666648044
 20
82.0
 30
0.0
  0
VERTEX
  8
0
 10
17.6666648044
 20
79.0
 30
0.0
  0
VERTEX
  8
0
 10
32.3333311388
 20
79.0
 30
0.0
  0
VERTEX
  8
0
 10
32.3333311388
 20
82.0
 30
0.0
  0
VERTEX
  8
0
 10
47.0000015087
 20
82.0
 30
0.0
  0
VERTEX
  8
0
 10
47.0000015087
 20
72.0
 30
0.0
  0
VERTEX
  8
0
 10
50.0000009998
 20
72.0
 30
0.0
  0
VERTEX
  8
0
 10
50.0000009998
 20
62.0
 30
0.0
  0
VERTEX
  8
0
 10
47.0000210145
 20
62.0
 30
0.0
  0
VERTEX
  8
0
 10
47.0000210145
 20
52.0
 30
0.0
  0
VERTEX
  8
0
 10
32.3333447439
 20
52.0
 30
0.0
  0
VERTEX
  8
0
 10
32.3333447439
 20
55.0
 30
0.0
  0
VERTEX
  8
0
 10
17.666664052
 20
55.0
 30
0.0
  0
VERTEX
  8
0
 10
17.666664052
 20
52.0
 30
0.0
  0
VERTEX
  8
0
 10
2.99998128645
 20
52.0
 30
0.0
  0
VERTEX
  8
0
 10
2.99998128645
 20
62.0
 30
0.0
  0
VERTEX
  8
0
 10
8.10668310209e-07
 20
62.0
 30
0.0
  0
VERTEX
  8
0
 10
8.1066831016e-07
 20
72.0
 30
0.0
  0
VERTEX
  8
0
 10
3.00000048675
 20
72.0
 30
0.0
  0
SEQEND
  8
0
  0
POLYLINE
  8
0
 62
7
 70
1
 66
1
 10
0.0
 20
0.0
 30
0.0
  0
VERTEX
  8
0
 10
0.0
 20
114.0
 30
0.0
  0
VERTEX
  8
0
 10
17.6666666667
 20
114.0
 30
0.0
  0
VERTEX
  8
0
 10
17.6666666667
 20
111.0
 30
0.0
  0
VERTEX
  8
0
 10
32.3333333333
 20
111.0
 30
0.0
  0
VERTEX
  8
0
 10
32.3333333333
 20
114.0
 30
0.0
  0
VERTEX
  8
0
 10
50.0
 20
114.0
 30
0.0
  0
VERTEX
  8
0
 10
50.0
 20
104.0
 30
0.0
  0
VERTEX
  8
0
 10
47.0
 20
104.0
 30
0.0
  0
VERTEX
  8
0
 10
47.0
 20
94.0
 30
0.0
  0
VERTEX
  8
0
 10
50.0
 20
94.0
 30
0.0
  0
VERTEX
  8
0
 10
50.0
 20
84.0
 30
0.0
  0
VERTEX
  8
0
 10
32.3333333333
 20
84.0
 30
0.0
  0
VERTEX
  8
0
 10
32.3333333333
 20
87.0
 30
0.0
  0
VERTEX
  8
0
 10
17.6666666667
 20
87.0
 30
0.0
  0
VERTEX
  8
0
 10
17.6666666667
 20
84.0
 30
0.0
  0
VERTEX
  8
0
 10
0.0
 20
84.0
 30
0.0
  0
VERTEX
  8
0
 10
0.0
 20
94.0
 30
0.0
  0
VERTEX
  8
0
 10
3.0
 20
94.0
 30
0.0
  0
VERTEX
  8
0
 10
3.0
 20
104.0
 30
0.0
  0
VERTEX
  8
0
 10
0.0
 20
104.0
 30
0.0
  0
SEQEND
  8
0
  0
POLYLINE
  8
0
 62
7
 70
1
 66
1
 10
0.0
 20
0.0
 30
0.0
  0
VERTEX
  8
0
 10
55.0000004867
 20
47.0
 30
0.0
  0
VERTEX
  8
0
 10
69.6666648044
 20
47.0
 30
0.0
  0
VERTEX
  8
0
 10
69.6666648044
 20
50.0
 30
0.0
  0
VERTEX
  8
0
 10
84.3333311388
 20
50.0
 30
0.0
  0
VERTEX
  8
0
 10
84.3333311388
 20
47.0
 30
0.0
  0
VERTEX
  8
0
 10
99.0000015087
 20
47.0
 30
0.0
  0
VERTEX
  8
0
 10
99.0000015087
 20
32.3333333333
 30
0.0
  0
VERTEX
  8
0
 10
102.000001
 20
32.3333333333
 30
0.0
  0
VERTEX
  8
0
 10
102.000001
 20
17.6666666667
 30
0.0
  0
VERTEX
  8
0
 10
99.0000210145
 20
17.6666666667
 30
0.0
  0
VERTEX
  8
0
 10
99.0000210145
 20
3.0
 30
0.0
  0
VERTEX
  8
0
 10
84.3333447439
 20
3.0
 30
0.0
  0
VERTEX
  8
0
 10
84.3333447439
 20
2.32630348222e-19
 30
0.0
  0
VERTEX
  8
0
 10
69.666664052
 20
4.65260006252e-19
 30
0.0
  0
VERTEX
  8
0
 10
69.666664052
 20
3.0
 30
0.0
  0
VERTEX
  8
0
 10
54.9999812864
 20
3.0
 30
0.0
  0
VERTEX
  8
0
 10
54.9999812864
 20
17.6666666667
 30
0.0
  0
VERTEX
  8
0
 10
52.0000008107
 20
17.6666666667
 30
0.0
  0
VERTEX
  8
0
 10
52.0000008107
 20
32.3333333333
 30
0.0
  0
VERTEX
  8
0
 10
55.0000004867
 20
32.3333333333
 30
0.0
  0
SEQEND
  8
0
  0
POLYLINE
  8
0
 62
7
 70
1
 66
1
 10
0.0
 20
0.0
 30
0.0
  0
VERTEX
  8
0
 10
55.0000004867
 20
82.0
 30
0.0
  0
VERTEX
  8
0
 10
69.6666648044
 20
82.0
 30
0.0
  0
VERTEX
  8
0
 10
69.6666648044
 20
79.0
 30
0.0
  0
VERTEX
  8
0
 10
84.3333311388
 20
79.0
 30
0.0
  0
VERTEX
  8
0
 10
84.3333311388
 20
82.0
 30
0.0
  0
VERTEX
  8
0
 10
99.0000015087
 20
82.0
 30
0.0
  0
VERTEX
  8
0
 10
99.0000015087
 20
72.0
 30
0.0
  0
VERTEX
  8
0
 10
102.000001
 20
72.0
 30
0.0
  0
VERTEX
  8
0
 10
102.000001
 20
62.0
 30
0.0
  0
VERTEX
  8
0
 10
99.0000210145
 20
62.0
 30
0.0
  0
VERTEX
  8
0
 10
99.0000210145
 20
52.0
 30
0.0
  0
VERTEX
  8
0
 10
84.3333447439
 20
52.0
 30
0.0
  0
VERTEX
  8
0
 10
84.3333447439
 20
55.0
 30
0.0
  0
VERTEX
  8
0
 10
69.666664052
 20
55.0
 30
0.0
  0
VERTEX
  8
0
 10
69.666664052
 20
52.0
 30
0.0
  0
VERTEX
  8
0
 10
54.9999812864
 20
52.0
 30
0.0
  0
VERTEX
  8
0
 10
54.9999812864
 20
62.0
 30
0.0
  0
VERTEX
  8
0
 10
52.0000008107
 20
62.0
 30
0.0
  0
VERTEX
  8
0
 10
52.0000008107
 20
72.0
 30
0.0
  0
VERTEX
  8
0
 10
55.0000004867
 20
72.0
 30
0.0
  0
SEQEND
  8
0
  0
POLYLINE
  8
0
 62
7
 70
1
 66
1
 10
0.0
 20
0.0
 30
0.0
  0
VERTEX
  8
0
 10
52.0
 20
114.0
 30
0.0
  0
VERTEX
  8
0
 10
69.6666666667
 20
114.0
 30
0.0
  0
VERTEX
  8
0
 10
69.6666666667
 20
111.0
 30
0.0
  0
VERTEX
  8
0
 10
84.3333333333
 20
111.0
 30
0.0
  0
VERTEX
  8
0
 10
84.3333333333
 20
114.0
 30
0.0
  0
VERTEX
  8
0
 10
102.0
 20
114.0
 30
0.0
  0
VERTEX
  8
0
 10
102.0
 20
104.0
 30
0.0
  0
VERTEX
  8
0
 10
99.0
 20
104.0
 30
0.0
  0
VERTEX
  8
0
 10
99.0
 20
94.0
 30
0.0
  0
VERTEX
  8
0
 10
102.0
 20
94.0
 30
0.0
  0
VERTEX
  8
0
 10
102.0
 20
84.0
 30
0.0
  0
VERTEX
  8
0
 10
84.3333333333
 20
84.0
 30
0.0
  0
VERTEX
  8
0
 10
84.3333333333
 20
87.0
 30
0.0
  0
VERTEX
  8
0
 10
69.6666666667
 20
87.0
 30
0.0
  0
VERTEX
  8
0
 10
69.6666666667
 20
84.0
 30
0.0
  0
VERTEX
  8
0
 10
52.0
 20
84.0
 30
0.0
  0
VERTEX
  8
0
 10
52.0
 20
94.0
 30
0.0
  0
VERTEX
  8
0
 10
55.0
 20
94.0
 30
0.0
  0
VERTEX
  8
0
 10
55.0
 20
104.0
 30
0.0
  0
VERTEX
  8
0
 10
52.0
 20
104.0
 30
0.0
  0
SEQEND
  8
0
  0
ENDSEC
  0
EOF
