  0
SECTION
  2
HEADER
  9
$ACADVER
  1
AC1009
  9
$INSBASE
 10
0.0
 20
0.0
 30
0.0
  9
$EXTMIN
 10
0.0
 20
0.0
 30
0.0
  9
$EXTMAX
 10
0.0
 20
0.0
 30
0.0
  0
ENDSEC
  0
SECTION
  2
TABLES
  0
TABLE
  2
VPORT
 70
0
  0
ENDTAB
  0
TABLE
  2
LTYPE
 70
1
  0
LTYPE
  2
CONTINUOUS
 70
0
  3
Solid line
 72
65
 73
0
 40
0.0
  0
ENDTAB
  0
TABLE
  2
LAYER
 70
1
  0
LAYER
  2
0
 70
64
 62
7
  6
continuous
  0
ENDTAB
  0
TABLE
  2
STYLE
 70
1
  0
STYLE
  2
STANDARD
 70
0
 40
0
 41
1.0
 50
0.0
 71
0
 42
1
 3
ARIAL.TTF
 4

  0
ENDTAB
  0
TABLE
  2
VIEW
 70
0
  0
ENDTAB
  0
ENDSEC
  0
SECTION
  2
BLOCKS
  0
ENDSEC
  0
SECTION
  2
ENTITIES
  0
POLYLINE
  8
0
 62
7
 70
1
 66
1
 10
0.0
 20
0.0
 30
0.0
  0
VERTEX
  8
0
 10
3.0
 20
57.0
 30
0.0
  0
VERTEX
  8
0
 10
21.0
 20
57.0
 30
0.0
  0
VERTEX
  8
0
 10
21.0
 20
60.0
 30
0.0
  0
VERTEX
  8
0
 10
39.0
 20
60.0
 30
0.0
  0
VERTEX
  8
0
 10
39.0
 20
57.0
 30
0.0
  0
VERTEX
  8
0
 10
57.0
 20
57.0
 30
0.0
  0
VERTEX
  8
0
 10
57.0
 20
39.0
 30
0.0
  0
VERTEX
  8
0
 10
60.0
 20
39.0
 30
0.0
  0
VERTEX
  8
0
 10
60.0
 20
21.0
 30
0.0
  0
VERTEX
  8
0
 10
57.0
 20
21.0
 30
0.0
  0
VERTEX
  8
0
 10
57.0
 20
3.0
 30
0.0
  0
VERTEX
  8
0
 10
39.0
 20
3.0
 30
0.0
  0
VERTEX
  8
0
 10
39.0
 20
0.0
 30
0.0
  0
VERTEX
  8
0
 10
21.0
 20
0.0
 30
0.0
  0
VERTEX
  8
0
 10
21.0
 20
3.0
 30
0.0
  0
VERTEX
  8
0
 10
3.0
 20
3.0
 30
0.0
  0
VERTEX
  8
0
 10
3.0
 20
21.0
 30
0.0
  0
VERTEX
  8
0
 10
-6.56281127533e-18
 20
21.0
 30
0.0
  0
VERTEX
  8
0
 10
-1.31256225507e-17
 20
39.0
 30
0.0
  0
VERTEX
  8
0
 10
3.0
 20
39.0
 30
0.0
  0
SEQEND
  8
0
  0
POLYLINE
  8
0
 62
7
 70
1
 66
1
 10
0.0
 20
0.0
 30
0.0
  0
VERTEX
  8
0
 10
3.0
 20
92.0
 30
0.0
  0
VERTEX
  8
0
 10
21.0
 20
92.0
 30
0.0
  0
VERTEX
  8
0
 10
21.0
 20
89.0
 30
0.0
  0
VERTEX
  8
0
 10
39.0
 20
89.0
 30
0.0
  0
VERTEX
  8
0
 10
39.0
 20
92.0
 30
0.0
  0
VERTEX
  8
0
 10
57.0
 20
92.0
 30
0.0
  0
VERTEX
  8
0
 10
57.0
 20
82.0
 30
0.0
  0
VERTEX
  8
0
 10
60.0
 20
82.0
 30
0.0
  0
VERTEX
  8
0
 10
60.0
 20
72.0
 30
0.0
  0
VERTEX
  8
0
 10
57.0
 20
72.0
 30
0.0
  0
VERTEX
  8
0
 10
57.0
 20
62.0
 30
0.0
  0
VERTEX
  8
0
 10
39.0
 20
62.0
 30
0.0
  0
VERTEX
  8
0
 10
39.0
 20
65.0
 30
0.0
  0
VERTEX
  8
0
 10
21.0
 20
65.0
 30
0.0
  0
VERTEX
  8
0
 10
21.0
 20
62.0
 30
0.0
  0
VERTEX
  8
0
 10
3.0
 20
62.0
 30
0.0
  0
VERTEX
  8
0
 10
3.0
 20
72.0
 30
0.0
  0
VERTEX
  8
0
 10
5.72117816311e-19
 20
72.0
 30
0.0
  0
VERTEX
  8
0
 10
1.14423563262e-18
 20
82.0
 30
0.0
  0
VERTEX
  8
0
 10
3.0
 20
82.0
 30
0.0
  0
SEQEND
  8
0
  0
POLYLINE
  8
0
 62
7
 70
1
 66
1
 10
0.0
 20
0.0
 30
0.0
  0
VERTEX
  8
0
 10
-8.881784197e-16
 20
124.0
 30
0.0
  0
VERTEX
  8
0
 10
21.0
 20
124.0
 30
0.0
  0
VERTEX
  8
0
 10
21.0
 20
121.0
 30
0.0
  0
VERTEX
  8
0
 10
39.0
 20
121.0
 30
0.0
  0
VERTEX
  8
0
 10
39.0
 20
124.0
 30
0.0
  0
VERTEX
  8
0
 10
60.0
 20
124.0
 30
0.0
  0
VERTEX
  8
0
 10
60.0
 20
114.0
 30
0.0
  0
VERTEX
  8
0
 10
57.0
 20
114.0
 30
0.0
  0
VERTEX
  8
0
 10
57.0
 20
104.0
 30
0.0
  0
VERTEX
  8
0
 10
60.0
 20
104.0
 30
0.0
  0
VERTEX
  8
0
 10
60.0
 20
94.0
 30
0.0
  0
VERTEX
  8
0
 10
39.0
 20
94.0
 30
0.0
  0
VERTEX
  8
0
 10
39.0
 20
97.0
 30
0.0
  0
VERTEX
  8
0
 10
21.0
 20
97.0
 30
0.0
  0
VERTEX
  8
0
 10
21.0
 20
94.0
 30
0.0
  0
VERTEX
  8
0
 10
1.11022302463e-16
 20
94.0
 30
0.0
  0
VERTEX
  8
0
 10
2.22044604925e-16
 20
104.0
 30
0.0
  0
VERTEX
  8
0
 10
3.0
 20
104.0
 30
0.0
  0
VERTEX
  8
0
 10
3.0
 20
114.0
 30
0.0
  0
VERTEX
  8
0
 10
-8.881784197e-16
 20
114.0
 30
0.0
  0
SEQEND
  8
0
  0
POLYLINE
  8
0
 62
7
 70
1
 66
1
 10
0.0
 20
0.0
 30
0.0
  0
VERTEX
  8
0
 10
65.0
 20
57.0
 30
0.0
  0
VERTEX
  8
0
 10
83.0
 20
57.0
 30
0.0
  0
VERTEX
  8
0
 10
83.0
 20
60.0
 30
0.0
  0
VERTEX
  8
0
 10
101.0
 20
60.0
 30
0.0
  0
VERTEX
  8
0
 10
101.0
 20
57.0
 30
0.0
  0
VERTEX
  8
0
 10
119.0
 20
57.0
 30
0.0
  0
VERTEX
  8
0
 10
119.0
 20
39.0
 30
0.0
  0
VERTEX
  8
0
 10
122.0
 20
39.0
 30
0.0
  0
VERTEX
  8
0
 10
122.0
 20
21.0
 30
0.0
  0
VERTEX
  8
0
 10
119.0
 20
21.0
 30
0.0
  0
VERTEX
  8
0
 10
119.0
 20
3.0
 30
0.0
  0
VERTEX
  8
0
 10
101.0
 20
3.0
 30
0.0
  0
VERTEX
  8
0
 10
101.0
 20
0.0
 30
0.0
  0
VERTEX
  8
0
 10
83.0
 20
0.0
 30
0.0
  0
VERTEX
  8
0
 10
83.0
 20
3.0
 30
0.0
  0
VERTEX
  8
0
 10
65.0
 20
3.0
 30
0.0
  0
VERTEX
  8
0
 10
65.0
 20
21.0
 30
0.0
  0
VERTEX
  8
0
 10
62.0
 20
21.0
 30
0.0
  0
VERTEX
  8
0
 10
62.0
 20
39.0
 30
0.0
  0
VERTEX
  8
0
 10
65.0
 20
39.0
 30
0.0
  0
SEQEND
  8
0
  0
POLYLINE
  8
0
 62
7
 70
1
 66
1
 10
0.0
 20
0.0
 30
0.0
  0
VERTEX
  8
0
 10
65.0
 20
92.0
 30
0.0
  0
VERTEX
  8
0
 10
83.0
 20
92.0
 30
0.0
  0
VERTEX
  8
0
 10
83.0
 20
89.0
 30
0.0
  0
VERTEX
  8
0
 10
101.0
 20
89.0
 30
0.0
  0
VERTEX
  8
0
 10
101.0
 20
92.0
 30
0.0
  0
VERTEX
  8
0
 10
119.0
 20
92.0
 30
0.0
  0
VERTEX
  8
0
 10
119.0
 20
82.0
 30
0.0
  0
VERTEX
  8
0
 10
122.0
 20
82.0
 30
0.0
  0
VERTEX
  8
0
 10
122.0
 20
72.0
 30
0.0
  0
VERTEX
  8
0
 10
119.0
 20
72.0
 30
0.0
  0
VERTEX
  8
0
 10
119.0
 20
62.0
 30
0.0
  0
VERTEX
  8
0
 10
101.0
 20
62.0
 30
0.0
  0
VERTEX
  8
0
 10
101.0
 20
65.0
 30
0.0
  0
VERTEX
  8
0
 10
83.0
 20
65.0
 30
0.0
  0
VERTEX
  8
0
 10
83.0
 20
62.0
 30
0.0
  0
VERTEX
  8
0
 10
65.0
 20
62.0
 30
0.0
  0
VERTEX
  8
0
 10
65.0
 20
72.0
 30
0.0
  0
VERTEX
  8
0
 10
62.0
 20
72.0
 30
0.0
  0
VERTEX
  8
0
 10
62.0
 20
82.0
 30
0.0
  0
VERTEX
  8
0
 10
65.0
 20
82.0
 30
0.0
  0
SEQEND
  8
0
  0
POLYLINE
  8
0
 62
7
 70
1
 66
1
 10
0.0
 20
0.0
 30
0.0
  0
VERTEX
  8
0
 10
62.0
 20
124.0
 30
0.0
  0
VERTEX
  8
0
 10
83.0
 20
124.0
 30
0.0
  0
VERTEX
  8
0
 10
83.0
 20
121.0
 30
0.0
  0
VERTEX
  8
0
 10
101.0
 20
121.0
 30
0.0
  0
VERTEX
  8
0
 10
101.0
 20
124.0
 30
0.0
  0
VERTEX
  8
0
 10
122.0
 20
124.0
 30
0.0
  0
VERTEX
  8
0
 10
122.0
 20
114.0
 30
0.0
  0
VERTEX
  8
0
 10
119.0
 20
114.0
 30
0.0
  0
VERTEX
  8
0
 10
119.0
 20
104.0
 30
0.0
  0
VERTEX
  8
0
 10
122.0
 20
104.0
 30
0.0
  0
VERTEX
  8
0
 10
122.0
 20
94.0
 30
0.0
  0
VERTEX
  8
0
 10
101.0
 20
94.0
 30
0.0
  0
VERTEX
  8
0
 10
101.0
 20
97.0
 30
0.0
  0
VERTEX
  8
0
 10
83.0
 20
97.0
 30
0.0
  0
VERTEX
  8
0
 10
83.0
 20
94.0
 30
0.0
  0
VERTEX
  8
0
 10
62.0
 20
94.0
 30
0.0
  0
VERTEX
  8
0
 10
62.0
 20
104.0
 30
0.0
  0
VERTEX
  8
0
 10
65.0
 20
104.0
 30
0.0
  0
VERTEX
  8
0
 10
65.0
 20
114.0
 30
0.0
  0
VERTEX
  8
0
 10
62.0
 20
114.0
 30
0.0
  0
SEQEND
  8
0
  0
ENDSEC
  0
EOF
