  0
SECTION
  2
BLOCKS
  0
ENDSEC
  0
SECTION
  2
ENTITIES
  0
LINE
  8
0
 10
75.6
 20
0.00393677
 11
75.7256
 21
0.00393677
  0
LINE
  8
0
 10
75.7256
 20
0.00393677
 11
75.9748
 21
0.0354156
  0
LINE
  8
0
 10
75.9748
 20
0.0354156
 11
76.218
 21
0.0978851
  0
LINE
  8
0
 10
76.218
 20
0.0978851
 11
76.4516
 21
0.190338
  0
LINE
  8
0
 10
76.4516
 20
0.190338
 11
76.6716
 21
0.31134
  0
LINE
  8
0
 10
76.6716
 20
0.31134
 11
76.8748
 21
0.458969
  0
LINE
  8
0
 10
76.8748
 20
0.458969
 11
77.0579
 21
0.630905
  0
LINE
  8
0
 10
77.0579
 20
0.630905
 11
77.218
 21
0.824417
  0
LINE
  8
0
 10
77.218
 20
0.824417
 11
77.3526
 21
1.03648
  0
LINE
  8
0
 10
77.3526
 20
1.03648
 11
77.4595
 21
1.26375
  0
LINE
  8
0
 10
77.4595
 20
1.26375
 11
77.5372
 21
1.50261
  0
LINE
  8
0
 10
77.5372
 20
1.50261
 11
77.5842
 21
1.74933
  0
LINE
  8
0
 10
77.5842
 20
1.74933
 11
77.6
 21
2
  0
LINE
  8
0
 10
77.6
 20
2
 11
77.6
 21
29.1
  0
LINE
  8
0
 10
77.6
 20
29.1
 11
77.5842
 21
29.3507
  0
LINE
  8
0
 10
77.5842
 20
29.3507
 11
77.5372
 21
29.5974
  0
LINE
  8
0
 10
77.5372
 20
29.5974
 11
77.4595
 21
29.8362
  0
LINE
  8
0
 10
77.4595
 20
29.8362
 11
77.3526
 21
30.0635
  0
LINE
  8
0
 10
77.3526
 20
30.0635
 11
77.218
 21
30.2756
  0
LINE
  8
0
 10
77.218
 20
30.2756
 11
77.0579
 21
30.4691
  0
LINE
  8
0
 10
77.0579
 20
30.4691
 11
76.8748
 21
30.641
  0
LINE
  8
0
 10
76.8748
 20
30.641
 11
76.6716
 21
30.7887
  0
LINE
  8
0
 10
76.6716
 20
30.7887
 11
76.4516
 21
30.9097
  0
LINE
  8
0
 10
76.4516
 20
30.9097
 11
76.218
 21
31.0021
  0
LINE
  8
0
 10
76.218
 20
31.0021
 11
75.9748
 21
31.0646
  0
LINE
  8
0
 10
75.9748
 20
31.0646
 11
75.7256
 21
31.0961
  0
LINE
  8
0
 10
75.7256
 20
31.0961
 11
75.6
 21
31.0961
  0
LINE
  8
0
 10
75.6
 20
31.0961
 11
75.6
 21
31.1
  0
LINE
  8
0
 10
75.6
 20
31.1
 11
2
 21
31.1
  0
LINE
  8
0
 10
2
 20
31.1
 11
2
 21
31.0961
  0
LINE
  8
0
 10
2
 20
31.0961
 11
1.8744
 21
31.0961
  0
LINE
  8
0
 10
1.8744
 20
31.0961
 11
1.62523
 21
31.0646
  0
LINE
  8
0
 10
1.62523
 20
31.0646
 11
1.38196
 21
31.0021
  0
LINE
  8
0
 10
1.38196
 20
31.0021
 11
1.14844
 21
30.9097
  0
LINE
  8
0
 10
1.14844
 20
30.9097
 11
0.928345
 21
30.7887
  0
LINE
  8
0
 10
0.928345
 20
30.7887
 11
0.725143
 21
30.641
  0
LINE
  8
0
 10
0.725143
 20
30.641
 11
0.542053
 21
30.4691
  0
LINE
  8
0
 10
0.542053
 20
30.4691
 11
0.381958
 21
30.2756
  0
LINE
  8
0
 10
0.381958
 20
30.2756
 11
0.247375
 21
30.0635
  0
LINE
  8
0
 10
0.247375
 20
30.0635
 11
0.140442
 21
29.8362
  0
LINE
  8
0
 10
0.140442
 20
29.8362
 11
0.0628204
 21
29.5974
  0
LINE
  8
0
 10
0.0628204
 20
29.5974
 11
0.0157623
 21
29.3507
  0
LINE
  8
0
 10
0.0157623
 20
29.3507
 11
0
 21
29.1
  0
LINE
  8
0
 10
0
 20
29.1
 11
0
 21
2
  0
LINE
  8
0
 10
0
 20
2
 11
0.0157623
 21
1.74933
  0
LINE
  8
0
 10
0.0157623
 20
1.74933
 11
0.0628204
 21
1.50261
  0
LINE
  8
0
 10
0.0628204
 20
1.50261
 11
0.140442
 21
1.26375
  0
LINE
  8
0
 10
0.140442
 20
1.26375
 11
0.247375
 21
1.03648
  0
LINE
  8
0
 10
0.247375
 20
1.03648
 11
0.381958
 21
0.824417
  0
LINE
  8
0
 10
0.381958
 20
0.824417
 11
0.542053
 21
0.630905
  0
LINE
  8
0
 10
0.542053
 20
0.630905
 11
0.725143
 21
0.458969
  0
LINE
  8
0
 10
0.725143
 20
0.458969
 11
0.928345
 21
0.31134
  0
LINE
  8
0
 10
0.928345
 20
0.31134
 11
1.14844
 21
0.190338
  0
LINE
  8
0
 10
1.14844
 20
0.190338
 11
1.38196
 21
0.0978851
  0
LINE
  8
0
 10
1.38196
 20
0.0978851
 11
1.62523
 21
0.0354156
  0
LINE
  8
0
 10
1.62523
 20
0.0354156
 11
1.8744
 21
0.00393677
  0
LINE
  8
0
 10
1.8744
 20
0.00393677
 11
2
 21
0.00393677
  0
LINE
  8
0
 10
2
 20
0.00393677
 11
2
 21
0
  0
LINE
  8
0
 10
2
 20
0
 11
75.6
 21
0
  0
LINE
  8
0
 10
75.6
 20
0
 11
75.6
 21
0.00393677
  0
ENDSEC
  0
SECTION
  2
OBJECTS
  0
DICTIONARY
  0
ENDSEC
  0
EOF
