  0
SECTION
  2
BLOCKS
  0
ENDSEC
  0
SECTION
  2
ENTITIES
  0
LINE
  8
0
 10
0.468597
 20
0.000976562
 11
77.1314
 21
0.000976562
  0
LINE
  8
0
 10
77.1314
 20
0.000976562
 11
77.1937
 21
0.0088501
  0
LINE
  8
0
 10
77.1937
 20
0.0088501
 11
77.2545
 21
0.0244598
  0
LINE
  8
0
 10
77.2545
 20
0.0244598
 11
77.3129
 21
0.0475769
  0
LINE
  8
0
 10
77.3129
 20
0.0475769
 11
77.3679
 21
0.0778351
  0
LINE
  8
0
 10
77.3679
 20
0.0778351
 11
77.4187
 21
0.114731
  0
LINE
  8
0
 10
77.4187
 20
0.114731
 11
77.4645
 21
0.157715
  0
LINE
  8
0
 10
77.4645
 20
0.157715
 11
77.5045
 21
0.2061
  0
LINE
  8
0
 10
77.5045
 20
0.2061
 11
77.5381
 21
0.259109
  0
LINE
  8
0
 10
77.5381
 20
0.259109
 11
77.5649
 21
0.315933
  0
LINE
  8
0
 10
77.5649
 20
0.315933
 11
77.5843
 21
0.375641
  0
LINE
  8
0
 10
77.5843
 20
0.375641
 11
77.5961
 21
0.437332
  0
LINE
  8
0
 10
77.5961
 20
0.437332
 11
77.6
 21
0.5
  0
LINE
  8
0
 10
77.6
 20
0.5
 11
77.6
 21
30.6
  0
LINE
  8
0
 10
77.6
 20
30.6
 11
77.5961
 21
30.6627
  0
LINE
  8
0
 10
77.5961
 20
30.6627
 11
77.5843
 21
30.7243
  0
LINE
  8
0
 10
77.5843
 20
30.7243
 11
77.5649
 21
30.7841
  0
LINE
  8
0
 10
77.5649
 20
30.7841
 11
77.5381
 21
30.8409
  0
LINE
  8
0
 10
77.5381
 20
30.8409
 11
77.5045
 21
30.8939
  0
LINE
  8
0
 10
77.5045
 20
30.8939
 11
77.4645
 21
30.9423
  0
LINE
  8
0
 10
77.4645
 20
30.9423
 11
77.4187
 21
30.9852
  0
LINE
  8
0
 10
77.4187
 20
30.9852
 11
77.3679
 21
31.0222
  0
LINE
  8
0
 10
77.3679
 20
31.0222
 11
77.3129
 21
31.0524
  0
LINE
  8
0
 10
77.3129
 20
31.0524
 11
77.2545
 21
31.0755
  0
LINE
  8
0
 10
77.2545
 20
31.0755
 11
77.1937
 21
31.0911
  0
LINE
  8
0
 10
77.1937
 20
31.0911
 11
77.1314
 21
31.099
  0
LINE
  8
0
 10
77.1314
 20
31.099
 11
0.468597
 21
31.099
  0
LINE
  8
0
 10
0.468597
 20
31.099
 11
0.406296
 21
31.0911
  0
LINE
  8
0
 10
0.406296
 20
31.0911
 11
0.34549
 21
31.0755
  0
LINE
  8
0
 10
0.34549
 20
31.0755
 11
0.287109
 21
31.0524
  0
LINE
  8
0
 10
0.287109
 20
31.0524
 11
0.232086
 21
31.0222
  0
LINE
  8
0
 10
0.232086
 20
31.0222
 11
0.181274
 21
30.9852
  0
LINE
  8
0
 10
0.181274
 20
30.9852
 11
0.135513
 21
30.9423
  0
LINE
  8
0
 10
0.135513
 20
30.9423
 11
0.0954895
 21
30.8939
  0
LINE
  8
0
 10
0.0954895
 20
30.8939
 11
0.0618439
 21
30.8409
  0
LINE
  8
0
 10
0.0618439
 20
30.8409
 11
0.0351105
 21
30.7841
  0
LINE
  8
0
 10
0.0351105
 20
30.7841
 11
0.0157013
 21
30.7243
  0
LINE
  8
0
 10
0.0157013
 20
30.7243
 11
0.00393677
 21
30.6627
  0
LINE
  8
0
 10
0.00393677
 20
30.6627
 11
0
 21
30.6
  0
LINE
  8
0
 10
0
 20
30.6
 11
0
 21
0.5
  0
LINE
  8
0
 10
0
 20
0.5
 11
0.00393677
 21
0.437332
  0
LINE
  8
0
 10
0.00393677
 20
0.437332
 11
0.0157013
 21
0.375641
  0
LINE
  8
0
 10
0.0157013
 20
0.375641
 11
0.0351105
 21
0.315933
  0
LINE
  8
0
 10
0.0351105
 20
0.315933
 11
0.0618439
 21
0.259109
  0
LINE
  8
0
 10
0.0618439
 20
0.259109
 11
0.0954895
 21
0.2061
  0
LINE
  8
0
 10
0.0954895
 20
0.2061
 11
0.135513
 21
0.157715
  0
LINE
  8
0
 10
0.135513
 20
0.157715
 11
0.181274
 21
0.114731
  0
LINE
  8
0
 10
0.181274
 20
0.114731
 11
0.232086
 21
0.0778351
  0
LINE
  8
0
 10
0.232086
 20
0.0778351
 11
0.287109
 21
0.0475769
  0
LINE
  8
0
 10
0.287109
 20
0.0475769
 11
0.34549
 21
0.0244598
  0
LINE
  8
0
 10
0.34549
 20
0.0244598
 11
0.406296
 21
0.0088501
  0
LINE
  8
0
 10
0.406296
 20
0.0088501
 11
0.468597
 21
0.000976562
  0
ENDSEC
  0
SECTION
  2
OBJECTS
  0
DICTIONARY
  0
ENDSEC
  0
EOF
