<?xml version="1.0" standalone="no"?><!DOCTYPE svg PUBLIC "-//W3C//DTD SVG 1.1//EN" "http://www.w3.org/Graphics/SVG/1.1/DTD/svg11.dtd"><svg xmlns:xlink="http://www.w3.org/1999/xlink" xmlns="http://www.w3.org/2000/svg" font-family="Myriad Pro, Helvetica, Arial" font-size="12" data-jsgraph-version="v2.0.68" width="930" height="495.01136399999996"><defs><clipPath id="_clipplot01debc8f-14ce-45d1-b698-29b8acd77494" clipPathUnits="userSpaceOnUse"><rect y="0" x="50.66584396362305" width="839.334156036377" height="386.0294380356445"/></clipPath><marker xmlns="" viewBox="0 0 10 10" id="arrow01debc8f-14ce-45d1-b698-29b8acd77494" refX="6" refY="5" markerUnits="strokeWidth" markerWidth="8" markerHeight="6" orient="auto"><path xmlns="http://www.w3.org/2000/svg" d="M 0 0 L 10 5 L 0 10 z"/></marker><marker viewBox="0 0 6 8" id="horionzalsplit_01debc8f-14ce-45d1-b698-29b8acd77494" refX="3" refY="4" markerUnits="strokeWidth" markerWidth="6" markerHeight="8"><line x1="0" y1="8" x2="6" y2="0" stroke="black"/></marker><marker viewBox="0 0 8 6" id="verticalsplit_01debc8f-14ce-45d1-b698-29b8acd77494" refX="4" refY="3" markerUnits="strokeWidth" markerWidth="8" markerHeight="6"><line x1="0" y1="0" x2="8" y2="6" stroke="black"/></marker><marker viewBox="0 0 10 10" id="verticalline01debc8f-14ce-45d1-b698-29b8acd77494" refX="0" refY="5" markerUnits="strokeWidth" markerWidth="20" markerHeight="10" orient="auto" stroke-width="1px"><path d="M 0 -10 L 0 10" stroke="black"/></marker></defs><g><rect pointer-events="fill" fill="transparent" y="30" x="70.66584396362305" width="839.334156036377" height="386.0294380356445"/><text text-anchor="middle" y="20" x="465"/><g transform="translate(20, 30)"><g><g><g><path shape-rendering="crispEdges" stroke="#F0F0F0" stroke-width="1" stroke-opacity="undefined" clip-path="url(#_clipplot01debc8f-14ce-45d1-b698-29b8acd77494)" d="M 57.932337125499814 0 L 57.932337125499814 418.0294380356445M 70.68429938676353 0 L 70.68429938676353 418.0294380356445M 83.43626164802723 0 L 83.43626164802723 418.0294380356445M 96.18822390929093 0 L 96.18822390929093 418.0294380356445M 108.94018617055463 0 L 108.94018617055463 418.0294380356445M 121.69214843181832 0 L 121.69214843181832 418.0294380356445M 134.44411069308202 0 L 134.44411069308202 418.0294380356445M 147.1960729543457 0 L 147.1960729543457 418.0294380356445M 159.94803521560942 0 L 159.94803521560942 418.0294380356445M 172.69999747687314 0 L 172.69999747687314 418.0294380356445M 185.4519597381369 0 L 185.4519597381369 418.0294380356445M 198.2039219994006 0 L 198.2039219994006 418.0294380356445M 210.9558842606643 0 L 210.9558842606643 418.0294380356445M 223.70784652192805 0 L 223.70784652192805 418.0294380356445M 236.45980878319173 0 L 236.45980878319173 418.0294380356445M 249.21177104445545 0 L 249.21177104445545 418.0294380356445M 261.9637333057192 0 L 261.9637333057192 418.0294380356445M 274.71569556698284 0 L 274.71569556698284 418.0294380356445M 300.2196200895102 0 L 300.2196200895102 418.0294380356445M 312.97158235077393 0 L 312.97158235077393 418.0294380356445M 325.72354461203764 0 L 325.72354461203764 418.0294380356445M 338.47550687330136 0 L 338.47550687330136 418.0294380356445M 351.22746913456507 0 L 351.22746913456507 418.0294380356445M 363.9794313958288 0 L 363.9794313958288 418.0294380356445M 376.7313936570925 0 L 376.7313936570925 418.0294380356445M 389.4833559183562 0 L 389.4833559183562 418.0294380356445M 402.2353181796199 0 L 402.2353181796199 418.0294380356445M 427.73924270214724 0 L 427.73924270214724 418.0294380356445M 440.49120496341095 0 L 440.49120496341095 418.0294380356445M 453.24316722467466 0 L 453.24316722467466 418.0294380356445M 465.9951294859384 0 L 465.9951294859384 418.0294380356445M 478.7470917472021 0 L 478.7470917472021 418.0294380356445M 491.4990540084658 0 L 491.4990540084658 418.0294380356445M 504.2510162697295 0 L 504.2510162697295 418.0294380356445M 517.0029785309932 0 L 517.0029785309932 418.0294380356445M 529.754940792257 0 L 529.754940792257 418.0294380356445M 555.2588653147842 0 L 555.2588653147842 418.0294380356445M 568.0108275760479 0 L 568.0108275760479 418.0294380356445M 580.7627898373115 0 L 580.7627898373115 418.0294380356445M 593.5147520985751 0 L 593.5147520985751 418.0294380356445M 606.2667143598388 0 L 606.2667143598388 418.0294380356445M 619.0186766211024 0 L 619.0186766211024 418.0294380356445M 631.7706388823661 0 L 631.7706388823661 418.0294380356445M 644.5226011436298 0 L 644.5226011436298 418.0294380356445M 657.2745634048935 0 L 657.2745634048935 418.0294380356445M 670.0265256661571 0 L 670.0265256661571 418.0294380356445M 682.7784879274212 0 L 682.7784879274212 418.0294380356445M 695.5304501886849 0 L 695.5304501886849 418.0294380356445M 708.2824124499485 0 L 708.2824124499485 418.0294380356445M 721.0343747112122 0 L 721.0343747112122 418.0294380356445M 733.7863369724757 0 L 733.7863369724757 418.0294380356445M 746.5382992337395 0 L 746.5382992337395 418.0294380356445M 759.2902614950032 0 L 759.2902614950032 418.0294380356445M 772.0422237562668 0 L 772.0422237562668 418.0294380356445M 784.7941860175305 0 L 784.7941860175305 418.0294380356445M 797.5461482787941 0 L 797.5461482787941 418.0294380356445M 810.2981105400582 0 L 810.2981105400582 418.0294380356445M 823.0500728013219 0 L 823.0500728013219 418.0294380356445M 835.8020350625856 0 L 835.8020350625856 418.0294380356445M 848.5539973238492 0 L 848.5539973238492 418.0294380356445M 861.3059595851129 0 L 861.3059595851129 418.0294380356445M 874.0579218463765 0 L 874.0579218463765 418.0294380356445M 886.8098841076402 0 L 886.8098841076402 418.0294380356445"/><path shape-rendering="crispEdges" stroke="#F0F0F0" stroke-width="1" stroke-opacity="undefined" clip-path="url(#_clipplot01debc8f-14ce-45d1-b698-29b8acd77494)" d="M 0 380.1287052932617 L 890 380.1287052932617M 0 370.44305241842466 L 890 370.44305241842466M 0 360.7573995435876 L 890 360.7573995435876M 0 351.0717466687506 L 890 351.0717466687506M 0 341.3860937939136 L 890 341.3860937939136M 0 331.7004409190765 L 890 331.7004409190765M 0 322.0147880442395 L 890 322.0147880442395M 0 312.32913516940243 L 890 312.32913516940243M 0 302.6434822945654 L 890 302.6434822945654M 0 292.95782941972834 L 890 292.95782941972834M 0 283.2721765448913 L 890 283.2721765448913M 0 273.5865236700543 L 890 273.5865236700543M 0 263.90087079521726 L 890 263.90087079521726M 0 254.2152179203802 L 890 254.2152179203802M 0 244.52956504554322 L 890 244.52956504554322M 0 234.8439121707062 L 890 234.8439121707062M 0 225.15825929586913 L 890 225.15825929586913M 0 215.47260642103208 L 890 215.47260642103208M 0 205.78695354619506 L 890 205.78695354619506M 0 196.10130067135802 L 890 196.10130067135802M 0 186.41564779652097 L 890 186.41564779652097M 0 176.72999492168395 L 890 176.72999492168395M 0 167.04434204684688 L 890 167.04434204684688M 0 157.35868917200983 L 890 157.35868917200983M 0 147.6730362971728 L 890 147.6730362971728M 0 128.30173054749878 L 890 128.30173054749878M 0 118.61607767266173 L 890 118.61607767266173M 0 108.93042479782468 L 890 108.93042479782468M 0 99.24477192298764 L 890 99.24477192298764M 0 89.55911904815059 L 890 89.55911904815059M 0 79.87346617331355 L 890 79.87346617331355M 0 70.1878132984765 L 890 70.1878132984765M 0 60.50216042363945 L 890 60.50216042363945M 0 50.816507548802406 L 890 50.816507548802406M 0 31.44520179912837 L 890 31.44520179912837M 0 21.759548924291323 L 890 21.759548924291323M 0 12.073896049454277 L 890 12.073896049454277M 0 2.38824317461723 L 890 2.38824317461723"/></g><g><path shape-rendering="crispEdges" stroke="#DADADA" stroke-width="1" stroke-opacity="undefined" clip-path="url(#_clipplot01debc8f-14ce-45d1-b698-29b8acd77494)" d="M 159.94803521560945 0 L 159.94803521560945 418.0294380356445M 287.4676578282465 0 L 287.4676578282465 418.0294380356445M 414.9872804408835 0 L 414.9872804408835 418.0294380356445M 542.5069030535205 0 L 542.5069030535205 418.0294380356445M 670.0265256661576 0 L 670.0265256661576 418.0294380356445M 797.5461482787946 0 L 797.5461482787946 418.0294380356445"/><path shape-rendering="crispEdges" stroke="#DADADA" stroke-width="1" stroke-opacity="undefined" clip-path="url(#_clipplot01debc8f-14ce-45d1-b698-29b8acd77494)" d="M 0 331.7004409190765 L 890 331.7004409190765M 0 234.84391217070615 L 890 234.84391217070615M 0 137.9873834223358 L 890 137.9873834223358M 0 41.130854673965416 L 890 41.130854673965416"/></g></g><g transform="translate(0 386.0294380356445)"><rect pointer-events="fill" fill="transparent"/><g><line y1="0" y2="-2" stroke="black" display="visible" x1="57.932337125499814" x2="57.932337125499814"/><line y1="0" y2="-2" stroke="black" display="visible" x1="70.68429938676353" x2="70.68429938676353"/><line y1="0" y2="-2" stroke="black" display="visible" x1="83.43626164802723" x2="83.43626164802723"/><line y1="0" y2="-2" stroke="black" display="visible" x1="108.94018617055463" x2="108.94018617055463"/><line y1="0" y2="-4" stroke="black" display="visible" x1="96.18822390929093" x2="96.18822390929093"/><line y1="0" y2="-2" stroke="black" display="visible" x1="121.69214843181832" x2="121.69214843181832"/><line y1="0" y2="-2" stroke="black" display="visible" x1="134.44411069308202" x2="134.44411069308202"/><line y1="0" y2="-2" stroke="black" display="visible" x1="147.1960729543457" x2="147.1960729543457"/><line y1="0" y2="-2" stroke="black" display="visible" x1="159.94803521560942" x2="159.94803521560942"/><line y1="0" y2="-6" stroke="black" display="visible" x1="159.94803521560945" x2="159.94803521560945"/><line y1="0" y2="-2" stroke="black" display="visible" x1="172.69999747687314" x2="172.69999747687314"/><line y1="0" y2="-2" stroke="black" display="visible" x1="185.4519597381369" x2="185.4519597381369"/><line y1="0" y2="-2" stroke="black" display="visible" x1="198.2039219994006" x2="198.2039219994006"/><line y1="0" y2="-2" stroke="black" display="visible" x1="210.9558842606643" x2="210.9558842606643"/><line y1="0" y2="-4" stroke="black" display="visible" x1="223.70784652192805" x2="223.70784652192805"/><line y1="0" y2="-2" stroke="black" display="visible" x1="236.45980878319173" x2="236.45980878319173"/><line y1="0" y2="-2" stroke="black" display="visible" x1="249.21177104445545" x2="249.21177104445545"/><line y1="0" y2="-2" stroke="black" display="visible" x1="261.9637333057192" x2="261.9637333057192"/><line y1="0" y2="-2" stroke="black" display="visible" x1="274.71569556698284" x2="274.71569556698284"/><line y1="0" y2="-2" stroke="black" display="visible" x1="300.2196200895102" x2="300.2196200895102"/><line y1="0" y2="-6" stroke="black" display="visible" x1="287.4676578282465" x2="287.4676578282465"/><line y1="0" y2="-2" stroke="black" display="visible" x1="312.97158235077393" x2="312.97158235077393"/><line y1="0" y2="-2" stroke="black" display="visible" x1="325.72354461203764" x2="325.72354461203764"/><line y1="0" y2="-2" stroke="black" display="visible" x1="338.47550687330136" x2="338.47550687330136"/><line y1="0" y2="-2" stroke="black" display="visible" x1="363.9794313958288" x2="363.9794313958288"/><line y1="0" y2="-4" stroke="black" display="visible" x1="351.22746913456507" x2="351.22746913456507"/><line y1="0" y2="-2" stroke="black" display="visible" x1="376.7313936570925" x2="376.7313936570925"/><line y1="0" y2="-2" stroke="black" display="visible" x1="389.4833559183562" x2="389.4833559183562"/><line y1="0" y2="-2" stroke="black" display="visible" x1="402.2353181796199" x2="402.2353181796199"/><line y1="0" y2="-2" stroke="black" display="visible" x1="427.73924270214724" x2="427.73924270214724"/><line y1="0" y2="-2" stroke="black" display="visible" x1="440.49120496341095" x2="440.49120496341095"/><line y1="0" y2="-6" stroke="black" display="visible" x1="414.9872804408835" x2="414.9872804408835"/><line y1="0" y2="-2" stroke="black" display="visible" x1="453.24316722467466" x2="453.24316722467466"/><line y1="0" y2="-2" stroke="black" display="visible" x1="465.9951294859384" x2="465.9951294859384"/><line y1="0" y2="-2" stroke="black" display="visible" x1="491.4990540084658" x2="491.4990540084658"/><line y1="0" y2="-2" stroke="black" display="visible" x1="504.2510162697295" x2="504.2510162697295"/><line y1="0" y2="-4" stroke="black" display="visible" x1="478.7470917472021" x2="478.7470917472021"/><line y1="0" y2="-2" stroke="black" display="visible" x1="517.0029785309932" x2="517.0029785309932"/><line y1="0" y2="-2" stroke="black" display="visible" x1="529.754940792257" x2="529.754940792257"/><line y1="0" y2="-2" stroke="black" display="visible" x1="555.2588653147842" x2="555.2588653147842"/><line y1="0" y2="-2" stroke="black" display="visible" x1="568.0108275760479" x2="568.0108275760479"/><line y1="0" y2="-6" stroke="black" display="visible" x1="542.5069030535205" x2="542.5069030535205"/><line y1="0" y2="-6" stroke="black" display="visible" x1="670.0265256661576" x2="670.0265256661576"/><line y1="0" y2="-2" stroke="black" display="visible" x1="580.7627898373115" x2="580.7627898373115"/><line y1="0" y2="-2" stroke="black" display="visible" x1="593.5147520985751" x2="593.5147520985751"/><line y1="0" y2="-4" stroke="black" display="visible" x1="606.2667143598388" x2="606.2667143598388"/><line y1="0" y2="-2" stroke="black" display="visible" x1="619.0186766211024" x2="619.0186766211024"/><line y1="0" y2="-2" stroke="black" display="visible" x1="631.7706388823661" x2="631.7706388823661"/><line y1="0" y2="-2" stroke="black" display="visible" x1="644.5226011436298" x2="644.5226011436298"/><line y1="0" y2="-2" stroke="black" display="visible" x1="657.2745634048935" x2="657.2745634048935"/><line y1="0" y2="-2" stroke="black" display="visible" x1="670.0265256661571" x2="670.0265256661571"/><line y1="0" y2="-2" stroke="black" display="visible" x1="682.7784879274212" x2="682.7784879274212"/><line y1="0" y2="-2" stroke="black" display="visible" x1="695.5304501886849" x2="695.5304501886849"/><line y1="0" y2="-2" stroke="black" display="visible" x1="708.2824124499485" x2="708.2824124499485"/><line y1="0" y2="-2" stroke="black" display="visible" x1="721.0343747112122" x2="721.0343747112122"/><line y1="0" y2="-4" stroke="black" display="visible" x1="733.7863369724757" x2="733.7863369724757"/><line y1="0" y2="-2" stroke="black" display="visible" x1="746.5382992337395" x2="746.5382992337395"/><line y1="0" y2="-2" stroke="black" display="visible" x1="759.2902614950032" x2="759.2902614950032"/><line y1="0" y2="-2" stroke="black" display="visible" x1="772.0422237562668" x2="772.0422237562668"/><line y1="0" y2="-2" stroke="black" display="visible" x1="784.7941860175305" x2="784.7941860175305"/><line y1="0" y2="-2" stroke="black" display="visible" x1="797.5461482787941" x2="797.5461482787941"/><line y1="0" y2="-2" stroke="black" display="visible" x1="810.2981105400582" x2="810.2981105400582"/><line y1="0" y2="-2" stroke="black" display="visible" x1="823.0500728013219" x2="823.0500728013219"/><line y1="0" y2="-2" stroke="black" display="visible" x1="835.8020350625856" x2="835.8020350625856"/><line y1="0" y2="-2" stroke="black" display="visible" x1="848.5539973238492" x2="848.5539973238492"/><line y1="0" y2="-4" stroke="black" display="visible" x1="861.3059595851129" x2="861.3059595851129"/><line y1="0" y2="-2" stroke="black" display="visible" x1="874.0579218463765" x2="874.0579218463765"/><line y1="0" y2="-2" stroke="black" display="visible" x1="886.8098841076402" x2="886.8098841076402"/><line y1="0" y2="-6" stroke="black" display="visible" x1="797.5461482787946" x2="797.5461482787946"/><line y1="0" y2="-2" stroke="black" display="none" x1="763.8428865373911" x2="763.8428865373911"/><line y1="0" y2="-2" stroke="black" display="none" x1="773.9231845316416" x2="773.9231845316416"/><line y1="0" y2="-4" stroke="black" display="none" x1="784.0034825258919" x2="784.0034825258919"/><line y1="0" y2="-2" stroke="black" display="none" x1="794.0837805201422" x2="794.0837805201422"/><line y1="0" y2="-2" stroke="black" display="none" x1="804.1640785143927" x2="804.1640785143927"/><line y1="0" y2="-2" stroke="black" display="none" x1="814.2443765086431" x2="814.2443765086431"/><line y1="0" y2="-2" stroke="black" display="none" x1="824.3246745028933" x2="824.3246745028933"/><line y1="0" y2="-6" stroke="black" display="none" x1="733.60199255464" x2="733.60199255464"/><line y1="0" y2="-2" stroke="black" display="none" x1="844.4852704913942" x2="844.4852704913942"/><line y1="0" y2="-2" stroke="black" display="none" x1="854.5655684856445" x2="854.5655684856445"/><line y1="0" y2="-2" stroke="black" display="none" x1="864.645866479895" x2="864.645866479895"/><line y1="0" y2="-2" stroke="black" display="none" x1="874.7261644741453" x2="874.7261644741453"/><line y1="0" y2="-4" stroke="black" display="none" x1="884.8064624683957" x2="884.8064624683957"/><line y1="0" y2="-6" stroke="black" display="none" x1="834.4049724971438" x2="834.4049724971438"/></g><g><text y="8" text-anchor="middle" display="visible" x="159.94803521560945" style="dominant-baseline: hanging;">1</text><text y="8" text-anchor="middle" display="visible" x="287.4676578282465" style="dominant-baseline: hanging;">2</text><text y="8" text-anchor="middle" display="visible" x="414.9872804408835" style="dominant-baseline: hanging;">3</text><text y="8" text-anchor="middle" display="visible" x="542.5069030535205" style="dominant-baseline: hanging;">4</text><text y="8" text-anchor="middle" display="visible" x="670.0265256661576" style="dominant-baseline: hanging;">5</text><text y="8" text-anchor="middle" display="visible" x="797.5461482787946" style="dominant-baseline: hanging;">6</text><text y="8" text-anchor="middle" display="none" x="733.60199255464" style="dominant-baseline: hanging;">1400</text><text y="8" text-anchor="middle" display="none" x="834.4049724971438" style="dominant-baseline: hanging;">1600</text></g><line stroke="black" shape-rendering="crispEdges" stroke-linecap="square" display="block" x1="50.66584396362305" x2="890" y1="0" y2="0" marker-start="" marker-end=""/><text text-anchor="middle" fill="undefined" style="display: initial;" x="470.3329219818115" y="22"><tspan style="dominant-baseline: hanging;">Time (min)</tspan><tspan display="none" style="dominant-baseline: hanging;"/><tspan dx="6" display="none" style="dominant-baseline: hanging;"/><tspan dy="-5" font-size="0.8em" display="none" style="dominant-baseline: hanging;"/></text><g/></g><g transform="translate( 50.66584396362305 0 )"><rect pointer-events="fill" fill="transparent"/><g><line x1="0" x2="4" stroke="black" display="visible" y1="380.1287052932617" y2="380.1287052932617"/><line x1="0" x2="4" stroke="black" display="visible" y1="283.2721765448913" y2="283.2721765448913"/><line x1="0" x2="4" stroke="black" display="visible" y1="186.41564779652097" y2="186.41564779652097"/><line x1="0" x2="4" stroke="black" display="visible" y1="89.55911904815059" y2="89.55911904815059"/><line x1="0" x2="4" stroke="black" display="none" y1="1.8630147419898435" y2="1.8630147419898435"/><line x1="0" x2="4" stroke="black" display="none" y1="55.700596257499086" y2="55.700596257499086"/><line x1="0" x2="4" stroke="black" display="none" y1="17.18652082379569" y2="17.18652082379569"/><line x1="0" x2="4" stroke="black" display="none" y1="12.907179108939772" y2="12.907179108939772"/><line x1="0" x2="4" stroke="black" display="none" y1="16.92741725162432" y2="16.92741725162432"/><line x1="0" x2="4" stroke="black" display="none" y1="11.345084988696271" y2="11.345084988696271"/><line x1="0" x2="4" stroke="black" display="none" y1="5.762752725768252" y2="5.762752725768252"/><line x1="0" x2="4" stroke="black" display="none" y1="0.1804204628402033" y2="0.1804204628402033"/><line x1="0" x2="4" stroke="black" display="none" y1="119.56749625999961" y2="119.56749625999961"/><line x1="0" x2="4" stroke="black" display="none" y1="115.9530885946749" y2="115.9530885946749"/><line x1="0" x2="4" stroke="black" display="none" y1="112.3386809293502" y2="112.3386809293502"/><line x1="0" x2="6" stroke="black" display="visible" y1="331.7004409190765" y2="331.7004409190765"/><line x1="0" x2="4" stroke="black" display="none" y1="105.10986559870078" y2="105.10986559870078"/><line x1="0" x2="4" stroke="black" display="none" y1="101.49545793337606" y2="101.49545793337606"/><line x1="0" x2="4" stroke="black" display="none" y1="97.88105026805134" y2="97.88105026805134"/><line x1="0" x2="4" stroke="black" display="none" y1="94.26664260272663" y2="94.26664260272663"/><line x1="0" x2="4" stroke="black" display="none" y1="90.65223493740193" y2="90.65223493740193"/><line x1="0" x2="4" stroke="black" display="none" y1="87.03782727207722" y2="87.03782727207722"/><line x1="0" x2="4" stroke="black" display="none" y1="83.42341960675252" y2="83.42341960675252"/><line x1="0" x2="4" stroke="black" display="none" y1="79.8090119414278" y2="79.8090119414278"/><line x1="0" x2="4" stroke="black" display="none" y1="76.1946042761031" y2="76.1946042761031"/><line x1="0" x2="6" stroke="black" display="visible" y1="234.84391217070615" y2="234.84391217070615"/><line x1="0" x2="4" stroke="black" display="none" y1="68.96578894545367" y2="68.96578894545367"/><line x1="0" x2="4" stroke="black" display="none" y1="65.35138128012896" y2="65.35138128012896"/><line x1="0" x2="4" stroke="black" display="none" y1="61.73697361480427" y2="61.73697361480427"/><line x1="0" x2="4" stroke="black" display="none" y1="58.12256594947955" y2="58.12256594947955"/><line x1="0" x2="4" stroke="black" display="none" y1="54.50815828415482" y2="54.50815828415482"/><line x1="0" x2="4" stroke="black" display="none" y1="50.89375061883011" y2="50.89375061883011"/><line x1="0" x2="4" stroke="black" display="none" y1="47.27934295350539" y2="47.27934295350539"/><line x1="0" x2="4" stroke="black" display="none" y1="43.66493528818066" y2="43.66493528818066"/><line x1="0" x2="4" stroke="black" display="none" y1="40.05052762285595" y2="40.05052762285595"/><line x1="0" x2="6" stroke="black" display="visible" y1="137.9873834223358" y2="137.9873834223358"/><line x1="0" x2="6" stroke="black" display="visible" y1="41.130854673965416" y2="41.130854673965416"/><line x1="0" x2="4" stroke="black" display="none" y1="32.82171229220657" y2="32.82171229220657"/><line x1="0" x2="4" stroke="black" display="none" y1="29.207304626881836" y2="29.207304626881836"/><line x1="0" x2="4" stroke="black" display="none" y1="25.592896961557102" y2="25.592896961557102"/><line x1="0" x2="4" stroke="black" display="none" y1="21.978489296232397" y2="21.978489296232397"/><line x1="0" x2="4" stroke="black" display="none" y1="18.36408163090769" y2="18.36408163090769"/><line x1="0" x2="4" stroke="black" display="none" y1="14.749673965582957" y2="14.749673965582957"/><line x1="0" x2="4" stroke="black" display="none" y1="11.135266300258252" y2="11.135266300258252"/><line x1="0" x2="4" stroke="black" display="none" y1="7.520858634933518" y2="7.520858634933518"/><line x1="0" x2="4" stroke="black" display="none" y1="3.906450969608784" y2="3.906450969608784"/><line x1="0" x2="6" stroke="black" display="none" y1="23.473718277485347" y2="23.473718277485347"/><line x1="0" x2="2" stroke="black" display="visible" y1="370.44305241842466" y2="370.44305241842466"/><line x1="0" x2="2" stroke="black" display="visible" y1="360.7573995435876" y2="360.7573995435876"/><line x1="0" x2="2" stroke="black" display="visible" y1="351.0717466687506" y2="351.0717466687506"/><line x1="0" x2="2" stroke="black" display="visible" y1="341.3860937939136" y2="341.3860937939136"/><line x1="0" x2="2" stroke="black" display="visible" y1="331.7004409190765" y2="331.7004409190765"/><line x1="0" x2="2" stroke="black" display="visible" y1="322.0147880442395" y2="322.0147880442395"/><line x1="0" x2="2" stroke="black" display="visible" y1="312.32913516940243" y2="312.32913516940243"/><line x1="0" x2="2" stroke="black" display="visible" y1="302.6434822945654" y2="302.6434822945654"/><line x1="0" x2="2" stroke="black" display="visible" y1="292.95782941972834" y2="292.95782941972834"/><line x1="0" x2="2" stroke="black" display="visible" y1="273.5865236700543" y2="273.5865236700543"/><line x1="0" x2="2" stroke="black" display="visible" y1="263.90087079521726" y2="263.90087079521726"/><line x1="0" x2="2" stroke="black" display="visible" y1="254.2152179203802" y2="254.2152179203802"/><line x1="0" x2="2" stroke="black" display="visible" y1="244.52956504554322" y2="244.52956504554322"/><line x1="0" x2="2" stroke="black" display="visible" y1="234.8439121707062" y2="234.8439121707062"/><line x1="0" x2="2" stroke="black" display="visible" y1="225.15825929586913" y2="225.15825929586913"/><line x1="0" x2="2" stroke="black" display="visible" y1="215.47260642103208" y2="215.47260642103208"/><line x1="0" x2="2" stroke="black" display="visible" y1="205.78695354619506" y2="205.78695354619506"/><line x1="0" x2="2" stroke="black" display="visible" y1="196.10130067135802" y2="196.10130067135802"/><line x1="0" x2="2" stroke="black" display="visible" y1="176.72999492168395" y2="176.72999492168395"/><line x1="0" x2="2" stroke="black" display="visible" y1="167.04434204684688" y2="167.04434204684688"/><line x1="0" x2="2" stroke="black" display="visible" y1="157.35868917200983" y2="157.35868917200983"/><line x1="0" x2="2" stroke="black" display="visible" y1="147.6730362971728" y2="147.6730362971728"/><line x1="0" x2="2" stroke="black" display="visible" y1="128.30173054749878" y2="128.30173054749878"/><line x1="0" x2="2" stroke="black" display="visible" y1="118.61607767266173" y2="118.61607767266173"/><line x1="0" x2="2" stroke="black" display="visible" y1="108.93042479782468" y2="108.93042479782468"/><line x1="0" x2="2" stroke="black" display="visible" y1="99.24477192298764" y2="99.24477192298764"/><line x1="0" x2="2" stroke="black" display="visible" y1="79.87346617331355" y2="79.87346617331355"/><line x1="0" x2="2" stroke="black" display="visible" y1="70.1878132984765" y2="70.1878132984765"/><line x1="0" x2="2" stroke="black" display="visible" y1="60.50216042363945" y2="60.50216042363945"/><line x1="0" x2="2" stroke="black" display="visible" y1="50.816507548802406" y2="50.816507548802406"/><line x1="0" x2="2" stroke="black" display="visible" y1="31.44520179912837" y2="31.44520179912837"/><line x1="0" x2="2" stroke="black" display="visible" y1="21.759548924291323" y2="21.759548924291323"/><line x1="0" x2="2" stroke="black" display="visible" y1="12.073896049454277" y2="12.073896049454277"/><line x1="0" x2="2" stroke="black" display="visible" y1="2.38824317461723" y2="2.38824317461723"/><line x1="0" x2="2" stroke="black" display="none" y1="36.61314235047632" y2="36.61314235047632"/><line x1="0" x2="2" stroke="black" display="none" y1="27.92561044835469" y2="27.92561044835469"/><line x1="0" x2="2" stroke="black" display="none" y1="19.238078546233055" y2="19.238078546233055"/><line x1="0" x2="2" stroke="black" display="none" y1="10.550546644111478" y2="10.550546644111478"/></g><g><text x="-5" text-anchor="end" display="visible" y="331.7004409190765" style="dominant-baseline: central;">0.0</text><text x="-5" text-anchor="end" display="visible" y="234.84391217070615" style="dominant-baseline: central;">0.2</text><text x="-5" text-anchor="end" display="visible" y="137.9873834223358" style="dominant-baseline: central;">0.4</text><text x="-5" text-anchor="end" display="visible" y="41.130854673965416" style="dominant-baseline: central;">0.6</text><text x="-5" text-anchor="end" display="none" y="23.473718277485347" style="dominant-baseline: central;">400</text></g><line stroke="black" shape-rendering="crispEdges" stroke-linecap="square" display="block" y1="386.0294380356445" y2="0" x1="0" x2="0" marker-start="" marker-end=""/><text text-anchor="middle" transform="translate(-38.66584396362305, 193.01471901782224) rotate(-90)" fill="undefined" dominant-baseline="auto"><tspan>Variation (%)</tspan><tspan display="none"/><tspan dx="6" display="none"/><tspan dy="-5" font-size="0.8em" display="none"/></text><g/></g></g><g><g data-layer="1"><g><g><g><path stroke="rgba(255,1,9,1)" stroke-width="1" fill="none" d="M 50.6 329.8 L 68.8 334.6 L 87 339.6 L 105.4 338.20000000000005 L 123.60000000000001 345 L 141.8 341.20000000000005 L 160 347 L 178.20000000000002 345.40000000000003 L 196.60000000000002 348.40000000000003 L 214.8 348.8 L 233 351.40000000000003 L 251.20000000000002 349 L 269.6 359.20000000000005 L 287.8 355.8 L 306 355.40000000000003 L 324.20000000000005 354.6 L 342.6 354.20000000000005 L 360.8 356.6 L 379 361.20000000000005 L 397.20000000000005 360.20000000000005 L 415.40000000000003 366 L 433.8 366.40000000000003 L 452 367 L 470.20000000000005 367 L 488.40000000000003 361 L 506.8 369.8 L 525 370.40000000000003 L 543.2 370.6 L 561.4 370.40000000000003 L 579.8000000000001 378.8 L 598 378.20000000000005 L 616.2 372 L 634.4000000000001 374.20000000000005 L 652.6 373.8 L 671 372.20000000000005 L 689.2 369.40000000000003 L 707.4000000000001 373.40000000000003 L 725.6 376.40000000000003 L 744 378.8 L 762.2 378.8 L 780.4000000000001 376.8 L 798.6 376.6 L 817 379.20000000000005 L 835.2 378 L 853.4000000000001 386 L 871.6 383 L 889.8000000000001 382 "/></g><circle fill="black" r="3" display="block" cx="652.6" cy="373.8"/><g/><rect fill="white" display="block" x="657.6" y="356.8" width="2" height="14"/><text display="block" x="657.6" y="368.8"/><g><path fill="rgba(255,1,9,1)" stroke="rgba(255,1,9,1)" stroke-width="1" d="M 50.6 329.8 m -3 -3 l 6 0 l 0 6 l -6 0 z M 68.8 334.6 m -3 -3 l 6 0 l 0 6 l -6 0 z M 87 339.6 m -3 -3 l 6 0 l 0 6 l -6 0 z M 105.4 338.20000000000005 m -3 -3 l 6 0 l 0 6 l -6 0 z M 123.60000000000001 345 m -3 -3 l 6 0 l 0 6 l -6 0 z M 141.8 341.20000000000005 m -3 -3 l 6 0 l 0 6 l -6 0 z M 160 347 m -3 -3 l 6 0 l 0 6 l -6 0 z M 178.20000000000002 345.40000000000003 m -3 -3 l 6 0 l 0 6 l -6 0 z M 196.60000000000002 348.40000000000003 m -3 -3 l 6 0 l 0 6 l -6 0 z M 214.8 348.8 m -3 -3 l 6 0 l 0 6 l -6 0 z M 233 351.40000000000003 m -3 -3 l 6 0 l 0 6 l -6 0 z M 251.20000000000002 349 m -3 -3 l 6 0 l 0 6 l -6 0 z M 269.6 359.20000000000005 m -3 -3 l 6 0 l 0 6 l -6 0 z M 287.8 355.8 m -3 -3 l 6 0 l 0 6 l -6 0 z M 306 355.40000000000003 m -3 -3 l 6 0 l 0 6 l -6 0 z M 324.20000000000005 354.6 m -3 -3 l 6 0 l 0 6 l -6 0 z M 342.6 354.20000000000005 m -3 -3 l 6 0 l 0 6 l -6 0 z M 360.8 356.6 m -3 -3 l 6 0 l 0 6 l -6 0 z M 379 361.20000000000005 m -3 -3 l 6 0 l 0 6 l -6 0 z M 397.20000000000005 360.20000000000005 m -3 -3 l 6 0 l 0 6 l -6 0 z M 415.40000000000003 366 m -3 -3 l 6 0 l 0 6 l -6 0 z M 433.8 366.40000000000003 m -3 -3 l 6 0 l 0 6 l -6 0 z M 452 367 m -3 -3 l 6 0 l 0 6 l -6 0 z M 470.20000000000005 367 m -3 -3 l 6 0 l 0 6 l -6 0 z M 488.40000000000003 361 m -3 -3 l 6 0 l 0 6 l -6 0 z M 506.8 369.8 m -3 -3 l 6 0 l 0 6 l -6 0 z M 525 370.40000000000003 m -3 -3 l 6 0 l 0 6 l -6 0 z M 543.2 370.6 m -3 -3 l 6 0 l 0 6 l -6 0 z M 561.4 370.40000000000003 m -3 -3 l 6 0 l 0 6 l -6 0 z M 579.8000000000001 378.8 m -3 -3 l 6 0 l 0 6 l -6 0 z M 598 378.20000000000005 m -3 -3 l 6 0 l 0 6 l -6 0 z M 616.2 372 m -3 -3 l 6 0 l 0 6 l -6 0 z M 634.4000000000001 374.20000000000005 m -3 -3 l 6 0 l 0 6 l -6 0 z M 652.6 373.8 m -3 -3 l 6 0 l 0 6 l -6 0 z M 671 372.20000000000005 m -3 -3 l 6 0 l 0 6 l -6 0 z M 689.2 369.40000000000003 m -3 -3 l 6 0 l 0 6 l -6 0 z M 707.4000000000001 373.40000000000003 m -3 -3 l 6 0 l 0 6 l -6 0 z M 725.6 376.40000000000003 m -3 -3 l 6 0 l 0 6 l -6 0 z M 744 378.8 m -3 -3 l 6 0 l 0 6 l -6 0 z M 762.2 378.8 m -3 -3 l 6 0 l 0 6 l -6 0 z M 780.4000000000001 376.8 m -3 -3 l 6 0 l 0 6 l -6 0 z M 798.6 376.6 m -3 -3 l 6 0 l 0 6 l -6 0 z M 817 379.20000000000005 m -3 -3 l 6 0 l 0 6 l -6 0 z M 835.2 378 m -3 -3 l 6 0 l 0 6 l -6 0 z M 853.4000000000001 386 m -3 -3 l 6 0 l 0 6 l -6 0 z M 871.6 383 m -3 -3 l 6 0 l 0 6 l -6 0 z M 889.8000000000001 382 m -3 -3 l 6 0 l 0 6 l -6 0 z "/></g></g><g><g><path stroke="rgba(5,150,0,1)" stroke-width="1" fill="none" d="M 50.6 318.6 L 68.8 319 L 87 317 L 105.4 322.8 L 123.60000000000001 322.20000000000005 L 141.8 319.6 L 160 313.40000000000003 L 178.20000000000002 318.20000000000005 L 196.60000000000002 315.20000000000005 L 214.8 319.20000000000005 L 233 313.6 L 251.20000000000002 314.20000000000005 L 269.6 320 L 287.8 319.20000000000005 L 306 314 L 324.20000000000005 314.40000000000003 L 342.6 312 L 360.8 311.40000000000003 L 379 321.6 L 397.20000000000005 324.40000000000003 L 415.40000000000003 321.6 L 433.8 322.8 L 452 319 L 470.20000000000005 321.40000000000003 L 488.40000000000003 316.6 L 506.8 324.40000000000003 L 525 321.8 L 543.2 317.40000000000003 L 561.4 321.40000000000003 L 579.8000000000001 323.8 L 598 324 L 616.2 316.6 L 634.4000000000001 322.20000000000005 L 652.6 318.8 L 671 314 L 689.2 318.20000000000005 L 707.4000000000001 316.20000000000005 L 725.6 320.40000000000003 L 744 315.20000000000005 L 762.2 325 L 780.4000000000001 322.8 L 798.6 317.40000000000003 L 817 323.6 L 835.2 321.6 L 853.4000000000001 323.6 L 871.6 319 L 889.8000000000001 323.40000000000003 "/></g><circle fill="black" r="3" display="block" cx="652.6" cy="318.8"/><g/><rect fill="white" display="block" x="657.6" y="301.8" width="2" height="14"/><text display="block" x="657.6" y="313.8"/><g><path fill="rgba(5,150,0,1)" stroke="rgba(5,150,0,1)" stroke-width="1" d="M 50.6 318.6 m -3 -3 l 6 6 m -6 0 l 6 -6 M 68.8 319 m -3 -3 l 6 6 m -6 0 l 6 -6 M 87 317 m -3 -3 l 6 6 m -6 0 l 6 -6 M 105.4 322.8 m -3 -3 l 6 6 m -6 0 l 6 -6 M 123.60000000000001 322.20000000000005 m -3 -3 l 6 6 m -6 0 l 6 -6 M 141.8 319.6 m -3 -3 l 6 6 m -6 0 l 6 -6 M 160 313.40000000000003 m -3 -3 l 6 6 m -6 0 l 6 -6 M 178.20000000000002 318.20000000000005 m -3 -3 l 6 6 m -6 0 l 6 -6 M 196.60000000000002 315.20000000000005 m -3 -3 l 6 6 m -6 0 l 6 -6 M 214.8 319.20000000000005 m -3 -3 l 6 6 m -6 0 l 6 -6 M 233 313.6 m -3 -3 l 6 6 m -6 0 l 6 -6 M 251.20000000000002 314.20000000000005 m -3 -3 l 6 6 m -6 0 l 6 -6 M 269.6 320 m -3 -3 l 6 6 m -6 0 l 6 -6 M 287.8 319.20000000000005 m -3 -3 l 6 6 m -6 0 l 6 -6 M 306 314 m -3 -3 l 6 6 m -6 0 l 6 -6 M 324.20000000000005 314.40000000000003 m -3 -3 l 6 6 m -6 0 l 6 -6 M 342.6 312 m -3 -3 l 6 6 m -6 0 l 6 -6 M 360.8 311.40000000000003 m -3 -3 l 6 6 m -6 0 l 6 -6 M 379 321.6 m -3 -3 l 6 6 m -6 0 l 6 -6 M 397.20000000000005 324.40000000000003 m -3 -3 l 6 6 m -6 0 l 6 -6 M 415.40000000000003 321.6 m -3 -3 l 6 6 m -6 0 l 6 -6 M 433.8 322.8 m -3 -3 l 6 6 m -6 0 l 6 -6 M 452 319 m -3 -3 l 6 6 m -6 0 l 6 -6 M 470.20000000000005 321.40000000000003 m -3 -3 l 6 6 m -6 0 l 6 -6 M 488.40000000000003 316.6 m -3 -3 l 6 6 m -6 0 l 6 -6 M 506.8 324.40000000000003 m -3 -3 l 6 6 m -6 0 l 6 -6 M 525 321.8 m -3 -3 l 6 6 m -6 0 l 6 -6 M 543.2 317.40000000000003 m -3 -3 l 6 6 m -6 0 l 6 -6 M 561.4 321.40000000000003 m -3 -3 l 6 6 m -6 0 l 6 -6 M 579.8000000000001 323.8 m -3 -3 l 6 6 m -6 0 l 6 -6 M 598 324 m -3 -3 l 6 6 m -6 0 l 6 -6 M 616.2 316.6 m -3 -3 l 6 6 m -6 0 l 6 -6 M 634.4000000000001 322.20000000000005 m -3 -3 l 6 6 m -6 0 l 6 -6 M 652.6 318.8 m -3 -3 l 6 6 m -6 0 l 6 -6 M 671 314 m -3 -3 l 6 6 m -6 0 l 6 -6 M 689.2 318.20000000000005 m -3 -3 l 6 6 m -6 0 l 6 -6 M 707.4000000000001 316.20000000000005 m -3 -3 l 6 6 m -6 0 l 6 -6 M 725.6 320.40000000000003 m -3 -3 l 6 6 m -6 0 l 6 -6 M 744 315.20000000000005 m -3 -3 l 6 6 m -6 0 l 6 -6 M 762.2 325 m -3 -3 l 6 6 m -6 0 l 6 -6 M 780.4000000000001 322.8 m -3 -3 l 6 6 m -6 0 l 6 -6 M 798.6 317.40000000000003 m -3 -3 l 6 6 m -6 0 l 6 -6 M 817 323.6 m -3 -3 l 6 6 m -6 0 l 6 -6 M 835.2 321.6 m -3 -3 l 6 6 m -6 0 l 6 -6 M 853.4000000000001 323.6 m -3 -3 l 6 6 m -6 0 l 6 -6 M 871.6 319 m -3 -3 l 6 6 m -6 0 l 6 -6 M 889.8000000000001 323.40000000000003 m -3 -3 l 6 6 m -6 0 l 6 -6 "/></g></g><g><g><path stroke="rgba(2,1,255,1)" stroke-width="1" fill="none" d="M 50.6 309 L 68.8 303.6 L 87 302.40000000000003 L 105.4 297.8 L 123.60000000000001 298.8 L 141.8 294 L 160 289.6 L 178.20000000000002 289 L 196.60000000000002 293.8 L 214.8 289 L 233 275.2 L 251.20000000000002 290.6 L 269.6 289.6 L 287.8 288.40000000000003 L 306 289.8 L 324.20000000000005 279.40000000000003 L 342.6 278.40000000000003 L 360.8 279.40000000000003 L 379 287.2 L 397.20000000000005 285.6 L 415.40000000000003 288.40000000000003 L 433.8 283 L 452 274.6 L 470.20000000000005 279 L 488.40000000000003 277.40000000000003 L 506.8 284 L 525 275 L 543.2 274.8 L 561.4 277.8 L 579.8000000000001 280.40000000000003 L 598 274.2 L 616.2 277.40000000000003 L 634.4000000000001 271 L 652.6 271.40000000000003 L 671 272 L 689.2 263.6 L 707.4000000000001 270.2 L 725.6 270.8 L 744 266 L 762.2 270.8 L 780.4000000000001 271.2 L 798.6 270 L 817 275 L 835.2 268 L 853.4000000000001 269.40000000000003 L 871.6 273.8 L 889.8000000000001 275.2 "/></g><circle fill="black" r="3" display="block" cx="652.6" cy="271.40000000000003"/><g/><rect fill="white" display="block" x="657.6" y="254.40000000000003" width="2" height="14"/><text display="block" x="657.6" y="266.40000000000003"/><g><path fill="rgba(2,1,255,1)" stroke="rgba(2,1,255,1)" stroke-width="1" d="M 50.6 309 m -3 0 l 6 0 m -3 -3 l 0 6 M 68.8 303.6 m -3 0 l 6 0 m -3 -3 l 0 6 M 87 302.40000000000003 m -3 0 l 6 0 m -3 -3 l 0 6 M 105.4 297.8 m -3 0 l 6 0 m -3 -3 l 0 6 M 123.60000000000001 298.8 m -3 0 l 6 0 m -3 -3 l 0 6 M 141.8 294 m -3 0 l 6 0 m -3 -3 l 0 6 M 160 289.6 m -3 0 l 6 0 m -3 -3 l 0 6 M 178.20000000000002 289 m -3 0 l 6 0 m -3 -3 l 0 6 M 196.60000000000002 293.8 m -3 0 l 6 0 m -3 -3 l 0 6 M 214.8 289 m -3 0 l 6 0 m -3 -3 l 0 6 M 233 275.2 m -3 0 l 6 0 m -3 -3 l 0 6 M 251.20000000000002 290.6 m -3 0 l 6 0 m -3 -3 l 0 6 M 269.6 289.6 m -3 0 l 6 0 m -3 -3 l 0 6 M 287.8 288.40000000000003 m -3 0 l 6 0 m -3 -3 l 0 6 M 306 289.8 m -3 0 l 6 0 m -3 -3 l 0 6 M 324.20000000000005 279.40000000000003 m -3 0 l 6 0 m -3 -3 l 0 6 M 342.6 278.40000000000003 m -3 0 l 6 0 m -3 -3 l 0 6 M 360.8 279.40000000000003 m -3 0 l 6 0 m -3 -3 l 0 6 M 379 287.2 m -3 0 l 6 0 m -3 -3 l 0 6 M 397.20000000000005 285.6 m -3 0 l 6 0 m -3 -3 l 0 6 M 415.40000000000003 288.40000000000003 m -3 0 l 6 0 m -3 -3 l 0 6 M 433.8 283 m -3 0 l 6 0 m -3 -3 l 0 6 M 452 274.6 m -3 0 l 6 0 m -3 -3 l 0 6 M 470.20000000000005 279 m -3 0 l 6 0 m -3 -3 l 0 6 M 488.40000000000003 277.40000000000003 m -3 0 l 6 0 m -3 -3 l 0 6 M 506.8 284 m -3 0 l 6 0 m -3 -3 l 0 6 M 525 275 m -3 0 l 6 0 m -3 -3 l 0 6 M 543.2 274.8 m -3 0 l 6 0 m -3 -3 l 0 6 M 561.4 277.8 m -3 0 l 6 0 m -3 -3 l 0 6 M 579.8000000000001 280.40000000000003 m -3 0 l 6 0 m -3 -3 l 0 6 M 598 274.2 m -3 0 l 6 0 m -3 -3 l 0 6 M 616.2 277.40000000000003 m -3 0 l 6 0 m -3 -3 l 0 6 M 634.4000000000001 271 m -3 0 l 6 0 m -3 -3 l 0 6 M 652.6 271.40000000000003 m -3 0 l 6 0 m -3 -3 l 0 6 M 671 272 m -3 0 l 6 0 m -3 -3 l 0 6 M 689.2 263.6 m -3 0 l 6 0 m -3 -3 l 0 6 M 707.4000000000001 270.2 m -3 0 l 6 0 m -3 -3 l 0 6 M 725.6 270.8 m -3 0 l 6 0 m -3 -3 l 0 6 M 744 266 m -3 0 l 6 0 m -3 -3 l 0 6 M 762.2 270.8 m -3 0 l 6 0 m -3 -3 l 0 6 M 780.4000000000001 271.2 m -3 0 l 6 0 m -3 -3 l 0 6 M 798.6 270 m -3 0 l 6 0 m -3 -3 l 0 6 M 817 275 m -3 0 l 6 0 m -3 -3 l 0 6 M 835.2 268 m -3 0 l 6 0 m -3 -3 l 0 6 M 853.4000000000001 269.40000000000003 m -3 0 l 6 0 m -3 -3 l 0 6 M 871.6 273.8 m -3 0 l 6 0 m -3 -3 l 0 6 M 889.8000000000001 275.2 m -3 0 l 6 0 m -3 -3 l 0 6 "/></g></g><g><g><path stroke="rgba(129,50,117,1)" stroke-width="1" fill="none" d="M 50.6 218.20000000000002 L 68.8 157 L 87 148.20000000000002 L 105.4 117.80000000000001 L 123.60000000000001 96 L 141.8 96 L 160 87.2 L 178.20000000000002 82.80000000000001 L 196.60000000000002 69.8 L 214.8 65.4 L 233 48 L 251.20000000000002 82.80000000000001 L 269.6 56.6 L 287.8 65.4 L 306 48 L 324.20000000000005 34.800000000000004 L 342.6 30.400000000000002 L 360.8 43.6 L 379 48 L 397.20000000000005 26 L 415.40000000000003 43.6 L 433.8 39.2 L 452 26 L 470.20000000000005 26 L 488.40000000000003 34.800000000000004 L 506.8 21.8 L 525 17.400000000000002 L 543.2 26 L 561.4 26 L 579.8000000000001 30.400000000000002 L 598 30.400000000000002 L 616.2 13 L 634.4000000000001 34.800000000000004 L 652.6 26 L 671 17.400000000000002 L 689.2 4.2 L 707.4000000000001 26 L 725.6 13 L 744 13 L 762.2 4.2 L 780.4000000000001 8.6 L 798.6 17.400000000000002 L 817 17.400000000000002 L 835.2 21.8 L 853.4000000000001 0 L 871.6 21.8 L 889.8000000000001 26 "/></g><circle fill="black" r="3" display="block" cx="652.6" cy="26"/><g/><rect fill="white" display="block" x="657.6" y="9" width="2" height="14"/><text display="block" x="657.6" y="21"/><g><path fill="rgba(129,50,117,1)" stroke="rgba(129,50,117,1)" stroke-width="1" d="M 50.6 218.20000000000002 m -1.5 -1.5 l 3 0 l -1.5 3 z M 68.8 157 m -1.5 -1.5 l 3 0 l -1.5 3 z M 87 148.20000000000002 m -1.5 -1.5 l 3 0 l -1.5 3 z M 105.4 117.80000000000001 m -1.5 -1.5 l 3 0 l -1.5 3 z M 123.60000000000001 96 m -1.5 -1.5 l 3 0 l -1.5 3 z M 141.8 96 m -1.5 -1.5 l 3 0 l -1.5 3 z M 160 87.2 m -1.5 -1.5 l 3 0 l -1.5 3 z M 178.20000000000002 82.80000000000001 m -1.5 -1.5 l 3 0 l -1.5 3 z M 196.60000000000002 69.8 m -1.5 -1.5 l 3 0 l -1.5 3 z M 214.8 65.4 m -1.5 -1.5 l 3 0 l -1.5 3 z M 233 48 m -1.5 -1.5 l 3 0 l -1.5 3 z M 251.20000000000002 82.80000000000001 m -1.5 -1.5 l 3 0 l -1.5 3 z M 269.6 56.6 m -1.5 -1.5 l 3 0 l -1.5 3 z M 287.8 65.4 m -1.5 -1.5 l 3 0 l -1.5 3 z M 306 48 m -1.5 -1.5 l 3 0 l -1.5 3 z M 324.20000000000005 34.800000000000004 m -1.5 -1.5 l 3 0 l -1.5 3 z M 342.6 30.400000000000002 m -1.5 -1.5 l 3 0 l -1.5 3 z M 360.8 43.6 m -1.5 -1.5 l 3 0 l -1.5 3 z M 379 48 m -1.5 -1.5 l 3 0 l -1.5 3 z M 397.20000000000005 26 m -1.5 -1.5 l 3 0 l -1.5 3 z M 415.40000000000003 43.6 m -1.5 -1.5 l 3 0 l -1.5 3 z M 433.8 39.2 m -1.5 -1.5 l 3 0 l -1.5 3 z M 452 26 m -1.5 -1.5 l 3 0 l -1.5 3 z M 470.20000000000005 26 m -1.5 -1.5 l 3 0 l -1.5 3 z M 488.40000000000003 34.800000000000004 m -1.5 -1.5 l 3 0 l -1.5 3 z M 506.8 21.8 m -1.5 -1.5 l 3 0 l -1.5 3 z M 525 17.400000000000002 m -1.5 -1.5 l 3 0 l -1.5 3 z M 543.2 26 m -1.5 -1.5 l 3 0 l -1.5 3 z M 561.4 26 m -1.5 -1.5 l 3 0 l -1.5 3 z M 579.8000000000001 30.400000000000002 m -1.5 -1.5 l 3 0 l -1.5 3 z M 598 30.400000000000002 m -1.5 -1.5 l 3 0 l -1.5 3 z M 616.2 13 m -1.5 -1.5 l 3 0 l -1.5 3 z M 634.4000000000001 34.800000000000004 m -1.5 -1.5 l 3 0 l -1.5 3 z M 652.6 26 m -1.5 -1.5 l 3 0 l -1.5 3 z M 671 17.400000000000002 m -1.5 -1.5 l 3 0 l -1.5 3 z M 689.2 4.2 m -1.5 -1.5 l 3 0 l -1.5 3 z M 707.4000000000001 26 m -1.5 -1.5 l 3 0 l -1.5 3 z M 725.6 13 m -1.5 -1.5 l 3 0 l -1.5 3 z M 744 13 m -1.5 -1.5 l 3 0 l -1.5 3 z M 762.2 4.2 m -1.5 -1.5 l 3 0 l -1.5 3 z M 780.4000000000001 8.6 m -1.5 -1.5 l 3 0 l -1.5 3 z M 798.6 17.400000000000002 m -1.5 -1.5 l 3 0 l -1.5 3 z M 817 17.400000000000002 m -1.5 -1.5 l 3 0 l -1.5 3 z M 835.2 21.8 m -1.5 -1.5 l 3 0 l -1.5 3 z M 853.4000000000001 0 m -1.5 -1.5 l 3 0 l -1.5 3 z M 871.6 21.8 m -1.5 -1.5 l 3 0 l -1.5 3 z M 889.8000000000001 26 m -1.5 -1.5 l 3 0 l -1.5 3 z "/></g></g></g><g><g clip-path="url(#_clipplot01debc8f-14ce-45d1-b698-29b8acd77494)"><rect data-label-i="0" display="initial"/><text data-label-i="0" display="initial"/></g><g clip-path="url(#_clipplot01debc8f-14ce-45d1-b698-29b8acd77494)"><rect data-label-i="0" display="initial"/><text data-label-i="0" display="initial"/></g><g clip-path="url(#_clipplot01debc8f-14ce-45d1-b698-29b8acd77494)"><rect data-label-i="0" display="initial"/><text data-label-i="0" display="initial"/></g><g clip-path="url(#_clipplot01debc8f-14ce-45d1-b698-29b8acd77494)"><rect data-label-i="0" display="initial"/><text data-label-i="0" display="initial"/></g></g></g></g><line stroke="black" shape-rendering="crispEdges" stroke-linecap="square" display="none"/><line stroke="black" shape-rendering="crispEdges" stroke-linecap="square" display="none"/><line stroke="black" shape-rendering="crispEdges" stroke-linecap="square" display="none"/><line stroke="black" shape-rendering="crispEdges" stroke-linecap="square" display="none"/></g><g><rect display="none" fill="rgba(171,12,12,0.2)" stroke="rgba(171,12,12,1)" shape-rendering="crispEdges" x="0" y="0" height="0" width="0" pointer-events="none"/></g></g><g display="block" transform="translate(321, 455.92432475090027)"><rect x="-5" y="-7.906250715255737" stroke="rgba( 100, 100, 100, 0.5 )" stroke-width="1px" rx="0" ry="0" fill="rgba( 255, 255, 255, 0.8 )" width="337.453125" height="36.98192596435547"/><symbol id="d7ad5e00-ba14-49d6-8244-289614b2d3e3" viewBox="0 -256 1850 1850"><rect pointer-events="fill" x="-256" y="0" fill="transparent" width="2106" height="1850"/><g transform="matrix(1,0,0,-1,30.372881,1259.8983)"><path d="m 1664,576 q -152,236 -381,353 61,-104 61,-225 0,-185 -131.5,-316.5 Q 1081,256 896,256 711,256 579.5,387.5 448,519 448,704 448,825 509,929 280,812 128,576 261,371 461.5,249.5 662,128 896,128 1130,128 1330.5,249.5 1531,371 1664,576 z M 944,960 q 0,20 -14,34 -14,14 -34,14 -125,0 -214.5,-89.5 Q 592,829 592,704 q 0,-20 14,-34 14,-14 34,-14 20,0 34,14 14,14 14,34 0,86 61,147 61,61 147,61 20,0 34,14 14,14 14,34 z m 848,-384 q 0,-34 -20,-69 Q 1632,277 1395.5,138.5 1159,0 896,0 633,0 396.5,139 160,278 20,507 0,542 0,576 q 0,34 20,69 140,229 376.5,368 236.5,139 499.5,139 263,0 499.5,-139 236.5,-139 376.5,-368 20,-35 20,-69 z" fill="#444444"/></g></symbol><symbol id="cd4af7bd-1113-484e-8d44-b893b5ab8557" viewBox="0 -256 1850 1850"><rect pointer-events="fill" fill="transparent" x="-256" y="0" width="2106" height="1850"/><g transform="matrix(1,0,0,-1,30.372881,1214.339)"><path d="m 555,201 78,141 q -87,63 -136,159 -49,96 -49,203 0,121 61,225 Q 280,812 128,576 295,318 555,201 z m 389,759 q 0,20 -14,34 -14,14 -34,14 -125,0 -214.5,-89.5 Q 592,829 592,704 q 0,-20 14,-34 14,-14 34,-14 20,0 34,14 14,14 14,34 0,86 61,147 61,61 147,61 20,0 34,14 14,14 14,34 z m 363,191 q 0,-7 -1,-9 Q 1201,954 991,576 781,198 675,9 l -49,-89 q -10,-16 -28,-16 -12,0 -134,70 -16,10 -16,28 0,12 44,87 Q 349,154 228.5,262 108,370 20,507 0,538 0,576 q 0,38 20,69 153,235 380,371 227,136 496,136 89,0 180,-17 l 54,97 q 10,16 28,16 5,0 18,-6 13,-6 31,-15.5 18,-9.5 33,-18.5 15,-9 31.5,-18.5 16.5,-9.5 19.5,-11.5 16,-10 16,-27 z m 37,-447 Q 1344,565 1265,450.5 1186,336 1056,286 l 280,502 q 8,-45 8,-84 z m 448,-128 q 0,-35 -20,-69 Q 1733,443 1663,362 1513,190 1315.5,95 1118,0 896,0 l 74,132 q 212,18 392.5,137 180.5,119 301.5,307 -115,179 -282,294 l 63,112 q 95,-64 182.5,-153 87.5,-89 144.5,-184 20,-34 20,-69 z" fill="#c0c0c0"/></g></symbol><g><g transform="translate( 0, 10)"><rect x="5" y="-7.90625" width="67.3125" height="16.98192596435547" fill="none" pointer-events="fill"/><line stroke="rgba(255,1,9,1)" stroke-width="1" fill="none" x1="5" x2="25" y1="0" y2="0" cursor="pointer"/><path fill="rgba(255,1,9,1)" stroke="rgba(255,1,9,1)" stroke-width="1" d="M 14 0 m -3 -3 l 6 0 l 0 6 l -6 0 z"/><use xlink:href="#d7ad5e00-ba14-49d6-8244-289614b2d3e3" width="15" height="15" x="35" y="-8"/><text cursor="pointer" transform="translate(55, 3)" color="black">red</text></g><g transform="translate( 77.3125, 10)"><rect x="5" y="-7.90625" width="80.65625" height="16.98192596435547" fill="none" pointer-events="fill"/><line stroke="rgba(5,150,0,1)" stroke-width="1" fill="none" x1="5" x2="25" y1="0" y2="0" cursor="pointer"/><path fill="rgba(5,150,0,1)" stroke="rgba(5,150,0,1)" stroke-width="1" d="M 14 0 m -3 -3 l 6 6 m -6 0 l 6 -6"/><use xlink:href="#d7ad5e00-ba14-49d6-8244-289614b2d3e3" width="15" height="15" x="35" y="-8"/><text cursor="pointer" transform="translate(55, 3)" color="black">green</text></g><g transform="translate( 167.96875, 10)"><rect x="5" y="-7.90625" width="72.65625" height="16.98192596435547" fill="none" pointer-events="fill"/><line stroke="rgba(2,1,255,1)" stroke-width="1" fill="none" x1="5" x2="25" y1="0" y2="0" cursor="pointer"/><path fill="rgba(2,1,255,1)" stroke="rgba(2,1,255,1)" stroke-width="1" d="M 14 0 m -3 0 l 6 0 m -3 -3 l 0 6"/><use xlink:href="#d7ad5e00-ba14-49d6-8244-289614b2d3e3" width="15" height="15" x="35" y="-8"/><text cursor="pointer" transform="translate(55, 3)" color="black">blue</text></g><g transform="translate( 250.625, 10)"><rect x="5" y="-7.90625" width="66.828125" height="16.98192596435547" fill="none" pointer-events="fill"/><line stroke="rgba(129,50,117,1)" stroke-width="1" fill="none" x1="5" x2="25" y1="0" y2="0" cursor="pointer"/><path fill="rgba(129,50,117,1)" stroke="rgba(129,50,117,1)" stroke-width="1" d="M 14 0 m -1.5 -1.5 l 3 0 l -1.5 3 z"/><use xlink:href="#d7ad5e00-ba14-49d6-8244-289614b2d3e3" width="15" height="15" x="35" y="-8"/><text cursor="pointer" transform="translate(55, 3)" color="black">UV</text></g></g><rect x="0" y="0" width="337.453125" height="36.98192596435547" fill="none" pointer-events="fill" display="none"/></g></svg>