<?xml version="1.0" standalone="no"?><!DOCTYPE svg PUBLIC "-//W3C//DTD SVG 1.1//EN" "http://www.w3.org/Graphics/SVG/1.1/DTD/svg11.dtd"><svg xmlns:xlink="http://www.w3.org/1999/xlink" xmlns="http://www.w3.org/2000/svg" font-family="Myriad Pro, Helvetica, Arial" font-size="12" data-jsgraph-version="v2.0.68" width="930" height="495.01136399999996"><defs><clipPath id="_clipplot01debc8f-14ce-45d1-b698-29b8acd77494" clipPathUnits="userSpaceOnUse"><rect y="0" x="54.65815353393555" width="835.3418464660645" height="386.0294380356445"/></clipPath><marker xmlns="" viewBox="0 0 10 10" id="arrow01debc8f-14ce-45d1-b698-29b8acd77494" refX="6" refY="5" markerUnits="strokeWidth" markerWidth="8" markerHeight="6" orient="auto"><path xmlns="http://www.w3.org/2000/svg" d="M 0 0 L 10 5 L 0 10 z"/></marker><marker viewBox="0 0 6 8" id="horionzalsplit_01debc8f-14ce-45d1-b698-29b8acd77494" refX="3" refY="4" markerUnits="strokeWidth" markerWidth="6" markerHeight="8"><line x1="0" y1="8" x2="6" y2="0" stroke="black"/></marker><marker viewBox="0 0 8 6" id="verticalsplit_01debc8f-14ce-45d1-b698-29b8acd77494" refX="4" refY="3" markerUnits="strokeWidth" markerWidth="8" markerHeight="6"><line x1="0" y1="0" x2="8" y2="6" stroke="black"/></marker><marker viewBox="0 0 10 10" id="verticalline01debc8f-14ce-45d1-b698-29b8acd77494" refX="0" refY="5" markerUnits="strokeWidth" markerWidth="20" markerHeight="10" orient="auto" stroke-width="1px"><path d="M 0 -10 L 0 10" stroke="black"/></marker></defs><g><rect pointer-events="fill" fill="transparent" y="30" x="74.65815353393555" width="835.3418464660645" height="386.0294380356445"/><text text-anchor="middle" y="20" x="465"/><g transform="translate(20, 30)"><g><g><g><path shape-rendering="crispEdges" stroke="#F0F0F0" stroke-width="1" stroke-opacity="undefined" clip-path="url(#_clipplot01debc8f-14ce-45d1-b698-29b8acd77494)" d="M 72.28659635316426 0 L 72.28659635316426 418.0294380356445M 90.17081328149632 0 L 90.17081328149632 418.0294380356445M 108.0550302098284 0 L 108.0550302098284 418.0294380356445M 125.93924713816047 0 L 125.93924713816047 418.0294380356445M 143.82346406649253 0 L 143.82346406649253 418.0294380356445M 161.7076809948246 0 L 161.7076809948246 418.0294380356445M 179.5918979231567 0 L 179.5918979231567 418.0294380356445M 197.47611485148875 0 L 197.47611485148875 418.0294380356445M 215.36033177982083 0 L 215.36033177982083 418.0294380356445M 251.12876563648499 0 L 251.12876563648499 418.0294380356445M 269.0129825648171 0 L 269.0129825648171 418.0294380356445M 286.8971994931492 0 L 286.8971994931492 418.0294380356445M 304.78141642148125 0 L 304.78141642148125 418.0294380356445M 322.6656333498133 0 L 322.6656333498133 418.0294380356445M 340.54985027814536 0 L 340.54985027814536 418.0294380356445M 358.43406720647744 0 L 358.43406720647744 418.0294380356445M 376.3182841348095 0 L 376.3182841348095 418.0294380356445M 394.2025010631416 0 L 394.2025010631416 418.0294380356445M 429.97093491980576 0 L 429.97093491980576 418.0294380356445M 447.8551518481378 0 L 447.8551518481378 418.0294380356445M 465.7393687764699 0 L 465.7393687764699 418.0294380356445M 483.623585704802 0 L 483.623585704802 418.0294380356445M 501.50780263313396 0 L 501.50780263313396 418.0294380356445M 519.3920195614661 0 L 519.3920195614661 418.0294380356445M 537.2762364897982 0 L 537.2762364897982 418.0294380356445M 555.1604534181303 0 L 555.1604534181303 418.0294380356445M 573.0446703464623 0 L 573.0446703464623 418.0294380356445M 608.8131042031265 0 L 608.8131042031265 418.0294380356445M 626.6973211314586 0 L 626.6973211314586 418.0294380356445M 644.5815380597907 0 L 644.5815380597907 418.0294380356445M 662.4657549881227 0 L 662.4657549881227 418.0294380356445M 680.3499719164547 0 L 680.3499719164547 418.0294380356445M 698.2341888447868 0 L 698.2341888447868 418.0294380356445M 716.1184057731189 0 L 716.1184057731189 418.0294380356445M 734.0026227014511 0 L 734.0026227014511 418.0294380356445M 751.8868396297831 0 L 751.8868396297831 418.0294380356445M 787.6552734864472 0 L 787.6552734864472 418.0294380356445M 805.5394904147793 0 L 805.5394904147793 418.0294380356445M 823.4237073431113 0 L 823.4237073431113 418.0294380356445M 841.3079242714434 0 L 841.3079242714434 418.0294380356445M 859.1921411997755 0 L 859.1921411997755 418.0294380356445M 877.0763581281076 0 L 877.0763581281076 418.0294380356445"/><path shape-rendering="crispEdges" stroke="#F0F0F0" stroke-width="1" stroke-opacity="undefined" clip-path="url(#_clipplot01debc8f-14ce-45d1-b698-29b8acd77494)" d="M 0 383.7554696208405 L 890 383.7554696208405M 0 375.9861317720062 L 890 375.9861317720062M 0 368.21679392317196 L 890 368.21679392317196M 0 360.4474560743377 L 890 360.4474560743377M 0 344.90878037666926 L 890 344.90878037666926M 0 337.13944252783506 L 890 337.13944252783506M 0 329.37010467900075 L 890 329.37010467900075M 0 321.60076683016655 L 890 321.60076683016655M 0 313.8314289813323 L 890 313.8314289813323M 0 306.06209113249804 L 890 306.06209113249804M 0 298.2927532836638 L 890 298.2927532836638M 0 290.52341543482953 L 890 290.52341543482953M 0 282.75407758599533 L 890 282.75407758599533M 0 267.2154018883269 L 890 267.2154018883269M 0 259.4460640394926 L 890 259.4460640394926M 0 251.67672619065837 L 890 251.67672619065837M 0 243.90738834182415 L 890 243.90738834182415M 0 236.1380504929899 L 890 236.1380504929899M 0 228.36871264415564 L 890 228.36871264415564M 0 220.5993747953214 L 890 220.5993747953214M 0 212.83003694648718 L 890 212.83003694648718M 0 205.06069909765293 L 890 205.06069909765293M 0 197.29136124881867 L 890 197.29136124881867M 0 189.52202339998442 L 890 189.52202339998442M 0 181.7526855511502 L 890 181.7526855511502M 0 173.98334770231597 L 890 173.98334770231597M 0 166.2140098534817 L 890 166.2140098534817M 0 158.4446720046475 L 890 158.4446720046475M 0 150.67533415581323 L 890 150.67533415581323M 0 142.90599630697898 L 890 142.90599630697898M 0 135.13665845814472 L 890 135.13665845814472M 0 127.36732060931047 L 890 127.36732060931047M 0 119.59798276047627 L 890 119.59798276047627M 0 111.82864491164202 L 890 111.82864491164202M 0 104.05930706280776 L 890 104.05930706280776M 0 96.28996921397356 L 890 96.28996921397356M 0 88.52063136513925 L 890 88.52063136513925M 0 80.75129351630505 L 890 80.75129351630505M 0 72.98195566747074 L 890 72.98195566747074M 0 65.21261781863655 L 890 65.21261781863655M 0 57.44327996980229 L 890 57.44327996980229M 0 49.673942120968036 L 890 49.673942120968036M 0 34.13526642329958 L 890 34.13526642329958M 0 26.36592857446533 L 890 26.36592857446533M 0 18.596590725631074 L 890 18.596590725631074M 0 10.82725287679682 L 890 10.82725287679682M 0 3.057915027962565 L 890 3.057915027962565"/></g><g><path shape-rendering="crispEdges" stroke="#DADADA" stroke-width="1" stroke-opacity="undefined" clip-path="url(#_clipplot01debc8f-14ce-45d1-b698-29b8acd77494)" d="M 233.24454870815293 0 L 233.24454870815293 418.0294380356445M 412.0867179914737 0 L 412.0867179914737 418.0294380356445M 590.9288872747943 0 L 590.9288872747943 418.0294380356445M 769.7710565581151 0 L 769.7710565581151 418.0294380356445"/><path shape-rendering="crispEdges" stroke="#DADADA" stroke-width="1" stroke-opacity="undefined" clip-path="url(#_clipplot01debc8f-14ce-45d1-b698-29b8acd77494)" d="M 0 352.6781182255035 L 890 352.6781182255035M 0 274.98473973716114 L 890 274.98473973716114M 0 197.29136124881867 L 890 197.29136124881867M 0 119.59798276047627 L 890 119.59798276047627M 0 41.90460427213384 L 890 41.90460427213384"/></g></g><g transform="translate(0 386.0294380356445)"><rect pointer-events="fill" fill="transparent"/><g><line y1="0" y2="-2" stroke="black" display="visible" x1="72.28659635316426" x2="72.28659635316426"/><line y1="0" y2="-2" stroke="black" display="visible" x1="90.17081328149632" x2="90.17081328149632"/><line y1="0" y2="-2" stroke="black" display="visible" x1="108.0550302098284" x2="108.0550302098284"/><line y1="0" y2="-2" stroke="black" display="visible" x1="125.93924713816047" x2="125.93924713816047"/><line y1="0" y2="-4" stroke="black" display="visible" x1="143.82346406649253" x2="143.82346406649253"/><line y1="0" y2="-2" stroke="black" display="visible" x1="161.7076809948246" x2="161.7076809948246"/><line y1="0" y2="-2" stroke="black" display="visible" x1="179.5918979231567" x2="179.5918979231567"/><line y1="0" y2="-2" stroke="black" display="visible" x1="197.47611485148875" x2="197.47611485148875"/><line y1="0" y2="-2" stroke="black" display="visible" x1="215.36033177982083" x2="215.36033177982083"/><line y1="0" y2="-6" stroke="black" display="visible" x1="233.24454870815293" x2="233.24454870815293"/><line y1="0" y2="-2" stroke="black" display="visible" x1="251.12876563648499" x2="251.12876563648499"/><line y1="0" y2="-2" stroke="black" display="visible" x1="269.0129825648171" x2="269.0129825648171"/><line y1="0" y2="-2" stroke="black" display="visible" x1="286.8971994931492" x2="286.8971994931492"/><line y1="0" y2="-2" stroke="black" display="visible" x1="304.78141642148125" x2="304.78141642148125"/><line y1="0" y2="-4" stroke="black" display="visible" x1="322.6656333498133" x2="322.6656333498133"/><line y1="0" y2="-2" stroke="black" display="visible" x1="340.54985027814536" x2="340.54985027814536"/><line y1="0" y2="-2" stroke="black" display="visible" x1="358.43406720647744" x2="358.43406720647744"/><line y1="0" y2="-2" stroke="black" display="visible" x1="376.3182841348095" x2="376.3182841348095"/><line y1="0" y2="-2" stroke="black" display="visible" x1="394.2025010631416" x2="394.2025010631416"/><line y1="0" y2="-2" stroke="black" display="visible" x1="429.97093491980576" x2="429.97093491980576"/><line y1="0" y2="-6" stroke="black" display="visible" x1="412.0867179914737" x2="412.0867179914737"/><line y1="0" y2="-2" stroke="black" display="visible" x1="447.8551518481378" x2="447.8551518481378"/><line y1="0" y2="-2" stroke="black" display="visible" x1="465.7393687764699" x2="465.7393687764699"/><line y1="0" y2="-2" stroke="black" display="visible" x1="483.623585704802" x2="483.623585704802"/><line y1="0" y2="-2" stroke="black" display="visible" x1="519.3920195614661" x2="519.3920195614661"/><line y1="0" y2="-4" stroke="black" display="visible" x1="501.50780263313396" x2="501.50780263313396"/><line y1="0" y2="-2" stroke="black" display="visible" x1="537.2762364897982" x2="537.2762364897982"/><line y1="0" y2="-2" stroke="black" display="visible" x1="555.1604534181303" x2="555.1604534181303"/><line y1="0" y2="-2" stroke="black" display="visible" x1="573.0446703464623" x2="573.0446703464623"/><line y1="0" y2="-2" stroke="black" display="visible" x1="608.8131042031265" x2="608.8131042031265"/><line y1="0" y2="-2" stroke="black" display="visible" x1="626.6973211314586" x2="626.6973211314586"/><line y1="0" y2="-6" stroke="black" display="visible" x1="590.9288872747943" x2="590.9288872747943"/><line y1="0" y2="-2" stroke="black" display="visible" x1="644.5815380597907" x2="644.5815380597907"/><line y1="0" y2="-2" stroke="black" display="visible" x1="662.4657549881227" x2="662.4657549881227"/><line y1="0" y2="-2" stroke="black" display="visible" x1="698.2341888447868" x2="698.2341888447868"/><line y1="0" y2="-2" stroke="black" display="visible" x1="716.1184057731189" x2="716.1184057731189"/><line y1="0" y2="-4" stroke="black" display="visible" x1="680.3499719164547" x2="680.3499719164547"/><line y1="0" y2="-2" stroke="black" display="visible" x1="734.0026227014511" x2="734.0026227014511"/><line y1="0" y2="-2" stroke="black" display="visible" x1="751.8868396297831" x2="751.8868396297831"/><line y1="0" y2="-2" stroke="black" display="visible" x1="787.6552734864472" x2="787.6552734864472"/><line y1="0" y2="-2" stroke="black" display="visible" x1="805.5394904147793" x2="805.5394904147793"/><line y1="0" y2="-6" stroke="black" display="visible" x1="769.7710565581151" x2="769.7710565581151"/><line y1="0" y2="-6" stroke="black" display="none" x1="533.6988856450581" x2="533.6988856450581"/><line y1="0" y2="-2" stroke="black" display="visible" x1="823.4237073431113" x2="823.4237073431113"/><line y1="0" y2="-2" stroke="black" display="visible" x1="841.3079242714434" x2="841.3079242714434"/><line y1="0" y2="-4" stroke="black" display="visible" x1="859.1921411997755" x2="859.1921411997755"/><line y1="0" y2="-2" stroke="black" display="visible" x1="877.0763581281076" x2="877.0763581281076"/><line y1="0" y2="-2" stroke="black" display="none" x1="523.6665347882674" x2="523.6665347882674"/><line y1="0" y2="-2" stroke="black" display="none" x1="543.7312365018488" x2="543.7312365018488"/><line y1="0" y2="-2" stroke="black" display="none" x1="553.7635873586395" x2="553.7635873586395"/><line y1="0" y2="-2" stroke="black" display="none" x1="563.7959382154303" x2="563.7959382154303"/><line y1="0" y2="-2" stroke="black" display="none" x1="573.828289072221" x2="573.828289072221"/><line y1="0" y2="-2" stroke="black" display="none" x1="593.8929907858026" x2="593.8929907858026"/><line y1="0" y2="-2" stroke="black" display="none" x1="603.9253416425933" x2="603.9253416425933"/><line y1="0" y2="-2" stroke="black" display="none" x1="613.9576924993839" x2="613.9576924993839"/><line y1="0" y2="-4" stroke="black" display="none" x1="583.8606399290118" x2="583.8606399290118"/><line y1="0" y2="-2" stroke="black" display="none" x1="623.9900433561747" x2="623.9900433561747"/><line y1="0" y2="-2" stroke="black" display="none" x1="644.0547450697561" x2="644.0547450697561"/><line y1="0" y2="-2" stroke="black" display="none" x1="654.0870959265469" x2="654.0870959265469"/><line y1="0" y2="-2" stroke="black" display="none" x1="664.1194467833376" x2="664.1194467833376"/><line y1="0" y2="-2" stroke="black" display="none" x1="674.1517976401284" x2="674.1517976401284"/><line y1="0" y2="-2" stroke="black" display="none" x1="694.2164993537099" x2="694.2164993537099"/><line y1="0" y2="-2" stroke="black" display="none" x1="704.2488502105006" x2="704.2488502105006"/><line y1="0" y2="-2" stroke="black" display="none" x1="714.2812010672914" x2="714.2812010672914"/><line y1="0" y2="-2" stroke="black" display="none" x1="724.313551924082" x2="724.313551924082"/><line y1="0" y2="-4" stroke="black" display="none" x1="684.1841484969192" x2="684.1841484969192"/><line y1="0" y2="-2" stroke="black" display="none" x1="744.3782536376635" x2="744.3782536376635"/><line y1="0" y2="-2" stroke="black" display="none" x1="754.4106044944542" x2="754.4106044944542"/><line y1="0" y2="-6" stroke="black" display="none" x1="634.0223942129654" x2="634.0223942129654"/><line y1="0" y2="-2" stroke="black" display="none" x1="764.442955351245" x2="764.442955351245"/><line y1="0" y2="-2" stroke="black" display="none" x1="774.4753062080358" x2="774.4753062080358"/><line y1="0" y2="-4" stroke="black" display="none" x1="784.5076570648265" x2="784.5076570648265"/><line y1="0" y2="-2" stroke="black" display="none" x1="794.5400079216172" x2="794.5400079216172"/><line y1="0" y2="-2" stroke="black" display="none" x1="804.572358778408" x2="804.572358778408"/><line y1="0" y2="-2" stroke="black" display="none" x1="814.6047096351987" x2="814.6047096351987"/><line y1="0" y2="-2" stroke="black" display="none" x1="824.6370604919894" x2="824.6370604919894"/><line y1="0" y2="-6" stroke="black" display="none" x1="734.3459027808727" x2="734.3459027808727"/><line y1="0" y2="-2" stroke="black" display="none" x1="844.7017622055708" x2="844.7017622055708"/><line y1="0" y2="-2" stroke="black" display="none" x1="854.7341130623616" x2="854.7341130623616"/><line y1="0" y2="-2" stroke="black" display="none" x1="864.7664639191524" x2="864.7664639191524"/><line y1="0" y2="-2" stroke="black" display="none" x1="874.7988147759431" x2="874.7988147759431"/><line y1="0" y2="-4" stroke="black" display="none" x1="884.8311656327338" x2="884.8311656327338"/><line y1="0" y2="-6" stroke="black" display="none" x1="834.6694113487802" x2="834.6694113487802"/></g><g><text y="8" text-anchor="middle" display="visible" x="233.24454870815293" style="dominant-baseline: hanging;">100</text><text y="8" text-anchor="middle" display="visible" x="412.0867179914737" style="dominant-baseline: hanging;">200</text><text y="8" text-anchor="middle" display="visible" x="590.9288872747943" style="dominant-baseline: hanging;">300</text><text y="8" text-anchor="middle" display="visible" x="769.7710565581151" style="dominant-baseline: hanging;">400</text><text y="8" text-anchor="middle" display="none" x="533.6988856450581" style="dominant-baseline: hanging;">1000</text><text y="8" text-anchor="middle" display="none" x="634.0223942129654" style="dominant-baseline: hanging;">1200</text><text y="8" text-anchor="middle" display="none" x="734.3459027808727" style="dominant-baseline: hanging;">1400</text><text y="8" text-anchor="middle" display="none" x="834.6694113487802" style="dominant-baseline: hanging;">1600</text></g><line stroke="black" shape-rendering="crispEdges" stroke-linecap="square" display="block" x1="54.65815353393555" x2="890" y1="0" y2="0" marker-start="" marker-end=""/><text text-anchor="middle" fill="undefined" style="display: initial;" x="472.3290767669678" y="22"><tspan style="dominant-baseline: hanging;">Time (min)</tspan><tspan display="none" style="dominant-baseline: hanging;"/><tspan dx="6" display="none" style="dominant-baseline: hanging;"/><tspan dy="-5" font-size="0.8em" display="none" style="dominant-baseline: hanging;"/></text><g/></g><g transform="translate( 54.65815353393555 0 )"><rect pointer-events="fill" fill="transparent"/><g><line x1="0" x2="4" stroke="black" display="visible" y1="313.8314289813323" y2="313.8314289813323"/><line x1="0" x2="4" stroke="black" display="visible" y1="236.1380504929899" y2="236.1380504929899"/><line x1="0" x2="4" stroke="black" display="visible" y1="158.4446720046475" y2="158.4446720046475"/><line x1="0" x2="4" stroke="black" display="visible" y1="80.75129351630505" y2="80.75129351630505"/><line x1="0" x2="4" stroke="black" display="visible" y1="3.057915027962565" y2="3.057915027962565"/><line x1="0" x2="4" stroke="black" display="none" y1="55.700596257499086" y2="55.700596257499086"/><line x1="0" x2="4" stroke="black" display="none" y1="17.18652082379569" y2="17.18652082379569"/><line x1="0" x2="4" stroke="black" display="none" y1="12.907179108939772" y2="12.907179108939772"/><line x1="0" x2="4" stroke="black" display="none" y1="16.92741725162432" y2="16.92741725162432"/><line x1="0" x2="4" stroke="black" display="none" y1="11.345084988696271" y2="11.345084988696271"/><line x1="0" x2="4" stroke="black" display="none" y1="5.762752725768252" y2="5.762752725768252"/><line x1="0" x2="4" stroke="black" display="none" y1="0.1804204628402033" y2="0.1804204628402033"/><line x1="0" x2="4" stroke="black" display="none" y1="119.56749625999961" y2="119.56749625999961"/><line x1="0" x2="4" stroke="black" display="none" y1="115.9530885946749" y2="115.9530885946749"/><line x1="0" x2="4" stroke="black" display="none" y1="112.3386809293502" y2="112.3386809293502"/><line x1="0" x2="6" stroke="black" display="visible" y1="352.6781182255035" y2="352.6781182255035"/><line x1="0" x2="4" stroke="black" display="none" y1="105.10986559870078" y2="105.10986559870078"/><line x1="0" x2="4" stroke="black" display="none" y1="101.49545793337606" y2="101.49545793337606"/><line x1="0" x2="4" stroke="black" display="none" y1="97.88105026805134" y2="97.88105026805134"/><line x1="0" x2="4" stroke="black" display="none" y1="94.26664260272663" y2="94.26664260272663"/><line x1="0" x2="4" stroke="black" display="none" y1="90.65223493740193" y2="90.65223493740193"/><line x1="0" x2="4" stroke="black" display="none" y1="87.03782727207722" y2="87.03782727207722"/><line x1="0" x2="4" stroke="black" display="none" y1="83.42341960675252" y2="83.42341960675252"/><line x1="0" x2="4" stroke="black" display="none" y1="79.8090119414278" y2="79.8090119414278"/><line x1="0" x2="4" stroke="black" display="none" y1="76.1946042761031" y2="76.1946042761031"/><line x1="0" x2="6" stroke="black" display="visible" y1="274.98473973716114" y2="274.98473973716114"/><line x1="0" x2="4" stroke="black" display="none" y1="68.96578894545367" y2="68.96578894545367"/><line x1="0" x2="4" stroke="black" display="none" y1="65.35138128012896" y2="65.35138128012896"/><line x1="0" x2="4" stroke="black" display="none" y1="61.73697361480427" y2="61.73697361480427"/><line x1="0" x2="4" stroke="black" display="none" y1="58.12256594947955" y2="58.12256594947955"/><line x1="0" x2="4" stroke="black" display="none" y1="54.50815828415482" y2="54.50815828415482"/><line x1="0" x2="4" stroke="black" display="none" y1="50.89375061883011" y2="50.89375061883011"/><line x1="0" x2="4" stroke="black" display="none" y1="47.27934295350539" y2="47.27934295350539"/><line x1="0" x2="4" stroke="black" display="none" y1="43.66493528818066" y2="43.66493528818066"/><line x1="0" x2="4" stroke="black" display="none" y1="40.05052762285595" y2="40.05052762285595"/><line x1="0" x2="6" stroke="black" display="visible" y1="197.29136124881867" y2="197.29136124881867"/><line x1="0" x2="6" stroke="black" display="visible" y1="119.59798276047627" y2="119.59798276047627"/><line x1="0" x2="4" stroke="black" display="none" y1="32.82171229220657" y2="32.82171229220657"/><line x1="0" x2="4" stroke="black" display="none" y1="29.207304626881836" y2="29.207304626881836"/><line x1="0" x2="4" stroke="black" display="none" y1="25.592896961557102" y2="25.592896961557102"/><line x1="0" x2="4" stroke="black" display="none" y1="21.978489296232397" y2="21.978489296232397"/><line x1="0" x2="4" stroke="black" display="none" y1="18.36408163090769" y2="18.36408163090769"/><line x1="0" x2="4" stroke="black" display="none" y1="14.749673965582957" y2="14.749673965582957"/><line x1="0" x2="4" stroke="black" display="none" y1="11.135266300258252" y2="11.135266300258252"/><line x1="0" x2="4" stroke="black" display="none" y1="7.520858634933518" y2="7.520858634933518"/><line x1="0" x2="4" stroke="black" display="none" y1="3.906450969608784" y2="3.906450969608784"/><line x1="0" x2="6" stroke="black" display="visible" y1="41.90460427213384" y2="41.90460427213384"/><line x1="0" x2="2" stroke="black" display="visible" y1="383.7554696208405" y2="383.7554696208405"/><line x1="0" x2="2" stroke="black" display="visible" y1="375.9861317720062" y2="375.9861317720062"/><line x1="0" x2="2" stroke="black" display="visible" y1="368.21679392317196" y2="368.21679392317196"/><line x1="0" x2="2" stroke="black" display="visible" y1="360.4474560743377" y2="360.4474560743377"/><line x1="0" x2="2" stroke="black" display="visible" y1="344.90878037666926" y2="344.90878037666926"/><line x1="0" x2="2" stroke="black" display="visible" y1="337.13944252783506" y2="337.13944252783506"/><line x1="0" x2="2" stroke="black" display="visible" y1="329.37010467900075" y2="329.37010467900075"/><line x1="0" x2="2" stroke="black" display="visible" y1="321.60076683016655" y2="321.60076683016655"/><line x1="0" x2="2" stroke="black" display="visible" y1="306.06209113249804" y2="306.06209113249804"/><line x1="0" x2="2" stroke="black" display="visible" y1="298.2927532836638" y2="298.2927532836638"/><line x1="0" x2="2" stroke="black" display="visible" y1="290.52341543482953" y2="290.52341543482953"/><line x1="0" x2="2" stroke="black" display="visible" y1="282.75407758599533" y2="282.75407758599533"/><line x1="0" x2="2" stroke="black" display="visible" y1="267.2154018883269" y2="267.2154018883269"/><line x1="0" x2="2" stroke="black" display="visible" y1="259.4460640394926" y2="259.4460640394926"/><line x1="0" x2="2" stroke="black" display="visible" y1="251.67672619065837" y2="251.67672619065837"/><line x1="0" x2="2" stroke="black" display="visible" y1="243.90738834182415" y2="243.90738834182415"/><line x1="0" x2="2" stroke="black" display="visible" y1="228.36871264415564" y2="228.36871264415564"/><line x1="0" x2="2" stroke="black" display="visible" y1="220.5993747953214" y2="220.5993747953214"/><line x1="0" x2="2" stroke="black" display="visible" y1="212.83003694648718" y2="212.83003694648718"/><line x1="0" x2="2" stroke="black" display="visible" y1="205.06069909765293" y2="205.06069909765293"/><line x1="0" x2="2" stroke="black" display="visible" y1="197.29136124881867" y2="197.29136124881867"/><line x1="0" x2="2" stroke="black" display="visible" y1="189.52202339998442" y2="189.52202339998442"/><line x1="0" x2="2" stroke="black" display="visible" y1="181.7526855511502" y2="181.7526855511502"/><line x1="0" x2="2" stroke="black" display="visible" y1="173.98334770231597" y2="173.98334770231597"/><line x1="0" x2="2" stroke="black" display="visible" y1="166.2140098534817" y2="166.2140098534817"/><line x1="0" x2="2" stroke="black" display="visible" y1="150.67533415581323" y2="150.67533415581323"/><line x1="0" x2="2" stroke="black" display="visible" y1="142.90599630697898" y2="142.90599630697898"/><line x1="0" x2="2" stroke="black" display="visible" y1="135.13665845814472" y2="135.13665845814472"/><line x1="0" x2="2" stroke="black" display="visible" y1="127.36732060931047" y2="127.36732060931047"/><line x1="0" x2="2" stroke="black" display="visible" y1="119.59798276047627" y2="119.59798276047627"/><line x1="0" x2="2" stroke="black" display="visible" y1="111.82864491164202" y2="111.82864491164202"/><line x1="0" x2="2" stroke="black" display="visible" y1="104.05930706280776" y2="104.05930706280776"/><line x1="0" x2="2" stroke="black" display="visible" y1="96.28996921397356" y2="96.28996921397356"/><line x1="0" x2="2" stroke="black" display="visible" y1="88.52063136513925" y2="88.52063136513925"/><line x1="0" x2="2" stroke="black" display="visible" y1="72.98195566747074" y2="72.98195566747074"/><line x1="0" x2="2" stroke="black" display="visible" y1="65.21261781863655" y2="65.21261781863655"/><line x1="0" x2="2" stroke="black" display="visible" y1="57.44327996980229" y2="57.44327996980229"/><line x1="0" x2="2" stroke="black" display="visible" y1="49.673942120968036" y2="49.673942120968036"/><line x1="0" x2="2" stroke="black" display="visible" y1="34.13526642329958" y2="34.13526642329958"/><line x1="0" x2="2" stroke="black" display="visible" y1="26.36592857446533" y2="26.36592857446533"/><line x1="0" x2="2" stroke="black" display="visible" y1="18.596590725631074" y2="18.596590725631074"/><line x1="0" x2="2" stroke="black" display="visible" y1="10.82725287679682" y2="10.82725287679682"/></g><g><text x="-5" text-anchor="end" display="visible" y="352.6781182255035" style="dominant-baseline: central;">-0.4</text><text x="-5" text-anchor="end" display="visible" y="274.98473973716114" style="dominant-baseline: central;">-0.2</text><text x="-5" text-anchor="end" display="visible" y="197.29136124881867" style="dominant-baseline: central;">-0.0</text><text x="-5" text-anchor="end" display="visible" y="119.59798276047627" style="dominant-baseline: central;">0.2</text><text x="-5" text-anchor="end" display="visible" y="41.90460427213384" style="dominant-baseline: central;">0.4</text></g><line stroke="black" shape-rendering="crispEdges" stroke-linecap="square" display="block" y1="386.0294380356445" y2="0" x1="0" x2="0" marker-start="" marker-end=""/><text text-anchor="middle" transform="translate(-42.65815353393555, 193.01471901782224) rotate(-90)" fill="undefined" dominant-baseline="auto"><tspan>Variation (%)</tspan><tspan display="none"/><tspan dx="6" display="none"/><tspan dy="-5" font-size="0.8em" display="none"/></text><g/></g></g><g><g data-layer="1"><g><g><g><path stroke="rgba(255,1,9,1)" stroke-width="1" fill="none" d="M 54.6 191 L 72.8 228.60000000000002 L 90.80000000000001 215 L 109 208.20000000000002 L 127.2 194 L 145.4 186 L 163.60000000000002 176.60000000000002 L 181.60000000000002 169.8 L 199.8 161 L 218 158.20000000000002 L 236.20000000000002 143 L 254.4 135 L 272.40000000000003 125.80000000000001 L 290.6 114 L 308.8 91.60000000000001 L 327 102.2 L 345.20000000000005 94 L 363.20000000000005 94.60000000000001 L 381.40000000000003 86.4 L 399.6 81.80000000000001 L 417.8 71.8 L 436 61.6 L 454 55.2 L 472.20000000000005 51.2 L 490.40000000000003 51 L 508.6 50 L 526.8000000000001 40.6 L 544.8000000000001 36.4 L 563 35.4 L 581.2 29.6 L 599.4 30.200000000000003 L 617.6 22.400000000000002 L 635.6 22 L 653.8000000000001 16.400000000000002 L 672 21.200000000000003 L 690.2 16.8 L 708.4000000000001 16.6 L 726.4000000000001 13.4 L 744.6 13.600000000000001 L 762.8000000000001 11.4 L 781 7.800000000000001 L 799.2 8.4 L 817.2 8 L 835.4000000000001 1 L 853.6 0.6000000000000001 L 871.8000000000001 0.2 L 889.8000000000001 0 "/></g><circle fill="black" r="3" display="block" cx="635.6" cy="22"/><g/><rect fill="white" display="block" x="640.6" y="5" width="2" height="14"/><text display="block" x="640.6" y="17"/><g><path fill="rgba(255,1,9,1)" stroke="rgba(255,1,9,1)" stroke-width="1" d="M 54.6 191 m -3 -3 l 6 0 l 0 6 l -6 0 z M 72.8 228.60000000000002 m -3 -3 l 6 0 l 0 6 l -6 0 z M 90.80000000000001 215 m -3 -3 l 6 0 l 0 6 l -6 0 z M 109 208.20000000000002 m -3 -3 l 6 0 l 0 6 l -6 0 z M 127.2 194 m -3 -3 l 6 0 l 0 6 l -6 0 z M 145.4 186 m -3 -3 l 6 0 l 0 6 l -6 0 z M 163.60000000000002 176.60000000000002 m -3 -3 l 6 0 l 0 6 l -6 0 z M 181.60000000000002 169.8 m -3 -3 l 6 0 l 0 6 l -6 0 z M 199.8 161 m -3 -3 l 6 0 l 0 6 l -6 0 z M 218 158.20000000000002 m -3 -3 l 6 0 l 0 6 l -6 0 z M 236.20000000000002 143 m -3 -3 l 6 0 l 0 6 l -6 0 z M 254.4 135 m -3 -3 l 6 0 l 0 6 l -6 0 z M 272.40000000000003 125.80000000000001 m -3 -3 l 6 0 l 0 6 l -6 0 z M 290.6 114 m -3 -3 l 6 0 l 0 6 l -6 0 z M 308.8 91.60000000000001 m -3 -3 l 6 0 l 0 6 l -6 0 z M 327 102.2 m -3 -3 l 6 0 l 0 6 l -6 0 z M 345.20000000000005 94 m -3 -3 l 6 0 l 0 6 l -6 0 z M 363.20000000000005 94.60000000000001 m -3 -3 l 6 0 l 0 6 l -6 0 z M 381.40000000000003 86.4 m -3 -3 l 6 0 l 0 6 l -6 0 z M 399.6 81.80000000000001 m -3 -3 l 6 0 l 0 6 l -6 0 z M 417.8 71.8 m -3 -3 l 6 0 l 0 6 l -6 0 z M 436 61.6 m -3 -3 l 6 0 l 0 6 l -6 0 z M 454 55.2 m -3 -3 l 6 0 l 0 6 l -6 0 z M 472.20000000000005 51.2 m -3 -3 l 6 0 l 0 6 l -6 0 z M 490.40000000000003 51 m -3 -3 l 6 0 l 0 6 l -6 0 z M 508.6 50 m -3 -3 l 6 0 l 0 6 l -6 0 z M 526.8000000000001 40.6 m -3 -3 l 6 0 l 0 6 l -6 0 z M 544.8000000000001 36.4 m -3 -3 l 6 0 l 0 6 l -6 0 z M 563 35.4 m -3 -3 l 6 0 l 0 6 l -6 0 z M 581.2 29.6 m -3 -3 l 6 0 l 0 6 l -6 0 z M 599.4 30.200000000000003 m -3 -3 l 6 0 l 0 6 l -6 0 z M 617.6 22.400000000000002 m -3 -3 l 6 0 l 0 6 l -6 0 z M 635.6 22 m -3 -3 l 6 0 l 0 6 l -6 0 z M 653.8000000000001 16.400000000000002 m -3 -3 l 6 0 l 0 6 l -6 0 z M 672 21.200000000000003 m -3 -3 l 6 0 l 0 6 l -6 0 z M 690.2 16.8 m -3 -3 l 6 0 l 0 6 l -6 0 z M 708.4000000000001 16.6 m -3 -3 l 6 0 l 0 6 l -6 0 z M 726.4000000000001 13.4 m -3 -3 l 6 0 l 0 6 l -6 0 z M 744.6 13.600000000000001 m -3 -3 l 6 0 l 0 6 l -6 0 z M 762.8000000000001 11.4 m -3 -3 l 6 0 l 0 6 l -6 0 z M 781 7.800000000000001 m -3 -3 l 6 0 l 0 6 l -6 0 z M 799.2 8.4 m -3 -3 l 6 0 l 0 6 l -6 0 z M 817.2 8 m -3 -3 l 6 0 l 0 6 l -6 0 z M 835.4000000000001 1 m -3 -3 l 6 0 l 0 6 l -6 0 z M 853.6 0.6000000000000001 m -3 -3 l 6 0 l 0 6 l -6 0 z M 871.8000000000001 0.2 m -3 -3 l 6 0 l 0 6 l -6 0 z M 889.8000000000001 0 m -3 -3 l 6 0 l 0 6 l -6 0 z "/></g></g><g><g><path stroke="rgba(5,150,0,1)" stroke-width="1" fill="none" d="M 54.6 192.60000000000002 L 72.8 212.8 L 90.80000000000001 219.8 L 109 223.8 L 127.2 220.20000000000002 L 145.4 221.8 L 163.60000000000002 220.60000000000002 L 181.60000000000002 221 L 199.8 219.20000000000002 L 218 223.8 L 236.20000000000002 212.20000000000002 L 254.4 218.8 L 272.40000000000003 217.4 L 290.6 218.20000000000002 L 308.8 207.8 L 327 219.4 L 345.20000000000005 224.8 L 363.20000000000005 228.60000000000002 L 381.40000000000003 231.8 L 399.6 235.8 L 417.8 232 L 436 225.8 L 454 226.4 L 472.20000000000005 226.8 L 490.40000000000003 229.8 L 508.6 233.4 L 526.8000000000001 224 L 544.8000000000001 225 L 563 224 L 581.2 223 L 599.4 228.20000000000002 L 617.6 222.60000000000002 L 635.6 220.60000000000002 L 653.8000000000001 219.20000000000002 L 672 224.20000000000002 L 690.2 222.60000000000002 L 708.4000000000001 221.60000000000002 L 726.4000000000001 220.20000000000002 L 744.6 223 L 762.8000000000001 225.20000000000002 L 781 228.60000000000002 L 799.2 227 L 817.2 228.8 L 835.4000000000001 226.4 L 853.6 231 L 871.8000000000001 233.20000000000002 L 889.8000000000001 231.60000000000002 "/></g><circle fill="black" r="3" display="block" cx="635.6" cy="220.60000000000002"/><g/><rect fill="white" display="block" x="640.6" y="203.60000000000002" width="2" height="14"/><text display="block" x="640.6" y="215.60000000000002"/><g><path fill="rgba(5,150,0,1)" stroke="rgba(5,150,0,1)" stroke-width="1" d="M 54.6 192.60000000000002 m -3 -3 l 6 6 m -6 0 l 6 -6 M 72.8 212.8 m -3 -3 l 6 6 m -6 0 l 6 -6 M 90.80000000000001 219.8 m -3 -3 l 6 6 m -6 0 l 6 -6 M 109 223.8 m -3 -3 l 6 6 m -6 0 l 6 -6 M 127.2 220.20000000000002 m -3 -3 l 6 6 m -6 0 l 6 -6 M 145.4 221.8 m -3 -3 l 6 6 m -6 0 l 6 -6 M 163.60000000000002 220.60000000000002 m -3 -3 l 6 6 m -6 0 l 6 -6 M 181.60000000000002 221 m -3 -3 l 6 6 m -6 0 l 6 -6 M 199.8 219.20000000000002 m -3 -3 l 6 6 m -6 0 l 6 -6 M 218 223.8 m -3 -3 l 6 6 m -6 0 l 6 -6 M 236.20000000000002 212.20000000000002 m -3 -3 l 6 6 m -6 0 l 6 -6 M 254.4 218.8 m -3 -3 l 6 6 m -6 0 l 6 -6 M 272.40000000000003 217.4 m -3 -3 l 6 6 m -6 0 l 6 -6 M 290.6 218.20000000000002 m -3 -3 l 6 6 m -6 0 l 6 -6 M 308.8 207.8 m -3 -3 l 6 6 m -6 0 l 6 -6 M 327 219.4 m -3 -3 l 6 6 m -6 0 l 6 -6 M 345.20000000000005 224.8 m -3 -3 l 6 6 m -6 0 l 6 -6 M 363.20000000000005 228.60000000000002 m -3 -3 l 6 6 m -6 0 l 6 -6 M 381.40000000000003 231.8 m -3 -3 l 6 6 m -6 0 l 6 -6 M 399.6 235.8 m -3 -3 l 6 6 m -6 0 l 6 -6 M 417.8 232 m -3 -3 l 6 6 m -6 0 l 6 -6 M 436 225.8 m -3 -3 l 6 6 m -6 0 l 6 -6 M 454 226.4 m -3 -3 l 6 6 m -6 0 l 6 -6 M 472.20000000000005 226.8 m -3 -3 l 6 6 m -6 0 l 6 -6 M 490.40000000000003 229.8 m -3 -3 l 6 6 m -6 0 l 6 -6 M 508.6 233.4 m -3 -3 l 6 6 m -6 0 l 6 -6 M 526.8000000000001 224 m -3 -3 l 6 6 m -6 0 l 6 -6 M 544.8000000000001 225 m -3 -3 l 6 6 m -6 0 l 6 -6 M 563 224 m -3 -3 l 6 6 m -6 0 l 6 -6 M 581.2 223 m -3 -3 l 6 6 m -6 0 l 6 -6 M 599.4 228.20000000000002 m -3 -3 l 6 6 m -6 0 l 6 -6 M 617.6 222.60000000000002 m -3 -3 l 6 6 m -6 0 l 6 -6 M 635.6 220.60000000000002 m -3 -3 l 6 6 m -6 0 l 6 -6 M 653.8000000000001 219.20000000000002 m -3 -3 l 6 6 m -6 0 l 6 -6 M 672 224.20000000000002 m -3 -3 l 6 6 m -6 0 l 6 -6 M 690.2 222.60000000000002 m -3 -3 l 6 6 m -6 0 l 6 -6 M 708.4000000000001 221.60000000000002 m -3 -3 l 6 6 m -6 0 l 6 -6 M 726.4000000000001 220.20000000000002 m -3 -3 l 6 6 m -6 0 l 6 -6 M 744.6 223 m -3 -3 l 6 6 m -6 0 l 6 -6 M 762.8000000000001 225.20000000000002 m -3 -3 l 6 6 m -6 0 l 6 -6 M 781 228.60000000000002 m -3 -3 l 6 6 m -6 0 l 6 -6 M 799.2 227 m -3 -3 l 6 6 m -6 0 l 6 -6 M 817.2 228.8 m -3 -3 l 6 6 m -6 0 l 6 -6 M 835.4000000000001 226.4 m -3 -3 l 6 6 m -6 0 l 6 -6 M 853.6 231 m -3 -3 l 6 6 m -6 0 l 6 -6 M 871.8000000000001 233.20000000000002 m -3 -3 l 6 6 m -6 0 l 6 -6 M 889.8000000000001 231.60000000000002 m -3 -3 l 6 6 m -6 0 l 6 -6 "/></g></g><g><g><path stroke="rgba(2,1,255,1)" stroke-width="1" fill="none" d="M 54.6 190.60000000000002 L 72.8 210.60000000000002 L 90.80000000000001 228.4 L 109 239.4 L 127.2 232.8 L 145.4 235 L 163.60000000000002 245.20000000000002 L 181.60000000000002 251.60000000000002 L 199.8 253.4 L 218 267.40000000000003 L 236.20000000000002 257.40000000000003 L 254.4 261.2 L 272.40000000000003 271.2 L 290.6 269.2 L 308.8 257.2 L 327 285.40000000000003 L 345.20000000000005 292 L 363.20000000000005 300.8 L 381.40000000000003 317.40000000000003 L 399.6 323 L 417.8 319 L 436 316.40000000000003 L 454 321.20000000000005 L 472.20000000000005 323.8 L 490.40000000000003 329.8 L 508.6 333.40000000000003 L 526.8000000000001 322.6 L 544.8000000000001 334.8 L 563 329 L 581.2 333 L 599.4 343.8 L 617.6 334.8 L 635.6 339.6 L 653.8000000000001 338.40000000000003 L 672 342.40000000000003 L 690.2 348 L 708.4000000000001 349.20000000000005 L 726.4000000000001 347.40000000000003 L 744.6 357.6 L 762.8000000000001 355.8 L 781 362.40000000000003 L 799.2 369.6 L 817.2 371.40000000000003 L 835.4000000000001 370.6 L 853.6 380.20000000000005 L 871.8000000000001 386 L 889.8000000000001 380 "/></g><circle fill="black" r="3" display="block" cx="635.6" cy="339.6"/><g/><rect fill="white" display="block" x="640.6" y="322.6" width="2" height="14"/><text display="block" x="640.6" y="334.6"/><g><path fill="rgba(2,1,255,1)" stroke="rgba(2,1,255,1)" stroke-width="1" d="M 54.6 190.60000000000002 m -3 0 l 6 0 m -3 -3 l 0 6 M 72.8 210.60000000000002 m -3 0 l 6 0 m -3 -3 l 0 6 M 90.80000000000001 228.4 m -3 0 l 6 0 m -3 -3 l 0 6 M 109 239.4 m -3 0 l 6 0 m -3 -3 l 0 6 M 127.2 232.8 m -3 0 l 6 0 m -3 -3 l 0 6 M 145.4 235 m -3 0 l 6 0 m -3 -3 l 0 6 M 163.60000000000002 245.20000000000002 m -3 0 l 6 0 m -3 -3 l 0 6 M 181.60000000000002 251.60000000000002 m -3 0 l 6 0 m -3 -3 l 0 6 M 199.8 253.4 m -3 0 l 6 0 m -3 -3 l 0 6 M 218 267.40000000000003 m -3 0 l 6 0 m -3 -3 l 0 6 M 236.20000000000002 257.40000000000003 m -3 0 l 6 0 m -3 -3 l 0 6 M 254.4 261.2 m -3 0 l 6 0 m -3 -3 l 0 6 M 272.40000000000003 271.2 m -3 0 l 6 0 m -3 -3 l 0 6 M 290.6 269.2 m -3 0 l 6 0 m -3 -3 l 0 6 M 308.8 257.2 m -3 0 l 6 0 m -3 -3 l 0 6 M 327 285.40000000000003 m -3 0 l 6 0 m -3 -3 l 0 6 M 345.20000000000005 292 m -3 0 l 6 0 m -3 -3 l 0 6 M 363.20000000000005 300.8 m -3 0 l 6 0 m -3 -3 l 0 6 M 381.40000000000003 317.40000000000003 m -3 0 l 6 0 m -3 -3 l 0 6 M 399.6 323 m -3 0 l 6 0 m -3 -3 l 0 6 M 417.8 319 m -3 0 l 6 0 m -3 -3 l 0 6 M 436 316.40000000000003 m -3 0 l 6 0 m -3 -3 l 0 6 M 454 321.20000000000005 m -3 0 l 6 0 m -3 -3 l 0 6 M 472.20000000000005 323.8 m -3 0 l 6 0 m -3 -3 l 0 6 M 490.40000000000003 329.8 m -3 0 l 6 0 m -3 -3 l 0 6 M 508.6 333.40000000000003 m -3 0 l 6 0 m -3 -3 l 0 6 M 526.8000000000001 322.6 m -3 0 l 6 0 m -3 -3 l 0 6 M 544.8000000000001 334.8 m -3 0 l 6 0 m -3 -3 l 0 6 M 563 329 m -3 0 l 6 0 m -3 -3 l 0 6 M 581.2 333 m -3 0 l 6 0 m -3 -3 l 0 6 M 599.4 343.8 m -3 0 l 6 0 m -3 -3 l 0 6 M 617.6 334.8 m -3 0 l 6 0 m -3 -3 l 0 6 M 635.6 339.6 m -3 0 l 6 0 m -3 -3 l 0 6 M 653.8000000000001 338.40000000000003 m -3 0 l 6 0 m -3 -3 l 0 6 M 672 342.40000000000003 m -3 0 l 6 0 m -3 -3 l 0 6 M 690.2 348 m -3 0 l 6 0 m -3 -3 l 0 6 M 708.4000000000001 349.20000000000005 m -3 0 l 6 0 m -3 -3 l 0 6 M 726.4000000000001 347.40000000000003 m -3 0 l 6 0 m -3 -3 l 0 6 M 744.6 357.6 m -3 0 l 6 0 m -3 -3 l 0 6 M 762.8000000000001 355.8 m -3 0 l 6 0 m -3 -3 l 0 6 M 781 362.40000000000003 m -3 0 l 6 0 m -3 -3 l 0 6 M 799.2 369.6 m -3 0 l 6 0 m -3 -3 l 0 6 M 817.2 371.40000000000003 m -3 0 l 6 0 m -3 -3 l 0 6 M 835.4000000000001 370.6 m -3 0 l 6 0 m -3 -3 l 0 6 M 853.6 380.20000000000005 m -3 0 l 6 0 m -3 -3 l 0 6 M 871.8000000000001 386 m -3 0 l 6 0 m -3 -3 l 0 6 M 889.8000000000001 380 m -3 0 l 6 0 m -3 -3 l 0 6 "/></g></g><g><g><path stroke="rgba(129,50,117,1)" stroke-width="1" fill="none" d="M 54.6 89 L 72.8 169.20000000000002 L 90.80000000000001 183.20000000000002 L 109 204.20000000000002 L 127.2 190.20000000000002 L 145.4 193.60000000000002 L 163.60000000000002 207.60000000000002 L 181.60000000000002 221.60000000000002 L 199.8 221.60000000000002 L 218 246 L 236.20000000000002 225.20000000000002 L 254.4 228.60000000000002 L 272.40000000000003 228.60000000000002 L 290.6 235.60000000000002 L 308.8 218.20000000000002 L 327 260 L 345.20000000000005 281 L 363.20000000000005 270.6 L 381.40000000000003 298.40000000000003 L 399.6 305.40000000000003 L 417.8 302 L 436 295 L 454 291.6 L 472.20000000000005 316 L 490.40000000000003 316 L 508.6 319.40000000000003 L 526.8000000000001 305.40000000000003 L 544.8000000000001 316 L 563 298.40000000000003 L 581.2 291.6 L 599.4 305.40000000000003 L 617.6 302 L 635.6 298.40000000000003 L 653.8000000000001 295 L 672 302 L 690.2 295 L 708.4000000000001 305.40000000000003 L 726.4000000000001 298.40000000000003 L 744.6 302 L 762.8000000000001 288 L 781 298.40000000000003 L 799.2 302 L 817.2 305.40000000000003 L 835.4000000000001 298.40000000000003 L 853.6 305.40000000000003 L 871.8000000000001 302 L 889.8000000000001 295 "/></g><circle fill="black" r="3" display="block" cx="635.6" cy="298.40000000000003"/><g/><rect fill="white" display="block" x="640.6" y="281.40000000000003" width="2" height="14"/><text display="block" x="640.6" y="293.40000000000003"/><g><path fill="rgba(129,50,117,1)" stroke="rgba(129,50,117,1)" stroke-width="1" d="M 54.6 89 m -1.5 -1.5 l 3 0 l -1.5 3 z M 72.8 169.20000000000002 m -1.5 -1.5 l 3 0 l -1.5 3 z M 90.80000000000001 183.20000000000002 m -1.5 -1.5 l 3 0 l -1.5 3 z M 109 204.20000000000002 m -1.5 -1.5 l 3 0 l -1.5 3 z M 127.2 190.20000000000002 m -1.5 -1.5 l 3 0 l -1.5 3 z M 145.4 193.60000000000002 m -1.5 -1.5 l 3 0 l -1.5 3 z M 163.60000000000002 207.60000000000002 m -1.5 -1.5 l 3 0 l -1.5 3 z M 181.60000000000002 221.60000000000002 m -1.5 -1.5 l 3 0 l -1.5 3 z M 199.8 221.60000000000002 m -1.5 -1.5 l 3 0 l -1.5 3 z M 218 246 m -1.5 -1.5 l 3 0 l -1.5 3 z M 236.20000000000002 225.20000000000002 m -1.5 -1.5 l 3 0 l -1.5 3 z M 254.4 228.60000000000002 m -1.5 -1.5 l 3 0 l -1.5 3 z M 272.40000000000003 228.60000000000002 m -1.5 -1.5 l 3 0 l -1.5 3 z M 290.6 235.60000000000002 m -1.5 -1.5 l 3 0 l -1.5 3 z M 308.8 218.20000000000002 m -1.5 -1.5 l 3 0 l -1.5 3 z M 327 260 m -1.5 -1.5 l 3 0 l -1.5 3 z M 345.20000000000005 281 m -1.5 -1.5 l 3 0 l -1.5 3 z M 363.20000000000005 270.6 m -1.5 -1.5 l 3 0 l -1.5 3 z M 381.40000000000003 298.40000000000003 m -1.5 -1.5 l 3 0 l -1.5 3 z M 399.6 305.40000000000003 m -1.5 -1.5 l 3 0 l -1.5 3 z M 417.8 302 m -1.5 -1.5 l 3 0 l -1.5 3 z M 436 295 m -1.5 -1.5 l 3 0 l -1.5 3 z M 454 291.6 m -1.5 -1.5 l 3 0 l -1.5 3 z M 472.20000000000005 316 m -1.5 -1.5 l 3 0 l -1.5 3 z M 490.40000000000003 316 m -1.5 -1.5 l 3 0 l -1.5 3 z M 508.6 319.40000000000003 m -1.5 -1.5 l 3 0 l -1.5 3 z M 526.8000000000001 305.40000000000003 m -1.5 -1.5 l 3 0 l -1.5 3 z M 544.8000000000001 316 m -1.5 -1.5 l 3 0 l -1.5 3 z M 563 298.40000000000003 m -1.5 -1.5 l 3 0 l -1.5 3 z M 581.2 291.6 m -1.5 -1.5 l 3 0 l -1.5 3 z M 599.4 305.40000000000003 m -1.5 -1.5 l 3 0 l -1.5 3 z M 617.6 302 m -1.5 -1.5 l 3 0 l -1.5 3 z M 635.6 298.40000000000003 m -1.5 -1.5 l 3 0 l -1.5 3 z M 653.8000000000001 295 m -1.5 -1.5 l 3 0 l -1.5 3 z M 672 302 m -1.5 -1.5 l 3 0 l -1.5 3 z M 690.2 295 m -1.5 -1.5 l 3 0 l -1.5 3 z M 708.4000000000001 305.40000000000003 m -1.5 -1.5 l 3 0 l -1.5 3 z M 726.4000000000001 298.40000000000003 m -1.5 -1.5 l 3 0 l -1.5 3 z M 744.6 302 m -1.5 -1.5 l 3 0 l -1.5 3 z M 762.8000000000001 288 m -1.5 -1.5 l 3 0 l -1.5 3 z M 781 298.40000000000003 m -1.5 -1.5 l 3 0 l -1.5 3 z M 799.2 302 m -1.5 -1.5 l 3 0 l -1.5 3 z M 817.2 305.40000000000003 m -1.5 -1.5 l 3 0 l -1.5 3 z M 835.4000000000001 298.40000000000003 m -1.5 -1.5 l 3 0 l -1.5 3 z M 853.6 305.40000000000003 m -1.5 -1.5 l 3 0 l -1.5 3 z M 871.8000000000001 302 m -1.5 -1.5 l 3 0 l -1.5 3 z M 889.8000000000001 295 m -1.5 -1.5 l 3 0 l -1.5 3 z "/></g></g></g><g><g clip-path="url(#_clipplot01debc8f-14ce-45d1-b698-29b8acd77494)"><rect data-label-i="0" display="initial"/><text data-label-i="0" display="initial"/></g><g clip-path="url(#_clipplot01debc8f-14ce-45d1-b698-29b8acd77494)"><rect data-label-i="0" display="initial"/><text data-label-i="0" display="initial"/></g><g clip-path="url(#_clipplot01debc8f-14ce-45d1-b698-29b8acd77494)"><rect data-label-i="0" display="initial"/><text data-label-i="0" display="initial"/></g><g clip-path="url(#_clipplot01debc8f-14ce-45d1-b698-29b8acd77494)"><rect data-label-i="0" display="initial"/><text data-label-i="0" display="initial"/></g></g></g></g><line stroke="black" shape-rendering="crispEdges" stroke-linecap="square" display="none"/><line stroke="black" shape-rendering="crispEdges" stroke-linecap="square" display="none"/><line stroke="black" shape-rendering="crispEdges" stroke-linecap="square" display="none"/><line stroke="black" shape-rendering="crispEdges" stroke-linecap="square" display="none"/></g><g><rect display="none" fill="rgba(171,12,12,0.2)" stroke="rgba(171,12,12,1)" shape-rendering="crispEdges" x="0" y="0" height="0" width="0" pointer-events="none"/></g></g><g display="block" transform="translate(323, 455.92432475090027)"><rect x="-5" y="-7.906250715255737" stroke="rgba( 100, 100, 100, 0.5 )" stroke-width="1px" rx="0" ry="0" fill="rgba( 255, 255, 255, 0.8 )" width="337.453125" height="36.98192596435547"/><symbol id="d7ad5e00-ba14-49d6-8244-289614b2d3e3" viewBox="0 -256 1850 1850"><rect pointer-events="fill" x="-256" y="0" fill="transparent" width="2106" height="1850"/><g transform="matrix(1,0,0,-1,30.372881,1259.8983)"><path d="m 1664,576 q -152,236 -381,353 61,-104 61,-225 0,-185 -131.5,-316.5 Q 1081,256 896,256 711,256 579.5,387.5 448,519 448,704 448,825 509,929 280,812 128,576 261,371 461.5,249.5 662,128 896,128 1130,128 1330.5,249.5 1531,371 1664,576 z M 944,960 q 0,20 -14,34 -14,14 -34,14 -125,0 -214.5,-89.5 Q 592,829 592,704 q 0,-20 14,-34 14,-14 34,-14 20,0 34,14 14,14 14,34 0,86 61,147 61,61 147,61 20,0 34,14 14,14 14,34 z m 848,-384 q 0,-34 -20,-69 Q 1632,277 1395.5,138.5 1159,0 896,0 633,0 396.5,139 160,278 20,507 0,542 0,576 q 0,34 20,69 140,229 376.5,368 236.5,139 499.5,139 263,0 499.5,-139 236.5,-139 376.5,-368 20,-35 20,-69 z" fill="#444444"/></g></symbol><symbol id="cd4af7bd-1113-484e-8d44-b893b5ab8557" viewBox="0 -256 1850 1850"><rect pointer-events="fill" fill="transparent" x="-256" y="0" width="2106" height="1850"/><g transform="matrix(1,0,0,-1,30.372881,1214.339)"><path d="m 555,201 78,141 q -87,63 -136,159 -49,96 -49,203 0,121 61,225 Q 280,812 128,576 295,318 555,201 z m 389,759 q 0,20 -14,34 -14,14 -34,14 -125,0 -214.5,-89.5 Q 592,829 592,704 q 0,-20 14,-34 14,-14 34,-14 20,0 34,14 14,14 14,34 0,86 61,147 61,61 147,61 20,0 34,14 14,14 14,34 z m 363,191 q 0,-7 -1,-9 Q 1201,954 991,576 781,198 675,9 l -49,-89 q -10,-16 -28,-16 -12,0 -134,70 -16,10 -16,28 0,12 44,87 Q 349,154 228.5,262 108,370 20,507 0,538 0,576 q 0,38 20,69 153,235 380,371 227,136 496,136 89,0 180,-17 l 54,97 q 10,16 28,16 5,0 18,-6 13,-6 31,-15.5 18,-9.5 33,-18.5 15,-9 31.5,-18.5 16.5,-9.5 19.5,-11.5 16,-10 16,-27 z m 37,-447 Q 1344,565 1265,450.5 1186,336 1056,286 l 280,502 q 8,-45 8,-84 z m 448,-128 q 0,-35 -20,-69 Q 1733,443 1663,362 1513,190 1315.5,95 1118,0 896,0 l 74,132 q 212,18 392.5,137 180.5,119 301.5,307 -115,179 -282,294 l 63,112 q 95,-64 182.5,-153 87.5,-89 144.5,-184 20,-34 20,-69 z" fill="#c0c0c0"/></g></symbol><g><g transform="translate( 0, 10)"><rect x="5" y="-7.90625" width="67.3125" height="16.98192596435547" fill="none" pointer-events="fill"/><line stroke="rgba(255,1,9,1)" stroke-width="1" fill="none" x1="5" x2="25" y1="0" y2="0" cursor="pointer"/><path fill="rgba(255,1,9,1)" stroke="rgba(255,1,9,1)" stroke-width="1" d="M 14 0 m -3 -3 l 6 0 l 0 6 l -6 0 z"/><use xlink:href="#d7ad5e00-ba14-49d6-8244-289614b2d3e3" width="15" height="15" x="35" y="-8"/><text cursor="pointer" transform="translate(55, 3)" color="black">red</text></g><g transform="translate( 77.3125, 10)"><rect x="5" y="-7.90625" width="80.65625" height="16.98192596435547" fill="none" pointer-events="fill"/><line stroke="rgba(5,150,0,1)" stroke-width="1" fill="none" x1="5" x2="25" y1="0" y2="0" cursor="pointer"/><path fill="rgba(5,150,0,1)" stroke="rgba(5,150,0,1)" stroke-width="1" d="M 14 0 m -3 -3 l 6 6 m -6 0 l 6 -6"/><use xlink:href="#d7ad5e00-ba14-49d6-8244-289614b2d3e3" width="15" height="15" x="35" y="-8"/><text cursor="pointer" transform="translate(55, 3)" color="black">green</text></g><g transform="translate( 167.96875, 10)"><rect x="5" y="-7.90625" width="72.65625" height="16.98192596435547" fill="none" pointer-events="fill"/><line stroke="rgba(2,1,255,1)" stroke-width="1" fill="none" x1="5" x2="25" y1="0" y2="0" cursor="pointer"/><path fill="rgba(2,1,255,1)" stroke="rgba(2,1,255,1)" stroke-width="1" d="M 14 0 m -3 0 l 6 0 m -3 -3 l 0 6"/><use xlink:href="#d7ad5e00-ba14-49d6-8244-289614b2d3e3" width="15" height="15" x="35" y="-8"/><text cursor="pointer" transform="translate(55, 3)" color="black">blue</text></g><g transform="translate( 250.625, 10)"><rect x="5" y="-7.90625" width="66.828125" height="16.98192596435547" fill="none" pointer-events="fill"/><line stroke="rgba(129,50,117,1)" stroke-width="1" fill="none" x1="5" x2="25" y1="0" y2="0" cursor="pointer"/><path fill="rgba(129,50,117,1)" stroke="rgba(129,50,117,1)" stroke-width="1" d="M 14 0 m -1.5 -1.5 l 3 0 l -1.5 3 z"/><use xlink:href="#d7ad5e00-ba14-49d6-8244-289614b2d3e3" width="15" height="15" x="35" y="-8"/><text cursor="pointer" transform="translate(55, 3)" color="black">UV</text></g></g><rect x="0" y="0" width="337.453125" height="36.98192596435547" fill="none" pointer-events="fill" display="none"/></g></svg>