  0
SECTION
  2
HEADER
  9
$ACADVER
  1
AC1009
  9
$EXTMIN
 10
0.0
 20
0.0
 30
0.0
  9
$EXTMAX
 10
1000.0
 20
1000.0
 30
0.0
  9
$FILLMODE
 70
 0
  9
$SPLFRAME
 70
 1
  0
ENDSEC
  0
SECTION
  2
TABLES
  0
TABLE
  2
LAYER
 70
1
  0
LAYER
  2
0
 70
     0
 62
     7
  6
CONTINUOUS
  0
ENDTAB
  0
ENDSEC
  0
SECTION
  2
ENTITIES
  0
LINE
  8
0
 62
     204
 10
1.29536
 20
14.3385
 30
0.0
 11
1.17409
 21
14.3798
 31
0.0
  0
LINE
  8
0
 62
     204
 10
1.17409
 20
14.3798
 30
0.0
 11
0.609092
 21
14.7891
 31
0.0
  0
LINE
  8
0
 62
     204
 10
0.609092
 20
14.7891
 30
0.0
 11
0.183279
 21
15.3844
 31
0.0
  0
LINE
  8
0
 62
     204
 10
0.183279
 20
15.3844
 30
0.0
 11
0.13367
 21
15.5167
 31
0.0
  0
LINE
  8
0
 62
     204
 10
0.13367
 20
15.5167
 30
0.0
 11
0.0771701
 21
15.6656
 31
0.0
  0
LINE
  8
0
 62
     204
 10
0.0771701
 20
15.6656
 30
0.0
 11
0.00275608
 21
16.1478
 31
0.0
  0
LINE
  8
0
 62
     204
 10
0.00275608
 20
16.1478
 30
0.0
 11
0.0633899
 21
16.7762
 31
0.0
  0
LINE
  8
0
 62
     204
 10
0.0633899
 20
16.7762
 30
0.0
 11
0.304546
 21
17.3523
 31
0.0
  0
LINE
  8
0
 62
     204
 10
0.304546
 20
17.3523
 30
0.0
 11
0.593933
 21
17.7243
 31
0.0
  0
LINE
  8
0
 62
     204
 10
0.593933
 20
17.7243
 30
0.0
 11
0.712445
 21
17.8208
 31
0.0
  0
LINE
  8
0
 62
     204
 10
0.712445
 20
17.8208
 30
0.0
 11
0.759298
 21
17.8608
 31
0.0
  0
LINE
  8
0
 62
     204
 10
0.759298
 20
17.8608
 30
0.0
 11
0.906748
 21
17.9765
 31
0.0
  0
LINE
  8
0
 62
     204
 10
0.906748
 20
17.9765
 30
0.0
 11
1.09692
 21
18.0923
 31
0.0
  0
LINE
  8
0
 62
     204
 10
1.09692
 20
18.0923
 30
0.0
 11
1.34497
 21
18.1749
 31
0.0
  0
LINE
  8
0
 62
     204
 10
1.34497
 20
18.1749
 30
0.0
 11
1.70739
 21
18.2301
 31
0.0
  0
LINE
  8
0
 62
     204
 10
1.70739
 20
18.2301
 30
0.0
 11
2.24482
 21
18.2618
 31
0.0
  0
LINE
  8
0
 62
     204
 10
2.24482
 20
18.2618
 30
0.0
 11
3.01653
 21
18.2783
 31
0.0
  0
LINE
  8
0
 62
     204
 10
3.01653
 20
18.2783
 30
0.0
 11
4.08037
 21
18.2838
 31
0.0
  0
LINE
  8
0
 62
     204
 10
4.08037
 20
18.2838
 30
0.0
 11
5.14283
 21
18.2838
 31
0.0
  0
LINE
  8
0
 62
     204
 10
5.14283
 20
18.2838
 30
0.0
 11
5.49836
 21
18.2838
 31
0.0
  0
LINE
  8
0
 62
     204
 10
5.49836
 20
18.2838
 30
0.0
 11
5.92282
 21
18.2838
 31
0.0
  0
LINE
  8
0
 62
     204
 10
5.92282
 20
18.2838
 30
0.0
 11
7.20027
 21
18.2893
 31
0.0
  0
LINE
  8
0
 62
     204
 10
7.20027
 20
18.2893
 30
0.0
 11
8.45012
 21
18.3031
 31
0.0
  0
LINE
  8
0
 62
     204
 10
8.45012
 20
18.3031
 30
0.0
 11
9.24387
 21
18.3265
 31
0.0
  0
LINE
  8
0
 62
     204
 10
9.24387
 20
18.3265
 30
0.0
 11
9.54155
 21
18.3458
 31
0.0
  0
LINE
  8
0
 62
     204
 10
9.54155
 20
18.3458
 30
0.0
 11
9.5746
 21
18.3582
 31
0.0
  0
LINE
  8
0
 62
     204
 10
9.5746
 20
18.3582
 30
0.0
 11
9.64075
 21
18.3844
 31
0.0
  0
LINE
  8
0
 62
     204
 10
9.64075
 20
18.3844
 30
0.0
 11
9.97977
 21
18.6325
 31
0.0
  0
LINE
  8
0
 62
     204
 10
9.97977
 20
18.6325
 30
0.0
 11
10.2416
 21
18.9673
 31
0.0
  0
LINE
  8
0
 62
     204
 10
10.2416
 20
18.9673
 30
0.0
 11
10.2719
 21
19.0348
 31
0.0
  0
LINE
  8
0
 62
     204
 10
10.2719
 20
19.0348
 30
0.0
 11
10.2912
 21
19.0817
 31
0.0
  0
LINE
  8
0
 62
     204
 10
10.2912
 20
19.0817
 30
0.0
 11
10.3201
 21
19.4235
 31
0.0
  0
LINE
  8
0
 62
     204
 10
10.3201
 20
19.4235
 30
0.0
 11
10.3491
 21
20.519
 31
0.0
  0
LINE
  8
0
 62
     204
 10
10.3491
 20
20.519
 30
0.0
 11
10.3642
 21
22.6412
 31
0.0
  0
LINE
  8
0
 62
     204
 10
10.3642
 20
22.6412
 30
0.0
 11
10.3684
 21
25.2402
 31
0.0
  0
LINE
  8
0
 62
     204
 10
10.3684
 20
25.2402
 30
0.0
 11
10.3684
 21
26.1056
 31
0.0
  0
LINE
  8
0
 62
     204
 10
10.3684
 20
26.1056
 30
0.0
 11
10.3684
 21
32.9489
 31
0.0
  0
LINE
  8
0
 62
     204
 10
10.3684
 20
32.9489
 30
0.0
 11
10.5958
 21
32.7863
 31
0.0
  0
LINE
  8
0
 62
     204
 10
10.5958
 20
32.7863
 30
0.0
 11
10.6426
 21
32.7532
 31
0.0
  0
LINE
  8
0
 62
     204
 10
10.6426
 20
32.7532
 30
0.0
 11
10.9031
 21
32.6499
 31
0.0
  0
LINE
  8
0
 62
     204
 10
10.9031
 20
32.6499
 30
0.0
 11
11.344
 21
32.6058
 31
0.0
  0
LINE
  8
0
 62
     204
 10
11.344
 20
32.6058
 30
0.0
 11
11.4832
 21
32.6003
 31
0.0
  0
LINE
  8
0
 62
     204
 10
11.4832
 20
32.6003
 30
0.0
 11
11.6858
 21
32.5934
 31
0.0
  0
LINE
  8
0
 62
     204
 10
11.6858
 20
32.5934
 30
0.0
 11
12.321
 21
32.468
 31
0.0
  0
LINE
  8
0
 62
     204
 10
12.321
 20
32.468
 30
0.0
 11
12.6339
 21
32.1386
 31
0.0
  0
LINE
  8
0
 62
     204
 10
12.6339
 20
32.1386
 30
0.0
 11
12.6766
 21
32.0284
 31
0.0
  0
LINE
  8
0
 62
     204
 10
12.6766
 20
32.0284
 30
0.0
 11
12.7661
 21
31.7927
 31
0.0
  0
LINE
  8
0
 62
     204
 10
12.7661
 20
31.7927
 30
0.0
 11
13.1658
 21
31.1326
 31
0.0
  0
LINE
  8
0
 62
     204
 10
13.1658
 20
31.1326
 30
0.0
 11
13.8865
 21
30.3223
 31
0.0
  0
LINE
  8
0
 62
     204
 10
13.8865
 20
30.3223
 30
0.0
 11
14.7657
 21
29.6623
 31
0.0
  0
LINE
  8
0
 62
     204
 10
14.7657
 20
29.6623
 30
0.0
 11
15.4809
 21
29.2999
 31
0.0
  0
LINE
  8
0
 62
     204
 10
15.4809
 20
29.2999
 30
0.0
 11
15.7331
 21
29.2199
 31
0.0
  0
LINE
  8
0
 62
     204
 10
15.7331
 20
29.2199
 30
0.0
 11
15.9177
 21
29.1621
 31
0.0
  0
LINE
  8
0
 62
     204
 10
15.9177
 20
29.1621
 30
0.0
 11
17.0367
 21
29.0242
 31
0.0
  0
LINE
  8
0
 62
     204
 10
17.0367
 20
29.0242
 30
0.0
 11
18.1805
 21
29.0973
 31
0.0
  0
LINE
  8
0
 62
     204
 10
18.1805
 20
29.0973
 30
0.0
 11
18.3789
 21
29.1441
 31
0.0
  0
LINE
  8
0
 62
     204
 10
18.3789
 20
29.1441
 30
0.0
 11
18.7496
 21
29.2337
 31
0.0
  0
LINE
  8
0
 62
     204
 10
18.7496
 20
29.2337
 30
0.0
 11
19.8079
 21
29.7367
 31
0.0
  0
LINE
  8
0
 62
     204
 10
19.8079
 20
29.7367
 30
0.0
 11
20.96
 21
30.7178
 31
0.0
  0
LINE
  8
0
 62
     204
 10
20.96
 20
30.7178
 30
0.0
 11
21.7579
 21
31.9994
 31
0.0
  0
LINE
  8
0
 62
     204
 10
21.7579
 20
31.9994
 30
0.0
 11
22.0941
 21
33.1129
 31
0.0
  0
LINE
  8
0
 62
     204
 10
22.0941
 20
33.1129
 30
0.0
 11
22.1244
 21
33.4905
 31
0.0
  0
LINE
  8
0
 62
     204
 10
22.1244
 20
33.4905
 30
0.0
 11
22.1354
 21
33.6366
 31
0.0
  0
LINE
  8
0
 62
     204
 10
22.1354
 20
33.6366
 30
0.0
 11
22.2512
 21
34.0996
 31
0.0
  0
LINE
  8
0
 62
     204
 10
22.2512
 20
34.0996
 30
0.0
 11
22.4689
 21
34.2718
 31
0.0
  0
LINE
  8
0
 62
     204
 10
22.4689
 20
34.2718
 30
0.0
 11
22.5419
 21
34.2718
 31
0.0
  0
LINE
  8
0
 62
     204
 10
22.5419
 20
34.2718
 30
0.0
 11
22.6095
 21
34.2718
 31
0.0
  0
LINE
  8
0
 62
     204
 10
22.6095
 20
34.2718
 30
0.0
 11
22.8148
 21
34.0982
 31
0.0
  0
LINE
  8
0
 62
     204
 10
22.8148
 20
34.0982
 30
0.0
 11
22.9209
 21
33.7578
 31
0.0
  0
LINE
  8
0
 62
     204
 10
22.9209
 20
33.7578
 30
0.0
 11
22.9209
 21
33.6434
 31
0.0
  0
LINE
  8
0
 62
     204
 10
22.9209
 20
33.6434
 30
0.0
 11
22.9209
 21
33.5125
 31
0.0
  0
LINE
  8
0
 62
     204
 10
22.9209
 20
33.5125
 30
0.0
 11
23.0932
 21
32.6402
 31
0.0
  0
LINE
  8
0
 62
     204
 10
23.0932
 20
32.6402
 30
0.0
 11
23.4211
 21
31.7321
 31
0.0
  0
LINE
  8
0
 62
     204
 10
23.4211
 20
31.7321
 30
0.0
 11
23.5011
 21
31.5819
 31
0.0
  0
LINE
  8
0
 62
     204
 10
23.5011
 20
31.5819
 30
0.0
 11
23.6016
 21
31.3903
 31
0.0
  0
LINE
  8
0
 62
     204
 10
23.6016
 20
31.3903
 30
0.0
 11
24.3596
 21
30.4533
 31
0.0
  0
LINE
  8
0
 62
     204
 10
24.3596
 20
30.4533
 30
0.0
 11
25.298
 21
29.6954
 31
0.0
  0
LINE
  8
0
 62
     204
 10
25.298
 20
29.6954
 30
0.0
 11
25.4896
 21
29.5934
 31
0.0
  0
LINE
  8
0
 62
     204
 10
25.4896
 20
29.5934
 30
0.0
 11
25.8231
 21
29.417
 31
0.0
  0
LINE
  8
0
 62
     204
 10
25.8231
 20
29.417
 30
0.0
 11
26.9379
 21
29.0932
 31
0.0
  0
LINE
  8
0
 62
     204
 10
26.9379
 20
29.0932
 30
0.0
 11
28.4345
 21
29.0504
 31
0.0
  0
LINE
  8
0
 62
     204
 10
28.4345
 20
29.0504
 30
0.0
 11
29.8731
 21
29.4528
 31
0.0
  0
LINE
  8
0
 62
     204
 10
29.8731
 20
29.4528
 30
0.0
 11
30.8694
 21
30.0343
 31
0.0
  0
LINE
  8
0
 62
     204
 10
30.8694
 20
30.0343
 30
0.0
 11
31.1492
 21
30.2865
 31
0.0
  0
LINE
  8
0
 62
     204
 10
31.1492
 20
30.2865
 30
0.0
 11
31.2718
 21
30.3982
 31
0.0
  0
LINE
  8
0
 62
     204
 10
31.2718
 20
30.3982
 30
0.0
 11
31.8754
 21
31.123
 31
0.0
  0
LINE
  8
0
 62
     204
 10
31.8754
 20
31.123
 30
0.0
 11
32.3288
 21
31.8823
 31
0.0
  0
LINE
  8
0
 62
     204
 10
32.3288
 20
31.8823
 30
0.0
 11
32.3756
 21
32.0091
 31
0.0
  0
LINE
  8
0
 62
     204
 10
32.3756
 20
32.0091
 30
0.0
 11
32.4018
 21
32.0807
 31
0.0
  0
LINE
  8
0
 62
     204
 10
32.4018
 20
32.0807
 30
0.0
 11
32.5093
 21
32.2847
 31
0.0
  0
LINE
  8
0
 62
     204
 10
32.5093
 20
32.2847
 30
0.0
 11
32.705
 21
32.4528
 31
0.0
  0
LINE
  8
0
 62
     204
 10
32.705
 20
32.4528
 30
0.0
 11
33.0192
 21
32.5451
 31
0.0
  0
LINE
  8
0
 62
     204
 10
33.0192
 20
32.5451
 30
0.0
 11
33.3885
 21
32.5851
 31
0.0
  0
LINE
  8
0
 62
     204
 10
33.3885
 20
32.5851
 30
0.0
 11
33.5125
 21
32.5906
 31
0.0
  0
LINE
  8
0
 62
     204
 10
33.5125
 20
32.5906
 30
0.0
 11
33.6627
 21
32.5989
 31
0.0
  0
LINE
  8
0
 62
     204
 10
33.6627
 20
32.5989
 30
0.0
 11
34.1188
 21
32.654
 31
0.0
  0
LINE
  8
0
 62
     204
 10
34.1188
 20
32.654
 30
0.0
 11
34.3876
 21
32.778
 31
0.0
  0
LINE
  8
0
 62
     204
 10
34.3876
 20
32.778
 30
0.0
 11
34.4441
 21
32.8208
 31
0.0
  0
LINE
  8
0
 62
     204
 10
34.4441
 20
32.8208
 30
0.0
 11
34.699
 21
33.015
 31
0.0
  0
LINE
  8
0
 62
     204
 10
34.699
 20
33.015
 30
0.0
 11
34.7183
 21
26.1111
 31
0.0
  0
LINE
  8
0
 62
     204
 10
34.7183
 20
26.1111
 30
0.0
 11
34.7362
 21
19.2071
 31
0.0
  0
LINE
  8
0
 62
     204
 10
34.7362
 20
19.2071
 30
0.0
 11
34.9484
 21
18.9025
 31
0.0
  0
LINE
  8
0
 62
     204
 10
34.9484
 20
18.9025
 30
0.0
 11
34.9787
 21
18.8584
 31
0.0
  0
LINE
  8
0
 62
     204
 10
34.9787
 20
18.8584
 30
0.0
 11
35.4252
 21
18.4643
 31
0.0
  0
LINE
  8
0
 62
     204
 10
35.4252
 20
18.4643
 30
0.0
 11
35.4707
 21
18.4409
 31
0.0
  0
LINE
  8
0
 62
     204
 10
35.4707
 20
18.4409
 30
0.0
 11
35.7837
 21
18.2838
 31
0.0
  0
LINE
  8
0
 62
     204
 10
35.7837
 20
18.2838
 30
0.0
 11
39.5813
 21
18.2838
 31
0.0
  0
LINE
  8
0
 62
     204
 10
39.5813
 20
18.2838
 30
0.0
 11
39.9274
 21
18.2838
 31
0.0
  0
LINE
  8
0
 62
     204
 10
39.9274
 20
18.2838
 30
0.0
 11
40.9691
 21
18.2838
 31
0.0
  0
LINE
  8
0
 62
     204
 10
40.9691
 20
18.2838
 30
0.0
 11
42.0123
 21
18.2783
 31
0.0
  0
LINE
  8
0
 62
     204
 10
42.0123
 20
18.2783
 30
0.0
 11
42.7687
 21
18.2618
 31
0.0
  0
LINE
  8
0
 62
     204
 10
42.7687
 20
18.2618
 30
0.0
 11
43.2978
 21
18.2301
 31
0.0
  0
LINE
  8
0
 62
     204
 10
43.2978
 20
18.2301
 30
0.0
 11
43.6548
 21
18.1749
 31
0.0
  0
LINE
  8
0
 62
     204
 10
43.6548
 20
18.1749
 30
0.0
 11
43.9
 21
18.0923
 31
0.0
  0
LINE
  8
0
 62
     204
 10
43.9
 20
18.0923
 30
0.0
 11
44.0916
 21
17.9765
 31
0.0
  0
LINE
  8
0
 62
     204
 10
44.0916
 20
17.9765
 30
0.0
 11
44.239
 21
17.8608
 31
0.0
  0
LINE
  8
0
 62
     204
 10
44.239
 20
17.8608
 30
0.0
 11
44.2874
 21
17.8208
 31
0.0
  0
LINE
  8
0
 62
     204
 10
44.2874
 20
17.8208
 30
0.0
 11
44.4472
 21
17.6899
 31
0.0
  0
LINE
  8
0
 62
     204
 10
44.4472
 20
17.6899
 30
0.0
 11
44.807
 21
17.1483
 31
0.0
  0
LINE
  8
0
 62
     204
 10
44.807
 20
17.1483
 30
0.0
 11
44.9986
 21
16.3339
 31
0.0
  0
LINE
  8
0
 62
     204
 10
44.9986
 20
16.3339
 30
0.0
 11
44.855
 21
15.5029
 31
0.0
  0
LINE
  8
0
 62
     204
 10
44.855
 20
15.5029
 30
0.0
 11
44.5287
 21
14.9255
 31
0.0
  0
LINE
  8
0
 62
     204
 10
44.5287
 20
14.9255
 30
0.0
 11
44.377
 21
14.7767
 31
0.0
  0
LINE
  8
0
 62
     204
 10
44.377
 20
14.7767
 30
0.0
 11
44.3272
 21
14.7298
 31
0.0
  0
LINE
  8
0
 62
     204
 10
44.3272
 20
14.7298
 30
0.0
 11
44.1784
 21
14.5893
 31
0.0
  0
LINE
  8
0
 62
     204
 10
44.1784
 20
14.5893
 30
0.0
 11
43.9815
 21
14.4487
 31
0.0
  0
LINE
  8
0
 62
     204
 10
43.9815
 20
14.4487
 30
0.0
 11
43.7236
 21
14.3495
 31
0.0
  0
LINE
  8
0
 62
     204
 10
43.7236
 20
14.3495
 30
0.0
 11
43.3433
 21
14.2834
 31
0.0
  0
LINE
  8
0
 62
     204
 10
43.3433
 20
14.2834
 30
0.0
 11
42.7799
 21
14.2434
 31
0.0
  0
LINE
  8
0
 62
     204
 10
42.7799
 20
14.2434
 30
0.0
 11
41.9696
 21
14.2241
 31
0.0
  0
LINE
  8
0
 62
     204
 10
41.9696
 20
14.2241
 30
0.0
 11
40.8506
 21
14.2172
 31
0.0
  0
LINE
  8
0
 62
     204
 10
40.8506
 20
14.2172
 30
0.0
 11
39.7344
 21
14.2159
 31
0.0
  0
LINE
  8
0
 62
     204
 10
39.7344
 20
14.2159
 30
0.0
 11
39.3637
 21
14.2159
 31
0.0
  0
LINE
  8
0
 62
     204
 10
39.3637
 20
14.2159
 30
0.0
 11
38.9971
 21
14.2159
 31
0.0
  0
LINE
  8
0
 62
     204
 10
38.9971
 20
14.2159
 30
0.0
 11
37.9003
 21
14.2186
 31
0.0
  0
LINE
  8
0
 62
     204
 10
37.9003
 20
14.2186
 30
0.0
 11
36.7728
 21
14.2255
 31
0.0
  0
LINE
  8
0
 62
     204
 10
36.7728
 20
14.2255
 30
0.0
 11
35.9241
 21
14.2448
 31
0.0
  0
LINE
  8
0
 62
     204
 10
35.9241
 20
14.2448
 30
0.0
 11
35.2944
 21
14.2792
 31
0.0
  0
LINE
  8
0
 62
     204
 10
35.2944
 20
14.2792
 30
0.0
 11
34.8272
 21
14.3343
 31
0.0
  0
LINE
  8
0
 62
     204
 10
34.8272
 20
14.3343
 30
0.0
 11
34.4647
 21
14.4143
 31
0.0
  0
LINE
  8
0
 62
     204
 10
34.4647
 20
14.4143
 30
0.0
 11
34.1505
 21
14.5232
 31
0.0
  0
LINE
  8
0
 62
     204
 10
34.1505
 20
14.5232
 30
0.0
 11
33.9039
 21
14.6293
 31
0.0
  0
LINE
  8
0
 62
     204
 10
33.9039
 20
14.6293
 30
0.0
 11
33.8239
 21
14.6665
 31
0.0
  0
LINE
  8
0
 62
     204
 10
33.8239
 20
14.6665
 30
0.0
 11
33.4932
 21
14.8194
 31
0.0
  0
LINE
  8
0
 62
     204
 10
33.4932
 20
14.8194
 30
0.0
 11
32.1179
 21
15.8654
 31
0.0
  0
LINE
  8
0
 62
     204
 10
32.1179
 20
15.8654
 30
0.0
 11
31.1395
 21
17.2572
 31
0.0
  0
LINE
  8
0
 62
     204
 10
31.1395
 20
17.2572
 30
0.0
 11
31.0086
 21
17.5824
 31
0.0
  0
LINE
  8
0
 62
     204
 10
31.0086
 20
17.5824
 30
0.0
 11
30.9563
 21
17.7133
 31
0.0
  0
LINE
  8
0
 62
     204
 10
30.9563
 20
17.7133
 30
0.0
 11
30.8295
 21
18.1171
 31
0.0
  0
LINE
  8
0
 62
     204
 10
30.8295
 20
18.1171
 30
0.0
 11
30.7137
 21
18.7083
 31
0.0
  0
LINE
  8
0
 62
     204
 10
30.7137
 20
18.7083
 30
0.0
 11
30.6517
 21
19.4317
 31
0.0
  0
LINE
  8
0
 62
     204
 10
30.6517
 20
19.4317
 30
0.0
 11
30.6338
 21
20.1304
 31
0.0
  0
LINE
  8
0
 62
     204
 10
30.6338
 20
20.1304
 30
0.0
 11
30.6338
 21
20.3619
 31
0.0
  0
LINE
  8
0
 62
     204
 10
30.6338
 20
20.3619
 30
0.0
 11
30.6338
 21
20.5493
 31
0.0
  0
LINE
  8
0
 62
     204
 10
30.6338
 20
20.5493
 30
0.0
 11
30.6296
 21
21.1074
 31
0.0
  0
LINE
  8
0
 62
     204
 10
30.6296
 20
21.1074
 30
0.0
 11
30.6117
 21
21.5112
 31
0.0
  0
LINE
  8
0
 62
     204
 10
30.6117
 20
21.5112
 30
0.0
 11
30.5594
 21
21.7083
 31
0.0
  0
LINE
  8
0
 62
     204
 10
30.5594
 20
21.7083
 30
0.0
 11
30.4877
 21
21.8019
 31
0.0
  0
LINE
  8
0
 62
     204
 10
30.4877
 20
21.8019
 30
0.0
 11
30.4616
 21
21.8281
 31
0.0
  0
LINE
  8
0
 62
     204
 10
30.4616
 20
21.8281
 30
0.0
 11
30.394
 21
21.8956
 31
0.0
  0
LINE
  8
0
 62
     204
 10
30.394
 20
21.8956
 30
0.0
 11
30.033
 21
21.988
 31
0.0
  0
LINE
  8
0
 62
     204
 10
30.033
 20
21.988
 30
0.0
 11
29.7119
 21
21.762
 31
0.0
  0
LINE
  8
0
 62
     204
 10
29.7119
 20
21.762
 30
0.0
 11
29.6636
 21
21.671
 31
0.0
  0
LINE
  8
0
 62
     204
 10
29.6636
 20
21.671
 30
0.0
 11
29.6485
 21
21.6449
 31
0.0
  0
LINE
  8
0
 62
     204
 10
29.6485
 20
21.6449
 30
0.0
 11
29.6265
 21
21.4478
 31
0.0
  0
LINE
  8
0
 62
     204
 10
29.6265
 20
21.4478
 30
0.0
 11
29.6003
 21
20.9103
 31
0.0
  0
LINE
  8
0
 62
     204
 10
29.6003
 20
20.9103
 30
0.0
 11
29.5865
 21
20.027
 31
0.0
  0
LINE
  8
0
 62
     204
 10
29.5865
 20
20.027
 30
0.0
 11
29.5824
 21
19.0748
 31
0.0
  0
LINE
  8
0
 62
     204
 10
29.5824
 20
19.0748
 30
0.0
 11
29.5824
 21
18.7565
 31
0.0
  0
LINE
  8
0
 62
     204
 10
29.5824
 20
18.7565
 30
0.0
 11
29.5824
 21
18.3059
 31
0.0
  0
LINE
  8
0
 62
     204
 10
29.5824
 20
18.3059
 30
0.0
 11
29.5727
 21
16.9526
 31
0.0
  0
LINE
  8
0
 62
     204
 10
29.5727
 20
16.9526
 30
0.0
 11
29.5203
 21
15.9398
 31
0.0
  0
LINE
  8
0
 62
     204
 10
29.5203
 20
15.9398
 30
0.0
 11
29.388
 21
15.4051
 31
0.0
  0
LINE
  8
0
 62
     204
 10
29.388
 20
15.4051
 30
0.0
 11
29.2103
 21
15.1212
 31
0.0
  0
LINE
  8
0
 62
     204
 10
29.2103
 20
15.1212
 30
0.0
 11
29.14
 21
15.0358
 31
0.0
  0
LINE
  8
0
 62
     204
 10
29.14
 20
15.0358
 30
0.0
 11
28.9857
 21
14.8483
 31
0.0
  0
LINE
  8
0
 62
     204
 10
28.9857
 20
14.8483
 30
0.0
 11
28.3297
 21
14.4418
 31
0.0
  0
LINE
  8
0
 62
     204
 10
28.3297
 20
14.4418
 30
0.0
 11
27.3899
 21
14.3233
 31
0.0
  0
LINE
  8
0
 62
     204
 10
27.3899
 20
14.3233
 30
0.0
 11
26.4928
 21
14.6623
 31
0.0
  0
LINE
  8
0
 62
     204
 10
26.4928
 20
14.6623
 30
0.0
 11
25.925
 21
15.2149
 31
0.0
  0
LINE
  8
0
 62
     204
 10
25.925
 20
15.2149
 30
0.0
 11
25.8093
 21
15.4354
 31
0.0
  0
LINE
  8
0
 62
     204
 10
25.8093
 20
15.4354
 30
0.0
 11
25.6205
 21
15.7937
 31
0.0
  0
LINE
  8
0
 62
     204
 10
25.6205
 20
15.7937
 30
0.0
 11
25.5846
 21
18.7634
 31
0.0
  0
LINE
  8
0
 62
     204
 10
25.5846
 20
18.7634
 30
0.0
 11
25.5502
 21
21.7317
 31
0.0
  0
LINE
  8
0
 62
     204
 10
25.5502
 20
21.7317
 30
0.0
 11
25.3848
 21
21.8667
 31
0.0
  0
LINE
  8
0
 62
     204
 10
25.3848
 20
21.8667
 30
0.0
 11
25.3297
 21
21.9122
 31
0.0
  0
LINE
  8
0
 62
     204
 10
25.3297
 20
21.9122
 30
0.0
 11
24.8047
 21
21.8901
 31
0.0
  0
LINE
  8
0
 62
     204
 10
24.8047
 20
21.8901
 30
0.0
 11
24.7592
 21
21.8419
 31
0.0
  0
LINE
  8
0
 62
     204
 10
24.7592
 20
21.8419
 30
0.0
 11
24.7317
 21
21.813
 31
0.0
  0
LINE
  8
0
 62
     204
 10
24.7317
 20
21.813
 30
0.0
 11
24.6738
 21
21.6986
 31
0.0
  0
LINE
  8
0
 62
     204
 10
24.6738
 20
21.6986
 30
0.0
 11
24.6269
 21
21.3169
 31
0.0
  0
LINE
  8
0
 62
     204
 10
24.6269
 20
21.3169
 30
0.0
 11
24.6035
 21
20.4225
 31
0.0
  0
LINE
  8
0
 62
     204
 10
24.6035
 20
20.4225
 30
0.0
 11
24.5925
 21
19.1616
 31
0.0
  0
LINE
  8
0
 62
     204
 10
24.5925
 20
19.1616
 30
0.0
 11
24.5897
 21
18.7399
 31
0.0
  0
LINE
  8
0
 62
     204
 10
24.5897
 20
18.7399
 30
0.0
 11
24.569
 21
15.7937
 31
0.0
  0
LINE
  8
0
 62
     204
 10
24.569
 20
15.7937
 30
0.0
 11
24.3816
 21
15.4395
 31
0.0
  0
LINE
  8
0
 62
     204
 10
24.3816
 20
15.4395
 30
0.0
 11
24.281
 21
15.2494
 31
0.0
  0
LINE
  8
0
 62
     204
 10
24.281
 20
15.2494
 30
0.0
 11
23.6347
 21
14.5962
 31
0.0
  0
LINE
  8
0
 62
     204
 10
23.6347
 20
14.5962
 30
0.0
 11
22.7748
 21
14.3233
 31
0.0
  0
LINE
  8
0
 62
     204
 10
22.7748
 20
14.3233
 30
0.0
 11
22.5681
 21
14.3233
 31
0.0
  0
LINE
  8
0
 62
     204
 10
22.5681
 20
14.3233
 30
0.0
 11
22.4537
 21
14.3247
 31
0.0
  0
LINE
  8
0
 62
     204
 10
22.4537
 20
14.3247
 30
0.0
 11
22.0652
 21
14.3633
 31
0.0
  0
LINE
  8
0
 62
     204
 10
22.0652
 20
14.3633
 30
0.0
 11
21.7399
 21
14.4942
 31
0.0
  0
LINE
  8
0
 62
     204
 10
21.7399
 20
14.4942
 30
0.0
 11
21.6572
 21
14.5411
 31
0.0
  0
LINE
  8
0
 62
     204
 10
21.6572
 20
14.5411
 30
0.0
 11
21.6035
 21
14.5714
 31
0.0
  0
LINE
  8
0
 62
     204
 10
21.6035
 20
14.5714
 30
0.0
 11
21.3183
 21
14.7808
 31
0.0
  0
LINE
  8
0
 62
     204
 10
21.3183
 20
14.7808
 30
0.0
 11
21.0757
 21
15.0124
 31
0.0
  0
LINE
  8
0
 62
     204
 10
21.0757
 20
15.0124
 30
0.0
 11
21.0454
 21
15.0523
 31
0.0
  0
LINE
  8
0
 62
     204
 10
21.0454
 20
15.0523
 30
0.0
 11
20.9779
 21
15.1405
 31
0.0
  0
LINE
  8
0
 62
     204
 10
20.9779
 20
15.1405
 30
0.0
 11
20.8111
 21
15.4327
 31
0.0
  0
LINE
  8
0
 62
     204
 10
20.8111
 20
15.4327
 30
0.0
 11
20.6802
 21
15.9977
 31
0.0
  0
LINE
  8
0
 62
     204
 10
20.6802
 20
15.9977
 30
0.0
 11
20.6141
 21
17.0381
 31
0.0
  0
LINE
  8
0
 62
     204
 10
20.6141
 20
17.0381
 30
0.0
 11
20.5838
 21
18.394
 31
0.0
  0
LINE
  8
0
 62
     204
 10
20.5838
 20
18.394
 30
0.0
 11
20.5782
 21
18.8447
 31
0.0
  0
LINE
  8
0
 62
     204
 10
20.5782
 20
18.8447
 30
0.0
 11
20.5727
 21
19.2236
 31
0.0
  0
LINE
  8
0
 62
     204
 10
20.5727
 20
19.2236
 30
0.0
 11
20.5507
 21
20.3577
 31
0.0
  0
LINE
  8
0
 62
     204
 10
20.5507
 20
20.3577
 30
0.0
 11
20.5218
 21
21.2121
 31
0.0
  0
LINE
  8
0
 62
     204
 10
20.5218
 20
21.2121
 30
0.0
 11
20.4777
 21
21.6201
 31
0.0
  0
LINE
  8
0
 62
     204
 10
20.4777
 20
21.6201
 30
0.0
 11
20.4336
 21
21.7537
 31
0.0
  0
LINE
  8
0
 62
     204
 10
20.4336
 20
21.7537
 30
0.0
 11
20.4074
 21
21.7895
 31
0.0
  0
LINE
  8
0
 62
     204
 10
20.4074
 20
21.7895
 30
0.0
 11
20.3633
 21
21.8488
 31
0.0
  0
LINE
  8
0
 62
     204
 10
20.3633
 20
21.8488
 30
0.0
 11
20.0684
 21
21.9866
 31
0.0
  0
LINE
  8
0
 62
     204
 10
20.0684
 20
21.9866
 30
0.0
 11
19.7707
 21
21.9081
 31
0.0
  0
LINE
  8
0
 62
     204
 10
19.7707
 20
21.9081
 30
0.0
 11
19.7266
 21
21.8571
 31
0.0
  0
LINE
  8
0
 62
     204
 10
19.7266
 20
21.8571
 30
0.0
 11
19.6977
 21
21.8267
 31
0.0
  0
LINE
  8
0
 62
     204
 10
19.6977
 20
21.8267
 30
0.0
 11
19.6481
 21
21.7013
 31
0.0
  0
LINE
  8
0
 62
     204
 10
19.6481
 20
21.7013
 30
0.0
 11
19.5985
 21
21.2838
 31
0.0
  0
LINE
  8
0
 62
     204
 10
19.5985
 20
21.2838
 30
0.0
 11
19.5612
 21
20.3577
 31
0.0
  0
LINE
  8
0
 62
     204
 10
19.5612
 20
20.3577
 30
0.0
 11
19.5296
 21
19.101
 31
0.0
  0
LINE
  8
0
 62
     204
 10
19.5296
 20
19.101
 30
0.0
 11
19.5199
 21
18.6807
 31
0.0
  0
LINE
  8
0
 62
     204
 10
19.5199
 20
18.6807
 30
0.0
 11
19.4496
 21
15.6545
 31
0.0
  0
LINE
  8
0
 62
     204
 10
19.4496
 20
15.6545
 30
0.0
 11
19.2622
 21
15.339
 31
0.0
  0
LINE
  8
0
 62
     204
 10
19.2622
 20
15.339
 30
0.0
 11
19.1589
 21
15.1653
 31
0.0
  0
LINE
  8
0
 62
     204
 10
19.1589
 20
15.1653
 30
0.0
 11
18.5305
 21
14.57
 31
0.0
  0
LINE
  8
0
 62
     204
 10
18.5305
 20
14.57
 30
0.0
 11
17.7739
 21
14.322
 31
0.0
  0
LINE
  8
0
 62
     204
 10
17.7739
 20
14.322
 30
0.0
 11
17.5218
 21
14.322
 31
0.0
  0
LINE
  8
0
 62
     204
 10
17.5218
 20
14.322
 30
0.0
 11
17.2682
 21
14.322
 31
0.0
  0
LINE
  8
0
 62
     204
 10
17.2682
 20
14.322
 30
0.0
 11
16.5117
 21
14.57
 31
0.0
  0
LINE
  8
0
 62
     204
 10
16.5117
 20
14.57
 30
0.0
 11
15.8805
 21
15.1653
 31
0.0
  0
LINE
  8
0
 62
     204
 10
15.8805
 20
15.1653
 30
0.0
 11
15.7786
 21
15.339
 31
0.0
  0
LINE
  8
0
 62
     204
 10
15.7786
 20
15.339
 30
0.0
 11
15.5925
 21
15.6545
 31
0.0
  0
LINE
  8
0
 62
     204
 10
15.5925
 20
15.6545
 30
0.0
 11
15.5567
 21
18.6462
 31
0.0
  0
LINE
  8
0
 62
     204
 10
15.5567
 20
18.6462
 30
0.0
 11
15.5222
 21
21.6379
 31
0.0
  0
LINE
  8
0
 62
     204
 10
15.5222
 20
21.6379
 30
0.0
 11
15.3527
 21
21.8199
 31
0.0
  0
LINE
  8
0
 62
     204
 10
15.3527
 20
21.8199
 30
0.0
 11
15.3017
 21
21.8736
 31
0.0
  0
LINE
  8
0
 62
     204
 10
15.3017
 20
21.8736
 30
0.0
 11
14.7629
 21
21.9136
 31
0.0
  0
LINE
  8
0
 62
     204
 10
14.7629
 20
21.9136
 30
0.0
 11
14.7064
 21
21.8667
 31
0.0
  0
LINE
  8
0
 62
     204
 10
14.7064
 20
21.8667
 30
0.0
 11
14.6789
 21
21.846
 31
0.0
  0
LINE
  8
0
 62
     204
 10
14.6789
 20
21.846
 30
0.0
 11
14.61
 21
21.7634
 31
0.0
  0
LINE
  8
0
 62
     204
 10
14.61
 20
21.7634
 30
0.0
 11
14.5562
 21
21.5484
 31
0.0
  0
LINE
  8
0
 62
     204
 10
14.5562
 20
21.5484
 30
0.0
 11
14.5245
 21
21.0757
 31
0.0
  0
LINE
  8
0
 62
     204
 10
14.5245
 20
21.0757
 30
0.0
 11
14.5025
 21
20.4198
 31
0.0
  0
LINE
  8
0
 62
     204
 10
14.5025
 20
20.4198
 30
0.0
 11
14.497
 21
20.2007
 31
0.0
  0
LINE
  8
0
 62
     204
 10
14.497
 20
20.2007
 30
0.0
 11
14.4914
 21
20.0022
 31
0.0
  0
LINE
  8
0
 62
     204
 10
14.4914
 20
20.0022
 30
0.0
 11
14.4694
 21
19.4028
 31
0.0
  0
LINE
  8
0
 62
     204
 10
14.4694
 20
19.4028
 30
0.0
 11
14.4336
 21
18.8529
 31
0.0
  0
LINE
  8
0
 62
     204
 10
14.4336
 20
18.8529
 30
0.0
 11
14.3798
 21
18.4533
 31
0.0
  0
LINE
  8
0
 62
     204
 10
14.3798
 20
18.4533
 30
0.0
 11
14.3233
 21
18.1942
 31
0.0
  0
LINE
  8
0
 62
     204
 10
14.3233
 20
18.1942
 30
0.0
 11
14.2999
 21
18.1088
 31
0.0
  0
LINE
  8
0
 62
     204
 10
14.2999
 20
18.1088
 30
0.0
 11
14.2227
 21
17.8332
 31
0.0
  0
LINE
  8
0
 62
     204
 10
14.2227
 20
17.8332
 30
0.0
 11
13.8672
 21
17.0381
 31
0.0
  0
LINE
  8
0
 62
     204
 10
13.8672
 20
17.0381
 30
0.0
 11
13.2099
 21
16.0734
 31
0.0
  0
LINE
  8
0
 62
     204
 10
13.2099
 20
16.0734
 30
0.0
 11
12.372
 21
15.2687
 31
0.0
  0
LINE
  8
0
 62
     204
 10
12.372
 20
15.2687
 30
0.0
 11
11.6513
 21
14.7891
 31
0.0
  0
LINE
  8
0
 62
     204
 10
11.6513
 20
14.7891
 30
0.0
 11
11.3936
 21
14.6692
 31
0.0
  0
LINE
  8
0
 62
     204
 10
11.3936
 20
14.6692
 30
0.0
 11
11.2352
 21
14.5976
 31
0.0
  0
LINE
  8
0
 62
     204
 10
11.2352
 20
14.5976
 30
0.0
 11
10.7432
 21
14.4143
 31
0.0
  0
LINE
  8
0
 62
     204
 10
10.7432
 20
14.4143
 30
0.0
 11
9.90395
 21
14.2792
 31
0.0
  0
LINE
  8
0
 62
     204
 10
9.90395
 20
14.2792
 30
0.0
 11
8.39227
 21
14.2282
 31
0.0
  0
LINE
  8
0
 62
     204
 10
8.39227
 20
14.2282
 30
0.0
 11
6.39135
 21
14.2214
 31
0.0
  0
LINE
  8
0
 62
     204
 10
6.39135
 20
14.2214
 30
0.0
 11
5.72576
 21
14.2214
 31
0.0
  0
LINE
  8
0
 62
     204
 10
5.72576
 20
14.2214
 30
0.0
 11
5.18555
 21
14.2227
 31
0.0
  0
LINE
  8
0
 62
     204
 10
5.18555
 20
14.2227
 30
0.0
 11
3.565
 21
14.2282
 31
0.0
  0
LINE
  8
0
 62
     204
 10
3.565
 20
14.2282
 30
0.0
 11
2.28065
 21
14.2448
 31
0.0
  0
LINE
  8
0
 62
     204
 10
2.28065
 20
14.2448
 30
0.0
 11
1.60955
 21
14.2806
 31
0.0
  0
LINE
  8
0
 62
     204
 10
1.60955
 20
14.2806
 30
0.0
 11
1.36977
 21
14.3151
 31
0.0
  0
LINE
  8
0
 62
     204
 10
1.36977
 20
14.3151
 30
0.0
 11
1.29536
 21
14.3385
 31
0.0
  0
LINE
  8
0
 62
     204
 10
19.6812
 20
33.97
 30
0.0
 11
19.6591
 21
33.6062
 31
0.0
  0
LINE
  8
0
 62
     204
 10
19.6591
 20
33.6062
 30
0.0
 11
19.3366
 21
33.5442
 31
0.0
  0
LINE
  8
0
 62
     204
 10
19.3366
 20
33.5442
 30
0.0
 11
19.2664
 21
33.5304
 31
0.0
  0
LINE
  8
0
 62
     204
 10
19.2664
 20
33.5304
 30
0.0
 11
19.0541
 21
33.4505
 31
0.0
  0
LINE
  8
0
 62
     204
 10
19.0541
 20
33.4505
 30
0.0
 11
18.9453
 21
33.2934
 31
0.0
  0
LINE
  8
0
 62
     204
 10
18.9453
 20
33.2934
 30
0.0
 11
18.9273
 21
33.2411
 31
0.0
  0
LINE
  8
0
 62
     204
 10
18.9273
 20
33.2411
 30
0.0
 11
18.9067
 21
33.1873
 31
0.0
  0
LINE
  8
0
 62
     204
 10
18.9067
 20
33.1873
 30
0.0
 11
18.8819
 21
32.9971
 31
0.0
  0
LINE
  8
0
 62
     204
 10
18.8819
 20
32.9971
 30
0.0
 11
18.977
 21
32.7945
 31
0.0
  0
LINE
  8
0
 62
     204
 10
18.977
 20
32.7945
 30
0.0
 11
19.0183
 21
32.7339
 31
0.0
  0
LINE
  8
0
 62
     204
 10
19.0183
 20
32.7339
 30
0.0
 11
19.1947
 21
32.4666
 31
0.0
  0
LINE
  8
0
 62
     204
 10
19.1947
 20
32.4666
 30
0.0
 11
18.9618
 21
32.2116
 31
0.0
  0
LINE
  8
0
 62
     204
 10
18.9618
 20
32.2116
 30
0.0
 11
18.9288
 21
32.1772
 31
0.0
  0
LINE
  8
0
 62
     204
 10
18.9288
 20
32.1772
 30
0.0
 11
18.7427
 21
31.9581
 31
0.0
  0
LINE
  8
0
 62
     204
 10
18.7427
 20
31.9581
 30
0.0
 11
18.6807
 21
31.9581
 31
0.0
  0
LINE
  8
0
 62
     204
 10
18.6807
 20
31.9581
 30
0.0
 11
18.6104
 21
31.9581
 31
0.0
  0
LINE
  8
0
 62
     204
 10
18.6104
 20
31.9581
 30
0.0
 11
18.4313
 21
32.1124
 31
0.0
  0
LINE
  8
0
 62
     204
 10
18.4313
 20
32.1124
 30
0.0
 11
18.3996
 21
32.1359
 31
0.0
  0
LINE
  8
0
 62
     204
 10
18.3996
 20
32.1359
 30
0.0
 11
18.3596
 21
32.1675
 31
0.0
  0
LINE
  8
0
 62
     204
 10
18.3596
 20
32.1675
 30
0.0
 11
18.0289
 21
32.2819
 31
0.0
  0
LINE
  8
0
 62
     204
 10
18.0289
 20
32.2819
 30
0.0
 11
18.0013
 21
32.275
 31
0.0
  0
LINE
  8
0
 62
     204
 10
18.0013
 20
32.275
 30
0.0
 11
17.9641
 21
32.2667
 31
0.0
  0
LINE
  8
0
 62
     204
 10
17.9641
 20
32.2667
 30
0.0
 11
17.8263
 21
32.3288
 31
0.0
  0
LINE
  8
0
 62
     204
 10
17.8263
 20
32.3288
 30
0.0
 11
17.6554
 21
32.6595
 31
0.0
  0
LINE
  8
0
 62
     204
 10
17.6554
 20
32.6595
 30
0.0
 11
17.6072
 21
32.7725
 31
0.0
  0
LINE
  8
0
 62
     204
 10
17.6072
 20
32.7725
 30
0.0
 11
17.3771
 21
33.3099
 31
0.0
  0
LINE
  8
0
 62
     204
 10
17.3771
 20
33.3099
 30
0.0
 11
17.5259
 21
33.4147
 31
0.0
  0
LINE
  8
0
 62
     204
 10
17.5259
 20
33.4147
 30
0.0
 11
17.5727
 21
33.4477
 31
0.0
  0
LINE
  8
0
 62
     204
 10
17.5727
 20
33.4477
 30
0.0
 11
17.7574
 21
33.7261
 31
0.0
  0
LINE
  8
0
 62
     204
 10
17.7574
 20
33.7261
 30
0.0
 11
17.8277
 21
34.0444
 31
0.0
  0
LINE
  8
0
 62
     204
 10
17.8277
 20
34.0444
 30
0.0
 11
17.818
 21
34.0968
 31
0.0
  0
LINE
  8
0
 62
     204
 10
17.818
 20
34.0968
 30
0.0
 11
17.8029
 21
34.1781
 31
0.0
  0
LINE
  8
0
 62
     204
 10
17.8029
 20
34.1781
 30
0.0
 11
17.6499
 21
34.4013
 31
0.0
  0
LINE
  8
0
 62
     204
 10
17.6499
 20
34.4013
 30
0.0
 11
17.3468
 21
34.5653
 31
0.0
  0
LINE
  8
0
 62
     204
 10
17.3468
 20
34.5653
 30
0.0
 11
16.9981
 21
34.5667
 31
0.0
  0
LINE
  8
0
 62
     204
 10
16.9981
 20
34.5667
 30
0.0
 11
16.7528
 21
34.4441
 31
0.0
  0
LINE
  8
0
 62
     204
 10
16.7528
 20
34.4441
 30
0.0
 11
16.6991
 21
34.3807
 31
0.0
  0
LINE
  8
0
 62
     204
 10
16.6991
 20
34.3807
 30
0.0
 11
16.6398
 21
34.3131
 31
0.0
  0
LINE
  8
0
 62
     204
 10
16.6398
 20
34.3131
 30
0.0
 11
16.5516
 21
33.9011
 31
0.0
  0
LINE
  8
0
 62
     204
 10
16.5516
 20
33.9011
 30
0.0
 11
16.7197
 21
33.5111
 31
0.0
  0
LINE
  8
0
 62
     204
 10
16.7197
 20
33.5111
 30
0.0
 11
16.7914
 21
33.4546
 31
0.0
  0
LINE
  8
0
 62
     204
 10
16.7914
 20
33.4546
 30
0.0
 11
16.9816
 21
33.303
 31
0.0
  0
LINE
  8
0
 62
     204
 10
16.9816
 20
33.303
 30
0.0
 11
16.7459
 21
32.767
 31
0.0
  0
LINE
  8
0
 62
     204
 10
16.7459
 20
32.767
 30
0.0
 11
16.6963
 21
32.654
 31
0.0
  0
LINE
  8
0
 62
     204
 10
16.6963
 20
32.654
 30
0.0
 11
16.5213
 21
32.3246
 31
0.0
  0
LINE
  8
0
 62
     204
 10
16.5213
 20
32.3246
 30
0.0
 11
16.3835
 21
32.2626
 31
0.0
  0
LINE
  8
0
 62
     204
 10
16.3835
 20
32.2626
 30
0.0
 11
16.3477
 21
32.2709
 31
0.0
  0
LINE
  8
0
 62
     204
 10
16.3477
 20
32.2709
 30
0.0
 11
16.3187
 21
32.2792
 31
0.0
  0
LINE
  8
0
 62
     204
 10
16.3187
 20
32.2792
 30
0.0
 11
15.9921
 21
32.1662
 31
0.0
  0
LINE
  8
0
 62
     204
 10
15.9921
 20
32.1662
 30
0.0
 11
15.9522
 21
32.1359
 31
0.0
  0
LINE
  8
0
 62
     204
 10
15.9522
 20
32.1359
 30
0.0
 11
15.9191
 21
32.1124
 31
0.0
  0
LINE
  8
0
 62
     204
 10
15.9191
 20
32.1124
 30
0.0
 11
15.7455
 21
31.9581
 31
0.0
  0
LINE
  8
0
 62
     204
 10
15.7455
 20
31.9581
 30
0.0
 11
15.6876
 21
31.9581
 31
0.0
  0
LINE
  8
0
 62
     204
 10
15.6876
 20
31.9581
 30
0.0
 11
15.6187
 21
31.9581
 31
0.0
  0
LINE
  8
0
 62
     204
 10
15.6187
 20
31.9581
 30
0.0
 11
15.4478
 21
32.1717
 31
0.0
  0
LINE
  8
0
 62
     204
 10
15.4478
 20
32.1717
 30
0.0
 11
15.4161
 21
32.2048
 31
0.0
  0
LINE
  8
0
 62
     204
 10
15.4161
 20
32.2048
 30
0.0
 11
15.1763
 21
32.4528
 31
0.0
  0
LINE
  8
0
 62
     204
 10
15.1763
 20
32.4528
 30
0.0
 11
15.3417
 21
32.7546
 31
0.0
  0
LINE
  8
0
 62
     204
 10
15.3417
 20
32.7546
 30
0.0
 11
15.3789
 21
32.8235
 31
0.0
  0
LINE
  8
0
 62
     204
 10
15.3789
 20
32.8235
 30
0.0
 11
15.4643
 21
33.0412
 31
0.0
  0
LINE
  8
0
 62
     204
 10
15.4643
 20
33.0412
 30
0.0
 11
15.4299
 21
33.2148
 31
0.0
  0
LINE
  8
0
 62
     204
 10
15.4299
 20
33.2148
 30
0.0
 11
15.4079
 21
33.2603
 31
0.0
  0
LINE
  8
0
 62
     204
 10
15.4079
 20
33.2603
 30
0.0
 11
15.3886
 21
33.3003
 31
0.0
  0
LINE
  8
0
 62
     204
 10
15.3886
 20
33.3003
 30
0.0
 11
15.0702
 21
33.5166
 31
0.0
  0
LINE
  8
0
 62
     204
 10
15.0702
 20
33.5166
 30
0.0
 11
15.0137
 21
33.5291
 31
0.0
  0
LINE
  8
0
 62
     204
 10
15.0137
 20
33.5291
 30
0.0
 11
14.7161
 21
33.5911
 31
0.0
  0
LINE
  8
0
 62
     204
 10
14.7161
 20
33.5911
 30
0.0
 11
14.7161
 21
34.3407
 31
0.0
  0
LINE
  8
0
 62
     204
 10
14.7161
 20
34.3407
 30
0.0
 11
14.9999
 21
34.3862
 31
0.0
  0
LINE
  8
0
 62
     204
 10
14.9999
 20
34.3862
 30
0.0
 11
15.0537
 21
34.3958
 31
0.0
  0
LINE
  8
0
 62
     204
 10
15.0537
 20
34.3958
 30
0.0
 11
15.3651
 21
34.5915
 31
0.0
  0
LINE
  8
0
 62
     204
 10
15.3651
 20
34.5915
 30
0.0
 11
15.3858
 21
34.6287
 31
0.0
  0
LINE
  8
0
 62
     204
 10
15.3858
 20
34.6287
 30
0.0
 11
15.4189
 21
34.6949
 31
0.0
  0
LINE
  8
0
 62
     204
 10
15.4189
 20
34.6949
 30
0.0
 11
15.4754
 21
34.9209
 31
0.0
  0
LINE
  8
0
 62
     204
 10
15.4754
 20
34.9209
 30
0.0
 11
15.361
 21
35.1648
 31
0.0
  0
LINE
  8
0
 62
     204
 10
15.361
 20
35.1648
 30
0.0
 11
15.3128
 21
35.2378
 31
0.0
  0
LINE
  8
0
 62
     204
 10
15.3128
 20
35.2378
 30
0.0
 11
15.1378
 21
35.494
 31
0.0
  0
LINE
  8
0
 62
     204
 10
15.1378
 20
35.494
 30
0.0
 11
15.3624
 21
35.7244
 31
0.0
  0
LINE
  8
0
 62
     204
 10
15.3624
 20
35.7244
 30
0.0
 11
15.423
 21
35.789
 31
0.0
  0
LINE
  8
0
 62
     204
 10
15.423
 20
35.789
 30
0.0
 11
15.6518
 21
35.9406
 31
0.0
  0
LINE
  8
0
 62
     204
 10
15.6518
 20
35.9406
 30
0.0
 11
15.9053
 21
35.8401
 31
0.0
  0
LINE
  8
0
 62
     204
 10
15.9053
 20
35.8401
 30
0.0
 11
15.9797
 21
35.7904
 31
0.0
  0
LINE
  8
0
 62
     204
 10
15.9797
 20
35.7904
 30
0.0
 11
16.0348
 21
35.7533
 31
0.0
  0
LINE
  8
0
 62
     204
 10
16.0348
 20
35.7533
 30
0.0
 11
16.2195
 21
35.6676
 31
0.0
  0
LINE
  8
0
 62
     204
 10
16.2195
 20
35.6676
 30
0.0
 11
16.3973
 21
35.6993
 31
0.0
  0
LINE
  8
0
 62
     204
 10
16.3973
 20
35.6993
 30
0.0
 11
16.4496
 21
35.7202
 31
0.0
  0
LINE
  8
0
 62
     204
 10
16.4496
 20
35.7202
 30
0.0
 11
16.4882
 21
35.7367
 31
0.0
  0
LINE
  8
0
 62
     204
 10
16.4882
 20
35.7367
 30
0.0
 11
16.7115
 21
35.9752
 31
0.0
  0
LINE
  8
0
 62
     204
 10
16.7115
 20
35.9752
 30
0.0
 11
16.7197
 21
36.0066
 31
0.0
  0
LINE
  8
0
 62
     204
 10
16.7197
 20
36.0066
 30
0.0
 11
16.7418
 21
36.1075
 31
0.0
  0
LINE
  8
0
 62
     204
 10
16.7418
 20
36.1075
 30
0.0
 11
16.8493
 21
36.3968
 31
0.0
  0
LINE
  8
0
 62
     204
 10
16.8493
 20
36.3968
 30
0.0
 11
17.1138
 21
36.4465
 31
0.0
  0
LINE
  8
0
 62
     204
 10
17.1138
 20
36.4465
 30
0.0
 11
17.202
 21
36.4465
 31
0.0
  0
LINE
  8
0
 62
     204
 10
17.202
 20
36.4465
 30
0.0
 11
17.5755
 21
36.4465
 31
0.0
  0
LINE
  8
0
 62
     204
 10
17.5755
 20
36.4465
 30
0.0
 11
17.6223
 21
36.1294
 31
0.0
  0
LINE
  8
0
 62
     204
 10
17.6223
 20
36.1294
 30
0.0
 11
17.632
 21
36.062
 31
0.0
  0
LINE
  8
0
 62
     204
 10
17.632
 20
36.062
 30
0.0
 11
17.7009
 21
35.8525
 31
0.0
  0
LINE
  8
0
 62
     204
 10
17.7009
 20
35.8525
 30
0.0
 11
17.8456
 21
35.7396
 31
0.0
  0
LINE
  8
0
 62
     204
 10
17.8456
 20
35.7396
 30
0.0
 11
17.8938
 21
35.7188
 31
0.0
  0
LINE
  8
0
 62
     204
 10
17.8938
 20
35.7188
 30
0.0
 11
17.9434
 21
35.6979
 31
0.0
  0
LINE
  8
0
 62
     204
 10
17.9434
 20
35.6979
 30
0.0
 11
18.1198
 21
35.6676
 31
0.0
  0
LINE
  8
0
 62
     204
 10
18.1198
 20
35.6676
 30
0.0
 11
18.3045
 21
35.7533
 31
0.0
  0
LINE
  8
0
 62
     204
 10
18.3045
 20
35.7533
 30
0.0
 11
18.361
 21
35.7904
 31
0.0
  0
LINE
  8
0
 62
     204
 10
18.361
 20
35.7904
 30
0.0
 11
18.394
 21
35.814
 31
0.0
  0
LINE
  8
0
 62
     204
 10
18.394
 20
35.814
 30
0.0
 11
18.609
 21
35.9558
 31
0.0
  0
LINE
  8
0
 62
     204
 10
18.609
 20
35.9558
 30
0.0
 11
18.6807
 21
35.9558
 31
0.0
  0
LINE
  8
0
 62
     204
 10
18.6807
 20
35.9558
 30
0.0
 11
18.7565
 21
35.9558
 31
0.0
  0
LINE
  8
0
 62
     204
 10
18.7565
 20
35.9558
 30
0.0
 11
18.9536
 21
35.7505
 31
0.0
  0
LINE
  8
0
 62
     204
 10
18.9536
 20
35.7505
 30
0.0
 11
18.9852
 21
35.7173
 31
0.0
  0
LINE
  8
0
 62
     204
 10
18.9852
 20
35.7173
 30
0.0
 11
19.2168
 21
35.4803
 31
0.0
  0
LINE
  8
0
 62
     204
 10
19.2168
 20
35.4803
 30
0.0
 11
19.0238
 21
35.1882
 31
0.0
  0
LINE
  8
0
 62
     204
 10
19.0238
 20
35.1882
 30
0.0
 11
18.9797
 21
35.1221
 31
0.0
  0
LINE
  8
0
 62
     204
 10
18.9797
 20
35.1221
 30
0.0
 11
18.8709
 21
34.9057
 31
0.0
  0
LINE
  8
0
 62
     204
 10
18.8709
 20
34.9057
 30
0.0
 11
18.9136
 21
34.7197
 31
0.0
  0
LINE
  8
0
 62
     204
 10
18.9136
 20
34.7197
 30
0.0
 11
18.9411
 21
34.6632
 31
0.0
  0
LINE
  8
0
 62
     204
 10
18.9411
 20
34.6632
 30
0.0
 11
18.9646
 21
34.6136
 31
0.0
  0
LINE
  8
0
 62
     204
 10
18.9646
 20
34.6136
 30
0.0
 11
19.0913
 21
34.4634
 31
0.0
  0
LINE
  8
0
 62
     204
 10
19.0913
 20
34.4634
 30
0.0
 11
19.3077
 21
34.3917
 31
0.0
  0
LINE
  8
0
 62
     204
 10
19.3077
 20
34.3917
 30
0.0
 11
19.378
 21
34.3807
 31
0.0
  0
LINE
  8
0
 62
     204
 10
19.378
 20
34.3807
 30
0.0
 11
19.7018
 21
34.3324
 31
0.0
  0
LINE
  8
0
 62
     204
 10
19.7018
 20
34.3324
 30
0.0
 11
19.6812
 21
33.97
 31
0.0
  0
LINE
  8
0
 62
     204
 10
20.8539
 20
34.2374
 30
0.0
 11
20.8304
 21
34.4399
 31
0.0
  0
LINE
  8
0
 62
     204
 10
20.8304
 20
34.4399
 30
0.0
 11
20.6761
 21
35.0339
 31
0.0
  0
LINE
  8
0
 62
     204
 10
20.6761
 20
35.0339
 30
0.0
 11
20.3467
 21
35.7505
 31
0.0
  0
LINE
  8
0
 62
     204
 10
20.3467
 20
35.7505
 30
0.0
 11
19.8878
 21
36.3707
 31
0.0
  0
LINE
  8
0
 62
     204
 10
19.8878
 20
36.3707
 30
0.0
 11
19.3201
 21
36.879
 31
0.0
  0
LINE
  8
0
 62
     204
 10
19.3201
 20
36.879
 30
0.0
 11
18.6697
 21
37.2579
 31
0.0
  0
LINE
  8
0
 62
     204
 10
18.6697
 20
37.2579
 30
0.0
 11
17.9558
 21
37.4922
 31
0.0
  0
LINE
  8
0
 62
     204
 10
17.9558
 20
37.4922
 30
0.0
 11
17.202
 21
37.5652
 31
0.0
  0
LINE
  8
0
 62
     204
 10
17.202
 20
37.5652
 30
0.0
 11
16.6178
 21
37.5087
 31
0.0
  0
LINE
  8
0
 62
     204
 10
16.6178
 20
37.5087
 30
0.0
 11
16.4317
 21
37.4608
 31
0.0
  0
LINE
  8
0
 62
     204
 10
16.4317
 20
37.4608
 30
0.0
 11
16.1286
 21
37.3835
 31
0.0
  0
LINE
  8
0
 62
     204
 10
16.1286
 20
37.3835
 30
0.0
 11
15.2701
 21
36.9591
 31
0.0
  0
LINE
  8
0
 62
     204
 10
15.2701
 20
36.9591
 30
0.0
 11
14.3743
 21
36.1541
 31
0.0
  0
LINE
  8
0
 62
     204
 10
14.3743
 20
36.1541
 30
0.0
 11
13.7983
 21
35.1166
 31
0.0
  0
LINE
  8
0
 62
     204
 10
13.7983
 20
35.1166
 30
0.0
 11
13.5944
 21
34.2112
 31
0.0
  0
LINE
  8
0
 62
     204
 10
13.5944
 20
34.2112
 30
0.0
 11
13.5944
 21
33.9094
 31
0.0
  0
LINE
  8
0
 62
     204
 10
13.5944
 20
33.9094
 30
0.0
 11
13.5944
 21
33.6159
 31
0.0
  0
LINE
  8
0
 62
     204
 10
13.5944
 20
33.6159
 30
0.0
 11
13.7983
 21
32.7339
 31
0.0
  0
LINE
  8
0
 62
     204
 10
13.7983
 20
32.7339
 30
0.0
 11
14.3729
 21
31.7059
 31
0.0
  0
LINE
  8
0
 62
     204
 10
14.3729
 20
31.7059
 30
0.0
 11
15.259
 21
30.897
 31
0.0
  0
LINE
  8
0
 62
     204
 10
15.259
 20
30.897
 30
0.0
 11
16.101
 21
30.4643
 31
0.0
  0
LINE
  8
0
 62
     204
 10
16.101
 20
30.4643
 30
0.0
 11
16.3987
 21
30.3816
 31
0.0
  0
LINE
  8
0
 62
     204
 10
16.3987
 20
30.3816
 30
0.0
 11
16.5227
 21
30.3471
 31
0.0
  0
LINE
  8
0
 62
     204
 10
16.5227
 20
30.3471
 30
0.0
 11
17.3398
 21
30.3058
 31
0.0
  0
LINE
  8
0
 62
     204
 10
17.3398
 20
30.3058
 30
0.0
 11
18.208
 21
30.4285
 31
0.0
  0
LINE
  8
0
 62
     204
 10
18.208
 20
30.4285
 30
0.0
 11
18.3582
 21
30.4753
 31
0.0
  0
LINE
  8
0
 62
     204
 10
18.3582
 20
30.4753
 30
0.0
 11
18.6407
 21
30.5663
 31
0.0
  0
LINE
  8
0
 62
     204
 10
18.6407
 20
30.5663
 30
0.0
 11
19.4248
 21
31.0499
 31
0.0
  0
LINE
  8
0
 62
     204
 10
19.4248
 20
31.0499
 30
0.0
 11
20.2517
 21
31.9512
 31
0.0
  0
LINE
  8
0
 62
     204
 10
20.2517
 20
31.9512
 30
0.0
 11
20.7546
 21
33.055
 31
0.0
  0
LINE
  8
0
 62
     204
 10
20.7546
 20
33.055
 30
0.0
 11
20.8855
 21
33.9494
 31
0.0
  0
LINE
  8
0
 62
     204
 10
20.8855
 20
33.9494
 30
0.0
 11
20.8539
 21
34.2374
 31
0.0
  0
LINE
  8
0
 62
     204
 10
30.2838
 20
33.9576
 30
0.0
 11
30.2838
 21
33.8653
 31
0.0
  0
LINE
  8
0
 62
     204
 10
30.2838
 20
33.8653
 30
0.0
 11
30.2025
 21
33.5842
 31
0.0
  0
LINE
  8
0
 62
     204
 10
30.2025
 20
33.5842
 30
0.0
 11
29.9172
 21
33.5029
 31
0.0
  0
LINE
  8
0
 62
     204
 10
29.9172
 20
33.5029
 30
0.0
 11
29.8235
 21
33.5015
 31
0.0
  0
LINE
  8
0
 62
     204
 10
29.8235
 20
33.5015
 30
0.0
 11
29.7587
 21
33.5015
 31
0.0
  0
LINE
  8
0
 62
     204
 10
29.7587
 20
33.5015
 30
0.0
 11
29.5824
 21
33.303
 31
0.0
  0
LINE
  8
0
 62
     204
 10
29.5824
 20
33.303
 30
0.0
 11
29.5644
 21
33.2631
 31
0.0
  0
LINE
  8
0
 62
     204
 10
29.5644
 20
33.2631
 30
0.0
 11
29.5383
 21
33.208
 31
0.0
  0
LINE
  8
0
 62
     204
 10
29.5383
 20
33.208
 30
0.0
 11
29.49
 21
33.0261
 31
0.0
  0
LINE
  8
0
 62
     204
 10
29.49
 20
33.0261
 30
0.0
 11
29.5824
 21
32.8469
 31
0.0
  0
LINE
  8
0
 62
     204
 10
29.5824
 20
32.8469
 30
0.0
 11
29.6223
 21
32.7932
 31
0.0
  0
LINE
  8
0
 62
     204
 10
29.6223
 20
32.7932
 30
0.0
 11
29.6458
 21
32.7615
 31
0.0
  0
LINE
  8
0
 62
     204
 10
29.6458
 20
32.7615
 30
0.0
 11
29.7932
 21
32.5548
 31
0.0
  0
LINE
  8
0
 62
     204
 10
29.7932
 20
32.5548
 30
0.0
 11
29.7932
 21
32.4845
 31
0.0
  0
LINE
  8
0
 62
     204
 10
29.7932
 20
32.4845
 30
0.0
 11
29.7932
 21
32.406
 31
0.0
  0
LINE
  8
0
 62
     204
 10
29.7932
 20
32.406
 30
0.0
 11
29.5824
 21
32.2034
 31
0.0
  0
LINE
  8
0
 62
     204
 10
29.5824
 20
32.2034
 30
0.0
 11
29.5493
 21
32.1703
 31
0.0
  0
LINE
  8
0
 62
     204
 10
29.5493
 20
32.1703
 30
0.0
 11
29.3067
 21
31.936
 31
0.0
  0
LINE
  8
0
 62
     204
 10
29.3067
 20
31.936
 30
0.0
 11
29.0408
 21
32.1193
 31
0.0
  0
LINE
  8
0
 62
     204
 10
29.0408
 20
32.1193
 30
0.0
 11
28.9953
 21
32.151
 31
0.0
  0
LINE
  8
0
 62
     204
 10
28.9953
 20
32.151
 30
0.0
 11
28.6439
 21
32.2709
 31
0.0
  0
LINE
  8
0
 62
     204
 10
28.6439
 20
32.2709
 30
0.0
 11
28.6191
 21
32.264
 31
0.0
  0
LINE
  8
0
 62
     204
 10
28.6191
 20
32.264
 30
0.0
 11
28.5902
 21
32.2571
 31
0.0
  0
LINE
  8
0
 62
     204
 10
28.5902
 20
32.2571
 30
0.0
 11
28.4248
 21
32.3301
 31
0.0
  0
LINE
  8
0
 62
     204
 10
28.4248
 20
32.3301
 30
0.0
 11
28.4165
 21
32.3536
 31
0.0
  0
LINE
  8
0
 62
     204
 10
28.4165
 20
32.3536
 30
0.0
 11
28.4097
 21
32.3715
 31
0.0
  0
LINE
  8
0
 62
     204
 10
28.4097
 20
32.3715
 30
0.0
 11
28.3311
 21
32.5672
 31
0.0
  0
LINE
  8
0
 62
     204
 10
28.3311
 20
32.5672
 30
0.0
 11
28.2167
 21
32.8386
 31
0.0
  0
LINE
  8
0
 62
     204
 10
28.2167
 20
32.8386
 30
0.0
 11
28.1933
 21
32.8952
 31
0.0
  0
LINE
  8
0
 62
     204
 10
28.1933
 20
32.8952
 30
0.0
 11
28.0142
 21
33.3058
 31
0.0
  0
LINE
  8
0
 62
     204
 10
28.0142
 20
33.3058
 30
0.0
 11
28.1588
 21
33.4202
 31
0.0
  0
LINE
  8
0
 62
     204
 10
28.1588
 20
33.4202
 30
0.0
 11
28.2415
 21
33.4863
 31
0.0
  0
LINE
  8
0
 62
     204
 10
28.2415
 20
33.4863
 30
0.0
 11
28.4165
 21
33.7771
 31
0.0
  0
LINE
  8
0
 62
     204
 10
28.4165
 20
33.7771
 30
0.0
 11
28.4303
 21
34.1574
 31
0.0
  0
LINE
  8
0
 62
     204
 10
28.4303
 20
34.1574
 30
0.0
 11
28.2277
 21
34.462
 31
0.0
  0
LINE
  8
0
 62
     204
 10
28.2277
 20
34.462
 30
0.0
 11
27.9342
 21
34.5846
 31
0.0
  0
LINE
  8
0
 62
     204
 10
27.9342
 20
34.5846
 30
0.0
 11
27.8364
 21
34.5846
 31
0.0
  0
LINE
  8
0
 62
     204
 10
27.8364
 20
34.5846
 30
0.0
 11
27.7372
 21
34.5846
 31
0.0
  0
LINE
  8
0
 62
     204
 10
27.7372
 20
34.5846
 30
0.0
 11
27.4395
 21
34.473
 31
0.0
  0
LINE
  8
0
 62
     204
 10
27.4395
 20
34.473
 30
0.0
 11
27.2094
 21
34.1933
 31
0.0
  0
LINE
  8
0
 62
     204
 10
27.2094
 20
34.1933
 30
0.0
 11
27.1804
 21
33.8377
 31
0.0
  0
LINE
  8
0
 62
     204
 10
27.1804
 20
33.8377
 30
0.0
 11
27.3196
 21
33.5594
 31
0.0
  0
LINE
  8
0
 62
     204
 10
27.3196
 20
33.5594
 30
0.0
 11
27.3926
 21
33.4946
 31
0.0
  0
LINE
  8
0
 62
     204
 10
27.3926
 20
33.4946
 30
0.0
 11
27.6159
 21
33.2948
 31
0.0
  0
LINE
  8
0
 62
     204
 10
27.6159
 20
33.2948
 30
0.0
 11
27.3899
 21
32.7656
 31
0.0
  0
LINE
  8
0
 62
     204
 10
27.3899
 20
32.7656
 30
0.0
 11
27.3417
 21
32.654
 31
0.0
  0
LINE
  8
0
 62
     204
 10
27.3417
 20
32.654
 30
0.0
 11
27.1721
 21
32.3274
 31
0.0
  0
LINE
  8
0
 62
     204
 10
27.1721
 20
32.3274
 30
0.0
 11
27.0357
 21
32.2667
 31
0.0
  0
LINE
  8
0
 62
     204
 10
27.0357
 20
32.2667
 30
0.0
 11
26.9985
 21
32.275
 31
0.0
  0
LINE
  8
0
 62
     204
 10
26.9985
 20
32.275
 30
0.0
 11
26.9696
 21
32.2819
 31
0.0
  0
LINE
  8
0
 62
     204
 10
26.9696
 20
32.2819
 30
0.0
 11
26.6402
 21
32.1675
 31
0.0
  0
LINE
  8
0
 62
     204
 10
26.6402
 20
32.1675
 30
0.0
 11
26.6003
 21
32.1359
 31
0.0
  0
LINE
  8
0
 62
     204
 10
26.6003
 20
32.1359
 30
0.0
 11
26.5672
 21
32.1124
 31
0.0
  0
LINE
  8
0
 62
     204
 10
26.5672
 20
32.1124
 30
0.0
 11
26.3701
 21
31.9581
 31
0.0
  0
LINE
  8
0
 62
     204
 10
26.3701
 20
31.9581
 30
0.0
 11
26.3054
 21
31.9581
 31
0.0
  0
LINE
  8
0
 62
     204
 10
26.3054
 20
31.9581
 30
0.0
 11
26.231
 21
31.9581
 31
0.0
  0
LINE
  8
0
 62
     204
 10
26.231
 20
31.9581
 30
0.0
 11
26.0408
 21
32.1675
 31
0.0
  0
LINE
  8
0
 62
     204
 10
26.0408
 20
32.1675
 30
0.0
 11
26.0091
 21
32.2006
 31
0.0
  0
LINE
  8
0
 62
     204
 10
26.0091
 20
32.2006
 30
0.0
 11
25.7735
 21
32.4431
 31
0.0
  0
LINE
  8
0
 62
     204
 10
25.7735
 20
32.4431
 30
0.0
 11
25.9678
 21
32.7367
 31
0.0
  0
LINE
  8
0
 62
     204
 10
25.9678
 20
32.7367
 30
0.0
 11
26.0105
 21
32.8028
 31
0.0
  0
LINE
  8
0
 62
     204
 10
26.0105
 20
32.8028
 30
0.0
 11
26.118
 21
33.0192
 31
0.0
  0
LINE
  8
0
 62
     204
 10
26.118
 20
33.0192
 30
0.0
 11
26.0849
 21
33.1942
 31
0.0
  0
LINE
  8
0
 62
     204
 10
26.0849
 20
33.1942
 30
0.0
 11
26.0615
 21
33.2438
 31
0.0
  0
LINE
  8
0
 62
     204
 10
26.0615
 20
33.2438
 30
0.0
 11
26.0408
 21
33.2851
 31
0.0
  0
LINE
  8
0
 62
     204
 10
26.0408
 20
33.2851
 30
0.0
 11
25.9154
 21
33.4284
 31
0.0
  0
LINE
  8
0
 62
     204
 10
25.9154
 20
33.4284
 30
0.0
 11
25.7087
 21
33.518
 31
0.0
  0
LINE
  8
0
 62
     204
 10
25.7087
 20
33.518
 30
0.0
 11
25.6494
 21
33.5318
 31
0.0
  0
LINE
  8
0
 62
     204
 10
25.6494
 20
33.5318
 30
0.0
 11
25.3394
 21
33.6062
 31
0.0
  0
LINE
  8
0
 62
     204
 10
25.3394
 20
33.6062
 30
0.0
 11
25.3187
 21
33.97
 31
0.0
  0
LINE
  8
0
 62
     204
 10
25.3187
 20
33.97
 30
0.0
 11
25.298
 21
34.3324
 31
0.0
  0
LINE
  8
0
 62
     204
 10
25.298
 20
34.3324
 30
0.0
 11
25.6219
 21
34.382
 31
0.0
  0
LINE
  8
0
 62
     204
 10
25.6219
 20
34.382
 30
0.0
 11
25.6908
 21
34.3931
 31
0.0
  0
LINE
  8
0
 62
     204
 10
25.6908
 20
34.3931
 30
0.0
 11
25.9071
 21
34.4634
 31
0.0
  0
LINE
  8
0
 62
     204
 10
25.9071
 20
34.4634
 30
0.0
 11
26.0325
 21
34.6136
 31
0.0
  0
LINE
  8
0
 62
     204
 10
26.0325
 20
34.6136
 30
0.0
 11
26.0573
 21
34.6632
 31
0.0
  0
LINE
  8
0
 62
     204
 10
26.0573
 20
34.6632
 30
0.0
 11
26.0835
 21
34.7197
 31
0.0
  0
LINE
  8
0
 62
     204
 10
26.0835
 20
34.7197
 30
0.0
 11
26.1276
 21
34.9057
 31
0.0
  0
LINE
  8
0
 62
     204
 10
26.1276
 20
34.9057
 30
0.0
 11
26.0201
 21
35.1234
 31
0.0
  0
LINE
  8
0
 62
     204
 10
26.0201
 20
35.1234
 30
0.0
 11
25.976
 21
35.1896
 31
0.0
  0
LINE
  8
0
 62
     204
 10
25.976
 20
35.1896
 30
0.0
 11
25.7817
 21
35.4831
 31
0.0
  0
LINE
  8
0
 62
     204
 10
25.7817
 20
35.4831
 30
0.0
 11
26.0339
 21
35.7353
 31
0.0
  0
LINE
  8
0
 62
     204
 10
26.0339
 20
35.7353
 30
0.0
 11
26.0876
 21
35.7904
 31
0.0
  0
LINE
  8
0
 62
     204
 10
26.0876
 20
35.7904
 30
0.0
 11
26.2723
 21
35.935
 31
0.0
  0
LINE
  8
0
 62
     204
 10
26.2723
 20
35.935
 30
0.0
 11
26.4087
 21
35.9131
 31
0.0
  0
LINE
  8
0
 62
     204
 10
26.4087
 20
35.9131
 30
0.0
 11
26.4445
 21
35.8909
 31
0.0
  0
LINE
  8
0
 62
     204
 10
26.4445
 20
35.8909
 30
0.0
 11
26.4652
 21
35.8786
 31
0.0
  0
LINE
  8
0
 62
     204
 10
26.4652
 20
35.8786
 30
0.0
 11
26.7229
 21
35.7202
 31
0.0
  0
LINE
  8
0
 62
     204
 10
26.7229
 20
35.7202
 30
0.0
 11
26.7422
 21
35.7078
 31
0.0
  0
LINE
  8
0
 62
     204
 10
26.7422
 20
35.7078
 30
0.0
 11
26.7698
 21
35.6912
 31
0.0
  0
LINE
  8
0
 62
     204
 10
26.7698
 20
35.6912
 30
0.0
 11
27.0605
 21
35.6979
 31
0.0
  0
LINE
  8
0
 62
     204
 10
27.0605
 20
35.6979
 30
0.0
 11
27.106
 21
35.7159
 31
0.0
  0
LINE
  8
0
 62
     204
 10
27.106
 20
35.7159
 30
0.0
 11
27.1529
 21
35.7367
 31
0.0
  0
LINE
  8
0
 62
     204
 10
27.1529
 20
35.7367
 30
0.0
 11
27.2976
 21
35.8525
 31
0.0
  0
LINE
  8
0
 62
     204
 10
27.2976
 20
35.8525
 30
0.0
 11
27.3665
 21
36.062
 31
0.0
  0
LINE
  8
0
 62
     204
 10
27.3665
 20
36.062
 30
0.0
 11
27.3775
 21
36.1294
 31
0.0
  0
LINE
  8
0
 62
     204
 10
27.3775
 20
36.1294
 30
0.0
 11
27.4243
 21
36.4465
 31
0.0
  0
LINE
  8
0
 62
     204
 10
27.4243
 20
36.4465
 30
0.0
 11
28.163
 21
36.4465
 31
0.0
  0
LINE
  8
0
 62
     204
 10
28.163
 20
36.4465
 30
0.0
 11
28.2429
 21
36.1308
 31
0.0
  0
LINE
  8
0
 62
     204
 10
28.2429
 20
36.1308
 30
0.0
 11
28.2581
 21
36.0673
 31
0.0
  0
LINE
  8
0
 62
     204
 10
28.2581
 20
36.0673
 30
0.0
 11
28.3504
 21
35.8592
 31
0.0
  0
LINE
  8
0
 62
     204
 10
28.3504
 20
35.8592
 30
0.0
 11
28.502
 21
35.7396
 31
0.0
  0
LINE
  8
0
 62
     204
 10
28.502
 20
35.7396
 30
0.0
 11
28.5488
 21
35.7202
 31
0.0
  0
LINE
  8
0
 62
     204
 10
28.5488
 20
35.7202
 30
0.0
 11
28.5998
 21
35.6993
 31
0.0
  0
LINE
  8
0
 62
     204
 10
28.5998
 20
35.6993
 30
0.0
 11
28.7776
 21
35.6676
 31
0.0
  0
LINE
  8
0
 62
     204
 10
28.7776
 20
35.6676
 30
0.0
 11
28.9636
 21
35.7547
 31
0.0
  0
LINE
  8
0
 62
     204
 10
28.9636
 20
35.7547
 30
0.0
 11
29.0201
 21
35.7918
 31
0.0
  0
LINE
  8
0
 62
     204
 10
29.0201
 20
35.7918
 30
0.0
 11
29.0932
 21
35.8415
 31
0.0
  0
LINE
  8
0
 62
     204
 10
29.0932
 20
35.8415
 30
0.0
 11
29.3426
 21
35.9435
 31
0.0
  0
LINE
  8
0
 62
     204
 10
29.3426
 20
35.9435
 30
0.0
 11
29.5493
 21
35.8151
 31
0.0
  0
LINE
  8
0
 62
     204
 10
29.5493
 20
35.8151
 30
0.0
 11
29.6044
 21
35.7586
 31
0.0
  0
LINE
  8
0
 62
     204
 10
29.6044
 20
35.7586
 30
0.0
 11
29.6595
 21
35.7008
 31
0.0
  0
LINE
  8
0
 62
     204
 10
29.6595
 20
35.7008
 30
0.0
 11
29.7822
 21
35.4789
 31
0.0
  0
LINE
  8
0
 62
     204
 10
29.7822
 20
35.4789
 30
0.0
 11
29.694
 21
35.2419
 31
0.0
  0
LINE
  8
0
 62
     204
 10
29.694
 20
35.2419
 30
0.0
 11
29.6471
 21
35.1758
 31
0.0
  0
LINE
  8
0
 62
     204
 10
29.6471
 20
35.1758
 30
0.0
 11
29.6209
 21
35.14
 31
0.0
  0
LINE
  8
0
 62
     204
 10
29.6209
 20
35.14
 30
0.0
 11
29.5383
 21
34.8038
 31
0.0
  0
LINE
  8
0
 62
     204
 10
29.5383
 20
34.8038
 30
0.0
 11
29.5465
 21
34.7665
 31
0.0
  0
LINE
  8
0
 62
     204
 10
29.5465
 20
34.7665
 30
0.0
 11
29.5603
 21
34.7031
 31
0.0
  0
LINE
  8
0
 62
     204
 10
29.5603
 20
34.7031
 30
0.0
 11
29.6802
 21
34.4992
 31
0.0
  0
LINE
  8
0
 62
     204
 10
29.6802
 20
34.4992
 30
0.0
 11
29.9379
 21
34.3917
 31
0.0
  0
LINE
  8
0
 62
     204
 10
29.9379
 20
34.3917
 30
0.0
 11
30.0206
 21
34.3752
 31
0.0
  0
LINE
  8
0
 62
     204
 10
30.0206
 20
34.3752
 30
0.0
 11
30.2838
 21
34.3269
 31
0.0
  0
LINE
  8
0
 62
     204
 10
30.2838
 20
34.3269
 30
0.0
 11
30.2838
 21
33.9576
 31
0.0
  0
LINE
  8
0
 62
     204
 10
31.3972
 20
34.637
 30
0.0
 11
31.3228
 21
34.9898
 31
0.0
  0
LINE
  8
0
 62
     204
 10
31.3228
 20
34.9898
 30
0.0
 11
30.8047
 21
35.9862
 31
0.0
  0
LINE
  8
0
 62
     204
 10
30.8047
 20
35.9862
 30
0.0
 11
29.767
 21
36.9782
 31
0.0
  0
LINE
  8
0
 62
     204
 10
29.767
 20
36.9782
 30
0.0
 11
28.4496
 21
37.5059
 31
0.0
  0
LINE
  8
0
 62
     204
 10
28.4496
 20
37.5059
 30
0.0
 11
27.3582
 21
37.549
 31
0.0
  0
LINE
  8
0
 62
     204
 10
27.3582
 20
37.549
 30
0.0
 11
27.0206
 21
37.4618
 31
0.0
  0
LINE
  8
0
 62
     204
 10
27.0206
 20
37.4618
 30
0.0
 11
26.7656
 21
37.3973
 31
0.0
  0
LINE
  8
0
 62
     204
 10
26.7656
 20
37.3973
 30
0.0
 11
26.0367
 21
37.0692
 31
0.0
  0
LINE
  8
0
 62
     204
 10
26.0367
 20
37.0692
 30
0.0
 11
25.2374
 21
36.4532
 31
0.0
  0
LINE
  8
0
 62
     204
 10
25.2374
 20
36.4532
 30
0.0
 11
24.6448
 21
35.6376
 31
0.0
  0
LINE
  8
0
 62
     204
 10
24.6448
 20
35.6376
 30
0.0
 11
24.3403
 21
34.9016
 31
0.0
  0
LINE
  8
0
 62
     204
 10
24.3403
 20
34.9016
 30
0.0
 11
24.2838
 21
34.6466
 31
0.0
  0
LINE
  8
0
 62
     204
 10
24.2838
 20
34.6466
 30
0.0
 11
24.2204
 21
34.3669
 31
0.0
  0
LINE
  8
0
 62
     204
 10
24.2204
 20
34.3669
 30
0.0
 11
24.2383
 21
33.4794
 31
0.0
  0
LINE
  8
0
 62
     204
 10
24.2383
 20
33.4794
 30
0.0
 11
24.5787
 21
32.3522
 31
0.0
  0
LINE
  8
0
 62
     204
 10
24.5787
 20
32.3522
 30
0.0
 11
25.2525
 21
31.3765
 31
0.0
  0
LINE
  8
0
 62
     204
 10
25.2525
 20
31.3765
 30
0.0
 11
25.943
 21
30.7964
 31
0.0
  0
LINE
  8
0
 62
     204
 10
25.943
 20
30.7964
 30
0.0
 11
26.2048
 21
30.6641
 31
0.0
  0
LINE
  8
0
 62
     204
 10
26.2048
 20
30.6641
 30
0.0
 11
26.2365
 21
30.6489
 31
0.0
  0
LINE
  8
0
 62
     204
 10
26.2365
 20
30.6489
 30
0.0
 11
26.5162
 21
30.5428
 31
0.0
  0
LINE
  8
0
 62
     204
 10
26.5162
 20
30.5428
 30
0.0
 11
26.8704
 21
30.434
 31
0.0
  0
LINE
  8
0
 62
     204
 10
26.8704
 20
30.434
 30
0.0
 11
26.9407
 21
30.4147
 31
0.0
  0
LINE
  8
0
 62
     204
 10
26.9407
 20
30.4147
 30
0.0
 11
27.095
 21
30.3747
 31
0.0
  0
LINE
  8
0
 62
     204
 10
27.095
 20
30.3747
 30
0.0
 11
27.8157
 21
30.2852
 31
0.0
  0
LINE
  8
0
 62
     204
 10
27.8157
 20
30.2852
 30
0.0
 11
28.5006
 21
30.3471
 31
0.0
  0
LINE
  8
0
 62
     204
 10
28.5006
 20
30.3471
 30
0.0
 11
28.6384
 21
30.3816
 31
0.0
  0
LINE
  8
0
 62
     204
 10
28.6384
 20
30.3816
 30
0.0
 11
28.9801
 21
30.4698
 31
0.0
  0
LINE
  8
0
 62
     204
 10
28.9801
 20
30.4698
 30
0.0
 11
29.9448
 21
30.9907
 31
0.0
  0
LINE
  8
0
 62
     204
 10
29.9448
 20
30.9907
 30
0.0
 11
30.8942
 21
31.9884
 31
0.0
  0
LINE
  8
0
 62
     204
 10
30.8942
 20
31.9884
 30
0.0
 11
31.4055
 21
33.2466
 31
0.0
  0
LINE
  8
0
 62
     204
 10
31.4055
 20
33.2466
 30
0.0
 11
31.4661
 21
34.3049
 31
0.0
  0
LINE
  8
0
 62
     204
 10
31.4661
 20
34.3049
 30
0.0
 11
31.3972
 21
34.637
 31
0.0
  0
LINE
  8
0
 62
     204
 10
34.3986
 20
34.925
 30
0.0
 11
34.3586
 21
34.9553
 31
0.0
  0
LINE
  8
0
 62
     204
 10
34.3586
 20
34.9553
 30
0.0
 11
34.1271
 21
35.0532
 31
0.0
  0
LINE
  8
0
 62
     204
 10
34.1271
 20
35.0532
 30
0.0
 11
33.7482
 21
35.1
 31
0.0
  0
LINE
  8
0
 62
     204
 10
33.7482
 20
35.1
 30
0.0
 11
33.6366
 21
35.1041
 31
0.0
  0
LINE
  8
0
 62
     204
 10
33.6366
 20
35.1041
 30
0.0
 11
33.5166
 21
35.1096
 31
0.0
  0
LINE
  8
0
 62
     204
 10
33.5166
 20
35.1096
 30
0.0
 11
33.1211
 21
35.1607
 31
0.0
  0
LINE
  8
0
 62
     204
 10
33.1211
 20
35.1607
 30
0.0
 11
32.8414
 21
35.2848
 31
0.0
  0
LINE
  8
0
 62
     204
 10
32.8414
 20
35.2848
 30
0.0
 11
32.7808
 21
35.3261
 31
0.0
  0
LINE
  8
0
 62
     204
 10
32.7808
 20
35.3261
 30
0.0
 11
32.7326
 21
35.3589
 31
0.0
  0
LINE
  8
0
 62
     204
 10
32.7326
 20
35.3589
 30
0.0
 11
32.4101
 21
35.7477
 31
0.0
  0
LINE
  8
0
 62
     204
 10
32.4101
 20
35.7477
 30
0.0
 11
32.3949
 21
35.7918
 31
0.0
  0
LINE
  8
0
 62
     204
 10
32.3949
 20
35.7918
 30
0.0
 11
32.3357
 21
35.96
 31
0.0
  0
LINE
  8
0
 62
     204
 10
32.3357
 20
35.96
 30
0.0
 11
32.0711
 21
36.4299
 31
0.0
  0
LINE
  8
0
 62
     204
 10
32.0711
 20
36.4299
 30
0.0
 11
31.5764
 21
37.09
 31
0.0
  0
LINE
  8
0
 62
     204
 10
31.5764
 20
37.09
 30
0.0
 11
30.9797
 21
37.6908
 31
0.0
  0
LINE
  8
0
 62
     204
 10
30.9797
 20
37.6908
 30
0.0
 11
30.5194
 21
38.0517
 31
0.0
  0
LINE
  8
0
 62
     204
 10
30.5194
 20
38.0517
 30
0.0
 11
30.3527
 21
38.1483
 31
0.0
  0
LINE
  8
0
 62
     204
 10
30.3527
 20
38.1483
 30
0.0
 11
30.2893
 21
38.1854
 31
0.0
  0
LINE
  8
0
 62
     204
 10
30.2893
 20
38.1854
 30
0.0
 11
29.8662
 21
38.3921
 31
0.0
  0
LINE
  8
0
 62
     204
 10
29.8662
 20
38.3921
 30
0.0
 11
29.4142
 21
38.578
 31
0.0
  0
LINE
  8
0
 62
     204
 10
29.4142
 20
38.578
 30
0.0
 11
29.3371
 21
38.6045
 31
0.0
  0
LINE
  8
0
 62
     204
 10
29.3371
 20
38.6045
 30
0.0
 11
28.7762
 21
38.796
 31
0.0
  0
LINE
  8
0
 62
     204
 10
28.7762
 20
38.796
 30
0.0
 11
22.7169
 21
38.8151
 31
0.0
  0
LINE
  8
0
 62
     204
 10
22.7169
 20
38.8151
 30
0.0
 11
21.8474
 21
38.8179
 31
0.0
  0
LINE
  8
0
 62
     204
 10
21.8474
 20
38.8179
 30
0.0
 11
19.2388
 21
38.825
 31
0.0
  0
LINE
  8
0
 62
     204
 10
19.2388
 20
38.825
 30
0.0
 11
17.3674
 21
38.8126
 31
0.0
  0
LINE
  8
0
 62
     204
 10
17.3674
 20
38.8126
 30
0.0
 11
16.5062
 21
38.771
 31
0.0
  0
LINE
  8
0
 62
     204
 10
16.5062
 20
38.771
 30
0.0
 11
16.1658
 21
38.7131
 31
0.0
  0
LINE
  8
0
 62
     204
 10
16.1658
 20
38.7131
 30
0.0
 11
16.0555
 21
38.6856
 31
0.0
  0
LINE
  8
0
 62
     204
 10
16.0555
 20
38.6856
 30
0.0
 11
15.8612
 21
38.6387
 31
0.0
  0
LINE
  8
0
 62
     204
 10
15.8612
 20
38.6387
 30
0.0
 11
14.8994
 21
38.2379
 31
0.0
  0
LINE
  8
0
 62
     204
 10
14.8994
 20
38.2379
 30
0.0
 11
14.0408
 21
37.6742
 31
0.0
  0
LINE
  8
0
 62
     204
 10
14.0408
 20
37.6742
 30
0.0
 11
13.9003
 21
37.5447
 31
0.0
  0
LINE
  8
0
 62
     204
 10
13.9003
 20
37.5447
 30
0.0
 11
13.7983
 21
37.4523
 31
0.0
  0
LINE
  8
0
 62
     204
 10
13.7983
 20
37.4523
 30
0.0
 11
13.5199
 21
37.1436
 31
0.0
  0
LINE
  8
0
 62
     204
 10
13.5199
 20
37.1436
 30
0.0
 11
13.1492
 21
36.6628
 31
0.0
  0
LINE
  8
0
 62
     204
 10
13.1492
 20
36.6628
 30
0.0
 11
12.8461
 21
36.1858
 31
0.0
  0
LINE
  8
0
 62
     204
 10
12.8461
 20
36.1858
 30
0.0
 11
12.6986
 21
35.8965
 31
0.0
  0
LINE
  8
0
 62
     204
 10
12.6986
 20
35.8965
 30
0.0
 11
12.6683
 21
35.7946
 31
0.0
  0
LINE
  8
0
 62
     204
 10
12.6683
 20
35.7946
 30
0.0
 11
12.6532
 21
35.7477
 31
0.0
  0
LINE
  8
0
 62
     204
 10
12.6532
 20
35.7477
 30
0.0
 11
12.3362
 21
35.3579
 31
0.0
  0
LINE
  8
0
 62
     204
 10
12.3362
 20
35.3579
 30
0.0
 11
12.2811
 21
35.3205
 31
0.0
  0
LINE
  8
0
 62
     204
 10
12.2811
 20
35.3205
 30
0.0
 11
12.2136
 21
35.275
 31
0.0
  0
LINE
  8
0
 62
     204
 10
12.2136
 20
35.275
 30
0.0
 11
11.9393
 21
35.1496
 31
0.0
  0
LINE
  8
0
 62
     204
 10
11.9393
 20
35.1496
 30
0.0
 11
11.5838
 21
35.1138
 31
0.0
  0
LINE
  8
0
 62
     204
 10
11.5838
 20
35.1138
 30
0.0
 11
11.4667
 21
35.1138
 31
0.0
  0
LINE
  8
0
 62
     204
 10
11.4667
 20
35.1138
 30
0.0
 11
11.2723
 21
35.1138
 31
0.0
  0
LINE
  8
0
 62
     204
 10
11.2723
 20
35.1138
 30
0.0
 11
10.7377
 21
35.0008
 31
0.0
  0
LINE
  8
0
 62
     204
 10
10.7377
 20
35.0008
 30
0.0
 11
10.6894
 21
34.976
 31
0.0
  0
LINE
  8
0
 62
     204
 10
10.6894
 20
34.976
 30
0.0
 11
10.4194
 21
34.8382
 31
0.0
  0
LINE
  8
0
 62
     204
 10
10.4194
 20
34.8382
 30
0.0
 11
10.4662
 21
35.2378
 31
0.0
  0
LINE
  8
0
 62
     204
 10
10.4662
 20
35.2378
 30
0.0
 11
10.5365
 21
35.8429
 31
0.0
  0
LINE
  8
0
 62
     204
 10
10.5365
 20
35.8429
 30
0.0
 11
11.4529
 21
38.7847
 31
0.0
  0
LINE
  8
0
 62
     204
 10
11.4529
 20
38.7847
 30
0.0
 11
13.0321
 21
41.4267
 31
0.0
  0
LINE
  8
0
 62
     204
 10
13.0321
 20
41.4267
 30
0.0
 11
13.4345
 21
41.8814
 31
0.0
  0
LINE
  8
0
 62
     204
 10
13.4345
 20
41.8814
 30
0.0
 11
13.8768
 21
42.3831
 31
0.0
  0
LINE
  8
0
 62
     204
 10
13.8768
 20
42.3831
 30
0.0
 11
16.4358
 21
44.3562
 31
0.0
  0
LINE
  8
0
 62
     204
 10
16.4358
 20
44.3562
 30
0.0
 11
19.4427
 21
45.6131
 31
0.0
  0
LINE
  8
0
 62
     204
 10
19.4427
 20
45.6131
 30
0.0
 11
20.1083
 21
45.7549
 31
0.0
  0
LINE
  8
0
 62
     204
 10
20.1083
 20
45.7549
 30
0.0
 11
20.2379
 21
45.7839
 31
0.0
  0
LINE
  8
0
 62
     204
 10
20.2379
 20
45.7839
 30
0.0
 11
20.6306
 21
45.8597
 31
0.0
  0
LINE
  8
0
 62
     204
 10
20.6306
 20
45.8597
 30
0.0
 11
21.0991
 21
45.9161
 31
0.0
  0
LINE
  8
0
 62
     204
 10
21.0991
 20
45.9161
 30
0.0
 11
21.6862
 21
45.9412
 31
0.0
  0
LINE
  8
0
 62
     204
 10
21.6862
 20
45.9412
 30
0.0
 11
22.3477
 21
45.9451
 31
0.0
  0
LINE
  8
0
 62
     204
 10
22.3477
 20
45.9451
 30
0.0
 11
22.5695
 21
45.9451
 31
0.0
  0
LINE
  8
0
 62
     204
 10
22.5695
 20
45.9451
 30
0.0
 11
22.7914
 21
45.9451
 31
0.0
  0
LINE
  8
0
 62
     204
 10
22.7914
 20
45.9451
 30
0.0
 11
23.4583
 21
45.9412
 31
0.0
  0
LINE
  8
0
 62
     204
 10
23.4583
 20
45.9412
 30
0.0
 11
24.0468
 21
45.9161
 31
0.0
  0
LINE
  8
0
 62
     204
 10
24.0468
 20
45.9161
 30
0.0
 11
24.5181
 21
45.8569
 31
0.0
  0
LINE
  8
0
 62
     204
 10
24.5181
 20
45.8569
 30
0.0
 11
24.9246
 21
45.7771
 31
0.0
  0
LINE
  8
0
 62
     204
 10
24.9246
 20
45.7771
 30
0.0
 11
25.0596
 21
45.7482
 31
0.0
  0
LINE
  8
0
 62
     204
 10
25.0596
 20
45.7482
 30
0.0
 11
25.9209
 21
45.562
 31
0.0
  0
LINE
  8
0
 62
     204
 10
25.9209
 20
45.562
 30
0.0
 11
28.4014
 21
44.5064
 31
0.0
  0
LINE
  8
0
 62
     204
 10
28.4014
 20
44.5064
 30
0.0
 11
31.1781
 21
42.4244
 31
0.0
  0
LINE
  8
0
 62
     204
 10
31.1781
 20
42.4244
 30
0.0
 11
33.2493
 21
39.6448
 31
0.0
  0
LINE
  8
0
 62
     204
 10
33.2493
 20
39.6448
 30
0.0
 11
34.2938
 21
37.1669
 31
0.0
  0
LINE
  8
0
 62
     204
 10
34.2938
 20
37.1669
 30
0.0
 11
34.4771
 21
36.3058
 31
0.0
  0
LINE
  8
0
 62
     204
 10
34.4771
 20
36.3058
 30
0.0
 11
34.5199
 21
36.1019
 31
0.0
  0
LINE
  8
0
 62
     204
 10
34.5199
 20
36.1019
 30
0.0
 11
34.6618
 21
35.2282
 31
0.0
  0
LINE
  8
0
 62
     204
 10
34.6618
 20
35.2282
 30
0.0
 11
34.6563
 21
34.7665
 31
0.0
  0
LINE
  8
0
 62
     204
 10
34.6563
 20
34.7665
 30
0.0
 11
34.6563
 21
34.7665
 31
0.0
  0
LINE
  8
0
 62
     204
 10
34.6563
 20
34.7665
 30
0.0
 11
34.648
 21
34.7679
 31
0.0
  0
LINE
  8
0
 62
     204
 10
34.648
 20
34.7679
 30
0.0
 11
34.4248
 21
34.9043
 31
0.0
  0
LINE
  8
0
 62
     204
 10
34.4248
 20
34.9043
 30
0.0
 11
34.3986
 21
34.925
 31
0.0
  0
LINE
  8
0
 62
     204
 10
0.591178
 20
6.64351
 30
0.0
 11
0.591178
 21
4.06936
 31
0.0
  0
LINE
  8
0
 62
     204
 10
0.591178
 20
4.06936
 30
0.0
 11
3.53603
 21
4.06936
 31
0.0
  0
LINE
  8
0
 62
     204
 10
3.53603
 20
4.06936
 30
0.0
 11
3.53603
 21
6.64351
 31
0.0
  0
LINE
  8
0
 62
     204
 10
3.53603
 20
6.64351
 30
0.0
 11
3.53603
 21
6.7152
 31
0.0
  0
LINE
  8
0
 62
     204
 10
3.53603
 20
6.7152
 30
0.0
 11
3.74689
 21
6.92739
 31
0.0
  0
LINE
  8
0
 62
     204
 10
3.74689
 20
6.92739
 30
0.0
 11
3.81854
 21
6.92739
 31
0.0
  0
LINE
  8
0
 62
     204
 10
3.81854
 20
6.92739
 30
0.0
 11
3.88881
 21
6.92739
 31
0.0
  0
LINE
  8
0
 62
     204
 10
3.88881
 20
6.92739
 30
0.0
 11
4.10104
 21
6.7152
 31
0.0
  0
LINE
  8
0
 62
     204
 10
4.10104
 20
6.7152
 30
0.0
 11
4.10104
 21
6.64351
 31
0.0
  0
LINE
  8
0
 62
     204
 10
4.10104
 20
6.64351
 30
0.0
 11
4.10104
 21
0.373447
 31
0.0
  0
LINE
  8
0
 62
     204
 10
4.10104
 20
0.373447
 30
0.0
 11
4.10104
 21
0.303168
 31
0.0
  0
LINE
  8
0
 62
     204
 10
4.10104
 20
0.303168
 30
0.0
 11
3.88881
 21
0.0895724
 31
0.0
  0
LINE
  8
0
 62
     204
 10
3.88881
 20
0.0895724
 30
0.0
 11
3.81854
 21
0.0895724
 31
0.0
  0
LINE
  8
0
 62
     204
 10
3.81854
 20
0.0895724
 30
0.0
 11
3.74689
 21
0.0895724
 31
0.0
  0
LINE
  8
0
 62
     204
 10
3.74689
 20
0.0895724
 30
0.0
 11
3.53603
 21
0.303168
 31
0.0
  0
LINE
  8
0
 62
     204
 10
3.53603
 20
0.303168
 30
0.0
 11
3.53603
 21
0.373447
 31
0.0
  0
LINE
  8
0
 62
     204
 10
3.53603
 20
0.373447
 30
0.0
 11
3.53603
 21
3.51262
 31
0.0
  0
LINE
  8
0
 62
     204
 10
3.53603
 20
3.51262
 30
0.0
 11
0.591178
 21
3.51262
 31
0.0
  0
LINE
  8
0
 62
     204
 10
0.591178
 20
3.51262
 30
0.0
 11
0.591178
 21
0.373447
 31
0.0
  0
LINE
  8
0
 62
     204
 10
0.591178
 20
0.373447
 30
0.0
 11
0.591178
 21
0.303168
 31
0.0
  0
LINE
  8
0
 62
     204
 10
0.591178
 20
0.303168
 30
0.0
 11
0.378961
 21
0.0895724
 31
0.0
  0
LINE
  8
0
 62
     204
 10
0.378961
 20
0.0895724
 30
0.0
 11
0.308681
 21
0.0895724
 31
0.0
  0
LINE
  8
0
 62
     204
 10
0.308681
 20
0.0895724
 30
0.0
 11
0.239779
 21
0.0895724
 31
0.0
  0
LINE
  8
0
 62
     204
 10
0.239779
 20
0.0895724
 30
0.0
 11
0.034451
 21
0.303168
 31
0.0
  0
LINE
  8
0
 62
     204
 10
0.034451
 20
0.303168
 30
0.0
 11
0.034451
 21
0.373447
 31
0.0
  0
LINE
  8
0
 62
     204
 10
0.034451
 20
0.373447
 30
0.0
 11
0.034451
 21
6.64351
 31
0.0
  0
LINE
  8
0
 62
     204
 10
0.034451
 20
6.64351
 30
0.0
 11
0.034451
 21
6.7152
 31
0.0
  0
LINE
  8
0
 62
     204
 10
0.034451
 20
6.7152
 30
0.0
 11
0.239779
 21
6.92739
 31
0.0
  0
LINE
  8
0
 62
     204
 10
0.239779
 20
6.92739
 30
0.0
 11
0.308681
 21
6.92739
 31
0.0
  0
LINE
  8
0
 62
     204
 10
0.308681
 20
6.92739
 30
0.0
 11
0.378961
 21
6.92739
 31
0.0
  0
LINE
  8
0
 62
     204
 10
0.378961
 20
6.92739
 30
0.0
 11
0.591178
 21
6.7152
 31
0.0
  0
LINE
  8
0
 62
     204
 10
0.591178
 20
6.7152
 30
0.0
 11
0.591178
 21
6.64351
 31
0.0
  0
LINE
  8
0
 62
     204
 10
6.66694
 20
0.56086
 30
0.0
 11
6.92602
 21
0.56086
 31
0.0
  0
LINE
  8
0
 62
     204
 10
6.92602
 20
0.56086
 30
0.0
 11
7.6302
 21
0.921907
 31
0.0
  0
LINE
  8
0
 62
     204
 10
7.6302
 20
0.921907
 30
0.0
 11
7.70322
 21
0.993567
 31
0.0
  0
LINE
  8
0
 62
     204
 10
7.70322
 20
0.993567
 30
0.0
 11
7.77353
 21
1.06385
 31
0.0
  0
LINE
  8
0
 62
     204
 10
7.77353
 20
1.06385
 30
0.0
 11
8.14006
 21
1.9265
 31
0.0
  0
LINE
  8
0
 62
     204
 10
8.14006
 20
1.9265
 30
0.0
 11
8.14282
 21
2.02847
 31
0.0
  0
LINE
  8
0
 62
     204
 10
8.14282
 20
2.02847
 30
0.0
 11
8.14282
 21
2.93936
 31
0.0
  0
LINE
  8
0
 62
     204
 10
8.14282
 20
2.93936
 30
0.0
 11
6.40098
 21
2.93936
 31
0.0
  0
LINE
  8
0
 62
     204
 10
6.40098
 20
2.93936
 30
0.0
 11
6.40098
 21
2.94762
 31
0.0
  0
LINE
  8
0
 62
     204
 10
6.40098
 20
2.94762
 30
0.0
 11
6.39272
 21
2.94762
 31
0.0
  0
LINE
  8
0
 62
     204
 10
6.39272
 20
2.94762
 30
0.0
 11
6.18049
 21
2.94762
 31
0.0
  0
LINE
  8
0
 62
     204
 10
6.18049
 20
2.94762
 30
0.0
 11
5.6031
 21
2.6541
 31
0.0
  0
LINE
  8
0
 62
     204
 10
5.6031
 20
2.6541
 30
0.0
 11
5.54524
 21
2.59485
 31
0.0
  0
LINE
  8
0
 62
     204
 10
5.54524
 20
2.59485
 30
0.0
 11
5.48735
 21
2.53697
 31
0.0
  0
LINE
  8
0
 62
     204
 10
5.48735
 20
2.53697
 30
0.0
 11
5.19934
 21
1.94992
 31
0.0
  0
LINE
  8
0
 62
     204
 10
5.19934
 20
1.94992
 30
0.0
 11
5.19934
 21
1.75424
 31
0.0
  0
LINE
  8
0
 62
     204
 10
5.19934
 20
1.75424
 30
0.0
 11
5.19934
 21
1.54202
 31
0.0
  0
LINE
  8
0
 62
     204
 10
5.19934
 20
1.54202
 30
0.0
 11
5.48735
 21
0.967384
 31
0.0
  0
LINE
  8
0
 62
     204
 10
5.48735
 20
0.967384
 30
0.0
 11
5.54524
 21
0.905372
 31
0.0
  0
LINE
  8
0
 62
     204
 10
5.54524
 20
0.905372
 30
0.0
 11
5.60585
 21
0.848872
 31
0.0
  0
LINE
  8
0
 62
     204
 10
5.60585
 20
0.848872
 30
0.0
 11
6.19566
 21
0.56086
 31
0.0
  0
LINE
  8
0
 62
     204
 10
6.19566
 20
0.56086
 30
0.0
 11
6.39272
 21
0.56086
 31
0.0
  0
LINE
  8
0
 62
     204
 10
6.39272
 20
0.56086
 30
0.0
 11
6.40098
 21
0.56086
 31
0.0
  0
LINE
  8
0
 62
     204
 10
6.40098
 20
0.56086
 30
0.0
 11
6.40098
 21
0.569129
 31
0.0
  0
LINE
  8
0
 62
     204
 10
6.40098
 20
0.569129
 30
0.0
 11
6.65868
 21
0.569129
 31
0.0
  0
LINE
  8
0
 62
     204
 10
6.65868
 20
0.569129
 30
0.0
 11
6.65868
 21
0.56086
 31
0.0
  0
LINE
  8
0
 62
     204
 10
6.65868
 20
0.56086
 30
0.0
 11
6.66694
 21
0.56086
 31
0.0
  0
LINE
  8
0
 62
     204
 10
6.63526
 20
0.00413413
 30
0.0
 11
6.39272
 21
0.00413413
 31
0.0
  0
LINE
  8
0
 62
     204
 10
6.39272
 20
0.00413413
 30
0.0
 11
6.08267
 21
0.00413413
 31
0.0
  0
LINE
  8
0
 62
     204
 10
6.08267
 20
0.00413413
 30
0.0
 11
5.24069
 21
0.429948
 31
0.0
  0
LINE
  8
0
 62
     204
 10
5.24069
 20
0.429948
 30
0.0
 11
5.1525
 21
0.514008
 31
0.0
  0
LINE
  8
0
 62
     204
 10
5.1525
 20
0.514008
 30
0.0
 11
5.06705
 21
0.603582
 31
0.0
  0
LINE
  8
0
 62
     204
 10
5.06705
 20
0.603582
 30
0.0
 11
4.64125
 21
1.46761
 31
0.0
  0
LINE
  8
0
 62
     204
 10
4.64125
 20
1.46761
 30
0.0
 11
4.64125
 21
1.75424
 31
0.0
  0
LINE
  8
0
 62
     204
 10
4.64125
 20
1.75424
 30
0.0
 11
4.64125
 21
1.92374
 31
0.0
  0
LINE
  8
0
 62
     204
 10
4.64125
 20
1.92374
 30
0.0
 11
4.76663
 21
2.4281
 31
0.0
  0
LINE
  8
0
 62
     204
 10
4.76663
 20
2.4281
 30
0.0
 11
5.06017
 21
2.90353
 31
0.0
  0
LINE
  8
0
 62
     204
 10
5.06017
 20
2.90353
 30
0.0
 11
5.14421
 21
2.98621
 31
0.0
  0
LINE
  8
0
 62
     204
 10
5.14421
 20
2.98621
 30
0.0
 11
5.22827
 21
3.07165
 31
0.0
  0
LINE
  8
0
 62
     204
 10
5.22827
 20
3.07165
 30
0.0
 11
5.70646
 21
3.37344
 31
0.0
  0
LINE
  8
0
 62
     204
 10
5.70646
 20
3.37344
 30
0.0
 11
6.25493
 21
3.50986
 31
0.0
  0
LINE
  8
0
 62
     204
 10
6.25493
 20
3.50986
 30
0.0
 11
6.37618
 21
3.51262
 31
0.0
  0
LINE
  8
0
 62
     204
 10
6.37618
 20
3.51262
 30
0.0
 11
8.14282
 21
3.51262
 31
0.0
  0
LINE
  8
0
 62
     204
 10
8.14282
 20
3.51262
 30
0.0
 11
8.14282
 21
3.9522
 31
0.0
  0
LINE
  8
0
 62
     204
 10
8.14282
 20
3.9522
 30
0.0
 11
8.14006
 21
4.0349
 31
0.0
  0
LINE
  8
0
 62
     204
 10
8.14006
 20
4.0349
 30
0.0
 11
7.8383
 21
4.6881
 31
0.0
  0
LINE
  8
0
 62
     204
 10
7.8383
 20
4.6881
 30
0.0
 11
7.78178
 21
4.73632
 31
0.0
  0
LINE
  8
0
 62
     204
 10
7.78178
 20
4.73632
 30
0.0
 11
7.72389
 21
4.7873
 31
0.0
  0
LINE
  8
0
 62
     204
 10
7.72389
 20
4.7873
 30
0.0
 11
7.14237
 21
5.04225
 31
0.0
  0
LINE
  8
0
 62
     204
 10
7.14237
 20
5.04225
 30
0.0
 11
6.94944
 21
5.04225
 31
0.0
  0
LINE
  8
0
 62
     204
 10
6.94944
 20
5.04225
 30
0.0
 11
6.94119
 21
5.04225
 31
0.0
  0
LINE
  8
0
 62
     204
 10
6.94119
 20
5.04225
 30
0.0
 11
6.92051
 21
5.04776
 31
0.0
  0
LINE
  8
0
 62
     204
 10
6.92051
 20
5.04776
 30
0.0
 11
6.91776
 21
5.04776
 31
0.0
  0
LINE
  8
0
 62
     204
 10
6.91776
 20
5.04776
 30
0.0
 11
6.91501
 21
5.04913
 31
0.0
  0
LINE
  8
0
 62
     204
 10
6.91501
 20
5.04913
 30
0.0
 11
6.87504
 21
5.05739
 31
0.0
  0
LINE
  8
0
 62
     204
 10
6.87504
 20
5.05739
 30
0.0
 11
6.87091
 21
5.05876
 31
0.0
  0
LINE
  8
0
 62
     204
 10
6.87091
 20
5.05876
 30
0.0
 11
5.48185
 21
5.05876
 31
0.0
  0
LINE
  8
0
 62
     204
 10
5.48185
 20
5.05876
 30
0.0
 11
5.41016
 21
5.05876
 31
0.0
  0
LINE
  8
0
 62
     204
 10
5.41016
 20
5.05876
 30
0.0
 11
5.19934
 21
5.27099
 31
0.0
  0
LINE
  8
0
 62
     204
 10
5.19934
 20
5.27099
 30
0.0
 11
5.19934
 21
5.34127
 31
0.0
  0
LINE
  8
0
 62
     204
 10
5.19934
 20
5.34127
 30
0.0
 11
5.19934
 21
5.41016
 31
0.0
  0
LINE
  8
0
 62
     204
 10
5.19934
 20
5.41016
 30
0.0
 11
5.41016
 21
5.61552
 31
0.0
  0
LINE
  8
0
 62
     204
 10
5.41016
 20
5.61552
 30
0.0
 11
5.48185
 21
5.61552
 31
0.0
  0
LINE
  8
0
 62
     204
 10
5.48185
 20
5.61552
 30
0.0
 11
6.94944
 21
5.61552
 31
0.0
  0
LINE
  8
0
 62
     204
 10
6.94944
 20
5.61552
 30
0.0
 11
6.95635
 21
5.61552
 31
0.0
  0
LINE
  8
0
 62
     204
 10
6.95635
 20
5.61552
 30
0.0
 11
6.97699
 21
5.61277
 31
0.0
  0
LINE
  8
0
 62
     204
 10
6.97699
 20
5.61277
 30
0.0
 11
6.98115
 21
5.61139
 31
0.0
  0
LINE
  8
0
 62
     204
 10
6.98115
 20
5.61139
 30
0.0
 11
6.98391
 21
5.61139
 31
0.0
  0
LINE
  8
0
 62
     204
 10
6.98391
 20
5.61139
 30
0.0
 11
7.03763
 21
5.60172
 31
0.0
  0
LINE
  8
0
 62
     204
 10
7.03763
 20
5.60172
 30
0.0
 11
7.04455
 21
5.60035
 31
0.0
  0
LINE
  8
0
 62
     204
 10
7.04455
 20
5.60035
 30
0.0
 11
7.14925
 21
5.59484
 31
0.0
  0
LINE
  8
0
 62
     204
 10
7.14925
 20
5.59484
 30
0.0
 11
8.05187
 21
5.24757
 31
0.0
  0
LINE
  8
0
 62
     204
 10
8.05187
 20
5.24757
 30
0.0
 11
8.12768
 21
5.18418
 31
0.0
  0
LINE
  8
0
 62
     204
 10
8.12768
 20
5.18418
 30
0.0
 11
8.20483
 21
5.12216
 31
0.0
  0
LINE
  8
0
 62
     204
 10
8.20483
 20
5.12216
 30
0.0
 11
8.66786
 21
4.30498
 31
0.0
  0
LINE
  8
0
 62
     204
 10
8.66786
 20
4.30498
 30
0.0
 11
8.6844
 21
4.20303
 31
0.0
  0
LINE
  8
0
 62
     204
 10
8.6844
 20
4.20303
 30
0.0
 11
8.68715
 21
4.19336
 31
0.0
  0
LINE
  8
0
 62
     204
 10
8.68715
 20
4.19336
 30
0.0
 11
8.70783
 21
4.12447
 31
0.0
  0
LINE
  8
0
 62
     204
 10
8.70783
 20
4.12447
 30
0.0
 11
8.70783
 21
4.10104
 31
0.0
  0
LINE
  8
0
 62
     204
 10
8.70783
 20
4.10104
 30
0.0
 11
8.70783
 21
0.373447
 31
0.0
  0
LINE
  8
0
 62
     204
 10
8.70783
 20
0.373447
 30
0.0
 11
8.70783
 21
0.303168
 31
0.0
  0
LINE
  8
0
 62
     204
 10
8.70783
 20
0.303168
 30
0.0
 11
8.49559
 21
0.0895724
 31
0.0
  0
LINE
  8
0
 62
     204
 10
8.49559
 20
0.0895724
 30
0.0
 11
8.42532
 21
0.0895724
 31
0.0
  0
LINE
  8
0
 62
     204
 10
8.42532
 20
0.0895724
 30
0.0
 11
8.35367
 21
0.0895724
 31
0.0
  0
LINE
  8
0
 62
     204
 10
8.35367
 20
0.0895724
 30
0.0
 11
8.14282
 21
0.303168
 31
0.0
  0
LINE
  8
0
 62
     204
 10
8.14282
 20
0.303168
 30
0.0
 11
8.14282
 21
0.373447
 31
0.0
  0
LINE
  8
0
 62
     204
 10
8.14282
 20
0.373447
 30
0.0
 11
8.14282
 21
0.63941
 31
0.0
  0
LINE
  8
0
 62
     204
 10
8.14282
 20
0.63941
 30
0.0
 11
8.04224
 21
0.533301
 31
0.0
  0
LINE
  8
0
 62
     204
 10
8.04224
 20
0.533301
 30
0.0
 11
7.47173
 21
0.162609
 31
0.0
  0
LINE
  8
0
 62
     204
 10
7.47173
 20
0.162609
 30
0.0
 11
6.86816
 21
0.00413413
 31
0.0
  0
LINE
  8
0
 62
     204
 10
6.86816
 20
0.00413413
 30
0.0
 11
6.66694
 21
0.00413413
 31
0.0
  0
LINE
  8
0
 62
     204
 10
6.66694
 20
0.00413413
 30
0.0
 11
6.63526
 21
0.00413413
 31
0.0
  0
LINE
  8
0
 62
     204
 10
13.3036
 20
4.00322
 30
0.0
 11
13.3022
 21
4.00597
 31
0.0
  0
LINE
  8
0
 62
     204
 10
13.3022
 20
4.00597
 30
0.0
 11
13.3008
 21
4.01835
 31
0.0
  0
LINE
  8
0
 62
     204
 10
13.3008
 20
4.01835
 30
0.0
 11
13.3008
 21
4.02248
 31
0.0
  0
LINE
  8
0
 62
     204
 10
13.3008
 20
4.02248
 30
0.0
 11
13.3008
 21
4.01835
 31
0.0
  0
LINE
  8
0
 62
     204
 10
13.3008
 20
4.01835
 30
0.0
 11
13.3022
 21
4.00597
 31
0.0
  0
LINE
  8
0
 62
     204
 10
13.3022
 20
4.00597
 30
0.0
 11
13.3036
 21
4.00322
 31
0.0
  0
LINE
  8
0
 62
     204
 10
13.3036
 20
4.00322
 30
0.0
 11
13.3036
 21
4.00184
 31
0.0
  0
LINE
  8
0
 62
     204
 10
13.3036
 20
4.00184
 30
0.0
 11
13.3077
 21
3.98254
 31
0.0
  0
LINE
  8
0
 62
     204
 10
13.3077
 20
3.98254
 30
0.0
 11
13.3077
 21
3.97563
 31
0.0
  0
LINE
  8
0
 62
     204
 10
13.3077
 20
3.97563
 30
0.0
 11
13.3077
 21
3.98254
 31
0.0
  0
LINE
  8
0
 62
     204
 10
13.3077
 20
3.98254
 30
0.0
 11
13.3036
 21
4.00184
 31
0.0
  0
LINE
  8
0
 62
     204
 10
13.3036
 20
4.00184
 30
0.0
 11
13.3036
 21
4.00322
 31
0.0
  0
LINE
  8
0
 62
     204
 10
9.79921
 20
1.74597
 30
0.0
 11
9.802
 21
1.66467
 31
0.0
  0
LINE
  8
0
 62
     204
 10
9.802
 20
1.66467
 30
0.0
 11
10.0955
 21
0.970139
 31
0.0
  0
LINE
  8
0
 62
     204
 10
10.0955
 20
0.970139
 30
0.0
 11
10.152
 21
0.913638
 31
0.0
  0
LINE
  8
0
 62
     204
 10
10.152
 20
0.913638
 30
0.0
 11
10.2126
 21
0.857141
 31
0.0
  0
LINE
  8
0
 62
     204
 10
10.2126
 20
0.857141
 30
0.0
 11
10.7969
 21
0.569129
 31
0.0
  0
LINE
  8
0
 62
     204
 10
10.7969
 20
0.569129
 30
0.0
 11
10.9926
 21
0.569129
 31
0.0
  0
LINE
  8
0
 62
     204
 10
10.9926
 20
0.569129
 30
0.0
 11
11.5493
 21
0.569129
 31
0.0
  0
LINE
  8
0
 62
     204
 10
11.5493
 20
0.569129
 30
0.0
 11
11.7588
 21
0.569129
 31
0.0
  0
LINE
  8
0
 62
     204
 10
11.7588
 20
0.569129
 30
0.0
 11
12.3321
 21
0.857141
 31
0.0
  0
LINE
  8
0
 62
     204
 10
12.3321
 20
0.857141
 30
0.0
 11
12.3899
 21
0.913638
 31
0.0
  0
LINE
  8
0
 62
     204
 10
12.3899
 20
0.913638
 30
0.0
 11
12.4478
 21
0.972894
 31
0.0
  0
LINE
  8
0
 62
     204
 10
12.4478
 20
0.972894
 30
0.0
 11
12.7427
 21
1.56407
 31
0.0
  0
LINE
  8
0
 62
     204
 10
12.7427
 20
1.56407
 30
0.0
 11
12.7427
 21
1.76113
 31
0.0
  0
LINE
  8
0
 62
     204
 10
12.7427
 20
1.76113
 30
0.0
 11
12.7441
 21
1.80661
 31
0.0
  0
LINE
  8
0
 62
     204
 10
12.7441
 20
1.80661
 30
0.0
 11
12.955
 21
2.02847
 31
0.0
  0
LINE
  8
0
 62
     204
 10
12.955
 20
2.02847
 30
0.0
 11
13.0252
 21
2.02847
 31
0.0
  0
LINE
  8
0
 62
     204
 10
13.0252
 20
2.02847
 30
0.0
 11
13.0955
 21
2.02847
 31
0.0
  0
LINE
  8
0
 62
     204
 10
13.0955
 20
2.02847
 30
0.0
 11
13.3064
 21
1.80661
 31
0.0
  0
LINE
  8
0
 62
     204
 10
13.3064
 20
1.80661
 30
0.0
 11
13.3077
 21
1.76113
 31
0.0
  0
LINE
  8
0
 62
     204
 10
13.3077
 20
1.76113
 30
0.0
 11
13.3077
 21
1.73771
 31
0.0
  0
LINE
  8
0
 62
     204
 10
13.3077
 20
1.73771
 30
0.0
 11
13.3064
 21
1.62057
 31
0.0
  0
LINE
  8
0
 62
     204
 10
13.3064
 20
1.62057
 30
0.0
 11
12.8681
 21
0.600826
 31
0.0
  0
LINE
  8
0
 62
     204
 10
12.8681
 20
0.600826
 30
0.0
 11
12.7827
 21
0.514008
 31
0.0
  0
LINE
  8
0
 62
     204
 10
12.7827
 20
0.514008
 30
0.0
 11
12.6986
 21
0.431327
 31
0.0
  0
LINE
  8
0
 62
     204
 10
12.6986
 20
0.431327
 30
0.0
 11
12.226
 21
0.136426
 31
0.0
  0
LINE
  8
0
 62
     204
 10
12.226
 20
0.136426
 30
0.0
 11
11.6844
 21
0.00551215
 31
0.0
  0
LINE
  8
0
 62
     204
 10
11.6844
 20
0.00551215
 30
0.0
 11
11.5659
 21
0.00413413
 31
0.0
  0
LINE
  8
0
 62
     204
 10
11.5659
 20
0.00413413
 30
0.0
 11
10.9761
 21
0.00413413
 31
0.0
  0
LINE
  8
0
 62
     204
 10
10.9761
 20
0.00413413
 30
0.0
 11
10.8575
 21
0.00689021
 31
0.0
  0
LINE
  8
0
 62
     204
 10
10.8575
 20
0.00689021
 30
0.0
 11
9.85023
 21
0.418924
 31
0.0
  0
LINE
  8
0
 62
     204
 10
9.85023
 20
0.418924
 30
0.0
 11
9.76753
 21
0.497473
 31
0.0
  0
LINE
  8
0
 62
     204
 10
9.76753
 20
0.497473
 30
0.0
 11
9.68347
 21
0.577398
 31
0.0
  0
LINE
  8
0
 62
     204
 10
9.68347
 20
0.577398
 30
0.0
 11
9.38445
 21
1.03491
 31
0.0
  0
LINE
  8
0
 62
     204
 10
9.38445
 20
1.03491
 30
0.0
 11
9.24525
 21
1.56683
 31
0.0
  0
LINE
  8
0
 62
     204
 10
9.24525
 20
1.56683
 30
0.0
 11
9.2425
 21
1.68396
 31
0.0
  0
LINE
  8
0
 62
     204
 10
9.2425
 20
1.68396
 30
0.0
 11
9.2425
 21
3.73172
 31
0.0
  0
LINE
  8
0
 62
     204
 10
9.2425
 20
3.73172
 30
0.0
 11
9.2425
 21
3.86539
 31
0.0
  0
LINE
  8
0
 62
     204
 10
9.2425
 20
3.86539
 30
0.0
 11
9.38996
 21
4.47587
 31
0.0
  0
LINE
  8
0
 62
     204
 10
9.38996
 20
4.47587
 30
0.0
 11
9.72619
 21
5.01054
 31
0.0
  0
LINE
  8
0
 62
     204
 10
9.72619
 20
5.01054
 30
0.0
 11
9.82267
 21
5.10565
 31
0.0
  0
LINE
  8
0
 62
     204
 10
9.82267
 20
5.10565
 30
0.0
 11
9.91637
 21
5.20072
 31
0.0
  0
LINE
  8
0
 62
     204
 10
9.91637
 20
5.20072
 30
0.0
 11
10.451
 21
5.5397
 31
0.0
  0
LINE
  8
0
 62
     204
 10
10.451
 20
5.5397
 30
0.0
 11
11.0684
 21
5.70509
 31
0.0
  0
LINE
  8
0
 62
     204
 10
11.0684
 20
5.70509
 30
0.0
 11
11.2048
 21
5.71059
 31
0.0
  0
LINE
  8
0
 62
     204
 10
11.2048
 20
5.71059
 30
0.0
 11
11.6279
 21
5.71059
 31
0.0
  0
LINE
  8
0
 62
     204
 10
11.6279
 20
5.71059
 30
0.0
 11
11.6292
 21
5.70921
 31
0.0
  0
LINE
  8
0
 62
     204
 10
11.6292
 20
5.70921
 30
0.0
 11
11.6458
 21
5.70234
 31
0.0
  0
LINE
  8
0
 62
     204
 10
11.6458
 20
5.70234
 30
0.0
 11
11.6513
 21
5.70234
 31
0.0
  0
LINE
  8
0
 62
     204
 10
11.6513
 20
5.70234
 30
0.0
 11
11.723
 21
5.70234
 31
0.0
  0
LINE
  8
0
 62
     204
 10
11.723
 20
5.70234
 30
0.0
 11
11.7257
 21
5.70234
 31
0.0
  0
LINE
  8
0
 62
     204
 10
11.7257
 20
5.70234
 30
0.0
 11
11.7367
 21
5.69542
 31
0.0
  0
LINE
  8
0
 62
     204
 10
11.7367
 20
5.69542
 30
0.0
 11
11.7381
 21
5.69405
 31
0.0
  0
LINE
  8
0
 62
     204
 10
11.7381
 20
5.69405
 30
0.0
 11
11.785
 21
5.69405
 31
0.0
  0
LINE
  8
0
 62
     204
 10
11.785
 20
5.69405
 30
0.0
 11
11.7878
 21
5.69267
 31
0.0
  0
LINE
  8
0
 62
     204
 10
11.7878
 20
5.69267
 30
0.0
 11
11.8084
 21
5.68579
 31
0.0
  0
LINE
  8
0
 62
     204
 10
11.8084
 20
5.68579
 30
0.0
 11
11.8084
 21
5.68579
 31
0.0
  0
LINE
  8
0
 62
     204
 10
11.8084
 20
5.68579
 30
0.0
 11
11.8318
 21
5.68579
 31
0.0
  0
LINE
  8
0
 62
     204
 10
11.8318
 20
5.68579
 30
0.0
 11
11.836
 21
5.68579
 31
0.0
  0
LINE
  8
0
 62
     204
 10
11.836
 20
5.68579
 30
0.0
 11
11.847
 21
5.68029
 31
0.0
  0
LINE
  8
0
 62
     204
 10
11.847
 20
5.68029
 30
0.0
 11
11.8484
 21
5.67891
 31
0.0
  0
LINE
  8
0
 62
     204
 10
11.8484
 20
5.67891
 30
0.0
 11
11.8718
 21
5.67891
 31
0.0
  0
LINE
  8
0
 62
     204
 10
11.8718
 20
5.67891
 30
0.0
 11
11.8746
 21
5.67891
 31
0.0
  0
LINE
  8
0
 62
     204
 10
11.8746
 20
5.67891
 30
0.0
 11
11.887
 21
5.67337
 31
0.0
  0
LINE
  8
0
 62
     204
 10
11.887
 20
5.67337
 30
0.0
 11
11.887
 21
5.67062
 31
0.0
  0
LINE
  8
0
 62
     204
 10
11.887
 20
5.67062
 30
0.0
 11
11.9104
 21
5.67062
 31
0.0
  0
LINE
  8
0
 62
     204
 10
11.9104
 20
5.67062
 30
0.0
 11
11.9131
 21
5.67062
 31
0.0
  0
LINE
  8
0
 62
     204
 10
11.9131
 20
5.67062
 30
0.0
 11
11.9214
 21
5.66924
 31
0.0
  0
LINE
  8
0
 62
     204
 10
11.9214
 20
5.66924
 30
0.0
 11
11.9228
 21
5.66787
 31
0.0
  0
LINE
  8
0
 62
     204
 10
11.9228
 20
5.66787
 30
0.0
 11
11.9228
 21
5.66787
 31
0.0
  0
LINE
  8
0
 62
     204
 10
11.9228
 20
5.66787
 30
0.0
 11
11.9311
 21
5.66237
 31
0.0
  0
LINE
  8
0
 62
     204
 10
11.9311
 20
5.66237
 30
0.0
 11
11.9338
 21
5.66237
 31
0.0
  0
LINE
  8
0
 62
     204
 10
11.9338
 20
5.66237
 30
0.0
 11
11.9572
 21
5.66237
 31
0.0
  0
LINE
  8
0
 62
     204
 10
11.9572
 20
5.66237
 30
0.0
 11
11.9572
 21
5.66099
 31
0.0
  0
LINE
  8
0
 62
     204
 10
11.9572
 20
5.66099
 30
0.0
 11
11.9738
 21
5.65549
 31
0.0
  0
LINE
  8
0
 62
     204
 10
11.9738
 20
5.65549
 30
0.0
 11
11.9807
 21
5.65549
 31
0.0
  0
LINE
  8
0
 62
     204
 10
11.9807
 20
5.65549
 30
0.0
 11
11.982
 21
5.65408
 31
0.0
  0
LINE
  8
0
 62
     204
 10
11.982
 20
5.65408
 30
0.0
 11
11.9931
 21
5.6472
 31
0.0
  0
LINE
  8
0
 62
     204
 10
11.9931
 20
5.6472
 30
0.0
 11
11.9972
 21
5.6472
 31
0.0
  0
LINE
  8
0
 62
     204
 10
11.9972
 20
5.6472
 30
0.0
 11
11.9999
 21
5.6472
 31
0.0
  0
LINE
  8
0
 62
     204
 10
11.9999
 20
5.6472
 30
0.0
 11
12.0082
 21
5.64444
 31
0.0
  0
LINE
  8
0
 62
     204
 10
12.0082
 20
5.64444
 30
0.0
 11
12.0096
 21
5.64307
 31
0.0
  0
LINE
  8
0
 62
     204
 10
12.0096
 20
5.64307
 30
0.0
 11
12.0096
 21
5.64307
 31
0.0
  0
LINE
  8
0
 62
     204
 10
12.0096
 20
5.64307
 30
0.0
 11
12.0179
 21
5.64032
 31
0.0
  0
LINE
  8
0
 62
     204
 10
12.0179
 20
5.64032
 30
0.0
 11
12.0206
 21
5.64032
 31
0.0
  0
LINE
  8
0
 62
     204
 10
12.0206
 20
5.64032
 30
0.0
 11
12.0358
 21
5.64032
 31
0.0
  0
LINE
  8
0
 62
     204
 10
12.0358
 20
5.64032
 30
0.0
 11
12.0413
 21
5.64032
 31
0.0
  0
LINE
  8
0
 62
     204
 10
12.0413
 20
5.64032
 30
0.0
 11
12.0578
 21
5.63344
 31
0.0
  0
LINE
  8
0
 62
     204
 10
12.0578
 20
5.63344
 30
0.0
 11
12.0592
 21
5.63203
 31
0.0
  0
LINE
  8
0
 62
     204
 10
12.0592
 20
5.63203
 30
0.0
 11
12.0606
 21
5.63065
 31
0.0
  0
LINE
  8
0
 62
     204
 10
12.0606
 20
5.63065
 30
0.0
 11
12.0716
 21
5.62377
 31
0.0
  0
LINE
  8
0
 62
     204
 10
12.0716
 20
5.62377
 30
0.0
 11
12.0758
 21
5.62377
 31
0.0
  0
LINE
  8
0
 62
     204
 10
12.0758
 20
5.62377
 30
0.0
 11
12.0771
 21
5.6224
 31
0.0
  0
LINE
  8
0
 62
     204
 10
12.0771
 20
5.6224
 30
0.0
 11
12.0937
 21
5.61552
 31
0.0
  0
LINE
  8
0
 62
     204
 10
12.0937
 20
5.61552
 30
0.0
 11
12.0992
 21
5.61552
 31
0.0
  0
LINE
  8
0
 62
     204
 10
12.0992
 20
5.61552
 30
0.0
 11
12.1061
 21
5.6086
 31
0.0
  0
LINE
  8
0
 62
     204
 10
12.1061
 20
5.6086
 30
0.0
 11
12.1143
 21
5.6086
 31
0.0
  0
LINE
  8
0
 62
     204
 10
12.1143
 20
5.6086
 30
0.0
 11
12.1212
 21
5.6086
 31
0.0
  0
LINE
  8
0
 62
     204
 10
12.1212
 20
5.6086
 30
0.0
 11
12.1447
 21
5.60172
 31
0.0
  0
LINE
  8
0
 62
     204
 10
12.1447
 20
5.60172
 30
0.0
 11
12.146
 21
5.60035
 31
0.0
  0
LINE
  8
0
 62
     204
 10
12.146
 20
5.60035
 30
0.0
 11
12.1612
 21
5.60035
 31
0.0
  0
LINE
  8
0
 62
     204
 10
12.1612
 20
5.60035
 30
0.0
 11
12.1612
 21
5.59622
 31
0.0
  0
LINE
  8
0
 62
     204
 10
12.1612
 20
5.59622
 30
0.0
 11
12.1791
 21
5.5838
 31
0.0
  0
LINE
  8
0
 62
     204
 10
12.1791
 20
5.5838
 30
0.0
 11
12.186
 21
5.5838
 31
0.0
  0
LINE
  8
0
 62
     204
 10
12.186
 20
5.5838
 30
0.0
 11
12.1929
 21
5.5838
 31
0.0
  0
LINE
  8
0
 62
     204
 10
12.1929
 20
5.5838
 30
0.0
 11
12.1956
 21
5.58243
 31
0.0
  0
LINE
  8
0
 62
     204
 10
12.1956
 20
5.58243
 30
0.0
 11
12.2108
 21
5.56867
 31
0.0
  0
LINE
  8
0
 62
     204
 10
12.2108
 20
5.56867
 30
0.0
 11
12.2163
 21
5.56867
 31
0.0
  0
LINE
  8
0
 62
     204
 10
12.2163
 20
5.56867
 30
0.0
 11
12.2218
 21
5.56867
 31
0.0
  0
LINE
  8
0
 62
     204
 10
12.2218
 20
5.56867
 30
0.0
 11
12.2397
 21
5.56175
 31
0.0
  0
LINE
  8
0
 62
     204
 10
12.2397
 20
5.56175
 30
0.0
 11
12.2411
 21
5.56038
 31
0.0
  0
LINE
  8
0
 62
     204
 10
12.2411
 20
5.56038
 30
0.0
 11
12.2425
 21
5.559
 31
0.0
  0
LINE
  8
0
 62
     204
 10
12.2425
 20
5.559
 30
0.0
 11
12.2577
 21
5.5535
 31
0.0
  0
LINE
  8
0
 62
     204
 10
12.2577
 20
5.5535
 30
0.0
 11
12.2632
 21
5.5535
 31
0.0
  0
LINE
  8
0
 62
     204
 10
12.2632
 20
5.5535
 30
0.0
 11
12.2797
 21
5.5535
 31
0.0
  0
LINE
  8
0
 62
     204
 10
12.2797
 20
5.5535
 30
0.0
 11
12.2797
 21
5.55075
 31
0.0
  0
LINE
  8
0
 62
     204
 10
12.2797
 20
5.55075
 30
0.0
 11
12.2962
 21
5.53833
 31
0.0
  0
LINE
  8
0
 62
     204
 10
12.2962
 20
5.53833
 30
0.0
 11
12.3031
 21
5.53833
 31
0.0
  0
LINE
  8
0
 62
     204
 10
12.3031
 20
5.53833
 30
0.0
 11
12.3059
 21
5.53833
 31
0.0
  0
LINE
  8
0
 62
     204
 10
12.3059
 20
5.53833
 30
0.0
 11
12.3169
 21
5.53145
 31
0.0
  0
LINE
  8
0
 62
     204
 10
12.3169
 20
5.53145
 30
0.0
 11
12.3183
 21
5.5287
 31
0.0
  0
LINE
  8
0
 62
     204
 10
12.3183
 20
5.5287
 30
0.0
 11
12.321
 21
5.5287
 31
0.0
  0
LINE
  8
0
 62
     204
 10
12.321
 20
5.5287
 30
0.0
 11
12.3362
 21
5.52178
 31
0.0
  0
LINE
  8
0
 62
     204
 10
12.3362
 20
5.52178
 30
0.0
 11
12.3417
 21
5.52178
 31
0.0
  0
LINE
  8
0
 62
     204
 10
12.3417
 20
5.52178
 30
0.0
 11
12.35
 21
5.51353
 31
0.0
  0
LINE
  8
0
 62
     204
 10
12.35
 20
5.51353
 30
0.0
 11
12.3527
 21
5.51078
 31
0.0
  0
LINE
  8
0
 62
     204
 10
12.3527
 20
5.51078
 30
0.0
 11
12.3679
 21
5.49836
 31
0.0
  0
LINE
  8
0
 62
     204
 10
12.3679
 20
5.49836
 30
0.0
 11
12.3734
 21
5.49836
 31
0.0
  0
LINE
  8
0
 62
     204
 10
12.3734
 20
5.49836
 30
0.0
 11
12.3775
 21
5.49836
 31
0.0
  0
LINE
  8
0
 62
     204
 10
12.3775
 20
5.49836
 30
0.0
 11
12.3886
 21
5.49286
 31
0.0
  0
LINE
  8
0
 62
     204
 10
12.3886
 20
5.49286
 30
0.0
 11
12.3899
 21
5.49148
 31
0.0
  0
LINE
  8
0
 62
     204
 10
12.3899
 20
5.49148
 30
0.0
 11
12.3913
 21
5.4901
 31
0.0
  0
LINE
  8
0
 62
     204
 10
12.3913
 20
5.4901
 30
0.0
 11
12.4134
 21
5.48185
 31
0.0
  0
LINE
  8
0
 62
     204
 10
12.4134
 20
5.48185
 30
0.0
 11
12.4134
 21
5.48185
 31
0.0
  0
LINE
  8
0
 62
     204
 10
12.4134
 20
5.48185
 30
0.0
 11
12.4216
 21
5.47493
 31
0.0
  0
LINE
  8
0
 62
     204
 10
12.4216
 20
5.47493
 30
0.0
 11
12.423
 21
5.47218
 31
0.0
  0
LINE
  8
0
 62
     204
 10
12.423
 20
5.47218
 30
0.0
 11
12.4437
 21
5.45842
 31
0.0
  0
LINE
  8
0
 62
     204
 10
12.4437
 20
5.45842
 30
0.0
 11
12.452
 21
5.45842
 31
0.0
  0
LINE
  8
0
 62
     204
 10
12.452
 20
5.45842
 30
0.0
 11
12.4602
 21
5.45013
 31
0.0
  0
LINE
  8
0
 62
     204
 10
12.4602
 20
5.45013
 30
0.0
 11
12.4685
 21
5.44326
 31
0.0
  0
LINE
  8
0
 62
     204
 10
12.4685
 20
5.44326
 30
0.0
 11
12.4713
 21
5.44326
 31
0.0
  0
LINE
  8
0
 62
     204
 10
12.4713
 20
5.44326
 30
0.0
 11
12.4823
 21
5.43775
 31
0.0
  0
LINE
  8
0
 62
     204
 10
12.4823
 20
5.43775
 30
0.0
 11
12.4836
 21
5.43638
 31
0.0
  0
LINE
  8
0
 62
     204
 10
12.4836
 20
5.43638
 30
0.0
 11
12.4864
 21
5.43638
 31
0.0
  0
LINE
  8
0
 62
     204
 10
12.4864
 20
5.43638
 30
0.0
 11
12.4974
 21
5.42946
 31
0.0
  0
LINE
  8
0
 62
     204
 10
12.4974
 20
5.42946
 30
0.0
 11
12.4988
 21
5.42671
 31
0.0
  0
LINE
  8
0
 62
     204
 10
12.4988
 20
5.42671
 30
0.0
 11
12.4988
 21
5.42396
 31
0.0
  0
LINE
  8
0
 62
     204
 10
12.4988
 20
5.42396
 30
0.0
 11
12.5126
 21
5.41295
 31
0.0
  0
LINE
  8
0
 62
     204
 10
12.5126
 20
5.41295
 30
0.0
 11
12.5154
 21
5.41154
 31
0.0
  0
LINE
  8
0
 62
     204
 10
12.5154
 20
5.41154
 30
0.0
 11
12.5167
 21
5.41016
 31
0.0
  0
LINE
  8
0
 62
     204
 10
12.5167
 20
5.41016
 30
0.0
 11
12.5264
 21
5.40466
 31
0.0
  0
LINE
  8
0
 62
     204
 10
12.5264
 20
5.40466
 30
0.0
 11
12.5305
 21
5.40466
 31
0.0
  0
LINE
  8
0
 62
     204
 10
12.5305
 20
5.40466
 30
0.0
 11
12.5305
 21
5.40466
 31
0.0
  0
LINE
  8
0
 62
     204
 10
12.5305
 20
5.40466
 30
0.0
 11
12.5498
 21
5.39228
 31
0.0
  0
LINE
  8
0
 62
     204
 10
12.5498
 20
5.39228
 30
0.0
 11
12.5539
 21
5.38812
 31
0.0
  0
LINE
  8
0
 62
     204
 10
12.5539
 20
5.38812
 30
0.0
 11
12.5622
 21
5.37986
 31
0.0
  0
LINE
  8
0
 62
     204
 10
12.5622
 20
5.37986
 30
0.0
 11
12.565
 21
5.37986
 31
0.0
  0
LINE
  8
0
 62
     204
 10
12.565
 20
5.37986
 30
0.0
 11
12.5732
 21
5.37298
 31
0.0
  0
LINE
  8
0
 62
     204
 10
12.5732
 20
5.37298
 30
0.0
 11
12.5746
 21
5.37161
 31
0.0
  0
LINE
  8
0
 62
     204
 10
12.5746
 20
5.37161
 30
0.0
 11
12.5746
 21
5.37161
 31
0.0
  0
LINE
  8
0
 62
     204
 10
12.5746
 20
5.37161
 30
0.0
 11
12.5829
 21
5.36469
 31
0.0
  0
LINE
  8
0
 62
     204
 10
12.5829
 20
5.36469
 30
0.0
 11
12.5856
 21
5.36469
 31
0.0
  0
LINE
  8
0
 62
     204
 10
12.5856
 20
5.36469
 30
0.0
 11
12.587
 21
5.36332
 31
0.0
  0
LINE
  8
0
 62
     204
 10
12.587
 20
5.36332
 30
0.0
 11
12.598
 21
5.35644
 31
0.0
  0
LINE
  8
0
 62
     204
 10
12.598
 20
5.35644
 30
0.0
 11
12.6022
 21
5.35644
 31
0.0
  0
LINE
  8
0
 62
     204
 10
12.6022
 20
5.35644
 30
0.0
 11
12.6022
 21
5.35369
 31
0.0
  0
LINE
  8
0
 62
     204
 10
12.6022
 20
5.35369
 30
0.0
 11
12.6187
 21
5.34127
 31
0.0
  0
LINE
  8
0
 62
     204
 10
12.6187
 20
5.34127
 30
0.0
 11
12.6256
 21
5.34127
 31
0.0
  0
LINE
  8
0
 62
     204
 10
12.6256
 20
5.34127
 30
0.0
 11
12.6325
 21
5.33301
 31
0.0
  0
LINE
  8
0
 62
     204
 10
12.6325
 20
5.33301
 30
0.0
 11
12.6573
 21
5.30959
 31
0.0
  0
LINE
  8
0
 62
     204
 10
12.6573
 20
5.30959
 30
0.0
 11
12.6642
 21
5.30959
 31
0.0
  0
LINE
  8
0
 62
     204
 10
12.6642
 20
5.30959
 30
0.0
 11
12.6876
 21
5.28616
 31
0.0
  0
LINE
  8
0
 62
     204
 10
12.6876
 20
5.28616
 30
0.0
 11
12.6876
 21
5.27787
 31
0.0
  0
LINE
  8
0
 62
     204
 10
12.6876
 20
5.27787
 30
0.0
 11
12.6959
 21
5.27787
 31
0.0
  0
LINE
  8
0
 62
     204
 10
12.6959
 20
5.27787
 30
0.0
 11
12.7276
 21
5.24619
 31
0.0
  0
LINE
  8
0
 62
     204
 10
12.7276
 20
5.24619
 30
0.0
 11
12.7289
 21
5.24482
 31
0.0
  0
LINE
  8
0
 62
     204
 10
12.7289
 20
5.24482
 30
0.0
 11
12.751
 21
5.23102
 31
0.0
  0
LINE
  8
0
 62
     204
 10
12.751
 20
5.23102
 30
0.0
 11
12.751
 21
5.23102
 31
0.0
  0
LINE
  8
0
 62
     204
 10
12.751
 20
5.23102
 30
0.0
 11
12.7593
 21
5.22277
 31
0.0
  0
LINE
  8
0
 62
     204
 10
12.7593
 20
5.22277
 30
0.0
 11
12.7827
 21
5.20072
 31
0.0
  0
LINE
  8
0
 62
     204
 10
12.7827
 20
5.20072
 30
0.0
 11
12.7827
 21
5.19247
 31
0.0
  0
LINE
  8
0
 62
     204
 10
12.7827
 20
5.19247
 30
0.0
 11
12.7896
 21
5.19247
 31
0.0
  0
LINE
  8
0
 62
     204
 10
12.7896
 20
5.19247
 30
0.0
 11
12.813
 21
5.16901
 31
0.0
  0
LINE
  8
0
 62
     204
 10
12.813
 20
5.16901
 30
0.0
 11
12.8213
 21
5.16901
 31
0.0
  0
LINE
  8
0
 62
     204
 10
12.8213
 20
5.16901
 30
0.0
 11
12.8213
 21
5.16213
 31
0.0
  0
LINE
  8
0
 62
     204
 10
12.8213
 20
5.16213
 30
0.0
 11
12.8405
 21
5.14145
 31
0.0
  0
LINE
  8
0
 62
     204
 10
12.8405
 20
5.14145
 30
0.0
 11
12.8447
 21
5.13733
 31
0.0
  0
LINE
  8
0
 62
     204
 10
12.8447
 20
5.13733
 30
0.0
 11
12.8447
 21
5.13045
 31
0.0
  0
LINE
  8
0
 62
     204
 10
12.8447
 20
5.13045
 30
0.0
 11
12.864
 21
5.10977
 31
0.0
  0
LINE
  8
0
 62
     204
 10
12.864
 20
5.10977
 30
0.0
 11
12.8681
 21
5.10565
 31
0.0
  0
LINE
  8
0
 62
     204
 10
12.8681
 20
5.10565
 30
0.0
 11
12.8695
 21
5.10427
 31
0.0
  0
LINE
  8
0
 62
     204
 10
12.8695
 20
5.10427
 30
0.0
 11
12.8791
 21
5.09185
 31
0.0
  0
LINE
  8
0
 62
     204
 10
12.8791
 20
5.09185
 30
0.0
 11
12.8805
 21
5.0891
 31
0.0
  0
LINE
  8
0
 62
     204
 10
12.8805
 20
5.0891
 30
0.0
 11
12.8805
 21
5.0891
 31
0.0
  0
LINE
  8
0
 62
     204
 10
12.8805
 20
5.0891
 30
0.0
 11
12.8902
 21
5.07531
 31
0.0
  0
LINE
  8
0
 62
     204
 10
12.8902
 20
5.07531
 30
0.0
 11
12.8916
 21
5.07393
 31
0.0
  0
LINE
  8
0
 62
     204
 10
12.8916
 20
5.07393
 30
0.0
 11
12.8998
 21
5.06705
 31
0.0
  0
LINE
  8
0
 62
     204
 10
12.8998
 20
5.06705
 30
0.0
 11
12.9232
 21
5.04225
 31
0.0
  0
LINE
  8
0
 62
     204
 10
12.9232
 20
5.04225
 30
0.0
 11
12.926
 21
5.04088
 31
0.0
  0
LINE
  8
0
 62
     204
 10
12.926
 20
5.04088
 30
0.0
 11
12.9453
 21
5.01467
 31
0.0
  0
LINE
  8
0
 62
     204
 10
12.9453
 20
5.01467
 30
0.0
 11
12.9467
 21
5.01191
 31
0.0
  0
LINE
  8
0
 62
     204
 10
12.9467
 20
5.01191
 30
0.0
 11
12.948
 21
5.00916
 31
0.0
  0
LINE
  8
0
 62
     204
 10
12.948
 20
5.00916
 30
0.0
 11
12.9673
 21
4.98299
 31
0.0
  0
LINE
  8
0
 62
     204
 10
12.9673
 20
4.98299
 30
0.0
 11
12.9701
 21
4.98023
 31
0.0
  0
LINE
  8
0
 62
     204
 10
12.9701
 20
4.98023
 30
0.0
 11
12.9701
 21
4.97198
 31
0.0
  0
LINE
  8
0
 62
     204
 10
12.9701
 20
4.97198
 30
0.0
 11
12.9784
 21
4.97198
 31
0.0
  0
LINE
  8
0
 62
     204
 10
12.9784
 20
4.97198
 30
0.0
 11
12.9798
 21
4.97057
 31
0.0
  0
LINE
  8
0
 62
     204
 10
12.9798
 20
4.97057
 30
0.0
 11
12.9921
 21
4.94302
 31
0.0
  0
LINE
  8
0
 62
     204
 10
12.9921
 20
4.94302
 30
0.0
 11
12.9935
 21
4.94026
 31
0.0
  0
LINE
  8
0
 62
     204
 10
12.9935
 20
4.94026
 30
0.0
 11
13.0018
 21
4.94026
 31
0.0
  0
LINE
  8
0
 62
     204
 10
13.0018
 20
4.94026
 30
0.0
 11
13.0032
 21
4.93614
 31
0.0
  0
LINE
  8
0
 62
     204
 10
13.0032
 20
4.93614
 30
0.0
 11
13.0169
 21
4.90996
 31
0.0
  0
LINE
  8
0
 62
     204
 10
13.0169
 20
4.90996
 30
0.0
 11
13.0169
 21
4.90996
 31
0.0
  0
LINE
  8
0
 62
     204
 10
13.0169
 20
4.90996
 30
0.0
 11
13.0169
 21
4.90167
 31
0.0
  0
LINE
  8
0
 62
     204
 10
13.0169
 20
4.90167
 30
0.0
 11
13.0404
 21
4.87825
 31
0.0
  0
LINE
  8
0
 62
     204
 10
13.0404
 20
4.87825
 30
0.0
 11
13.0404
 21
4.86999
 31
0.0
  0
LINE
  8
0
 62
     204
 10
13.0404
 20
4.86999
 30
0.0
 11
13.0418
 21
4.86862
 31
0.0
  0
LINE
  8
0
 62
     204
 10
13.0418
 20
4.86862
 30
0.0
 11
13.0514
 21
4.8562
 31
0.0
  0
LINE
  8
0
 62
     204
 10
13.0514
 20
4.8562
 30
0.0
 11
13.0528
 21
4.85482
 31
0.0
  0
LINE
  8
0
 62
     204
 10
13.0528
 20
4.85482
 30
0.0
 11
13.0528
 21
4.85345
 31
0.0
  0
LINE
  8
0
 62
     204
 10
13.0528
 20
4.85345
 30
0.0
 11
13.0638
 21
4.83969
 31
0.0
  0
LINE
  8
0
 62
     204
 10
13.0638
 20
4.83969
 30
0.0
 11
13.0652
 21
4.83828
 31
0.0
  0
LINE
  8
0
 62
     204
 10
13.0652
 20
4.83828
 30
0.0
 11
13.0652
 21
4.83828
 31
0.0
  0
LINE
  8
0
 62
     204
 10
13.0652
 20
4.83828
 30
0.0
 11
13.0845
 21
4.80385
 31
0.0
  0
LINE
  8
0
 62
     204
 10
13.0845
 20
4.80385
 30
0.0
 11
13.0886
 21
4.79972
 31
0.0
  0
LINE
  8
0
 62
     204
 10
13.0886
 20
4.79972
 30
0.0
 11
13.0886
 21
4.79972
 31
0.0
  0
LINE
  8
0
 62
     204
 10
13.0886
 20
4.79972
 30
0.0
 11
13.101
 21
4.77076
 31
0.0
  0
LINE
  8
0
 62
     204
 10
13.101
 20
4.77076
 30
0.0
 11
13.1038
 21
4.75975
 31
0.0
  0
LINE
  8
0
 62
     204
 10
13.1038
 20
4.75975
 30
0.0
 11
13.1051
 21
4.75837
 31
0.0
  0
LINE
  8
0
 62
     204
 10
13.1051
 20
4.75837
 30
0.0
 11
13.1203
 21
4.73908
 31
0.0
  0
LINE
  8
0
 62
     204
 10
13.1203
 20
4.73908
 30
0.0
 11
13.1231
 21
4.73632
 31
0.0
  0
LINE
  8
0
 62
     204
 10
13.1231
 20
4.73632
 30
0.0
 11
13.1244
 21
4.73495
 31
0.0
  0
LINE
  8
0
 62
     204
 10
13.1244
 20
4.73495
 30
0.0
 11
13.1355
 21
4.71978
 31
0.0
  0
LINE
  8
0
 62
     204
 10
13.1355
 20
4.71978
 30
0.0
 11
13.1355
 21
4.71428
 31
0.0
  0
LINE
  8
0
 62
     204
 10
13.1355
 20
4.71428
 30
0.0
 11
13.1355
 21
4.70877
 31
0.0
  0
LINE
  8
0
 62
     204
 10
13.1355
 20
4.70877
 30
0.0
 11
13.141
 21
4.69085
 31
0.0
  0
LINE
  8
0
 62
     204
 10
13.141
 20
4.69085
 30
0.0
 11
13.1423
 21
4.68948
 31
0.0
  0
LINE
  8
0
 62
     204
 10
13.1423
 20
4.68948
 30
0.0
 11
13.1423
 21
4.68394
 31
0.0
  0
LINE
  8
0
 62
     204
 10
13.1423
 20
4.68394
 30
0.0
 11
13.1492
 21
4.66743
 31
0.0
  0
LINE
  8
0
 62
     204
 10
13.1492
 20
4.66743
 30
0.0
 11
13.1506
 21
4.66605
 31
0.0
  0
LINE
  8
0
 62
     204
 10
13.1506
 20
4.66605
 30
0.0
 11
13.152
 21
4.66467
 31
0.0
  0
LINE
  8
0
 62
     204
 10
13.152
 20
4.66467
 30
0.0
 11
13.1589
 21
4.65501
 31
0.0
  0
LINE
  8
0
 62
     204
 10
13.1589
 20
4.65501
 30
0.0
 11
13.1589
 21
4.65088
 31
0.0
  0
LINE
  8
0
 62
     204
 10
13.1589
 20
4.65088
 30
0.0
 11
13.1589
 21
4.65088
 31
0.0
  0
LINE
  8
0
 62
     204
 10
13.1589
 20
4.65088
 30
0.0
 11
13.1713
 21
4.62195
 31
0.0
  0
LINE
  8
0
 62
     204
 10
13.1713
 20
4.62195
 30
0.0
 11
13.1741
 21
4.61091
 31
0.0
  0
LINE
  8
0
 62
     204
 10
13.1741
 20
4.61091
 30
0.0
 11
13.1754
 21
4.60954
 31
0.0
  0
LINE
  8
0
 62
     204
 10
13.1754
 20
4.60954
 30
0.0
 11
13.1823
 21
4.59574
 31
0.0
  0
LINE
  8
0
 62
     204
 10
13.1823
 20
4.59574
 30
0.0
 11
13.1823
 21
4.59574
 31
0.0
  0
LINE
  8
0
 62
     204
 10
13.1823
 20
4.59574
 30
0.0
 11
13.1823
 21
4.59024
 31
0.0
  0
LINE
  8
0
 62
     204
 10
13.1823
 20
4.59024
 30
0.0
 11
13.1892
 21
4.57369
 31
0.0
  0
LINE
  8
0
 62
     204
 10
13.1892
 20
4.57369
 30
0.0
 11
13.1906
 21
4.57232
 31
0.0
  0
LINE
  8
0
 62
     204
 10
13.1906
 20
4.57232
 30
0.0
 11
13.1919
 21
4.57094
 31
0.0
  0
LINE
  8
0
 62
     204
 10
13.1919
 20
4.57094
 30
0.0
 11
13.1975
 21
4.55994
 31
0.0
  0
LINE
  8
0
 62
     204
 10
13.1975
 20
4.55994
 30
0.0
 11
13.1975
 21
4.55581
 31
0.0
  0
LINE
  8
0
 62
     204
 10
13.1975
 20
4.55581
 30
0.0
 11
13.1975
 21
4.55027
 31
0.0
  0
LINE
  8
0
 62
     204
 10
13.1975
 20
4.55027
 30
0.0
 11
13.2044
 21
4.53376
 31
0.0
  0
LINE
  8
0
 62
     204
 10
13.2044
 20
4.53376
 30
0.0
 11
13.2057
 21
4.53238
 31
0.0
  0
LINE
  8
0
 62
     204
 10
13.2057
 20
4.53238
 30
0.0
 11
13.2071
 21
4.52272
 31
0.0
  0
LINE
  8
0
 62
     204
 10
13.2071
 20
4.52272
 30
0.0
 11
13.2457
 21
4.3863
 31
0.0
  0
LINE
  8
0
 62
     204
 10
13.2457
 20
4.3863
 30
0.0
 11
13.2526
 21
4.36838
 31
0.0
  0
LINE
  8
0
 62
     204
 10
13.2526
 20
4.36838
 30
0.0
 11
13.2553
 21
4.35875
 31
0.0
  0
LINE
  8
0
 62
     204
 10
13.2553
 20
4.35875
 30
0.0
 11
13.2719
 21
4.27193
 31
0.0
  0
LINE
  8
0
 62
     204
 10
13.2719
 20
4.27193
 30
0.0
 11
13.2733
 21
4.26501
 31
0.0
  0
LINE
  8
0
 62
     204
 10
13.2733
 20
4.26501
 30
0.0
 11
13.2733
 21
4.25951
 31
0.0
  0
LINE
  8
0
 62
     204
 10
13.2733
 20
4.25951
 30
0.0
 11
13.2829
 21
4.20028
 31
0.0
  0
LINE
  8
0
 62
     204
 10
13.2829
 20
4.20028
 30
0.0
 11
13.2843
 21
4.19474
 31
0.0
  0
LINE
  8
0
 62
     204
 10
13.2843
 20
4.19474
 30
0.0
 11
13.2857
 21
4.18648
 31
0.0
  0
LINE
  8
0
 62
     204
 10
13.2857
 20
4.18648
 30
0.0
 11
13.2953
 21
4.10517
 31
0.0
  0
LINE
  8
0
 62
     204
 10
13.2953
 20
4.10517
 30
0.0
 11
13.2967
 21
4.09691
 31
0.0
  0
LINE
  8
0
 62
     204
 10
13.2967
 20
4.09691
 30
0.0
 11
13.2967
 21
4.09003
 31
0.0
  0
LINE
  8
0
 62
     204
 10
13.2967
 20
4.09003
 30
0.0
 11
13.3008
 21
4.0404
 31
0.0
  0
LINE
  8
0
 62
     204
 10
13.3008
 20
4.0404
 30
0.0
 11
13.3008
 21
4.02248
 31
0.0
  0
LINE
  8
0
 62
     204
 10
13.3008
 20
4.02248
 30
0.0
 11
13.3008
 21
4.01835
 31
0.0
  0
LINE
  8
0
 62
     204
 10
13.3008
 20
4.01835
 30
0.0
 11
13.3022
 21
4.00597
 31
0.0
  0
LINE
  8
0
 62
     204
 10
13.3022
 20
4.00597
 30
0.0
 11
13.3036
 21
4.00322
 31
0.0
  0
LINE
  8
0
 62
     204
 10
13.3036
 20
4.00322
 30
0.0
 11
13.3036
 21
4.00184
 31
0.0
  0
LINE
  8
0
 62
     204
 10
13.3036
 20
4.00184
 30
0.0
 11
13.3077
 21
3.98254
 31
0.0
  0
LINE
  8
0
 62
     204
 10
13.3077
 20
3.98254
 30
0.0
 11
13.3077
 21
3.97563
 31
0.0
  0
LINE
  8
0
 62
     204
 10
13.3077
 20
3.97563
 30
0.0
 11
13.3077
 21
3.94395
 31
0.0
  0
LINE
  8
0
 62
     204
 10
13.3077
 20
3.94395
 30
0.0
 11
13.3036
 21
3.90123
 31
0.0
  0
LINE
  8
0
 62
     204
 10
13.3036
 20
3.90123
 30
0.0
 11
13.0941
 21
3.68487
 31
0.0
  0
LINE
  8
0
 62
     204
 10
13.0941
 20
3.68487
 30
0.0
 11
13.0252
 21
3.68487
 31
0.0
  0
LINE
  8
0
 62
     204
 10
13.0252
 20
3.68487
 30
0.0
 11
12.9536
 21
3.68487
 31
0.0
  0
LINE
  8
0
 62
     204
 10
12.9536
 20
3.68487
 30
0.0
 11
12.7441
 21
3.90123
 31
0.0
  0
LINE
  8
0
 62
     204
 10
12.7441
 20
3.90123
 30
0.0
 11
12.7427
 21
3.94395
 31
0.0
  0
LINE
  8
0
 62
     204
 10
12.7427
 20
3.94395
 30
0.0
 11
12.7427
 21
3.9522
 31
0.0
  0
LINE
  8
0
 62
     204
 10
12.7427
 20
3.9522
 30
0.0
 11
12.7427
 21
4.16306
 31
0.0
  0
LINE
  8
0
 62
     204
 10
12.7427
 20
4.16306
 30
0.0
 11
12.4478
 21
4.73495
 31
0.0
  0
LINE
  8
0
 62
     204
 10
12.4478
 20
4.73495
 30
0.0
 11
12.3899
 21
4.79143
 31
0.0
  0
LINE
  8
0
 62
     204
 10
12.3899
 20
4.79143
 30
0.0
 11
12.3321
 21
4.85069
 31
0.0
  0
LINE
  8
0
 62
     204
 10
12.3321
 20
4.85069
 30
0.0
 11
11.745
 21
5.14421
 31
0.0
  0
LINE
  8
0
 62
     204
 10
11.745
 20
5.14421
 30
0.0
 11
11.5493
 21
5.14421
 31
0.0
  0
LINE
  8
0
 62
     204
 10
11.5493
 20
5.14421
 30
0.0
 11
11.2117
 21
5.14421
 31
0.0
  0
LINE
  8
0
 62
     204
 10
11.2117
 20
5.14421
 30
0.0
 11
11.1139
 21
5.14008
 31
0.0
  0
LINE
  8
0
 62
     204
 10
11.1139
 20
5.14008
 30
0.0
 11
10.2829
 21
4.76112
 31
0.0
  0
LINE
  8
0
 62
     204
 10
10.2829
 20
4.76112
 30
0.0
 11
10.2154
 21
4.68948
 31
0.0
  0
LINE
  8
0
 62
     204
 10
10.2154
 20
4.68948
 30
0.0
 11
10.1479
 21
4.62333
 31
0.0
  0
LINE
  8
0
 62
     204
 10
10.1479
 20
4.62333
 30
0.0
 11
9.802
 21
3.79236
 31
0.0
  0
LINE
  8
0
 62
     204
 10
9.802
 20
3.79236
 30
0.0
 11
9.79921
 21
3.69175
 31
0.0
  0
LINE
  8
0
 62
     204
 10
9.79921
 20
3.69175
 30
0.0
 11
9.79921
 21
1.74597
 31
0.0
  0
LINE
  8
0
 62
     204
 10
14.3991
 20
7.20852
 30
0.0
 11
14.3991
 21
2.26412
 31
0.0
  0
LINE
  8
0
 62
     204
 10
14.3991
 20
2.26412
 30
0.0
 11
17.4129
 21
5.61552
 31
0.0
  0
LINE
  8
0
 62
     204
 10
17.4129
 20
5.61552
 30
0.0
 11
17.4432
 21
5.64857
 31
0.0
  0
LINE
  8
0
 62
     204
 10
17.4432
 20
5.64857
 30
0.0
 11
17.7781
 21
5.66924
 31
0.0
  0
LINE
  8
0
 62
     204
 10
17.7781
 20
5.66924
 30
0.0
 11
17.8139
 21
5.64032
 31
0.0
  0
LINE
  8
0
 62
     204
 10
17.8139
 20
5.64032
 30
0.0
 11
17.847
 21
5.60585
 31
0.0
  0
LINE
  8
0
 62
     204
 10
17.847
 20
5.60585
 30
0.0
 11
17.8594
 21
5.27237
 31
0.0
  0
LINE
  8
0
 62
     204
 10
17.8594
 20
5.27237
 30
0.0
 11
17.8291
 21
5.23931
 31
0.0
  0
LINE
  8
0
 62
     204
 10
17.8291
 20
5.23931
 30
0.0
 11
15.9852
 21
3.19016
 31
0.0
  0
LINE
  8
0
 62
     204
 10
15.9852
 20
3.19016
 30
0.0
 11
17.8608
 21
0.442352
 31
0.0
  0
LINE
  8
0
 62
     204
 10
17.8608
 20
0.442352
 30
0.0
 11
17.8856
 21
0.403765
 31
0.0
  0
LINE
  8
0
 62
     204
 10
17.8856
 20
0.403765
 30
0.0
 11
17.8194
 21
0.0771701
 31
0.0
  0
LINE
  8
0
 62
     204
 10
17.8194
 20
0.0771701
 30
0.0
 11
17.7822
 21
0.0509873
 31
0.0
  0
LINE
  8
0
 62
     204
 10
17.7822
 20
0.0509873
 30
0.0
 11
17.7657
 21
0.0413413
 31
0.0
  0
LINE
  8
0
 62
     204
 10
17.7657
 20
0.0413413
 30
0.0
 11
17.5962
 21
0.00137804
 31
0.0
  0
LINE
  8
0
 62
     204
 10
17.5962
 20
0.00137804
 30
0.0
 11
17.5782
 21
0.00413413
 31
0.0
  0
LINE
  8
0
 62
     204
 10
17.5782
 20
0.00413413
 30
0.0
 11
17.5548
 21
0.00689021
 31
0.0
  0
LINE
  8
0
 62
     204
 10
17.5548
 20
0.00689021
 30
0.0
 11
17.3839
 21
0.137804
 31
0.0
  0
LINE
  8
0
 62
     204
 10
17.3839
 20
0.137804
 30
0.0
 11
17.3743
 21
0.16123
 31
0.0
  0
LINE
  8
0
 62
     204
 10
17.3743
 20
0.16123
 30
0.0
 11
15.5994
 21
2.75883
 31
0.0
  0
LINE
  8
0
 62
     204
 10
15.5994
 20
2.75883
 30
0.0
 11
14.3991
 21
1.41662
 31
0.0
  0
LINE
  8
0
 62
     204
 10
14.3991
 20
1.41662
 30
0.0
 11
14.3991
 21
0.372071
 31
0.0
  0
LINE
  8
0
 62
     204
 10
14.3991
 20
0.372071
 30
0.0
 11
14.3991
 21
0.30179
 31
0.0
  0
LINE
  8
0
 62
     204
 10
14.3991
 20
0.30179
 30
0.0
 11
14.1869
 21
0.0895724
 31
0.0
  0
LINE
  8
0
 62
     204
 10
14.1869
 20
0.0895724
 30
0.0
 11
14.1166
 21
0.0895724
 31
0.0
  0
LINE
  8
0
 62
     204
 10
14.1166
 20
0.0895724
 30
0.0
 11
14.0477
 21
0.0895724
 31
0.0
  0
LINE
  8
0
 62
     204
 10
14.0477
 20
0.0895724
 30
0.0
 11
13.841
 21
0.30179
 31
0.0
  0
LINE
  8
0
 62
     204
 10
13.841
 20
0.30179
 30
0.0
 11
13.841
 21
0.372071
 31
0.0
  0
LINE
  8
0
 62
     204
 10
13.841
 20
0.372071
 30
0.0
 11
13.841
 21
7.20852
 31
0.0
  0
LINE
  8
0
 62
     204
 10
13.841
 20
7.20852
 30
0.0
 11
13.841
 21
7.28017
 31
0.0
  0
LINE
  8
0
 62
     204
 10
13.841
 20
7.28017
 30
0.0
 11
14.0477
 21
7.4924
 31
0.0
  0
LINE
  8
0
 62
     204
 10
14.0477
 20
7.4924
 30
0.0
 11
14.1166
 21
7.4924
 31
0.0
  0
LINE
  8
0
 62
     204
 10
14.1166
 20
7.4924
 30
0.0
 11
14.1869
 21
7.4924
 31
0.0
  0
LINE
  8
0
 62
     204
 10
14.1869
 20
7.4924
 30
0.0
 11
14.3991
 21
7.28017
 31
0.0
  0
LINE
  8
0
 62
     204
 10
14.3991
 20
7.28017
 30
0.0
 11
14.3991
 21
7.20852
 31
0.0
  0
LINE
  8
0
 62
     204
 10
20.3178
 20
0.00413413
 30
0.0
 11
19.9485
 21
0.00413413
 31
0.0
  0
LINE
  8
0
 62
     204
 10
19.9485
 20
0.00413413
 30
0.0
 11
19.6453
 21
0.00413413
 31
0.0
  0
LINE
  8
0
 62
     204
 10
19.6453
 20
0.00413413
 30
0.0
 11
18.824
 21
0.409279
 31
0.0
  0
LINE
  8
0
 62
     204
 10
18.824
 20
0.409279
 30
0.0
 11
18.7399
 21
0.490583
 31
0.0
  0
LINE
  8
0
 62
     204
 10
18.7399
 20
0.490583
 30
0.0
 11
18.6559
 21
0.570509
 31
0.0
  0
LINE
  8
0
 62
     204
 10
18.6559
 20
0.570509
 30
0.0
 11
18.3569
 21
1.02802
 31
0.0
  0
LINE
  8
0
 62
     204
 10
18.3569
 20
1.02802
 30
0.0
 11
18.2177
 21
1.56545
 31
0.0
  0
LINE
  8
0
 62
     204
 10
18.2177
 20
1.56545
 30
0.0
 11
18.2135
 21
1.68396
 31
0.0
  0
LINE
  8
0
 62
     204
 10
18.2135
 20
1.68396
 30
0.0
 11
18.2122
 21
1.68672
 31
0.0
  0
LINE
  8
0
 62
     204
 10
18.2122
 20
1.68672
 30
0.0
 11
18.2067
 21
1.7322
 31
0.0
  0
LINE
  8
0
 62
     204
 10
18.2067
 20
1.7322
 30
0.0
 11
18.2067
 21
1.74597
 31
0.0
  0
LINE
  8
0
 62
     204
 10
18.2067
 20
1.74597
 30
0.0
 11
18.2067
 21
5.33301
 31
0.0
  0
LINE
  8
0
 62
     204
 10
18.2067
 20
5.33301
 30
0.0
 11
18.2067
 21
5.40466
 31
0.0
  0
LINE
  8
0
 62
     204
 10
18.2067
 20
5.40466
 30
0.0
 11
18.412
 21
5.61552
 31
0.0
  0
LINE
  8
0
 62
     204
 10
18.412
 20
5.61552
 30
0.0
 11
18.4809
 21
5.61552
 31
0.0
  0
LINE
  8
0
 62
     204
 10
18.4809
 20
5.61552
 30
0.0
 11
18.5511
 21
5.61552
 31
0.0
  0
LINE
  8
0
 62
     204
 10
18.5511
 20
5.61552
 30
0.0
 11
18.7634
 21
5.40466
 31
0.0
  0
LINE
  8
0
 62
     204
 10
18.7634
 20
5.40466
 30
0.0
 11
18.7634
 21
5.33301
 31
0.0
  0
LINE
  8
0
 62
     204
 10
18.7634
 20
5.33301
 30
0.0
 11
18.7634
 21
1.76113
 31
0.0
  0
LINE
  8
0
 62
     204
 10
18.7634
 20
1.76113
 30
0.0
 11
18.7716
 21
1.76113
 31
0.0
  0
LINE
  8
0
 62
     204
 10
18.7716
 20
1.76113
 30
0.0
 11
18.7716
 21
1.75424
 31
0.0
  0
LINE
  8
0
 62
     204
 10
18.7716
 20
1.75424
 30
0.0
 11
18.7716
 21
1.5434
 31
0.0
  0
LINE
  8
0
 62
     204
 10
18.7716
 20
1.5434
 30
0.0
 11
19.0583
 21
0.96876
 31
0.0
  0
LINE
  8
0
 62
     204
 10
19.0583
 20
0.96876
 30
0.0
 11
19.1161
 21
0.906748
 31
0.0
  0
LINE
  8
0
 62
     204
 10
19.1161
 20
0.906748
 30
0.0
 11
19.1768
 21
0.848872
 31
0.0
  0
LINE
  8
0
 62
     204
 10
19.1768
 20
0.848872
 30
0.0
 11
19.7666
 21
0.56086
 31
0.0
  0
LINE
  8
0
 62
     204
 10
19.7666
 20
0.56086
 30
0.0
 11
19.9636
 21
0.56086
 31
0.0
  0
LINE
  8
0
 62
     204
 10
19.9636
 20
0.56086
 30
0.0
 11
19.9636
 21
0.569129
 31
0.0
  0
LINE
  8
0
 62
     204
 10
19.9636
 20
0.569129
 30
0.0
 11
20.3178
 21
0.569129
 31
0.0
  0
LINE
  8
0
 62
     204
 10
20.3178
 20
0.569129
 30
0.0
 11
20.4129
 21
0.574643
 31
0.0
  0
LINE
  8
0
 62
     204
 10
20.4129
 20
0.574643
 30
0.0
 11
21.2232
 21
0.946711
 31
0.0
  0
LINE
  8
0
 62
     204
 10
21.2232
 20
0.946711
 30
0.0
 11
21.2907
 21
1.01562
 31
0.0
  0
LINE
  8
0
 62
     204
 10
21.2907
 20
1.01562
 30
0.0
 11
21.3568
 21
1.08314
 31
0.0
  0
LINE
  8
0
 62
     204
 10
21.3568
 20
1.08314
 30
0.0
 11
21.7041
 21
1.9265
 31
0.0
  0
LINE
  8
0
 62
     204
 10
21.7041
 20
1.9265
 30
0.0
 11
21.7069
 21
2.02847
 31
0.0
  0
LINE
  8
0
 62
     204
 10
21.7069
 20
2.02847
 30
0.0
 11
21.7069
 21
5.34127
 31
0.0
  0
LINE
  8
0
 62
     204
 10
21.7069
 20
5.34127
 30
0.0
 11
21.7069
 21
5.41016
 31
0.0
  0
LINE
  8
0
 62
     204
 10
21.7069
 20
5.41016
 30
0.0
 11
21.9177
 21
5.61552
 31
0.0
  0
LINE
  8
0
 62
     204
 10
21.9177
 20
5.61552
 30
0.0
 11
21.9893
 21
5.61552
 31
0.0
  0
LINE
  8
0
 62
     204
 10
21.9893
 20
5.61552
 30
0.0
 11
22.0597
 21
5.61552
 31
0.0
  0
LINE
  8
0
 62
     204
 10
22.0597
 20
5.61552
 30
0.0
 11
22.2718
 21
5.41016
 31
0.0
  0
LINE
  8
0
 62
     204
 10
22.2718
 20
5.41016
 30
0.0
 11
22.2718
 21
5.34127
 31
0.0
  0
LINE
  8
0
 62
     204
 10
22.2718
 20
5.34127
 30
0.0
 11
22.2718
 21
0.372071
 31
0.0
  0
LINE
  8
0
 62
     204
 10
22.2718
 20
0.372071
 30
0.0
 11
22.2718
 21
0.30179
 31
0.0
  0
LINE
  8
0
 62
     204
 10
22.2718
 20
0.30179
 30
0.0
 11
22.0597
 21
0.0895724
 31
0.0
  0
LINE
  8
0
 62
     204
 10
22.0597
 20
0.0895724
 30
0.0
 11
21.9893
 21
0.0895724
 31
0.0
  0
LINE
  8
0
 62
     204
 10
21.9893
 20
0.0895724
 30
0.0
 11
21.9177
 21
0.0895724
 31
0.0
  0
LINE
  8
0
 62
     204
 10
21.9177
 20
0.0895724
 30
0.0
 11
21.7069
 21
0.30179
 31
0.0
  0
LINE
  8
0
 62
     204
 10
21.7069
 20
0.30179
 30
0.0
 11
21.7069
 21
0.372071
 31
0.0
  0
LINE
  8
0
 62
     204
 10
21.7069
 20
0.372071
 30
0.0
 11
21.7069
 21
0.63941
 31
0.0
  0
LINE
  8
0
 62
     204
 10
21.7069
 20
0.63941
 30
0.0
 11
21.6118
 21
0.538812
 31
0.0
  0
LINE
  8
0
 62
     204
 10
21.6118
 20
0.538812
 30
0.0
 11
21.0771
 21
0.179145
 31
0.0
  0
LINE
  8
0
 62
     204
 10
21.0771
 20
0.179145
 30
0.0
 11
20.4542
 21
0.00964629
 31
0.0
  0
LINE
  8
0
 62
     204
 10
20.4542
 20
0.00964629
 30
0.0
 11
20.3178
 21
0.00413413
 31
0.0
  0
LINE
  8
0
 62
     204
 10
24.8309
 20
0.56086
 30
0.0
 11
25.0899
 21
0.56086
 31
0.0
  0
LINE
  8
0
 62
     204
 10
25.0899
 20
0.56086
 30
0.0
 11
25.7941
 21
0.921907
 31
0.0
  0
LINE
  8
0
 62
     204
 10
25.7941
 20
0.921907
 30
0.0
 11
25.8671
 21
0.993567
 31
0.0
  0
LINE
  8
0
 62
     204
 10
25.8671
 20
0.993567
 30
0.0
 11
25.9374
 21
1.06385
 31
0.0
  0
LINE
  8
0
 62
     204
 10
25.9374
 20
1.06385
 30
0.0
 11
26.304
 21
1.9265
 31
0.0
  0
LINE
  8
0
 62
     204
 10
26.304
 20
1.9265
 30
0.0
 11
26.3067
 21
2.02847
 31
0.0
  0
LINE
  8
0
 62
     204
 10
26.3067
 20
2.02847
 30
0.0
 11
26.3067
 21
2.93936
 31
0.0
  0
LINE
  8
0
 62
     204
 10
26.3067
 20
2.93936
 30
0.0
 11
24.5649
 21
2.93936
 31
0.0
  0
LINE
  8
0
 62
     204
 10
24.5649
 20
2.93936
 30
0.0
 11
24.5649
 21
2.94762
 31
0.0
  0
LINE
  8
0
 62
     204
 10
24.5649
 20
2.94762
 30
0.0
 11
24.5566
 21
2.94762
 31
0.0
  0
LINE
  8
0
 62
     204
 10
24.5566
 20
2.94762
 30
0.0
 11
24.3444
 21
2.94762
 31
0.0
  0
LINE
  8
0
 62
     204
 10
24.3444
 20
2.94762
 30
0.0
 11
23.767
 21
2.6541
 31
0.0
  0
LINE
  8
0
 62
     204
 10
23.767
 20
2.6541
 30
0.0
 11
23.7091
 21
2.59485
 31
0.0
  0
LINE
  8
0
 62
     204
 10
23.7091
 20
2.59485
 30
0.0
 11
23.6513
 21
2.53697
 31
0.0
  0
LINE
  8
0
 62
     204
 10
23.6513
 20
2.53697
 30
0.0
 11
23.3633
 21
1.94992
 31
0.0
  0
LINE
  8
0
 62
     204
 10
23.3633
 20
1.94992
 30
0.0
 11
23.3633
 21
1.75424
 31
0.0
  0
LINE
  8
0
 62
     204
 10
23.3633
 20
1.75424
 30
0.0
 11
23.3633
 21
1.54202
 31
0.0
  0
LINE
  8
0
 62
     204
 10
23.3633
 20
1.54202
 30
0.0
 11
23.6513
 21
0.967384
 31
0.0
  0
LINE
  8
0
 62
     204
 10
23.6513
 20
0.967384
 30
0.0
 11
23.7091
 21
0.905372
 31
0.0
  0
LINE
  8
0
 62
     204
 10
23.7091
 20
0.905372
 30
0.0
 11
23.7698
 21
0.848872
 31
0.0
  0
LINE
  8
0
 62
     204
 10
23.7698
 20
0.848872
 30
0.0
 11
24.3596
 21
0.56086
 31
0.0
  0
LINE
  8
0
 62
     204
 10
24.3596
 20
0.56086
 30
0.0
 11
24.5566
 21
0.56086
 31
0.0
  0
LINE
  8
0
 62
     204
 10
24.5566
 20
0.56086
 30
0.0
 11
24.5649
 21
0.56086
 31
0.0
  0
LINE
  8
0
 62
     204
 10
24.5649
 20
0.56086
 30
0.0
 11
24.5649
 21
0.569129
 31
0.0
  0
LINE
  8
0
 62
     204
 10
24.5649
 20
0.569129
 30
0.0
 11
24.8226
 21
0.569129
 31
0.0
  0
LINE
  8
0
 62
     204
 10
24.8226
 20
0.569129
 30
0.0
 11
24.8226
 21
0.56086
 31
0.0
  0
LINE
  8
0
 62
     204
 10
24.8226
 20
0.56086
 30
0.0
 11
24.8309
 21
0.56086
 31
0.0
  0
LINE
  8
0
 62
     204
 10
24.7992
 20
0.00413413
 30
0.0
 11
24.5566
 21
0.00413413
 31
0.0
  0
LINE
  8
0
 62
     204
 10
24.5566
 20
0.00413413
 30
0.0
 11
24.2466
 21
0.00413413
 31
0.0
  0
LINE
  8
0
 62
     204
 10
24.2466
 20
0.00413413
 30
0.0
 11
23.4046
 21
0.429948
 31
0.0
  0
LINE
  8
0
 62
     204
 10
23.4046
 20
0.429948
 30
0.0
 11
23.3164
 21
0.514008
 31
0.0
  0
LINE
  8
0
 62
     204
 10
23.3164
 20
0.514008
 30
0.0
 11
23.231
 21
0.603582
 31
0.0
  0
LINE
  8
0
 62
     204
 10
23.231
 20
0.603582
 30
0.0
 11
22.8065
 21
1.46761
 31
0.0
  0
LINE
  8
0
 62
     204
 10
22.8065
 20
1.46761
 30
0.0
 11
22.8065
 21
1.75424
 31
0.0
  0
LINE
  8
0
 62
     204
 10
22.8065
 20
1.75424
 30
0.0
 11
22.8065
 21
1.92374
 31
0.0
  0
LINE
  8
0
 62
     204
 10
22.8065
 20
1.92374
 30
0.0
 11
22.9306
 21
2.4281
 31
0.0
  0
LINE
  8
0
 62
     204
 10
22.9306
 20
2.4281
 30
0.0
 11
23.2241
 21
2.90353
 31
0.0
  0
LINE
  8
0
 62
     204
 10
23.2241
 20
2.90353
 30
0.0
 11
23.3081
 21
2.98621
 31
0.0
  0
LINE
  8
0
 62
     204
 10
23.3081
 20
2.98621
 30
0.0
 11
23.3922
 21
3.07165
 31
0.0
  0
LINE
  8
0
 62
     204
 10
23.3922
 20
3.07165
 30
0.0
 11
23.8704
 21
3.37344
 31
0.0
  0
LINE
  8
0
 62
     204
 10
23.8704
 20
3.37344
 30
0.0
 11
24.4189
 21
3.50986
 31
0.0
  0
LINE
  8
0
 62
     204
 10
24.4189
 20
3.50986
 30
0.0
 11
24.5401
 21
3.51262
 31
0.0
  0
LINE
  8
0
 62
     204
 10
24.5401
 20
3.51262
 30
0.0
 11
26.3067
 21
3.51262
 31
0.0
  0
LINE
  8
0
 62
     204
 10
26.3067
 20
3.51262
 30
0.0
 11
26.3067
 21
3.9522
 31
0.0
  0
LINE
  8
0
 62
     204
 10
26.3067
 20
3.9522
 30
0.0
 11
26.304
 21
4.0349
 31
0.0
  0
LINE
  8
0
 62
     204
 10
26.304
 20
4.0349
 30
0.0
 11
26.0022
 21
4.6881
 31
0.0
  0
LINE
  8
0
 62
     204
 10
26.0022
 20
4.6881
 30
0.0
 11
25.9457
 21
4.73632
 31
0.0
  0
LINE
  8
0
 62
     204
 10
25.9457
 20
4.73632
 30
0.0
 11
25.8878
 21
4.7873
 31
0.0
  0
LINE
  8
0
 62
     204
 10
25.8878
 20
4.7873
 30
0.0
 11
25.3063
 21
5.04225
 31
0.0
  0
LINE
  8
0
 62
     204
 10
25.3063
 20
5.04225
 30
0.0
 11
25.1134
 21
5.04225
 31
0.0
  0
LINE
  8
0
 62
     204
 10
25.1134
 20
5.04225
 30
0.0
 11
25.1051
 21
5.04225
 31
0.0
  0
LINE
  8
0
 62
     204
 10
25.1051
 20
5.04225
 30
0.0
 11
25.0844
 21
5.04776
 31
0.0
  0
LINE
  8
0
 62
     204
 10
25.0844
 20
5.04776
 30
0.0
 11
25.0831
 21
5.04776
 31
0.0
  0
LINE
  8
0
 62
     204
 10
25.0831
 20
5.04776
 30
0.0
 11
25.0803
 21
5.04913
 31
0.0
  0
LINE
  8
0
 62
     204
 10
25.0803
 20
5.04913
 30
0.0
 11
25.039
 21
5.05739
 31
0.0
  0
LINE
  8
0
 62
     204
 10
25.039
 20
5.05739
 30
0.0
 11
25.0348
 21
5.05876
 31
0.0
  0
LINE
  8
0
 62
     204
 10
25.0348
 20
5.05876
 30
0.0
 11
23.6457
 21
5.05876
 31
0.0
  0
LINE
  8
0
 62
     204
 10
23.6457
 20
5.05876
 30
0.0
 11
23.5741
 21
5.05876
 31
0.0
  0
LINE
  8
0
 62
     204
 10
23.5741
 20
5.05876
 30
0.0
 11
23.3633
 21
5.27099
 31
0.0
  0
LINE
  8
0
 62
     204
 10
23.3633
 20
5.27099
 30
0.0
 11
23.3633
 21
5.34127
 31
0.0
  0
LINE
  8
0
 62
     204
 10
23.3633
 20
5.34127
 30
0.0
 11
23.3633
 21
5.41016
 31
0.0
  0
LINE
  8
0
 62
     204
 10
23.3633
 20
5.41016
 30
0.0
 11
23.5741
 21
5.61552
 31
0.0
  0
LINE
  8
0
 62
     204
 10
23.5741
 20
5.61552
 30
0.0
 11
23.6457
 21
5.61552
 31
0.0
  0
LINE
  8
0
 62
     204
 10
23.6457
 20
5.61552
 30
0.0
 11
25.1134
 21
5.61552
 31
0.0
  0
LINE
  8
0
 62
     204
 10
25.1134
 20
5.61552
 30
0.0
 11
25.1202
 21
5.61552
 31
0.0
  0
LINE
  8
0
 62
     204
 10
25.1202
 20
5.61552
 30
0.0
 11
25.1409
 21
5.61277
 31
0.0
  0
LINE
  8
0
 62
     204
 10
25.1409
 20
5.61277
 30
0.0
 11
25.145
 21
5.61139
 31
0.0
  0
LINE
  8
0
 62
     204
 10
25.145
 20
5.61139
 30
0.0
 11
25.1478
 21
5.61139
 31
0.0
  0
LINE
  8
0
 62
     204
 10
25.1478
 20
5.61139
 30
0.0
 11
25.2016
 21
5.60172
 31
0.0
  0
LINE
  8
0
 62
     204
 10
25.2016
 20
5.60172
 30
0.0
 11
25.2084
 21
5.60035
 31
0.0
  0
LINE
  8
0
 62
     204
 10
25.2084
 20
5.60035
 30
0.0
 11
25.3132
 21
5.59484
 31
0.0
  0
LINE
  8
0
 62
     204
 10
25.3132
 20
5.59484
 30
0.0
 11
26.2158
 21
5.24757
 31
0.0
  0
LINE
  8
0
 62
     204
 10
26.2158
 20
5.24757
 30
0.0
 11
26.2916
 21
5.18418
 31
0.0
  0
LINE
  8
0
 62
     204
 10
26.2916
 20
5.18418
 30
0.0
 11
26.3688
 21
5.12216
 31
0.0
  0
LINE
  8
0
 62
     204
 10
26.3688
 20
5.12216
 30
0.0
 11
26.8318
 21
4.30498
 31
0.0
  0
LINE
  8
0
 62
     204
 10
26.8318
 20
4.30498
 30
0.0
 11
26.8483
 21
4.20303
 31
0.0
  0
LINE
  8
0
 62
     204
 10
26.8483
 20
4.20303
 30
0.0
 11
26.8511
 21
4.19336
 31
0.0
  0
LINE
  8
0
 62
     204
 10
26.8511
 20
4.19336
 30
0.0
 11
26.8718
 21
4.12447
 31
0.0
  0
LINE
  8
0
 62
     204
 10
26.8718
 20
4.12447
 30
0.0
 11
26.8718
 21
4.10104
 31
0.0
  0
LINE
  8
0
 62
     204
 10
26.8718
 20
4.10104
 30
0.0
 11
26.8718
 21
0.373447
 31
0.0
  0
LINE
  8
0
 62
     204
 10
26.8718
 20
0.373447
 30
0.0
 11
26.8718
 21
0.303168
 31
0.0
  0
LINE
  8
0
 62
     204
 10
26.8718
 20
0.303168
 30
0.0
 11
26.6595
 21
0.0895724
 31
0.0
  0
LINE
  8
0
 62
     204
 10
26.6595
 20
0.0895724
 30
0.0
 11
26.5892
 21
0.0895724
 31
0.0
  0
LINE
  8
0
 62
     204
 10
26.5892
 20
0.0895724
 30
0.0
 11
26.5176
 21
0.0895724
 31
0.0
  0
LINE
  8
0
 62
     204
 10
26.5176
 20
0.0895724
 30
0.0
 11
26.3067
 21
0.303168
 31
0.0
  0
LINE
  8
0
 62
     204
 10
26.3067
 20
0.303168
 30
0.0
 11
26.3067
 21
0.373447
 31
0.0
  0
LINE
  8
0
 62
     204
 10
26.3067
 20
0.373447
 30
0.0
 11
26.3067
 21
0.63941
 31
0.0
  0
LINE
  8
0
 62
     204
 10
26.3067
 20
0.63941
 30
0.0
 11
26.2062
 21
0.533301
 31
0.0
  0
LINE
  8
0
 62
     204
 10
26.2062
 20
0.533301
 30
0.0
 11
25.6357
 21
0.162609
 31
0.0
  0
LINE
  8
0
 62
     204
 10
25.6357
 20
0.162609
 30
0.0
 11
25.0321
 21
0.00413413
 31
0.0
  0
LINE
  8
0
 62
     204
 10
25.0321
 20
0.00413413
 30
0.0
 11
24.8309
 21
0.00413413
 31
0.0
  0
LINE
  8
0
 62
     204
 10
24.8309
 20
0.00413413
 30
0.0
 11
24.7992
 21
0.00413413
 31
0.0
  0
LINE
  8
0
 62
     204
 10
30.8667
 20
5.23931
 30
0.0
 11
30.8722
 21
5.22965
 31
0.0
  0
LINE
  8
0
 62
     204
 10
30.8722
 20
5.22965
 30
0.0
 11
30.9066
 21
5.13733
 31
0.0
  0
LINE
  8
0
 62
     204
 10
30.9066
 20
5.13733
 30
0.0
 11
30.9066
 21
5.10565
 31
0.0
  0
LINE
  8
0
 62
     204
 10
30.9066
 20
5.10565
 30
0.0
 11
30.9066
 21
5.03813
 31
0.0
  0
LINE
  8
0
 62
     204
 10
30.9066
 20
5.03813
 30
0.0
 11
30.6944
 21
4.8314
 31
0.0
  0
LINE
  8
0
 62
     204
 10
30.6944
 20
4.8314
 30
0.0
 11
30.6241
 21
4.8314
 31
0.0
  0
LINE
  8
0
 62
     204
 10
30.6241
 20
4.8314
 30
0.0
 11
30.5759
 21
4.8314
 31
0.0
  0
LINE
  8
0
 62
     204
 10
30.5759
 20
4.8314
 30
0.0
 11
30.4478
 21
4.89066
 31
0.0
  0
LINE
  8
0
 62
     204
 10
30.4478
 20
4.89066
 30
0.0
 11
30.4353
 21
4.90167
 31
0.0
  0
LINE
  8
0
 62
     204
 10
30.4353
 20
4.90167
 30
0.0
 11
30.383
 21
4.94302
 31
0.0
  0
LINE
  8
0
 62
     204
 10
30.383
 20
4.94302
 30
0.0
 11
29.88
 21
5.14421
 31
0.0
  0
LINE
  8
0
 62
     204
 10
29.88
 20
5.14421
 30
0.0
 11
29.7133
 21
5.14421
 31
0.0
  0
LINE
  8
0
 62
     204
 10
29.7133
 20
5.14421
 30
0.0
 11
29.3756
 21
5.14421
 31
0.0
  0
LINE
  8
0
 62
     204
 10
29.3756
 20
5.14421
 30
0.0
 11
29.2764
 21
5.14008
 31
0.0
  0
LINE
  8
0
 62
     204
 10
29.2764
 20
5.14008
 30
0.0
 11
28.4468
 21
4.76112
 31
0.0
  0
LINE
  8
0
 62
     204
 10
28.4468
 20
4.76112
 30
0.0
 11
28.3793
 21
4.68948
 31
0.0
  0
LINE
  8
0
 62
     204
 10
28.3793
 20
4.68948
 30
0.0
 11
28.3118
 21
4.62333
 31
0.0
  0
LINE
  8
0
 62
     204
 10
28.3118
 20
4.62333
 30
0.0
 11
27.9645
 21
3.79236
 31
0.0
  0
LINE
  8
0
 62
     204
 10
27.9645
 20
3.79236
 30
0.0
 11
27.9631
 21
3.69175
 31
0.0
  0
LINE
  8
0
 62
     204
 10
27.9631
 20
3.69175
 30
0.0
 11
27.9631
 21
0.372071
 31
0.0
  0
LINE
  8
0
 62
     204
 10
27.9631
 20
0.372071
 30
0.0
 11
27.9631
 21
0.30179
 31
0.0
  0
LINE
  8
0
 62
     204
 10
27.9631
 20
0.30179
 30
0.0
 11
27.7509
 21
0.0895724
 31
0.0
  0
LINE
  8
0
 62
     204
 10
27.7509
 20
0.0895724
 30
0.0
 11
27.6806
 21
0.0895724
 31
0.0
  0
LINE
  8
0
 62
     204
 10
27.6806
 20
0.0895724
 30
0.0
 11
27.6117
 21
0.0895724
 31
0.0
  0
LINE
  8
0
 62
     204
 10
27.6117
 20
0.0895724
 30
0.0
 11
27.405
 21
0.30179
 31
0.0
  0
LINE
  8
0
 62
     204
 10
27.405
 20
0.30179
 30
0.0
 11
27.405
 21
0.372071
 31
0.0
  0
LINE
  8
0
 62
     204
 10
27.405
 20
0.372071
 30
0.0
 11
27.405
 21
5.33439
 31
0.0
  0
LINE
  8
0
 62
     204
 10
27.405
 20
5.33439
 30
0.0
 11
27.405
 21
5.40466
 31
0.0
  0
LINE
  8
0
 62
     204
 10
27.405
 20
5.40466
 30
0.0
 11
27.6117
 21
5.61552
 31
0.0
  0
LINE
  8
0
 62
     204
 10
27.6117
 20
5.61552
 30
0.0
 11
27.6806
 21
5.61552
 31
0.0
  0
LINE
  8
0
 62
     204
 10
27.6806
 20
5.61552
 30
0.0
 11
27.7509
 21
5.61552
 31
0.0
  0
LINE
  8
0
 62
     204
 10
27.7509
 20
5.61552
 30
0.0
 11
27.9631
 21
5.40466
 31
0.0
  0
LINE
  8
0
 62
     204
 10
27.9631
 20
5.40466
 30
0.0
 11
27.9631
 21
5.33439
 31
0.0
  0
LINE
  8
0
 62
     204
 10
27.9631
 20
5.33439
 30
0.0
 11
27.9631
 21
5.07393
 31
0.0
  0
LINE
  8
0
 62
     204
 10
27.9631
 20
5.07393
 30
0.0
 11
28.0596
 21
5.17592
 31
0.0
  0
LINE
  8
0
 62
     204
 10
28.0596
 20
5.17592
 30
0.0
 11
28.6039
 21
5.53558
 31
0.0
  0
LINE
  8
0
 62
     204
 10
28.6039
 20
5.53558
 30
0.0
 11
29.231
 21
5.70509
 31
0.0
  0
LINE
  8
0
 62
     204
 10
29.231
 20
5.70509
 30
0.0
 11
29.3688
 21
5.71059
 31
0.0
  0
LINE
  8
0
 62
     204
 10
29.3688
 20
5.71059
 30
0.0
 11
29.7298
 21
5.71059
 31
0.0
  0
LINE
  8
0
 62
     204
 10
29.7298
 20
5.71059
 30
0.0
 11
29.8318
 21
5.70784
 31
0.0
  0
LINE
  8
0
 62
     204
 10
29.8318
 20
5.70784
 30
0.0
 11
30.7137
 21
5.40053
 31
0.0
  0
LINE
  8
0
 62
     204
 10
30.7137
 20
5.40053
 30
0.0
 11
30.7895
 21
5.34127
 31
0.0
  0
LINE
  8
0
 62
     204
 10
30.7895
 20
5.34127
 30
0.0
 11
30.8115
 21
5.31784
 31
0.0
  0
LINE
  8
0
 62
     204
 10
30.8115
 20
5.31784
 30
0.0
 11
30.8143
 21
5.31509
 31
0.0
  0
LINE
  8
0
 62
     204
 10
30.8143
 20
5.31509
 30
0.0
 11
30.8433
 21
5.28891
 31
0.0
  0
LINE
  8
0
 62
     204
 10
30.8433
 20
5.28891
 30
0.0
 11
30.8474
 21
5.28616
 31
0.0
  0
LINE
  8
0
 62
     204
 10
30.8474
 20
5.28616
 30
0.0
 11
30.8501
 21
5.28479
 31
0.0
  0
LINE
  8
0
 62
     204
 10
30.8501
 20
5.28479
 30
0.0
 11
30.8805
 21
5.2572
 31
0.0
  0
LINE
  8
0
 62
     204
 10
30.8805
 20
5.2572
 30
0.0
 11
30.8832
 21
5.25445
 31
0.0
  0
LINE
  8
0
 62
     204
 10
30.8832
 20
5.25445
 30
0.0
 11
30.8667
 21
5.23931
 31
0.0
  0
LINE
  8
0
 62
     204
 10
33.1198
 20
7.09965
 30
0.0
 11
33.1198
 21
7.028
 31
0.0
  0
LINE
  8
0
 62
     204
 10
33.1198
 20
7.028
 30
0.0
 11
33.0206
 21
6.81164
 31
0.0
  0
LINE
  8
0
 62
     204
 10
33.0206
 20
6.81164
 30
0.0
 11
32.8001
 21
6.71382
 31
0.0
  0
LINE
  8
0
 62
     204
 10
32.8001
 20
6.71382
 30
0.0
 11
32.727
 21
6.71382
 31
0.0
  0
LINE
  8
0
 62
     204
 10
32.727
 20
6.71382
 30
0.0
 11
32.654
 21
6.71382
 31
0.0
  0
LINE
  8
0
 62
     204
 10
32.654
 20
6.71382
 30
0.0
 11
32.4376
 21
6.81164
 31
0.0
  0
LINE
  8
0
 62
     204
 10
32.4376
 20
6.81164
 30
0.0
 11
32.3426
 21
7.028
 31
0.0
  0
LINE
  8
0
 62
     204
 10
32.3426
 20
7.028
 30
0.0
 11
32.3426
 21
7.09965
 31
0.0
  0
LINE
  8
0
 62
     204
 10
32.3426
 20
7.09965
 30
0.0
 11
32.3426
 21
7.17405
 31
0.0
  0
LINE
  8
0
 62
     204
 10
32.3426
 20
7.17405
 30
0.0
 11
32.4376
 21
7.39454
 31
0.0
  0
LINE
  8
0
 62
     204
 10
32.4376
 20
7.39454
 30
0.0
 11
32.654
 21
7.49102
 31
0.0
  0
LINE
  8
0
 62
     204
 10
32.654
 20
7.49102
 30
0.0
 11
32.727
 21
7.49102
 31
0.0
  0
LINE
  8
0
 62
     204
 10
32.727
 20
7.49102
 30
0.0
 11
32.8001
 21
7.49102
 31
0.0
  0
LINE
  8
0
 62
     204
 10
32.8001
 20
7.49102
 30
0.0
 11
33.0206
 21
7.39454
 31
0.0
  0
LINE
  8
0
 62
     204
 10
33.0206
 20
7.39454
 30
0.0
 11
33.1198
 21
7.17405
 31
0.0
  0
LINE
  8
0
 62
     204
 10
33.1198
 20
7.17405
 30
0.0
 11
33.1198
 21
7.09965
 31
0.0
  0
LINE
  8
0
 62
     204
 10
33.1198
 20
5.33301
 30
0.0
 11
33.1198
 21
0.373447
 31
0.0
  0
LINE
  8
0
 62
     204
 10
33.1198
 20
0.373447
 30
0.0
 11
33.1198
 21
0.303168
 31
0.0
  0
LINE
  8
0
 62
     204
 10
33.1198
 20
0.303168
 30
0.0
 11
32.9076
 21
0.0895724
 31
0.0
  0
LINE
  8
0
 62
     204
 10
32.9076
 20
0.0895724
 30
0.0
 11
32.8373
 21
0.0895724
 31
0.0
  0
LINE
  8
0
 62
     204
 10
32.8373
 20
0.0895724
 30
0.0
 11
32.7656
 21
0.0895724
 31
0.0
  0
LINE
  8
0
 62
     204
 10
32.7656
 20
0.0895724
 30
0.0
 11
32.5548
 21
0.303168
 31
0.0
  0
LINE
  8
0
 62
     204
 10
32.5548
 20
0.303168
 30
0.0
 11
32.5548
 21
0.373447
 31
0.0
  0
LINE
  8
0
 62
     204
 10
32.5548
 20
0.373447
 30
0.0
 11
32.5548
 21
5.05051
 31
0.0
  0
LINE
  8
0
 62
     204
 10
32.5548
 20
5.05051
 30
0.0
 11
31.6439
 21
5.05051
 31
0.0
  0
LINE
  8
0
 62
     204
 10
31.6439
 20
5.05051
 30
0.0
 11
31.5722
 21
5.05051
 31
0.0
  0
LINE
  8
0
 62
     204
 10
31.5722
 20
5.05051
 30
0.0
 11
31.3614
 21
5.26274
 31
0.0
  0
LINE
  8
0
 62
     204
 10
31.3614
 20
5.26274
 30
0.0
 11
31.3614
 21
5.33301
 31
0.0
  0
LINE
  8
0
 62
     204
 10
31.3614
 20
5.33301
 30
0.0
 11
31.3614
 21
5.40466
 31
0.0
  0
LINE
  8
0
 62
     204
 10
31.3614
 20
5.40466
 30
0.0
 11
31.5722
 21
5.61552
 31
0.0
  0
LINE
  8
0
 62
     204
 10
31.5722
 20
5.61552
 30
0.0
 11
31.6439
 21
5.61552
 31
0.0
  0
LINE
  8
0
 62
     204
 10
31.6439
 20
5.61552
 30
0.0
 11
32.8373
 21
5.61552
 31
0.0
  0
LINE
  8
0
 62
     204
 10
32.8373
 20
5.61552
 30
0.0
 11
32.9076
 21
5.61552
 31
0.0
  0
LINE
  8
0
 62
     204
 10
32.9076
 20
5.61552
 30
0.0
 11
33.1198
 21
5.40466
 31
0.0
  0
LINE
  8
0
 62
     204
 10
33.1198
 20
5.40466
 30
0.0
 11
33.1198
 21
5.33301
 31
0.0
  0
LINE
  8
0
 62
     204
 10
35.9929
 20
0.00413413
 30
0.0
 11
35.6235
 21
0.00413413
 31
0.0
  0
LINE
  8
0
 62
     204
 10
35.6235
 20
0.00413413
 30
0.0
 11
35.3205
 21
0.00413413
 31
0.0
  0
LINE
  8
0
 62
     204
 10
35.3205
 20
0.00413413
 30
0.0
 11
34.4992
 21
0.409279
 31
0.0
  0
LINE
  8
0
 62
     204
 10
34.4992
 20
0.409279
 30
0.0
 11
34.4151
 21
0.490583
 31
0.0
  0
LINE
  8
0
 62
     204
 10
34.4151
 20
0.490583
 30
0.0
 11
34.3311
 21
0.570509
 31
0.0
  0
LINE
  8
0
 62
     204
 10
34.3311
 20
0.570509
 30
0.0
 11
34.0321
 21
1.02802
 31
0.0
  0
LINE
  8
0
 62
     204
 10
34.0321
 20
1.02802
 30
0.0
 11
33.8928
 21
1.56545
 31
0.0
  0
LINE
  8
0
 62
     204
 10
33.8928
 20
1.56545
 30
0.0
 11
33.8887
 21
1.68396
 31
0.0
  0
LINE
  8
0
 62
     204
 10
33.8887
 20
1.68396
 30
0.0
 11
33.8873
 21
1.68672
 31
0.0
  0
LINE
  8
0
 62
     204
 10
33.8873
 20
1.68672
 30
0.0
 11
33.8818
 21
1.7322
 31
0.0
  0
LINE
  8
0
 62
     204
 10
33.8818
 20
1.7322
 30
0.0
 11
33.8818
 21
1.74597
 31
0.0
  0
LINE
  8
0
 62
     204
 10
33.8818
 20
1.74597
 30
0.0
 11
33.8818
 21
5.33301
 31
0.0
  0
LINE
  8
0
 62
     204
 10
33.8818
 20
5.33301
 30
0.0
 11
33.8818
 21
5.40466
 31
0.0
  0
LINE
  8
0
 62
     204
 10
33.8818
 20
5.40466
 30
0.0
 11
34.0872
 21
5.61552
 31
0.0
  0
LINE
  8
0
 62
     204
 10
34.0872
 20
5.61552
 30
0.0
 11
34.156
 21
5.61552
 31
0.0
  0
LINE
  8
0
 62
     204
 10
34.156
 20
5.61552
 30
0.0
 11
34.2263
 21
5.61552
 31
0.0
  0
LINE
  8
0
 62
     204
 10
34.2263
 20
5.61552
 30
0.0
 11
34.4386
 21
5.40466
 31
0.0
  0
LINE
  8
0
 62
     204
 10
34.4386
 20
5.40466
 30
0.0
 11
34.4386
 21
5.33301
 31
0.0
  0
LINE
  8
0
 62
     204
 10
34.4386
 20
5.33301
 30
0.0
 11
34.4386
 21
1.76113
 31
0.0
  0
LINE
  8
0
 62
     204
 10
34.4386
 20
1.76113
 30
0.0
 11
34.4468
 21
1.76113
 31
0.0
  0
LINE
  8
0
 62
     204
 10
34.4468
 20
1.76113
 30
0.0
 11
34.4468
 21
1.75424
 31
0.0
  0
LINE
  8
0
 62
     204
 10
34.4468
 20
1.75424
 30
0.0
 11
34.4468
 21
1.5434
 31
0.0
  0
LINE
  8
0
 62
     204
 10
34.4468
 20
1.5434
 30
0.0
 11
34.7348
 21
0.96876
 31
0.0
  0
LINE
  8
0
 62
     204
 10
34.7348
 20
0.96876
 30
0.0
 11
34.7927
 21
0.906748
 31
0.0
  0
LINE
  8
0
 62
     204
 10
34.7927
 20
0.906748
 30
0.0
 11
34.8534
 21
0.848872
 31
0.0
  0
LINE
  8
0
 62
     204
 10
34.8534
 20
0.848872
 30
0.0
 11
35.4432
 21
0.56086
 31
0.0
  0
LINE
  8
0
 62
     204
 10
35.4432
 20
0.56086
 30
0.0
 11
35.6401
 21
0.56086
 31
0.0
  0
LINE
  8
0
 62
     204
 10
35.6401
 20
0.56086
 30
0.0
 11
35.6401
 21
0.569129
 31
0.0
  0
LINE
  8
0
 62
     204
 10
35.6401
 20
0.569129
 30
0.0
 11
35.9929
 21
0.569129
 31
0.0
  0
LINE
  8
0
 62
     204
 10
35.9929
 20
0.569129
 30
0.0
 11
36.0881
 21
0.574643
 31
0.0
  0
LINE
  8
0
 62
     204
 10
36.0881
 20
0.574643
 30
0.0
 11
36.8984
 21
0.946711
 31
0.0
  0
LINE
  8
0
 62
     204
 10
36.8984
 20
0.946711
 30
0.0
 11
36.9658
 21
1.01562
 31
0.0
  0
LINE
  8
0
 62
     204
 10
36.9658
 20
1.01562
 30
0.0
 11
37.0321
 21
1.08314
 31
0.0
  0
LINE
  8
0
 62
     204
 10
37.0321
 20
1.08314
 30
0.0
 11
37.3793
 21
1.9265
 31
0.0
  0
LINE
  8
0
 62
     204
 10
37.3793
 20
1.9265
 30
0.0
 11
37.3821
 21
2.02847
 31
0.0
  0
LINE
  8
0
 62
     204
 10
37.3821
 20
2.02847
 30
0.0
 11
37.3821
 21
5.34127
 31
0.0
  0
LINE
  8
0
 62
     204
 10
37.3821
 20
5.34127
 30
0.0
 11
37.3821
 21
5.41016
 31
0.0
  0
LINE
  8
0
 62
     204
 10
37.3821
 20
5.41016
 30
0.0
 11
37.5931
 21
5.61552
 31
0.0
  0
LINE
  8
0
 62
     204
 10
37.5931
 20
5.61552
 30
0.0
 11
37.6647
 21
5.61552
 31
0.0
  0
LINE
  8
0
 62
     204
 10
37.6647
 20
5.61552
 30
0.0
 11
37.7349
 21
5.61552
 31
0.0
  0
LINE
  8
0
 62
     204
 10
37.7349
 20
5.61552
 30
0.0
 11
37.9483
 21
5.41016
 31
0.0
  0
LINE
  8
0
 62
     204
 10
37.9483
 20
5.41016
 30
0.0
 11
37.9483
 21
5.34127
 31
0.0
  0
LINE
  8
0
 62
     204
 10
37.9483
 20
5.34127
 30
0.0
 11
37.9483
 21
0.372071
 31
0.0
  0
LINE
  8
0
 62
     204
 10
37.9483
 20
0.372071
 30
0.0
 11
37.9483
 21
0.30179
 31
0.0
  0
LINE
  8
0
 62
     204
 10
37.9483
 20
0.30179
 30
0.0
 11
37.7349
 21
0.0895724
 31
0.0
  0
LINE
  8
0
 62
     204
 10
37.7349
 20
0.0895724
 30
0.0
 11
37.6647
 21
0.0895724
 31
0.0
  0
LINE
  8
0
 62
     204
 10
37.6647
 20
0.0895724
 30
0.0
 11
37.5931
 21
0.0895724
 31
0.0
  0
LINE
  8
0
 62
     204
 10
37.5931
 20
0.0895724
 30
0.0
 11
37.3821
 21
0.30179
 31
0.0
  0
LINE
  8
0
 62
     204
 10
37.3821
 20
0.30179
 30
0.0
 11
37.3821
 21
0.372071
 31
0.0
  0
LINE
  8
0
 62
     204
 10
37.3821
 20
0.372071
 30
0.0
 11
37.3821
 21
0.63941
 31
0.0
  0
LINE
  8
0
 62
     204
 10
37.3821
 20
0.63941
 30
0.0
 11
37.2868
 21
0.538812
 31
0.0
  0
LINE
  8
0
 62
     204
 10
37.2868
 20
0.538812
 30
0.0
 11
36.7524
 21
0.179145
 31
0.0
  0
LINE
  8
0
 62
     204
 10
36.7524
 20
0.179145
 30
0.0
 11
36.1294
 21
0.00964629
 31
0.0
  0
LINE
  8
0
 62
     204
 10
36.1294
 20
0.00964629
 30
0.0
 11
35.9929
 21
0.00413413
 31
0.0
  0
LINE
  8
0
 62
     204
 10
40.2318
 20
5.71059
 30
0.0
 11
40.4453
 21
5.71059
 31
0.0
  0
LINE
  8
0
 62
     204
 10
40.4453
 20
5.71059
 30
0.0
 11
41.0228
 21
5.52041
 31
0.0
  0
LINE
  8
0
 62
     204
 10
41.0228
 20
5.52041
 30
0.0
 11
41.0877
 21
5.48185
 31
0.0
  0
LINE
  8
0
 62
     204
 10
41.0877
 20
5.48185
 30
0.0
 11
41.1508
 21
5.44463
 31
0.0
  0
LINE
  8
0
 62
     204
 10
41.1508
 20
5.44463
 30
0.0
 11
41.6676
 21
4.95406
 31
0.0
  0
LINE
  8
0
 62
     204
 10
41.6676
 20
4.95406
 30
0.0
 11
41.7079
 21
4.89342
 31
0.0
  0
LINE
  8
0
 62
     204
 10
41.7079
 20
4.89342
 30
0.0
 11
41.7463
 21
4.95406
 31
0.0
  0
LINE
  8
0
 62
     204
 10
41.7463
 20
4.95406
 30
0.0
 11
42.2674
 21
5.44463
 31
0.0
  0
LINE
  8
0
 62
     204
 10
42.2674
 20
5.44463
 30
0.0
 11
42.3319
 21
5.48185
 31
0.0
  0
LINE
  8
0
 62
     204
 10
42.3319
 20
5.48185
 30
0.0
 11
42.3968
 21
5.52041
 31
0.0
  0
LINE
  8
0
 62
     204
 10
42.3968
 20
5.52041
 30
0.0
 11
42.992
 21
5.71059
 31
0.0
  0
LINE
  8
0
 62
     204
 10
42.992
 20
5.71059
 30
0.0
 11
43.1906
 21
5.71059
 31
0.0
  0
LINE
  8
0
 62
     204
 10
43.1906
 20
5.71059
 30
0.0
 11
43.3557
 21
5.71059
 31
0.0
  0
LINE
  8
0
 62
     204
 10
43.3557
 20
5.71059
 30
0.0
 11
43.8535
 21
5.58243
 31
0.0
  0
LINE
  8
0
 62
     204
 10
43.8535
 20
5.58243
 30
0.0
 11
44.3301
 21
5.27925
 31
0.0
  0
LINE
  8
0
 62
     204
 10
44.3301
 20
5.27925
 30
0.0
 11
44.4154
 21
5.19247
 31
0.0
  0
LINE
  8
0
 62
     204
 10
44.4154
 20
5.19247
 30
0.0
 11
44.4997
 21
5.1084
 31
0.0
  0
LINE
  8
0
 62
     204
 10
44.4997
 20
5.1084
 30
0.0
 11
44.9393
 21
4.08725
 31
0.0
  0
LINE
  8
0
 62
     204
 10
44.9393
 20
4.08725
 30
0.0
 11
44.9421
 21
3.96737
 31
0.0
  0
LINE
  8
0
 62
     204
 10
44.9421
 20
3.96737
 30
0.0
 11
44.9421
 21
0.372071
 31
0.0
  0
LINE
  8
0
 62
     204
 10
44.9421
 20
0.372071
 30
0.0
 11
44.9421
 21
0.30179
 31
0.0
  0
LINE
  8
0
 62
     204
 10
44.9421
 20
0.30179
 30
0.0
 11
44.7283
 21
0.0895724
 31
0.0
  0
LINE
  8
0
 62
     204
 10
44.7283
 20
0.0895724
 30
0.0
 11
44.6581
 21
0.0895724
 31
0.0
  0
LINE
  8
0
 62
     204
 10
44.6581
 20
0.0895724
 30
0.0
 11
44.5865
 21
0.0895724
 31
0.0
  0
LINE
  8
0
 62
     204
 10
44.5865
 20
0.0895724
 30
0.0
 11
44.3756
 21
0.30179
 31
0.0
  0
LINE
  8
0
 62
     204
 10
44.3756
 20
0.30179
 30
0.0
 11
44.3756
 21
0.372071
 31
0.0
  0
LINE
  8
0
 62
     204
 10
44.3756
 20
0.372071
 30
0.0
 11
44.3756
 21
3.9908
 31
0.0
  0
LINE
  8
0
 62
     204
 10
44.3756
 20
3.9908
 30
0.0
 11
44.3742
 21
4.07074
 31
0.0
  0
LINE
  8
0
 62
     204
 10
44.3742
 20
4.07074
 30
0.0
 11
44.0725
 21
4.75149
 31
0.0
  0
LINE
  8
0
 62
     204
 10
44.0725
 20
4.75149
 30
0.0
 11
44.0147
 21
4.8066
 31
0.0
  0
LINE
  8
0
 62
     204
 10
44.0147
 20
4.8066
 30
0.0
 11
43.9579
 21
4.86311
 31
0.0
  0
LINE
  8
0
 62
     204
 10
43.9579
 20
4.86311
 30
0.0
 11
43.3821
 21
5.14421
 31
0.0
  0
LINE
  8
0
 62
     204
 10
43.3821
 20
5.14421
 30
0.0
 11
43.1906
 21
5.14421
 31
0.0
  0
LINE
  8
0
 62
     204
 10
43.1906
 20
5.14421
 30
0.0
 11
42.9782
 21
5.14421
 31
0.0
  0
LINE
  8
0
 62
     204
 10
42.9782
 20
5.14421
 30
0.0
 11
42.4007
 21
4.85069
 31
0.0
  0
LINE
  8
0
 62
     204
 10
42.4007
 20
4.85069
 30
0.0
 11
42.3429
 21
4.79143
 31
0.0
  0
LINE
  8
0
 62
     204
 10
42.3429
 20
4.79143
 30
0.0
 11
42.285
 21
4.73495
 31
0.0
  0
LINE
  8
0
 62
     204
 10
42.285
 20
4.73495
 30
0.0
 11
41.9971
 21
4.14789
 31
0.0
  0
LINE
  8
0
 62
     204
 10
41.9971
 20
4.14789
 30
0.0
 11
41.9971
 21
3.9522
 31
0.0
  0
LINE
  8
0
 62
     204
 10
41.9971
 20
3.9522
 30
0.0
 11
41.9971
 21
3.92053
 31
0.0
  0
LINE
  8
0
 62
     204
 10
41.9971
 20
3.92053
 30
0.0
 11
41.9971
 21
3.89985
 31
0.0
  0
LINE
  8
0
 62
     204
 10
41.9971
 20
3.89985
 30
0.0
 11
41.9848
 21
3.8475
 31
0.0
  0
LINE
  8
0
 62
     204
 10
41.9848
 20
3.8475
 30
0.0
 11
41.982
 21
3.83371
 31
0.0
  0
LINE
  8
0
 62
     204
 10
41.982
 20
3.83371
 30
0.0
 11
41.982
 21
0.372071
 31
0.0
  0
LINE
  8
0
 62
     204
 10
41.982
 20
0.372071
 30
0.0
 11
41.982
 21
0.30179
 31
0.0
  0
LINE
  8
0
 62
     204
 10
41.982
 20
0.30179
 30
0.0
 11
41.7696
 21
0.0895724
 31
0.0
  0
LINE
  8
0
 62
     204
 10
41.7696
 20
0.0895724
 30
0.0
 11
41.6994
 21
0.0895724
 31
0.0
  0
LINE
  8
0
 62
     204
 10
41.6994
 20
0.0895724
 30
0.0
 11
41.6306
 21
0.0895724
 31
0.0
  0
LINE
  8
0
 62
     204
 10
41.6306
 20
0.0895724
 30
0.0
 11
41.4253
 21
0.30179
 31
0.0
  0
LINE
  8
0
 62
     204
 10
41.4253
 20
0.30179
 30
0.0
 11
41.4253
 21
0.372071
 31
0.0
  0
LINE
  8
0
 62
     204
 10
41.4253
 20
0.372071
 30
0.0
 11
41.4253
 21
3.9908
 31
0.0
  0
LINE
  8
0
 62
     204
 10
41.4253
 20
3.9908
 30
0.0
 11
41.4239
 21
4.06936
 31
0.0
  0
LINE
  8
0
 62
     204
 10
41.4239
 20
4.06936
 30
0.0
 11
41.1152
 21
4.75008
 31
0.0
  0
LINE
  8
0
 62
     204
 10
41.1152
 20
4.75008
 30
0.0
 11
41.0559
 21
4.8066
 31
0.0
  0
LINE
  8
0
 62
     204
 10
41.0559
 20
4.8066
 30
0.0
 11
40.9995
 21
4.86311
 31
0.0
  0
LINE
  8
0
 62
     204
 10
40.9995
 20
4.86311
 30
0.0
 11
40.4234
 21
5.14421
 31
0.0
  0
LINE
  8
0
 62
     204
 10
40.4234
 20
5.14421
 30
0.0
 11
40.2318
 21
5.14421
 31
0.0
  0
LINE
  8
0
 62
     204
 10
40.2318
 20
5.14421
 30
0.0
 11
40.0209
 21
5.14421
 31
0.0
  0
LINE
  8
0
 62
     204
 10
40.0209
 20
5.14421
 30
0.0
 11
39.4518
 21
4.85757
 31
0.0
  0
LINE
  8
0
 62
     204
 10
39.4518
 20
4.85757
 30
0.0
 11
39.3912
 21
4.79972
 31
0.0
  0
LINE
  8
0
 62
     204
 10
39.3912
 20
4.79972
 30
0.0
 11
39.3347
 21
4.7432
 31
0.0
  0
LINE
  8
0
 62
     204
 10
39.3347
 20
4.7432
 30
0.0
 11
39.0398
 21
4.05007
 31
0.0
  0
LINE
  8
0
 62
     204
 10
39.0398
 20
4.05007
 30
0.0
 11
39.0384
 21
3.96737
 31
0.0
  0
LINE
  8
0
 62
     204
 10
39.0384
 20
3.96737
 30
0.0
 11
39.0384
 21
0.372071
 31
0.0
  0
LINE
  8
0
 62
     204
 10
39.0384
 20
0.372071
 30
0.0
 11
39.0384
 21
0.30179
 31
0.0
  0
LINE
  8
0
 62
     204
 10
39.0384
 20
0.30179
 30
0.0
 11
38.8264
 21
0.0895724
 31
0.0
  0
LINE
  8
0
 62
     204
 10
38.8264
 20
0.0895724
 30
0.0
 11
38.7558
 21
0.0895724
 31
0.0
  0
LINE
  8
0
 62
     204
 10
38.7558
 20
0.0895724
 30
0.0
 11
38.687
 21
0.0895724
 31
0.0
  0
LINE
  8
0
 62
     204
 10
38.687
 20
0.0895724
 30
0.0
 11
38.4817
 21
0.30179
 31
0.0
  0
LINE
  8
0
 62
     204
 10
38.4817
 20
0.30179
 30
0.0
 11
38.4817
 21
0.372071
 31
0.0
  0
LINE
  8
0
 62
     204
 10
38.4817
 20
0.372071
 30
0.0
 11
38.4817
 21
5.33439
 31
0.0
  0
LINE
  8
0
 62
     204
 10
38.4817
 20
5.33439
 30
0.0
 11
38.4817
 21
5.40466
 31
0.0
  0
LINE
  8
0
 62
     204
 10
38.4817
 20
5.40466
 30
0.0
 11
38.687
 21
5.61552
 31
0.0
  0
LINE
  8
0
 62
     204
 10
38.687
 20
5.61552
 30
0.0
 11
38.7558
 21
5.61552
 31
0.0
  0
LINE
  8
0
 62
     204
 10
38.7558
 20
5.61552
 30
0.0
 11
38.8264
 21
5.61552
 31
0.0
  0
LINE
  8
0
 62
     204
 10
38.8264
 20
5.61552
 30
0.0
 11
39.0384
 21
5.40466
 31
0.0
  0
LINE
  8
0
 62
     204
 10
39.0384
 20
5.40466
 30
0.0
 11
39.0384
 21
5.33439
 31
0.0
  0
LINE
  8
0
 62
     204
 10
39.0384
 20
5.33439
 30
0.0
 11
39.0384
 21
5.23102
 31
0.0
  0
LINE
  8
0
 62
     204
 10
39.0384
 20
5.23102
 30
0.0
 11
39.1185
 21
5.31096
 31
0.0
  0
LINE
  8
0
 62
     204
 10
39.1185
 20
5.31096
 30
0.0
 11
39.576
 21
5.59072
 31
0.0
  0
LINE
  8
0
 62
     204
 10
39.576
 20
5.59072
 30
0.0
 11
40.0678
 21
5.71059
 31
0.0
  0
LINE
  8
0
 62
     204
 10
40.0678
 20
5.71059
 30
0.0
 11
40.2318
 21
5.71059
 31
0.0
  0
ENDSEC
  0
EOF
