<?xml version="1.0" encoding="UTF-8" standalone="no"?>
<!-- Created with Inkscape (http://www.inkscape.org/) -->

<svg
   xmlns:dc="http://purl.org/dc/elements/1.1/"
   xmlns:cc="http://creativecommons.org/ns#"
   xmlns:rdf="http://www.w3.org/1999/02/22-rdf-syntax-ns#"
   xmlns:svg="http://www.w3.org/2000/svg"
   xmlns="http://www.w3.org/2000/svg"
   xmlns:sodipodi="http://sodipodi.sourceforge.net/DTD/sodipodi-0.dtd"
   xmlns:inkscape="http://www.inkscape.org/namespaces/inkscape"
   version="1.1"
   id="svg3481"
   xml:space="preserve"
   width="245.66933"
   height="245.66933"
   viewBox="0 0 245.66933 245.66933"
   sodipodi:docname="logo.svg"
   inkscape:version="0.92+devel unknown"><metadata
     id="metadata3487"><rdf:RDF><cc:Work
         rdf:about=""><dc:format>image/svg+xml</dc:format><dc:type
           rdf:resource="http://purl.org/dc/dcmitype/StillImage" /><dc:title></dc:title></cc:Work></rdf:RDF></metadata><defs
     id="defs3485"><clipPath
       clipPathUnits="userSpaceOnUse"
       id="clipPath3497"><path
         d="M 0,0 H 184.252 V 184.252 H 0 Z"
         id="path3495"
         inkscape:connector-curvature="0" /></clipPath></defs><sodipodi:namedview
     pagecolor="#ffffff"
     bordercolor="#666666"
     inkscape:document-rotation="0"
     borderopacity="1"
     objecttolerance="10"
     gridtolerance="10"
     guidetolerance="10"
     inkscape:pageopacity="0"
     inkscape:pageshadow="2"
     inkscape:window-width="1920"
     inkscape:window-height="1016"
     id="namedview3483"
     showgrid="false"
     inkscape:zoom="3.2930444"
     inkscape:cx="122.83466"
     inkscape:cy="122.83466"
     inkscape:window-x="0"
     inkscape:window-y="0"
     inkscape:window-maximized="1"
     inkscape:current-layer="g3493" /><g
     id="g3489"
     inkscape:groupmode="layer"
     inkscape:label="logoHackuariumText_vectorgraphics"
     transform="matrix(1.3333333,0,0,-1.3333333,0,245.66933)"><g
       id="g3491"><g
         id="g3493"
         clip-path="url(#clipPath3497)"><g
           id="g3499"
           transform="translate(32.3184,67.5908)"><path
             d="m 0,0 c -1.365,0.455 -2.727,1.835 -3.294,3.338 -0.876,2.32 -0.196,5.026 1.641,6.531 1.632,1.338 1.372,1.315 13.567,1.315 7.285,0 11.183,0.07 11.554,0.211 0.761,0.288 1.644,1.144 1.975,1.918 0.226,0.528 0.274,4.008 0.274,20.041 v 19.4 l 0.646,-0.461 c 0.542,-0.386 0.948,-0.472 2.513,-0.53 2.305,-0.087 2.91,-0.376 3.384,-1.621 1.32,-3.46 4.942,-6.787 8.663,-7.959 2.098,-0.66 5.258,-0.751 7.503,-0.215 5.827,1.39 10.143,6.399 10.617,12.321 0.132,1.645 0.436,2.215 1.182,2.215 0.636,0 1.073,-0.724 1.075,-1.784 0.002,-1.49 0.751,-4.151 1.644,-5.842 1.148,-2.173 3.464,-4.489 5.637,-5.637 5.253,-2.774 11.663,-1.99 16.044,1.964 1.39,1.254 2.945,3.441 3.475,4.883 0.47,1.28 0.953,1.527 3.224,1.649 1.705,0.091 1.999,0.164 2.64,0.653 l 0.722,0.55 0.053,-19.569 0.054,-19.569 0.599,-0.864 c 0.35,-0.502 0.966,-1.046 1.483,-1.308 l 0.884,-0.446 h 10.766 c 11.944,0 11.709,0.021 13.34,-1.315 2.586,-2.119 2.709,-6.24 0.256,-8.629 -1.657,-1.614 -1.41,-1.587 -14.214,-1.587 -12.469,0 -13.044,0.046 -15.703,1.277 -3.737,1.725 -6.487,4.575 -7.978,8.266 -0.811,2.007 -1.062,3.869 -1.062,7.877 0,3.63 -0.006,3.674 -0.488,4.156 -0.768,0.768 -1.716,0.583 -2.262,-0.443 -0.165,-0.307 -0.231,-2.692 -0.231,-8.265 0,-8.704 -0.044,-9.072 -1.253,-10.545 -2.601,-3.176 -7.478,-2.589 -9.442,1.131 l -0.537,1.019 -0.099,8.416 -0.1,8.416 -0.469,0.38 C 67.66,21.844 67.027,21.817 66.512,21.27 66.097,20.828 66.088,20.665 66.029,12.474 L 65.97,4.126 65.44,3.122 c -1.138,-2.156 -2.79,-3.174 -5.14,-3.166 -1.297,0.009 -1.64,0.087 -2.584,0.617 -0.599,0.336 -1.379,0.989 -1.734,1.449 -1.117,1.454 -1.197,2.104 -1.325,10.75 -0.107,7.224 -0.146,7.892 -0.484,8.349 -0.493,0.666 -1.415,0.756 -1.929,0.19 -0.365,-0.403 -0.399,-0.936 -0.586,-9.004 L 51.459,3.729 50.93,2.834 c -1.166,-1.973 -2.725,-2.883 -4.937,-2.883 -2.213,0 -3.772,0.91 -4.938,2.883 l -0.529,0.895 -0.1,8.481 -0.099,8.482 -0.482,0.513 c -0.572,0.608 -1.188,0.653 -1.832,0.133 -0.459,-0.371 -0.471,-0.467 -0.591,-4.721 -0.101,-3.605 -0.196,-4.61 -0.561,-5.93 C 35.703,6.492 32.537,2.744 28.625,0.938 25.921,-0.309 25.423,-0.348 12.556,-0.334 2.417,-0.323 0.848,-0.28 0,0"
             style="fill:#501288;fill-opacity:1;fill-rule:nonzero;stroke:none"
             id="path3501"
             inkscape:connector-curvature="0" /></g><g
           id="g3503"
           transform="translate(84.4331,123.2368)"><path
             d="m 0,0 -0.06,-1.03 -0.914,-0.177 c -0.797,-0.154 -0.946,-0.264 -1.16,-0.858 -0.224,-0.619 -0.201,-0.75 0.255,-1.439 l 0.501,-0.757 -0.66,-0.72 c -0.362,-0.396 -0.72,-0.721 -0.795,-0.721 -0.075,0 -0.434,0.228 -0.798,0.506 -0.454,0.346 -0.81,0.47 -1.13,0.393 -0.423,-0.103 -0.528,0.03 -1.118,1.41 l -0.651,1.523 0.423,0.296 c 0.534,0.375 0.944,1.331 0.828,1.936 -0.263,1.38 -2.244,1.882 -3.172,0.804 -0.662,-0.77 -0.542,-1.985 0.26,-2.624 l 0.54,-0.431 -0.668,-1.52 c -0.603,-1.372 -0.713,-1.508 -1.13,-1.404 -0.318,0.08 -0.669,-0.041 -1.121,-0.386 -0.363,-0.277 -0.7,-0.502 -0.75,-0.502 -0.051,0 -0.397,0.315 -0.77,0.7 l -0.679,0.7 0.468,0.856 c 0.426,0.779 0.443,0.908 0.19,1.436 -0.213,0.446 -0.474,0.622 -1.12,0.759 l -0.843,0.177 v 1.063 1.062 l 0.804,0.129 c 0.612,0.098 0.873,0.262 1.094,0.688 0.386,0.748 0.37,0.878 -0.206,1.726 l -0.494,0.728 0.633,0.653 c 0.754,0.778 0.856,0.789 1.751,0.187 0.631,-0.424 0.748,-0.442 1.334,-0.2 0.436,0.181 0.681,0.442 0.764,0.814 0.284,1.276 0.248,1.244 1.368,1.244 h 1.057 l 0.135,-0.9 c 0.115,-0.768 0.227,-0.937 0.768,-1.161 0.575,-0.238 0.697,-0.219 1.325,0.203 0.381,0.256 0.788,0.466 0.906,0.466 0.117,0 0.506,-0.303 0.865,-0.673 L -1.317,4.282 -1.864,3.456 C -2.393,2.656 -2.4,2.607 -2.095,1.967 -1.825,1.4 -1.647,1.285 -0.86,1.167 L 0.06,1.03 Z m 3.324,0.759 c -0.706,6.277 -6.697,10.643 -12.535,9.136 -4.825,-1.246 -8.043,-5.273 -8.043,-10.067 0,-4.626 3.24,-8.7 7.951,-9.998 1.414,-0.39 3.855,-0.272 5.554,0.267 4.383,1.391 7.575,6.203 7.073,10.662"
             style="fill:#501288;fill-opacity:1;fill-rule:nonzero;stroke:none"
             id="path3505"
             inkscape:connector-curvature="0" /></g><g
           id="g3507"
           transform="translate(114.4883,123.2017)"><path
             d="m 0,0 c 0,-1.107 -0.178,-1.282 -1.305,-1.291 -0.269,-0.001 -0.52,-0.234 -0.732,-0.677 -0.311,-0.652 -0.305,-0.698 0.162,-1.331 0.267,-0.36 0.483,-0.755 0.483,-0.876 0,-0.121 -0.309,-0.521 -0.688,-0.888 l -0.689,-0.667 -0.753,0.522 c -0.503,0.349 -0.903,0.485 -1.198,0.408 -0.32,-0.084 -0.478,-0.013 -0.571,0.254 -0.07,0.204 -0.356,0.895 -0.636,1.535 l -0.507,1.164 0.411,0.326 c 1.474,1.172 0.885,3.3 -0.913,3.3 -1.768,0 -2.554,-1.932 -1.257,-3.091 l 0.631,-0.565 -0.641,-1.502 c -0.582,-1.36 -0.687,-1.491 -1.11,-1.389 -0.319,0.078 -0.675,-0.046 -1.128,-0.393 h -10e-4 c -0.365,-0.277 -0.741,-0.505 -0.836,-0.505 -0.095,0 -0.473,0.31 -0.84,0.688 l -0.667,0.688 0.551,0.832 c 0.516,0.781 0.533,0.87 0.264,1.436 -0.22,0.467 -0.483,0.651 -1.165,0.815 l -0.879,0.212 -0.059,1.03 -0.06,1.03 0.919,0.138 c 0.787,0.118 0.965,0.233 1.235,0.799 0.306,0.641 0.298,0.689 -0.233,1.493 l -0.55,0.83 0.717,0.717 c 0.661,0.662 0.751,0.695 1.163,0.44 0.245,-0.152 0.625,-0.386 0.844,-0.52 0.317,-0.195 0.525,-0.19 1.031,0.025 0.539,0.23 0.653,0.404 0.768,1.169 l 0.135,0.899 h 1.046 1.048 L -5.785,6.16 c 0.183,-0.726 0.348,-0.945 0.869,-1.161 0.587,-0.243 0.703,-0.226 1.335,0.2 0.88,0.592 1.008,0.584 1.656,-0.093 0.643,-0.67 0.658,-0.895 0.121,-1.65 -0.297,-0.418 -0.378,-0.741 -0.285,-1.16 0.16,-0.729 0.408,-0.934 1.344,-1.109 L 0,1.048 Z m 3.158,1.927 c -1.183,5.639 -6.996,9.389 -12.409,8.007 -4.031,-1.03 -6.858,-3.937 -7.758,-7.978 -0.967,-4.348 1.392,-9.238 5.446,-11.289 0.363,-0.184 1.302,-0.503 2.086,-0.708 1.756,-0.46 3.262,-0.49 4.814,-0.093 5.507,1.405 8.945,6.708 7.821,12.061"
             style="fill:#501288;fill-opacity:1;fill-rule:nonzero;stroke:none"
             id="path3509"
             inkscape:connector-curvature="0" /></g><g
           id="g3511"
           transform="translate(126.1533,125.9438)"><path
             d="m 0,0 c -0.444,0.346 -0.889,0.45 -2.159,0.508 -1.355,0.062 -1.727,0.159 -2.426,0.63 -0.549,0.371 -0.916,0.813 -1.096,1.32 -0.802,2.265 -3.448,5.318 -5.788,6.681 -0.709,0.413 -2.005,0.994 -2.88,1.292 l -1.589,0.542 -17.175,0.055 c -16.938,0.054 -17.199,0.049 -18.884,-0.368 -2.193,-0.542 -4.502,-1.764 -6.107,-3.234 -1.375,-1.259 -3.133,-3.753 -3.495,-4.96 -0.162,-0.541 -0.473,-0.922 -1.097,-1.342 -0.765,-0.517 -1.044,-0.587 -2.309,-0.587 -1.037,0 -1.652,-0.109 -2.203,-0.39 l -0.764,-0.39 0.133,1.132 c 0.805,6.851 3.855,13.677 8.413,18.83 5.021,5.676 11.371,9.363 18.918,10.983 2.302,0.494 2.867,0.538 6.978,0.538 4.163,0.001 4.651,-0.038 7.056,-0.56 C -12.945,27.745 -2.641,17.415 0.224,3.916 0.717,1.592 0.954,-0.461 0.729,-0.446 0.636,-0.44 0.309,-0.239 0,0"
             style="fill:#501288;fill-opacity:1;fill-rule:nonzero;stroke:none"
             id="path3513"
             inkscape:connector-curvature="0" /></g><g
           id="g3515"
           transform="translate(30.3228,45.7793)"><path
             d="M 0,0 V -7.298 H 8.344 V 0 c 0,0.534 0.267,0.802 0.801,0.802 0.534,0 0.801,-0.268 0.801,-0.802 v -17.777 c 0,-0.535 -0.267,-0.802 -0.801,-0.802 -0.534,0 -0.801,0.267 -0.801,0.802 v 8.899 H 0 v -8.899 c 0,-0.535 -0.267,-0.802 -0.801,-0.802 -0.519,0 -0.779,0.267 -0.779,0.802 V 0 c 0,0.534 0.26,0.802 0.779,0.802 C -0.267,0.802 0,0.534 0,0"
             style="fill:#501288;fill-opacity:1;fill-rule:nonzero;stroke:none"
             id="path3517"
             inkscape:connector-curvature="0" /></g><g
           id="g3519"
           transform="translate(47.5439,28.5342)"><path
             d="m 0,0 c 1.143,0 2.121,0.408 2.937,1.226 0.802,0.799 1.216,1.778 1.247,2.936 v 2.58 h -4.94 v 0.025 h -0.022 c -0.935,0 -1.736,-0.334 -2.404,-1.002 -0.652,-0.654 -0.979,-1.448 -0.979,-2.381 0,-0.905 0.327,-1.706 0.979,-2.405 C -2.484,0.326 -1.684,0 -0.778,0 h 0.022 v 0.023 h 0.734 l 0,-0.023 z m -0.089,-1.578 h -0.667 -0.022 c -1.335,0 -2.508,0.48 -3.516,1.445 -0.964,1.009 -1.447,2.181 -1.447,3.517 0,1.379 0.475,2.543 1.425,3.492 0.963,0.966 2.128,1.461 3.493,1.491 h 0.045 0.022 0.734 4.206 v 1.246 c -0.031,0.934 -0.371,1.676 -1.024,2.225 -0.653,0.579 -1.439,0.868 -2.359,0.868 -0.03,0 -0.059,0.003 -0.089,0.012 -0.029,0.008 -0.074,0.017 -0.133,0.032 H -3.36 c -0.534,0 -0.801,0.269 -0.801,0.802 0,0.518 0.267,0.778 0.801,0.778 h 4.161 c 0.015,0 0.045,-0.004 0.09,-0.011 0.044,-0.006 0.103,-0.018 0.177,-0.033 1.202,-0.075 2.225,-0.468 3.071,-1.18 0.875,-0.71 1.402,-1.638 1.579,-2.781 0.045,-0.119 0.067,-0.216 0.067,-0.289 v -1.669 -1.6 -7.299 c 0,-0.534 -0.267,-0.802 -0.801,-0.802 -0.534,0 -0.8,0.268 -0.8,0.802 V 0.224 C 3.041,-0.979 1.647,-1.578 0,-1.578 h -0.022 z"
             style="fill:#501288;fill-opacity:1;fill-rule:nonzero;stroke:none"
             id="path3521"
             inkscape:connector-curvature="0" /></g><g
           id="g3523"
           transform="translate(66.3574,38.292)"><path
             d="M 0,0 C -0.008,0.021 -0.011,0.04 -0.011,0.057 -0.011,0.04 -0.008,0.021 0,0 0.007,-0.021 0.011,-0.049 0.011,-0.077 0.011,-0.049 0.007,-0.021 0,0 m -9.935,-6.396 c 0.03,-0.936 0.363,-1.722 1.001,-2.36 0.698,-0.653 1.491,-0.977 2.381,-0.977 h 0.022 1.536 0.022 c 0.934,0 1.728,0.324 2.381,0.977 0.667,0.667 1.001,1.469 1.001,2.402 0.014,0.505 0.281,0.758 0.801,0.758 0.519,0 0.786,-0.253 0.801,-0.758 v -0.021 -0.044 c -0.015,-1.335 -0.512,-2.493 -1.49,-3.472 -0.95,-0.949 -2.1,-1.43 -3.449,-1.445 h -0.045 -0.022 -1.536 -0.022 -0.045 c -1.334,0.028 -2.477,0.496 -3.426,1.4 -0.949,0.907 -1.447,2.026 -1.491,3.362 v 0.22 0.557 0.201 4.561 0.2 0.067 c 0.015,1.513 0.564,2.811 1.647,3.894 1.068,1.067 2.373,1.64 3.916,1.714 h 0.2 0.757 0.022 0.045 0.133 0.045 c 0.014,-0.016 0.036,-0.024 0.066,-0.024 h 0.067 0.067 0.067 c 0.014,0 0.029,-0.005 0.044,-0.021 h 0.067 0.066 c 0.03,-0.016 0.052,-0.023 0.067,-0.023 h 0.067 c 0.014,0 0.029,-0.006 0.045,-0.022 h 0.066 c 0.03,0 0.045,-0.007 0.045,-0.021 h 0.066 c 0.015,0 0.026,-0.003 0.034,-0.01 0.007,-0.01 0.018,-0.013 0.033,-0.013 h 0.067 c 0,-0.016 0.022,-0.021 0.066,-0.021 0.015,-0.016 0.03,-0.024 0.045,-0.024 0.015,0 0.026,-0.004 0.034,-0.011 0.007,-0.006 0.018,-0.01 0.033,-0.01 h 0.044 c 0.03,0 0.052,-0.008 0.067,-0.023 0.015,-0.014 0.029,-0.022 0.045,-0.022 0.014,-0.015 0.036,-0.023 0.066,-0.023 l 0.022,-0.021 h 0.023 c 0.044,0 0.074,-0.009 0.089,-0.023 h 0.044 c 0,-0.03 0.023,-0.045 0.067,-0.045 h 0.022 c 0.03,-0.03 0.052,-0.045 0.067,-0.045 0.029,0 0.052,-0.006 0.067,-0.022 0.03,-0.015 0.052,-0.02 0.066,-0.02 h 0.045 c 0,-0.032 0.022,-0.045 0.067,-0.045 0.015,0 0.03,-0.008 0.044,-0.024 0.03,-0.015 0.052,-0.02 0.067,-0.02 l 0.022,-0.025 c 0.03,-0.029 0.053,-0.044 0.067,-0.044 0.015,0 0.03,-0.007 0.045,-0.02 0.029,-0.017 0.051,-0.025 0.067,-0.025 L -2.503,4.172 C -2.474,4.143 -2.444,4.128 -2.414,4.128 L -2.392,4.104 -2.37,4.083 c 0.015,0 0.03,-0.008 0.045,-0.021 0.014,0 0.03,-0.008 0.044,-0.024 0,-0.015 0.015,-0.028 0.045,-0.044 0.014,-0.015 0.029,-0.021 0.045,-0.021 0,0.012 0.022,0 0.066,-0.045 l 0.022,-0.023 c 0.015,0 0.026,-0.009 0.034,-0.023 0.006,-0.014 0.018,-0.022 0.033,-0.022 0.015,-0.014 0.03,-0.022 0.045,-0.022 0,-0.029 0.022,-0.045 0.066,-0.045 l 0.023,-0.022 0.067,-0.067 h 0.022 L -1.747,3.639 V 3.615 h 0.022 l 0.067,-0.066 0.023,-0.023 c 0.029,-0.03 0.052,-0.045 0.066,-0.045 L -1.546,3.46 -1.479,3.394 V 3.371 h 0.021 l 0.067,-0.066 h 0.022 c 0,-0.016 0.023,-0.044 0.067,-0.09 0,-0.015 0.023,-0.045 0.067,-0.089 0.014,-0.015 0.026,-0.029 0.034,-0.045 0.007,-0.014 0.018,-0.028 0.033,-0.044 l 0.022,-0.02 0.067,-0.069 C -1.05,2.918 -1.027,2.89 -1.013,2.859 -0.998,2.829 -0.976,2.801 -0.946,2.771 V 2.748 h 0.023 c 0.014,-0.029 0.029,-0.06 0.044,-0.089 h 0.022 C -0.842,2.601 -0.827,2.57 -0.812,2.57 V 2.548 L -0.746,2.48 V 2.458 c 0.015,-0.014 0.026,-0.028 0.034,-0.044 0.007,-0.015 0.018,-0.029 0.033,-0.045 0,-0.029 0.022,-0.065 0.067,-0.11 0,0.045 0.014,0.008 0.045,-0.112 0.014,-0.03 0.033,-0.05 0.055,-0.067 0.022,-0.015 0.033,-0.037 0.033,-0.065 0,-0.032 0.008,-0.053 0.022,-0.069 0,-0.03 0.008,-0.05 0.023,-0.066 0.015,-0.016 0.022,-0.029 0.022,-0.044 0,0.044 0.015,0.008 0.045,-0.111 0.014,-0.016 0.022,-0.032 0.022,-0.044 0,-0.032 0.007,-0.053 0.022,-0.068 0.015,-0.014 0.022,-0.03 0.022,-0.045 0,-0.029 0.008,-0.051 0.023,-0.067 0.015,-0.117 0.059,-0.272 0.133,-0.466 0.03,-0.119 0.048,-0.216 0.056,-0.29 0.007,-0.074 0.019,-0.141 0.033,-0.2 C -0.041,0.44 -0.03,0.349 -0.022,0.268 -0.015,0.187 -0.011,0.115 -0.011,0.057 -0.011,0.04 -0.008,0.021 0,0 0.007,-0.021 0.011,-0.049 0.011,-0.077 V -0.101 -0.122 -0.145 -0.167 C -0.034,-0.656 -0.301,-0.9 -0.79,-0.9 c -0.52,0 -0.787,0.244 -0.801,0.733 v 0.022 c 0,0.934 -0.334,1.728 -1.001,2.381 -0.653,0.667 -1.447,1.001 -2.381,1.001 H -4.995 -5.93 C -7.042,3.179 -7.984,2.748 -8.756,1.946 -9.512,1.189 -9.905,0.248 -9.935,-0.88 v -4.716 -0.201 z"
             style="fill:#501288;fill-opacity:1;fill-rule:nonzero;stroke:none"
             id="path3525"
             inkscape:connector-curvature="0" /></g><g
           id="g3527"
           transform="translate(69.4614,47.3809)"><path
             d="m 0,0 v -14.018 l 8.544,9.501 c 0.356,0.371 0.734,0.394 1.135,0.068 0.386,-0.387 0.401,-0.765 0.044,-1.135 l -5.228,-5.809 5.318,-7.787 c 0.281,-0.444 0.208,-0.816 -0.223,-1.112 -0.178,-0.119 -0.371,-0.163 -0.579,-0.133 -0.266,0.029 -0.459,0.178 -0.578,0.446 L 3.404,-12.615 0,-16.421 v -2.959 c 0,-0.534 -0.267,-0.801 -0.801,-0.801 -0.519,0 -0.779,0.267 -0.779,0.801 V 0 c 0,0.534 0.26,0.802 0.779,0.802 C -0.267,0.802 0,0.534 0,0"
             style="fill:#501288;fill-opacity:1;fill-rule:nonzero;stroke:none"
             id="path3529"
             inkscape:connector-curvature="0" /></g><g
           id="g3531"
           transform="translate(86.2378,26.9561)"><path
             d="M 0,0 H -0.245 -0.333 -0.356 -1.001 -1.023 -1.045 C -2.366,0 -3.508,0.459 -4.472,1.379 -5.421,2.283 -5.918,3.411 -5.963,4.762 -5.978,4.79 -5.985,4.851 -5.985,4.938 v 4.184 1.27 4.715 c 0,0.536 0.259,0.801 0.779,0.801 0.534,0 0.801,-0.265 0.801,-0.801 v -4.715 -1.27 -4.14 h 0.022 V 4.961 c 0,-0.904 0.326,-1.706 0.979,-2.402 0.697,-0.655 1.498,-0.981 2.403,-0.981 V 1.603 H 0 c 1.083,0.057 2.003,0.479 2.759,1.267 0.757,0.756 1.15,1.712 1.18,2.87 v 0.068 2.98 1.157 1.58 3.604 c 0,0.519 0.267,0.779 0.801,0.779 0.533,0 0.801,-0.26 0.801,-0.779 V 11.525 9.945 8.788 5.808 1.045 C 5.541,0.512 5.273,0.244 4.74,0.244 4.206,0.244 3.939,0.512 3.939,1.045 V 1.802 C 2.871,0.658 1.558,0.06 0,0"
             style="fill:#501288;fill-opacity:1;fill-rule:nonzero;stroke:none"
             id="path3533"
             inkscape:connector-curvature="0" /></g><g
           id="g3535"
           transform="translate(99.0332,28.5342)"><path
             d="m 0,0 c 1.141,0 2.121,0.408 2.937,1.226 0.8,0.799 1.216,1.778 1.245,2.936 v 2.58 h -4.939 v 0.025 h -0.022 c -0.935,0 -1.737,-0.334 -2.404,-1.002 -0.653,-0.654 -0.978,-1.448 -0.978,-2.381 0,-0.905 0.325,-1.706 0.978,-2.405 C -2.484,0.326 -1.685,0 -0.779,0 h 0.022 v 0.023 h 0.734 l 0,-0.023 z m -0.09,-1.578 h -0.667 -0.022 c -1.335,0 -2.508,0.48 -3.516,1.445 -0.965,1.009 -1.446,2.181 -1.446,3.517 0,1.379 0.474,2.543 1.424,3.492 0.963,0.966 2.129,1.461 3.493,1.491 h 0.045 0.022 0.734 4.205 v 1.246 c -0.029,0.934 -0.37,1.676 -1.024,2.225 -0.652,0.579 -1.437,0.868 -2.357,0.868 -0.03,0 -0.061,0.003 -0.089,0.012 -0.03,0.008 -0.075,0.017 -0.134,0.032 H -3.36 c -0.535,0 -0.801,0.269 -0.801,0.802 0,0.518 0.266,0.778 0.801,0.778 h 4.161 c 0.014,0 0.044,-0.004 0.089,-0.011 0.044,-0.006 0.103,-0.018 0.177,-0.033 1.202,-0.075 2.225,-0.468 3.071,-1.18 0.875,-0.71 1.401,-1.638 1.58,-2.781 0.044,-0.119 0.067,-0.216 0.067,-0.289 v -1.669 -1.6 -7.299 c 0,-0.534 -0.267,-0.802 -0.802,-0.802 -0.534,0 -0.801,0.268 -0.801,0.802 V 0.224 C 3.04,-0.979 1.646,-1.578 0,-1.578 h -0.023 z"
             style="fill:#501288;fill-opacity:1;fill-rule:nonzero;stroke:none"
             id="path3537"
             inkscape:connector-curvature="0" /></g><g
           id="g3539"
           transform="translate(116.1426,41.7969)"><path
             d="m 0,0 c 0.074,-0.119 0.111,-0.245 0.111,-0.379 0,-0.518 -0.267,-0.778 -0.8,-0.778 -0.208,0 -0.387,0.066 -0.535,0.2 -0.592,0.459 -1.276,0.689 -2.047,0.689 H -3.293 -4.228 C -5.34,-0.327 -6.282,-0.757 -7.054,-1.559 -7.81,-2.314 -8.203,-3.257 -8.233,-4.385 v -9.411 c 0,-0.534 -0.267,-0.801 -0.801,-0.801 -0.52,0 -0.778,0.267 -0.778,0.801 v 9.256 4.808 c 0,0.534 0.258,0.799 0.778,0.799 0.534,0 0.801,-0.265 0.801,-0.799 v -0.736 c 1.098,1.144 2.425,1.742 3.984,1.803 h 0.199 0.757 0.022 0.045 c 1.157,-0.029 2.159,-0.379 3.004,-1.047 l 0.066,-0.064 c 0.03,-0.032 0.063,-0.062 0.1,-0.09 0.037,-0.03 0.071,-0.061 0.101,-0.09 z"
             style="fill:#501288;fill-opacity:1;fill-rule:nonzero;stroke:none"
             id="path3541"
             inkscape:connector-curvature="0" /></g><g
           id="g3543"
           transform="translate(122.5293,47.0693)"><path
             d="m 0,0 c 0,-0.727 -0.371,-1.091 -1.113,-1.091 -0.727,0 -1.09,0.364 -1.09,1.091 0,0.742 0.363,1.112 1.09,1.112 C -0.371,1.112 0,0.742 0,0 m 0,-5.006 v -14.061 c 0,-0.536 -0.267,-0.801 -0.802,-0.801 -0.534,0 -0.801,0.265 -0.801,0.801 v 13.26 h -2.581 c -0.534,0 -0.8,0.267 -0.8,0.801 0,0.534 0.266,0.801 0.8,0.801 h 3.382 C -0.267,-4.205 0,-4.472 0,-5.006"
             style="fill:#501288;fill-opacity:1;fill-rule:nonzero;stroke:none"
             id="path3545"
             inkscape:connector-curvature="0" /></g><g
           id="g3547"
           transform="translate(130.6729,26.9561)"><path
             d="m 0,0 h -0.244 -0.09 -0.022 -0.645 -0.022 -0.023 C -2.367,0 -3.508,0.459 -4.473,1.379 -5.422,2.283 -5.919,3.411 -5.964,4.762 -5.978,4.79 -5.985,4.851 -5.985,4.938 v 4.184 1.27 4.715 c 0,0.536 0.258,0.801 0.778,0.801 0.534,0 0.801,-0.265 0.801,-0.801 v -4.715 -1.27 -4.14 h 0.022 V 4.961 c 0,-0.904 0.326,-1.706 0.98,-2.402 0.697,-0.655 1.498,-0.981 2.403,-0.981 V 1.603 H 0 C 1.083,1.66 2.003,2.082 2.759,2.87 3.516,3.626 3.909,4.582 3.938,5.74 v 0.068 2.98 1.157 1.58 3.604 c 0,0.519 0.267,0.779 0.801,0.779 0.534,0 0.802,-0.26 0.802,-0.779 V 11.525 9.945 8.788 5.808 1.045 C 5.541,0.512 5.273,0.244 4.739,0.244 4.205,0.244 3.938,0.512 3.938,1.045 V 1.802 C 2.87,0.658 1.558,0.06 0,0"
             style="fill:#501288;fill-opacity:1;fill-rule:nonzero;stroke:none"
             id="path3549"
             inkscape:connector-curvature="0" /></g><g
           id="g3551"
           transform="translate(142.6875,43.1318)"><path
             d="m 0,0 c 0.89,0 1.698,-0.216 2.426,-0.646 0.726,-0.429 1.312,-0.986 1.758,-1.668 0.445,0.682 1.034,1.239 1.768,1.668 C 6.687,-0.216 7.499,0 8.389,0 c 1.349,0 2.507,-0.489 3.471,-1.469 0.963,-0.964 1.461,-2.122 1.491,-3.47 v -0.023 -0.021 -0.024 -10.124 c 0,-0.534 -0.268,-0.801 -0.802,-0.801 -0.533,0 -0.801,0.267 -0.801,0.801 v 10.169 0.089 c -0.015,0.904 -0.355,1.677 -1.023,2.313 -0.638,0.638 -1.416,0.957 -2.336,0.957 -0.935,0 -1.736,-0.334 -2.403,-1.001 -0.653,-0.653 -0.98,-1.447 -0.98,-2.379 v -0.089 c 0,-0.016 -0.015,-0.098 -0.044,-0.246 v -9.813 c 0,-0.534 -0.268,-0.801 -0.801,-0.801 -0.519,0 -0.778,0.267 -0.778,0.801 v 10.169 0.089 C 3.367,-3.982 3.019,-3.212 2.337,-2.56 1.698,-1.922 0.92,-1.603 0,-1.603 c -0.89,0 -1.684,-0.326 -2.381,-0.979 -0.638,-0.638 -0.972,-1.424 -1.002,-2.357 v -10.192 c 0,-0.534 -0.266,-0.801 -0.801,-0.801 -0.519,0 -0.777,0.267 -0.777,0.801 v 10.148 3.916 c 0,0.534 0.258,0.799 0.777,0.799 0.535,0 0.801,-0.265 0.801,-0.799 v -0.29 C -2.477,-0.454 -1.351,0 0,0"
             style="fill:#501288;fill-opacity:1;fill-rule:nonzero;stroke:none"
             id="path3553"
             inkscape:connector-curvature="0" /></g></g></g></g></svg>