<?xml version="1.0" standalone="no"?><!DOCTYPE svg PUBLIC "-//W3C//DTD SVG 1.1//EN" "http://www.w3.org/Graphics/SVG/1.1/DTD/svg11.dtd"><svg xmlns:xlink="http://www.w3.org/1999/xlink" xmlns="http://www.w3.org/2000/svg" font-family="Myriad Pro, Helvetica, Arial" font-size="12" data-jsgraph-version="v2.0.68" width="570" height="275"><defs><clipPath id="_clipplot23352f28-91dd-4bf0-829e-705289194cd1" clipPathUnits="userSpaceOnUse"><rect y="0" x="57.35546875" width="472.64453125" height="208"/></clipPath><marker xmlns="" viewBox="0 0 10 10" id="arrow23352f28-91dd-4bf0-829e-705289194cd1" refX="6" refY="5" markerUnits="strokeWidth" markerWidth="8" markerHeight="6" orient="auto"><path xmlns="http://www.w3.org/2000/svg" d="M 0 0 L 10 5 L 0 10 z"/></marker><marker viewBox="0 0 6 8" id="horionzalsplit_23352f28-91dd-4bf0-829e-705289194cd1" refX="3" refY="4" markerUnits="strokeWidth" markerWidth="6" markerHeight="8"><line x1="0" y1="8" x2="6" y2="0" stroke="black"/></marker><marker viewBox="0 0 8 6" id="verticalsplit_23352f28-91dd-4bf0-829e-705289194cd1" refX="4" refY="3" markerUnits="strokeWidth" markerWidth="8" markerHeight="6"><line x1="0" y1="0" x2="8" y2="6" stroke="black"/></marker><marker viewBox="0 0 10 10" id="verticalline23352f28-91dd-4bf0-829e-705289194cd1" refX="0" refY="5" markerUnits="strokeWidth" markerWidth="20" markerHeight="10" orient="auto" stroke-width="1px"><path d="M 0 -10 L 0 10" stroke="black"/></marker></defs><g><rect pointer-events="fill" fill="transparent" y="30" x="77.35546875" width="472.64453125" height="208"/><text text-anchor="middle" y="20" x="285"/><g transform="translate(20, 30)"><g><g><g><path shape-rendering="crispEdges" stroke="#F0F0F0" stroke-width="1" stroke-opacity="undefined" clip-path="url(#_clipplot23352f28-91dd-4bf0-829e-705289194cd1)" d="M 64.85337014163825 0 L 64.85337014163825 240M 72.35150272569786 0 L 72.35150272569786 240M 79.84963530975745 0 L 79.84963530975745 240M 87.34776789381704 0 L 87.34776789381704 240M 94.84590047787664 0 L 94.84590047787664 240M 102.34403306193623 0 L 102.34403306193623 240M 109.84216564599583 0 L 109.84216564599583 240M 117.34029823005542 0 L 117.34029823005542 240M 124.83843081411503 0 L 124.83843081411503 240M 139.83469598223422 0 L 139.83469598223422 240M 147.3328285662938 0 L 147.3328285662938 240M 154.8309611503534 0 L 154.8309611503534 240M 162.329093734413 0 L 162.329093734413 240M 169.8272263184726 0 L 169.8272263184726 240M 177.3253589025322 0 L 177.3253589025322 240M 184.8234914865918 0 L 184.8234914865918 240M 192.32162407065138 0 L 192.32162407065138 240M 199.81975665471097 0 L 199.81975665471097 240M 214.81602182283018 0 L 214.81602182283018 240M 222.31415440688977 0 L 222.31415440688977 240M 229.81228699094936 0 L 229.81228699094936 240M 237.31041957500895 0 L 237.31041957500895 240M 244.80855215906857 0 L 244.80855215906857 240M 252.30668474312816 0 L 252.30668474312816 240M 259.8048173271877 0 L 259.8048173271877 240M 267.3029499112473 0 L 267.3029499112473 240M 274.8010824953069 0 L 274.8010824953069 240M 289.79734766342614 0 L 289.79734766342614 240M 297.29548024748567 0 L 297.29548024748567 240M 304.7936128315453 0 L 304.7936128315453 240M 312.29174541560496 0 L 312.29174541560496 240M 319.7898779996645 0 L 319.7898779996645 240M 327.2880105837241 0 L 327.2880105837241 240M 334.7861431677837 0 L 334.7861431677837 240M 342.2842757518433 0 L 342.2842757518433 240M 349.7824083359029 0 L 349.7824083359029 240M 364.7786735040221 0 L 364.7786735040221 240M 372.2768060880817 0 L 372.2768060880817 240M 379.7749386721413 0 L 379.7749386721413 240M 387.27307125620086 0 L 387.27307125620086 240M 394.77120384026045 0 L 394.77120384026045 240M 402.2693364243201 0 L 402.2693364243201 240M 409.76746900837963 0 L 409.76746900837963 240M 417.2656015924393 0 L 417.2656015924393 240M 424.7637341764988 0 L 424.7637341764988 240M 439.75999934461805 0 L 439.75999934461805 240M 447.25813192867764 0 L 447.25813192867764 240M 454.75626451273723 0 L 454.75626451273723 240M 462.2543970967968 0 L 462.2543970967968 240M 469.7525296808564 0 L 469.7525296808564 240M 477.250662264916 0 L 477.250662264916 240M 484.7487948489756 0 L 484.7487948489756 240M 492.24692743303524 0 L 492.24692743303524 240M 499.74506001709483 0 L 499.74506001709483 240M 514.741325185214 0 L 514.741325185214 240M 522.2394577692736 0 L 522.2394577692736 240M 529.7375903533332 0 L 529.7375903533332 240"/><path shape-rendering="crispEdges" stroke="#F0F0F0" stroke-width="1" stroke-opacity="undefined" clip-path="url(#_clipplot23352f28-91dd-4bf0-829e-705289194cd1)" d="M 0 201.2903225806459 L 530 201.2903225806459M 0 194.5806451612912 L 530 194.5806451612912M 0 187.87096774193648 L 530 187.87096774193648M 0 181.16129032258178 L 530 181.16129032258178M 0 174.45161290322588 L 530 174.45161290322588M 0 167.74193548387117 L 530 167.74193548387117M 0 161.03225806451647 L 530 161.03225806451647M 0 154.32258064516176 L 530 154.32258064516176M 0 147.6129032258071 L 530 147.6129032258071M 0 140.90322580645238 L 530 140.90322580645238M 0 134.19354838709768 L 530 134.19354838709768M 0 127.48387096774296 L 530 127.48387096774296M 0 120.77419354838825 L 530 120.77419354838825M 0 114.06451612903354 L 530 114.06451612903354M 0 107.35483870967765 L 530 107.35483870967765M 0 100.64516129032296 L 530 100.64516129032296M 0 93.93548387096824 L 530 93.93548387096824M 0 87.22580645161354 L 530 87.22580645161354M 0 80.51612903225882 L 530 80.51612903225882M 0 73.80645161290414 L 530 73.80645161290414M 0 67.09677419354944 L 530 67.09677419354944M 0 60.38709677419473 L 530 60.38709677419473M 0 53.677419354840026 L 530 53.677419354840026M 0 46.96774193548532 L 530 46.96774193548532M 0 40.25806451612942 L 530 40.25806451612942M 0 33.54838709677472 L 530 33.54838709677472M 0 26.838709677420013 L 530 26.838709677420013M 0 20.12903225806531 L 530 20.12903225806531M 0 13.419354838710603 L 530 13.419354838710603M 0 6.709677419355899 L 530 6.709677419355899M 0 1.1937117960769683e-12 L 530 1.1937117960769683e-12"/></g><g><path shape-rendering="crispEdges" stroke="#DADADA" stroke-width="1" stroke-opacity="undefined" clip-path="url(#_clipplot23352f28-91dd-4bf0-829e-705289194cd1)" d="M 132.33656339817463 0 L 132.33656339817463 240M 207.3178892387706 0 L 207.3178892387706 240M 282.29921507936655 0 L 282.29921507936655 240M 357.2805409199625 0 L 357.2805409199625 240M 432.26186676055846 0 L 432.26186676055846 240M 507.2431926011544 0 L 507.2431926011544 240"/><path shape-rendering="crispEdges" stroke="#DADADA" stroke-width="1" stroke-opacity="undefined" clip-path="url(#_clipplot23352f28-91dd-4bf0-829e-705289194cd1)" d="M 0 181.16129032258058 L 530 181.16129032258058M 0 114.06451612903236 L 530 114.06451612903236M 0 46.96774193548413 L 530 46.96774193548413"/></g></g><g transform="translate(0 208)"><rect pointer-events="fill" fill="transparent"/><g><line y1="0" y2="-2" stroke="black" display="visible" x1="64.85337014163825" x2="64.85337014163825"/><line y1="0" y2="-2" stroke="black" display="visible" x1="72.35150272569786" x2="72.35150272569786"/><line y1="0" y2="-2" stroke="black" display="visible" x1="79.84963530975745" x2="79.84963530975745"/><line y1="0" y2="-2" stroke="black" display="visible" x1="87.34776789381704" x2="87.34776789381704"/><line y1="0" y2="-4" stroke="black" display="visible" x1="94.84590047787664" x2="94.84590047787664"/><line y1="0" y2="-2" stroke="black" display="visible" x1="102.34403306193623" x2="102.34403306193623"/><line y1="0" y2="-2" stroke="black" display="visible" x1="109.84216564599583" x2="109.84216564599583"/><line y1="0" y2="-2" stroke="black" display="visible" x1="117.34029823005542" x2="117.34029823005542"/><line y1="0" y2="-2" stroke="black" display="visible" x1="124.83843081411503" x2="124.83843081411503"/><line y1="0" y2="-6" stroke="black" display="visible" x1="132.33656339817463" x2="132.33656339817463"/><line y1="0" y2="-2" stroke="black" display="visible" x1="139.83469598223422" x2="139.83469598223422"/><line y1="0" y2="-2" stroke="black" display="visible" x1="147.3328285662938" x2="147.3328285662938"/><line y1="0" y2="-2" stroke="black" display="visible" x1="154.8309611503534" x2="154.8309611503534"/><line y1="0" y2="-2" stroke="black" display="visible" x1="162.329093734413" x2="162.329093734413"/><line y1="0" y2="-4" stroke="black" display="visible" x1="169.8272263184726" x2="169.8272263184726"/><line y1="0" y2="-2" stroke="black" display="visible" x1="177.3253589025322" x2="177.3253589025322"/><line y1="0" y2="-2" stroke="black" display="visible" x1="184.8234914865918" x2="184.8234914865918"/><line y1="0" y2="-2" stroke="black" display="visible" x1="192.32162407065138" x2="192.32162407065138"/><line y1="0" y2="-2" stroke="black" display="visible" x1="199.81975665471097" x2="199.81975665471097"/><line y1="0" y2="-2" stroke="black" display="visible" x1="214.81602182283018" x2="214.81602182283018"/><line y1="0" y2="-6" stroke="black" display="visible" x1="207.3178892387706" x2="207.3178892387706"/><line y1="0" y2="-2" stroke="black" display="visible" x1="222.31415440688977" x2="222.31415440688977"/><line y1="0" y2="-2" stroke="black" display="visible" x1="229.81228699094936" x2="229.81228699094936"/><line y1="0" y2="-2" stroke="black" display="visible" x1="237.31041957500895" x2="237.31041957500895"/><line y1="0" y2="-2" stroke="black" display="visible" x1="252.30668474312816" x2="252.30668474312816"/><line y1="0" y2="-4" stroke="black" display="visible" x1="244.80855215906857" x2="244.80855215906857"/><line y1="0" y2="-2" stroke="black" display="visible" x1="259.8048173271877" x2="259.8048173271877"/><line y1="0" y2="-2" stroke="black" display="visible" x1="267.3029499112473" x2="267.3029499112473"/><line y1="0" y2="-2" stroke="black" display="visible" x1="274.8010824953069" x2="274.8010824953069"/><line y1="0" y2="-2" stroke="black" display="visible" x1="289.79734766342614" x2="289.79734766342614"/><line y1="0" y2="-2" stroke="black" display="visible" x1="297.29548024748567" x2="297.29548024748567"/><line y1="0" y2="-6" stroke="black" display="visible" x1="282.29921507936655" x2="282.29921507936655"/><line y1="0" y2="-2" stroke="black" display="visible" x1="304.7936128315453" x2="304.7936128315453"/><line y1="0" y2="-2" stroke="black" display="visible" x1="312.29174541560496" x2="312.29174541560496"/><line y1="0" y2="-2" stroke="black" display="visible" x1="327.2880105837241" x2="327.2880105837241"/><line y1="0" y2="-2" stroke="black" display="visible" x1="334.7861431677837" x2="334.7861431677837"/><line y1="0" y2="-4" stroke="black" display="visible" x1="319.7898779996645" x2="319.7898779996645"/><line y1="0" y2="-2" stroke="black" display="visible" x1="342.2842757518433" x2="342.2842757518433"/><line y1="0" y2="-2" stroke="black" display="visible" x1="349.7824083359029" x2="349.7824083359029"/><line y1="0" y2="-2" stroke="black" display="visible" x1="364.7786735040221" x2="364.7786735040221"/><line y1="0" y2="-2" stroke="black" display="visible" x1="372.2768060880817" x2="372.2768060880817"/><line y1="0" y2="-6" stroke="black" display="visible" x1="357.2805409199625" x2="357.2805409199625"/><line y1="0" y2="-6" stroke="black" display="visible" x1="432.26186676055846" x2="432.26186676055846"/><line y1="0" y2="-2" stroke="black" display="visible" x1="379.7749386721413" x2="379.7749386721413"/><line y1="0" y2="-2" stroke="black" display="visible" x1="387.27307125620086" x2="387.27307125620086"/><line y1="0" y2="-4" stroke="black" display="visible" x1="394.77120384026045" x2="394.77120384026045"/><line y1="0" y2="-2" stroke="black" display="visible" x1="402.2693364243201" x2="402.2693364243201"/><line y1="0" y2="-2" stroke="black" display="visible" x1="409.76746900837963" x2="409.76746900837963"/><line y1="0" y2="-2" stroke="black" display="visible" x1="417.2656015924393" x2="417.2656015924393"/><line y1="0" y2="-2" stroke="black" display="visible" x1="424.7637341764988" x2="424.7637341764988"/><line y1="0" y2="-2" stroke="black" display="visible" x1="439.75999934461805" x2="439.75999934461805"/><line y1="0" y2="-2" stroke="black" display="visible" x1="447.25813192867764" x2="447.25813192867764"/><line y1="0" y2="-2" stroke="black" display="visible" x1="454.75626451273723" x2="454.75626451273723"/><line y1="0" y2="-2" stroke="black" display="visible" x1="462.2543970967968" x2="462.2543970967968"/><line y1="0" y2="-4" stroke="black" display="visible" x1="469.7525296808564" x2="469.7525296808564"/><line y1="0" y2="-2" stroke="black" display="visible" x1="477.250662264916" x2="477.250662264916"/><line y1="0" y2="-2" stroke="black" display="visible" x1="484.7487948489756" x2="484.7487948489756"/><line y1="0" y2="-2" stroke="black" display="visible" x1="492.24692743303524" x2="492.24692743303524"/><line y1="0" y2="-2" stroke="black" display="visible" x1="499.74506001709483" x2="499.74506001709483"/><line y1="0" y2="-2" stroke="black" display="visible" x1="514.741325185214" x2="514.741325185214"/><line y1="0" y2="-2" stroke="black" display="visible" x1="522.2394577692736" x2="522.2394577692736"/><line y1="0" y2="-2" stroke="black" display="visible" x1="529.7375903533332" x2="529.7375903533332"/><line y1="0" y2="-6" stroke="black" display="visible" x1="507.2431926011544" x2="507.2431926011544"/></g><g><text y="8" text-anchor="middle" display="visible" x="132.33656339817463" style="dominant-baseline: hanging;">200</text><text y="8" text-anchor="middle" display="visible" x="207.3178892387706" style="dominant-baseline: hanging;">400</text><text y="8" text-anchor="middle" display="visible" x="282.29921507936655" style="dominant-baseline: hanging;">600</text><text y="8" text-anchor="middle" display="visible" x="357.2805409199625" style="dominant-baseline: hanging;">800</text><text y="8" text-anchor="middle" display="visible" x="432.26186676055846" style="dominant-baseline: hanging;">1000</text><text y="8" text-anchor="middle" display="visible" x="507.2431926011544" style="dominant-baseline: hanging;">1200</text></g><line stroke="black" shape-rendering="crispEdges" stroke-linecap="square" display="block" x1="57.35546875" x2="530" y1="0" y2="0" marker-start="" marker-end=""/><text text-anchor="middle" fill="undefined" style="display: initial;" x="293.677734375" y="22"><tspan style="dominant-baseline: hanging;">Time (min)</tspan><tspan display="none" style="dominant-baseline: hanging;"/><tspan dx="6" display="none" style="dominant-baseline: hanging;"/><tspan dy="-5" font-size="0.8em" display="none" style="dominant-baseline: hanging;"/></text><g/></g><g transform="translate( 57.35546875 0 )"><rect pointer-events="fill" fill="transparent"/><g><line x1="0" x2="2" stroke="black" display="visible" y1="201.2903225806459" y2="201.2903225806459"/><line x1="0" x2="2" stroke="black" display="visible" y1="194.5806451612912" y2="194.5806451612912"/><line x1="0" x2="2" stroke="black" display="visible" y1="187.87096774193648" y2="187.87096774193648"/><line x1="0" x2="2" stroke="black" display="visible" y1="181.16129032258178" y2="181.16129032258178"/><line x1="0" x2="2" stroke="black" display="visible" y1="174.45161290322588" y2="174.45161290322588"/><line x1="0" x2="2" stroke="black" display="visible" y1="167.74193548387117" y2="167.74193548387117"/><line x1="0" x2="2" stroke="black" display="visible" y1="161.03225806451647" y2="161.03225806451647"/><line x1="0" x2="2" stroke="black" display="visible" y1="154.32258064516176" y2="154.32258064516176"/><line x1="0" x2="4" stroke="black" display="visible" y1="147.6129032258071" y2="147.6129032258071"/><line x1="0" x2="2" stroke="black" display="visible" y1="140.90322580645238" y2="140.90322580645238"/><line x1="0" x2="2" stroke="black" display="visible" y1="134.19354838709768" y2="134.19354838709768"/><line x1="0" x2="2" stroke="black" display="visible" y1="127.48387096774296" y2="127.48387096774296"/><line x1="0" x2="2" stroke="black" display="visible" y1="120.77419354838825" y2="120.77419354838825"/><line x1="0" x2="2" stroke="black" display="visible" y1="114.06451612903354" y2="114.06451612903354"/><line x1="0" x2="6" stroke="black" display="visible" y1="181.16129032258058" y2="181.16129032258058"/><line x1="0" x2="2" stroke="black" display="visible" y1="107.35483870967765" y2="107.35483870967765"/><line x1="0" x2="2" stroke="black" display="visible" y1="100.64516129032296" y2="100.64516129032296"/><line x1="0" x2="2" stroke="black" display="visible" y1="93.93548387096824" y2="93.93548387096824"/><line x1="0" x2="2" stroke="black" display="visible" y1="87.22580645161354" y2="87.22580645161354"/><line x1="0" x2="4" stroke="black" display="visible" y1="80.51612903225882" y2="80.51612903225882"/><line x1="0" x2="2" stroke="black" display="visible" y1="73.80645161290414" y2="73.80645161290414"/><line x1="0" x2="2" stroke="black" display="visible" y1="67.09677419354944" y2="67.09677419354944"/><line x1="0" x2="2" stroke="black" display="visible" y1="60.38709677419473" y2="60.38709677419473"/><line x1="0" x2="2" stroke="black" display="visible" y1="53.677419354840026" y2="53.677419354840026"/><line x1="0" x2="2" stroke="black" display="visible" y1="46.96774193548532" y2="46.96774193548532"/><line x1="0" x2="6" stroke="black" display="visible" y1="114.06451612903236" y2="114.06451612903236"/><line x1="0" x2="2" stroke="black" display="visible" y1="40.25806451612942" y2="40.25806451612942"/><line x1="0" x2="2" stroke="black" display="visible" y1="33.54838709677472" y2="33.54838709677472"/><line x1="0" x2="2" stroke="black" display="visible" y1="26.838709677420013" y2="26.838709677420013"/><line x1="0" x2="2" stroke="black" display="visible" y1="20.12903225806531" y2="20.12903225806531"/><line x1="0" x2="4" stroke="black" display="visible" y1="13.419354838710603" y2="13.419354838710603"/><line x1="0" x2="2" stroke="black" display="visible" y1="6.709677419355899" y2="6.709677419355899"/><line x1="0" x2="2" stroke="black" display="visible" y1="1.1937117960769683e-12" y2="1.1937117960769683e-12"/><line x1="0" x2="6" stroke="black" display="visible" y1="46.96774193548413" y2="46.96774193548413"/></g><g><text x="-5" text-anchor="end" display="visible" y="181.16129032258058" style="dominant-baseline: central;">3.85</text><text x="-5" text-anchor="end" display="visible" y="114.06451612903236" style="dominant-baseline: central;">3.90</text><text x="-5" text-anchor="end" display="visible" y="46.96774193548413" style="dominant-baseline: central;">3.95</text></g><line stroke="black" shape-rendering="crispEdges" stroke-linecap="square" display="block" y1="208" y2="0" x1="0" x2="0" marker-start="" marker-end=""/><text text-anchor="middle" transform="translate(-45.35546875, 104) rotate(-90)" fill="undefined" dominant-baseline="auto"><tspan>Electric potential difference (V)</tspan><tspan display="none"/><tspan dx="6" display="none"/><tspan dy="-5" font-size="0.8em" display="none"/></text><g/></g></g><g><g data-layer="1"><g><g><g><path stroke="rgba(50,57,129,1)" stroke-width="1" fill="none" d="M 57.2 0 L 68.60000000000001 40.2 L 79.80000000000001 53.6 L 91 60.2 L 102.2 67 L 113.60000000000001 73.8 L 124.80000000000001 80.4 L 136 87.2 L 147.20000000000002 93.80000000000001 L 158.60000000000002 100.60000000000001 L 169.8 100.60000000000001 L 181 107.2 L 192.20000000000002 114 L 203.60000000000002 114 L 214.8 127.4 L 226 127.4 L 237.4 134 L 248.60000000000002 134 L 259.8 134 L 271 134 L 282.40000000000003 140.8 L 293.6 140.8 L 304.8 140.8 L 316 140.8 L 327.40000000000003 140.8 L 338.6 147.6 L 349.8 147.6 L 361 154.20000000000002 L 372.40000000000003 154.20000000000002 L 383.6 154.20000000000002 L 394.8 161 L 406.20000000000005 161 L 417.40000000000003 167.60000000000002 L 428.6 167.60000000000002 L 439.8 174.4 L 451.20000000000005 174.4 L 462.40000000000003 181 L 473.6 187.8 L 484.8 187.8 L 496.20000000000005 194.4 L 507.40000000000003 201.20000000000002 L 518.6 201.20000000000002 L 529.8000000000001 207.8 "/></g><circle fill="black" r="3" display="none"/><g/><rect fill="white"/><text/><g/></g></g><g><g clip-path="url(#_clipplot23352f28-91dd-4bf0-829e-705289194cd1)"><rect data-label-i="0" display="initial"/><text data-label-i="0" display="initial"/></g><g clip-path="url(#_clipplot23352f28-91dd-4bf0-829e-705289194cd1)"><rect data-label-i="0" display="initial"/><text data-label-i="0" display="initial"/></g><g clip-path="url(#_clipplot23352f28-91dd-4bf0-829e-705289194cd1)"><rect data-label-i="0" display="initial"/><text data-label-i="0" display="initial"/></g><g clip-path="url(#_clipplot23352f28-91dd-4bf0-829e-705289194cd1)"><rect data-label-i="0" display="initial"/><text data-label-i="0" display="initial"/></g></g></g></g><line stroke="black" shape-rendering="crispEdges" stroke-linecap="square" display="none"/><line stroke="black" shape-rendering="crispEdges" stroke-linecap="square" display="none"/><line stroke="black" shape-rendering="crispEdges" stroke-linecap="square" display="none"/><line stroke="black" shape-rendering="crispEdges" stroke-linecap="square" display="none"/></g><g><rect display="none" fill="rgba(171,12,12,0.2)" stroke="rgba(171,12,12,1)" shape-rendering="crispEdges" x="0" y="0" height="0" width="0" pointer-events="none"/></g></g></svg>