<?xml version="1.0" standalone="no"?><!DOCTYPE svg PUBLIC "-//W3C//DTD SVG 1.1//EN" "http://www.w3.org/Graphics/SVG/1.1/DTD/svg11.dtd"><svg xmlns:xlink="http://www.w3.org/1999/xlink" xmlns="http://www.w3.org/2000/svg" font-family="Myriad Pro, Helvetica, Arial" font-size="12" data-jsgraph-version="v2.0.100" tabindex="0" width="570" height="346.020834"><defs><clipPath id="_clipplota40b54ac-453b-4e50-9910-9b97ead7ffaf" clipPathUnits="userSpaceOnUse"><rect y="0" x="50.66615867614746" width="479.33384132385254" height="236.8357830356445"/></clipPath><marker xmlns="" viewBox="0 0 10 10" id="arrowa40b54ac-453b-4e50-9910-9b97ead7ffaf" refX="6" refY="5" markerUnits="strokeWidth" markerWidth="8" markerHeight="6" orient="auto"><path xmlns="http://www.w3.org/2000/svg" d="M 0 0 L 10 5 L 0 10 z"/></marker><marker viewBox="0 0 6 8" id="horionzalsplit_a40b54ac-453b-4e50-9910-9b97ead7ffaf" refX="3" refY="4" markerUnits="strokeWidth" markerWidth="6" markerHeight="8"><line x1="0" y1="8" x2="6" y2="0" stroke="black"/></marker><marker viewBox="0 0 8 6" id="verticalsplit_a40b54ac-453b-4e50-9910-9b97ead7ffaf" refX="4" refY="3" markerUnits="strokeWidth" markerWidth="8" markerHeight="6"><line x1="0" y1="0" x2="8" y2="6" stroke="black"/></marker><marker viewBox="0 0 10 10" id="verticallinea40b54ac-453b-4e50-9910-9b97ead7ffaf" refX="0" refY="5" markerUnits="strokeWidth" markerWidth="20" markerHeight="10" orient="auto" stroke-width="1px"><path d="M 0 -10 L 0 10" stroke="black"/></marker></defs><g><rect pointer-events="fill" fill="transparent" y="30" x="70.66615867614746" width="479.33384132385254" height="236.8357830356445"/><text text-anchor="middle" y="20" x="285"/><g transform="translate(20, 30)"><g><g><g><path shape-rendering="crispEdges" stroke="#F0F0F0" stroke-width="1" stroke-opacity="undefined" clip-path="url(#_clipplota40b54ac-453b-4e50-9910-9b97ead7ffaf)" d="M 54.03864316625693 0 L 54.03864316625693 268.8357830356445M 64.38368761444549 0 L 64.38368761444549 268.8357830356445M 74.72873206263405 0 L 74.72873206263405 268.8357830356445M 85.0737765108226 0 L 85.0737765108226 268.8357830356445M 95.41882095901116 0 L 95.41882095901116 268.8357830356445M 105.76386540719972 0 L 105.76386540719972 268.8357830356445M 116.10890985538828 0 L 116.10890985538828 268.8357830356445M 126.45395430357684 0 L 126.45395430357684 268.8357830356445M 136.7989987517654 0 L 136.7989987517654 268.8357830356445M 157.48908764814252 0 L 157.48908764814252 268.8357830356445M 167.83413209633107 0 L 167.83413209633107 268.8357830356445M 178.17917654451963 0 L 178.17917654451963 268.8357830356445M 188.5242209927082 0 L 188.5242209927082 268.8357830356445M 198.86926544089675 0 L 198.86926544089675 268.8357830356445M 209.2143098890853 0 L 209.2143098890853 268.8357830356445M 219.55935433727387 0 L 219.55935433727387 268.8357830356445M 229.9043987854624 0 L 229.9043987854624 268.8357830356445M 240.249443233651 0 L 240.249443233651 268.8357830356445M 260.9395321300281 0 L 260.9395321300281 268.8357830356445M 271.2845765782167 0 L 271.2845765782167 268.8357830356445M 281.6296210264052 0 L 281.6296210264052 268.8357830356445M 291.97466547459373 0 L 291.97466547459373 268.8357830356445M 302.3197099227823 0 L 302.3197099227823 268.8357830356445M 312.6647543709709 0 L 312.6647543709709 268.8357830356445M 323.00979881915947 0 L 323.00979881915947 268.8357830356445M 333.354843267348 0 L 333.354843267348 268.8357830356445M 343.69988771553653 0 L 343.69988771553653 268.8357830356445M 364.3899766119137 0 L 364.3899766119137 268.8357830356445M 374.73502106010227 0 L 374.73502106010227 268.8357830356445M 385.0800655082908 0 L 385.0800655082908 268.8357830356445M 395.42510995647933 0 L 395.42510995647933 268.8357830356445M 405.77015440466795 0 L 405.77015440466795 268.8357830356445M 416.1151988528565 0 L 416.1151988528565 268.8357830356445M 426.460243301045 0 L 426.460243301045 268.8357830356445M 436.80528774923357 0 L 436.80528774923357 268.8357830356445M 447.15033219742213 0 L 447.15033219742213 268.8357830356445M 467.8404210937993 0 L 467.8404210937993 268.8357830356445M 478.1854655419878 0 L 478.1854655419878 268.8357830356445M 488.53050999017637 0 L 488.53050999017637 268.8357830356445M 498.87555443836493 0 L 498.87555443836493 268.8357830356445M 509.2205988865535 0 L 509.2205988865535 268.8357830356445M 519.565643334742 0 L 519.565643334742 268.8357830356445M 529.9106877829306 0 L 529.9106877829306 268.8357830356445"/><path shape-rendering="crispEdges" stroke="#F0F0F0" stroke-width="1" stroke-opacity="undefined" clip-path="url(#_clipplota40b54ac-453b-4e50-9910-9b97ead7ffaf)" d="M 0 232.17014031223096 L 530 232.17014031223096M 0 226.7945518190561 L 530 226.7945518190561M 0 221.4189633258812 L 530 221.4189633258812M 0 216.04337483270635 L 530 216.04337483270635M 0 210.6677863395315 L 530 210.6677863395315M 0 205.2921978463566 L 530 205.2921978463566M 0 199.91660935318174 L 530 199.91660935318174M 0 194.54102086000688 L 530 194.54102086000688M 0 189.165432366832 L 530 189.165432366832M 0 183.78984387365713 L 530 183.78984387365713M 0 178.41425538048225 L 530 178.41425538048225M 0 173.0386668873074 L 530 173.0386668873074M 0 167.66307839413253 L 530 167.66307839413253M 0 162.28748990095764 L 530 162.28748990095764M 0 156.91190140778275 L 530 156.91190140778275M 0 151.5363129146079 L 530 151.5363129146079M 0 146.16072442143303 L 530 146.16072442143303M 0 140.78513592825814 L 530 140.78513592825814M 0 135.40954743508325 L 530 135.40954743508325M 0 124.65837044873355 L 530 124.65837044873355M 0 119.28278195555868 L 530 119.28278195555868M 0 113.90719346238382 L 530 113.90719346238382M 0 108.53160496920896 L 530 108.53160496920896M 0 103.15601647603407 L 530 103.15601647603407M 0 97.78042798285918 L 530 97.78042798285918M 0 92.40483948968432 L 530 92.40483948968432M 0 87.02925099650943 L 530 87.02925099650943M 0 81.65366250333457 L 530 81.65366250333457M 0 70.90248551698485 L 530 70.90248551698485M 0 65.52689702380997 L 530 65.52689702380997M 0 60.151308530635106 L 530 60.151308530635106M 0 54.77572003746022 L 530 54.77572003746022M 0 49.40013154428536 L 530 49.40013154428536M 0 44.02454305111047 L 530 44.02454305111047M 0 38.64895455793561 L 530 38.64895455793561M 0 33.27336606476072 L 530 33.27336606476072M 0 27.897777571585863 L 530 27.897777571585863M 0 17.146600585236172 L 530 17.146600585236172M 0 11.771012092061284 L 530 11.771012092061284M 0 6.395423598886424 L 530 6.395423598886424M 0 1.019835105711536 L 530 1.019835105711536"/></g><g><path shape-rendering="crispEdges" stroke="#DADADA" stroke-width="1" stroke-opacity="undefined" clip-path="url(#_clipplota40b54ac-453b-4e50-9910-9b97ead7ffaf)" d="M 147.14404319995396 0 L 147.14404319995396 268.8357830356445M 250.59448768183952 0 L 250.59448768183952 268.8357830356445M 354.04493216372515 0 L 354.04493216372515 268.8357830356445M 457.4953766456107 0 L 457.4953766456107 268.8357830356445"/><path shape-rendering="crispEdges" stroke="#DADADA" stroke-width="1" stroke-opacity="undefined" clip-path="url(#_clipplota40b54ac-453b-4e50-9910-9b97ead7ffaf)" d="M 0 183.78984387365713 L 530 183.78984387365713M 0 130.03395894190842 L 530 130.03395894190842M 0 76.27807401015971 L 530 76.27807401015971M 0 22.52218907841103 L 530 22.52218907841103"/></g></g><g transform="translate(0 236.8357830356445)"><rect pointer-events="fill" fill="transparent"/><g><line y1="0" y2="-2" stroke="black" display="visible" x1="54.03864316625693" x2="54.03864316625693"/><line y1="0" y2="-2" stroke="black" display="visible" x1="64.38368761444549" x2="64.38368761444549"/><line y1="0" y2="-2" stroke="black" display="visible" x1="74.72873206263405" x2="74.72873206263405"/><line y1="0" y2="-2" stroke="black" display="visible" x1="85.0737765108226" x2="85.0737765108226"/><line y1="0" y2="-4" stroke="black" display="visible" x1="95.41882095901116" x2="95.41882095901116"/><line y1="0" y2="-2" stroke="black" display="visible" x1="105.76386540719972" x2="105.76386540719972"/><line y1="0" y2="-2" stroke="black" display="visible" x1="116.10890985538828" x2="116.10890985538828"/><line y1="0" y2="-2" stroke="black" display="visible" x1="126.45395430357684" x2="126.45395430357684"/><line y1="0" y2="-2" stroke="black" display="visible" x1="136.7989987517654" x2="136.7989987517654"/><line y1="0" y2="-2" stroke="black" display="visible" x1="157.48908764814252" x2="157.48908764814252"/><line y1="0" y2="-2" stroke="black" display="visible" x1="167.83413209633107" x2="167.83413209633107"/><line y1="0" y2="-2" stroke="black" display="visible" x1="178.17917654451963" x2="178.17917654451963"/><line y1="0" y2="-2" stroke="black" display="visible" x1="188.5242209927082" x2="188.5242209927082"/><line y1="0" y2="-4" stroke="black" display="visible" x1="198.86926544089675" x2="198.86926544089675"/><line y1="0" y2="-2" stroke="black" display="visible" x1="209.2143098890853" x2="209.2143098890853"/><line y1="0" y2="-2" stroke="black" display="visible" x1="219.55935433727387" x2="219.55935433727387"/><line y1="0" y2="-2" stroke="black" display="visible" x1="229.9043987854624" x2="229.9043987854624"/><line y1="0" y2="-2" stroke="black" display="visible" x1="240.249443233651" x2="240.249443233651"/><line y1="0" y2="-6" stroke="black" display="visible" x1="147.14404319995396" x2="147.14404319995396"/><line y1="0" y2="-2" stroke="black" display="visible" x1="260.9395321300281" x2="260.9395321300281"/><line y1="0" y2="-2" stroke="black" display="visible" x1="271.2845765782167" x2="271.2845765782167"/><line y1="0" y2="-2" stroke="black" display="visible" x1="281.6296210264052" x2="281.6296210264052"/><line y1="0" y2="-2" stroke="black" display="visible" x1="291.97466547459373" x2="291.97466547459373"/><line y1="0" y2="-4" stroke="black" display="visible" x1="302.3197099227823" x2="302.3197099227823"/><line y1="0" y2="-2" stroke="black" display="visible" x1="312.6647543709709" x2="312.6647543709709"/><line y1="0" y2="-2" stroke="black" display="visible" x1="323.00979881915947" x2="323.00979881915947"/><line y1="0" y2="-2" stroke="black" display="visible" x1="333.354843267348" x2="333.354843267348"/><line y1="0" y2="-2" stroke="black" display="visible" x1="343.69988771553653" x2="343.69988771553653"/><line y1="0" y2="-6" stroke="black" display="visible" x1="250.59448768183952" x2="250.59448768183952"/><line y1="0" y2="-2" stroke="black" display="visible" x1="364.3899766119137" x2="364.3899766119137"/><line y1="0" y2="-2" stroke="black" display="visible" x1="374.73502106010227" x2="374.73502106010227"/><line y1="0" y2="-2" stroke="black" display="visible" x1="385.0800655082908" x2="385.0800655082908"/><line y1="0" y2="-2" stroke="black" display="visible" x1="395.42510995647933" x2="395.42510995647933"/><line y1="0" y2="-4" stroke="black" display="visible" x1="405.77015440466795" x2="405.77015440466795"/><line y1="0" y2="-2" stroke="black" display="visible" x1="416.1151988528565" x2="416.1151988528565"/><line y1="0" y2="-2" stroke="black" display="visible" x1="426.460243301045" x2="426.460243301045"/><line y1="0" y2="-2" stroke="black" display="visible" x1="436.80528774923357" x2="436.80528774923357"/><line y1="0" y2="-2" stroke="black" display="visible" x1="447.15033219742213" x2="447.15033219742213"/><line y1="0" y2="-6" stroke="black" display="visible" x1="354.04493216372515" x2="354.04493216372515"/><line y1="0" y2="-2" stroke="black" display="visible" x1="467.8404210937993" x2="467.8404210937993"/><line y1="0" y2="-2" stroke="black" display="visible" x1="478.1854655419878" x2="478.1854655419878"/><line y1="0" y2="-2" stroke="black" display="visible" x1="488.53050999017637" x2="488.53050999017637"/><line y1="0" y2="-2" stroke="black" display="visible" x1="498.87555443836493" x2="498.87555443836493"/><line y1="0" y2="-4" stroke="black" display="visible" x1="509.2205988865535" x2="509.2205988865535"/><line y1="0" y2="-2" stroke="black" display="visible" x1="519.565643334742" x2="519.565643334742"/><line y1="0" y2="-6" stroke="black" display="visible" x1="457.4953766456107" x2="457.4953766456107"/><line y1="0" y2="-6" stroke="black" display="none" x1="530" x2="530"/><line y1="0" y2="-2" stroke="black" display="visible" x1="529.9106877829306" x2="529.9106877829306"/></g><g><text y="8" text-anchor="middle" display="visible" x="147.14404319995396" style="dominant-baseline: hanging;">5</text><text y="8" text-anchor="middle" display="visible" x="250.59448768183952" style="dominant-baseline: hanging;">10</text><text y="8" text-anchor="middle" display="visible" x="354.04493216372515" style="dominant-baseline: hanging;">15</text><text y="8" text-anchor="middle" display="visible" x="457.4953766456107" style="dominant-baseline: hanging;">20</text><text y="8" text-anchor="middle" display="none" x="530" style="dominant-baseline: hanging;">1.0</text></g><line stroke="black" shape-rendering="crispEdges" stroke-linecap="square" display="block" x1="50.66615867614746" x2="530" y1="0" y2="0" marker-start="" marker-end=""/><text text-anchor="middle" fill="undefined" style="display: initial;" x="290.33307933807373" y="22"><tspan style="dominant-baseline: hanging;">Time [min]</tspan><tspan display="none" style="dominant-baseline: hanging;"/><tspan dx="6" display="none" style="dominant-baseline: hanging;"/><tspan dy="-5" font-size="0.8em" display="none" style="dominant-baseline: hanging;"/></text><g/></g><g transform="translate( 50.66615867614746 0 )"><rect pointer-events="fill" fill="transparent"/><g><line x1="0" x2="2" stroke="black" display="visible" y1="232.17014031223096" y2="232.17014031223096"/><line x1="0" x2="4" stroke="black" display="visible" y1="210.6677863395315" y2="210.6677863395315"/><line x1="0" x2="4" stroke="black" display="visible" y1="156.91190140778275" y2="156.91190140778275"/><line x1="0" x2="2" stroke="black" display="visible" y1="226.7945518190561" y2="226.7945518190561"/><line x1="0" x2="2" stroke="black" display="visible" y1="221.4189633258812" y2="221.4189633258812"/><line x1="0" x2="2" stroke="black" display="visible" y1="216.04337483270635" y2="216.04337483270635"/><line x1="0" x2="2" stroke="black" display="visible" y1="205.2921978463566" y2="205.2921978463566"/><line x1="0" x2="2" stroke="black" display="visible" y1="199.91660935318174" y2="199.91660935318174"/><line x1="0" x2="2" stroke="black" display="visible" y1="194.54102086000688" y2="194.54102086000688"/><line x1="0" x2="2" stroke="black" display="visible" y1="189.165432366832" y2="189.165432366832"/><line x1="0" x2="2" stroke="black" display="visible" y1="183.78984387365713" y2="183.78984387365713"/><line x1="0" x2="4" stroke="black" display="visible" y1="103.15601647603407" y2="103.15601647603407"/><line x1="0" x2="4" stroke="black" display="visible" y1="49.40013154428536" y2="49.40013154428536"/><line x1="0" x2="2" stroke="black" display="visible" y1="178.41425538048225" y2="178.41425538048225"/><line x1="0" x2="2" stroke="black" display="visible" y1="173.0386668873074" y2="173.0386668873074"/><line x1="0" x2="2" stroke="black" display="visible" y1="167.66307839413253" y2="167.66307839413253"/><line x1="0" x2="2" stroke="black" display="visible" y1="162.28748990095764" y2="162.28748990095764"/><line x1="0" x2="6" stroke="black" display="visible" y1="183.78984387365713" y2="183.78984387365713"/><line x1="0" x2="2" stroke="black" display="visible" y1="151.5363129146079" y2="151.5363129146079"/><line x1="0" x2="2" stroke="black" display="visible" y1="146.16072442143303" y2="146.16072442143303"/><line x1="0" x2="2" stroke="black" display="visible" y1="140.78513592825814" y2="140.78513592825814"/><line x1="0" x2="2" stroke="black" display="visible" y1="135.40954743508325" y2="135.40954743508325"/><line x1="0" x2="4" stroke="black" display="none" y1="72.06606092157537" y2="72.06606092157537"/><line x1="0" x2="4" stroke="black" display="none" y1="64.70416112497043" y2="64.70416112497043"/><line x1="0" x2="2" stroke="black" display="visible" y1="124.65837044873355" y2="124.65837044873355"/><line x1="0" x2="2" stroke="black" display="visible" y1="119.28278195555868" y2="119.28278195555868"/><line x1="0" x2="2" stroke="black" display="visible" y1="113.90719346238382" y2="113.90719346238382"/><line x1="0" x2="2" stroke="black" display="visible" y1="108.53160496920896" y2="108.53160496920896"/><line x1="0" x2="6" stroke="black" display="visible" y1="130.03395894190842" y2="130.03395894190842"/><line x1="0" x2="2" stroke="black" display="visible" y1="97.78042798285918" y2="97.78042798285918"/><line x1="0" x2="2" stroke="black" display="visible" y1="92.40483948968432" y2="92.40483948968432"/><line x1="0" x2="2" stroke="black" display="visible" y1="87.02925099650943" y2="87.02925099650943"/><line x1="0" x2="4" stroke="black" display="none" y1="5.808962752130213" y2="5.808962752130213"/><line x1="0" x2="6" stroke="black" display="visible" y1="76.27807401015971" y2="76.27807401015971"/><line x1="0" x2="2" stroke="black" display="visible" y1="81.65366250333457" y2="81.65366250333457"/><line x1="0" x2="2" stroke="black" display="visible" y1="70.90248551698485" y2="70.90248551698485"/><line x1="0" x2="2" stroke="black" display="visible" y1="65.52689702380997" y2="65.52689702380997"/><line x1="0" x2="2" stroke="black" display="visible" y1="60.151308530635106" y2="60.151308530635106"/><line x1="0" x2="2" stroke="black" display="visible" y1="54.77572003746022" y2="54.77572003746022"/><line x1="0" x2="2" stroke="black" display="visible" y1="44.02454305111047" y2="44.02454305111047"/><line x1="0" x2="2" stroke="black" display="visible" y1="38.64895455793561" y2="38.64895455793561"/><line x1="0" x2="2" stroke="black" display="visible" y1="33.27336606476072" y2="33.27336606476072"/><line x1="0" x2="2" stroke="black" display="visible" y1="27.897777571585863" y2="27.897777571585863"/><line x1="0" x2="2" stroke="black" display="visible" y1="17.146600585236172" y2="17.146600585236172"/><line x1="0" x2="2" stroke="black" display="visible" y1="11.771012092061284" y2="11.771012092061284"/><line x1="0" x2="2" stroke="black" display="visible" y1="6.395423598886424" y2="6.395423598886424"/><line x1="0" x2="2" stroke="black" display="visible" y1="1.019835105711536" y2="1.019835105711536"/><line x1="0" x2="6" stroke="black" display="visible" y1="22.52218907841103" y2="22.52218907841103"/></g><g><text x="-5" text-anchor="end" display="visible" y="183.78984387365713" style="dominant-baseline: central;">0.1</text><text x="-5" text-anchor="end" display="visible" y="130.03395894190842" style="dominant-baseline: central;">0.2</text><text x="-5" text-anchor="end" display="visible" y="76.27807401015971" style="dominant-baseline: central;">0.3</text><text x="-5" text-anchor="end" display="visible" y="22.52218907841103" style="dominant-baseline: central;">0.4</text></g><line stroke="black" shape-rendering="crispEdges" stroke-linecap="square" display="block" y1="236.8357830356445" y2="0" x1="0" x2="0" marker-start="" marker-end=""/><text text-anchor="middle" transform="translate(-38.66615867614746, 118.41789151782226) rotate(-90)" fill="undefined" dominant-baseline="auto"><tspan>Absorbance</tspan><tspan display="none"/><tspan dx="6" display="none"/><tspan dy="-5" font-size="0.8em" display="none"/></text><g/></g></g><g><g data-layer="1"><g><g><g><path stroke="rgba(255,1,9,1)" stroke-width="0.0001" fill="none" d="M 50.6 234.20000000000002 L 61 234.60000000000002 L 71.4 235 L 81.80000000000001 235.20000000000002 L 92.2 235.20000000000002 L 102.60000000000001 235.4 L 113 235.20000000000002 L 123.60000000000001 235.60000000000002 L 134 235.8 L 144.4 235.8 L 154.8 235.60000000000002 L 165.20000000000002 235.4 L 175.60000000000002 236 L 186 236.20000000000002 L 196.4 236 L 206.8 236.20000000000002 L 217.20000000000002 236 L 227.8 236.20000000000002 L 238.20000000000002 236.20000000000002 L 248.60000000000002 236.4 L 259 236.4 L 269.40000000000003 236.4 L 279.8 236.4 L 290.2 236.4 L 300.6 236.4 L 311 236.60000000000002 L 321.40000000000003 236.60000000000002 L 332 236.60000000000002 L 342.40000000000003 236.60000000000002 L 352.8 236.60000000000002 L 363.20000000000005 236.60000000000002 L 373.6 236.60000000000002 L 384 236.60000000000002 L 394.40000000000003 236.60000000000002 L 404.8 236.8 L 415.20000000000005 236.60000000000002 L 425.6 236.60000000000002 L 436.20000000000005 236.60000000000002 L 446.6 236.60000000000002 L 457 236.60000000000002 L 467.40000000000003 236.60000000000002 L 477.8 236.60000000000002 L 488.20000000000005 236.60000000000002 L 498.6 236.60000000000002 L 509 236.60000000000002 L 519.4 236.60000000000002 L 529.8000000000001 236.60000000000002 "/></g><circle fill="black" r="3" display="none"/><g/><rect fill="white"/><text/><g><path fill="rgba(255,1,9,1)" stroke="rgba(255,1,9,1)" stroke-width="1" d="M 50.6 234.20000000000002 m -1 -1 l 2 0 l 0 2 l -2 0 z M 61 234.60000000000002 m -1 -1 l 2 0 l 0 2 l -2 0 z M 71.4 235 m -1 -1 l 2 0 l 0 2 l -2 0 z M 81.80000000000001 235.20000000000002 m -1 -1 l 2 0 l 0 2 l -2 0 z M 92.2 235.20000000000002 m -1 -1 l 2 0 l 0 2 l -2 0 z M 102.60000000000001 235.4 m -1 -1 l 2 0 l 0 2 l -2 0 z M 113 235.20000000000002 m -1 -1 l 2 0 l 0 2 l -2 0 z M 123.60000000000001 235.60000000000002 m -1 -1 l 2 0 l 0 2 l -2 0 z M 134 235.8 m -1 -1 l 2 0 l 0 2 l -2 0 z M 144.4 235.8 m -1 -1 l 2 0 l 0 2 l -2 0 z M 154.8 235.60000000000002 m -1 -1 l 2 0 l 0 2 l -2 0 z M 165.20000000000002 235.4 m -1 -1 l 2 0 l 0 2 l -2 0 z M 175.60000000000002 236 m -1 -1 l 2 0 l 0 2 l -2 0 z M 186 236.20000000000002 m -1 -1 l 2 0 l 0 2 l -2 0 z M 196.4 236 m -1 -1 l 2 0 l 0 2 l -2 0 z M 206.8 236.20000000000002 m -1 -1 l 2 0 l 0 2 l -2 0 z M 217.20000000000002 236 m -1 -1 l 2 0 l 0 2 l -2 0 z M 227.8 236.20000000000002 m -1 -1 l 2 0 l 0 2 l -2 0 z M 238.20000000000002 236.20000000000002 m -1 -1 l 2 0 l 0 2 l -2 0 z M 248.60000000000002 236.4 m -1 -1 l 2 0 l 0 2 l -2 0 z M 259 236.4 m -1 -1 l 2 0 l 0 2 l -2 0 z M 269.40000000000003 236.4 m -1 -1 l 2 0 l 0 2 l -2 0 z M 279.8 236.4 m -1 -1 l 2 0 l 0 2 l -2 0 z M 290.2 236.4 m -1 -1 l 2 0 l 0 2 l -2 0 z M 300.6 236.4 m -1 -1 l 2 0 l 0 2 l -2 0 z M 311 236.60000000000002 m -1 -1 l 2 0 l 0 2 l -2 0 z M 321.40000000000003 236.60000000000002 m -1 -1 l 2 0 l 0 2 l -2 0 z M 332 236.60000000000002 m -1 -1 l 2 0 l 0 2 l -2 0 z M 342.40000000000003 236.60000000000002 m -1 -1 l 2 0 l 0 2 l -2 0 z M 352.8 236.60000000000002 m -1 -1 l 2 0 l 0 2 l -2 0 z M 363.20000000000005 236.60000000000002 m -1 -1 l 2 0 l 0 2 l -2 0 z M 373.6 236.60000000000002 m -1 -1 l 2 0 l 0 2 l -2 0 z M 384 236.60000000000002 m -1 -1 l 2 0 l 0 2 l -2 0 z M 394.40000000000003 236.60000000000002 m -1 -1 l 2 0 l 0 2 l -2 0 z M 404.8 236.8 m -1 -1 l 2 0 l 0 2 l -2 0 z M 415.20000000000005 236.60000000000002 m -1 -1 l 2 0 l 0 2 l -2 0 z M 425.6 236.60000000000002 m -1 -1 l 2 0 l 0 2 l -2 0 z M 436.20000000000005 236.60000000000002 m -1 -1 l 2 0 l 0 2 l -2 0 z M 446.6 236.60000000000002 m -1 -1 l 2 0 l 0 2 l -2 0 z M 457 236.60000000000002 m -1 -1 l 2 0 l 0 2 l -2 0 z M 467.40000000000003 236.60000000000002 m -1 -1 l 2 0 l 0 2 l -2 0 z M 477.8 236.60000000000002 m -1 -1 l 2 0 l 0 2 l -2 0 z M 488.20000000000005 236.60000000000002 m -1 -1 l 2 0 l 0 2 l -2 0 z M 498.6 236.60000000000002 m -1 -1 l 2 0 l 0 2 l -2 0 z M 509 236.60000000000002 m -1 -1 l 2 0 l 0 2 l -2 0 z M 519.4 236.60000000000002 m -1 -1 l 2 0 l 0 2 l -2 0 z M 529.8000000000001 236.60000000000002 m -1 -1 l 2 0 l 0 2 l -2 0 z "/></g></g><g><g><path stroke="rgba(5,150,0,1)" stroke-width="0.0001" fill="none" d="M 50.6 0 L 61 22.8 L 71.4 42.800000000000004 L 81.80000000000001 60.400000000000006 L 92.2 76.2 L 102.60000000000001 90.2 L 113 102.4 L 123.60000000000001 115.4 L 134 126 L 144.4 135.8 L 154.8 144.6 L 165.20000000000002 152.6 L 175.60000000000002 159.8 L 186 166.20000000000002 L 196.4 172.20000000000002 L 206.8 177.4 L 217.20000000000002 182.4 L 227.8 186.8 L 238.20000000000002 190.8 L 248.60000000000002 194.4 L 259 197.8 L 269.40000000000003 200.8 L 279.8 203.4 L 290.2 205.8 L 300.6 208.20000000000002 L 311 210.20000000000002 L 321.40000000000003 212 L 332 213.60000000000002 L 342.40000000000003 215.20000000000002 L 352.8 216.60000000000002 L 363.20000000000005 217.8 L 373.6 219 L 384 220 L 394.40000000000003 220.60000000000002 L 404.8 221.8 L 415.20000000000005 222.60000000000002 L 425.6 223.20000000000002 L 436.20000000000005 223.8 L 446.6 224.4 L 457 225 L 467.40000000000003 225.4 L 477.8 225.8 L 488.20000000000005 226.20000000000002 L 498.6 226.60000000000002 L 509 226.8 L 519.4 227.20000000000002 L 529.8000000000001 227.4 "/></g><circle fill="black" r="3" display="none"/><g/><rect fill="white"/><text/><g><path fill="rgba(5,150,0,1)" stroke="rgba(5,150,0,1)" stroke-width="1" d="M 50.6 0 m -1 -1 l 2 0 l 0 2 l -2 0 z M 61 22.8 m -1 -1 l 2 0 l 0 2 l -2 0 z M 71.4 42.800000000000004 m -1 -1 l 2 0 l 0 2 l -2 0 z M 81.80000000000001 60.400000000000006 m -1 -1 l 2 0 l 0 2 l -2 0 z M 92.2 76.2 m -1 -1 l 2 0 l 0 2 l -2 0 z M 102.60000000000001 90.2 m -1 -1 l 2 0 l 0 2 l -2 0 z M 113 102.4 m -1 -1 l 2 0 l 0 2 l -2 0 z M 123.60000000000001 115.4 m -1 -1 l 2 0 l 0 2 l -2 0 z M 134 126 m -1 -1 l 2 0 l 0 2 l -2 0 z M 144.4 135.8 m -1 -1 l 2 0 l 0 2 l -2 0 z M 154.8 144.6 m -1 -1 l 2 0 l 0 2 l -2 0 z M 165.20000000000002 152.6 m -1 -1 l 2 0 l 0 2 l -2 0 z M 175.60000000000002 159.8 m -1 -1 l 2 0 l 0 2 l -2 0 z M 186 166.20000000000002 m -1 -1 l 2 0 l 0 2 l -2 0 z M 196.4 172.20000000000002 m -1 -1 l 2 0 l 0 2 l -2 0 z M 206.8 177.4 m -1 -1 l 2 0 l 0 2 l -2 0 z M 217.20000000000002 182.4 m -1 -1 l 2 0 l 0 2 l -2 0 z M 227.8 186.8 m -1 -1 l 2 0 l 0 2 l -2 0 z M 238.20000000000002 190.8 m -1 -1 l 2 0 l 0 2 l -2 0 z M 248.60000000000002 194.4 m -1 -1 l 2 0 l 0 2 l -2 0 z M 259 197.8 m -1 -1 l 2 0 l 0 2 l -2 0 z M 269.40000000000003 200.8 m -1 -1 l 2 0 l 0 2 l -2 0 z M 279.8 203.4 m -1 -1 l 2 0 l 0 2 l -2 0 z M 290.2 205.8 m -1 -1 l 2 0 l 0 2 l -2 0 z M 300.6 208.20000000000002 m -1 -1 l 2 0 l 0 2 l -2 0 z M 311 210.20000000000002 m -1 -1 l 2 0 l 0 2 l -2 0 z M 321.40000000000003 212 m -1 -1 l 2 0 l 0 2 l -2 0 z M 332 213.60000000000002 m -1 -1 l 2 0 l 0 2 l -2 0 z M 342.40000000000003 215.20000000000002 m -1 -1 l 2 0 l 0 2 l -2 0 z M 352.8 216.60000000000002 m -1 -1 l 2 0 l 0 2 l -2 0 z M 363.20000000000005 217.8 m -1 -1 l 2 0 l 0 2 l -2 0 z M 373.6 219 m -1 -1 l 2 0 l 0 2 l -2 0 z M 384 220 m -1 -1 l 2 0 l 0 2 l -2 0 z M 394.40000000000003 220.60000000000002 m -1 -1 l 2 0 l 0 2 l -2 0 z M 404.8 221.8 m -1 -1 l 2 0 l 0 2 l -2 0 z M 415.20000000000005 222.60000000000002 m -1 -1 l 2 0 l 0 2 l -2 0 z M 425.6 223.20000000000002 m -1 -1 l 2 0 l 0 2 l -2 0 z M 436.20000000000005 223.8 m -1 -1 l 2 0 l 0 2 l -2 0 z M 446.6 224.4 m -1 -1 l 2 0 l 0 2 l -2 0 z M 457 225 m -1 -1 l 2 0 l 0 2 l -2 0 z M 467.40000000000003 225.4 m -1 -1 l 2 0 l 0 2 l -2 0 z M 477.8 225.8 m -1 -1 l 2 0 l 0 2 l -2 0 z M 488.20000000000005 226.20000000000002 m -1 -1 l 2 0 l 0 2 l -2 0 z M 498.6 226.60000000000002 m -1 -1 l 2 0 l 0 2 l -2 0 z M 509 226.8 m -1 -1 l 2 0 l 0 2 l -2 0 z M 519.4 227.20000000000002 m -1 -1 l 2 0 l 0 2 l -2 0 z M 529.8000000000001 227.4 m -1 -1 l 2 0 l 0 2 l -2 0 z "/></g></g><g><g><path stroke="rgba(2,1,255,1)" stroke-width="0.0001" fill="none" d="M 50.6 184.20000000000002 L 61 189.60000000000002 L 71.4 194.20000000000002 L 81.80000000000001 198.20000000000002 L 92.2 201.60000000000002 L 102.60000000000001 204.8 L 113 208 L 123.60000000000001 210.60000000000002 L 134 213 L 144.4 215.20000000000002 L 154.8 217 L 165.20000000000002 219 L 175.60000000000002 220.60000000000002 L 186 222 L 196.4 223.20000000000002 L 206.8 224.4 L 217.20000000000002 225.4 L 227.8 226.4 L 238.20000000000002 227.4 L 248.60000000000002 228.20000000000002 L 259 228.8 L 269.40000000000003 229.4 L 279.8 230.20000000000002 L 290.2 230.60000000000002 L 300.6 231.20000000000002 L 311 231.60000000000002 L 321.40000000000003 232 L 332 232.4 L 342.40000000000003 232.8 L 352.8 233 L 363.20000000000005 233.4 L 373.6 233.4 L 384 233.8 L 394.40000000000003 234 L 404.8 234.20000000000002 L 415.20000000000005 234.20000000000002 L 425.6 234.4 L 436.20000000000005 234.60000000000002 L 446.6 234.8 L 457 234.8 L 467.40000000000003 235 L 477.8 235 L 488.20000000000005 235 L 498.6 235.20000000000002 L 509 235.20000000000002 L 519.4 235.20000000000002 L 529.8000000000001 235.4 "/></g><circle fill="black" r="3" display="none"/><g/><rect fill="white"/><text/><g><path fill="rgba(2,1,255,1)" stroke="rgba(2,1,255,1)" stroke-width="1" d="M 50.6 184.20000000000002 m -1 -1 l 2 0 l 0 2 l -2 0 z M 61 189.60000000000002 m -1 -1 l 2 0 l 0 2 l -2 0 z M 71.4 194.20000000000002 m -1 -1 l 2 0 l 0 2 l -2 0 z M 81.80000000000001 198.20000000000002 m -1 -1 l 2 0 l 0 2 l -2 0 z M 92.2 201.60000000000002 m -1 -1 l 2 0 l 0 2 l -2 0 z M 102.60000000000001 204.8 m -1 -1 l 2 0 l 0 2 l -2 0 z M 113 208 m -1 -1 l 2 0 l 0 2 l -2 0 z M 123.60000000000001 210.60000000000002 m -1 -1 l 2 0 l 0 2 l -2 0 z M 134 213 m -1 -1 l 2 0 l 0 2 l -2 0 z M 144.4 215.20000000000002 m -1 -1 l 2 0 l 0 2 l -2 0 z M 154.8 217 m -1 -1 l 2 0 l 0 2 l -2 0 z M 165.20000000000002 219 m -1 -1 l 2 0 l 0 2 l -2 0 z M 175.60000000000002 220.60000000000002 m -1 -1 l 2 0 l 0 2 l -2 0 z M 186 222 m -1 -1 l 2 0 l 0 2 l -2 0 z M 196.4 223.20000000000002 m -1 -1 l 2 0 l 0 2 l -2 0 z M 206.8 224.4 m -1 -1 l 2 0 l 0 2 l -2 0 z M 217.20000000000002 225.4 m -1 -1 l 2 0 l 0 2 l -2 0 z M 227.8 226.4 m -1 -1 l 2 0 l 0 2 l -2 0 z M 238.20000000000002 227.4 m -1 -1 l 2 0 l 0 2 l -2 0 z M 248.60000000000002 228.20000000000002 m -1 -1 l 2 0 l 0 2 l -2 0 z M 259 228.8 m -1 -1 l 2 0 l 0 2 l -2 0 z M 269.40000000000003 229.4 m -1 -1 l 2 0 l 0 2 l -2 0 z M 279.8 230.20000000000002 m -1 -1 l 2 0 l 0 2 l -2 0 z M 290.2 230.60000000000002 m -1 -1 l 2 0 l 0 2 l -2 0 z M 300.6 231.20000000000002 m -1 -1 l 2 0 l 0 2 l -2 0 z M 311 231.60000000000002 m -1 -1 l 2 0 l 0 2 l -2 0 z M 321.40000000000003 232 m -1 -1 l 2 0 l 0 2 l -2 0 z M 332 232.4 m -1 -1 l 2 0 l 0 2 l -2 0 z M 342.40000000000003 232.8 m -1 -1 l 2 0 l 0 2 l -2 0 z M 352.8 233 m -1 -1 l 2 0 l 0 2 l -2 0 z M 363.20000000000005 233.4 m -1 -1 l 2 0 l 0 2 l -2 0 z M 373.6 233.4 m -1 -1 l 2 0 l 0 2 l -2 0 z M 384 233.8 m -1 -1 l 2 0 l 0 2 l -2 0 z M 394.40000000000003 234 m -1 -1 l 2 0 l 0 2 l -2 0 z M 404.8 234.20000000000002 m -1 -1 l 2 0 l 0 2 l -2 0 z M 415.20000000000005 234.20000000000002 m -1 -1 l 2 0 l 0 2 l -2 0 z M 425.6 234.4 m -1 -1 l 2 0 l 0 2 l -2 0 z M 436.20000000000005 234.60000000000002 m -1 -1 l 2 0 l 0 2 l -2 0 z M 446.6 234.8 m -1 -1 l 2 0 l 0 2 l -2 0 z M 457 234.8 m -1 -1 l 2 0 l 0 2 l -2 0 z M 467.40000000000003 235 m -1 -1 l 2 0 l 0 2 l -2 0 z M 477.8 235 m -1 -1 l 2 0 l 0 2 l -2 0 z M 488.20000000000005 235 m -1 -1 l 2 0 l 0 2 l -2 0 z M 498.6 235.20000000000002 m -1 -1 l 2 0 l 0 2 l -2 0 z M 509 235.20000000000002 m -1 -1 l 2 0 l 0 2 l -2 0 z M 519.4 235.20000000000002 m -1 -1 l 2 0 l 0 2 l -2 0 z M 529.8000000000001 235.4 m -1 -1 l 2 0 l 0 2 l -2 0 z "/></g></g><g><g><path stroke="rgba(255,253,11,0.4)" stroke-width="3" fill="none" d="M 50.6 4.2 L 50.800000000000004 4.4 L 50.800000000000004 4.800000000000001 L 51 5.2 L 51.2 5.4 L 51.400000000000006 5.800000000000001 L 51.6 6.2 L 51.800000000000004 6.4 L 51.800000000000004 6.800000000000001 L 52 7.2 L 52.2 7.6000000000000005 L 52.400000000000006 7.800000000000001 L 52.6 8.200000000000001 L 52.800000000000004 8.6 L 53 8.8 L 53 9.200000000000001 L 53.2 9.600000000000001 L 53.400000000000006 9.8 L 53.6 10.200000000000001 L 53.800000000000004 10.600000000000001 L 54 10.8 L 54 11.200000000000001 L 54.2 11.4 L 54.400000000000006 11.8 L 54.6 12.200000000000001 L 54.800000000000004 12.4 L 55 12.8 L 55 13.200000000000001 L 55.2 13.4 L 55.400000000000006 13.8 L 55.6 14.200000000000001 L 55.800000000000004 14.4 L 56 14.8 L 56 15 L 56.2 15.4 L 56.400000000000006 15.8 L 56.6 16 L 56.800000000000004 16.400000000000002 L 57 16.8 L 57 17 L 57.2 17.400000000000002 L 57.400000000000006 17.6 L 57.6 18 L 57.800000000000004 18.400000000000002 L 58 18.6 L 58 19 L 58.2 19.200000000000003 L 58.400000000000006 19.6 L 58.6 20 L 58.800000000000004 20.200000000000003 L 59 20.6 L 59 20.8 L 59.2 21.200000000000003 L 59.400000000000006 21.400000000000002 L 59.6 21.8 L 59.800000000000004 22.200000000000003 L 60 22.400000000000002 L 60 22.8 L 60.2 23 L 60.400000000000006 23.400000000000002 L 60.6 23.6 L 60.800000000000004 24 L 61 24.400000000000002 L 61 24.6 L 61.2 25 L 61.400000000000006 25.200000000000003 L 61.6 25.6 L 61.800000000000004 25.8 L 62 26.200000000000003 L 62 26.400000000000002 L 62.2 26.8 L 62.400000000000006 27.200000000000003 L 62.6 27.400000000000002 L 62.800000000000004 27.8 L 63 28 L 63 28.400000000000002 L 63.2 28.6 L 63.400000000000006 29 L 63.6 29.200000000000003 L 63.800000000000004 29.6 L 64 29.8 L 64 30.200000000000003 L 64.2 30.400000000000002 L 64.4 30.8 L 64.60000000000001 31 L 64.8 31.400000000000002 L 65 31.6 L 65 32 L 65.2 32.2 L 65.4 32.6 L 65.60000000000001 32.800000000000004 L 65.8 33.2 L 66 33.4 L 66 33.800000000000004 L 66.2 34 L 66.4 34.4 L 66.60000000000001 34.6 L 66.8 35 L 67 35.2 L 67 35.6 L 67.2 35.800000000000004 L 67.4 36.2 L 67.60000000000001 36.4 L 67.8 36.800000000000004 L 68 37 L 68 37.2 L 68.2 37.6 L 68.4 37.800000000000004 L 68.60000000000001 38.2 L 68.8 38.400000000000006 L 69 38.800000000000004 L 69 39 L 69.2 39.400000000000006 L 69.4 39.6 L 69.60000000000001 40 L 69.8 40.2 L 70 40.400000000000006 L 70 40.800000000000004 L 70.2 41 L 70.4 41.400000000000006 L 70.60000000000001 41.6 L 70.8 42 L 71 42.2 L 71 42.400000000000006 L 71.2 42.800000000000004 L 71.4 43 L 71.60000000000001 43.400000000000006 L 71.8 43.6 L 72 44 L 72 44.2 L 72.2 44.400000000000006 L 72.4 44.800000000000004 L 72.60000000000001 45 L 72.8 45.400000000000006 L 73 45.6 L 73 45.800000000000004 L 73.2 46.2 L 73.4 46.400000000000006 L 73.60000000000001 46.800000000000004 L 73.8 47 L 74 47.2 L 74 47.6 L 74.2 47.800000000000004 L 74.4 48 L 74.60000000000001 48.400000000000006 L 74.8 48.6 L 75 49 L 75 49.2 L 75.2 49.400000000000006 L 75.4 49.800000000000004 L 75.60000000000001 50 L 75.8 50.2 L 76 50.6 L 76 50.800000000000004 L 76.2 51.2 L 76.4 51.400000000000006 L 76.60000000000001 51.6 L 76.80000000000001 52 L 77 52.2 L 77 52.400000000000006 L 77.2 52.800000000000004 L 77.4 53 L 77.60000000000001 53.2 L 77.80000000000001 53.6 L 78 53.800000000000004 L 78 54 L 78.2 54.400000000000006 L 78.4 54.6 L 78.60000000000001 54.800000000000004 L 78.80000000000001 55.2 L 79 55.400000000000006 L 79 55.6 L 79.2 56 L 79.4 56.2 L 79.60000000000001 56.400000000000006 L 79.80000000000001 56.800000000000004 L 80 57 L 80 57.2 L 80.2 57.6 L 80.4 57.800000000000004 L 80.60000000000001 58 L 80.80000000000001 58.400000000000006 L 81 58.6 L 81 58.800000000000004 L 81.2 59 L 81.4 59.400000000000006 L 81.60000000000001 59.6 L 81.80000000000001 59.800000000000004 L 82 60.2 L 82 60.400000000000006 L 82.2 60.6 L 82.4 61 L 82.60000000000001 61.2 L 82.80000000000001 61.400000000000006 L 83 61.6 L 83 62 L 83.2 62.2 L 83.4 62.400000000000006 L 83.60000000000001 62.800000000000004 L 83.80000000000001 63 L 84 63.2 L 84 63.400000000000006 L 84.2 63.800000000000004 L 84.4 64 L 84.60000000000001 64.2 L 84.80000000000001 64.4 L 85 64.8 L 85 65 L 85.2 65.2 L 85.4 65.4 L 85.60000000000001 65.8 L 85.80000000000001 66 L 86 66.2 L 86 66.4 L 86.2 66.8 L 86.4 67 L 86.60000000000001 67.2 L 86.80000000000001 67.4 L 87 67.8 L 87 68 L 87.2 68.2 L 87.4 68.4 L 87.60000000000001 68.8 L 87.80000000000001 69 L 88 69.2 L 88 69.4 L 88.2 69.8 L 88.4 70 L 88.60000000000001 70.2 L 88.80000000000001 70.4 L 89 70.60000000000001 L 89 71 L 89.2 71.2 L 89.4 71.4 L 89.60000000000001 71.60000000000001 L 89.80000000000001 71.8 L 90 72.2 L 90 72.4 L 90.2 72.60000000000001 L 90.4 72.8 L 90.60000000000001 73.2 L 90.80000000000001 73.4 L 91 73.60000000000001 L 91 73.8 L 91.2 74 L 91.4 74.2 L 91.60000000000001 74.60000000000001 L 91.80000000000001 74.8 L 92 75 L 92 75.2 L 92.2 75.4 L 92.4 75.8 L 92.60000000000001 76 L 92.80000000000001 76.2 L 93 76.4 L 93 76.60000000000001 L 93.2 76.80000000000001 L 93.4 77.2 L 93.60000000000001 77.4 L 93.80000000000001 77.60000000000001 L 94 77.80000000000001 L 94 78 L 94.2 78.2 L 94.4 78.60000000000001 L 94.60000000000001 78.80000000000001 L 94.80000000000001 79 L 95 79.2 L 95 79.4 L 95.2 79.60000000000001 L 95.4 80 L 95.60000000000001 80.2 L 95.80000000000001 80.4 L 96 80.60000000000001 L 96 80.80000000000001 L 96.2 81 L 96.4 81.2 L 96.60000000000001 81.60000000000001 L 96.80000000000001 81.80000000000001 L 97 82 L 97 82.2 L 97.2 82.4 L 97.4 82.60000000000001 L 97.60000000000001 82.80000000000001 L 97.80000000000001 83.2 L 98 83.4 L 98 83.60000000000001 L 98.2 83.80000000000001 L 98.4 84 L 98.60000000000001 84.2 L 98.80000000000001 84.4 L 99 84.60000000000001 L 99 84.80000000000001 L 99.2 85.2 L 99.4 85.4 L 99.60000000000001 85.60000000000001 L 99.80000000000001 85.80000000000001 L 100 86 L 100 86.2 L 100.2 86.4 L 100.4 86.60000000000001 L 100.60000000000001 86.80000000000001 L 100.80000000000001 87.2 L 101 87.4 L 101 87.60000000000001 L 101.2 87.80000000000001 L 101.4 88 L 101.60000000000001 88.2 L 101.80000000000001 88.4 L 102 88.60000000000001 L 102 88.80000000000001 L 102.2 89 L 102.4 89.2 L 102.60000000000001 89.60000000000001 L 102.80000000000001 89.80000000000001 L 103 90 L 103 90.2 L 103.2 90.4 L 103.4 90.60000000000001 L 103.60000000000001 90.80000000000001 L 103.80000000000001 91 L 104 91.2 L 104 91.4 L 104.2 91.60000000000001 L 104.4 91.80000000000001 L 104.60000000000001 92 L 104.80000000000001 92.2 L 105 92.60000000000001 L 105 92.80000000000001 L 105.2 93 L 105.4 93.2 L 105.60000000000001 93.4 L 105.80000000000001 93.60000000000001 L 106 93.80000000000001 L 106 94 L 106.2 94.2 L 106.4 94.4 L 106.60000000000001 94.60000000000001 L 106.80000000000001 94.80000000000001 L 107 95 L 107 95.2 L 107.2 95.4 L 107.4 95.60000000000001 L 107.60000000000001 95.80000000000001 L 107.80000000000001 96 L 108 96.2 L 108 96.4 L 108.2 96.60000000000001 L 108.4 96.80000000000001 L 108.60000000000001 97 L 108.80000000000001 97.2 L 109 97.4 L 109 97.60000000000001 L 109.2 98 L 109.4 98.2 L 109.60000000000001 98.4 L 109.80000000000001 98.60000000000001 L 110 98.80000000000001 L 110 99 L 110.2 99.2 L 110.4 99.4 L 110.60000000000001 99.60000000000001 L 110.80000000000001 99.80000000000001 L 111 100 L 111 100.2 L 111.2 100.4 L 111.4 100.60000000000001 L 111.60000000000001 100.80000000000001 L 111.80000000000001 101 L 112 101.2 L 112 101.4 L 112.2 101.60000000000001 L 112.4 101.80000000000001 L 112.60000000000001 102 L 112.80000000000001 102.2 L 113 102.4 L 113 102.60000000000001 L 113.2 102.80000000000001 L 113.4 103 L 113.60000000000001 103 L 113.80000000000001 103.2 L 114 103.4 L 114 103.60000000000001 L 114.2 103.80000000000001 L 114.4 104 L 114.60000000000001 104.2 L 114.80000000000001 104.4 L 115 104.60000000000001 L 115 104.80000000000001 L 115.2 105 L 115.4 105.2 L 115.60000000000001 105.4 L 115.80000000000001 105.60000000000001 L 116 105.80000000000001 L 116 106 L 116.2 106.2 L 116.4 106.4 L 116.60000000000001 106.60000000000001 L 116.80000000000001 106.80000000000001 L 117 107 L 117 107.2 L 117.2 107.4 L 117.4 107.60000000000001 L 117.60000000000001 107.80000000000001 L 117.80000000000001 108 L 118 108.2 L 118.2 108.4 L 118.4 108.60000000000001 L 118.60000000000001 108.80000000000001 L 118.80000000000001 109 L 119 109.2 L 119 109.4 L 119.2 109.60000000000001 L 119.4 109.80000000000001 L 119.60000000000001 110 L 119.80000000000001 110.2 L 120 110.4 L 120 110.60000000000001 L 120.2 110.80000000000001 L 120.4 111 L 120.60000000000001 111 L 120.80000000000001 111.2 L 121 111.4 L 121 111.60000000000001 L 121.2 111.80000000000001 L 121.4 112 L 121.60000000000001 112.2 L 121.80000000000001 112.4 L 122 112.60000000000001 L 122 112.80000000000001 L 122.2 113 L 122.4 113.2 L 122.60000000000001 113.2 L 122.80000000000001 113.4 L 123 113.60000000000001 L 123 113.80000000000001 L 123.2 114 L 123.4 114.2 L 123.60000000000001 114.4 L 123.80000000000001 114.60000000000001 L 124 114.80000000000001 L 124 115 L 124.2 115 L 124.4 115.2 L 124.60000000000001 115.4 L 124.80000000000001 115.60000000000001 L 125 115.80000000000001 L 125 116 L 125.2 116.2 L 125.4 116.4 L 125.60000000000001 116.60000000000001 L 125.80000000000001 116.60000000000001 L 126 116.80000000000001 L 126 117 L 126.2 117.2 L 126.4 117.4 L 126.60000000000001 117.60000000000001 L 126.80000000000001 117.80000000000001 L 127 118 L 127.2 118.2 L 127.4 118.4 L 127.60000000000001 118.60000000000001 L 127.80000000000001 118.80000000000001 L 128 119 L 128 119.2 L 128.20000000000002 119.4 L 128.4 119.4 L 128.6 119.60000000000001 L 128.8 119.80000000000001 L 129 120 L 129 120.2 L 129.20000000000002 120.4 L 129.4 120.60000000000001 L 129.6 120.60000000000001 L 129.8 120.80000000000001 L 130 121 L 130 121.2 L 130.20000000000002 121.4 L 130.4 121.60000000000001 L 130.6 121.60000000000001 L 130.8 121.80000000000001 L 131 122 L 131 122.2 L 131.20000000000002 122.4 L 131.4 122.60000000000001 L 131.6 122.80000000000001 L 131.8 122.80000000000001 L 132 123 L 132 123.2 L 132.20000000000002 123.4 L 132.4 123.60000000000001 L 132.6 123.80000000000001 L 132.8 123.80000000000001 L 133 124 L 133 124.2 L 133.20000000000002 124.4 L 133.4 124.60000000000001 L 133.6 124.60000000000001 L 133.8 124.80000000000001 L 134 125 L 134 125.2 L 134.20000000000002 125.4 L 134.4 125.60000000000001 L 134.6 125.60000000000001 L 134.8 125.80000000000001 L 135 126 L 135 126.2 L 135.20000000000002 126.4 L 135.4 126.4 L 135.6 126.60000000000001 L 135.8 126.80000000000001 L 136 127 L 136 127.2 L 136.20000000000002 127.2 L 136.4 127.4 L 136.6 127.60000000000001 L 136.8 127.80000000000001 L 137 128 L 137 128.20000000000002 L 137.20000000000002 128.20000000000002 L 137.4 128.4 L 137.6 128.6 L 137.8 128.8 L 138 128.8 L 138 129 L 138.20000000000002 129.20000000000002 L 138.4 129.4 L 138.6 129.6 L 138.8 129.6 L 139 129.8 L 139 130 L 139.20000000000002 130.20000000000002 L 139.4 130.4 L 139.6 130.4 L 139.8 130.6 L 140 130.8 L 140 131 L 140.20000000000002 131 L 140.4 131.20000000000002 L 140.6 131.4 L 140.8 131.6 L 141 131.8 L 141.20000000000002 132 L 141.4 132.20000000000002 L 141.6 132.4 L 141.8 132.4 L 142 132.6 L 142 132.8 L 142.20000000000002 133 L 142.4 133 L 142.6 133.20000000000002 L 142.8 133.4 L 143 133.6 L 143 133.8 L 143.20000000000002 133.8 L 143.4 134 L 143.6 134.20000000000002 L 143.8 134.4 L 144 134.4 L 144 134.6 L 144.20000000000002 134.8 L 144.4 135 L 144.6 135 L 144.8 135.20000000000002 L 145 135.4 L 145 135.6 L 145.20000000000002 135.6 L 145.4 135.8 L 145.6 136 L 145.8 136 L 146 136.20000000000002 L 146 136.4 L 146.20000000000002 136.6 L 146.4 136.6 L 146.6 136.8 L 146.8 137 L 147 137.20000000000002 L 147.20000000000002 137.4 L 147.4 137.6 L 147.6 137.8 L 147.8 137.8 L 148 138 L 148.20000000000002 138.20000000000002 L 148.4 138.4 L 148.6 138.6 L 148.8 138.8 L 149 138.8 L 149.20000000000002 139 L 149.20000000000002 139.20000000000002 L 149.4 139.4 L 149.6 139.4 L 149.8 139.6 L 150 139.8 L 150.20000000000002 139.8 L 150.20000000000002 140 L 150.4 140.20000000000002 L 150.6 140.20000000000002 L 150.8 140.4 L 151 140.6 L 151.20000000000002 140.8 L 151.4 141 L 151.6 141.20000000000002 L 151.8 141.20000000000002 L 152 141.4 L 152.20000000000002 141.6 L 152.20000000000002 141.8 L 152.4 141.8 L 152.6 142 L 152.8 142.20000000000002 L 153 142.20000000000002 L 153.20000000000002 142.4 L 153.20000000000002 142.6 L 153.4 142.6 L 153.60000000000002 142.8 L 153.8 143 L 154 143 L 154.20000000000002 143.20000000000002 L 154.20000000000002 143.4 L 154.4 143.6 L 154.60000000000002 143.6 L 154.8 143.8 L 155 144 L 155.20000000000002 144 L 155.20000000000002 144.20000000000002 L 155.4 144.4 L 155.60000000000002 144.4 L 155.8 144.6 L 156 144.8 L 156.20000000000002 144.8 L 156.20000000000002 145 L 156.4 145.20000000000002 L 156.60000000000002 145.20000000000002 L 156.8 145.4 L 157 145.6 L 157.20000000000002 145.6 L 157.20000000000002 145.8 L 157.4 146 L 157.60000000000002 146 L 157.8 146.20000000000002 L 158 146.4 L 158.20000000000002 146.4 L 158.20000000000002 146.6 L 158.4 146.8 L 158.60000000000002 146.8 L 158.8 147 L 159 147.20000000000002 L 159.20000000000002 147.20000000000002 L 159.20000000000002 147.4 L 159.4 147.6 L 159.60000000000002 147.6 L 159.8 147.8 L 160 148 L 160.20000000000002 148 L 160.20000000000002 148.20000000000002 L 160.4 148.4 L 160.60000000000002 148.4 L 160.8 148.6 L 161 148.8 L 161.20000000000002 148.8 L 161.20000000000002 149 L 161.4 149 L 161.60000000000002 149.20000000000002 L 161.8 149.4 L 162 149.4 L 162.20000000000002 149.6 L 162.20000000000002 149.8 L 162.4 149.8 L 162.60000000000002 150 L 162.8 150.20000000000002 L 163 150.20000000000002 L 163.20000000000002 150.4 L 163.20000000000002 150.6 L 163.4 150.6 L 163.60000000000002 150.8 L 163.8 150.8 L 164 151 L 164.20000000000002 151.20000000000002 L 164.4 151.4 L 164.60000000000002 151.6 L 164.8 151.6 L 165 151.8 L 165.20000000000002 151.8 L 165.20000000000002 152 L 165.4 152.20000000000002 L 165.60000000000002 152.20000000000002 L 165.8 152.4 L 166 152.6 L 166.20000000000002 152.6 L 166.20000000000002 152.8 L 166.4 152.8 L 166.60000000000002 153 L 166.8 153.20000000000002 L 167 153.20000000000002 L 167.20000000000002 153.4 L 167.4 153.60000000000002 L 167.60000000000002 153.8 L 167.8 153.8 L 168 154 L 168.20000000000002 154.20000000000002 L 168.4 154.4 L 168.60000000000002 154.4 L 168.8 154.60000000000002 L 169 154.8 L 169.20000000000002 154.8 L 169.20000000000002 155 L 169.4 155 L 169.60000000000002 155.20000000000002 L 169.8 155.4 L 170 155.4 L 170.20000000000002 155.60000000000002 L 170.4 155.8 L 170.60000000000002 156 L 170.8 156 L 171 156.20000000000002 L 171.20000000000002 156.20000000000002 L 171.20000000000002 156.4 L 171.4 156.60000000000002 L 171.60000000000002 156.60000000000002 L 171.8 156.8 L 172 156.8 L 172.20000000000002 157 L 172.4 157.20000000000002 L 172.60000000000002 157.4 L 172.8 157.4 L 173 157.60000000000002 L 173.20000000000002 157.60000000000002 L 173.20000000000002 157.8 L 173.4 158 L 173.60000000000002 158 L 173.8 158.20000000000002 L 174 158.20000000000002 L 174.20000000000002 158.4 L 174.4 158.60000000000002 L 174.60000000000002 158.8 L 174.8 158.8 L 175 159 L 175.20000000000002 159 L 175.20000000000002 159.20000000000002 L 175.4 159.20000000000002 L 175.60000000000002 159.4 L 175.8 159.60000000000002 L 176 159.60000000000002 L 176.20000000000002 159.8 L 176.4 160 L 176.60000000000002 160 L 176.8 160.20000000000002 L 177 160.4 L 177.20000000000002 160.4 L 177.20000000000002 160.60000000000002 L 177.4 160.60000000000002 L 177.60000000000002 160.8 L 177.8 160.8 L 178 161 L 178.20000000000002 161.20000000000002 L 178.4 161.4 L 178.60000000000002 161.4 L 178.8 161.60000000000002 L 179 161.60000000000002 L 179.20000000000002 161.8 L 179.4 162 L 179.60000000000002 162 L 179.8 162.20000000000002 L 180 162.4 L 180.20000000000002 162.4 L 180.20000000000002 162.60000000000002 L 180.4 162.60000000000002 L 180.60000000000002 162.8 L 180.8 162.8 L 181 163 L 181.20000000000002 163 L 181.20000000000002 163.20000000000002 L 181.4 163.20000000000002 L 181.60000000000002 163.4 L 181.8 163.60000000000002 L 182 163.60000000000002 L 182.20000000000002 163.8 L 182.4 164 L 182.60000000000002 164 L 182.8 164.20000000000002 L 183 164.20000000000002 L 183.20000000000002 164.4 L 183.4 164.60000000000002 L 183.60000000000002 164.60000000000002 L 183.8 164.8 L 184 165 L 184.20000000000002 165 L 184.20000000000002 165.20000000000002 L 184.4 165.20000000000002 L 184.60000000000002 165.4 L 184.8 165.4 L 185 165.60000000000002 L 185.20000000000002 165.60000000000002 L 185.20000000000002 165.8 L 185.4 165.8 L 185.60000000000002 166 L 185.8 166 L 186 166.20000000000002 L 186.20000000000002 166.20000000000002 L 186.20000000000002 166.4 L 186.4 166.4 L 186.60000000000002 166.60000000000002 L 186.8 166.60000000000002 L 187 166.8 L 187.20000000000002 166.8 L 187.20000000000002 167 L 187.4 167 L 187.60000000000002 167.20000000000002 L 187.8 167.4 L 188 167.4 L 188.20000000000002 167.60000000000002 L 188.4 167.8 L 188.60000000000002 167.8 L 188.8 168 L 189 168 L 189.20000000000002 168.20000000000002 L 189.4 168.4 L 189.60000000000002 168.4 L 189.8 168.60000000000002 L 190 168.60000000000002 L 190.20000000000002 168.8 L 190.4 169 L 190.60000000000002 169 L 190.8 169.20000000000002 L 191 169.20000000000002 L 191.20000000000002 169.4 L 191.4 169.60000000000002 L 191.60000000000002 169.60000000000002 L 191.8 169.8 L 192 169.8 L 192.20000000000002 170 L 192.4 170.20000000000002 L 192.60000000000002 170.20000000000002 L 192.8 170.4 L 193 170.4 L 193.20000000000002 170.60000000000002 L 193.4 170.60000000000002 L 193.60000000000002 170.8 L 193.8 170.8 L 194 171 L 194.20000000000002 171 L 194.20000000000002 171.20000000000002 L 194.4 171.20000000000002 L 194.60000000000002 171.4 L 194.8 171.4 L 195 171.60000000000002 L 195.20000000000002 171.60000000000002 L 195.20000000000002 171.8 L 195.4 171.8 L 195.60000000000002 172 L 195.8 172 L 196 172.20000000000002 L 196.20000000000002 172.20000000000002 L 196.20000000000002 172.4 L 196.4 172.4 L 196.60000000000002 172.60000000000002 L 196.8 172.60000000000002 L 197 172.8 L 197.20000000000002 172.8 L 197.20000000000002 173 L 197.4 173 L 197.60000000000002 173 L 197.8 173.20000000000002 L 198 173.20000000000002 L 198.20000000000002 173.4 L 198.4 173.60000000000002 L 198.60000000000002 173.60000000000002 L 198.8 173.8 L 199 173.8 L 199.20000000000002 174 L 199.4 174.20000000000002 L 199.60000000000002 174.20000000000002 L 199.8 174.4 L 200 174.4 L 200.20000000000002 174.4 L 200.20000000000002 174.60000000000002 L 200.4 174.60000000000002 L 200.60000000000002 174.8 L 200.8 174.8 L 201 175 L 201.20000000000002 175 L 201.20000000000002 175.20000000000002 L 201.4 175.20000000000002 L 201.60000000000002 175.4 L 201.8 175.4 L 202 175.4 L 202.20000000000002 175.60000000000002 L 202.4 175.8 L 202.60000000000002 175.8 L 202.8 176 L 203 176 L 203.20000000000002 176.20000000000002 L 203.4 176.20000000000002 L 203.60000000000002 176.4 L 203.8 176.4 L 204 176.60000000000002 L 204.20000000000002 176.60000000000002 L 204.20000000000002 176.8 L 204.4 176.8 L 204.60000000000002 177 L 204.8 177 L 205 177 L 205.20000000000002 177.20000000000002 L 205.4 177.4 L 205.60000000000002 177.4 L 205.8 177.60000000000002 L 206 177.60000000000002 L 206.20000000000002 177.8 L 206.4 177.8 L 206.60000000000002 178 L 206.8 178 L 207 178.20000000000002 L 207.20000000000002 178.20000000000002 L 207.20000000000002 178.4 L 207.4 178.4 L 207.60000000000002 178.4 L 207.8 178.60000000000002 L 208 178.60000000000002 L 208.20000000000002 178.8 L 208.4 179 L 208.60000000000002 179 L 208.8 179 L 209 179.20000000000002 L 209.20000000000002 179.20000000000002 L 209.20000000000002 179.4 L 209.4 179.4 L 209.60000000000002 179.60000000000002 L 209.8 179.60000000000002 L 210 179.60000000000002 L 210.20000000000002 179.8 L 210.4 180 L 210.60000000000002 180 L 210.8 180.20000000000002 L 211 180.20000000000002 L 211.20000000000002 180.20000000000002 L 211.20000000000002 180.4 L 211.4 180.4 L 211.60000000000002 180.60000000000002 L 211.8 180.60000000000002 L 212 180.60000000000002 L 212.20000000000002 180.8 L 212.4 181 L 212.60000000000002 181 L 212.8 181 L 213 181.20000000000002 L 213.20000000000002 181.20000000000002 L 213.20000000000002 181.4 L 213.4 181.4 L 213.60000000000002 181.60000000000002 L 213.8 181.60000000000002 L 214 181.60000000000002 L 214.20000000000002 181.8 L 214.4 182 L 214.60000000000002 182 L 214.8 182 L 215 182.20000000000002 L 215.20000000000002 182.20000000000002 L 215.20000000000002 182.4 L 215.4 182.4 L 215.60000000000002 182.4 L 215.8 182.60000000000002 L 216 182.60000000000002 L 216.20000000000002 182.8 L 216.4 182.8 L 216.60000000000002 183 L 216.8 183 L 217 183.20000000000002 L 217.20000000000002 183.20000000000002 "/></g><circle fill="black" r="3" display="none"/><g/><rect fill="white"/><text/><g/></g></g><g><g clip-path="url(#_clipplota40b54ac-453b-4e50-9910-9b97ead7ffaf)"><rect data-label-i="0" display="initial"/><text data-label-i="0" display="initial"/></g><g clip-path="url(#_clipplota40b54ac-453b-4e50-9910-9b97ead7ffaf)"><rect data-label-i="0" display="initial"/><text data-label-i="0" display="initial"/></g><g clip-path="url(#_clipplota40b54ac-453b-4e50-9910-9b97ead7ffaf)"><rect data-label-i="0" display="initial"/><text data-label-i="0" display="initial"/></g><g clip-path="url(#_clipplota40b54ac-453b-4e50-9910-9b97ead7ffaf)"><rect data-label-i="0" display="initial"/><text data-label-i="0" display="initial"/></g></g></g></g><line stroke="black" shape-rendering="crispEdges" stroke-linecap="square" display="none"/><line stroke="black" shape-rendering="crispEdges" stroke-linecap="square" display="none"/><line stroke="black" shape-rendering="crispEdges" stroke-linecap="square" display="none"/><line stroke="black" shape-rendering="crispEdges" stroke-linecap="square" display="none"/></g><g><rect display="none" fill="rgba(171,12,12,0.2)" stroke="rgba(171,12,12,1)" shape-rendering="crispEdges" x="0" y="0" height="0" width="0" pointer-events="none"/></g></g><g display="block" transform="translate(99, 306.92432403564453)"><rect x="-5" y="-8.109375" stroke="rgba( 100, 100, 100, 0.5 )" stroke-width="1px" rx="0" ry="0" fill="rgba( 255, 255, 255, 0.8 )" width="422.578125" height="37.18505096435547"/><symbol id="3fb6c62a-93bf-43d5-8fcb-74fa0812d1b5" viewBox="0 -256 1850 1850"><rect pointer-events="fill" x="-256" y="0" fill="transparent" width="2106" height="1850"/><g transform="matrix(1,0,0,-1,30.372881,1259.8983)"><path d="m 1664,576 q -152,236 -381,353 61,-104 61,-225 0,-185 -131.5,-316.5 Q 1081,256 896,256 711,256 579.5,387.5 448,519 448,704 448,825 509,929 280,812 128,576 261,371 461.5,249.5 662,128 896,128 1130,128 1330.5,249.5 1531,371 1664,576 z M 944,960 q 0,20 -14,34 -14,14 -34,14 -125,0 -214.5,-89.5 Q 592,829 592,704 q 0,-20 14,-34 14,-14 34,-14 20,0 34,14 14,14 14,34 0,86 61,147 61,61 147,61 20,0 34,14 14,14 14,34 z m 848,-384 q 0,-34 -20,-69 Q 1632,277 1395.5,138.5 1159,0 896,0 633,0 396.5,139 160,278 20,507 0,542 0,576 q 0,34 20,69 140,229 376.5,368 236.5,139 499.5,139 263,0 499.5,-139 236.5,-139 376.5,-368 20,-35 20,-69 z" fill="#444444"/></g></symbol><symbol id="a1c79452-2b2c-4f8d-b0ef-5ab9d0107258" viewBox="0 -256 1850 1850"><rect pointer-events="fill" fill="transparent" x="-256" y="0" width="2106" height="1850"/><g transform="matrix(1,0,0,-1,30.372881,1214.339)"><path d="m 555,201 78,141 q -87,63 -136,159 -49,96 -49,203 0,121 61,225 Q 280,812 128,576 295,318 555,201 z m 389,759 q 0,20 -14,34 -14,14 -34,14 -125,0 -214.5,-89.5 Q 592,829 592,704 q 0,-20 14,-34 14,-14 34,-14 20,0 34,14 14,14 14,34 0,86 61,147 61,61 147,61 20,0 34,14 14,14 14,34 z m 363,191 q 0,-7 -1,-9 Q 1201,954 991,576 781,198 675,9 l -49,-89 q -10,-16 -28,-16 -12,0 -134,70 -16,10 -16,28 0,12 44,87 Q 349,154 228.5,262 108,370 20,507 0,538 0,576 q 0,38 20,69 153,235 380,371 227,136 496,136 89,0 180,-17 l 54,97 q 10,16 28,16 5,0 18,-6 13,-6 31,-15.5 18,-9.5 33,-18.5 15,-9 31.5,-18.5 16.5,-9.5 19.5,-11.5 16,-10 16,-27 z m 37,-447 Q 1344,565 1265,450.5 1186,336 1056,286 l 280,502 q 8,-45 8,-84 z m 448,-128 q 0,-35 -20,-69 Q 1733,443 1663,362 1513,190 1315.5,95 1118,0 896,0 l 74,132 q 212,18 392.5,137 180.5,119 301.5,307 -115,179 -282,294 l 63,112 q 95,-64 182.5,-153 87.5,-89 144.5,-184 20,-34 20,-69 z" fill="#c0c0c0"/></g></symbol><g><g transform="translate( 0, 10)"><rect x="5" y="-8.109375" width="67.3125" height="17.18505096435547" fill="none" pointer-events="fill"/><line stroke="rgba(255,1,9,1)" stroke-width="0.0001" fill="none" x1="5" x2="25" y1="0" y2="0" cursor="pointer"/><path fill="rgba(255,1,9,1)" stroke="rgba(255,1,9,1)" stroke-width="1" d="M 14 0 m -1 -1 l 2 0 l 0 2 l -2 0 z"/><use xlink:href="#3fb6c62a-93bf-43d5-8fcb-74fa0812d1b5" width="15" height="15" x="35" y="-8"/><text cursor="pointer" transform="translate(55, 3)" fill="black">red</text></g><g transform="translate( 77.3125, 10)"><rect x="5" y="-8.109375" width="80.65625" height="17.18505096435547" fill="none" pointer-events="fill"/><line stroke="rgba(5,150,0,1)" stroke-width="0.0001" fill="none" x1="5" x2="25" y1="0" y2="0" cursor="pointer"/><path fill="rgba(5,150,0,1)" stroke="rgba(5,150,0,1)" stroke-width="1" d="M 14 0 m -1 -1 l 2 0 l 0 2 l -2 0 z"/><use xlink:href="#3fb6c62a-93bf-43d5-8fcb-74fa0812d1b5" width="15" height="15" x="35" y="-8"/><text cursor="pointer" transform="translate(55, 3)" fill="black">green</text></g><g transform="translate( 167.96875, 10)"><rect x="5" y="-8.109375" width="72.65625" height="17.18505096435547" fill="none" pointer-events="fill"/><line stroke="rgba(2,1,255,1)" stroke-width="0.0001" fill="none" x1="5" x2="25" y1="0" y2="0" cursor="pointer"/><path fill="rgba(2,1,255,1)" stroke="rgba(2,1,255,1)" stroke-width="1" d="M 14 0 m -1 -1 l 2 0 l 0 2 l -2 0 z"/><use xlink:href="#3fb6c62a-93bf-43d5-8fcb-74fa0812d1b5" width="15" height="15" x="35" y="-8"/><text cursor="pointer" transform="translate(55, 3)" fill="black">blue</text></g><g transform="translate( 250.625, 10)"><rect x="5" y="-8.109375" width="151.953125" height="17.18505096435547" fill="none" pointer-events="fill"/><line stroke="rgba(255,253,11,0.4)" stroke-width="3" fill="none" x1="5" x2="25" y1="0" y2="0" cursor="pointer"/><use xlink:href="#3fb6c62a-93bf-43d5-8fcb-74fa0812d1b5" width="15" height="15" x="35" y="-8"/><text cursor="pointer" transform="translate(55, 3)" fill="black">regressionFunction</text></g></g><rect x="0" y="0" width="422.578125" height="37.18505096435547" fill="none" pointer-events="fill" display="none"/></g></svg>