<?xml version="1.0" standalone="no"?><!DOCTYPE svg PUBLIC "-//W3C//DTD SVG 1.1//EN" "http://www.w3.org/Graphics/SVG/1.1/DTD/svg11.dtd"><svg xmlns:xlink="http://www.w3.org/1999/xlink" xmlns="http://www.w3.org/2000/svg" font-family="Myriad Pro, Helvetica, Arial" font-size="12" data-jsgraph-version="v2.0.100" tabindex="0" width="570" height="346.020834"><defs><clipPath id="_clipplota40b54ac-453b-4e50-9910-9b97ead7ffaf" clipPathUnits="userSpaceOnUse"><rect y="0" x="50.66615867614746" width="479.33384132385254" height="236.8357830356445"/></clipPath><marker xmlns="" viewBox="0 0 10 10" id="arrowa40b54ac-453b-4e50-9910-9b97ead7ffaf" refX="6" refY="5" markerUnits="strokeWidth" markerWidth="8" markerHeight="6" orient="auto"><path xmlns="http://www.w3.org/2000/svg" d="M 0 0 L 10 5 L 0 10 z"/></marker><marker viewBox="0 0 6 8" id="horionzalsplit_a40b54ac-453b-4e50-9910-9b97ead7ffaf" refX="3" refY="4" markerUnits="strokeWidth" markerWidth="6" markerHeight="8"><line x1="0" y1="8" x2="6" y2="0" stroke="black"/></marker><marker viewBox="0 0 8 6" id="verticalsplit_a40b54ac-453b-4e50-9910-9b97ead7ffaf" refX="4" refY="3" markerUnits="strokeWidth" markerWidth="8" markerHeight="6"><line x1="0" y1="0" x2="8" y2="6" stroke="black"/></marker><marker viewBox="0 0 10 10" id="verticallinea40b54ac-453b-4e50-9910-9b97ead7ffaf" refX="0" refY="5" markerUnits="strokeWidth" markerWidth="20" markerHeight="10" orient="auto" stroke-width="1px"><path d="M 0 -10 L 0 10" stroke="black"/></marker></defs><g><rect pointer-events="fill" fill="transparent" y="30" x="70.66615867614746" width="479.33384132385254" height="236.8357830356445"/><text text-anchor="middle" y="20" x="285"/><g transform="translate(20, 30)"><g><g><g><path shape-rendering="crispEdges" stroke="#F0F0F0" stroke-width="1" stroke-opacity="undefined" clip-path="url(#_clipplota40b54ac-453b-4e50-9910-9b97ead7ffaf)" d="M 54.04230536371928 0 L 54.04230536371928 268.8357830356445M 64.39011907715968 0 L 64.39011907715968 268.8357830356445M 74.73793279060007 0 L 74.73793279060007 268.8357830356445M 85.08574650404047 0 L 85.08574650404047 268.8357830356445M 95.43356021748087 0 L 95.43356021748087 268.8357830356445M 105.78137393092126 0 L 105.78137393092126 268.8357830356445M 116.12918764436166 0 L 116.12918764436166 268.8357830356445M 126.47700135780207 0 L 126.47700135780207 268.8357830356445M 136.82481507124245 0 L 136.82481507124245 268.8357830356445M 157.52044249812326 0 L 157.52044249812326 268.8357830356445M 167.86825621156365 0 L 167.86825621156365 268.8357830356445M 178.21606992500404 0 L 178.21606992500404 268.8357830356445M 188.56388363844442 0 L 188.56388363844442 268.8357830356445M 198.91169735188484 0 L 198.91169735188484 268.8357830356445M 209.25951106532523 0 L 209.25951106532523 268.8357830356445M 219.60732477876562 0 L 219.60732477876562 268.8357830356445M 229.955138492206 0 L 229.955138492206 268.8357830356445M 240.3029522056464 0 L 240.3029522056464 268.8357830356445M 260.9985796325272 0 L 260.9985796325272 268.8357830356445M 271.3463933459676 0 L 271.3463933459676 268.8357830356445M 281.694207059408 0 L 281.694207059408 268.8357830356445M 292.04202077284845 0 L 292.04202077284845 268.8357830356445M 302.3898344862888 0 L 302.3898344862888 268.8357830356445M 312.7376481997292 0 L 312.7376481997292 268.8357830356445M 323.0854619131696 0 L 323.0854619131696 268.8357830356445M 333.43327562661 0 L 333.43327562661 268.8357830356445M 343.78108934005036 0 L 343.78108934005036 268.8357830356445M 364.4767167669312 0 L 364.4767167669312 268.8357830356445M 374.82453048037155 0 L 374.82453048037155 268.8357830356445M 385.17234419381197 0 L 385.17234419381197 268.8357830356445M 395.5201579072523 0 L 395.5201579072523 268.8357830356445M 405.8679716206928 0 L 405.8679716206928 268.8357830356445M 416.2157853341332 0 L 416.2157853341332 268.8357830356445M 426.5635990475736 0 L 426.5635990475736 268.8357830356445M 436.911412761014 0 L 436.911412761014 268.8357830356445M 447.2592264744544 0 L 447.2592264744544 268.8357830356445M 467.9548539013352 0 L 467.9548539013352 268.8357830356445M 478.30266761477554 0 L 478.30266761477554 268.8357830356445M 488.65048132821596 0 L 488.65048132821596 268.8357830356445M 498.9982950416564 0 L 498.9982950416564 268.8357830356445M 509.34610875509674 0 L 509.34610875509674 268.8357830356445M 519.6939224685372 0 L 519.6939224685372 268.8357830356445"/><path shape-rendering="crispEdges" stroke="#F0F0F0" stroke-width="1" stroke-opacity="undefined" clip-path="url(#_clipplota40b54ac-453b-4e50-9910-9b97ead7ffaf)" d="M 0 230.33385757155656 L 530 230.33385757155656M 0 222.8930011953559 L 530 222.8930011953559M 0 215.45214481915525 L 530 215.45214481915525M 0 208.01128844295462 L 530 208.01128844295462M 0 200.57043206675394 L 530 200.57043206675394M 0 193.1295756905533 L 530 193.1295756905533M 0 185.68871931435265 L 530 185.68871931435265M 0 178.247862938152 L 530 178.247862938152M 0 170.80700656195137 L 530 170.80700656195137M 0 163.3661501857507 L 530 163.3661501857507M 0 155.92529380955006 L 530 155.92529380955006M 0 148.4844374333494 L 530 148.4844374333494M 0 141.04358105714874 L 530 141.04358105714874M 0 133.60272468094809 L 530 133.60272468094809M 0 126.16186830474741 L 530 126.16186830474741M 0 118.72101192854674 L 530 118.72101192854674M 0 111.2801555523461 L 530 111.2801555523461M 0 103.83929917614543 L 530 103.83929917614543M 0 96.39844279994477 L 530 96.39844279994477M 0 81.51673004754352 L 530 81.51673004754352M 0 74.07587367134283 L 530 74.07587367134283M 0 66.63501729514218 L 530 66.63501729514218M 0 59.19416091894152 L 530 59.19416091894152M 0 51.753304542740864 L 530 51.753304542740864M 0 44.31244816654021 L 530 44.31244816654021M 0 36.87159179033958 L 530 36.87159179033958M 0 29.430735414138894 L 530 29.430735414138894M 0 21.989879037938238 L 530 21.989879037938238M 0 7.108166285536981 L 530 7.108166285536981"/></g><g><path shape-rendering="crispEdges" stroke="#DADADA" stroke-width="1" stroke-opacity="undefined" clip-path="url(#_clipplota40b54ac-453b-4e50-9910-9b97ead7ffaf)" d="M 147.17262878468284 0 L 147.17262878468284 268.8357830356445M 250.6507659190868 0 L 250.6507659190868 268.8357830356445M 354.1289030534908 0 L 354.1289030534908 268.8357830356445M 457.60704018789477 0 L 457.60704018789477 268.8357830356445"/><path shape-rendering="crispEdges" stroke="#DADADA" stroke-width="1" stroke-opacity="undefined" clip-path="url(#_clipplota40b54ac-453b-4e50-9910-9b97ead7ffaf)" d="M 0 163.3661501857507 L 530 163.3661501857507M 0 88.95758642374415 L 530 88.95758642374415M 0 14.549022661737638 L 530 14.549022661737638"/></g></g><g transform="translate(0 236.8357830356445)"><rect pointer-events="fill" fill="transparent"/><g><line y1="0" y2="-2" stroke="black" display="visible" x1="54.04230536371928" x2="54.04230536371928"/><line y1="0" y2="-2" stroke="black" display="visible" x1="64.39011907715968" x2="64.39011907715968"/><line y1="0" y2="-2" stroke="black" display="visible" x1="74.73793279060007" x2="74.73793279060007"/><line y1="0" y2="-2" stroke="black" display="visible" x1="85.08574650404047" x2="85.08574650404047"/><line y1="0" y2="-4" stroke="black" display="visible" x1="95.43356021748087" x2="95.43356021748087"/><line y1="0" y2="-2" stroke="black" display="visible" x1="105.78137393092126" x2="105.78137393092126"/><line y1="0" y2="-2" stroke="black" display="visible" x1="116.12918764436166" x2="116.12918764436166"/><line y1="0" y2="-2" stroke="black" display="visible" x1="126.47700135780207" x2="126.47700135780207"/><line y1="0" y2="-2" stroke="black" display="visible" x1="136.82481507124245" x2="136.82481507124245"/><line y1="0" y2="-2" stroke="black" display="visible" x1="157.52044249812326" x2="157.52044249812326"/><line y1="0" y2="-2" stroke="black" display="visible" x1="167.86825621156365" x2="167.86825621156365"/><line y1="0" y2="-2" stroke="black" display="visible" x1="178.21606992500404" x2="178.21606992500404"/><line y1="0" y2="-2" stroke="black" display="visible" x1="188.56388363844442" x2="188.56388363844442"/><line y1="0" y2="-4" stroke="black" display="visible" x1="198.91169735188484" x2="198.91169735188484"/><line y1="0" y2="-2" stroke="black" display="visible" x1="209.25951106532523" x2="209.25951106532523"/><line y1="0" y2="-2" stroke="black" display="visible" x1="219.60732477876562" x2="219.60732477876562"/><line y1="0" y2="-2" stroke="black" display="visible" x1="229.955138492206" x2="229.955138492206"/><line y1="0" y2="-2" stroke="black" display="visible" x1="240.3029522056464" x2="240.3029522056464"/><line y1="0" y2="-6" stroke="black" display="visible" x1="147.17262878468284" x2="147.17262878468284"/><line y1="0" y2="-2" stroke="black" display="visible" x1="260.9985796325272" x2="260.9985796325272"/><line y1="0" y2="-2" stroke="black" display="visible" x1="271.3463933459676" x2="271.3463933459676"/><line y1="0" y2="-2" stroke="black" display="visible" x1="281.694207059408" x2="281.694207059408"/><line y1="0" y2="-2" stroke="black" display="visible" x1="292.04202077284845" x2="292.04202077284845"/><line y1="0" y2="-4" stroke="black" display="visible" x1="302.3898344862888" x2="302.3898344862888"/><line y1="0" y2="-2" stroke="black" display="visible" x1="312.7376481997292" x2="312.7376481997292"/><line y1="0" y2="-2" stroke="black" display="visible" x1="323.0854619131696" x2="323.0854619131696"/><line y1="0" y2="-2" stroke="black" display="visible" x1="333.43327562661" x2="333.43327562661"/><line y1="0" y2="-2" stroke="black" display="visible" x1="343.78108934005036" x2="343.78108934005036"/><line y1="0" y2="-6" stroke="black" display="visible" x1="250.6507659190868" x2="250.6507659190868"/><line y1="0" y2="-2" stroke="black" display="visible" x1="364.4767167669312" x2="364.4767167669312"/><line y1="0" y2="-2" stroke="black" display="visible" x1="374.82453048037155" x2="374.82453048037155"/><line y1="0" y2="-2" stroke="black" display="visible" x1="385.17234419381197" x2="385.17234419381197"/><line y1="0" y2="-2" stroke="black" display="visible" x1="395.5201579072523" x2="395.5201579072523"/><line y1="0" y2="-4" stroke="black" display="visible" x1="405.8679716206928" x2="405.8679716206928"/><line y1="0" y2="-2" stroke="black" display="visible" x1="416.2157853341332" x2="416.2157853341332"/><line y1="0" y2="-2" stroke="black" display="visible" x1="426.5635990475736" x2="426.5635990475736"/><line y1="0" y2="-2" stroke="black" display="visible" x1="436.911412761014" x2="436.911412761014"/><line y1="0" y2="-2" stroke="black" display="visible" x1="447.2592264744544" x2="447.2592264744544"/><line y1="0" y2="-6" stroke="black" display="visible" x1="354.1289030534908" x2="354.1289030534908"/><line y1="0" y2="-2" stroke="black" display="visible" x1="467.9548539013352" x2="467.9548539013352"/><line y1="0" y2="-2" stroke="black" display="visible" x1="478.30266761477554" x2="478.30266761477554"/><line y1="0" y2="-2" stroke="black" display="visible" x1="488.65048132821596" x2="488.65048132821596"/><line y1="0" y2="-2" stroke="black" display="visible" x1="498.9982950416564" x2="498.9982950416564"/><line y1="0" y2="-4" stroke="black" display="visible" x1="509.34610875509674" x2="509.34610875509674"/><line y1="0" y2="-2" stroke="black" display="visible" x1="519.6939224685372" x2="519.6939224685372"/><line y1="0" y2="-6" stroke="black" display="visible" x1="457.60704018789477" x2="457.60704018789477"/><line y1="0" y2="-6" stroke="black" display="none" x1="530" x2="530"/></g><g><text y="8" text-anchor="middle" display="visible" x="147.17262878468284" style="dominant-baseline: hanging;">5</text><text y="8" text-anchor="middle" display="visible" x="250.6507659190868" style="dominant-baseline: hanging;">10</text><text y="8" text-anchor="middle" display="visible" x="354.1289030534908" style="dominant-baseline: hanging;">15</text><text y="8" text-anchor="middle" display="visible" x="457.60704018789477" style="dominant-baseline: hanging;">20</text><text y="8" text-anchor="middle" display="none" x="530" style="dominant-baseline: hanging;">1.0</text></g><line stroke="black" shape-rendering="crispEdges" stroke-linecap="square" display="block" x1="50.66615867614746" x2="530" y1="0" y2="0" marker-start="" marker-end=""/><text text-anchor="middle" fill="undefined" style="display: initial;" x="290.33307933807373" y="22"><tspan style="dominant-baseline: hanging;">Time [min]</tspan><tspan display="none" style="dominant-baseline: hanging;"/><tspan dx="6" display="none" style="dominant-baseline: hanging;"/><tspan dy="-5" font-size="0.8em" display="none" style="dominant-baseline: hanging;"/></text><g/></g><g transform="translate( 50.66615867614746 0 )"><rect pointer-events="fill" fill="transparent"/><g><line x1="0" x2="2" stroke="black" display="visible" y1="230.33385757155656" y2="230.33385757155656"/><line x1="0" x2="4" stroke="black" display="visible" y1="200.57043206675394" y2="200.57043206675394"/><line x1="0" x2="4" stroke="black" display="visible" y1="126.16186830474741" y2="126.16186830474741"/><line x1="0" x2="2" stroke="black" display="visible" y1="222.8930011953559" y2="222.8930011953559"/><line x1="0" x2="2" stroke="black" display="visible" y1="215.45214481915525" y2="215.45214481915525"/><line x1="0" x2="2" stroke="black" display="visible" y1="208.01128844295462" y2="208.01128844295462"/><line x1="0" x2="2" stroke="black" display="visible" y1="193.1295756905533" y2="193.1295756905533"/><line x1="0" x2="2" stroke="black" display="visible" y1="185.68871931435265" y2="185.68871931435265"/><line x1="0" x2="2" stroke="black" display="visible" y1="178.247862938152" y2="178.247862938152"/><line x1="0" x2="2" stroke="black" display="visible" y1="170.80700656195137" y2="170.80700656195137"/><line x1="0" x2="2" stroke="black" display="visible" y1="163.3661501857507" y2="163.3661501857507"/><line x1="0" x2="4" stroke="black" display="visible" y1="51.753304542740864" y2="51.753304542740864"/><line x1="0" x2="4" stroke="black" display="none" y1="138.32315909102044" y2="138.32315909102044"/><line x1="0" x2="2" stroke="black" display="visible" y1="155.92529380955006" y2="155.92529380955006"/><line x1="0" x2="2" stroke="black" display="visible" y1="148.4844374333494" y2="148.4844374333494"/><line x1="0" x2="2" stroke="black" display="visible" y1="141.04358105714874" y2="141.04358105714874"/><line x1="0" x2="2" stroke="black" display="visible" y1="133.60272468094809" y2="133.60272468094809"/><line x1="0" x2="6" stroke="black" display="visible" y1="163.3661501857507" y2="163.3661501857507"/><line x1="0" x2="2" stroke="black" display="visible" y1="118.72101192854674" y2="118.72101192854674"/><line x1="0" x2="2" stroke="black" display="visible" y1="111.2801555523461" y2="111.2801555523461"/><line x1="0" x2="2" stroke="black" display="visible" y1="103.83929917614543" y2="103.83929917614543"/><line x1="0" x2="2" stroke="black" display="visible" y1="96.39844279994477" y2="96.39844279994477"/><line x1="0" x2="4" stroke="black" display="none" y1="72.06606092157537" y2="72.06606092157537"/><line x1="0" x2="4" stroke="black" display="none" y1="64.70416112497043" y2="64.70416112497043"/><line x1="0" x2="2" stroke="black" display="visible" y1="81.51673004754352" y2="81.51673004754352"/><line x1="0" x2="2" stroke="black" display="visible" y1="74.07587367134283" y2="74.07587367134283"/><line x1="0" x2="2" stroke="black" display="visible" y1="66.63501729514218" y2="66.63501729514218"/><line x1="0" x2="2" stroke="black" display="visible" y1="59.19416091894152" y2="59.19416091894152"/><line x1="0" x2="6" stroke="black" display="visible" y1="88.95758642374415" y2="88.95758642374415"/><line x1="0" x2="2" stroke="black" display="visible" y1="44.31244816654021" y2="44.31244816654021"/><line x1="0" x2="2" stroke="black" display="visible" y1="36.87159179033958" y2="36.87159179033958"/><line x1="0" x2="2" stroke="black" display="visible" y1="29.430735414138894" y2="29.430735414138894"/><line x1="0" x2="4" stroke="black" display="none" y1="5.808962752130213" y2="5.808962752130213"/><line x1="0" x2="6" stroke="black" display="visible" y1="14.549022661737638" y2="14.549022661737638"/><line x1="0" x2="2" stroke="black" display="visible" y1="21.989879037938238" y2="21.989879037938238"/><line x1="0" x2="2" stroke="black" display="visible" y1="7.108166285536981" y2="7.108166285536981"/></g><g><text x="-5" text-anchor="end" display="visible" y="163.3661501857507" style="dominant-baseline: central;">0.1</text><text x="-5" text-anchor="end" display="visible" y="88.95758642374415" style="dominant-baseline: central;">0.2</text><text x="-5" text-anchor="end" display="visible" y="14.549022661737638" style="dominant-baseline: central;">0.3</text></g><line stroke="black" shape-rendering="crispEdges" stroke-linecap="square" display="block" y1="236.8357830356445" y2="0" x1="0" x2="0" marker-start="" marker-end=""/><text text-anchor="middle" transform="translate(-38.66615867614746, 118.41789151782226) rotate(-90)" fill="undefined" dominant-baseline="auto"><tspan>Absorbance</tspan><tspan display="none"/><tspan dx="6" display="none"/><tspan dy="-5" font-size="0.8em" display="none"/></text><g/></g></g><g><g data-layer="1"><g><g><g><path stroke="rgba(255,1,9,1)" stroke-width="0.0001" fill="none" d="M 50.6 234.4 L 61 234.4 L 71.4 234.8 L 81.80000000000001 235.20000000000002 L 92.2 235 L 102.60000000000001 235.20000000000002 L 113 235.60000000000002 L 123.60000000000001 235.8 L 134 235.8 L 144.4 236 L 154.8 236 L 165.20000000000002 236.20000000000002 L 175.60000000000002 236.20000000000002 L 186 236.20000000000002 L 196.4 236 L 206.8 236.4 L 217.20000000000002 236.4 L 227.8 236.4 L 238.20000000000002 236.4 L 248.60000000000002 236.4 L 259 236.4 L 269.40000000000003 236.60000000000002 L 279.8 236.60000000000002 L 290.2 236.60000000000002 L 300.6 236.60000000000002 L 311 236.60000000000002 L 321.40000000000003 236.4 L 332 236.60000000000002 L 342.40000000000003 236.60000000000002 L 352.8 236.60000000000002 L 363.20000000000005 236.60000000000002 L 373.6 236.8 L 384 236.60000000000002 L 394.40000000000003 236.60000000000002 L 404.8 236.4 L 415.20000000000005 236.8 L 425.6 236.60000000000002 L 436.20000000000005 236.60000000000002 L 446.6 236.60000000000002 L 457 236.60000000000002 L 467.40000000000003 236.60000000000002 L 477.8 236.60000000000002 L 488.20000000000005 236.60000000000002 L 498.6 236.60000000000002 L 509 236.8 L 519.4 236.60000000000002 L 529.8000000000001 236.60000000000002 "/></g><circle fill="black" r="3" display="none"/><g/><rect fill="white"/><text/><g><path fill="rgba(255,1,9,1)" stroke="rgba(255,1,9,1)" stroke-width="1" d="M 50.6 234.4 m -1 -1 l 2 0 l 0 2 l -2 0 z M 61 234.4 m -1 -1 l 2 0 l 0 2 l -2 0 z M 71.4 234.8 m -1 -1 l 2 0 l 0 2 l -2 0 z M 81.80000000000001 235.20000000000002 m -1 -1 l 2 0 l 0 2 l -2 0 z M 92.2 235 m -1 -1 l 2 0 l 0 2 l -2 0 z M 102.60000000000001 235.20000000000002 m -1 -1 l 2 0 l 0 2 l -2 0 z M 113 235.60000000000002 m -1 -1 l 2 0 l 0 2 l -2 0 z M 123.60000000000001 235.8 m -1 -1 l 2 0 l 0 2 l -2 0 z M 134 235.8 m -1 -1 l 2 0 l 0 2 l -2 0 z M 144.4 236 m -1 -1 l 2 0 l 0 2 l -2 0 z M 154.8 236 m -1 -1 l 2 0 l 0 2 l -2 0 z M 165.20000000000002 236.20000000000002 m -1 -1 l 2 0 l 0 2 l -2 0 z M 175.60000000000002 236.20000000000002 m -1 -1 l 2 0 l 0 2 l -2 0 z M 186 236.20000000000002 m -1 -1 l 2 0 l 0 2 l -2 0 z M 196.4 236 m -1 -1 l 2 0 l 0 2 l -2 0 z M 206.8 236.4 m -1 -1 l 2 0 l 0 2 l -2 0 z M 217.20000000000002 236.4 m -1 -1 l 2 0 l 0 2 l -2 0 z M 227.8 236.4 m -1 -1 l 2 0 l 0 2 l -2 0 z M 238.20000000000002 236.4 m -1 -1 l 2 0 l 0 2 l -2 0 z M 248.60000000000002 236.4 m -1 -1 l 2 0 l 0 2 l -2 0 z M 259 236.4 m -1 -1 l 2 0 l 0 2 l -2 0 z M 269.40000000000003 236.60000000000002 m -1 -1 l 2 0 l 0 2 l -2 0 z M 279.8 236.60000000000002 m -1 -1 l 2 0 l 0 2 l -2 0 z M 290.2 236.60000000000002 m -1 -1 l 2 0 l 0 2 l -2 0 z M 300.6 236.60000000000002 m -1 -1 l 2 0 l 0 2 l -2 0 z M 311 236.60000000000002 m -1 -1 l 2 0 l 0 2 l -2 0 z M 321.40000000000003 236.4 m -1 -1 l 2 0 l 0 2 l -2 0 z M 332 236.60000000000002 m -1 -1 l 2 0 l 0 2 l -2 0 z M 342.40000000000003 236.60000000000002 m -1 -1 l 2 0 l 0 2 l -2 0 z M 352.8 236.60000000000002 m -1 -1 l 2 0 l 0 2 l -2 0 z M 363.20000000000005 236.60000000000002 m -1 -1 l 2 0 l 0 2 l -2 0 z M 373.6 236.8 m -1 -1 l 2 0 l 0 2 l -2 0 z M 384 236.60000000000002 m -1 -1 l 2 0 l 0 2 l -2 0 z M 394.40000000000003 236.60000000000002 m -1 -1 l 2 0 l 0 2 l -2 0 z M 404.8 236.4 m -1 -1 l 2 0 l 0 2 l -2 0 z M 415.20000000000005 236.8 m -1 -1 l 2 0 l 0 2 l -2 0 z M 425.6 236.60000000000002 m -1 -1 l 2 0 l 0 2 l -2 0 z M 436.20000000000005 236.60000000000002 m -1 -1 l 2 0 l 0 2 l -2 0 z M 446.6 236.60000000000002 m -1 -1 l 2 0 l 0 2 l -2 0 z M 457 236.60000000000002 m -1 -1 l 2 0 l 0 2 l -2 0 z M 467.40000000000003 236.60000000000002 m -1 -1 l 2 0 l 0 2 l -2 0 z M 477.8 236.60000000000002 m -1 -1 l 2 0 l 0 2 l -2 0 z M 488.20000000000005 236.60000000000002 m -1 -1 l 2 0 l 0 2 l -2 0 z M 498.6 236.60000000000002 m -1 -1 l 2 0 l 0 2 l -2 0 z M 509 236.8 m -1 -1 l 2 0 l 0 2 l -2 0 z M 519.4 236.60000000000002 m -1 -1 l 2 0 l 0 2 l -2 0 z M 529.8000000000001 236.60000000000002 m -1 -1 l 2 0 l 0 2 l -2 0 z "/></g></g><g><g><path stroke="rgba(5,150,0,1)" stroke-width="0.0001" fill="none" d="M 50.6 0 L 61 28.8 L 71.4 54.6 L 81.80000000000001 77.2 L 92.2 97 L 102.60000000000001 114 L 113 129.20000000000002 L 123.60000000000001 142.20000000000002 L 134 153.60000000000002 L 144.4 163.4 L 154.8 172.20000000000002 L 165.20000000000002 179.8 L 175.60000000000002 186.20000000000002 L 186 192 L 196.4 196.60000000000002 L 206.8 201.20000000000002 L 217.20000000000002 204.8 L 227.8 208.20000000000002 L 238.20000000000002 211 L 248.60000000000002 213.60000000000002 L 259 215.8 L 269.40000000000003 217.8 L 279.8 219.4 L 290.2 220.8 L 300.6 222.20000000000002 L 311 223.20000000000002 L 321.40000000000003 224.20000000000002 L 332 225 L 342.40000000000003 225.8 L 352.8 226.20000000000002 L 363.20000000000005 226.8 L 373.6 227.4 L 384 227.8 L 394.40000000000003 228.20000000000002 L 404.8 228.4 L 415.20000000000005 228.20000000000002 L 425.6 228.8 L 436.20000000000005 229 L 446.6 229.20000000000002 L 457 229.4 L 467.40000000000003 229.4 L 477.8 229.60000000000002 L 488.20000000000005 229.60000000000002 L 498.6 229.8 L 509 229.8 L 519.4 230 L 529.8000000000001 230 "/></g><circle fill="black" r="3" display="none"/><g/><rect fill="white"/><text/><g><path fill="rgba(5,150,0,1)" stroke="rgba(5,150,0,1)" stroke-width="1" d="M 50.6 0 m -1 -1 l 2 0 l 0 2 l -2 0 z M 61 28.8 m -1 -1 l 2 0 l 0 2 l -2 0 z M 71.4 54.6 m -1 -1 l 2 0 l 0 2 l -2 0 z M 81.80000000000001 77.2 m -1 -1 l 2 0 l 0 2 l -2 0 z M 92.2 97 m -1 -1 l 2 0 l 0 2 l -2 0 z M 102.60000000000001 114 m -1 -1 l 2 0 l 0 2 l -2 0 z M 113 129.20000000000002 m -1 -1 l 2 0 l 0 2 l -2 0 z M 123.60000000000001 142.20000000000002 m -1 -1 l 2 0 l 0 2 l -2 0 z M 134 153.60000000000002 m -1 -1 l 2 0 l 0 2 l -2 0 z M 144.4 163.4 m -1 -1 l 2 0 l 0 2 l -2 0 z M 154.8 172.20000000000002 m -1 -1 l 2 0 l 0 2 l -2 0 z M 165.20000000000002 179.8 m -1 -1 l 2 0 l 0 2 l -2 0 z M 175.60000000000002 186.20000000000002 m -1 -1 l 2 0 l 0 2 l -2 0 z M 186 192 m -1 -1 l 2 0 l 0 2 l -2 0 z M 196.4 196.60000000000002 m -1 -1 l 2 0 l 0 2 l -2 0 z M 206.8 201.20000000000002 m -1 -1 l 2 0 l 0 2 l -2 0 z M 217.20000000000002 204.8 m -1 -1 l 2 0 l 0 2 l -2 0 z M 227.8 208.20000000000002 m -1 -1 l 2 0 l 0 2 l -2 0 z M 238.20000000000002 211 m -1 -1 l 2 0 l 0 2 l -2 0 z M 248.60000000000002 213.60000000000002 m -1 -1 l 2 0 l 0 2 l -2 0 z M 259 215.8 m -1 -1 l 2 0 l 0 2 l -2 0 z M 269.40000000000003 217.8 m -1 -1 l 2 0 l 0 2 l -2 0 z M 279.8 219.4 m -1 -1 l 2 0 l 0 2 l -2 0 z M 290.2 220.8 m -1 -1 l 2 0 l 0 2 l -2 0 z M 300.6 222.20000000000002 m -1 -1 l 2 0 l 0 2 l -2 0 z M 311 223.20000000000002 m -1 -1 l 2 0 l 0 2 l -2 0 z M 321.40000000000003 224.20000000000002 m -1 -1 l 2 0 l 0 2 l -2 0 z M 332 225 m -1 -1 l 2 0 l 0 2 l -2 0 z M 342.40000000000003 225.8 m -1 -1 l 2 0 l 0 2 l -2 0 z M 352.8 226.20000000000002 m -1 -1 l 2 0 l 0 2 l -2 0 z M 363.20000000000005 226.8 m -1 -1 l 2 0 l 0 2 l -2 0 z M 373.6 227.4 m -1 -1 l 2 0 l 0 2 l -2 0 z M 384 227.8 m -1 -1 l 2 0 l 0 2 l -2 0 z M 394.40000000000003 228.20000000000002 m -1 -1 l 2 0 l 0 2 l -2 0 z M 404.8 228.4 m -1 -1 l 2 0 l 0 2 l -2 0 z M 415.20000000000005 228.20000000000002 m -1 -1 l 2 0 l 0 2 l -2 0 z M 425.6 228.8 m -1 -1 l 2 0 l 0 2 l -2 0 z M 436.20000000000005 229 m -1 -1 l 2 0 l 0 2 l -2 0 z M 446.6 229.20000000000002 m -1 -1 l 2 0 l 0 2 l -2 0 z M 457 229.4 m -1 -1 l 2 0 l 0 2 l -2 0 z M 467.40000000000003 229.4 m -1 -1 l 2 0 l 0 2 l -2 0 z M 477.8 229.60000000000002 m -1 -1 l 2 0 l 0 2 l -2 0 z M 488.20000000000005 229.60000000000002 m -1 -1 l 2 0 l 0 2 l -2 0 z M 498.6 229.8 m -1 -1 l 2 0 l 0 2 l -2 0 z M 509 229.8 m -1 -1 l 2 0 l 0 2 l -2 0 z M 519.4 230 m -1 -1 l 2 0 l 0 2 l -2 0 z M 529.8000000000001 230 m -1 -1 l 2 0 l 0 2 l -2 0 z "/></g></g><g><g><path stroke="rgba(2,1,255,1)" stroke-width="0.0001" fill="none" d="M 50.6 184.60000000000002 L 61 192 L 71.4 197.8 L 81.80000000000001 202.60000000000002 L 92.2 206.8 L 102.60000000000001 210.60000000000002 L 113 213.8 L 123.60000000000001 216.60000000000002 L 134 219.20000000000002 L 144.4 221.20000000000002 L 154.8 223 L 165.20000000000002 224.60000000000002 L 175.60000000000002 226 L 186 227.20000000000002 L 196.4 228.20000000000002 L 206.8 229.20000000000002 L 217.20000000000002 230 L 227.8 230.60000000000002 L 238.20000000000002 231.20000000000002 L 248.60000000000002 231.8 L 259 232.20000000000002 L 269.40000000000003 232.60000000000002 L 279.8 233 L 290.2 233.20000000000002 L 300.6 233.4 L 311 233.60000000000002 L 321.40000000000003 233.8 L 332 234.20000000000002 L 342.40000000000003 234.20000000000002 L 352.8 234.4 L 363.20000000000005 234.4 L 373.6 234.60000000000002 L 384 234.60000000000002 L 394.40000000000003 234.60000000000002 L 404.8 234.4 L 415.20000000000005 235 L 425.6 234.8 L 436.20000000000005 234.8 L 446.6 235 L 457 235 L 467.40000000000003 235 L 477.8 235 L 488.20000000000005 235 L 498.6 235 L 509 235 L 519.4 235 L 529.8000000000001 235 "/></g><circle fill="black" r="3" display="none"/><g/><rect fill="white"/><text/><g><path fill="rgba(2,1,255,1)" stroke="rgba(2,1,255,1)" stroke-width="1" d="M 50.6 184.60000000000002 m -1 -1 l 2 0 l 0 2 l -2 0 z M 61 192 m -1 -1 l 2 0 l 0 2 l -2 0 z M 71.4 197.8 m -1 -1 l 2 0 l 0 2 l -2 0 z M 81.80000000000001 202.60000000000002 m -1 -1 l 2 0 l 0 2 l -2 0 z M 92.2 206.8 m -1 -1 l 2 0 l 0 2 l -2 0 z M 102.60000000000001 210.60000000000002 m -1 -1 l 2 0 l 0 2 l -2 0 z M 113 213.8 m -1 -1 l 2 0 l 0 2 l -2 0 z M 123.60000000000001 216.60000000000002 m -1 -1 l 2 0 l 0 2 l -2 0 z M 134 219.20000000000002 m -1 -1 l 2 0 l 0 2 l -2 0 z M 144.4 221.20000000000002 m -1 -1 l 2 0 l 0 2 l -2 0 z M 154.8 223 m -1 -1 l 2 0 l 0 2 l -2 0 z M 165.20000000000002 224.60000000000002 m -1 -1 l 2 0 l 0 2 l -2 0 z M 175.60000000000002 226 m -1 -1 l 2 0 l 0 2 l -2 0 z M 186 227.20000000000002 m -1 -1 l 2 0 l 0 2 l -2 0 z M 196.4 228.20000000000002 m -1 -1 l 2 0 l 0 2 l -2 0 z M 206.8 229.20000000000002 m -1 -1 l 2 0 l 0 2 l -2 0 z M 217.20000000000002 230 m -1 -1 l 2 0 l 0 2 l -2 0 z M 227.8 230.60000000000002 m -1 -1 l 2 0 l 0 2 l -2 0 z M 238.20000000000002 231.20000000000002 m -1 -1 l 2 0 l 0 2 l -2 0 z M 248.60000000000002 231.8 m -1 -1 l 2 0 l 0 2 l -2 0 z M 259 232.20000000000002 m -1 -1 l 2 0 l 0 2 l -2 0 z M 269.40000000000003 232.60000000000002 m -1 -1 l 2 0 l 0 2 l -2 0 z M 279.8 233 m -1 -1 l 2 0 l 0 2 l -2 0 z M 290.2 233.20000000000002 m -1 -1 l 2 0 l 0 2 l -2 0 z M 300.6 233.4 m -1 -1 l 2 0 l 0 2 l -2 0 z M 311 233.60000000000002 m -1 -1 l 2 0 l 0 2 l -2 0 z M 321.40000000000003 233.8 m -1 -1 l 2 0 l 0 2 l -2 0 z M 332 234.20000000000002 m -1 -1 l 2 0 l 0 2 l -2 0 z M 342.40000000000003 234.20000000000002 m -1 -1 l 2 0 l 0 2 l -2 0 z M 352.8 234.4 m -1 -1 l 2 0 l 0 2 l -2 0 z M 363.20000000000005 234.4 m -1 -1 l 2 0 l 0 2 l -2 0 z M 373.6 234.60000000000002 m -1 -1 l 2 0 l 0 2 l -2 0 z M 384 234.60000000000002 m -1 -1 l 2 0 l 0 2 l -2 0 z M 394.40000000000003 234.60000000000002 m -1 -1 l 2 0 l 0 2 l -2 0 z M 404.8 234.4 m -1 -1 l 2 0 l 0 2 l -2 0 z M 415.20000000000005 235 m -1 -1 l 2 0 l 0 2 l -2 0 z M 425.6 234.8 m -1 -1 l 2 0 l 0 2 l -2 0 z M 436.20000000000005 234.8 m -1 -1 l 2 0 l 0 2 l -2 0 z M 446.6 235 m -1 -1 l 2 0 l 0 2 l -2 0 z M 457 235 m -1 -1 l 2 0 l 0 2 l -2 0 z M 467.40000000000003 235 m -1 -1 l 2 0 l 0 2 l -2 0 z M 477.8 235 m -1 -1 l 2 0 l 0 2 l -2 0 z M 488.20000000000005 235 m -1 -1 l 2 0 l 0 2 l -2 0 z M 498.6 235 m -1 -1 l 2 0 l 0 2 l -2 0 z M 509 235 m -1 -1 l 2 0 l 0 2 l -2 0 z M 519.4 235 m -1 -1 l 2 0 l 0 2 l -2 0 z M 529.8000000000001 235 m -1 -1 l 2 0 l 0 2 l -2 0 z "/></g></g><g><g><path stroke="rgba(255,253,11,0.4)" stroke-width="3" fill="none" d="M 50.6 0.2 L 50.6 0.4 L 50.800000000000004 0.6000000000000001 L 50.800000000000004 1 L 50.800000000000004 1.2000000000000002 L 51 1.4000000000000001 L 51 1.6 L 51.2 2 L 51.2 2.2 L 51.400000000000006 2.4000000000000004 L 51.400000000000006 2.6 L 51.400000000000006 2.8000000000000003 L 51.6 3.2 L 51.6 3.4000000000000004 L 51.800000000000004 3.6 L 51.800000000000004 3.8000000000000003 L 51.800000000000004 4.2 L 52 4.4 L 52 4.6000000000000005 L 52.2 4.800000000000001 L 52.2 5 L 52.400000000000006 5.4 L 52.400000000000006 5.6000000000000005 L 52.400000000000006 5.800000000000001 L 52.6 6 L 52.6 6.2 L 52.800000000000004 6.6000000000000005 L 52.800000000000004 6.800000000000001 L 53 7 L 53 7.2 L 53 7.4 L 53.2 7.800000000000001 L 53.2 8 L 53.400000000000006 8.200000000000001 L 53.400000000000006 8.4 L 53.400000000000006 8.6 L 53.6 9 L 53.6 9.200000000000001 L 53.800000000000004 9.4 L 53.800000000000004 9.600000000000001 L 54 9.8 L 54 10.200000000000001 L 54 10.4 L 54.2 10.600000000000001 L 54.2 10.8 L 54.400000000000006 11 L 54.400000000000006 11.4 L 54.400000000000006 11.600000000000001 L 54.6 11.8 L 54.6 12 L 54.800000000000004 12.200000000000001 L 54.800000000000004 12.4 L 55 12.8 L 55 13 L 55 13.200000000000001 L 55.2 13.4 L 55.2 13.600000000000001 L 55.400000000000006 13.8 L 55.400000000000006 14.200000000000001 L 55.400000000000006 14.4 L 55.6 14.600000000000001 L 55.6 14.8 L 55.800000000000004 15 L 55.800000000000004 15.200000000000001 L 56 15.600000000000001 L 56 15.8 L 56 16 L 56.2 16.2 L 56.2 16.400000000000002 L 56.400000000000006 16.6 L 56.400000000000006 16.8 L 56.400000000000006 17.2 L 56.6 17.400000000000002 L 56.6 17.6 L 56.800000000000004 17.8 L 56.800000000000004 18 L 57 18.2 L 57 18.6 L 57 18.8 L 57.2 19 L 57.2 19.200000000000003 L 57.400000000000006 19.400000000000002 L 57.400000000000006 19.6 L 57.400000000000006 19.8 L 57.6 20 L 57.6 20.400000000000002 L 57.800000000000004 20.6 L 57.800000000000004 20.8 L 58 21 L 58 21.200000000000003 L 58 21.400000000000002 L 58.2 21.6 L 58.2 22 L 58.400000000000006 22.200000000000003 L 58.400000000000006 22.400000000000002 L 58.400000000000006 22.6 L 58.6 22.8 L 58.6 23 L 58.800000000000004 23.200000000000003 L 58.800000000000004 23.400000000000002 L 59 23.6 L 59 24 L 59 24.200000000000003 L 59.2 24.400000000000002 L 59.2 24.6 L 59.400000000000006 24.8 L 59.400000000000006 25 L 59.400000000000006 25.200000000000003 L 59.6 25.400000000000002 L 59.6 25.6 L 59.800000000000004 26 L 59.800000000000004 26.200000000000003 L 60 26.400000000000002 L 60 26.6 L 60 26.8 L 60.2 27 L 60.2 27.200000000000003 L 60.400000000000006 27.400000000000002 L 60.400000000000006 27.6 L 60.400000000000006 27.8 L 60.6 28.200000000000003 L 60.6 28.400000000000002 L 60.800000000000004 28.6 L 60.800000000000004 28.8 L 61 29 L 61 29.200000000000003 L 61 29.400000000000002 L 61.2 29.6 L 61.2 29.8 L 61.400000000000006 30 L 61.400000000000006 30.200000000000003 L 61.400000000000006 30.400000000000002 L 61.6 30.8 L 61.6 31 L 61.800000000000004 31.200000000000003 L 61.800000000000004 31.400000000000002 L 62 31.6 L 62 31.8 L 62 32 L 62.2 32.2 L 62.2 32.4 L 62.400000000000006 32.6 L 62.400000000000006 32.800000000000004 L 62.400000000000006 33 L 62.6 33.2 L 62.6 33.4 L 62.800000000000004 33.800000000000004 L 62.800000000000004 34 L 63 34.2 L 63 34.4 L 63 34.6 L 63.2 34.800000000000004 L 63.2 35 L 63.400000000000006 35.2 L 63.400000000000006 35.4 L 63.400000000000006 35.6 L 63.6 35.800000000000004 L 63.6 36 L 63.800000000000004 36.2 L 63.800000000000004 36.4 L 64 36.6 L 64 36.800000000000004 L 64 37 L 64.2 37.2 L 64.2 37.4 L 64.4 37.800000000000004 L 64.4 38 L 64.4 38.2 L 64.60000000000001 38.400000000000006 L 64.60000000000001 38.6 L 64.8 38.800000000000004 L 64.8 39 L 65 39.2 L 65 39.400000000000006 L 65 39.6 L 65.2 39.800000000000004 L 65.2 40 L 65.4 40.2 L 65.4 40.400000000000006 L 65.4 40.6 L 65.60000000000001 40.800000000000004 L 65.60000000000001 41 L 65.8 41.2 L 65.8 41.400000000000006 L 66 41.6 L 66 41.800000000000004 L 66 42 L 66.2 42.2 L 66.2 42.400000000000006 L 66.4 42.6 L 66.4 42.800000000000004 L 66.4 43 L 66.60000000000001 43.2 L 66.60000000000001 43.400000000000006 L 66.8 43.6 L 66.8 43.800000000000004 L 67 44 L 67 44.2 L 67 44.400000000000006 L 67.2 44.6 L 67.2 44.800000000000004 L 67.4 45 L 67.4 45.2 L 67.4 45.400000000000006 L 67.60000000000001 45.6 L 67.60000000000001 45.800000000000004 L 67.8 46 L 67.8 46.2 L 68 46.400000000000006 L 68 46.6 L 68 46.800000000000004 L 68.2 47 L 68.2 47.2 L 68.4 47.400000000000006 L 68.4 47.6 L 68.4 47.800000000000004 L 68.60000000000001 48 L 68.60000000000001 48.2 L 68.8 48.400000000000006 L 68.8 48.6 L 69 48.800000000000004 L 69 49 L 69 49.2 L 69.2 49.400000000000006 L 69.2 49.6 L 69.4 49.800000000000004 L 69.4 50 L 69.4 50.2 L 69.60000000000001 50.400000000000006 L 69.60000000000001 50.6 L 69.8 50.800000000000004 L 69.8 51 L 70 51.2 L 70 51.400000000000006 L 70 51.6 L 70.2 51.800000000000004 L 70.2 52 L 70.4 52.2 L 70.4 52.400000000000006 L 70.4 52.6 L 70.60000000000001 52.800000000000004 L 70.60000000000001 53 L 70.8 53.2 L 70.8 53.400000000000006 L 71 53.6 L 71 53.800000000000004 L 71.2 54 L 71.2 54.2 L 71.4 54.400000000000006 L 71.4 54.6 L 71.4 54.800000000000004 L 71.60000000000001 55 L 71.60000000000001 55.2 L 71.8 55.400000000000006 L 71.8 55.6 L 72 55.800000000000004 L 72 56 L 72 56.2 L 72.2 56.400000000000006 L 72.2 56.6 L 72.4 56.800000000000004 L 72.4 57 L 72.4 57.2 L 72.60000000000001 57.400000000000006 L 72.8 57.6 L 72.8 57.800000000000004 L 73 58 L 73 58.2 L 73 58.400000000000006 L 73.2 58.6 L 73.2 58.800000000000004 L 73.4 59 L 73.4 59.2 L 73.4 59.400000000000006 L 73.60000000000001 59.6 L 73.60000000000001 59.800000000000004 L 73.8 60 L 73.8 60.2 L 74 60.2 L 74 60.400000000000006 L 74 60.6 L 74.2 60.800000000000004 L 74.2 61 L 74.4 61.2 L 74.4 61.400000000000006 L 74.4 61.6 L 74.60000000000001 61.800000000000004 L 74.60000000000001 62 L 74.8 62.2 L 74.8 62.400000000000006 L 75 62.400000000000006 L 75 62.6 L 75 62.800000000000004 L 75.2 63 L 75.2 63.2 L 75.4 63.400000000000006 L 75.4 63.6 L 75.4 63.800000000000004 L 75.60000000000001 64 L 75.60000000000001 64.2 L 75.8 64.4 L 76 64.60000000000001 L 76 64.8 L 76 65 L 76.2 65.2 L 76.2 65.4 L 76.4 65.60000000000001 L 76.4 65.8 L 76.4 66 L 76.60000000000001 66.2 L 76.80000000000001 66.4 L 76.80000000000001 66.60000000000001 L 77 66.8 L 77 67 L 77 67.2 L 77.2 67.4 L 77.2 67.60000000000001 L 77.4 67.8 L 77.4 68 L 77.60000000000001 68.2 L 77.60000000000001 68.4 L 77.80000000000001 68.60000000000001 L 77.80000000000001 68.8 L 78 69 L 78 69.2 L 78.2 69.4 L 78.2 69.60000000000001 L 78.4 69.8 L 78.4 70 L 78.4 70.2 L 78.60000000000001 70.4 L 78.60000000000001 70.60000000000001 L 78.80000000000001 70.60000000000001 L 78.80000000000001 70.8 L 79 71 L 79 71.2 L 79 71.4 L 79.2 71.60000000000001 L 79.2 71.8 L 79.4 72 L 79.4 72.2 L 79.60000000000001 72.4 L 79.60000000000001 72.60000000000001 L 79.80000000000001 72.8 L 79.80000000000001 73 L 80 73.2 L 80 73.4 L 80.2 73.60000000000001 L 80.2 73.8 L 80.4 74 L 80.4 74.2 L 80.4 74.4 L 80.60000000000001 74.4 L 80.60000000000001 74.60000000000001 L 80.80000000000001 74.8 L 80.80000000000001 75 L 81 75.2 L 81 75.4 L 81.2 75.60000000000001 L 81.2 75.8 L 81.4 76 L 81.4 76.2 L 81.4 76.4 L 81.60000000000001 76.60000000000001 L 81.80000000000001 76.80000000000001 L 81.80000000000001 77 L 82 77.2 L 82 77.4 L 82 77.60000000000001 L 82.2 77.60000000000001 L 82.2 77.80000000000001 L 82.4 78 L 82.4 78.2 L 82.4 78.4 L 82.60000000000001 78.60000000000001 L 82.80000000000001 78.80000000000001 L 82.80000000000001 79 L 83 79.2 L 83 79.4 L 83 79.60000000000001 L 83.2 79.60000000000001 L 83.2 79.80000000000001 L 83.4 80 L 83.4 80.2 L 83.4 80.4 L 83.60000000000001 80.4 L 83.60000000000001 80.60000000000001 L 83.80000000000001 80.80000000000001 L 83.80000000000001 81 L 84 81.2 L 84 81.4 L 84.2 81.60000000000001 L 84.2 81.80000000000001 L 84.4 82 L 84.4 82.2 L 84.60000000000001 82.4 L 84.60000000000001 82.60000000000001 L 84.80000000000001 82.80000000000001 L 84.80000000000001 83 L 85 83 L 85 83.2 L 85 83.4 L 85.2 83.60000000000001 L 85.2 83.80000000000001 L 85.4 83.80000000000001 L 85.4 84 L 85.4 84.2 L 85.60000000000001 84.4 L 85.60000000000001 84.60000000000001 L 85.80000000000001 84.60000000000001 L 85.80000000000001 84.80000000000001 L 86 85 L 86 85.2 L 86 85.4 L 86.2 85.4 L 86.2 85.60000000000001 L 86.4 85.80000000000001 L 86.4 86 L 86.4 86.2 L 86.60000000000001 86.2 L 86.60000000000001 86.4 L 86.80000000000001 86.60000000000001 L 86.80000000000001 86.80000000000001 L 87 87 L 87 87.2 L 87.2 87.4 L 87.2 87.60000000000001 L 87.4 87.60000000000001 L 87.4 87.80000000000001 L 87.4 88 L 87.60000000000001 88.2 L 87.60000000000001 88.4 L 87.80000000000001 88.4 L 87.80000000000001 88.60000000000001 L 88 88.80000000000001 L 88 89 L 88.2 89.2 L 88.2 89.4 L 88.4 89.60000000000001 L 88.4 89.80000000000001 L 88.60000000000001 90 L 88.60000000000001 90.2 L 88.80000000000001 90.4 L 89 90.60000000000001 L 89 90.80000000000001 L 89 91 L 89.2 91 L 89.2 91.2 L 89.4 91.4 L 89.4 91.60000000000001 L 89.4 91.80000000000001 L 89.60000000000001 91.80000000000001 L 89.60000000000001 92 L 89.80000000000001 92.2 L 89.80000000000001 92.4 L 90 92.4 L 90 92.60000000000001 L 90 92.80000000000001 L 90.2 93 L 90.4 93.2 L 90.4 93.4 L 90.4 93.60000000000001 L 90.60000000000001 93.60000000000001 L 90.60000000000001 93.80000000000001 L 90.80000000000001 94 L 90.80000000000001 94.2 L 91 94.2 L 91 94.4 L 91 94.60000000000001 L 91.2 94.80000000000001 L 91.4 95 L 91.4 95.2 L 91.4 95.4 L 91.60000000000001 95.4 L 91.60000000000001 95.60000000000001 L 91.80000000000001 95.80000000000001 L 91.80000000000001 96 L 92 96 L 92 96.2 L 92 96.4 L 92.2 96.4 L 92.2 96.60000000000001 L 92.4 96.80000000000001 L 92.4 97 L 92.60000000000001 97.2 L 92.60000000000001 97.4 L 92.80000000000001 97.60000000000001 L 93 97.80000000000001 L 93 98 L 93.2 98.2 L 93.2 98.4 L 93.4 98.60000000000001 L 93.4 98.80000000000001 L 93.60000000000001 99 L 93.60000000000001 99.2 L 93.80000000000001 99.2 L 93.80000000000001 99.4 L 94 99.60000000000001 L 94 99.80000000000001 L 94.2 100 L 94.2 100.2 L 94.4 100.2 L 94.4 100.4 L 94.4 100.60000000000001 L 94.60000000000001 100.60000000000001 L 94.60000000000001 100.80000000000001 L 94.80000000000001 101 L 94.80000000000001 101.2 L 95 101.2 L 95 101.4 L 95 101.60000000000001 L 95.2 101.60000000000001 L 95.2 101.80000000000001 L 95.4 102 L 95.4 102.2 L 95.60000000000001 102.4 L 95.60000000000001 102.60000000000001 L 95.80000000000001 102.60000000000001 L 95.80000000000001 102.80000000000001 L 96 103 L 96 103.2 L 96.2 103.4 L 96.2 103.60000000000001 L 96.4 103.60000000000001 L 96.4 103.80000000000001 L 96.4 104 L 96.60000000000001 104 L 96.60000000000001 104.2 L 96.80000000000001 104.4 L 97 104.60000000000001 L 97 104.80000000000001 L 97 105 L 97.2 105 L 97.2 105.2 L 97.4 105.4 L 97.4 105.60000000000001 L 97.60000000000001 105.80000000000001 L 97.80000000000001 106 L 97.80000000000001 106.2 L 98 106.2 L 98 106.4 L 98 106.60000000000001 L 98.2 106.60000000000001 L 98.2 106.80000000000001 L 98.4 107 L 98.4 107.2 L 98.60000000000001 107.4 L 98.60000000000001 107.60000000000001 L 98.80000000000001 107.60000000000001 L 98.80000000000001 107.80000000000001 L 99 108 L 99 108.2 L 99.2 108.4 L 99.4 108.60000000000001 L 99.4 108.80000000000001 L 99.60000000000001 108.80000000000001 L 99.60000000000001 109 L 99.60000000000001 109.2 L 99.80000000000001 109.2 L 99.80000000000001 109.4 L 100 109.60000000000001 L 100 109.80000000000001 L 100.2 110 L 100.4 110.2 L 100.4 110.4 L 100.60000000000001 110.4 L 100.60000000000001 110.60000000000001 L 100.60000000000001 110.80000000000001 L 100.80000000000001 110.80000000000001 L 100.80000000000001 111 L 101 111.2 L 101 111.4 L 101.2 111.60000000000001 L 101.4 111.80000000000001 L 101.4 112 L 101.60000000000001 112 L 101.60000000000001 112.2 L 101.60000000000001 112.4 L 101.80000000000001 112.4 L 101.80000000000001 112.60000000000001 L 102 112.60000000000001 L 102 112.80000000000001 L 102 113 L 102.2 113 L 102.2 113.2 L 102.4 113.4 L 102.60000000000001 113.60000000000001 L 102.60000000000001 113.80000000000001 L 102.80000000000001 114 L 102.80000000000001 114.2 L 103 114.2 L 103 114.4 L 103 114.60000000000001 L 103.2 114.60000000000001 L 103.2 114.80000000000001 L 103.4 114.80000000000001 L 103.4 115 L 103.60000000000001 115.2 L 103.60000000000001 115.4 L 103.80000000000001 115.60000000000001 L 104 115.80000000000001 L 104 116 L 104.2 116.2 L 104.4 116.4 L 104.4 116.60000000000001 L 104.60000000000001 116.60000000000001 L 104.60000000000001 116.80000000000001 L 104.60000000000001 117 L 104.80000000000001 117 L 104.80000000000001 117.2 L 105 117.2 L 105 117.4 L 105 117.60000000000001 L 105.2 117.60000000000001 L 105.2 117.80000000000001 L 105.4 118 L 105.60000000000001 118.2 L 105.60000000000001 118.4 L 105.80000000000001 118.60000000000001 L 106 118.80000000000001 L 106 119 L 106.2 119.2 L 106.4 119.4 L 106.4 119.60000000000001 L 106.60000000000001 119.60000000000001 L 106.60000000000001 119.80000000000001 L 106.60000000000001 120 L 106.80000000000001 120 L 106.80000000000001 120.2 L 107 120.2 L 107 120.4 L 107 120.60000000000001 L 107.2 120.60000000000001 L 107.2 120.80000000000001 L 107.4 120.80000000000001 L 107.4 121 L 107.60000000000001 121.2 L 107.60000000000001 121.4 L 107.80000000000001 121.4 L 107.80000000000001 121.60000000000001 L 108 121.80000000000001 L 108 122 L 108.2 122 L 108.2 122.2 L 108.4 122.4 L 108.60000000000001 122.60000000000001 L 108.60000000000001 122.80000000000001 L 108.80000000000001 123 L 109 123.2 L 109 123.4 L 109.2 123.60000000000001 L 109.4 123.80000000000001 L 109.60000000000001 124 L 109.60000000000001 124.2 L 109.80000000000001 124.4 L 110 124.60000000000001 L 110 124.80000000000001 L 110.2 125 L 110.4 125.2 L 110.4 125.4 L 110.60000000000001 125.4 L 110.60000000000001 125.60000000000001 L 110.80000000000001 125.80000000000001 L 111 126 L 111 126.2 L 111.2 126.4 L 111.4 126.60000000000001 L 111.60000000000001 126.80000000000001 L 111.60000000000001 127 L 111.80000000000001 127.2 L 112 127.4 L 112 127.60000000000001 L 112.2 127.80000000000001 L 112.4 128 L 112.60000000000001 128.20000000000002 L 112.60000000000001 128.4 L 112.80000000000001 128.6 L 113 128.8 L 113 129 L 113.2 129 L 113.2 129.20000000000002 L 113.4 129.4 L 113.60000000000001 129.6 L 113.60000000000001 129.8 L 113.80000000000001 129.8 L 113.80000000000001 130 L 114 130.20000000000002 L 114 130.4 L 114.2 130.4 L 114.2 130.6 L 114.4 130.6 L 114.4 130.8 L 114.60000000000001 130.8 L 114.60000000000001 131 L 114.60000000000001 131.20000000000002 L 114.80000000000001 131.20000000000002 L 114.80000000000001 131.4 L 115 131.4 L 115 131.6 L 115.2 131.8 L 115.4 132 L 115.4 132.20000000000002 L 115.60000000000001 132.20000000000002 L 115.60000000000001 132.4 L 115.80000000000001 132.6 L 116 132.8 L 116 133 L 116.2 133 L 116.2 133.20000000000002 L 116.4 133.4 L 116.60000000000001 133.6 L 116.60000000000001 133.8 L 116.80000000000001 133.8 L 116.80000000000001 134 L 117 134 L 117 134.20000000000002 L 117.2 134.4 L 117.2 134.6 L 117.4 134.6 L 117.4 134.8 L 117.60000000000001 134.8 L 117.60000000000001 135 L 117.80000000000001 135.20000000000002 L 118 135.4 L 118 135.6 L 118.2 135.6 L 118.2 135.8 L 118.4 135.8 L 118.4 136 L 118.60000000000001 136.20000000000002 L 118.60000000000001 136.4 L 118.80000000000001 136.4 L 118.80000000000001 136.6 L 119 136.6 L 119 136.8 L 119.2 137 L 119.4 137.20000000000002 L 119.60000000000001 137.4 L 119.60000000000001 137.6 L 119.80000000000001 137.6 L 119.80000000000001 137.8 L 120 137.8 L 120 138 L 120.2 138.20000000000002 L 120.2 138.4 L 120.4 138.4 L 120.4 138.6 L 120.60000000000001 138.6 L 120.60000000000001 138.8 L 120.80000000000001 139 L 121 139.20000000000002 L 121 139.4 L 121.2 139.4 L 121.2 139.6 L 121.4 139.6 L 121.4 139.8 L 121.60000000000001 139.8 L 121.60000000000001 140 L 121.80000000000001 140.20000000000002 L 122 140.4 L 122 140.6 L 122.2 140.6 L 122.2 140.8 L 122.4 140.8 L 122.4 141 L 122.60000000000001 141 L 122.60000000000001 141.20000000000002 L 122.80000000000001 141.4 L 123 141.6 L 123 141.8 L 123.2 141.8 L 123.2 142 L 123.4 142 L 123.4 142.20000000000002 L 123.60000000000001 142.20000000000002 L 123.60000000000001 142.4 L 123.80000000000001 142.6 L 124 142.8 L 124 143 L 124.2 143 L 124.2 143.20000000000002 L 124.4 143.20000000000002 L 124.4 143.4 L 124.60000000000001 143.4 L 124.60000000000001 143.6 L 124.80000000000001 143.8 L 125 144 L 125 144.20000000000002 L 125.2 144.20000000000002 L 125.2 144.4 L 125.4 144.4 L 125.4 144.6 L 125.60000000000001 144.6 L 125.60000000000001 144.8 L 125.80000000000001 145 L 126 145.20000000000002 L 126.2 145.4 L 126.4 145.6 L 126.60000000000001 145.8 L 126.60000000000001 146 L 126.80000000000001 146 L 126.80000000000001 146.20000000000002 L 127 146.20000000000002 L 127 146.4 L 127.2 146.6 L 127.4 146.8 L 127.60000000000001 147 L 127.60000000000001 147.20000000000002 L 127.80000000000001 147.20000000000002 L 128 147.4 L 128 147.6 L 128.20000000000002 147.6 L 128.20000000000002 147.8 L 128.4 147.8 L 128.4 148 L 128.6 148 L 128.6 148.20000000000002 L 128.8 148.4 L 129 148.6 L 129.20000000000002 148.8 L 129.4 149 L 129.6 149.20000000000002 L 129.6 149.4 L 129.8 149.4 L 129.8 149.6 L 130 149.6 L 130 149.8 L 130.20000000000002 149.8 L 130.20000000000002 150 L 130.4 150 L 130.4 150.20000000000002 L 130.6 150.20000000000002 L 130.6 150.4 L 130.8 150.6 L 131 150.8 L 131.20000000000002 151 L 131.4 151.20000000000002 L 131.6 151.4 L 131.6 151.6 L 131.8 151.6 L 131.8 151.8 L 132 151.8 L 132 152 L 132.20000000000002 152 L 132.20000000000002 152.20000000000002 L 132.4 152.20000000000002 L 132.4 152.4 L 132.6 152.4 L 132.6 152.6 L 132.8 152.6 L 132.8 152.8 L 133 152.8 L 133 153 L 133.20000000000002 153.20000000000002 L 133.4 153.4 L 133.6 153.4 L 133.6 153.60000000000002 L 133.8 153.8 "/></g><circle fill="black" r="3" display="none"/><g/><rect fill="white"/><text/><g/></g></g><g><g clip-path="url(#_clipplota40b54ac-453b-4e50-9910-9b97ead7ffaf)"><rect data-label-i="0" display="initial"/><text data-label-i="0" display="initial"/></g><g clip-path="url(#_clipplota40b54ac-453b-4e50-9910-9b97ead7ffaf)"><rect data-label-i="0" display="initial"/><text data-label-i="0" display="initial"/></g><g clip-path="url(#_clipplota40b54ac-453b-4e50-9910-9b97ead7ffaf)"><rect data-label-i="0" display="initial"/><text data-label-i="0" display="initial"/></g><g clip-path="url(#_clipplota40b54ac-453b-4e50-9910-9b97ead7ffaf)"><rect data-label-i="0" display="initial"/><text data-label-i="0" display="initial"/></g></g></g></g><line stroke="black" shape-rendering="crispEdges" stroke-linecap="square" display="none"/><line stroke="black" shape-rendering="crispEdges" stroke-linecap="square" display="none"/><line stroke="black" shape-rendering="crispEdges" stroke-linecap="square" display="none"/><line stroke="black" shape-rendering="crispEdges" stroke-linecap="square" display="none"/></g><g><rect display="none" fill="rgba(171,12,12,0.2)" stroke="rgba(171,12,12,1)" shape-rendering="crispEdges" x="0" y="0" height="0" width="0" pointer-events="none"/></g></g><g display="block" transform="translate(99, 306.92432403564453)"><rect x="-5" y="-8.109375" stroke="rgba( 100, 100, 100, 0.5 )" stroke-width="1px" rx="0" ry="0" fill="rgba( 255, 255, 255, 0.8 )" width="422.578125" height="37.18505096435547"/><symbol id="3fb6c62a-93bf-43d5-8fcb-74fa0812d1b5" viewBox="0 -256 1850 1850"><rect pointer-events="fill" x="-256" y="0" fill="transparent" width="2106" height="1850"/><g transform="matrix(1,0,0,-1,30.372881,1259.8983)"><path d="m 1664,576 q -152,236 -381,353 61,-104 61,-225 0,-185 -131.5,-316.5 Q 1081,256 896,256 711,256 579.5,387.5 448,519 448,704 448,825 509,929 280,812 128,576 261,371 461.5,249.5 662,128 896,128 1130,128 1330.5,249.5 1531,371 1664,576 z M 944,960 q 0,20 -14,34 -14,14 -34,14 -125,0 -214.5,-89.5 Q 592,829 592,704 q 0,-20 14,-34 14,-14 34,-14 20,0 34,14 14,14 14,34 0,86 61,147 61,61 147,61 20,0 34,14 14,14 14,34 z m 848,-384 q 0,-34 -20,-69 Q 1632,277 1395.5,138.5 1159,0 896,0 633,0 396.5,139 160,278 20,507 0,542 0,576 q 0,34 20,69 140,229 376.5,368 236.5,139 499.5,139 263,0 499.5,-139 236.5,-139 376.5,-368 20,-35 20,-69 z" fill="#444444"/></g></symbol><symbol id="a1c79452-2b2c-4f8d-b0ef-5ab9d0107258" viewBox="0 -256 1850 1850"><rect pointer-events="fill" fill="transparent" x="-256" y="0" width="2106" height="1850"/><g transform="matrix(1,0,0,-1,30.372881,1214.339)"><path d="m 555,201 78,141 q -87,63 -136,159 -49,96 -49,203 0,121 61,225 Q 280,812 128,576 295,318 555,201 z m 389,759 q 0,20 -14,34 -14,14 -34,14 -125,0 -214.5,-89.5 Q 592,829 592,704 q 0,-20 14,-34 14,-14 34,-14 20,0 34,14 14,14 14,34 0,86 61,147 61,61 147,61 20,0 34,14 14,14 14,34 z m 363,191 q 0,-7 -1,-9 Q 1201,954 991,576 781,198 675,9 l -49,-89 q -10,-16 -28,-16 -12,0 -134,70 -16,10 -16,28 0,12 44,87 Q 349,154 228.5,262 108,370 20,507 0,538 0,576 q 0,38 20,69 153,235 380,371 227,136 496,136 89,0 180,-17 l 54,97 q 10,16 28,16 5,0 18,-6 13,-6 31,-15.5 18,-9.5 33,-18.5 15,-9 31.5,-18.5 16.5,-9.5 19.5,-11.5 16,-10 16,-27 z m 37,-447 Q 1344,565 1265,450.5 1186,336 1056,286 l 280,502 q 8,-45 8,-84 z m 448,-128 q 0,-35 -20,-69 Q 1733,443 1663,362 1513,190 1315.5,95 1118,0 896,0 l 74,132 q 212,18 392.5,137 180.5,119 301.5,307 -115,179 -282,294 l 63,112 q 95,-64 182.5,-153 87.5,-89 144.5,-184 20,-34 20,-69 z" fill="#c0c0c0"/></g></symbol><g><g transform="translate( 0, 10)"><rect x="5" y="-8.109375" width="67.3125" height="17.18505096435547" fill="none" pointer-events="fill"/><line stroke="rgba(255,1,9,1)" stroke-width="0.0001" fill="none" x1="5" x2="25" y1="0" y2="0" cursor="pointer"/><path fill="rgba(255,1,9,1)" stroke="rgba(255,1,9,1)" stroke-width="1" d="M 14 0 m -1 -1 l 2 0 l 0 2 l -2 0 z"/><use xlink:href="#3fb6c62a-93bf-43d5-8fcb-74fa0812d1b5" width="15" height="15" x="35" y="-8"/><text cursor="pointer" transform="translate(55, 3)" fill="black">red</text></g><g transform="translate( 77.3125, 10)"><rect x="5" y="-8.109375" width="80.65625" height="17.18505096435547" fill="none" pointer-events="fill"/><line stroke="rgba(5,150,0,1)" stroke-width="0.0001" fill="none" x1="5" x2="25" y1="0" y2="0" cursor="pointer"/><path fill="rgba(5,150,0,1)" stroke="rgba(5,150,0,1)" stroke-width="1" d="M 14 0 m -1 -1 l 2 0 l 0 2 l -2 0 z"/><use xlink:href="#3fb6c62a-93bf-43d5-8fcb-74fa0812d1b5" width="15" height="15" x="35" y="-8"/><text cursor="pointer" transform="translate(55, 3)" fill="black">green</text></g><g transform="translate( 167.96875, 10)"><rect x="5" y="-8.109375" width="72.65625" height="17.18505096435547" fill="none" pointer-events="fill"/><line stroke="rgba(2,1,255,1)" stroke-width="0.0001" fill="none" x1="5" x2="25" y1="0" y2="0" cursor="pointer"/><path fill="rgba(2,1,255,1)" stroke="rgba(2,1,255,1)" stroke-width="1" d="M 14 0 m -1 -1 l 2 0 l 0 2 l -2 0 z"/><use xlink:href="#3fb6c62a-93bf-43d5-8fcb-74fa0812d1b5" width="15" height="15" x="35" y="-8"/><text cursor="pointer" transform="translate(55, 3)" fill="black">blue</text></g><g transform="translate( 250.625, 10)"><rect x="5" y="-8.109375" width="151.953125" height="17.18505096435547" fill="none" pointer-events="fill"/><line stroke="rgba(255,253,11,0.4)" stroke-width="3" fill="none" x1="5" x2="25" y1="0" y2="0" cursor="pointer"/><use xlink:href="#3fb6c62a-93bf-43d5-8fcb-74fa0812d1b5" width="15" height="15" x="35" y="-8"/><text cursor="pointer" transform="translate(55, 3)" fill="black">regressionFunction</text></g></g><rect x="0" y="0" width="422.578125" height="37.18505096435547" fill="none" pointer-events="fill" display="none"/></g></svg>