<?xml version="1.0" standalone="no"?><!DOCTYPE svg PUBLIC "-//W3C//DTD SVG 1.1//EN" "http://www.w3.org/Graphics/SVG/1.1/DTD/svg11.dtd"><svg xmlns:xlink="http://www.w3.org/1999/xlink" xmlns="http://www.w3.org/2000/svg" font-family="Myriad Pro, Helvetica, Arial" font-size="12" data-jsgraph-version="v2.0.100" tabindex="0" width="570" height="346.020834"><defs><clipPath id="_clipplota40b54ac-453b-4e50-9910-9b97ead7ffaf" clipPathUnits="userSpaceOnUse"><rect y="0" x="50.66615867614746" width="479.33384132385254" height="236.8357830356445"/></clipPath><marker xmlns="" viewBox="0 0 10 10" id="arrowa40b54ac-453b-4e50-9910-9b97ead7ffaf" refX="6" refY="5" markerUnits="strokeWidth" markerWidth="8" markerHeight="6" orient="auto"><path xmlns="http://www.w3.org/2000/svg" d="M 0 0 L 10 5 L 0 10 z"/></marker><marker viewBox="0 0 6 8" id="horionzalsplit_a40b54ac-453b-4e50-9910-9b97ead7ffaf" refX="3" refY="4" markerUnits="strokeWidth" markerWidth="6" markerHeight="8"><line x1="0" y1="8" x2="6" y2="0" stroke="black"/></marker><marker viewBox="0 0 8 6" id="verticalsplit_a40b54ac-453b-4e50-9910-9b97ead7ffaf" refX="4" refY="3" markerUnits="strokeWidth" markerWidth="8" markerHeight="6"><line x1="0" y1="0" x2="8" y2="6" stroke="black"/></marker><marker viewBox="0 0 10 10" id="verticallinea40b54ac-453b-4e50-9910-9b97ead7ffaf" refX="0" refY="5" markerUnits="strokeWidth" markerWidth="20" markerHeight="10" orient="auto" stroke-width="1px"><path d="M 0 -10 L 0 10" stroke="black"/></marker></defs><g><rect pointer-events="fill" fill="transparent" y="30" x="70.66615867614746" width="479.33384132385254" height="236.8357830356445"/><text text-anchor="middle" y="20" x="285"/><g transform="translate(20, 30)"><g><g><g><path shape-rendering="crispEdges" stroke="#F0F0F0" stroke-width="1" stroke-opacity="undefined" clip-path="url(#_clipplota40b54ac-453b-4e50-9910-9b97ead7ffaf)" d="M 54.03829590551205 0 L 54.03829590551205 268.8357830356445M 64.38333291143675 0 L 64.38333291143675 268.8357830356445M 74.72836991736146 0 L 74.72836991736146 268.8357830356445M 85.07340692328617 0 L 85.07340692328617 268.8357830356445M 95.41844392921088 0 L 95.41844392921088 268.8357830356445M 105.76348093513558 0 L 105.76348093513558 268.8357830356445M 116.10851794106028 0 L 116.10851794106028 268.8357830356445M 126.453554946985 0 L 126.453554946985 268.8357830356445M 136.79859195290967 0 L 136.79859195290967 268.8357830356445M 157.4886659647591 0 L 157.4886659647591 268.8357830356445M 167.8337029706838 0 L 167.8337029706838 268.8357830356445M 178.17873997660848 0 L 178.17873997660848 268.8357830356445M 188.52377698253324 0 L 188.52377698253324 268.8357830356445M 198.86881398845793 0 L 198.86881398845793 268.8357830356445M 209.21385099438263 0 L 209.21385099438263 268.8357830356445M 219.55888800030732 0 L 219.55888800030732 268.8357830356445M 229.90392500623201 0 L 229.90392500623201 268.8357830356445M 240.24896201215674 0 L 240.24896201215674 268.8357830356445M 260.93903602400616 0 L 260.93903602400616 268.8357830356445M 271.2840730299308 0 L 271.2840730299308 268.8357830356445M 281.62911003585555 0 L 281.62911003585555 268.8357830356445M 291.97414704178027 0 L 291.97414704178027 268.8357830356445M 302.319184047705 0 L 302.319184047705 268.8357830356445M 312.66422105362966 0 L 312.66422105362966 268.8357830356445M 323.0092580595544 0 L 323.0092580595544 268.8357830356445M 333.3542950654791 0 L 333.3542950654791 268.8357830356445M 343.69933207140383 0 L 343.69933207140383 268.8357830356445M 364.3894060832532 0 L 364.3894060832532 268.8357830356445M 374.7344430891779 0 L 374.7344430891779 268.8357830356445M 385.0794800951026 0 L 385.0794800951026 268.8357830356445M 395.4245171010273 0 L 395.4245171010273 268.8357830356445M 405.769554106952 0 L 405.769554106952 268.8357830356445M 416.1145911128767 0 L 416.1145911128767 268.8357830356445M 426.4596281188014 0 L 426.4596281188014 268.8357830356445M 436.80466512472617 0 L 436.80466512472617 268.8357830356445M 447.14970213065084 0 L 447.14970213065084 268.8357830356445M 467.8397761425003 0 L 467.8397761425003 268.8357830356445M 478.18481314842495 0 L 478.18481314842495 268.8357830356445M 488.5298501543497 0 L 488.5298501543497 268.8357830356445M 498.87488716027434 0 L 498.87488716027434 268.8357830356445M 509.21992416619906 0 L 509.21992416619906 268.8357830356445M 519.5649611721237 0 L 519.5649611721237 268.8357830356445M 529.9099981780485 0 L 529.9099981780485 268.8357830356445"/><path shape-rendering="crispEdges" stroke="#F0F0F0" stroke-width="1" stroke-opacity="undefined" clip-path="url(#_clipplota40b54ac-453b-4e50-9910-9b97ead7ffaf)" d="M 0 236.55385023516925 L 530 236.55385023516925M 0 228.68015834476063 L 530 228.68015834476063M 0 220.806466454352 L 530 220.806466454352M 0 212.93277456394338 L 530 212.93277456394338M 0 205.05908267353476 L 530 205.05908267353476M 0 197.18539078312614 L 530 197.18539078312614M 0 189.31169889271752 L 530 189.31169889271752M 0 181.4380070023089 L 530 181.4380070023089M 0 173.56431511190027 L 530 173.56431511190027M 0 165.69062322149165 L 530 165.69062322149165M 0 157.81693133108303 L 530 157.81693133108303M 0 149.9432394406744 L 530 149.9432394406744M 0 142.06954755026578 L 530 142.06954755026578M 0 134.19585565985716 L 530 134.19585565985716M 0 126.32216376944854 L 530 126.32216376944854M 0 118.4484718790399 L 530 118.4484718790399M 0 110.57477998863126 L 530 110.57477998863126M 0 102.70108809822264 L 530 102.70108809822264M 0 94.82739620781402 L 530 94.82739620781402M 0 86.95370431740537 L 530 86.95370431740537M 0 71.20632053658818 L 530 71.20632053658818M 0 63.33262864617953 L 530 63.33262864617953M 0 55.45893675577091 L 530 55.45893675577091M 0 47.585244865362284 L 530 47.585244865362284M 0 39.711552974953605 L 530 39.711552974953605M 0 31.837861084544983 L 530 31.837861084544983M 0 23.96416919413636 L 530 23.96416919413636M 0 16.090477303727738 L 530 16.090477303727738M 0 8.216785413319087 L 530 8.216785413319087"/></g><g><path shape-rendering="crispEdges" stroke="#DADADA" stroke-width="1" stroke-opacity="undefined" clip-path="url(#_clipplota40b54ac-453b-4e50-9910-9b97ead7ffaf)" d="M 147.1436289588344 0 L 147.1436289588344 268.8357830356445M 250.59399901808146 0 L 250.59399901808146 268.8357830356445M 354.0443690773285 0 L 354.0443690773285 268.8357830356445M 457.49473913657556 0 L 457.49473913657556 268.8357830356445"/><path shape-rendering="crispEdges" stroke="#DADADA" stroke-width="1" stroke-opacity="undefined" clip-path="url(#_clipplota40b54ac-453b-4e50-9910-9b97ead7ffaf)" d="M 0 236.55385023516925 L 530 236.55385023516925M 0 157.81693133108303 L 530 157.81693133108303M 0 79.0800124269968 L 530 79.0800124269968M 0 0.34309352291052164 L 530 0.34309352291052164"/></g></g><g transform="translate(0 236.8357830356445)"><rect pointer-events="fill" fill="transparent"/><g><line y1="0" y2="-2" stroke="black" display="visible" x1="54.03829590551205" x2="54.03829590551205"/><line y1="0" y2="-2" stroke="black" display="visible" x1="64.38333291143675" x2="64.38333291143675"/><line y1="0" y2="-2" stroke="black" display="visible" x1="74.72836991736146" x2="74.72836991736146"/><line y1="0" y2="-2" stroke="black" display="visible" x1="85.07340692328617" x2="85.07340692328617"/><line y1="0" y2="-4" stroke="black" display="visible" x1="95.41844392921088" x2="95.41844392921088"/><line y1="0" y2="-2" stroke="black" display="visible" x1="105.76348093513558" x2="105.76348093513558"/><line y1="0" y2="-2" stroke="black" display="visible" x1="116.10851794106028" x2="116.10851794106028"/><line y1="0" y2="-2" stroke="black" display="visible" x1="126.453554946985" x2="126.453554946985"/><line y1="0" y2="-2" stroke="black" display="visible" x1="136.79859195290967" x2="136.79859195290967"/><line y1="0" y2="-2" stroke="black" display="visible" x1="157.4886659647591" x2="157.4886659647591"/><line y1="0" y2="-2" stroke="black" display="visible" x1="167.8337029706838" x2="167.8337029706838"/><line y1="0" y2="-2" stroke="black" display="visible" x1="178.17873997660848" x2="178.17873997660848"/><line y1="0" y2="-2" stroke="black" display="visible" x1="188.52377698253324" x2="188.52377698253324"/><line y1="0" y2="-4" stroke="black" display="visible" x1="198.86881398845793" x2="198.86881398845793"/><line y1="0" y2="-2" stroke="black" display="visible" x1="209.21385099438263" x2="209.21385099438263"/><line y1="0" y2="-2" stroke="black" display="visible" x1="219.55888800030732" x2="219.55888800030732"/><line y1="0" y2="-2" stroke="black" display="visible" x1="229.90392500623201" x2="229.90392500623201"/><line y1="0" y2="-2" stroke="black" display="visible" x1="240.24896201215674" x2="240.24896201215674"/><line y1="0" y2="-6" stroke="black" display="visible" x1="147.1436289588344" x2="147.1436289588344"/><line y1="0" y2="-2" stroke="black" display="visible" x1="260.93903602400616" x2="260.93903602400616"/><line y1="0" y2="-2" stroke="black" display="visible" x1="271.2840730299308" x2="271.2840730299308"/><line y1="0" y2="-2" stroke="black" display="visible" x1="281.62911003585555" x2="281.62911003585555"/><line y1="0" y2="-2" stroke="black" display="visible" x1="291.97414704178027" x2="291.97414704178027"/><line y1="0" y2="-4" stroke="black" display="visible" x1="302.319184047705" x2="302.319184047705"/><line y1="0" y2="-2" stroke="black" display="visible" x1="312.66422105362966" x2="312.66422105362966"/><line y1="0" y2="-2" stroke="black" display="visible" x1="323.0092580595544" x2="323.0092580595544"/><line y1="0" y2="-2" stroke="black" display="visible" x1="333.3542950654791" x2="333.3542950654791"/><line y1="0" y2="-2" stroke="black" display="visible" x1="343.69933207140383" x2="343.69933207140383"/><line y1="0" y2="-6" stroke="black" display="visible" x1="250.59399901808146" x2="250.59399901808146"/><line y1="0" y2="-2" stroke="black" display="visible" x1="364.3894060832532" x2="364.3894060832532"/><line y1="0" y2="-2" stroke="black" display="visible" x1="374.7344430891779" x2="374.7344430891779"/><line y1="0" y2="-2" stroke="black" display="visible" x1="385.0794800951026" x2="385.0794800951026"/><line y1="0" y2="-2" stroke="black" display="visible" x1="395.4245171010273" x2="395.4245171010273"/><line y1="0" y2="-4" stroke="black" display="visible" x1="405.769554106952" x2="405.769554106952"/><line y1="0" y2="-2" stroke="black" display="visible" x1="416.1145911128767" x2="416.1145911128767"/><line y1="0" y2="-2" stroke="black" display="visible" x1="426.4596281188014" x2="426.4596281188014"/><line y1="0" y2="-2" stroke="black" display="visible" x1="436.80466512472617" x2="436.80466512472617"/><line y1="0" y2="-2" stroke="black" display="visible" x1="447.14970213065084" x2="447.14970213065084"/><line y1="0" y2="-6" stroke="black" display="visible" x1="354.0443690773285" x2="354.0443690773285"/><line y1="0" y2="-2" stroke="black" display="visible" x1="467.8397761425003" x2="467.8397761425003"/><line y1="0" y2="-2" stroke="black" display="visible" x1="478.18481314842495" x2="478.18481314842495"/><line y1="0" y2="-2" stroke="black" display="visible" x1="488.5298501543497" x2="488.5298501543497"/><line y1="0" y2="-2" stroke="black" display="visible" x1="498.87488716027434" x2="498.87488716027434"/><line y1="0" y2="-4" stroke="black" display="visible" x1="509.21992416619906" x2="509.21992416619906"/><line y1="0" y2="-2" stroke="black" display="visible" x1="519.5649611721237" x2="519.5649611721237"/><line y1="0" y2="-6" stroke="black" display="visible" x1="457.49473913657556" x2="457.49473913657556"/><line y1="0" y2="-6" stroke="black" display="none" x1="321.1567318578343" x2="321.1567318578343"/><line y1="0" y2="-2" stroke="black" display="visible" x1="529.9099981780485" x2="529.9099981780485"/><line y1="0" y2="-2" stroke="black" display="none" x1="309.95975204938907" x2="309.95975204938907"/><line y1="0" y2="-2" stroke="black" display="none" x1="315.55824195361157" x2="315.55824195361157"/><line y1="0" y2="-2" stroke="black" display="none" x1="321.15673185783413" x2="321.15673185783413"/><line y1="0" y2="-2" stroke="black" display="none" x1="326.75522176205686" x2="326.75522176205686"/><line y1="0" y2="-2" stroke="black" display="none" x1="332.35371166627937" x2="332.35371166627937"/><line y1="0" y2="-2" stroke="black" display="none" x1="337.9522015705019" x2="337.9522015705019"/><line y1="0" y2="-2" stroke="black" display="none" x1="343.55069147472443" x2="343.55069147472443"/><line y1="0" y2="-4" stroke="black" display="none" x1="349.14918137894693" x2="349.14918137894693"/><line y1="0" y2="-2" stroke="black" display="none" x1="354.7476712831695" x2="354.7476712831695"/><line y1="0" y2="-2" stroke="black" display="none" x1="360.346161187392" x2="360.346161187392"/><line y1="0" y2="-2" stroke="black" display="none" x1="365.9446510916145" x2="365.9446510916145"/><line y1="0" y2="-2" stroke="black" display="none" x1="371.54314099583706" x2="371.54314099583706"/><line y1="0" y2="-2" stroke="black" display="none" x1="377.14163090005957" x2="377.14163090005957"/><line y1="0" y2="-2" stroke="black" display="none" x1="382.7401208042823" x2="382.7401208042823"/><line y1="0" y2="-2" stroke="black" display="none" x1="388.33861070850486" x2="388.33861070850486"/><line y1="0" y2="-2" stroke="black" display="none" x1="393.93710061272736" x2="393.93710061272736"/><line y1="0" y2="-2" stroke="black" display="none" x1="399.53559051694987" x2="399.53559051694987"/><line y1="0" y2="-4" stroke="black" display="none" x1="405.1340804211724" x2="405.1340804211724"/><line y1="0" y2="-2" stroke="black" display="none" x1="410.73257032539493" x2="410.73257032539493"/><line y1="0" y2="-2" stroke="black" display="none" x1="416.3310602296175" x2="416.3310602296175"/><line y1="0" y2="-2" stroke="black" display="none" x1="421.92955013384" x2="421.92955013384"/><line y1="0" y2="-2" stroke="black" display="none" x1="427.5280400380625" x2="427.5280400380625"/><line y1="0" y2="-2" stroke="black" display="none" x1="433.12652994228506" x2="433.12652994228506"/><line y1="0" y2="-6" stroke="black" display="none" x1="377.1416309000598" x2="377.1416309000598"/><line y1="0" y2="-2" stroke="black" display="none" x1="438.72501984650773" x2="438.72501984650773"/><line y1="0" y2="-2" stroke="black" display="none" x1="444.32350975073024" x2="444.32350975073024"/><line y1="0" y2="-2" stroke="black" display="none" x1="449.9219996549528" x2="449.9219996549528"/><line y1="0" y2="-2" stroke="black" display="none" x1="455.5204895591753" x2="455.5204895591753"/><line y1="0" y2="-4" stroke="black" display="none" x1="461.1189794633978" x2="461.1189794633978"/><line y1="0" y2="-2" stroke="black" display="none" x1="466.71746936762037" x2="466.71746936762037"/><line y1="0" y2="-2" stroke="black" display="none" x1="472.31595927184287" x2="472.31595927184287"/><line y1="0" y2="-2" stroke="black" display="none" x1="477.9144491760654" x2="477.9144491760654"/><line y1="0" y2="-2" stroke="black" display="none" x1="483.51293908028794" x2="483.51293908028794"/><line y1="0" y2="-2" stroke="black" display="none" x1="489.11142898451044" x2="489.11142898451044"/><line y1="0" y2="-6" stroke="black" display="none" x1="433.1265299422852" x2="433.1265299422852"/><line y1="0" y2="-2" stroke="black" display="none" x1="494.70991888873317" x2="494.70991888873317"/><line y1="0" y2="-2" stroke="black" display="none" x1="500.30840879295573" x2="500.30840879295573"/><line y1="0" y2="-2" stroke="black" display="none" x1="505.90689869717824" x2="505.90689869717824"/><line y1="0" y2="-2" stroke="black" display="none" x1="511.50538860140074" x2="511.50538860140074"/><line y1="0" y2="-4" stroke="black" display="none" x1="517.1038785056232" x2="517.1038785056232"/><line y1="0" y2="-2" stroke="black" display="none" x1="522.7023684098458" x2="522.7023684098458"/><line y1="0" y2="-2" stroke="black" display="none" x1="528.3008583140684" x2="528.3008583140684"/><line y1="0" y2="-6" stroke="black" display="none" x1="489.11142898451067" x2="489.11142898451067"/></g><g><text y="8" text-anchor="middle" display="visible" x="147.1436289588344" style="dominant-baseline: hanging;">5</text><text y="8" text-anchor="middle" display="visible" x="250.59399901808146" style="dominant-baseline: hanging;">10</text><text y="8" text-anchor="middle" display="visible" x="354.0443690773285" style="dominant-baseline: hanging;">15</text><text y="8" text-anchor="middle" display="visible" x="457.49473913657556" style="dominant-baseline: hanging;">20</text><text y="8" text-anchor="middle" display="none" x="321.1567318578343" style="dominant-baseline: hanging;">10</text><text y="8" text-anchor="middle" display="none" x="377.1416309000598" style="dominant-baseline: hanging;">12</text><text y="8" text-anchor="middle" display="none" x="433.1265299422852" style="dominant-baseline: hanging;">14</text><text y="8" text-anchor="middle" display="none" x="489.11142898451067" style="dominant-baseline: hanging;">16</text></g><line stroke="black" shape-rendering="crispEdges" stroke-linecap="square" display="block" x1="50.66615867614746" x2="530" y1="0" y2="0" marker-start="" marker-end=""/><text text-anchor="middle" fill="undefined" style="display: initial;" x="290.33307933807373" y="22"><tspan style="dominant-baseline: hanging;">Time [min]</tspan><tspan display="none" style="dominant-baseline: hanging;"/><tspan dx="6" display="none" style="dominant-baseline: hanging;"/><tspan dy="-5" font-size="0.8em" display="none" style="dominant-baseline: hanging;"/></text><g/></g><g transform="translate( 50.66615867614746 0 )"><rect pointer-events="fill" fill="transparent"/><g><line x1="0" x2="2" stroke="black" display="visible" y1="236.55385023516925" y2="236.55385023516925"/><line x1="0" x2="4" stroke="black" display="visible" y1="197.18539078312614" y2="197.18539078312614"/><line x1="0" x2="4" stroke="black" display="visible" y1="118.4484718790399" y2="118.4484718790399"/><line x1="0" x2="2" stroke="black" display="visible" y1="228.68015834476063" y2="228.68015834476063"/><line x1="0" x2="2" stroke="black" display="visible" y1="220.806466454352" y2="220.806466454352"/><line x1="0" x2="2" stroke="black" display="visible" y1="212.93277456394338" y2="212.93277456394338"/><line x1="0" x2="2" stroke="black" display="visible" y1="205.05908267353476" y2="205.05908267353476"/><line x1="0" x2="2" stroke="black" display="visible" y1="189.31169889271752" y2="189.31169889271752"/><line x1="0" x2="2" stroke="black" display="visible" y1="181.4380070023089" y2="181.4380070023089"/><line x1="0" x2="2" stroke="black" display="visible" y1="173.56431511190027" y2="173.56431511190027"/><line x1="0" x2="2" stroke="black" display="visible" y1="165.69062322149165" y2="165.69062322149165"/><line x1="0" x2="4" stroke="black" display="visible" y1="39.711552974953605" y2="39.711552974953605"/><line x1="0" x2="4" stroke="black" display="none" y1="23.121435292754484" y2="23.121435292754484"/><line x1="0" x2="2" stroke="black" display="visible" y1="157.81693133108303" y2="157.81693133108303"/><line x1="0" x2="2" stroke="black" display="visible" y1="149.9432394406744" y2="149.9432394406744"/><line x1="0" x2="2" stroke="black" display="visible" y1="142.06954755026578" y2="142.06954755026578"/><line x1="0" x2="2" stroke="black" display="visible" y1="134.19585565985716" y2="134.19585565985716"/><line x1="0" x2="6" stroke="black" display="visible" y1="236.55385023516925" y2="236.55385023516925"/><line x1="0" x2="2" stroke="black" display="visible" y1="126.32216376944854" y2="126.32216376944854"/><line x1="0" x2="2" stroke="black" display="visible" y1="110.57477998863126" y2="110.57477998863126"/><line x1="0" x2="2" stroke="black" display="visible" y1="102.70108809822264" y2="102.70108809822264"/><line x1="0" x2="2" stroke="black" display="visible" y1="94.82739620781402" y2="94.82739620781402"/><line x1="0" x2="4" stroke="black" display="none" y1="72.06606092157537" y2="72.06606092157537"/><line x1="0" x2="4" stroke="black" display="none" y1="64.70416112497043" y2="64.70416112497043"/><line x1="0" x2="2" stroke="black" display="visible" y1="86.95370431740537" y2="86.95370431740537"/><line x1="0" x2="2" stroke="black" display="visible" y1="71.20632053658818" y2="71.20632053658818"/><line x1="0" x2="2" stroke="black" display="visible" y1="63.33262864617953" y2="63.33262864617953"/><line x1="0" x2="2" stroke="black" display="visible" y1="55.45893675577091" y2="55.45893675577091"/><line x1="0" x2="6" stroke="black" display="visible" y1="157.81693133108303" y2="157.81693133108303"/><line x1="0" x2="2" stroke="black" display="visible" y1="47.585244865362284" y2="47.585244865362284"/><line x1="0" x2="2" stroke="black" display="visible" y1="31.837861084544983" y2="31.837861084544983"/><line x1="0" x2="2" stroke="black" display="visible" y1="23.96416919413636" y2="23.96416919413636"/><line x1="0" x2="4" stroke="black" display="none" y1="5.808962752130213" y2="5.808962752130213"/><line x1="0" x2="6" stroke="black" display="visible" y1="79.0800124269968" y2="79.0800124269968"/><line x1="0" x2="2" stroke="black" display="visible" y1="16.090477303727738" y2="16.090477303727738"/><line x1="0" x2="2" stroke="black" display="visible" y1="8.216785413319087" y2="8.216785413319087"/><line x1="0" x2="2" stroke="black" display="none" y1="47.52097010223241" y2="47.52097010223241"/><line x1="0" x2="2" stroke="black" display="none" y1="41.42108639986296" y2="41.42108639986296"/><line x1="0" x2="2" stroke="black" display="none" y1="35.32120269749345" y2="35.32120269749345"/><line x1="0" x2="2" stroke="black" display="none" y1="29.221318995123966" y2="29.221318995123966"/><line x1="0" x2="2" stroke="black" display="none" y1="17.02155159038503" y2="17.02155159038503"/><line x1="0" x2="2" stroke="black" display="none" y1="10.921667888015548" y2="10.921667888015548"/><line x1="0" x2="2" stroke="black" display="none" y1="4.821784185646067" y2="4.821784185646067"/><line x1="0" x2="2" stroke="black" display="none" y1="23.99414761003854" y2="23.99414761003854"/><line x1="0" x2="2" stroke="black" display="none" y1="13.099197834133776" y2="13.099197834133776"/><line x1="0" x2="2" stroke="black" display="none" y1="7.651722946181366" y2="7.651722946181366"/><line x1="0" x2="2" stroke="black" display="none" y1="2.204248058228927" y2="2.204248058228927"/><line x1="0" x2="6" stroke="black" display="visible" y1="0.34309352291052164" y2="0.34309352291052164"/><line x1="0" x2="6" stroke="black" display="none" y1="18.546672722086157" y2="18.546672722086157"/></g><g><text x="-5" text-anchor="end" display="visible" y="236.55385023516925" style="dominant-baseline: central;">0.0</text><text x="-5" text-anchor="end" display="visible" y="157.81693133108303" style="dominant-baseline: central;">0.2</text><text x="-5" text-anchor="end" display="visible" y="79.0800124269968" style="dominant-baseline: central;">0.4</text><text x="-5" text-anchor="end" display="visible" y="0.34309352291052164" style="dominant-baseline: central;">0.6</text><text x="-5" text-anchor="end" display="none" y="18.546672722086157" style="dominant-baseline: central;">0.4</text></g><line stroke="black" shape-rendering="crispEdges" stroke-linecap="square" display="block" y1="236.8357830356445" y2="0" x1="0" x2="0" marker-start="" marker-end=""/><text text-anchor="middle" transform="translate(-38.66615867614746, 118.41789151782226) rotate(-90)" fill="undefined" dominant-baseline="auto"><tspan>Absorbance</tspan><tspan display="none"/><tspan dx="6" display="none"/><tspan dy="-5" font-size="0.8em" display="none"/></text><g/></g></g><g><g data-layer="1"><g><g><g><path stroke="rgba(255,1,9,1)" stroke-width="0.0001" fill="none" d="M 50.6 233.20000000000002 L 61 235.20000000000002 L 71.4 235.4 L 81.80000000000001 235.4 L 92.2 235.4 L 102.60000000000001 235.4 L 113 235.60000000000002 L 123.60000000000001 235.8 L 134 235.60000000000002 L 144.4 236 L 154.8 236 L 165.20000000000002 236 L 175.60000000000002 236 L 186 236 L 196.4 236 L 206.8 236.20000000000002 L 217.20000000000002 236.20000000000002 L 227.8 236 L 238.20000000000002 236.20000000000002 L 248.60000000000002 236.20000000000002 L 259 236.20000000000002 L 269.40000000000003 236.20000000000002 L 279.8 236.4 L 290.2 236.4 L 300.6 236.4 L 311 236.4 L 321.40000000000003 236.4 L 332 236.4 L 342.40000000000003 236.4 L 352.8 236.4 L 363.20000000000005 236.4 L 373.6 236.4 L 384 236.20000000000002 L 394.40000000000003 236.4 L 404.8 236.4 L 415.20000000000005 236.60000000000002 L 425.6 236.60000000000002 L 436.20000000000005 236.60000000000002 L 446.6 236.60000000000002 L 457 236.60000000000002 L 467.40000000000003 236.8 L 477.8 236.60000000000002 L 488.20000000000005 236.60000000000002 L 498.6 236.60000000000002 L 509 236.60000000000002 L 519.4 236.60000000000002 L 529.8000000000001 236.60000000000002 "/></g><circle fill="black" r="3" display="none"/><g/><rect fill="white"/><text/><g><path fill="rgba(255,1,9,1)" stroke="rgba(255,1,9,1)" stroke-width="1" d="M 50.6 233.20000000000002 m -1 -1 l 2 0 l 0 2 l -2 0 z M 61 235.20000000000002 m -1 -1 l 2 0 l 0 2 l -2 0 z M 71.4 235.4 m -1 -1 l 2 0 l 0 2 l -2 0 z M 81.80000000000001 235.4 m -1 -1 l 2 0 l 0 2 l -2 0 z M 92.2 235.4 m -1 -1 l 2 0 l 0 2 l -2 0 z M 102.60000000000001 235.4 m -1 -1 l 2 0 l 0 2 l -2 0 z M 113 235.60000000000002 m -1 -1 l 2 0 l 0 2 l -2 0 z M 123.60000000000001 235.8 m -1 -1 l 2 0 l 0 2 l -2 0 z M 134 235.60000000000002 m -1 -1 l 2 0 l 0 2 l -2 0 z M 144.4 236 m -1 -1 l 2 0 l 0 2 l -2 0 z M 154.8 236 m -1 -1 l 2 0 l 0 2 l -2 0 z M 165.20000000000002 236 m -1 -1 l 2 0 l 0 2 l -2 0 z M 175.60000000000002 236 m -1 -1 l 2 0 l 0 2 l -2 0 z M 186 236 m -1 -1 l 2 0 l 0 2 l -2 0 z M 196.4 236 m -1 -1 l 2 0 l 0 2 l -2 0 z M 206.8 236.20000000000002 m -1 -1 l 2 0 l 0 2 l -2 0 z M 217.20000000000002 236.20000000000002 m -1 -1 l 2 0 l 0 2 l -2 0 z M 227.8 236 m -1 -1 l 2 0 l 0 2 l -2 0 z M 238.20000000000002 236.20000000000002 m -1 -1 l 2 0 l 0 2 l -2 0 z M 248.60000000000002 236.20000000000002 m -1 -1 l 2 0 l 0 2 l -2 0 z M 259 236.20000000000002 m -1 -1 l 2 0 l 0 2 l -2 0 z M 269.40000000000003 236.20000000000002 m -1 -1 l 2 0 l 0 2 l -2 0 z M 279.8 236.4 m -1 -1 l 2 0 l 0 2 l -2 0 z M 290.2 236.4 m -1 -1 l 2 0 l 0 2 l -2 0 z M 300.6 236.4 m -1 -1 l 2 0 l 0 2 l -2 0 z M 311 236.4 m -1 -1 l 2 0 l 0 2 l -2 0 z M 321.40000000000003 236.4 m -1 -1 l 2 0 l 0 2 l -2 0 z M 332 236.4 m -1 -1 l 2 0 l 0 2 l -2 0 z M 342.40000000000003 236.4 m -1 -1 l 2 0 l 0 2 l -2 0 z M 352.8 236.4 m -1 -1 l 2 0 l 0 2 l -2 0 z M 363.20000000000005 236.4 m -1 -1 l 2 0 l 0 2 l -2 0 z M 373.6 236.4 m -1 -1 l 2 0 l 0 2 l -2 0 z M 384 236.20000000000002 m -1 -1 l 2 0 l 0 2 l -2 0 z M 394.40000000000003 236.4 m -1 -1 l 2 0 l 0 2 l -2 0 z M 404.8 236.4 m -1 -1 l 2 0 l 0 2 l -2 0 z M 415.20000000000005 236.60000000000002 m -1 -1 l 2 0 l 0 2 l -2 0 z M 425.6 236.60000000000002 m -1 -1 l 2 0 l 0 2 l -2 0 z M 436.20000000000005 236.60000000000002 m -1 -1 l 2 0 l 0 2 l -2 0 z M 446.6 236.60000000000002 m -1 -1 l 2 0 l 0 2 l -2 0 z M 457 236.60000000000002 m -1 -1 l 2 0 l 0 2 l -2 0 z M 467.40000000000003 236.8 m -1 -1 l 2 0 l 0 2 l -2 0 z M 477.8 236.60000000000002 m -1 -1 l 2 0 l 0 2 l -2 0 z M 488.20000000000005 236.60000000000002 m -1 -1 l 2 0 l 0 2 l -2 0 z M 498.6 236.60000000000002 m -1 -1 l 2 0 l 0 2 l -2 0 z M 509 236.60000000000002 m -1 -1 l 2 0 l 0 2 l -2 0 z M 519.4 236.60000000000002 m -1 -1 l 2 0 l 0 2 l -2 0 z M 529.8000000000001 236.60000000000002 m -1 -1 l 2 0 l 0 2 l -2 0 z "/></g></g><g><g><path stroke="rgba(5,150,0,1)" stroke-width="0.0001" fill="none" d="M 50.6 0 L 61 20.200000000000003 L 71.4 32.4 L 81.80000000000001 44 L 92.2 54 L 102.60000000000001 66.8 L 113 77 L 123.60000000000001 86.4 L 134 95 L 144.4 103.4 L 154.8 111 L 165.20000000000002 118.4 L 175.60000000000002 125 L 186 131.4 L 196.4 137.20000000000002 L 206.8 142.8 L 217.20000000000002 147.8 L 227.8 152.8 L 238.20000000000002 157.4 L 248.60000000000002 161.60000000000002 L 259 165.8 L 269.40000000000003 169.60000000000002 L 279.8 173.20000000000002 L 290.2 176.60000000000002 L 300.6 179.60000000000002 L 311 182.60000000000002 L 321.40000000000003 185.4 L 332 188 L 342.40000000000003 190.4 L 352.8 192.4 L 363.20000000000005 194.60000000000002 L 373.6 196.60000000000002 L 384 198.4 L 394.40000000000003 200 L 404.8 201.8 L 415.20000000000005 203.4 L 425.6 205 L 436.20000000000005 206.20000000000002 L 446.6 207.4 L 457 208.60000000000002 L 467.40000000000003 209.8 L 477.8 210.8 L 488.20000000000005 211.60000000000002 L 498.6 212.60000000000002 L 509 213.4 L 519.4 214.20000000000002 L 529.8000000000001 215 "/></g><circle fill="black" r="3" display="none"/><g/><rect fill="white"/><text/><g><path fill="rgba(5,150,0,1)" stroke="rgba(5,150,0,1)" stroke-width="1" d="M 50.6 0 m -1 -1 l 2 0 l 0 2 l -2 0 z M 61 20.200000000000003 m -1 -1 l 2 0 l 0 2 l -2 0 z M 71.4 32.4 m -1 -1 l 2 0 l 0 2 l -2 0 z M 81.80000000000001 44 m -1 -1 l 2 0 l 0 2 l -2 0 z M 92.2 54 m -1 -1 l 2 0 l 0 2 l -2 0 z M 102.60000000000001 66.8 m -1 -1 l 2 0 l 0 2 l -2 0 z M 113 77 m -1 -1 l 2 0 l 0 2 l -2 0 z M 123.60000000000001 86.4 m -1 -1 l 2 0 l 0 2 l -2 0 z M 134 95 m -1 -1 l 2 0 l 0 2 l -2 0 z M 144.4 103.4 m -1 -1 l 2 0 l 0 2 l -2 0 z M 154.8 111 m -1 -1 l 2 0 l 0 2 l -2 0 z M 165.20000000000002 118.4 m -1 -1 l 2 0 l 0 2 l -2 0 z M 175.60000000000002 125 m -1 -1 l 2 0 l 0 2 l -2 0 z M 186 131.4 m -1 -1 l 2 0 l 0 2 l -2 0 z M 196.4 137.20000000000002 m -1 -1 l 2 0 l 0 2 l -2 0 z M 206.8 142.8 m -1 -1 l 2 0 l 0 2 l -2 0 z M 217.20000000000002 147.8 m -1 -1 l 2 0 l 0 2 l -2 0 z M 227.8 152.8 m -1 -1 l 2 0 l 0 2 l -2 0 z M 238.20000000000002 157.4 m -1 -1 l 2 0 l 0 2 l -2 0 z M 248.60000000000002 161.60000000000002 m -1 -1 l 2 0 l 0 2 l -2 0 z M 259 165.8 m -1 -1 l 2 0 l 0 2 l -2 0 z M 269.40000000000003 169.60000000000002 m -1 -1 l 2 0 l 0 2 l -2 0 z M 279.8 173.20000000000002 m -1 -1 l 2 0 l 0 2 l -2 0 z M 290.2 176.60000000000002 m -1 -1 l 2 0 l 0 2 l -2 0 z M 300.6 179.60000000000002 m -1 -1 l 2 0 l 0 2 l -2 0 z M 311 182.60000000000002 m -1 -1 l 2 0 l 0 2 l -2 0 z M 321.40000000000003 185.4 m -1 -1 l 2 0 l 0 2 l -2 0 z M 332 188 m -1 -1 l 2 0 l 0 2 l -2 0 z M 342.40000000000003 190.4 m -1 -1 l 2 0 l 0 2 l -2 0 z M 352.8 192.4 m -1 -1 l 2 0 l 0 2 l -2 0 z M 363.20000000000005 194.60000000000002 m -1 -1 l 2 0 l 0 2 l -2 0 z M 373.6 196.60000000000002 m -1 -1 l 2 0 l 0 2 l -2 0 z M 384 198.4 m -1 -1 l 2 0 l 0 2 l -2 0 z M 394.40000000000003 200 m -1 -1 l 2 0 l 0 2 l -2 0 z M 404.8 201.8 m -1 -1 l 2 0 l 0 2 l -2 0 z M 415.20000000000005 203.4 m -1 -1 l 2 0 l 0 2 l -2 0 z M 425.6 205 m -1 -1 l 2 0 l 0 2 l -2 0 z M 436.20000000000005 206.20000000000002 m -1 -1 l 2 0 l 0 2 l -2 0 z M 446.6 207.4 m -1 -1 l 2 0 l 0 2 l -2 0 z M 457 208.60000000000002 m -1 -1 l 2 0 l 0 2 l -2 0 z M 467.40000000000003 209.8 m -1 -1 l 2 0 l 0 2 l -2 0 z M 477.8 210.8 m -1 -1 l 2 0 l 0 2 l -2 0 z M 488.20000000000005 211.60000000000002 m -1 -1 l 2 0 l 0 2 l -2 0 z M 498.6 212.60000000000002 m -1 -1 l 2 0 l 0 2 l -2 0 z M 509 213.4 m -1 -1 l 2 0 l 0 2 l -2 0 z M 519.4 214.20000000000002 m -1 -1 l 2 0 l 0 2 l -2 0 z M 529.8000000000001 215 m -1 -1 l 2 0 l 0 2 l -2 0 z "/></g></g><g><g><path stroke="rgba(2,1,255,1)" stroke-width="0.0001" fill="none" d="M 50.6 184.4 L 61 188.4 L 71.4 191.20000000000002 L 81.80000000000001 193.8 L 92.2 196.4 L 102.60000000000001 199 L 113 201.4 L 123.60000000000001 203.60000000000002 L 134 205.60000000000002 L 144.4 207.20000000000002 L 154.8 209 L 165.20000000000002 210.8 L 175.60000000000002 212.20000000000002 L 186 213.60000000000002 L 196.4 214.60000000000002 L 206.8 216 L 217.20000000000002 217.20000000000002 L 227.8 218.20000000000002 L 238.20000000000002 219.20000000000002 L 248.60000000000002 220.20000000000002 L 259 221 L 269.40000000000003 222 L 279.8 222.60000000000002 L 290.2 223.4 L 300.6 224 L 311 224.60000000000002 L 321.40000000000003 225.20000000000002 L 332 225.8 L 342.40000000000003 226.4 L 352.8 226.8 L 363.20000000000005 227.4 L 373.6 227.60000000000002 L 384 228 L 394.40000000000003 228.20000000000002 L 404.8 228.60000000000002 L 415.20000000000005 229 L 425.6 229.4 L 436.20000000000005 229.8 L 446.6 230 L 457 230.4 L 467.40000000000003 230.60000000000002 L 477.8 230.8 L 488.20000000000005 230.8 L 498.6 231.20000000000002 L 509 231.4 L 519.4 231.20000000000002 L 529.8000000000001 231.60000000000002 "/></g><circle fill="black" r="3" display="none"/><g/><rect fill="white"/><text/><g><path fill="rgba(2,1,255,1)" stroke="rgba(2,1,255,1)" stroke-width="1" d="M 50.6 184.4 m -1 -1 l 2 0 l 0 2 l -2 0 z M 61 188.4 m -1 -1 l 2 0 l 0 2 l -2 0 z M 71.4 191.20000000000002 m -1 -1 l 2 0 l 0 2 l -2 0 z M 81.80000000000001 193.8 m -1 -1 l 2 0 l 0 2 l -2 0 z M 92.2 196.4 m -1 -1 l 2 0 l 0 2 l -2 0 z M 102.60000000000001 199 m -1 -1 l 2 0 l 0 2 l -2 0 z M 113 201.4 m -1 -1 l 2 0 l 0 2 l -2 0 z M 123.60000000000001 203.60000000000002 m -1 -1 l 2 0 l 0 2 l -2 0 z M 134 205.60000000000002 m -1 -1 l 2 0 l 0 2 l -2 0 z M 144.4 207.20000000000002 m -1 -1 l 2 0 l 0 2 l -2 0 z M 154.8 209 m -1 -1 l 2 0 l 0 2 l -2 0 z M 165.20000000000002 210.8 m -1 -1 l 2 0 l 0 2 l -2 0 z M 175.60000000000002 212.20000000000002 m -1 -1 l 2 0 l 0 2 l -2 0 z M 186 213.60000000000002 m -1 -1 l 2 0 l 0 2 l -2 0 z M 196.4 214.60000000000002 m -1 -1 l 2 0 l 0 2 l -2 0 z M 206.8 216 m -1 -1 l 2 0 l 0 2 l -2 0 z M 217.20000000000002 217.20000000000002 m -1 -1 l 2 0 l 0 2 l -2 0 z M 227.8 218.20000000000002 m -1 -1 l 2 0 l 0 2 l -2 0 z M 238.20000000000002 219.20000000000002 m -1 -1 l 2 0 l 0 2 l -2 0 z M 248.60000000000002 220.20000000000002 m -1 -1 l 2 0 l 0 2 l -2 0 z M 259 221 m -1 -1 l 2 0 l 0 2 l -2 0 z M 269.40000000000003 222 m -1 -1 l 2 0 l 0 2 l -2 0 z M 279.8 222.60000000000002 m -1 -1 l 2 0 l 0 2 l -2 0 z M 290.2 223.4 m -1 -1 l 2 0 l 0 2 l -2 0 z M 300.6 224 m -1 -1 l 2 0 l 0 2 l -2 0 z M 311 224.60000000000002 m -1 -1 l 2 0 l 0 2 l -2 0 z M 321.40000000000003 225.20000000000002 m -1 -1 l 2 0 l 0 2 l -2 0 z M 332 225.8 m -1 -1 l 2 0 l 0 2 l -2 0 z M 342.40000000000003 226.4 m -1 -1 l 2 0 l 0 2 l -2 0 z M 352.8 226.8 m -1 -1 l 2 0 l 0 2 l -2 0 z M 363.20000000000005 227.4 m -1 -1 l 2 0 l 0 2 l -2 0 z M 373.6 227.60000000000002 m -1 -1 l 2 0 l 0 2 l -2 0 z M 384 228 m -1 -1 l 2 0 l 0 2 l -2 0 z M 394.40000000000003 228.20000000000002 m -1 -1 l 2 0 l 0 2 l -2 0 z M 404.8 228.60000000000002 m -1 -1 l 2 0 l 0 2 l -2 0 z M 415.20000000000005 229 m -1 -1 l 2 0 l 0 2 l -2 0 z M 425.6 229.4 m -1 -1 l 2 0 l 0 2 l -2 0 z M 436.20000000000005 229.8 m -1 -1 l 2 0 l 0 2 l -2 0 z M 446.6 230 m -1 -1 l 2 0 l 0 2 l -2 0 z M 457 230.4 m -1 -1 l 2 0 l 0 2 l -2 0 z M 467.40000000000003 230.60000000000002 m -1 -1 l 2 0 l 0 2 l -2 0 z M 477.8 230.8 m -1 -1 l 2 0 l 0 2 l -2 0 z M 488.20000000000005 230.8 m -1 -1 l 2 0 l 0 2 l -2 0 z M 498.6 231.20000000000002 m -1 -1 l 2 0 l 0 2 l -2 0 z M 509 231.4 m -1 -1 l 2 0 l 0 2 l -2 0 z M 519.4 231.20000000000002 m -1 -1 l 2 0 l 0 2 l -2 0 z M 529.8000000000001 231.60000000000002 m -1 -1 l 2 0 l 0 2 l -2 0 z "/></g></g><g><g><path stroke="rgba(255,253,11,0.4)" stroke-width="3" fill="none" d="M 50.6 11.600000000000001 L 50.800000000000004 12 L 51.2 12.4 L 51.6 12.8 L 51.800000000000004 13.200000000000001 L 52.2 13.600000000000001 L 52.6 14 L 52.800000000000004 14.4 L 53.2 14.8 L 53.400000000000006 15.200000000000001 L 53.800000000000004 15.600000000000001 L 54.2 16 L 54.400000000000006 16.400000000000002 L 54.800000000000004 16.8 L 55 17.2 L 55.400000000000006 17.6 L 55.800000000000004 17.8 L 56 18.2 L 56.400000000000006 18.6 L 56.800000000000004 19 L 57 19.400000000000002 L 57.400000000000006 19.8 L 57.6 20.200000000000003 L 58 20.6 L 58.400000000000006 21 L 58.6 21.400000000000002 L 59 21.8 L 59.2 22.200000000000003 L 59.6 22.400000000000002 L 60 22.8 L 60.2 23.200000000000003 L 60.6 23.6 L 61 24 L 61.2 24.400000000000002 L 61.6 24.8 L 61.800000000000004 25.200000000000003 L 62.2 25.6 L 62.6 25.8 L 62.800000000000004 26.200000000000003 L 63.2 26.6 L 63.400000000000006 27 L 63.800000000000004 27.400000000000002 L 64.2 27.8 L 64.4 28 L 64.8 28.400000000000002 L 65.2 28.8 L 65.4 29.200000000000003 L 65.8 29.6 L 66 30 L 66.4 30.400000000000002 L 66.8 30.6 L 67 31 L 67.4 31.400000000000002 L 67.60000000000001 31.8 L 68 32.2 L 68.4 32.4 L 68.60000000000001 32.800000000000004 L 69 33.2 L 69.4 33.6 L 69.60000000000001 34 L 70 34.2 L 70.2 34.6 L 70.60000000000001 35 L 71 35.4 L 71.2 35.800000000000004 L 71.60000000000001 36 L 71.8 36.4 L 72.2 36.800000000000004 L 72.60000000000001 37.2 L 72.8 37.4 L 73.2 37.800000000000004 L 73.60000000000001 38.2 L 73.8 38.6 L 74.2 38.800000000000004 L 74.4 39.2 L 74.8 39.6 L 75.2 40 L 75.4 40.2 L 75.8 40.6 L 76 41 L 76.4 41.400000000000006 L 76.80000000000001 41.6 L 77 42 L 77.4 42.400000000000006 L 77.80000000000001 42.6 L 78 43 L 78.4 43.400000000000006 L 78.60000000000001 43.800000000000004 L 79 44 L 79.4 44.400000000000006 L 79.60000000000001 44.800000000000004 L 80 45 L 80.2 45.400000000000006 L 80.60000000000001 45.800000000000004 L 81 46 L 81.2 46.400000000000006 L 81.60000000000001 46.800000000000004 L 82 47 L 82.2 47.400000000000006 L 82.60000000000001 47.800000000000004 L 82.80000000000001 48 L 83.2 48.400000000000006 L 83.60000000000001 48.800000000000004 L 83.80000000000001 49 L 84.2 49.400000000000006 L 84.4 49.800000000000004 L 84.80000000000001 50 L 85.2 50.400000000000006 L 85.4 50.800000000000004 L 85.80000000000001 51 L 86 51.400000000000006 L 86.4 51.800000000000004 L 86.80000000000001 52 L 87 52.400000000000006 L 87.4 52.800000000000004 L 87.80000000000001 53 L 88 53.400000000000006 L 88.4 53.6 L 88.60000000000001 54 L 89 54.400000000000006 L 89.4 54.6 L 89.60000000000001 55 L 90 55.2 L 90.2 55.6 L 90.60000000000001 56 L 91 56.2 L 91.2 56.6 L 91.60000000000001 56.800000000000004 L 92 57.2 L 92.2 57.6 L 92.60000000000001 57.800000000000004 L 92.80000000000001 58.2 L 93.2 58.400000000000006 L 93.60000000000001 58.800000000000004 L 93.80000000000001 59.2 L 94.2 59.400000000000006 L 94.4 59.800000000000004 L 94.80000000000001 60 L 95.2 60.400000000000006 L 95.4 60.6 L 95.80000000000001 61 L 96.2 61.2 L 96.4 61.6 L 96.80000000000001 62 L 97 62.2 L 97.4 62.6 L 97.80000000000001 62.800000000000004 L 98 63.2 L 98.4 63.400000000000006 L 98.60000000000001 63.800000000000004 L 99 64 L 99.4 64.4 L 99.60000000000001 64.60000000000001 L 100 65 L 100.4 65.2 L 100.60000000000001 65.60000000000001 L 101 65.8 L 101.2 66.2 L 101.60000000000001 66.4 L 102 66.8 L 102.2 67 L 102.60000000000001 67.4 L 102.80000000000001 67.60000000000001 L 103.2 68 L 103.60000000000001 68.2 L 103.80000000000001 68.60000000000001 L 104.2 68.8 L 104.60000000000001 69.2 L 104.80000000000001 69.4 L 105.2 69.8 L 105.4 70 L 105.80000000000001 70.4 L 106.2 70.60000000000001 L 106.4 71 L 106.80000000000001 71.2 L 107 71.60000000000001 L 107.4 71.8 L 107.80000000000001 72.2 L 108 72.4 L 108.4 72.60000000000001 L 108.80000000000001 73 L 109 73.2 L 109.4 73.60000000000001 L 109.60000000000001 73.8 L 110 74.2 L 110.4 74.4 L 110.60000000000001 74.8 L 111 75 L 111.2 75.2 L 111.60000000000001 75.60000000000001 L 112 75.8 L 112.2 76.2 L 112.60000000000001 76.4 L 113 76.60000000000001 L 113.2 77 L 113.60000000000001 77.2 L 113.80000000000001 77.60000000000001 L 114.2 77.80000000000001 L 114.60000000000001 78.2 L 114.80000000000001 78.4 L 115.2 78.60000000000001 L 115.4 79 L 115.80000000000001 79.2 L 116.2 79.4 L 116.4 79.80000000000001 L 116.80000000000001 80 L 117.2 80.4 L 117.4 80.60000000000001 L 117.80000000000001 80.80000000000001 L 118 81.2 L 118.4 81.4 L 118.80000000000001 81.80000000000001 L 119 82 L 119.4 82.2 L 119.60000000000001 82.60000000000001 L 120 82.80000000000001 L 120.4 83 L 120.60000000000001 83.4 L 121 83.60000000000001 L 121.4 83.80000000000001 L 121.60000000000001 84.2 L 122 84.4 L 122.2 84.60000000000001 L 122.60000000000001 85 L 123 85.2 L 123.2 85.4 L 123.60000000000001 85.80000000000001 L 123.80000000000001 86 L 124.2 86.2 L 124.60000000000001 86.60000000000001 L 124.80000000000001 86.80000000000001 L 125.2 87 L 125.60000000000001 87.4 L 125.80000000000001 87.60000000000001 L 126.2 87.80000000000001 L 126.4 88.2 L 126.80000000000001 88.4 L 127.2 88.60000000000001 L 127.4 89 L 127.80000000000001 89.2 L 128 89.4 L 128.4 89.80000000000001 L 128.8 90 L 129 90.2 L 129.4 90.4 L 129.8 90.80000000000001 L 130 91 L 130.4 91.2 L 130.6 91.60000000000001 L 131 91.80000000000001 L 131.4 92 L 131.6 92.2 L 132 92.60000000000001 L 132.20000000000002 92.80000000000001 L 132.6 93 L 133 93.4 L 133.20000000000002 93.60000000000001 L 133.6 93.80000000000001 L 134 94 L 134.20000000000002 94.4 L 134.6 94.60000000000001 L 134.8 94.80000000000001 L 135.20000000000002 95 L 135.6 95.4 L 135.8 95.60000000000001 L 136.20000000000002 95.80000000000001 L 136.4 96 L 136.8 96.4 L 137.20000000000002 96.60000000000001 L 137.4 96.80000000000001 L 137.8 97 L 138.20000000000002 97.4 L 138.4 97.60000000000001 L 138.8 97.80000000000001 L 139 98 L 139.4 98.2 L 139.8 98.60000000000001 L 140 98.80000000000001 L 140.4 99 L 140.6 99.2 L 141 99.60000000000001 L 141.4 99.80000000000001 L 141.6 100 L 142 100.2 L 142.4 100.4 L 142.6 100.80000000000001 L 143 101 L 143.20000000000002 101.2 L 143.6 101.4 L 144 101.60000000000001 L 144.20000000000002 102 L 144.6 102.2 L 144.8 102.4 L 145.20000000000002 102.60000000000001 L 145.6 102.80000000000001 L 145.8 103 L 146.20000000000002 103.4 L 146.6 103.60000000000001 L 146.8 103.80000000000001 L 147.20000000000002 104 L 147.4 104.2 L 147.8 104.4 L 148.20000000000002 104.80000000000001 L 148.4 105 L 148.8 105.2 L 149 105.4 L 149.4 105.60000000000001 L 149.8 105.80000000000001 L 150 106.2 L 150.4 106.4 L 150.8 106.60000000000001 L 151 106.80000000000001 L 151.4 107 L 151.6 107.2 L 152 107.60000000000001 L 152.4 107.80000000000001 L 152.6 108 L 153 108.2 L 153.20000000000002 108.4 L 153.60000000000002 108.60000000000001 L 154 108.80000000000001 L 154.20000000000002 109 L 154.60000000000002 109.4 L 155 109.60000000000001 L 155.20000000000002 109.80000000000001 L 155.60000000000002 110 L 155.8 110.2 L 156.20000000000002 110.4 L 156.60000000000002 110.60000000000001 L 156.8 110.80000000000001 L 157.20000000000002 111.2 L 157.4 111.4 L 157.8 111.60000000000001 L 158.20000000000002 111.80000000000001 L 158.4 112 L 158.8 112.2 L 159.20000000000002 112.4 L 159.4 112.60000000000001 L 159.8 112.80000000000001 L 160 113 L 160.4 113.4 L 160.8 113.60000000000001 L 161 113.80000000000001 L 161.4 114 L 161.60000000000002 114.2 L 162 114.4 L 162.4 114.60000000000001 L 162.60000000000002 114.80000000000001 L 163 115 L 163.4 115.2 L 163.60000000000002 115.4 L 164 115.60000000000001 L 164.20000000000002 115.80000000000001 L 164.60000000000002 116.2 L 165 116.4 L 165.20000000000002 116.60000000000001 L 165.60000000000002 116.80000000000001 L 165.8 117 L 166.20000000000002 117.2 L 166.60000000000002 117.4 L 166.8 117.60000000000001 L 167.20000000000002 117.80000000000001 L 167.60000000000002 118 L 167.8 118.2 L 168.20000000000002 118.4 L 168.4 118.60000000000001 L 168.8 118.80000000000001 L 169.20000000000002 119 L 169.4 119.2 L 169.8 119.4 L 170 119.60000000000001 L 170.4 119.80000000000001 L 170.8 120 L 171 120.2 L 171.4 120.4 L 171.8 120.80000000000001 L 172 121 L 172.4 121.2 L 172.60000000000002 121.4 L 173 121.60000000000001 L 173.4 121.80000000000001 L 173.60000000000002 122 L 174 122.2 L 174.20000000000002 122.4 L 174.60000000000002 122.60000000000001 L 175 122.80000000000001 L 175.20000000000002 123 L 175.60000000000002 123.2 L 176 123.4 L 176.20000000000002 123.60000000000001 L 176.60000000000002 123.80000000000001 L 176.8 124 L 177.20000000000002 124.2 L 177.60000000000002 124.4 L 177.8 124.60000000000001 L 178.20000000000002 124.80000000000001 L 178.4 125 L 178.8 125.2 L 179.20000000000002 125.4 L 179.4 125.60000000000001 L 179.8 125.80000000000001 L 180.20000000000002 126 L 180.4 126.2 L 180.8 126.4 L 181 126.4 L 181.4 126.60000000000001 L 181.8 126.80000000000001 L 182 127 L 182.4 127.2 L 182.60000000000002 127.4 L 183 127.60000000000001 L 183.4 127.80000000000001 L 183.60000000000002 128 L 184 128.20000000000002 L 184.4 128.4 L 184.60000000000002 128.6 L 185 128.8 L 185.20000000000002 129 L 185.60000000000002 129.20000000000002 L 186 129.4 L 186.20000000000002 129.6 L 186.60000000000002 129.8 L 186.8 130 L 187.20000000000002 130.20000000000002 L 187.60000000000002 130.4 L 187.8 130.6 L 188.20000000000002 130.6 L 188.4 130.8 L 188.8 131 L 189.20000000000002 131.20000000000002 L 189.4 131.4 L 189.8 131.6 L 190.20000000000002 131.8 L 190.4 132 L 190.8 132.20000000000002 L 191 132.4 L 191.4 132.6 L 191.8 132.8 L 192 133 L 192.4 133.20000000000002 L 192.60000000000002 133.20000000000002 L 193 133.4 L 193.4 133.6 L 193.60000000000002 133.8 L 194 134 L 194.4 134.20000000000002 L 194.60000000000002 134.4 L 195 134.6 L 195.20000000000002 134.8 L 195.60000000000002 135 L 196 135 L 196.20000000000002 135.20000000000002 L 196.60000000000002 135.4 L 196.8 135.6 L 197.20000000000002 135.8 L 197.60000000000002 136 L 197.8 136.20000000000002 L 198.20000000000002 136.4 L 198.60000000000002 136.6 L 198.8 136.6 L 199.20000000000002 136.8 L 199.4 137 L 199.8 137.20000000000002 L 200.20000000000002 137.4 L 200.4 137.6 L 200.8 137.8 L 201 138 L 201.4 138.20000000000002 L 201.8 138.20000000000002 L 202 138.4 L 202.4 138.6 L 202.8 138.8 L 203 139 L 203.4 139.20000000000002 L 203.60000000000002 139.4 L 204 139.4 L 204.4 139.6 L 204.60000000000002 139.8 L 205 140 L 205.20000000000002 140.20000000000002 L 205.60000000000002 140.4 L 206 140.6 L 206.20000000000002 140.6 L 206.60000000000002 140.8 L 207 141 L 207.20000000000002 141.20000000000002 L 207.60000000000002 141.4 L 207.8 141.6 L 208.20000000000002 141.6 L 208.60000000000002 141.8 L 208.8 142 L 209.20000000000002 142.20000000000002 L 209.4 142.4 L 209.8 142.6 L 210.20000000000002 142.6 L 210.4 142.8 L 210.8 143 L 211.20000000000002 143.20000000000002 L 211.4 143.4 L 211.8 143.6 L 212 143.6 L 212.4 143.8 L 212.8 144 L 213 144.20000000000002 L 213.4 144.4 L 213.60000000000002 144.4 L 214 144.6 L 214.4 144.8 L 214.60000000000002 145 L 215 145.20000000000002 L 215.4 145.4 L 215.60000000000002 145.4 L 216 145.6 L 216.20000000000002 145.8 L 216.60000000000002 146 L 217 146.20000000000002 L 217.20000000000002 146.20000000000002 L 217.60000000000002 146.4 L 217.8 146.6 L 218.20000000000002 146.8 L 218.60000000000002 147 L 218.8 147 L 219.20000000000002 147.20000000000002 L 219.60000000000002 147.4 L 219.8 147.6 L 220.20000000000002 147.6 L 220.4 147.8 L 220.8 148 L 221.20000000000002 148.20000000000002 L 221.4 148.4 L 221.8 148.4 L 222 148.6 L 222.4 148.8 L 222.8 149 L 223 149.20000000000002 L 223.4 149.20000000000002 L 223.8 149.4 L 224 149.6 L 224.4 149.8 L 224.60000000000002 149.8 L 225 150 L 225.4 150.20000000000002 L 225.60000000000002 150.4 L 226 150.4 L 226.20000000000002 150.6 L 226.60000000000002 150.8 L 227 151 L 227.20000000000002 151 L 227.60000000000002 151.20000000000002 L 228 151.4 L 228.20000000000002 151.6 L 228.60000000000002 151.6 L 228.8 151.8 L 229.20000000000002 152 L 229.60000000000002 152.20000000000002 L 229.8 152.20000000000002 L 230.20000000000002 152.4 L 230.4 152.6 L 230.8 152.8 L 231.20000000000002 152.8 L 231.4 153 L 231.8 153.20000000000002 L 232.20000000000002 153.4 L 232.4 153.4 L 232.8 153.60000000000002 L 233 153.8 L 233.4 154 L 233.8 154 L 234 154.20000000000002 L 234.4 154.4 L 234.60000000000002 154.4 L 235 154.60000000000002 L 235.4 154.8 L 235.60000000000002 155 L 236 155 L 236.4 155.20000000000002 L 236.60000000000002 155.4 L 237 155.60000000000002 L 237.20000000000002 155.60000000000002 L 237.60000000000002 155.8 L 238 156 L 238.20000000000002 156 L 238.60000000000002 156.20000000000002 L 238.8 156.4 L 239.20000000000002 156.60000000000002 L 239.60000000000002 156.60000000000002 L 239.8 156.8 L 240.20000000000002 157 L 240.60000000000002 157 L 240.8 157.20000000000002 L 241.20000000000002 157.4 L 241.4 157.4 L 241.8 157.60000000000002 L 242.20000000000002 157.8 L 242.4 158 L 242.8 158 L 243 158.20000000000002 L 243.4 158.4 L 243.8 158.4 L 244 158.60000000000002 L 244.4 158.8 L 244.8 158.8 L 245 159 L 245.4 159.20000000000002 L 245.60000000000002 159.20000000000002 L 246 159.4 L 246.4 159.60000000000002 L 246.60000000000002 159.60000000000002 L 247 159.8 L 247.20000000000002 160 L 247.60000000000002 160 L 248 160.20000000000002 L 248.20000000000002 160.4 L 248.60000000000002 160.60000000000002 L 249 160.60000000000002 L 249.20000000000002 160.8 L 249.60000000000002 161 L 249.8 161 L 250.20000000000002 161.20000000000002 L 250.60000000000002 161.4 L 250.8 161.4 L 251.20000000000002 161.60000000000002 L 251.4 161.8 L 251.8 161.8 L 252.20000000000002 162 L 252.4 162.20000000000002 L 252.8 162.20000000000002 L 253.20000000000002 162.4 L 253.4 162.4 L 253.8 162.60000000000002 L 254 162.8 L 254.4 162.8 L 254.8 163 L 255 163.20000000000002 L 255.4 163.20000000000002 L 255.60000000000002 163.4 L 256 163.60000000000002 L 256.40000000000003 163.60000000000002 L 256.6 163.8 L 257 164 L 257.40000000000003 164 L 257.6 164.20000000000002 L 258 164.4 L 258.2 164.4 L 258.6 164.60000000000002 L 259 164.60000000000002 L 259.2 164.8 L 259.6 165 L 259.8 165 L 260.2 165.20000000000002 L 260.6 165.4 L 260.8 165.4 L 261.2 165.60000000000002 L 261.6 165.60000000000002 L 261.8 165.8 L 262.2 166 L 262.40000000000003 166 L 262.8 166.20000000000002 L 263.2 166.4 L 263.40000000000003 166.4 L 263.8 166.60000000000002 L 264 166.60000000000002 L 264.40000000000003 166.8 L 264.8 167 L 265 167 L 265.40000000000003 167.20000000000002 L 265.8 167.4 L 266 167.4 L 266.40000000000003 167.60000000000002 L 266.6 167.60000000000002 L 267 167.8 L 267.40000000000003 168 L 267.6 168 L 268 168.20000000000002 L 268.2 168.20000000000002 L 268.6 168.4 L 269 168.60000000000002 L 269.2 168.60000000000002 L 269.6 168.8 L 270 168.8 L 270.2 169 L 270.6 169.20000000000002 L 270.8 169.20000000000002 L 271.2 169.4 L 271.6 169.4 L 271.8 169.60000000000002 L 272.2 169.8 L 272.40000000000003 169.8 L 272.8 170 L 273.2 170 L 273.40000000000003 170.20000000000002 L 273.8 170.20000000000002 L 274.2 170.4 L 274.40000000000003 170.60000000000002 L 274.8 170.60000000000002 L 275 170.8 L 275.40000000000003 170.8 L 275.8 171 L 276 171.20000000000002 L 276.40000000000003 171.20000000000002 L 276.6 171.4 L 277 171.4 L 277.40000000000003 171.60000000000002 L 277.6 171.60000000000002 L 278 171.8 L 278.40000000000003 172 L 278.6 172 L 279 172.20000000000002 L 279.2 172.20000000000002 L 279.6 172.4 L 280 172.4 L 280.2 172.60000000000002 L 280.6 172.8 L 280.8 172.8 L 281.2 173 L 281.6 173 L 281.8 173.20000000000002 L 282.2 173.20000000000002 L 282.6 173.4 L 282.8 173.4 L 283.2 173.60000000000002 L 283.40000000000003 173.8 L 283.8 173.8 L 284.2 174 L 284.40000000000003 174 L 284.8 174.20000000000002 L 285 174.20000000000002 L 285.40000000000003 174.4 L 285.8 174.4 L 286 174.60000000000002 L 286.40000000000003 174.8 L 286.8 174.8 L 287 175 L 287.40000000000003 175 L 287.6 175.20000000000002 L 288 175.20000000000002 L 288.40000000000003 175.4 L 288.6 175.4 L 289 175.60000000000002 L 289.2 175.60000000000002 L 289.6 175.8 L 290 176 L 290.2 176 L 290.6 176.20000000000002 L 290.8 176.20000000000002 L 291.2 176.4 L 291.6 176.4 L 291.8 176.60000000000002 L 292.2 176.60000000000002 L 292.6 176.8 L 292.8 176.8 L 293.2 177 L 293.40000000000003 177 L 293.8 177.20000000000002 L 294.2 177.20000000000002 L 294.40000000000003 177.4 L 294.8 177.4 L 295 177.60000000000002 L 295.40000000000003 177.60000000000002 L 295.8 177.8 L 296 178 L 296.40000000000003 178 L 296.8 178.20000000000002 L 297 178.20000000000002 L 297.40000000000003 178.4 L 297.6 178.4 L 298 178.60000000000002 L 298.40000000000003 178.60000000000002 L 298.6 178.8 L 299 178.8 L 299.2 179 L 299.6 179 L 300 179.20000000000002 L 300.2 179.20000000000002 L 300.6 179.4 L 301 179.4 L 301.2 179.60000000000002 L 301.6 179.60000000000002 L 301.8 179.8 L 302.2 179.8 L 302.6 180 L 302.8 180 L 303.2 180.20000000000002 L 303.40000000000003 180.20000000000002 L 303.8 180.4 L 304.2 180.4 L 304.40000000000003 180.60000000000002 L 304.8 180.60000000000002 L 305.2 180.8 L 305.40000000000003 180.8 L 305.8 181 L 306 181 L 306.40000000000003 181.20000000000002 L 306.8 181.20000000000002 L 307 181.4 L 307.40000000000003 181.4 L 307.6 181.60000000000002 L 308 181.60000000000002 L 308.40000000000003 181.8 L 308.6 181.8 L 309 182 L 309.40000000000003 182 L 309.6 182.20000000000002 L 310 182.20000000000002 L 310.20000000000005 182.20000000000002 L 310.6 182.4 L 311 182.4 L 311.20000000000005 182.60000000000002 L 311.6 182.60000000000002 L 311.8 182.8 L 312.20000000000005 182.8 L 312.6 183 L 312.8 183 L 313.20000000000005 183.20000000000002 L 313.6 183.20000000000002 L 313.8 183.4 L 314.20000000000005 183.4 L 314.40000000000003 183.60000000000002 L 314.8 183.60000000000002 L 315.20000000000005 183.8 L 315.40000000000003 183.8 L 315.8 184 L 316 184 L 316.40000000000003 184 L 316.8 184.20000000000002 L 317 184.20000000000002 L 317.40000000000003 184.4 L 317.8 184.4 L 318 184.60000000000002 L 318.40000000000003 184.60000000000002 L 318.6 184.8 L 319 184.8 L 319.40000000000003 185 L 319.6 185 L 320 185 L 320.20000000000005 185.20000000000002 L 320.6 185.20000000000002 L 321 185.4 L 321.20000000000005 185.4 L 321.6 185.60000000000002 L 322 185.60000000000002 L 322.20000000000005 185.8 L 322.6 185.8 L 322.8 186 L 323.20000000000005 186 L 323.6 186 L 323.8 186.20000000000002 L 324.20000000000005 186.20000000000002 L 324.40000000000003 186.4 L 324.8 186.4 L 325.20000000000005 186.60000000000002 L 325.40000000000003 186.60000000000002 L 325.8 186.8 L 326.20000000000005 186.8 L 326.40000000000003 186.8 L 326.8 187 L 327 187 L 327.40000000000003 187.20000000000002 L 327.8 187.20000000000002 L 328 187.4 L 328.40000000000003 187.4 L 328.6 187.4 L 329 187.60000000000002 L 329.40000000000003 187.60000000000002 L 329.6 187.8 L 330 187.8 L 330.40000000000003 188 L 330.6 188 L 331 188 L 331.20000000000005 188.20000000000002 L 331.6 188.20000000000002 L 332 188.4 L 332.20000000000005 188.4 L 332.6 188.60000000000002 L 332.8 188.60000000000002 L 333.20000000000005 188.60000000000002 L 333.6 188.8 L 333.8 188.8 L 334.20000000000005 189 L 334.6 189 L 334.8 189.20000000000002 L 335.20000000000005 189.20000000000002 L 335.40000000000003 189.20000000000002 L 335.8 189.4 L 336.20000000000005 189.4 L 336.40000000000003 189.60000000000002 L 336.8 189.60000000000002 L 337 189.60000000000002 L 337.40000000000003 189.8 L 337.8 189.8 L 338 190 L 338.40000000000003 190 L 338.8 190.20000000000002 L 339 190.20000000000002 L 339.40000000000003 190.20000000000002 L 339.6 190.4 L 340 190.4 L 340.40000000000003 190.60000000000002 L 340.6 190.60000000000002 L 341 190.60000000000002 L 341.20000000000005 190.8 L 341.6 190.8 L 342 191 L 342.20000000000005 191 L 342.6 191 L 343 191.20000000000002 L 343.20000000000005 191.20000000000002 L 343.6 191.4 L 343.8 191.4 L 344.20000000000005 191.4 L 344.6 191.60000000000002 L 344.8 191.60000000000002 L 345.20000000000005 191.8 L 345.40000000000003 191.8 L 345.8 191.8 L 346.20000000000005 192 L 346.40000000000003 192 L 346.8 192.20000000000002 L 347.20000000000005 192.20000000000002 L 347.40000000000003 192.20000000000002 L 347.8 192.4 L 348 192.4 L 348.40000000000003 192.60000000000002 L 348.8 192.60000000000002 L 349 192.60000000000002 L 349.40000000000003 192.8 L 349.6 192.8 L 350 192.8 L 350.40000000000003 193 L 350.6 193 L 351 193.20000000000002 L 351.40000000000003 193.20000000000002 L 351.6 193.20000000000002 L 352 193.4 L 352.20000000000005 193.4 L 352.6 193.60000000000002 L 353 193.60000000000002 L 353.20000000000005 193.60000000000002 L 353.6 193.8 L 353.8 193.8 L 354.20000000000005 193.8 L 354.6 194 L 354.8 194 L 355.20000000000005 194.20000000000002 L 355.6 194.20000000000002 L 355.8 194.20000000000002 L 356.20000000000005 194.4 L 356.40000000000003 194.4 L 356.8 194.4 L 357.20000000000005 194.60000000000002 L 357.40000000000003 194.60000000000002 L 357.8 194.8 L 358 194.8 L 358.40000000000003 194.8 L 358.8 195 L 359 195 L 359.40000000000003 195 L 359.8 195.20000000000002 L 360 195.20000000000002 L 360.40000000000003 195.20000000000002 L 360.6 195.4 L 361 195.4 L 361.40000000000003 195.60000000000002 L 361.6 195.60000000000002 L 362 195.60000000000002 L 362.20000000000005 195.8 L 362.6 195.8 L 363 195.8 L 363.20000000000005 196 L 363.6 196 L 364 196 L 364.20000000000005 196.20000000000002 L 364.6 196.20000000000002 L 364.8 196.4 L 365.20000000000005 196.4 L 365.6 196.4 L 365.8 196.60000000000002 L 366.20000000000005 196.60000000000002 L 366.40000000000003 196.60000000000002 L 366.8 196.8 L 367.20000000000005 196.8 L 367.40000000000003 196.8 L 367.8 197 L 368.20000000000005 197 L 368.40000000000003 197 L 368.8 197.20000000000002 L 369 197.20000000000002 L 369.40000000000003 197.20000000000002 L 369.8 197.4 L 370 197.4 L 370.40000000000003 197.4 L 370.6 197.60000000000002 L 371 197.60000000000002 L 371.40000000000003 197.60000000000002 L 371.6 197.8 L 372 197.8 L 372.40000000000003 198 L 372.6 198 L 373 198 L 373.20000000000005 198.20000000000002 "/></g><circle fill="black" r="3" display="none"/><g/><rect fill="white"/><text/><g/></g></g><g><g clip-path="url(#_clipplota40b54ac-453b-4e50-9910-9b97ead7ffaf)"><rect data-label-i="0" display="initial"/><text data-label-i="0" display="initial"/></g><g clip-path="url(#_clipplota40b54ac-453b-4e50-9910-9b97ead7ffaf)"><rect data-label-i="0" display="initial"/><text data-label-i="0" display="initial"/></g><g clip-path="url(#_clipplota40b54ac-453b-4e50-9910-9b97ead7ffaf)"><rect data-label-i="0" display="initial"/><text data-label-i="0" display="initial"/></g><g clip-path="url(#_clipplota40b54ac-453b-4e50-9910-9b97ead7ffaf)"><rect data-label-i="0" display="initial"/><text data-label-i="0" display="initial"/></g></g></g></g><line stroke="black" shape-rendering="crispEdges" stroke-linecap="square" display="none"/><line stroke="black" shape-rendering="crispEdges" stroke-linecap="square" display="none"/><line stroke="black" shape-rendering="crispEdges" stroke-linecap="square" display="none"/><line stroke="black" shape-rendering="crispEdges" stroke-linecap="square" display="none"/></g><g><rect display="none" fill="rgba(171,12,12,0.2)" stroke="rgba(171,12,12,1)" shape-rendering="crispEdges" x="0" y="0" height="0" width="0" pointer-events="none"/></g></g><g display="block" transform="translate(99, 306.92432403564453)"><rect x="-5" y="-8.109375" stroke="rgba( 100, 100, 100, 0.5 )" stroke-width="1px" rx="0" ry="0" fill="rgba( 255, 255, 255, 0.8 )" width="422.578125" height="37.18505096435547"/><symbol id="3fb6c62a-93bf-43d5-8fcb-74fa0812d1b5" viewBox="0 -256 1850 1850"><rect pointer-events="fill" x="-256" y="0" fill="transparent" width="2106" height="1850"/><g transform="matrix(1,0,0,-1,30.372881,1259.8983)"><path d="m 1664,576 q -152,236 -381,353 61,-104 61,-225 0,-185 -131.5,-316.5 Q 1081,256 896,256 711,256 579.5,387.5 448,519 448,704 448,825 509,929 280,812 128,576 261,371 461.5,249.5 662,128 896,128 1130,128 1330.5,249.5 1531,371 1664,576 z M 944,960 q 0,20 -14,34 -14,14 -34,14 -125,0 -214.5,-89.5 Q 592,829 592,704 q 0,-20 14,-34 14,-14 34,-14 20,0 34,14 14,14 14,34 0,86 61,147 61,61 147,61 20,0 34,14 14,14 14,34 z m 848,-384 q 0,-34 -20,-69 Q 1632,277 1395.5,138.5 1159,0 896,0 633,0 396.5,139 160,278 20,507 0,542 0,576 q 0,34 20,69 140,229 376.5,368 236.5,139 499.5,139 263,0 499.5,-139 236.5,-139 376.5,-368 20,-35 20,-69 z" fill="#444444"/></g></symbol><symbol id="a1c79452-2b2c-4f8d-b0ef-5ab9d0107258" viewBox="0 -256 1850 1850"><rect pointer-events="fill" fill="transparent" x="-256" y="0" width="2106" height="1850"/><g transform="matrix(1,0,0,-1,30.372881,1214.339)"><path d="m 555,201 78,141 q -87,63 -136,159 -49,96 -49,203 0,121 61,225 Q 280,812 128,576 295,318 555,201 z m 389,759 q 0,20 -14,34 -14,14 -34,14 -125,0 -214.5,-89.5 Q 592,829 592,704 q 0,-20 14,-34 14,-14 34,-14 20,0 34,14 14,14 14,34 0,86 61,147 61,61 147,61 20,0 34,14 14,14 14,34 z m 363,191 q 0,-7 -1,-9 Q 1201,954 991,576 781,198 675,9 l -49,-89 q -10,-16 -28,-16 -12,0 -134,70 -16,10 -16,28 0,12 44,87 Q 349,154 228.5,262 108,370 20,507 0,538 0,576 q 0,38 20,69 153,235 380,371 227,136 496,136 89,0 180,-17 l 54,97 q 10,16 28,16 5,0 18,-6 13,-6 31,-15.5 18,-9.5 33,-18.5 15,-9 31.5,-18.5 16.5,-9.5 19.5,-11.5 16,-10 16,-27 z m 37,-447 Q 1344,565 1265,450.5 1186,336 1056,286 l 280,502 q 8,-45 8,-84 z m 448,-128 q 0,-35 -20,-69 Q 1733,443 1663,362 1513,190 1315.5,95 1118,0 896,0 l 74,132 q 212,18 392.5,137 180.5,119 301.5,307 -115,179 -282,294 l 63,112 q 95,-64 182.5,-153 87.5,-89 144.5,-184 20,-34 20,-69 z" fill="#c0c0c0"/></g></symbol><g><g transform="translate( 0, 10)"><rect x="5" y="-8.109375" width="67.3125" height="17.18505096435547" fill="none" pointer-events="fill"/><line stroke="rgba(255,1,9,1)" stroke-width="0.0001" fill="none" x1="5" x2="25" y1="0" y2="0" cursor="pointer"/><path fill="rgba(255,1,9,1)" stroke="rgba(255,1,9,1)" stroke-width="1" d="M 14 0 m -1 -1 l 2 0 l 0 2 l -2 0 z"/><use xlink:href="#3fb6c62a-93bf-43d5-8fcb-74fa0812d1b5" width="15" height="15" x="35" y="-8"/><text cursor="pointer" transform="translate(55, 3)" fill="black">red</text></g><g transform="translate( 77.3125, 10)"><rect x="5" y="-8.109375" width="80.65625" height="17.18505096435547" fill="none" pointer-events="fill"/><line stroke="rgba(5,150,0,1)" stroke-width="0.0001" fill="none" x1="5" x2="25" y1="0" y2="0" cursor="pointer"/><path fill="rgba(5,150,0,1)" stroke="rgba(5,150,0,1)" stroke-width="1" d="M 14 0 m -1 -1 l 2 0 l 0 2 l -2 0 z"/><use xlink:href="#3fb6c62a-93bf-43d5-8fcb-74fa0812d1b5" width="15" height="15" x="35" y="-8"/><text cursor="pointer" transform="translate(55, 3)" fill="black">green</text></g><g transform="translate( 167.96875, 10)"><rect x="5" y="-8.109375" width="72.65625" height="17.18505096435547" fill="none" pointer-events="fill"/><line stroke="rgba(2,1,255,1)" stroke-width="0.0001" fill="none" x1="5" x2="25" y1="0" y2="0" cursor="pointer"/><path fill="rgba(2,1,255,1)" stroke="rgba(2,1,255,1)" stroke-width="1" d="M 14 0 m -1 -1 l 2 0 l 0 2 l -2 0 z"/><use xlink:href="#3fb6c62a-93bf-43d5-8fcb-74fa0812d1b5" width="15" height="15" x="35" y="-8"/><text cursor="pointer" transform="translate(55, 3)" fill="black">blue</text></g><g transform="translate( 250.625, 10)"><rect x="5" y="-8.109375" width="151.953125" height="17.18505096435547" fill="none" pointer-events="fill"/><line stroke="rgba(255,253,11,0.4)" stroke-width="3" fill="none" x1="5" x2="25" y1="0" y2="0" cursor="pointer"/><use xlink:href="#3fb6c62a-93bf-43d5-8fcb-74fa0812d1b5" width="15" height="15" x="35" y="-8"/><text cursor="pointer" transform="translate(55, 3)" fill="black">regressionFunction</text></g></g><rect x="0" y="0" width="422.578125" height="37.18505096435547" fill="none" pointer-events="fill" display="none"/></g></svg>